<svg width="36" height="43" viewBox="0 0 36 43" fill="none" xmlns="http://www.w3.org/2000/svg">
<g clip-path="url(#clip0_1303_201)">
<path d="M2.99993 15.72L8.66993 27.24C7.30993 27.08 5.89993 27.24 4.56993 27.8C0.559927 29.46 -1.13007 33.96 0.779927 37.86C2.69993 41.75 7.49993 43.56 11.4999 41.9C15.5099 40.24 17.1999 35.74 15.2899 31.85L3.62993 8.12C2.05993 10.24 1.71993 13.12 2.99993 15.73V15.72Z" fill="#4041E4"/>
<path d="M22.5898 7.61L28.2598 19.13C26.8998 18.97 25.4898 19.13 24.1598 19.69C20.1498 21.35 18.4598 25.85 20.3698 29.74C22.2898 33.63 27.0898 35.44 31.0898 33.78C35.0998 32.12 36.7898 27.62 34.8798 23.73L23.2198 0C21.6498 2.12 21.3098 5 22.5898 7.61Z" fill="#E67823"/>
<path d="M19.0098 1.73999L7.25977 6.60999L8.98977 10.14L17.9498 6.42999C17.8198 4.68999 17.9798 3.12999 19.0098 1.74999V1.73999Z" fill="#1E756D"/>
</g>
<defs>
<clipPath id="clip0_1303_201">
<rect width="35.68" height="42.51" fill="white"/>
</clipPath>
</defs>
</svg>
