<svg width="65" height="43" viewBox="0 0 65 43" fill="none" xmlns="http://www.w3.org/2000/svg">
<g clip-path="url(#clip0_1304_206)">
<path d="M15.1826 4.56818L23.5032 16.0547C26.6749 13.7572 27.3837 9.32281 25.0862 6.15115C22.7887 2.9795 18.3543 2.2707 15.1826 4.56818Z" fill="#F5B444"/>
<path d="M13.6001 14.4718L20.4002 23.8593C19.2005 23.983 18.0157 24.4103 16.9685 25.1688C13.7969 27.4663 13.0881 31.9007 15.3856 35.0724C17.683 38.2441 22.1175 38.9529 25.2891 36.6554C28.4608 34.3579 29.1696 29.9235 26.8721 26.7518L12.8674 7.41836C11.8706 9.65581 12.0571 12.3467 13.5977 14.4735L13.6001 14.4718Z" fill="#4041E4"/>
</g>
<g clip-path="url(#clip1_1304_206)">
<path d="M50.4707 14.9606L50.0005 23.731C52.4221 23.8609 54.491 22.0026 54.6208 19.5809C54.7506 17.1592 52.8924 15.0904 50.4707 14.9606Z" fill="#E67823"/>
<path d="M45.8507 19.1107L45.4663 26.2785C44.8407 25.8706 44.104 25.6147 43.3044 25.5718C40.8827 25.4419 38.8139 27.3002 38.6841 29.7219C38.5542 32.1436 40.4125 34.2124 42.8342 34.3422C45.2559 34.4721 47.3247 32.6138 47.4545 30.1921L48.246 15.4303C46.8945 16.1189 45.936 17.4867 45.8489 19.1106L45.8507 19.1107Z" fill="#1E756D"/>
</g>
<defs>
<clipPath id="clip0_1304_206">
<rect x="0.699219" y="14.95" width="25" height="32.0946" transform="rotate(-35.9187 0.699219 14.95)" fill="white"/>
</clipPath>
<clipPath id="clip1_1304_206">
<rect width="15.481" height="19.8743" fill="white" transform="translate(39.4551 14.3149) rotate(3.06911)"/>
</clipPath>
</defs>
</svg>
