<svg width="920" height="50" viewBox="0 0 920 50" fill="none" xmlns="http://www.w3.org/2000/svg">
<mask id="mask0_973_284" style="mask-type:alpha" maskUnits="userSpaceOnUse" x="0" y="0" width="920" height="50">
<rect width="920" height="50" rx="25" fill="#1E756D"/>
</mask>
<g mask="url(#mask0_973_284)">
<path d="M890 21C890 23.7614 892.239 26 895 26C897.761 26 900 23.7614 900 21C900 18.2386 897.761 16 895 16C892.239 16 890 18.2386 890 21Z" fill="#E67823"/>
<path d="M883 35.5C883 40.7467 887.253 45 892.5 45C897.747 45 902 40.7467 902 35.5C902 30.2533 897.747 26 892.5 26C887.253 26 883 30.2533 883 35.5Z" fill="#E67823"/>
<path d="M24.5628 18.8496C19.3966 17.9341 15.9507 13.0038 16.8662 7.83763C17.7817 2.67142 22.712 -0.774465 27.8782 0.141039C33.0444 1.05654 36.4903 5.98675 35.5748 11.153C34.6593 16.3192 29.729 19.7651 24.5628 18.8496Z" fill="#E67823"/>
<path d="M858 46.5C858 51.1944 861.806 55 866.5 55C871.194 55 875 51.1944 875 46.5C875 41.8056 871.194 38 866.5 38C861.806 38 858 41.8056 858 46.5Z" fill="#E67823"/>
<path d="M12.2513 37.4511C8.58554 36.8015 6.14047 33.3032 6.79008 29.6374C7.43969 25.9717 10.938 23.5266 14.6038 24.1762C18.2695 24.8258 20.7146 28.3241 20.065 31.9899C19.4154 35.6556 15.9171 38.1007 12.2513 37.4511Z" fill="#E67823"/>
<path d="M886 17.5C886 19.433 887.567 21 889.5 21C891.433 21 893 19.433 893 17.5C893 15.567 891.433 14 889.5 14C887.567 14 886 15.567 886 17.5Z" fill="#4041E4"/>
<path d="M42.8108 19.0364C40.9074 18.6991 39.6379 16.8827 39.9752 14.9794C40.3125 13.076 42.1289 11.8065 44.0322 12.1438C45.9356 12.4811 47.2051 14.2975 46.8678 16.2008C46.5305 18.1042 44.7141 19.3737 42.8108 19.0364Z" fill="#4041E4"/>
<circle cx="4.5" cy="4.5" r="4.5" transform="matrix(-1 0 0 1 886 29)" fill="#F5B444"/>
<circle cx="26.2711" cy="20.6755" r="4.5" transform="rotate(100.049 26.2711 20.6755)" fill="#F5B444"/>
<circle cx="7" cy="7" r="7" transform="matrix(-1 0 0 1 909 0)" fill="#F5B444"/>
<circle cx="46.1145" cy="0.114043" r="7" transform="rotate(100.049 46.1145 0.114043)" fill="#F5B444"/>
</g>
</svg>
