<svg width="47" height="38" viewBox="0 0 47 38" fill="none" xmlns="http://www.w3.org/2000/svg">
<mask id="mask0_1320_249" style="mask-type:luminance" maskUnits="userSpaceOnUse" x="0" y="0" width="47" height="38">
<path d="M46.51 0.0100098H0V37.67H46.51V0.0100098Z" fill="white"/>
</mask>
<g mask="url(#mask0_1320_249)">
<path d="M17.9494 18.74C12.7794 17.82 9.33944 12.89 10.2494 7.72996C11.1694 2.55996 16.0994 -0.880041 21.2594 0.0299587C26.4294 0.949959 29.8694 5.87996 28.9594 11.04C28.0394 16.21 23.1094 19.65 17.9494 18.74Z" fill="#E67823"/>
<path d="M5.63904 37.34C1.96904 36.69 -0.470959 33.19 0.179041 29.53C0.829041 25.86 4.32904 23.42 7.98904 24.07C11.659 24.72 14.099 28.22 13.449 31.88C12.799 35.55 9.29904 37.99 5.63904 37.34Z" fill="#E67823"/>
<path d="M36.1988 18.9201C34.2988 18.5801 33.0288 16.7701 33.3588 14.8601C33.6988 12.9601 35.5088 11.6901 37.4188 12.0201C39.3188 12.3601 40.5888 14.1701 40.2588 16.0801C39.9188 17.9801 38.1088 19.2501 36.1988 18.9201Z" fill="#4041E4"/>
<path d="M19.6582 25.0601C22.1435 25.0601 24.1582 23.0453 24.1582 20.5601C24.1582 18.0748 22.1435 16.0601 19.6582 16.0601C17.1729 16.0601 15.1582 18.0748 15.1582 20.5601C15.1582 23.0453 17.1729 25.0601 19.6582 25.0601Z" fill="#F5B444"/>
<path d="M39.5 7C43.366 7 46.5 3.86599 46.5 0C46.5 -3.86599 43.366 -7 39.5 -7C35.634 -7 32.5 -3.86599 32.5 0C32.5 3.86599 35.634 7 39.5 7Z" fill="#F5B444"/>
</g>
</svg>
