<svg width="52" height="50" viewBox="0 0 52 50" fill="none" xmlns="http://www.w3.org/2000/svg">
<mask id="mask0_1320_259" style="mask-type:luminance" maskUnits="userSpaceOnUse" x="0" y="0" width="52" height="50">
<path d="M51.02 0.0300293H0V49.93H51.02V0.0300293Z" fill="white"/>
</mask>
<g mask="url(#mask0_1320_259)">
<path d="M32.0391 21C32.0391 23.76 34.2791 26 37.0391 26C39.7991 26 42.0391 23.76 42.0391 21C42.0391 18.24 39.7991 16 37.0391 16C34.2791 16 32.0391 18.24 32.0391 21Z" fill="#E67823"/>
<path d="M25.0391 35.5C25.0391 40.75 29.2891 45 34.5391 45C39.7891 45 44.0391 40.75 44.0391 35.5C44.0391 30.25 39.7891 26 34.5391 26C29.2891 26 25.0391 30.25 25.0391 35.5Z" fill="#E67823"/>
<path d="M0.0390625 46.5C0.0390625 51.19 3.84906 55 8.53906 55C13.2291 55 17.0391 51.19 17.0391 46.5C17.0391 41.81 13.2291 38 8.53906 38C3.84906 38 0.0390625 41.81 0.0390625 46.5Z" fill="#E67823"/>
<path d="M28.0391 17.5C28.0391 19.43 29.6091 21 31.5391 21C33.4691 21 35.0391 19.43 35.0391 17.5C35.0391 15.57 33.4691 14 31.5391 14C29.6091 14 28.0391 15.57 28.0391 17.5Z" fill="#4041E4"/>
<path d="M23.5391 38C26.0243 38 28.0391 35.9853 28.0391 33.5C28.0391 31.0147 26.0243 29 23.5391 29C21.0538 29 19.0391 31.0147 19.0391 33.5C19.0391 35.9853 21.0538 38 23.5391 38Z" fill="#F5B444"/>
<path d="M44.0391 14C47.9051 14 51.0391 10.866 51.0391 7C51.0391 3.13401 47.9051 0 44.0391 0C40.1731 0 37.0391 3.13401 37.0391 7C37.0391 10.866 40.1731 14 44.0391 14Z" fill="#F5B444"/>
</g>
</svg>
