<svg width="320" height="321" viewBox="0 0 320 321" fill="none" xmlns="http://www.w3.org/2000/svg">
<rect x="282.035" y="184.39" width="29.3441" height="97.6324" rx="14.6721" transform="rotate(45 282.035 184.39)" fill="#4041E4"/>
<rect x="369.945" y="99" width="40.12" height="108.818" rx="20.06" transform="rotate(45 369.945 99)" fill="#E67823"/>
<rect x="354.504" y="-72.0001" width="35.1882" height="150.619" rx="17.5941" transform="rotate(45 354.504 -72.0001)" fill="#1E756D"/>
<rect width="40.1166" height="171.714" rx="20.0583" transform="matrix(-0.707107 -0.707107 -0.707107 0.707107 84.7871 197.367)" fill="#F5B444"/>
<path d="M312.062 311.891L293.13 308.332L305.678 293.715L312.062 311.891Z" fill="#4041E4"/>
<path d="M277.175 235.589C277.175 242.541 271.539 248.177 264.587 248.177C257.634 248.177 251.998 242.541 251.998 235.589C251.998 228.636 257.634 223 264.587 223C271.539 223 277.175 228.636 277.175 235.589Z" fill="#F5B444"/>
<circle cx="24.6573" cy="202.659" r="9.65922" fill="#4041E4"/>
<rect x="51.7695" y="9.68799" width="13.3453" height="207.564" rx="6.67267" transform="rotate(45 51.7695 9.68799)" fill="#E67823"/>
<path d="M-18.1562 85.5415L82.4133 -15.028" stroke="#573531" stroke-width="3" stroke-linecap="round"/>
<path d="M14.6113 42.5696L115.181 -57.9999" stroke="#573531" stroke-linecap="round"/>
<path d="M297.549 126.317L304.774 132.95C306.769 131.119 306.769 128.148 304.774 126.317C302.779 124.485 299.544 124.485 297.549 126.317Z" fill="#F5B444"/>
<path d="M297.549 132.951L303.454 138.372C302.615 138.578 301.82 138.981 301.162 139.586C299.167 141.417 299.167 144.388 301.162 146.219C303.157 148.051 306.392 148.051 308.387 146.219C310.382 144.388 310.382 141.417 308.387 139.586L296.226 128.42C295.771 129.986 296.21 131.724 297.547 132.952L297.549 132.951Z" fill="#4041E4"/>
<path d="M125.549 29.3167L132.774 35.9504C134.77 34.1187 134.77 31.1484 132.774 29.3167C130.779 27.4849 127.544 27.4849 125.549 29.3167Z" fill="#E67823"/>
<path d="M125.549 35.9505L131.454 41.3721C130.615 41.5781 129.82 41.9808 129.162 42.5856C127.167 44.4173 127.167 47.3877 129.162 49.2194C131.157 51.0511 134.392 51.0511 136.387 49.2194C138.382 47.3877 138.382 44.4173 136.387 42.5856L124.226 31.4201C123.771 32.9855 124.21 34.7236 125.547 35.9518L125.549 35.9505Z" fill="#1E756D"/>
<circle cx="256" cy="20" r="16" fill="#F5B444"/>
<ellipse cx="93" cy="8.5" rx="15" ry="14.5" fill="#4041E4"/>
<ellipse cx="182" cy="-0.5" rx="24" ry="23.5" fill="#F5B444"/>
<path d="M165 293.57L265.57 193" stroke="#573531" stroke-width="2" stroke-linecap="round"/>
<path d="M19.7707 24.931L3.75975 41.9937L-3.01149 19.5965L19.7707 24.931Z" fill="#4041E4"/>
<path d="M59.5846 45.7594L62.1997 56.3837L51.6913 53.3363L59.5846 45.7594Z" fill="#E67823"/>
<path d="M193.126 53.1265L202.89 55.7425L195.743 62.8898L193.126 53.1265Z" fill="#E67823"/>
<path d="M228.719 43.8808L216.226 53.0072L214.569 37.6252L228.719 43.8808Z" fill="#F5B444"/>
<path d="M20.2296 161.369L25.9142 166.262C25.1061 166.448 24.3415 166.812 23.7074 167.357C21.7868 169.01 21.7868 171.691 23.7088 173.345C25.6308 175 28.7439 174.998 30.6645 173.345C32.5851 171.692 32.5851 169.012 30.6645 167.359L18.9557 157.281C18.518 158.694 18.9403 160.262 20.2281 161.371L20.2296 161.369Z" fill="#4041E4"/>
<path d="M29.6182 153.289L35.3029 158.182C34.4948 158.367 33.7302 158.731 33.0961 159.277C31.1755 160.93 31.1755 163.61 33.0961 165.264C35.0167 166.917 38.1312 166.917 40.0518 165.264C41.9724 163.61 41.9724 160.93 40.0518 159.277L28.3444 149.2C27.9067 150.613 28.3289 152.181 29.6168 153.29L29.6182 153.289Z" fill="#E67823"/>
<path d="M26.3261 150.935L20.6934 155.783L22.433 157.281L26.7273 153.584C26.2812 152.703 26.0399 151.855 26.3261 150.935Z" fill="#1E756D"/>
<rect x="4.42578" y="112" width="29.3447" height="146.268" rx="14.6723" transform="rotate(45 4.42578 112)" fill="#1E756D"/>
<path d="M269.244 169.235L278.43 178.421L265.882 181.783L269.244 169.235Z" fill="#1E756D"/>
</svg>
