<svg width="1440" height="1113" viewBox="0 0 1440 1113" fill="none" xmlns="http://www.w3.org/2000/svg">
<rect x="1440.4" y="265.66" width="109.942" height="365.792" rx="54.9708" transform="rotate(45 1440.4 265.66)" fill="#4041E4"/>
<rect x="1553.68" y="-64.302" width="99.3216" height="425.134" rx="49.6608" transform="rotate(45 1553.68 -64.302)" fill="#1E756D"/>
<rect x="63.5039" y="213" width="109.944" height="548.012" rx="54.9718" transform="rotate(45 63.5039 213)" fill="#1E756D"/>
<rect x="1081.29" y="354" width="95.2492" height="407.702" rx="47.6246" transform="rotate(45 1081.29 354)" fill="#E67823"/>
<rect width="150.302" height="643.349" rx="75.151" transform="matrix(-0.707107 -0.707107 -0.707107 0.707107 323.195 386.28)" fill="#F5B444"/>
<path d="M1271.96 1033.72L1201.03 1020.39L1248.05 965.625L1271.96 1033.72Z" fill="#4041E4"/>
<path d="M1074.84 844.479C1074.84 870.527 1053.73 891.644 1027.68 891.644C1001.63 891.644 980.512 870.527 980.512 844.479C980.512 818.43 1001.63 797.314 1027.68 797.314C1053.73 797.314 1074.84 818.43 1074.84 844.479Z" fill="#F5B444"/>
<circle cx="1360.91" cy="120.912" r="49.9125" fill="#F5B444"/>
<circle cx="557.275" cy="778.7" r="36.1895" fill="#4041E4"/>
<rect x="239.943" y="-106.399" width="50" height="777.663" rx="25" transform="rotate(45 239.943 -106.399)" fill="#E67823"/>
<path d="M60.2904 28.9203L12.8824 79.4424L-7.16703 13.1248L60.2904 28.9203Z" fill="#4041E4"/>
<path d="M-22.0371 177.796L354.759 -199" stroke="#573531" stroke-width="5" stroke-linecap="round"/>
<path d="M100.727 16.7966L477.523 -360" stroke="#573531" stroke-width="2" stroke-linecap="round"/>
<path d="M1196.02 264.095L1218.01 284.284C1224.08 278.709 1224.08 269.669 1218.01 264.095C1211.94 258.52 1202.09 258.52 1196.02 264.095Z" fill="#F5B444"/>
<path d="M1196.02 284.284L1213.99 300.785C1211.44 301.412 1209.02 302.638 1207.01 304.478C1200.94 310.053 1200.94 319.093 1207.01 324.668C1213.09 330.243 1222.93 330.243 1229 324.668C1235.08 319.093 1235.08 310.053 1229 304.478L1191.99 270.496C1190.61 275.26 1191.94 280.55 1196.01 284.288L1196.02 284.284Z" fill="#4041E4"/>
<path d="M680.02 51.095L702.01 71.2847C708.083 65.7099 708.083 56.6698 702.01 51.095C695.938 45.5202 686.092 45.5202 680.02 51.095Z" fill="#E67823"/>
<path d="M680.018 71.2846L697.991 87.785C695.436 88.4121 693.019 89.6378 691.014 91.4784C684.942 97.0532 684.942 106.093 691.014 111.668C697.086 117.243 706.932 117.243 713.005 111.668C719.077 106.093 719.077 97.0532 713.005 91.4784L675.991 57.4963C674.607 62.2607 675.942 67.5504 680.014 71.2887L680.018 71.2846Z" fill="#1E756D"/>
<path d="M1099.05 285.979L1132.07 319.004L1086.96 331.092L1099.05 285.979Z" fill="#1E756D"/>
<circle cx="877" cy="29" r="75" fill="#F5B444"/>
<rect x="1410.37" y="677.582" width="47.4413" height="473.843" rx="23.7207" transform="rotate(45 1410.37 677.582)" fill="#4041E4"/>
<path d="M933.746 1109.73L1310.54 732.936" stroke="#573531" stroke-width="5" stroke-linecap="round"/>
<path d="M162.257 306.597L178.323 320.425C176.039 320.95 173.878 321.978 172.086 323.52C166.658 328.192 166.658 335.768 172.09 340.443C177.522 345.118 186.32 345.114 191.747 340.443C197.175 335.771 197.175 328.195 191.747 323.524L158.657 295.043C157.42 299.035 158.614 303.468 162.253 306.601L162.257 306.597Z" fill="#4041E4"/>
<path d="M188.791 283.761L204.856 297.588C202.572 298.114 200.411 299.141 198.619 300.683C193.192 305.355 193.192 312.931 198.619 317.603C204.047 322.274 212.849 322.274 218.277 317.603C223.705 312.931 223.705 305.355 218.277 300.683L185.191 272.206C183.954 276.199 185.147 280.631 188.787 283.764L188.791 283.761Z" fill="#E67823"/>
<path d="M179.493 277.11L163.574 290.811L168.491 295.043L180.627 284.597C179.366 282.106 178.684 279.71 179.493 277.11Z" fill="#1E756D"/>
<path d="M1004 667.202L1328.2 343" stroke="#573531" stroke-width="5" stroke-linecap="round"/>
<path d="M962.77 168.235L992.984 176.331L970.866 198.449L962.77 168.235Z" fill="#E67823"/>
<path d="M1036.06 119.483L997.395 147.726L992.266 100.124L1036.06 119.483Z" fill="#F5B444"/>
<path d="M365.768 116.116L376.345 159.085L333.844 146.76L365.768 116.116Z" fill="#E67823"/>
<circle cx="362.5" cy="28.5" r="59.5" fill="#4041E4"/>
<path d="M48.7699 246.235L78.9837 254.331L56.8656 276.449L48.7699 246.235Z" fill="#E67823"/>
<path d="M122.055 197.483L83.3955 225.726L78.2663 178.124L122.055 197.483Z" fill="#F5B444"/>
<path d="M1240 32L1229.5 38.0622L1229.5 25.9378L1240 32Z" fill="white"/>
</svg>
