<svg width="430" height="160" viewBox="0 0 430 160" fill="none" xmlns="http://www.w3.org/2000/svg">
<path d="M66.6558 117.472H34.9188C34.1102 117.472 33.4443 118.074 33.4443 118.829V121.642C33.4443 122.386 34.0983 122.999 34.9188 122.999H47.6065V156.164C47.6065 156.909 48.2605 157.522 49.0809 157.522H52.5055C53.3141 157.522 53.98 156.92 53.98 156.164V122.999H66.6676C67.4762 122.999 68.1421 122.397 68.1421 121.642V118.829C68.1421 118.085 67.4881 117.472 66.6676 117.472H66.6558Z" fill="#231815"/>
<path d="M94.2422 116.706C81.3999 116.706 71.7207 125.637 71.7207 137.492C71.7207 149.346 81.3999 158.277 94.2422 158.277C107.084 158.277 116.716 149.346 116.716 137.492C116.716 125.637 107.049 116.706 94.2422 116.706ZM94.2422 152.75C85.0029 152.75 78.0229 146.193 78.0229 137.492C78.0229 128.79 84.991 122.233 94.2422 122.233C103.493 122.233 110.402 128.932 110.402 137.492C110.402 146.051 103.303 152.75 94.2422 152.75Z" fill="#231815"/>
<path d="M134.233 135.675L152.509 119.804C152.949 119.42 153.092 118.84 152.866 118.315C152.64 117.801 152.105 117.461 151.499 117.461H147.087C146.707 117.461 146.35 117.593 146.076 117.833L129.988 131.898V118.818C129.988 118.074 129.334 117.461 128.513 117.461H125.148C124.34 117.461 123.674 118.063 123.674 118.818V156.154C123.674 156.898 124.328 157.511 125.148 157.511H128.513C129.322 157.511 129.988 156.909 129.988 156.154V139.539L147.777 157.084C148.05 157.358 148.443 157.511 148.847 157.511H153.306C153.889 157.511 154.424 157.194 154.662 156.69C154.899 156.187 154.781 155.618 154.376 155.224L134.233 135.686V135.675Z" fill="#231815"/>
<path d="M190.703 117.472H186.921C186.398 117.472 185.911 117.724 185.649 118.14L175.042 134.93L164.483 118.14C164.222 117.724 163.734 117.461 163.211 117.461H159.429C158.906 117.461 158.419 117.724 158.157 118.14C157.896 118.556 157.896 119.081 158.157 119.497L171.903 141.093V156.143C171.903 156.887 172.557 157.5 173.378 157.5H176.743C177.551 157.5 178.217 156.898 178.217 156.143V141.093L191.963 119.497C192.225 119.081 192.237 118.556 191.963 118.14C191.701 117.724 191.214 117.461 190.691 117.461L190.703 117.472Z" fill="#231815"/>
<path d="M218.753 116.706C205.911 116.706 196.231 125.637 196.231 137.492C196.231 149.346 205.911 158.277 218.753 158.277C231.595 158.277 241.227 149.346 241.227 137.492C241.227 125.637 231.559 116.706 218.753 116.706ZM218.753 152.75C209.514 152.75 202.534 146.193 202.534 137.492C202.534 128.79 209.502 122.233 218.753 122.233C228.004 122.233 234.913 128.932 234.913 137.492C234.913 146.051 227.814 152.75 218.753 152.75Z" fill="#231815"/>
<path d="M283.416 158.67C284.224 158.67 284.89 158.068 284.89 157.313V154.5C284.89 153.756 284.236 153.143 283.416 153.143H270.954L264.759 158.67H283.416Z" fill="black"/>
<path d="M269.717 117.876C266.483 117.876 263.486 118.719 260.918 120.306L263.332 125.659C264.937 124.367 267.077 123.393 269.86 123.393C271.596 123.393 273.094 123.885 274.236 124.739L278.743 120.722C276.222 118.796 272.892 117.876 269.693 117.876H269.717Z" fill="black"/>
<path d="M256.767 124.006C256.47 124.378 256.399 124.87 256.589 125.308L257.992 128.559C258.194 129.041 258.682 129.369 259.241 129.413C259.8 129.457 260.335 129.194 260.62 128.756C260.798 128.482 260.989 128.209 261.191 127.935L258.575 122.134C257.945 122.714 257.326 123.327 256.779 124.028L256.767 124.006Z" fill="#ECAE45"/>
<path d="M276.65 129.73C276.65 133.473 274.474 136.538 270.205 141.223C264.676 147.287 257.934 153.416 254.687 156.361C254.259 156.744 254.128 157.335 254.354 157.838C254.58 158.342 255.115 158.681 255.71 158.681H260.514L266.709 153.154H266.614C271.192 148.71 274.926 144.857 277.078 142.372C281.347 137.512 283 133.944 283 129.632C283 126.786 282.132 124.498 280.752 122.714L276.032 126.928C276.424 127.76 276.65 128.701 276.65 129.73Z" fill="black"/>
<path d="M315.117 129.96L321.086 128.209C320.527 126.447 319.802 124.958 318.982 123.721L314.32 127.881C314.629 128.504 314.891 129.205 315.129 129.96H315.117Z" fill="#3A4D9F"/>
<path d="M298.255 138.651C298.255 128.384 301.181 123.393 307.209 123.393C309.481 123.393 311.312 124.104 312.703 125.538L317.174 121.554C314.273 118.73 310.586 117.876 307.209 117.876C300.241 117.876 291.941 121.477 291.941 138.662C291.941 148.25 294.522 153.603 298.018 156.47L302.501 152.475C299.647 150.319 298.255 145.755 298.255 138.662V138.651Z" fill="black"/>
<path d="M316.163 138.651C316.163 148.918 313.238 153.909 307.21 153.909C306.544 153.909 305.913 153.833 305.331 153.712L300.491 158.025C302.655 159.064 304.998 159.437 307.21 159.437C314.178 159.437 322.478 155.836 322.478 138.651C322.478 135.652 322.216 133.069 321.764 130.847L315.723 132.62C316.009 134.382 316.163 136.385 316.163 138.651Z" fill="black"/>
<path d="M331.443 124.006C331.146 124.378 331.074 124.871 331.265 125.308L332.668 128.559C332.87 129.041 333.358 129.369 333.916 129.413C334.475 129.457 335.01 129.194 335.296 128.756C335.605 128.275 335.974 127.771 336.39 127.268L333.833 121.598C332.977 122.309 332.168 123.108 331.443 124.017V124.006Z" fill="#DC7527"/>
<path d="M344.393 117.876C341.432 117.876 338.674 118.61 336.26 119.945L338.638 125.199C340.16 124.148 342.11 123.393 344.548 123.393C345.808 123.393 346.95 123.656 347.925 124.126L352.491 120.055C350.113 118.577 347.211 117.865 344.393 117.865V117.876Z" fill="black"/>
<path d="M358.079 153.154H345.367L339.172 158.682H358.079C358.887 158.682 359.553 158.08 359.553 157.324V154.511C359.553 153.767 358.899 153.154 358.079 153.154Z" fill="black"/>
<path d="M351.765 142.372C356.034 137.513 357.686 133.944 357.686 129.632C357.686 126.315 356.509 123.743 354.702 121.86L350.124 125.943C350.885 126.972 351.325 128.264 351.325 129.73C351.325 133.474 349.149 136.538 344.88 141.223C339.351 147.287 332.608 153.417 329.362 156.361C328.934 156.744 328.803 157.335 329.029 157.839C329.255 158.342 329.79 158.681 330.385 158.681H334.951L342.763 151.72C346.663 147.889 349.85 144.583 351.753 142.383L351.765 142.372Z" fill="black"/>
<path d="M394.346 128.625C394.346 121.565 387.628 117.865 381.005 117.865C378.591 117.865 376.296 118.303 374.072 119.179L376.343 124.214C377.616 123.732 379.138 123.393 380.945 123.393C384.215 123.393 388.032 124.805 388.032 128.767C388.032 130.53 387.247 131.876 386.046 132.839C387.973 133.321 389.923 134.032 391.932 134.973C394.013 132.62 394.334 129.993 394.334 128.625H394.346Z" fill="black"/>
<path d="M368.817 122.134C368.318 122.506 368.14 123.152 368.389 123.699L369.638 126.468C369.828 126.884 370.244 127.158 370.72 127.246C371.196 127.333 371.719 127.18 372.064 126.873C372.42 126.556 372.991 126.063 373.764 125.549L371.445 120.416C370.565 120.919 369.686 121.477 368.817 122.134Z" fill="#1E726A"/>
<path d="M391.944 138.038C387.449 135.696 383.359 134.656 379.221 134.765V134.722H377.116C376.308 134.722 375.642 135.324 375.642 136.079V138.804C375.642 139.549 376.296 140.162 377.116 140.162H379.863C389.626 140.162 390.684 144.726 390.684 146.685C390.684 150.024 387.901 153.92 380.065 153.92C378.222 153.92 376.474 153.723 374.821 153.34L373.204 158.649C375.178 159.119 377.414 159.437 380.053 159.437C391.742 159.437 396.974 153.176 396.974 146.959C396.974 143.872 395.547 140.37 391.92 138.038H391.944Z" fill="black"/>
<path d="M369.791 151.392C369.41 151.173 368.935 151.129 368.507 151.271C368.078 151.413 367.757 151.731 367.615 152.125L366.628 154.938C366.402 155.573 366.723 156.262 367.365 156.558C368.293 156.985 369.303 157.401 370.397 157.795L372.026 152.453C371.253 152.147 370.504 151.786 369.779 151.381L369.791 151.392Z" fill="#ECAE45"/>
<path d="M37.5873 59.9972V6.64823C37.5873 4.91882 36.1247 3.57251 34.2459 3.57251H29.0258C27.147 3.57251 25.5774 4.91882 25.5774 6.64823V64.8899C25.5774 70.9428 22.4501 73.1538 18.7877 73.1538C14.8161 73.1538 11.998 70.6582 11.998 64.8899V6.64823C11.998 4.91882 10.5354 3.57251 8.65661 3.57251H3.34136C1.46259 3.57251 0 4.91882 0 6.64823V65.7546C0 78.2545 9.60789 83.3442 17.7532 83.3442C21.5107 83.3442 25.5893 82.578 28.6096 80.6516L29.549 79.9839C29.549 79.9839 29.5728 79.9839 29.5847 79.962C36.6836 74.8723 37.5873 71.5011 37.5873 59.9863V59.9972Z" fill="#DC7527"/>
<path d="M59.8355 3.57251H54.5083C52.6296 3.57251 51.167 4.91882 51.167 6.64823V11.1797C51.167 8.12589 53.8543 5.65218 57.1719 5.65218C60.4895 5.65218 63.1768 8.12589 63.1768 11.1797V6.64823C63.1768 4.91882 61.7143 3.57251 59.8355 3.57251Z" fill="black"/>
<path d="M57.1728 16.707C53.8553 16.707 51.1679 14.2333 51.1679 11.1794V64.8896C51.1679 70.9426 48.0406 73.1536 44.3782 73.1536C43.4745 73.1536 42.6302 73.0113 41.8573 72.7486C40.4066 76.2731 38.3495 79.316 35.8643 81.4832C38.623 82.7967 42.0475 83.3439 45.1154 83.3439C53.2607 83.3439 63.1778 78.0572 63.1778 65.7543V11.1794C63.1778 14.2333 60.4904 16.707 57.1728 16.707Z" fill="#1E726A"/>
<path d="M37.5876 64.8897V59.9861C37.5876 71.5009 36.6839 74.8721 29.585 79.9619C30.2984 79.5897 30.8097 79.4036 31.4281 79.4036C32.0464 79.4036 32.5815 79.6006 33.3068 79.9837L34.3532 80.6514C34.817 80.9579 35.3283 81.2315 35.8515 81.4723C38.3486 79.3051 40.4057 76.2622 41.8445 72.7377C39.2642 71.8292 37.5757 69.3227 37.5757 64.8788L37.5876 64.8897Z" fill="black"/>
<path d="M57.1719 16.7069C60.4884 16.7069 63.1768 14.2322 63.1768 11.1794C63.1768 8.12662 60.4884 5.65186 57.1719 5.65186C53.8555 5.65186 51.167 8.12662 51.167 11.1794C51.167 14.2322 53.8555 16.7069 57.1719 16.7069Z" fill="black"/>
<path d="M8.6685 3.57251H3.34135C1.46259 3.57251 0 4.91882 0 6.64823V11.1797C0 8.12589 2.68735 5.65218 6.00493 5.65218C9.3225 5.65218 12.0099 8.12589 12.0099 11.1797V6.64823C12.0099 4.91882 10.5473 3.57251 8.6685 3.57251Z" fill="black"/>
<path d="M6.00493 16.7069C9.32136 16.7069 12.0099 14.2322 12.0099 11.1794C12.0099 8.12662 9.32136 5.65186 6.00493 5.65186C2.6885 5.65186 0 8.12662 0 11.1794C0 14.2322 2.6885 16.7069 6.00493 16.7069Z" fill="black"/>
<path d="M298.88 83.2887C298.309 83.2011 297.631 82.9932 296.93 82.6648C297.524 82.9713 298.178 83.1902 298.88 83.2887Z" fill="#3A4D9F"/>
<path d="M291.863 75.7802V66.0496C291.863 70.4606 289.901 72.7154 286.94 73.2956V77.7504C286.94 79.7973 287.892 81.461 289.164 82.7088C291.174 82.0521 292.386 81.2421 293.433 81.2421C294.063 81.2421 294.527 81.3297 294.967 81.5048C293.278 80.2132 291.863 78.2868 291.863 75.7802Z" fill="#231815"/>
<path d="M285.075 21.1616C275.36 21.1616 266.691 27.0285 266.691 37.5034V39.6159C266.691 41.3454 268.154 42.7902 270.033 42.7902H274.944C276.822 42.7902 278.285 41.4439 278.285 39.7145V39.2328C278.285 33.7491 281.317 31.352 285.075 31.352C289.57 31.352 291.865 34.2307 291.865 40.5792V75.7803C291.865 78.2759 293.28 80.2133 294.968 81.5048C295.265 81.6252 295.539 81.7785 295.836 82.0083L296.252 82.2929C296.466 82.4243 296.704 82.5556 296.93 82.676C297.632 82.9935 298.309 83.2014 298.88 83.2999C299.082 83.3218 299.273 83.3547 299.487 83.3547C301.782 83.3547 303.553 82.0083 303.553 79.6113V39.3314C303.553 27.3131 295.206 21.1616 285.075 21.1616Z" fill="#1E726A"/>
<path d="M288.308 56.1436C289.985 56.1436 291.863 56.5267 291.863 58.3546V44.6069C291.863 45.8547 290.924 46.818 289.461 46.818H286.94V56.1436H288.308Z" fill="#231815"/>
<path d="M286.941 73.2849C286.418 73.3834 285.871 73.4491 285.288 73.4491C280.901 73.4491 278.189 70.5704 278.189 66.0499V63.4558C278.189 59.0337 280.591 56.155 284.979 56.155H286.953V46.8293H283.838C272.981 46.8293 266.394 54.6117 266.394 62.9741V65.6668C266.394 76.5248 274.848 83.541 283.624 83.541C286.014 83.541 287.785 83.1579 289.165 82.6982C287.892 81.4504 286.941 79.7866 286.941 77.7398V73.2849Z" fill="#3A4D9F"/>
<path d="M95.2822 76.8858C95.2822 75.3862 95.9362 74.018 96.9945 73.022C96.4713 73.1862 95.9006 73.2847 95.2822 73.3175V76.8748V76.8858Z" fill="#3A4D9F"/>
<path d="M95.2819 73.3288C95.056 73.3397 94.8419 73.3507 94.6041 73.3507C89.8002 73.3507 87.7074 70.5596 87.7074 63.8389V40.8641C87.7074 37.2192 88.3851 34.6907 89.7883 33.1584C89.1343 33.3773 88.4446 33.5196 87.7074 33.5196C84.3898 33.5196 81.7024 31.0458 81.7024 27.992C81.7024 26.5581 82.3089 25.2556 83.2958 24.2705C78.8962 27.193 76.0186 32.1842 76.0186 39.3317V65.3823C76.0186 77.4881 84.366 83.552 94.402 83.552C94.6992 83.552 94.9965 83.5301 95.2938 83.5192V73.3397L95.2819 73.3288Z" fill="#3A4D9F"/>
<path d="M93.7241 27.9917C93.7241 29.4146 93.1295 30.6953 92.1664 31.6694C92.856 31.4505 93.6408 31.352 94.497 31.352C94.7705 31.352 95.0321 31.3629 95.2818 31.3848V21.1945C95.0202 21.1945 94.7586 21.1616 94.497 21.1616C91.6788 21.1616 89.0153 21.6432 86.6133 22.5627C86.97 22.497 87.3267 22.4642 87.7073 22.4642C91.0248 22.4642 93.7122 24.9379 93.7122 27.9917H93.7241Z" fill="#231815"/>
<path d="M95.2822 21.1945V31.3849C99.337 31.7133 101.287 34.7124 101.287 40.8638V63.8387C101.287 67.7025 100.597 70.2528 99.1468 71.7414C99.8127 71.5006 100.538 71.3583 101.287 71.3583C104.605 71.3583 107.292 73.8321 107.292 76.8859C107.292 78.0899 106.864 79.1845 106.162 80.093C110.324 77.1157 112.988 72.2121 112.988 65.3711V39.3205C112.988 27.4335 105.057 21.4901 95.2941 21.1836L95.2822 21.1945Z" fill="#1E726A"/>
<path d="M95.2822 76.8859V83.508C97.5415 83.4314 99.7175 83.0593 101.691 82.3697C101.549 82.3697 101.418 82.4025 101.287 82.4025C97.9696 82.4025 95.2822 79.9288 95.2822 76.875V76.8859Z" fill="#231815"/>
<path d="M92.1671 31.6694C91.2277 31.965 90.431 32.4575 89.8008 33.158C90.7164 32.8406 91.525 32.3262 92.1671 31.6694Z" fill="#DC7527"/>
<path d="M83.2959 24.27C84.3304 23.5914 85.4363 23.0222 86.6135 22.5625C85.3055 22.7814 84.152 23.4053 83.2959 24.27Z" fill="#DC7527"/>
<path d="M87.7198 33.5192C88.457 33.5192 89.1467 33.3769 89.8007 33.158C90.4428 32.4575 91.2276 31.9649 92.167 31.6694C93.1183 30.6952 93.7247 29.4146 93.7247 27.9917C93.7247 24.9378 91.0373 22.4641 87.7198 22.4641C87.3393 22.4641 86.9825 22.5079 86.6258 22.5626C85.4486 23.0223 84.3308 23.5915 83.3082 24.2701C82.3332 25.2552 81.7148 26.5468 81.7148 27.9917C81.7148 31.0455 84.4022 33.5192 87.7198 33.5192Z" fill="#231815"/>
<path d="M101.287 71.3582C100.526 71.3582 99.8125 71.5004 99.1466 71.7412C98.564 72.3433 97.8505 72.7701 97.0062 73.0328C95.948 74.0289 95.2939 75.3861 95.2939 76.8966C95.2939 79.9505 97.9813 82.4242 101.299 82.4242C101.442 82.4242 101.572 82.3913 101.703 82.3913C103.32 81.8331 104.819 81.0669 106.162 80.1147C106.864 79.2062 107.292 78.1116 107.292 76.9076C107.292 73.8538 104.605 71.38 101.287 71.38V71.3582Z" fill="#231815"/>
<path d="M181.005 73.1426C180.387 73.274 179.721 73.3506 178.984 73.3506C174.394 73.3506 172.301 70.5595 172.301 63.8389V40.864C172.301 34.3295 174.489 31.3522 179.091 31.3522C179.781 31.3522 180.423 31.4289 181.005 31.5712V21.8186C179.971 21.6873 178.758 21.5559 177.319 21.5559C167.925 21.5559 160.612 28.0904 160.612 39.7256V65.2946C160.612 77.9806 169.388 83.5519 177.426 83.5519C179.424 83.5519 181.243 83.1798 182.658 82.7748C181.695 81.735 181.017 80.4434 181.017 78.8562V73.1536L181.005 73.1426Z" fill="#1E726A"/>
<path d="M194.228 3.57227H189.222C187.343 3.57227 185.881 4.91858 185.881 6.64799V8.95751C186.654 6.73555 188.901 5.1156 191.577 5.1156C194.894 5.1156 197.582 7.58931 197.582 10.6431V6.65893C197.582 4.92952 196.119 3.58321 194.24 3.58321L194.228 3.57227Z" fill="black"/>
<path d="M191.566 16.1599C188.89 16.1599 186.655 14.5399 185.87 12.318V16.1599C185.87 17.4077 185.977 18.0863 185.977 19.6187C185.977 19.8266 185.93 20.0346 185.87 20.2207V76.3936C185.87 78.6047 187.19 80.2574 188.748 81.4067C189.116 81.5271 189.485 81.7132 189.842 81.9978L190.258 82.2824C190.472 82.4137 190.686 82.5341 190.9 82.6545C191.792 83.0595 192.6 83.3003 193.112 83.3879C193.242 83.3988 193.361 83.4317 193.492 83.4317C195.68 83.4317 197.559 82.3699 197.559 79.5898V10.6323C197.559 13.6862 194.872 16.1599 191.554 16.1599H191.566Z" fill="#3A4D9F"/>
<path d="M193.122 83.3986C192.599 83.3111 191.802 83.0703 190.91 82.6653C191.576 83.0374 192.313 83.322 193.122 83.3986Z" fill="#1E726A"/>
<path d="M185.869 76.3935V63.8389C185.869 69.5306 184.371 72.3983 180.994 73.1426V78.8453C180.994 80.4324 181.672 81.724 182.635 82.7639C182.837 82.6982 183.063 82.6434 183.253 82.5778C185.239 81.9101 186.488 81.2315 187.534 81.2315C187.962 81.2315 188.355 81.2862 188.735 81.4066C187.177 80.2573 185.858 78.6045 185.858 76.3935H185.869Z" fill="black"/>
<path d="M185.869 40.8637V20.2312C185.536 21.271 184.419 22.0263 183.36 22.0263C182.683 22.0263 181.898 21.9168 180.994 21.8074V31.5599C184.276 32.3371 185.869 35.3143 185.869 40.8637Z" fill="black"/>
<path d="M191.566 5.10421C188.89 5.10421 186.655 6.72416 185.87 8.94612V12.3064C186.643 14.5284 188.89 16.1483 191.566 16.1483C194.883 16.1483 197.571 13.6746 197.571 10.6208C197.571 7.56697 194.883 5.09326 191.566 5.09326V5.10421Z" fill="black"/>
<path d="M146.4 21.6433C144.105 21.6433 142.642 22.0264 140.871 22.6065C138.052 23.5697 137.315 24.0513 135.96 24.0513C135.234 24.0513 134.283 23.7668 133.665 23.2852L133.248 23.0006C132.309 22.3329 131.263 21.7528 129.907 21.7528C127.612 21.7528 125.936 23.1976 125.936 25.4962V72.2887C125.936 69.2349 128.623 66.7612 131.94 66.7612C134.616 66.7612 136.851 68.3811 137.636 70.6031V40.5902C137.636 34.4387 139.408 32.9939 144.949 32.9939H145.996C147.874 32.9939 149.753 31.8446 149.753 29.9182V24.73C149.753 23.0006 148.291 21.6543 146.412 21.6543L146.4 21.6433Z" fill="#ECAE45"/>
<path d="M131.94 77.8054C128.623 77.8054 125.936 75.3317 125.936 72.2778V78.2432C125.936 79.9726 127.398 81.3189 129.277 81.3189H133.772C136.899 81.3189 137.636 79.688 137.636 78.2432V73.9635C136.863 76.1854 134.616 77.8054 131.94 77.8054Z" fill="#231815"/>
<path d="M131.94 66.7502C128.623 66.7502 125.936 69.224 125.936 72.2778C125.936 75.3316 128.623 77.8053 131.94 77.8053C134.616 77.8053 136.851 76.1854 137.636 73.9634V70.6031C136.863 68.3811 134.616 66.7612 131.94 66.7612V66.7502Z" fill="#DC7527"/>
<path d="M326.324 22.8909L325.907 22.6063C324.968 21.9386 323.922 21.457 322.673 21.457C320.378 21.457 318.606 22.9019 318.606 25.2989V73.4597C318.606 70.4059 321.294 67.9322 324.611 67.9322C327.287 67.9322 329.522 69.5521 330.307 71.7741V39.6158C330.307 33.1251 330.081 26.6562 327.334 23.482C326.99 23.3397 326.669 23.1536 326.347 22.8909H326.324Z" fill="#ECAE45"/>
<path d="M324.6 78.9763C321.282 78.9763 318.595 76.5026 318.595 73.4487V79.7862C318.595 81.5157 320.057 82.862 321.936 82.862H326.942C328.821 82.862 330.284 81.5157 330.284 79.7862V75.1234C329.511 77.3454 327.263 78.9653 324.588 78.9653L324.6 78.9763Z" fill="#DC7527"/>
<path d="M332.793 22.3109C330.914 22.9786 329.666 23.7557 328.727 23.7557C328.203 23.7557 327.751 23.6572 327.312 23.4821C330.058 26.6563 330.284 33.1252 330.284 39.6159C330.284 34.6904 332.353 32.2605 335.195 31.5709C335.029 27.8932 334.577 24.5438 333.364 22.1467C333.174 22.2015 332.96 22.2562 332.781 22.3219L332.793 22.3109Z" fill="black"/>
<path d="M350.07 24.7081C349.261 24.6972 348.548 24.4126 347.93 24.0404C346.931 23.3071 345.896 22.727 344.79 22.3001C342.995 21.5886 341.045 21.2603 338.845 21.2603C336.978 21.2603 335.04 21.6543 333.375 22.1469C334.576 24.5439 335.04 27.9042 335.206 31.571C335.801 31.4287 336.431 31.3521 337.073 31.3521C340.724 31.3521 343.542 33.7602 343.542 39.6161V79.7974C343.542 81.5269 345.004 82.8732 346.883 82.8732H351.889C353.768 82.8732 355.231 81.5269 355.231 79.7974V39.6161C355.231 32.0855 353.197 27.346 350.058 24.7081H350.07Z" fill="#DC7527"/>
<path d="M352.117 24.0402C351.486 24.4233 350.868 24.7079 350.131 24.7079C350.107 24.7079 350.095 24.7079 350.071 24.7079C353.21 27.3348 355.244 32.0852 355.244 39.6158C355.244 34.5042 357.242 32.0852 360.179 31.5051C359.441 27.2035 357.8 24.2263 355.601 22.3108C354.352 22.7596 353.222 23.3397 352.105 24.0511L352.117 24.0402Z" fill="black"/>
<path d="M362.759 21.2603C359.774 21.2603 357.539 21.6215 355.601 22.311C357.8 24.2265 359.441 27.2037 360.179 31.5054C360.666 31.4068 361.177 31.3521 361.713 31.3521C365.363 31.3521 368.502 33.7602 368.502 39.6161V71.7743C369.275 69.5524 371.523 67.9324 374.198 67.9324C377.516 67.9324 380.203 70.4061 380.203 73.4599V38.9484C380.203 26.0654 371.011 21.2603 362.759 21.2603Z" fill="#3A4D9F"/>
<path d="M374.198 78.9766C371.522 78.9766 369.287 77.3566 368.502 75.1346V79.7975C368.502 81.5269 369.965 82.8732 371.843 82.8732H376.861C378.74 82.8732 380.203 81.5269 380.203 79.7975V73.46C380.203 76.5138 377.515 78.9875 374.198 78.9875V78.9766Z" fill="#231815"/>
<path d="M330.607 73.4491C330.607 72.858 330.476 72.2998 330.298 71.7634V75.1237C330.488 74.5874 330.607 74.0292 330.607 73.4381V73.4491Z" fill="#DC7527"/>
<path d="M324.6 67.9216C321.282 67.9216 318.595 70.3953 318.595 73.4492C318.595 76.503 321.282 78.9767 324.6 78.9767C327.275 78.9767 329.511 77.3568 330.295 75.1348V71.7745C329.523 69.5525 327.275 67.9326 324.6 67.9326V67.9216Z" fill="#DC7527"/>
<path d="M368.192 73.4491C368.192 74.0402 368.323 74.5984 368.502 75.1347V71.7744C368.311 72.3107 368.192 72.869 368.192 73.4491Z" fill="#231815"/>
<path d="M374.198 67.9213C371.522 67.9213 369.287 69.5413 368.502 71.7633V75.1236C369.275 77.3455 371.522 78.9655 374.198 78.9655C377.515 78.9655 380.203 76.4918 380.203 73.4379C380.203 70.3841 377.515 67.9104 374.198 67.9104V67.9213Z" fill="#231815"/>
<path d="M413.198 21.26C411.2 21.26 409.381 21.6321 407.966 22.0371C408.929 23.0769 409.607 24.3685 409.607 25.9556V31.6583C410.225 31.527 410.891 31.4503 411.628 31.4503C416.218 31.4503 418.311 34.2415 418.311 40.9621V63.937C418.311 70.4715 416.123 73.4487 411.521 73.4487C410.832 73.4487 410.189 73.3721 409.607 73.2298V82.9823C410.641 83.1137 411.854 83.245 413.293 83.245C422.687 83.245 430 76.7105 430 65.0753V39.5063C430 26.8203 421.224 21.249 413.186 21.249L413.198 21.26Z" fill="#DC7527"/>
<path d="M404.744 40.9623V28.4077C404.744 26.1967 403.425 24.5439 401.867 23.3946C401.498 23.2742 401.13 23.0881 400.773 22.8035L400.357 22.5189C400.143 22.3876 399.929 22.2672 399.715 22.1468C398.823 21.7418 398.014 21.501 397.503 21.4134C397.372 21.4025 397.253 21.3696 397.122 21.3696C394.934 21.3696 393.056 22.4314 393.056 25.2115V92.0127C393.056 88.9589 395.743 86.4852 399.061 86.4852C401.736 86.4852 403.972 88.1051 404.756 90.3271V88.6414C404.756 87.3936 404.649 86.715 404.649 85.1826C404.649 84.9747 404.697 84.7667 404.756 84.5806V40.9623H404.744Z" fill="#1E726A"/>
<path d="M399.048 97.5292C395.73 97.5292 393.043 95.0555 393.043 92.0017V98.1531C393.043 99.8826 394.506 101.229 396.384 101.229H401.39C403.269 101.229 404.732 99.8826 404.732 98.1531V93.6873C403.959 95.9093 401.711 97.5292 399.036 97.5292H399.048Z" fill="black"/>
<path d="M397.489 21.3916C398.012 21.4792 398.809 21.72 399.701 22.125C399.035 21.7528 398.298 21.4682 397.489 21.3916Z" fill="#1E726A"/>
<path d="M404.744 28.3967V40.9513C404.744 35.2596 406.242 32.3919 409.619 31.6476V25.9449C409.619 24.3578 408.941 23.0662 407.978 22.0264C407.776 22.092 407.55 22.1468 407.36 22.2124C405.374 22.8801 404.125 23.5588 403.079 23.5588C402.651 23.5588 402.258 23.504 401.878 23.3836C403.436 24.5329 404.756 26.1857 404.756 28.3967H404.744Z" fill="black"/>
<path d="M404.744 63.9373V84.5698C405.077 83.5299 406.195 82.7747 407.253 82.7747C407.931 82.7747 408.716 82.8841 409.619 82.9936V73.241C406.338 72.4639 404.744 69.4867 404.744 63.9373Z" fill="black"/>
<path d="M405.053 92.0018C405.053 91.4107 404.923 90.8525 404.744 90.3162V93.6765C404.934 93.1401 405.053 92.5819 405.053 91.9908V92.0018Z" fill="#DC7527"/>
<path d="M399.048 86.4741C395.73 86.4741 393.043 88.9478 393.043 92.0017C393.043 95.0555 395.73 97.5292 399.048 97.5292C401.723 97.5292 403.959 95.9093 404.744 93.6873V90.327C403.971 88.105 401.723 86.4851 399.048 86.4851V86.4741Z" fill="black"/>
<path d="M246.594 59.187C249.911 59.187 252.599 61.6607 252.599 64.7145V60.2815C252.599 58.5521 251.136 57.2058 249.257 57.2058H244.037C242.158 57.2058 240.589 58.5521 240.589 60.2815V64.7145C240.589 61.6607 243.276 59.187 246.594 59.187Z" fill="black"/>
<path d="M246.547 15.131C249.722 15.131 252.302 17.3968 252.552 20.2645C252.053 8.60741 243.729 2.8938 233.705 2.8938C223.681 2.8938 214.703 8.94673 214.703 21.3481V65.1853C214.703 77.6852 223.372 83.5412 233.705 83.5412C244.038 83.5412 252.6 77.6743 252.6 65.1853V64.7256C252.6 67.7795 249.912 70.2532 246.595 70.2532C243.277 70.2532 240.59 67.7795 240.59 64.7256V64.9993C240.59 71.0522 237.462 73.1647 233.693 73.1647C229.198 73.1647 226.701 70.286 226.701 64.9993V21.5451C226.701 15.7768 229.626 13.2812 233.693 13.2812C237.367 13.2812 240.15 15.3499 240.53 20.3192C240.744 17.4296 243.337 15.131 246.535 15.131H246.547Z" fill="#DC7527"/>
<path d="M246.546 26.2732C243.526 26.2732 241.041 24.2264 240.589 21.5557V25.2991C240.589 27.0285 242.158 28.3748 244.037 28.3748H249.257C251.136 28.3748 252.599 27.0285 252.599 25.2991V21.3586C252.599 21.1945 252.587 21.0522 252.575 20.8989C252.468 23.8871 249.816 26.2842 246.546 26.2842V26.2732Z" fill="black"/>
<path d="M240.543 20.3191C240.543 20.4504 240.495 20.5708 240.495 20.7022C240.495 20.9977 240.543 21.2714 240.59 21.5559C240.59 21.1181 240.566 20.7131 240.543 20.3191Z" fill="#3A4D9F"/>
<path d="M252.599 20.7025C252.599 20.5492 252.564 20.4179 252.552 20.2646C252.552 20.4726 252.576 20.6696 252.576 20.8885C252.576 20.8229 252.599 20.7681 252.599 20.7025Z" fill="#3A4D9F"/>
<path d="M246.547 26.2735C249.817 26.2735 252.469 23.8764 252.576 20.8883C252.576 20.6803 252.552 20.4723 252.552 20.2644C252.302 17.3966 249.734 15.1309 246.547 15.1309C243.36 15.1309 240.756 17.4185 240.542 20.3191C240.578 20.7131 240.59 21.1181 240.59 21.545C241.041 24.2267 243.527 26.2735 246.547 26.2735Z" fill="black"/>
<path d="M246.594 70.2421C249.91 70.2421 252.599 67.7673 252.599 64.7146C252.599 61.6618 249.91 59.187 246.594 59.187C243.277 59.187 240.589 61.6618 240.589 64.7146C240.589 67.7673 243.277 70.2421 246.594 70.2421Z" fill="black"/>
<path d="M57.1719 11.1791C60.4884 11.1791 63.1768 8.70434 63.1768 5.65156C63.1768 2.59879 60.4884 0.124023 57.1719 0.124023C53.8555 0.124023 51.167 2.59879 51.167 5.65156C51.167 8.70434 53.8555 11.1791 57.1719 11.1791Z" fill="#DC7527"/>
<path d="M399.048 103.057C402.364 103.057 405.053 100.582 405.053 97.529C405.053 94.4762 402.364 92.0015 399.048 92.0015C395.731 92.0015 393.043 94.4762 393.043 97.529C393.043 100.582 395.731 103.057 399.048 103.057Z" fill="#DC7527"/>
<path d="M272.601 45.5702C275.917 45.5702 278.606 43.0955 278.606 40.0427C278.606 36.9899 275.917 34.5151 272.601 34.5151C269.284 34.5151 266.596 36.9899 266.596 40.0427C266.596 43.0955 269.284 45.5702 272.601 45.5702Z" fill="#DC7527"/>
<path d="M324.599 84.5038C327.915 84.5038 330.604 82.029 330.604 78.9763C330.604 75.9235 327.915 73.4487 324.599 73.4487C321.282 73.4487 318.594 75.9235 318.594 78.9763C318.594 82.029 321.282 84.5038 324.599 84.5038Z" fill="#1E726A"/>
<path d="M374.196 84.5038C377.513 84.5038 380.201 82.029 380.201 78.9763C380.201 75.9235 377.513 73.4487 374.196 73.4487C370.88 73.4487 368.191 75.9235 368.191 78.9763C368.191 82.029 370.88 84.5038 374.196 84.5038Z" fill="#DC7527"/>
<path d="M349.391 84.5038C352.707 84.5038 355.396 82.029 355.396 78.9763C355.396 75.9235 352.707 73.4487 349.391 73.4487C346.074 73.4487 343.386 75.9235 343.386 78.9763C343.386 82.029 346.074 84.5038 349.391 84.5038Z" fill="#DC7527"/>
<path d="M246.594 31.7567C249.91 31.7567 252.599 29.282 252.599 26.2292C252.599 23.1764 249.91 20.7017 246.594 20.7017C243.277 20.7017 240.589 23.1764 240.589 26.2292C240.589 29.282 243.277 31.7567 246.594 31.7567Z" fill="#3A4D9F"/>
<path d="M246.594 64.9003C249.91 64.9003 252.599 62.4255 252.599 59.3728C252.599 56.32 249.91 53.8452 246.594 53.8452C243.277 53.8452 240.589 56.32 240.589 59.3728C240.589 62.4255 243.277 64.9003 246.594 64.9003Z" fill="#1E726A"/>
<path d="M94.4961 31.7567C97.8126 31.7567 100.501 29.282 100.501 26.2292C100.501 23.1764 97.8126 20.7017 94.4961 20.7017C91.1797 20.7017 88.4912 23.1764 88.4912 26.2292C88.4912 29.282 91.1797 31.7567 94.4961 31.7567Z" fill="#DC7527"/>
<path d="M94.4961 83.8034C97.8126 83.8034 100.501 81.3286 100.501 78.2758C100.501 75.2231 97.8126 72.7483 94.4961 72.7483C91.1797 72.7483 88.4912 75.2231 88.4912 78.2758C88.4912 81.3286 91.1797 83.8034 94.4961 83.8034Z" fill="#DC7527"/>
<path d="M131.942 83.3327C135.259 83.3327 137.947 80.8579 137.947 77.8051C137.947 74.7524 135.259 72.2776 131.942 72.2776C128.626 72.2776 125.938 74.7524 125.938 77.8051C125.938 80.8579 128.626 83.3327 131.942 83.3327Z" fill="#1E726A"/>
<path d="M6.00493 11.1791C9.32136 11.1791 12.0099 8.70434 12.0099 5.65156C12.0099 2.59879 9.32136 0.124023 6.00493 0.124023C2.6885 0.124023 0 2.59879 0 5.65156C0 8.70434 2.6885 11.1791 6.00493 11.1791Z" fill="#1E726A"/>
<path d="M31.5831 11.1791C34.8995 11.1791 37.588 8.70434 37.588 5.65156C37.588 2.59879 34.8995 0.124023 31.5831 0.124023C28.2666 0.124023 25.5781 2.59879 25.5781 5.65156C25.5781 8.70434 28.2666 11.1791 31.5831 11.1791Z" fill="#DC7527"/>
<path d="M191.563 11.1791C194.879 11.1791 197.567 8.70434 197.567 5.65156C197.567 2.59879 194.879 0.124023 191.563 0.124023C188.246 0.124023 185.558 2.59879 185.558 5.65156C185.558 8.70434 188.246 11.1791 191.563 11.1791Z" fill="#DC7527"/>
</svg>
