<svg width="3465" height="489" viewBox="0 0 3465 489" fill="none" xmlns="http://www.w3.org/2000/svg">
<path fill-rule="evenodd" clip-rule="evenodd" d="M17.8647 319.196L1748.11 319.121L1748.11 310.709L1748.27 310.725L1748.27 271.337C1739.23 266.862 1730.42 262.474 1721.78 258.173C1585.79 190.47 1493.46 144.501 1248.57 120.334C1035.82 99.3385 860.384 121.598 688.181 143.446C653.152 147.891 618.257 152.318 583.209 156.361C477.741 168.527 371.103 167.455 263.902 160.829L17.8647 136.412L17.8647 319.196Z" fill="#1E756D"/>
<path fill-rule="evenodd" clip-rule="evenodd" d="M3446.58 318.99L1716.33 318.916L1716.33 310.504L1716.17 310.519L1716.17 271.132C1725.21 266.656 1734.03 262.268 1742.66 257.967C1878.65 190.265 1970.99 144.295 2215.87 120.128C2428.62 99.1327 2604.06 121.392 2776.26 143.24C2811.29 147.685 2846.19 152.112 2881.23 156.155C2986.7 168.321 3093.34 167.249 3200.54 160.623L3446.58 136.207L3446.58 318.99Z" fill="#1E756D"/>
</svg>
