<svg width="3465" height="489" viewBox="0 0 3465 489" fill="none" xmlns="http://www.w3.org/2000/svg">
<path fill-rule="evenodd" clip-rule="evenodd" d="M17.8647 169.105L1748.11 169.18L1748.11 177.592L1748.27 177.576L1748.27 216.964C1739.23 221.44 1730.42 225.828 1721.78 230.128C1585.79 297.831 1493.46 343.8 1248.57 367.967C1035.82 388.963 860.384 366.704 688.181 344.855C653.152 340.411 618.257 335.983 583.209 331.94C477.741 319.775 371.103 320.846 263.902 327.472L17.8647 351.889L17.8647 169.105Z" fill="#1E756D"/>
<path fill-rule="evenodd" clip-rule="evenodd" d="M3446.58 169.311L1716.33 169.386L1716.33 177.798L1716.17 177.782L1716.17 217.17C1725.21 221.645 1734.03 226.034 1742.66 230.334C1878.65 298.037 1970.99 344.006 2215.87 368.173C2428.62 389.169 2604.06 366.909 2776.26 345.061C2811.29 340.617 2846.19 336.189 2881.23 332.146C2986.7 319.98 3093.34 321.052 3200.54 327.678L3446.58 352.095L3446.58 169.311Z" fill="#1E756D"/>
</svg>
