<svg width="3429" height="208" viewBox="0 0 3429 208" fill="none" xmlns="http://www.w3.org/2000/svg">
<g clip-path="url(#clip0_1290_1977)">
<path fill-rule="evenodd" clip-rule="evenodd" d="M0 207.49L1730.25 207.41V199L1730.41 199.02V159.63C1721.37 155.15 1712.56 150.77 1703.92 146.47C1567.93 78.7699 1475.6 32.7999 1230.71 8.62992C1017.96 -12.3701 842.52 9.88992 670.32 31.7399C635.29 36.1899 600.4 40.6099 565.35 44.6499C459.88 56.8199 353.24 55.7399 246.04 49.1199L0 24.7099V207.49Z" fill="#1E756D"/>
<path fill-rule="evenodd" clip-rule="evenodd" d="M3428.72 207.28L1698.47 207.21V198.8L1698.31 198.82V159.43C1707.35 154.95 1716.17 150.57 1724.8 146.27C1860.79 78.57 1953.13 32.6 2198.01 8.42997C2410.76 -12.57 2586.2 9.68997 2758.4 31.54C2793.43 35.98 2828.33 40.41 2863.37 44.45C2968.84 56.62 3075.48 55.54 3182.68 48.92L3428.72 24.5V207.28Z" fill="#1E756D"/>
</g>
<defs>
<clipPath id="clip0_1290_1977">
<rect width="3428.72" height="207.49" fill="white"/>
</clipPath>
</defs>
</svg>
