<svg width="3429" height="208" viewBox="0 0 3429 208" fill="none" xmlns="http://www.w3.org/2000/svg">
<g clip-path="url(#clip0_1290_1980)">
<path fill-rule="evenodd" clip-rule="evenodd" d="M0 -6.10352e-05L1730.25 0.0799408V8.48994L1730.41 8.46994V47.8599C1721.37 52.3399 1712.56 56.7199 1703.92 61.0199C1567.93 128.72 1475.6 174.69 1230.71 198.86C1017.96 219.86 842.52 197.6 670.32 175.75C635.29 171.3 600.4 166.88 565.35 162.84C459.88 150.67 353.24 151.75 246.04 158.37L0 182.78V-6.10352e-05Z" fill="#1E756D"/>
<path fill-rule="evenodd" clip-rule="evenodd" d="M3428.72 0.210022L1698.47 0.280014V8.69002L1698.31 8.67001V48.06C1707.35 52.54 1716.17 56.92 1724.8 61.22C1860.79 128.92 1953.13 174.89 2198.01 199.06C2410.76 220.06 2586.2 197.8 2758.4 175.95C2793.43 171.51 2828.33 167.08 2863.37 163.04C2968.84 150.87 3075.48 151.95 3182.68 158.57L3428.72 182.99V0.210022Z" fill="#1E756D"/>
</g>
<defs>
<clipPath id="clip0_1290_1980">
<rect width="3428.72" height="207.49" fill="white" transform="matrix(1 0 0 -1 0 207.49)"/>
</clipPath>
</defs>
</svg>
