<svg width="292" height="429" viewBox="0 0 292 429" fill="none" xmlns="http://www.w3.org/2000/svg">
<path d="M214 230.5C214 209.237 231.461 192 253 192C274.539 192 292 209.237 292 230.5C292 251.763 274.539 269 253 269C231.461 269 214 251.763 214 230.5Z" fill="#E67823"/>
<path d="M21 185C21 178.373 26.3726 173 33 173C39.6274 173 45 178.373 45 185C45 191.627 39.6274 197 33 197C26.3726 197 21 191.627 21 185Z" fill="#E67823"/>
<path d="M118 122.501C118 83.0124 150.012 51.0007 189.5 51.0007C228.988 51.0007 261 83.0124 261 122.501C261 161.989 228.988 194.001 189.5 194.001C150.012 194.001 118 161.989 118 122.501Z" fill="#E67823"/>
<path d="M-6.39748e-06 32.5C-4.82831e-06 14.5507 14.5507 4.7687e-06 32.5 6.33787e-06C50.4493 7.90705e-06 65 14.5508 65 32.5C65 50.4493 50.4493 65 32.5 65C14.5507 65 -7.96665e-06 50.4493 -6.39748e-06 32.5Z" fill="#E67823"/>
<path d="M144 278C144 263.641 155.641 252 170 252C184.359 252 196 263.641 196 278C196 292.359 184.359 304 170 304C155.641 304 144 292.359 144 278Z" fill="#4041E4"/>
<path d="M118 33.5C118 23.835 125.835 16 135.5 16C145.165 16 153 23.835 153 33.5C153 43.165 145.165 51 135.5 51C125.835 51 118 43.165 118 33.5Z" fill="#4041E4"/>
<path d="M217 359C217 353.477 221.477 349 227 349C232.523 349 237 353.477 237 359C237 364.523 232.523 369 227 369C221.477 369 217 364.523 217 359Z" fill="#F5B444"/>
<path d="M157.225 367.853L129.545 388.681L125.347 354.295L157.225 367.853Z" fill="#4041E4"/>
<path d="M35.6379 267.698L58.5704 250.944L61.613 279.181L35.6379 267.698Z" fill="#F5B444"/>
<path d="M108.757 229.816L131.69 213.062L134.732 241.299L108.757 229.816Z" fill="#F5B444"/>
<path d="M195.899 409.654L181.527 425.132L175.309 404.947L195.899 409.654Z" fill="#E67823"/>
<circle cx="104.5" cy="125.5" r="35.5" transform="rotate(-180 104.5 125.5)" fill="#F5B444"/>
</svg>
