<svg width="497" height="474" viewBox="0 0 497 474" fill="none" xmlns="http://www.w3.org/2000/svg">
<path d="M99 279.5C99 300.763 81.5391 318 60 318C38.4609 318 21 300.763 21 279.5C21 258.237 38.4609 241 60 241C81.5391 241 99 258.237 99 279.5Z" fill="#E67823"/>
<path d="M497 396C497 402.627 491.627 408 485 408C478.373 408 473 402.627 473 396C473 389.373 478.373 384 485 384C491.627 384 497 389.373 497 396Z" fill="#E67823"/>
<path d="M189 366.5C189 402.675 159.675 432 123.5 432C87.3253 432 58 402.675 58 366.5C58 330.325 87.3253 301 123.5 301C159.675 301 189 330.325 189 366.5Z" fill="#E67823"/>
<path d="M337 440.5C337 459.002 322.002 474 303.5 474C284.998 474 270 459.002 270 440.5C270 421.998 284.998 407 303.5 407C322.002 407 337 421.998 337 440.5Z" fill="#E67823"/>
<path d="M171 233C171 247.359 159.359 259 145 259C130.641 259 119 247.359 119 233C119 218.641 130.641 207 145 207C159.359 207 171 218.641 171 233Z" fill="#4041E4"/>
<path d="M434 345.5C434 355.165 426.165 363 416.5 363C406.835 363 399 355.165 399 345.5C399 335.835 406.835 328 416.5 328C426.165 328 434 335.835 434 345.5Z" fill="#4041E4"/>
<path d="M118 60C118 65.5228 113.523 70 108 70C102.477 70 98 65.5228 98 60C98 54.4772 102.477 50 108 50C113.523 50 118 54.4772 118 60Z" fill="#F5B444"/>
<path d="M171.283 122.543L210.369 122.543L190.826 156.393L171.283 122.543Z" fill="#4041E4"/>
<path d="M277.362 221.303L254.43 238.056L251.387 209.819L277.362 221.303Z" fill="#F5B444"/>
<path d="M431.362 424.303L408.43 441.056L405.387 412.819L431.362 424.303Z" fill="#F5B444"/>
<path d="M74.5895 18.8343L88.9613 3.35637L95.1797 23.5417L74.5895 18.8343Z" fill="#E67823"/>
<circle cx="195.5" cy="383.5" r="35.5" fill="#F5B444"/>
<circle cx="52.5" cy="155.5" r="52.5" fill="#F5B444"/>
</svg>
