<svg width="324" height="387" viewBox="0 0 324 387" fill="none" xmlns="http://www.w3.org/2000/svg">
<mask id="mask0_1448_1300" style="mask-type:alpha" maskUnits="userSpaceOnUse" x="0" y="0" width="324" height="387">
<rect width="324" height="387" fill="#D9D9D9"/>
</mask>
<g mask="url(#mask0_1448_1300)">
<path d="M322.094 198.137C320.492 197.275 316.728 195.629 310.253 192.949C306.965 191.589 303.217 190.061 299.233 188.436C294.644 186.566 289.902 184.627 285.083 182.632C276.248 178.976 263.639 173.67 256.132 169.831C255.303 169.405 254.442 169.043 253.756 168.824C253.46 168.731 253.164 168.678 252.867 168.643C252.867 168.643 252.862 168.641 252.859 168.634C252.851 168.625 252.84 168.609 252.832 168.6C245.599 158.26 236.123 150.114 224.641 144.343C225.425 143.601 225.975 142.868 226.267 142.163L226.465 141.683C226.465 141.683 226.478 141.653 226.484 141.638L226.627 141.292C226.681 141.162 226.732 141.025 226.76 140.885C226.803 140.697 226.819 140.517 226.813 140.332C229.809 127.565 234.621 116.492 239.276 105.771C244.133 94.5877 249.153 83.0269 252.221 69.4338C252.801 66.8676 250.106 64.9263 247.693 63.5237C246.287 62.7016 244.525 61.8316 242.452 60.9153C245.288 56.0373 245.332 49.7518 240.558 44.8643C240.359 44.4775 240.137 44.0924 239.887 43.714C258.592 38.8654 260.048 26.8664 252.717 18.9935C245.581 6.01671 216.78 -1.222 193.704 33.7516C190.979 37.8787 188.698 42.1545 186.796 46.4815C184.392 46.1955 182.062 45.9577 179.853 45.7819C175.184 45.4138 171.403 45.343 168.611 45.5698C165.83 45.7958 162.565 46.3836 161.985 48.9497C158.918 62.5257 158.275 75.4878 157.65 88.0236C157.055 99.9041 156.447 112.184 153.747 124.845C151.158 127.435 147.656 131.792 147.39 136.597C141.576 138.327 135.793 140.837 130.565 144.432C121.387 146.293 111.585 147.362 105.662 147.196C107.121 139.891 107.355 132.635 106.263 125.839C104.207 113.049 97.7655 103.382 88.1204 98.6286C68.4762 88.9404 41.5893 103.174 28.167 130.35C14.7447 157.526 19.8014 187.516 39.4407 197.202C40.0164 197.487 40.5955 197.751 41.1828 197.994C50.7557 201.955 61.847 200.529 72.1983 194.924L73.6125 196.962C73.8598 197.316 74.1929 197.577 74.5643 197.731C75.2219 198.003 76.004 197.946 76.6348 197.516L80.0024 195.189C83.4962 200.713 87.5992 206.412 91.8055 210.555C88.8006 214.15 85.8817 217.623 83.3091 220.671C82.9976 221.04 82.8193 221.499 82.8031 221.979C82.7538 223.206 82.848 224.399 83.0724 225.576C74.551 224.487 62.505 225.606 54.916 234.41C54.2721 232.755 53.5233 231.198 52.6926 229.752C52.6926 229.752 52.6846 229.743 52.6867 229.738C52.4193 229.276 52.1428 228.822 51.8601 228.383C51.8601 228.383 51.8551 228.381 51.8521 228.373C51.5942 227.974 51.325 227.587 51.0538 227.205C51.0022 227.131 50.9485 227.062 50.8968 226.988C50.6344 226.628 50.3658 226.282 50.0952 225.942C50.0792 225.923 50.0603 225.898 50.0444 225.88C49.4243 225.119 48.7793 224.419 48.1095 223.778C48.0965 223.767 48.0835 223.756 48.0755 223.747C46.9555 222.674 45.7752 221.775 44.5593 221.09C44.3056 220.95 44.0529 220.822 43.7981 220.699C43.7931 220.697 43.788 220.695 43.778 220.691C43.0537 220.338 42.3276 220.061 41.5996 219.86C41.5645 219.845 41.5294 219.831 41.4951 219.828C41.289 219.772 41.0737 219.724 40.8534 219.674C40.8212 219.666 40.7869 219.664 40.7547 219.656C37.9605 219.092 34.0712 219.369 30.2052 223.141C29.7593 223.536 27.1428 225.98 24.2514 230.566C24.197 230.654 24.1396 230.736 24.0832 230.83C24.0309 230.914 23.9836 231 23.9312 231.083C22.2061 233.902 20.4066 237.469 18.9373 241.829C18.801 242.229 18.6705 242.644 18.5401 243.059C18.5108 243.158 18.4765 243.255 18.4472 243.354C17.3387 246.985 16.4668 251.123 16.0382 255.767C15.735 259.057 15.9969 261.45 16.5873 263.306C17.3796 265.795 18.7681 267.313 20.178 268.723C20.2987 268.843 20.4195 268.963 20.5402 269.084C21.4533 269.989 22.4032 270.932 23.2777 272.243C23.4524 272.503 23.6259 272.78 23.7932 273.072C24.8782 274.968 25.8013 277.582 26.3141 281.614L24.1706 281.863C23.5961 281.93 23.0768 282.219 22.723 282.676C22.3663 283.126 22.2038 283.703 22.2744 284.271L23.3244 292.972C23.6794 295.908 25.2666 299.418 28.0242 301.918C29.3987 303.711 31.1627 305.103 33.1204 305.913C34.7067 306.57 36.419 306.851 38.1655 306.666L39.5424 306.521C40.3229 306.709 41.1383 306.841 42.0007 306.917C42.0158 306.923 42.0329 306.925 42.045 306.924C48.739 307.655 55.4544 307.98 59.2459 305.425C60.6334 304.488 61.7678 303.252 62.6862 301.857C70.9144 315.532 82.7468 325.684 93.8048 332.891C94.4374 336.463 96.2905 339.714 100.319 341.644L105.906 344.326C106.176 344.455 106.448 344.579 106.719 344.691C107.296 344.93 107.879 345.113 108.455 345.269C110.745 346.2 113.384 347.098 116.414 347.96C119.849 348.936 123.285 349.187 126.52 348.645C131.075 350.196 134.159 350.986 134.932 351.177L134.977 351.196C139.249 352.964 144.033 354.674 150.203 355.904C128.997 365.476 103.606 367.557 84.7447 360.167C72.8762 355.502 65.5117 347.369 64.028 337.258C61.7593 321.785 51.8011 312.432 43.1401 311.197C36.4716 310.247 30.5894 313.876 27.4108 320.903C24.7166 326.859 26.2808 336.036 31.7009 346.083C38.0744 357.889 51.5052 373.242 70.1038 380.939C74.5564 382.782 79.1085 384.086 83.6314 384.821C119.468 390.631 159.522 379.134 184.396 356.58C187.319 356.079 189.074 355.575 189.539 355.434C204.021 352.306 225.148 340.879 244.633 304.595C248.832 305.02 252.414 305.144 255.263 304.981C256.077 304.931 256.793 304.437 257.119 303.693C257.338 303.192 262.556 291.221 266.603 274.354C270.072 259.89 273.183 239.232 269.382 220.26C270.167 219.911 270.808 219.256 271.118 218.395C271.184 218.205 271.226 218.006 271.243 217.808L271.82 209.112C275.243 211.765 278.407 213.497 281.118 214.618C284.06 215.836 287.086 216.608 290.119 216.92C303.844 218.323 314.628 213.747 320.148 208.99C322.608 206.868 323.682 205.068 324.152 203.933C325.052 201.757 324.16 199.267 322.077 198.148L322.094 198.137ZM113.783 171.061C113.888 170.495 113.758 169.914 113.431 169.439L112.042 167.44C113.797 167.973 115.658 168.462 117.644 168.892C118.048 170.032 118.553 171.043 119.067 171.918C118.324 171.681 117.526 171.72 116.797 172.033C115.881 172.427 115.21 173.21 114.954 174.17C114.954 174.17 114.95 174.18 114.948 174.185L114.295 176.686C113.445 175.643 112.542 174.514 111.607 173.336L112.889 172.454C113.359 172.128 113.685 171.624 113.788 171.063L113.783 171.061Z" fill="#E67823"/>
<path d="M115.226 209.637C115.226 209.637 94.8622 211.121 87.0168 208.484C74.2658 204.202 58.2559 170.517 58.2559 170.517L83.8565 152.927C83.8565 152.927 98.5008 172.509 103.134 177.297C105.716 179.965 132.72 174.427 134.388 195.287C135.463 208.715 115.226 209.637 115.226 209.637Z" fill="#791628"/>
<path d="M85.5427 210.241C72.2451 204.738 56.9485 172.824 56.2926 171.439C55.838 170.478 56.1416 169.332 57.0203 168.729L82.6258 151.141C83.5878 150.479 84.9014 150.7 85.6024 151.635C85.7455 151.829 99.9377 170.784 104.567 175.653C105.267 175.907 107.487 176.041 109.292 176.155C118.337 176.718 135.173 177.762 136.562 195.121C136.856 198.787 135.82 201.985 133.486 204.628C127.801 211.062 116.206 211.759 115.364 211.803C114.19 211.885 94.4238 213.26 86.3291 210.543C86.0698 210.459 85.8067 210.356 85.5457 210.248L85.5427 210.241ZM61.023 171.247C66.04 181.372 78.5161 203.338 87.709 206.427C95.0501 208.891 114.87 207.486 115.064 207.473C115.083 207.469 115.1 207.47 115.119 207.466C115.221 207.462 125.67 206.906 130.228 201.745C131.77 199.993 132.427 197.938 132.228 195.449C131.224 182.9 120.217 181.169 109.027 180.475C105.031 180.227 102.831 180.089 101.573 178.796C97.6509 174.747 87.0491 160.769 83.3709 155.89L61.0159 171.25L61.023 171.247Z" fill="#3A1919"/>
<path d="M43.3409 154.075C44.8944 164.543 49.3117 165.064 54.9759 172.078C61.4431 180.091 66.3701 181.796 72.1717 178.263C76.8376 175.413 82.0118 171.222 87.3048 161.373C88.8455 159.299 80.3358 147.909 74.0656 140.329C69.7069 135.062 65.0724 132.963 60.8897 133.054C51.684 133.532 42.9903 143.145 43.3459 154.077L43.3409 154.075Z" fill="#FFE14D"/>
<path d="M45.0913 159.691C46.8464 166.944 51.0221 166.856 54.983 172.075C59.5067 178.036 63.2761 181.359 66.4925 179.398C70.7569 179.025 73.6652 177.311 79.1377 172.1C79.9027 170.806 66.8898 158.349 62.5201 152.698C59.4833 148.769 56.5295 146.985 54.0174 146.718C48.5097 146.331 44.0254 152.208 45.0913 159.691Z" fill="#EA911B"/>
<path d="M62.4978 181.336C58.9739 179.877 55.9529 176.735 53.2855 173.434C51.707 171.48 50.2487 170.074 48.8353 168.716C45.3796 165.388 42.3972 162.507 41.1877 154.391C41.1745 154.309 41.1683 154.225 41.1672 154.142C40.7857 142.32 49.9435 131.458 60.7665 130.893C60.7907 130.892 60.8149 130.89 60.8321 130.891C64.5216 130.813 70.1009 132.15 75.733 138.956C91.5031 158.02 90.1214 161.174 89.1398 162.537C83.5244 172.937 77.9847 177.259 73.3047 180.114C69.2235 182.602 65.6533 182.648 62.4958 181.341L62.4978 181.336ZM45.511 153.889C46.5071 160.447 48.6382 162.501 51.8583 165.603C53.2956 166.988 54.9216 168.558 56.6713 170.723C63.1814 178.789 66.9952 178.879 71.0389 176.411C75.2226 173.86 80.1808 169.978 85.2972 160.513C84.9813 158.549 80.4684 151.467 72.3912 141.703C68.825 137.392 64.8788 135.15 60.9767 135.216C52.6142 135.674 45.2786 144.549 45.511 153.889Z" fill="#3A1919"/>
<path d="M97.982 165.038L82.2415 142.418L45.9921 167.465L61.7326 190.085L97.982 165.038Z" fill="#A31E36"/>
<path d="M82.2307 142.407L71.2473 149.994C70.5034 152.147 70.3134 154.552 71.1258 157.15C73.1356 163.588 78.2254 171.037 82.0434 176.033L97.9751 165.028L82.2357 142.409L82.2307 142.407Z" fill="#791628"/>
<path d="M92.8647 157.684L87.3564 149.768L51.1071 174.815L56.6153 182.731L92.8647 157.684Z" fill="#FFEC64"/>
<path d="M87.3495 149.757L72.264 160.181L51.0967 174.801L56.603 182.722L76.8916 168.704L92.8558 157.677L87.3495 149.757Z" fill="#FFEC64"/>
<path d="M87.3497 149.757L72.2642 160.181C73.4843 163.029 75.1362 165.956 76.8918 168.704L92.858 157.672L87.3497 149.757Z" fill="#DDC84B"/>
<path d="M60.889 192.071C60.5176 191.917 60.1845 191.656 59.9372 191.302L44.1978 168.683C43.8711 168.208 43.7412 167.627 43.846 167.062C43.9508 166.496 44.2698 165.995 44.7452 165.67L80.998 140.626C81.9854 139.945 83.335 140.193 84.0224 141.174L99.7618 163.793C100.088 164.268 100.218 164.849 100.114 165.415C100.009 165.981 99.6898 166.481 99.2144 166.806L62.9616 191.851C62.3338 192.288 61.5537 192.34 60.8911 192.066L60.889 192.071ZM49.002 168L62.2593 187.055L94.9475 164.472L81.6902 145.417L49.002 168Z" fill="#3A1919"/>
<path d="M68.1841 143.501C68.1841 143.501 66.8118 138.463 62.9133 137.043C60.6602 136.222 54.861 137.448 56.2482 144.496C56.6539 146.556 60.1731 150.256 60.1731 150.256C60.1731 150.256 61.9264 151.802 65.5713 150.041C69.9217 147.94 68.179 143.499 68.179 143.499L68.1841 143.501Z" fill="#FFE14D"/>
<path d="M59.3388 153.139C59.1079 153.043 58.8885 152.905 58.6928 152.725C55.9577 150.199 52.0992 144.647 54.9685 139.859C56.9591 136.541 59.4044 135.79 61.11 135.746C66.5649 135.607 71.3755 142.466 71.9097 143.25C72.5808 144.242 72.3235 145.589 71.3302 146.256C70.3369 146.922 68.9864 146.662 68.3153 145.67C67.0483 143.816 63.6602 140.012 61.2354 140.074C60.9025 140.083 59.8919 140.11 58.7041 142.085C56.9394 145.028 61.603 149.5 61.6479 149.548C62.5205 150.366 62.5766 151.737 61.7636 152.607C61.1292 153.288 60.1591 153.472 59.3409 153.134L59.3388 153.139Z" fill="#3A1919"/>
<path d="M127.954 136.502L119.203 140.514C107.144 143.128 93.8951 144.37 88.3865 143.402C87.5109 143.245 86.6936 143.287 85.9581 143.516C84.4557 143.978 83.346 145.253 83.1119 146.785C83.0026 147.489 83.0867 148.21 83.3468 148.874C83.6406 149.698 83.9843 150.374 84.4438 151.068C87.9732 156.377 97.828 160.567 112.166 162.476L115.984 162.984C117.053 154.106 117.679 144.382 127.96 136.504L127.954 136.502Z" fill="#FF9739"/>
<path d="M125.855 136.618L117.103 140.629C111.258 141.895 104.946 142.927 99.5536 143.455C96.4131 153.543 89.6528 155.913 89.6528 155.913C94.0365 157.51 103.827 161.755 110.058 162.583L113.876 163.09C114.945 154.212 115.571 144.489 125.852 136.611L125.855 136.618Z" fill="#E26917"/>
<path d="M93.466 160.068C88.3558 157.953 84.6558 155.315 82.6242 152.254C82.0635 151.407 81.6448 150.571 81.3 149.614C80.9104 148.61 80.794 147.513 80.9575 146.45C81.3173 144.103 83.0242 142.138 85.3076 141.437C86.374 141.105 87.5333 141.046 88.7562 141.259C93.9025 142.164 106.933 140.925 118.504 138.438L127.044 134.526C128.047 134.063 129.24 134.433 129.813 135.379C130.386 136.325 130.156 137.548 129.279 138.217C120.26 145.122 119.26 153.619 118.3 161.834L118.135 163.242C118.067 163.817 117.769 164.338 117.311 164.693C116.852 165.048 116.272 165.201 115.697 165.127L111.879 164.619C104.591 163.647 98.3804 162.102 93.471 160.07L93.466 160.068ZM119.276 142.712C106.889 145.365 93.7912 146.553 88.0059 145.53C87.4805 145.435 87.0023 145.454 86.5977 145.579C85.8834 145.799 85.3597 146.397 85.2462 147.112C85.1994 147.438 85.2362 147.775 85.3559 148.083C85.3648 148.104 85.3736 148.125 85.3775 148.144C85.6045 148.789 85.8663 149.307 86.2405 149.866C89.4175 154.649 99.2127 158.557 112.43 160.318L114.069 160.534C114.75 154.77 115.609 148.546 119.273 142.705L119.276 142.712Z" fill="#3A1919"/>
<path d="M179.603 338.11C171.392 339.85 163.836 340.419 156.971 340.244L156.302 340.781C132.716 359.726 95.7375 366.491 70.291 356.516C57.6131 351.533 49.8094 342.785 48.2159 331.903C46.0965 317.475 37.0346 308.798 29.178 307.679C23.4298 306.864 18.5325 309.946 15.731 316.133C13.3155 321.472 14.858 329.949 19.9518 339.391C26.9027 352.274 40.4494 366.311 57.2709 373.272C61.4324 374.995 65.8011 376.287 70.3139 377.018C108.631 383.227 151.821 369.338 175.341 343.236L179.684 338.085C179.684 338.085 179.626 338.096 179.6 338.103L179.603 338.11Z" fill="#FF9739"/>
<path d="M174.583 339.044C150.347 362.23 109.97 374.197 73.9062 368.352C69.3934 367.621 65.0246 366.329 60.8632 364.606C44.0417 357.645 30.495 343.608 23.544 330.725C19.7279 323.651 17.9086 317.122 18.245 312.047C17.2848 313.202 16.4423 314.57 15.7339 316.14C13.3185 321.479 14.8609 329.955 19.9547 339.398C26.9056 352.281 40.4523 366.318 57.2738 373.279C61.4353 375.002 65.804 376.294 70.3169 377.025C108.634 383.234 151.819 369.342 175.344 343.243L179.687 338.092C179.687 338.092 179.629 338.103 179.603 338.11C177.901 338.472 176.226 338.78 174.583 339.044Z" fill="#E26917"/>
<path d="M56.4457 375.28C37.8472 367.583 24.4113 352.227 18.0429 340.423C12.6227 330.377 11.0585 321.2 13.7527 315.244C16.9313 308.217 22.8115 304.593 29.482 305.537C38.143 306.773 48.0962 316.123 50.3699 331.599C51.8536 341.709 59.2181 349.842 71.0866 354.508C95.8614 364.216 131.912 357.589 154.94 339.099L155.611 338.556C156.009 338.235 156.513 338.068 157.025 338.081C164.305 338.264 171.751 337.561 179.151 335.99C179.151 335.99 179.151 335.99 179.161 335.994L179.227 336.303L179.652 338.06L179.214 335.981C180.121 335.776 181.061 336.177 181.55 336.971C182.038 337.765 181.959 338.781 181.359 339.493L177.016 344.644C177.016 344.644 176.985 344.678 176.971 344.695C152.98 371.311 108.983 385.488 69.9834 379.166C65.4605 378.431 60.9084 377.127 56.4558 375.284L56.4457 375.28ZM31.9703 310.692C30.9312 310.262 29.8926 309.972 28.8767 309.827C24.0901 309.147 20.1261 311.707 17.7148 317.036C15.6143 321.685 17.164 329.661 21.8692 338.381C27.8857 349.529 40.5623 364.02 58.1067 371.281C62.2481 372.995 66.4724 374.21 70.6651 374.891C108.278 380.984 150.647 367.387 173.709 341.822L174.137 341.314C168.641 342.15 163.142 342.522 157.727 342.437L157.672 342.485C133.529 361.879 95.6243 368.782 69.5089 358.548C56.0869 353.274 47.7923 343.936 46.0726 332.222C44.3923 320.783 38.1628 313.26 31.9783 310.701L31.9703 310.692Z" fill="#3A1919"/>
<path d="M176.149 345.674C190.574 342.586 211.834 330.951 231.376 293.08C243.451 269.687 251.937 241.113 253.007 220.284C253.317 214.208 253.239 208.23 252.559 202.471C249.863 179.591 241.508 167.416 241.5 167.407C241.063 166.658 240.618 165.917 240.152 165.179C239.532 164.179 238.892 163.181 238.212 162.197C238.212 162.197 238.212 162.197 238.207 162.195C238.207 162.195 238.207 162.195 238.202 162.193C230.521 151.216 220.242 142.78 207.646 137.116C206.609 136.651 205.558 136.193 204.514 135.761C174.139 123.19 137.436 123.039 115.666 141.048C98.3591 155.362 109.502 166.002 110.066 167.665C113.459 174.682 74.9613 221.076 74.9613 221.076C65.9454 218.511 48.8527 218.555 41.2535 231.632C41.1539 231.802 40.6553 234.782 40.4621 236.073C40.4523 236.139 40.4354 236.208 40.4307 236.277C40.3773 236.647 40.324 237.018 40.2706 237.388C38.0222 233.757 35.0807 231.104 31.7074 229.708C27.8672 228.119 23.6442 228.293 20.128 230.183C16.0733 232.365 13.276 236.539 12.2475 241.936C9.81528 254.732 20.8825 285.06 33.6681 294.329C34.7348 295.104 35.7712 295.697 36.745 296.1C39.0792 297.066 41.1385 296.964 42.8642 295.792C45.884 293.737 47.2205 288.86 47.6352 285.329C66.8763 328.184 122.77 341.462 122.77 341.462L122.971 341.546C130.285 344.572 138.905 347.343 153.432 347.843C167.962 348.337 176.148 345.691 176.148 345.691L176.149 345.674Z" fill="#FFE14D"/>
<path d="M250.29 221.04C250.599 214.964 250.522 208.985 249.842 203.227C247.725 185.256 242.116 173.889 239.8 169.838C241.344 174.888 242.767 181.054 243.62 188.296C244.3 194.055 244.38 200.029 244.068 206.11C243.003 226.94 236.784 259.968 224.709 283.361C205.167 321.232 183.905 332.872 169.482 335.955C169.482 335.955 161.294 338.606 146.766 338.106C132.237 337.612 116.11 331.728 116.11 331.728C116.11 331.728 57.9457 313.99 38.7025 271.139C38.2899 274.665 36.9512 279.548 33.9314 281.602C32.2107 282.777 30.1515 282.879 27.8123 281.911C26.8384 281.508 25.8041 280.91 24.7354 280.14C20.2613 276.9 16.0033 271.078 12.4569 264.332C16.3679 276.618 23.3575 289.564 30.9567 295.07C32.0233 295.845 33.0597 296.438 34.0336 296.841C36.3678 297.807 38.427 297.705 40.1527 296.532C43.1725 294.478 44.5091 289.6 44.9238 286.07C64.1649 328.925 120.059 342.203 120.059 342.203L120.26 342.286C127.574 345.313 136.193 348.084 150.721 348.583C165.25 349.078 173.436 346.432 173.436 346.432C187.861 343.344 209.122 331.709 228.669 293.84C240.743 270.447 249.229 241.873 250.295 221.042L250.29 221.04Z" fill="#EA911B"/>
<path d="M250.49 243.941C250.556 235.925 249.785 227.843 247.742 220.178C185.6 208.216 137.825 202.797 137.825 202.797C120.705 195.05 99.7614 185.205 99.7614 185.205C99.4219 186.025 96.1087 190.167 91.705 195.48C91.2362 196.129 90.7512 196.79 90.2579 197.47C82.8292 207.606 77.6461 218.227 75.1018 221.363C74.5868 221.243 74.0455 221.131 73.4829 221.027C73.5319 221.064 61.9242 222.119 61.9242 222.119C64.4601 230.198 74.9667 243.071 113.293 265.64C158.219 289.792 201.418 303.839 225.852 306.359C227.828 303.076 229.801 299.557 231.748 295.776C240.113 279.571 246.773 260.892 250.483 243.944L250.49 243.941Z" fill="#EA911B"/>
<path d="M235.569 166.053C235.569 166.053 243.64 196.987 200.504 195.034L252.552 202.473C252.552 202.473 254.096 185.672 235.564 166.051L235.569 166.053Z" fill="#EA911B"/>
<path d="M103.696 339.532C99.6954 337.876 95.2408 335.839 90.5791 333.365C76.5849 325.951 58.3202 313.213 47.5332 293.617C46.6711 295.885 45.335 298.161 43.2659 299.566C41.6377 300.673 38.9005 301.661 35.0955 300.087C33.961 299.617 32.7773 298.94 31.5745 298.067C17.9973 288.224 6.70307 257.152 9.29549 243.515C10.4439 237.458 13.6311 232.754 18.274 230.259C22.3713 228.058 27.2662 227.852 31.7188 229.695C34.048 230.659 36.2042 232.155 38.0993 234.111C38.3401 232.904 38.4563 232.694 38.5538 232.529C46.7303 218.455 64.1059 218.452 73.3288 220.617C75.873 217.481 83.5641 207.905 90.9949 197.764C108.004 174.55 107.76 170.067 107.644 169.568C107.635 169.547 107.624 169.53 107.615 169.509C107.533 169.381 107.322 169.095 107.147 168.864C104.608 165.453 96.8872 155.069 113.453 141.368C126.675 130.431 144.693 127.723 157.482 127.38C173.488 126.951 190.636 129.999 204.516 135.744C205.58 136.184 206.658 136.648 207.713 137.125C220.671 142.951 231.252 151.636 239.162 162.941C239.17 162.951 239.181 162.967 239.189 162.976C239.815 163.879 240.445 164.855 241.179 166.037C241.587 166.687 242.016 167.397 242.519 168.256C243.24 169.339 251.258 181.861 253.894 204.218C254.546 209.76 254.697 215.704 254.356 222.394C253.275 243.506 244.692 272.427 232.49 296.071C212.596 334.623 190.748 346.554 175.89 349.767C174.792 350.103 166.537 352.463 152.544 351.992C137.59 351.485 128.701 348.586 121.327 345.534L121.281 345.515C120.059 345.214 113.136 343.433 103.703 339.529L103.696 339.532ZM47.6396 285.318C48.1416 285.526 48.562 285.917 48.7924 286.44C67.3794 327.836 121.896 341.217 122.446 341.351C122.558 341.38 122.667 341.414 122.778 341.459L122.978 341.542C129.976 344.438 138.416 347.187 152.68 347.671C166.583 348.147 174.58 345.645 174.655 345.618C174.724 345.593 174.796 345.576 174.868 345.559C188.813 342.578 209.462 331.228 228.626 294.085C240.568 270.942 248.964 242.712 250.017 222.168C250.348 215.727 250.205 210.02 249.581 204.723C247.001 182.841 239.214 171.112 238.882 170.623C238.849 170.574 238.813 170.518 238.788 170.467C238.312 169.655 237.897 168.967 237.495 168.333C236.791 167.192 236.189 166.275 235.611 165.426C235.601 165.422 235.6 165.41 235.592 165.401C228.143 154.76 218.165 146.577 205.946 141.081C204.925 140.623 203.892 140.178 202.868 139.754C176.448 128.82 136.82 127.681 116.237 144.711C102.834 155.802 108.306 163.152 110.645 166.293C111.11 166.919 111.431 167.351 111.624 167.835C112.407 169.553 112.449 172.547 107.388 181.226C104.551 186.091 100.351 192.333 94.9101 199.782C85.6862 212.409 75.9213 224.326 75.8252 224.445C75.2797 225.109 74.3873 225.39 73.5498 225.155C64.7529 222.657 49.2836 223.097 42.4609 234.469C42.3173 235.171 41.9718 237.213 41.7949 238.394L41.7671 238.546C41.7043 238.954 41.6551 239.314 41.6058 239.674C41.4843 240.579 40.8049 241.311 39.9084 241.503C39.012 241.694 38.0895 241.295 37.6096 240.522C35.5961 237.275 32.9853 234.917 30.0687 233.71C26.8309 232.37 23.292 232.511 20.3519 234.089C16.8824 235.951 14.4749 239.595 13.5723 244.347C11.295 256.328 22.1225 285.871 34.1345 294.58C35.0622 295.251 35.9491 295.765 36.7623 296.101C38.946 297.005 40.1244 296.473 40.8252 296.002C43.068 294.475 44.2771 290.389 44.6684 287.071C44.7805 286.104 45.5299 285.33 46.4955 285.185C46.8975 285.123 47.2982 285.177 47.6547 285.325L47.6396 285.318ZM107.654 169.601C107.654 169.601 107.654 169.601 107.659 169.603C107.659 169.603 107.659 169.603 107.654 169.601ZM107.558 169.363C107.558 169.363 107.58 169.424 107.595 169.46C107.585 169.426 107.568 169.396 107.558 169.363Z" fill="#3A1919"/>
<path d="M252.566 210.581C190.424 198.619 142.649 193.2 142.649 193.2C125.529 185.453 104.585 175.608 104.585 175.608C103.499 178.234 71.2961 216.407 71.2961 216.407C70.9429 225.629 78.8923 234.707 117.22 257.271C169.891 285.583 221.424 298.317 241.468 297.151C241.468 297.151 262.729 248.748 252.566 210.581Z" fill="#A31E36"/>
<path fill-rule="evenodd" clip-rule="evenodd" d="M213.284 256.909C198.799 259.163 161.18 249.945 161.18 249.945L155.517 266.342C155.517 266.342 196.38 275.778 220.421 270.068C240.758 265.239 249.552 242.896 247.906 238.079C246.622 234.32 226.238 254.889 213.284 256.909Z" fill="#791628"/>
<path d="M154.18 277.201C141.967 272.147 129.18 266.163 116.193 259.184C116.168 259.173 116.145 259.158 116.117 259.14C96.9708 247.866 85.3003 239.937 78.2776 233.421C71.6393 227.27 68.9055 222.155 69.1258 216.324C69.142 215.844 69.3224 215.38 69.6318 215.016C81.6961 200.711 101.281 177.17 102.598 174.727C102.83 174.208 103.26 173.794 103.798 173.589C104.35 173.378 104.97 173.4 105.507 173.652C105.713 173.749 126.377 183.461 143.233 191.092C147.669 191.61 194.192 197.144 252.974 208.459C253.801 208.62 254.454 209.23 254.668 210.034C260.038 230.188 256.694 253.058 252.947 268.69C248.9 285.557 243.682 297.528 243.463 298.029C243.137 298.773 242.419 299.272 241.607 299.317C227.087 300.162 193.639 293.525 154.182 277.196L154.18 277.201ZM118.286 255.392C171.181 283.815 220.498 295.526 239.998 295.048C243.12 287.406 259.01 245.885 250.803 212.453C190.105 200.825 142.88 195.411 142.409 195.356C142.183 195.333 141.964 195.266 141.755 195.174C127.603 188.766 110.651 180.842 105.338 178.35C100.132 185.487 80.6483 208.684 73.4575 217.208C73.6122 224.947 81.3559 233.641 118.283 255.385L118.286 255.392ZM102.595 174.749C102.595 174.749 102.584 174.774 102.58 174.784C102.584 174.774 102.591 174.759 102.595 174.749Z" fill="#3A1919"/>
<path d="M103.373 169.089L100.848 178.8C100.715 179.29 100.945 179.801 101.393 180.039L133.577 196.323C133.577 196.323 133.632 196.234 133.724 196.068C136.66 190.821 134.637 184.172 129.305 181.344L104.933 168.417C104.315 168.091 103.556 168.421 103.378 169.091L103.373 169.089Z" fill="#2E3499"/>
<path d="M132.744 198.322C132.694 198.301 132.644 198.28 132.596 198.255L100.412 181.971C99.022 181.237 98.3556 179.708 98.7474 178.236L101.272 168.542C101.272 168.542 101.276 168.532 101.278 168.527C101.534 167.567 102.21 166.786 103.121 166.39C104.036 165.995 105.062 166.033 105.948 166.505L130.319 179.433C133.439 181.087 135.708 183.859 136.71 187.233C137.701 190.578 137.317 194.092 135.622 197.123C135.502 197.342 135.423 197.462 135.423 197.462C134.856 198.364 133.718 198.725 132.744 198.322ZM103.166 178.512L132.525 193.369C133.014 191.79 133.029 190.091 132.54 188.46C131.872 186.209 130.36 184.365 128.283 183.259L105.127 170.975L103.164 178.517L103.166 178.512ZM102.954 179.338L102.948 179.353C102.948 179.353 102.952 179.343 102.954 179.338Z" fill="#3A1919"/>
<path d="M256.038 202.575L255.413 212C255.24 212.473 254.765 212.769 254.262 212.707L133.572 196.321C133.572 196.321 137.392 185.131 146.363 185.703L255.147 201.134C255.842 201.216 256.278 201.924 256.043 202.577L256.038 202.575Z" fill="#2E3499"/>
<path d="M216.478 195.646C216.478 195.646 218.381 199.855 213.762 206.016L255.415 211.995L256.04 202.57L216.48 195.641L216.478 195.646Z" fill="#1E2672"/>
<path d="M132.744 198.322C132.327 198.15 131.97 197.849 131.725 197.461C131.383 196.909 131.304 196.232 131.515 195.623C131.694 195.105 135.991 182.876 146.497 183.545C146.554 183.551 146.61 183.556 146.667 183.562L255.451 198.992C256.399 199.103 257.267 199.662 257.794 200.507C258.252 201.247 258.391 202.119 258.2 202.948L257.59 212.151C257.578 212.351 257.536 212.55 257.465 212.738C256.946 214.175 255.527 215.047 254.007 214.857L133.288 198.471C133.099 198.445 132.92 198.395 132.749 198.324L132.744 198.322ZM146.152 187.86C141.372 187.604 138.286 191.764 136.762 194.566L253.348 210.395L253.832 203.132L146.152 187.86ZM254.892 203.284L254.848 203.277C254.848 203.277 254.875 203.282 254.892 203.284Z" fill="#3A1919"/>
<path d="M108.992 252.249L108.952 252.232C108.006 251.817 107.575 250.714 107.989 249.771L131.857 195.565C132.266 194.633 133.348 194.207 134.281 194.594L134.322 194.61C135.267 195.025 135.698 196.129 135.285 197.071L111.416 251.278C111.007 252.21 109.926 252.635 108.992 252.249Z" fill="#3A1919"/>
<path d="M125.671 220.727C120.039 218.396 115.107 215.652 111.023 212.562C110.23 211.964 110.077 210.841 110.675 210.051C111.272 209.261 112.4 209.107 113.191 209.71C118.411 213.663 127.985 219.113 143.947 222.626C144.919 222.835 145.532 223.797 145.32 224.764C145.108 225.731 144.149 226.342 143.18 226.128C136.827 224.729 130.942 222.909 125.671 220.727Z" fill="#FFEC64"/>
<path d="M107.298 213.692C109.735 214.7 112.525 213.55 113.53 211.121C114.535 208.693 113.374 205.907 110.937 204.899C108.5 203.89 105.71 205.041 104.705 207.469C103.7 209.897 104.861 212.683 107.298 213.692Z" fill="#FFEC64"/>
<path d="M106.781 214.942C106.781 214.942 106.735 214.923 106.71 214.913C105.208 214.268 104.04 213.082 103.428 211.563C102.816 210.044 102.832 208.387 103.477 206.885C104.12 205.388 105.306 204.226 106.827 203.62C108.349 203.013 110.007 203.055 111.518 203.68C113.026 204.328 114.193 205.514 114.8 207.03C115.407 208.547 115.396 210.206 114.751 211.709C113.437 214.785 109.873 216.222 106.776 214.94L106.781 214.942ZM110.42 206.149C109.591 205.806 108.678 205.797 107.845 206.132C107.001 206.468 106.337 207.119 105.982 207.951C105.624 208.787 105.616 209.715 105.955 210.558C106.294 211.401 106.941 212.068 107.783 212.422C107.798 212.428 107.808 212.432 107.823 212.438C109.545 213.151 111.534 212.351 112.266 210.639C112.623 209.803 112.631 208.875 112.292 208.031C111.953 207.188 111.301 206.52 110.465 206.168C110.45 206.162 110.44 206.157 110.425 206.151L110.42 206.149Z" fill="#C6B44B"/>
<path d="M144.972 230.021C147.409 231.03 150.199 229.879 151.204 227.451C152.209 225.023 151.048 222.237 148.611 221.228C146.174 220.22 143.384 221.371 142.379 223.799C141.374 226.227 142.535 229.013 144.972 230.021Z" fill="#FFEC64"/>
<path d="M144.46 231.274C144.46 231.274 144.415 231.256 144.39 231.245C142.887 230.6 141.72 229.414 141.108 227.895C140.496 226.376 140.511 224.719 141.156 223.217C141.802 221.715 142.988 220.553 144.507 219.952C145.999 219.357 147.641 219.368 149.127 219.983C149.152 219.994 149.172 220.002 149.197 220.012C152.305 221.34 153.758 224.946 152.43 228.041C151.787 229.538 150.599 230.704 149.08 231.306C147.587 231.901 145.946 231.889 144.46 231.274ZM148.099 222.481C147.271 222.138 146.357 222.129 145.525 222.464C144.68 222.8 144.012 223.449 143.661 224.283C143.303 225.119 143.295 226.047 143.634 226.89C143.973 227.734 144.628 228.397 145.462 228.754C145.477 228.76 145.487 228.764 145.502 228.77C146.33 229.113 147.244 229.122 148.076 228.787C148.921 228.451 149.587 227.807 149.94 226.969C150.678 225.242 149.868 223.237 148.139 222.498C148.124 222.492 148.114 222.487 148.099 222.481Z" fill="#C6B44B"/>
<path d="M130.635 202.979C125.996 201.06 121.861 198.833 118.335 196.343C117.527 195.768 117.331 194.65 117.905 193.845C118.479 193.04 119.6 192.847 120.408 193.422C125.749 197.196 135.491 202.312 151.58 205.291C152.552 205.471 153.199 206.407 153.027 207.378C152.847 208.352 151.912 208.991 150.938 208.816C143.472 207.437 136.633 205.462 130.64 202.981L130.635 202.979Z" fill="#FFEC64"/>
<path d="M114.502 197.562C116.939 198.571 119.73 197.42 120.734 194.992C121.739 192.564 120.578 189.778 118.141 188.769C115.705 187.761 112.914 188.912 111.909 191.34C110.905 193.768 112.066 196.554 114.502 197.562Z" fill="#FFEC64"/>
<path d="M113.98 198.811C112.509 198.202 111.345 197.064 110.704 195.604C110.047 194.108 110.013 192.442 110.611 190.926C111.209 189.41 112.363 188.212 113.862 187.561C115.36 186.91 117.03 186.88 118.551 187.48C120.063 188.077 121.277 189.235 121.933 190.731C122.59 192.228 122.624 193.894 122.026 195.409C121.428 196.925 120.274 198.123 118.775 198.774C117.277 199.425 115.607 199.455 114.085 198.855C114.05 198.84 114.015 198.825 113.98 198.811ZM117.624 190.02C117.624 190.02 117.584 190.003 117.564 189.995C116.714 189.661 115.785 189.675 114.953 190.039C114.115 190.401 113.474 191.068 113.142 191.914C112.809 192.761 112.825 193.687 113.193 194.519C113.558 195.356 114.233 195.998 115.077 196.33C115.927 196.664 116.856 196.65 117.688 196.286C118.526 195.924 119.167 195.257 119.499 194.411C119.832 193.564 119.816 192.638 119.448 191.806C119.092 190.991 118.447 190.361 117.624 190.02Z" fill="#C6B44B"/>
<path d="M152.725 212.567C155.162 213.575 157.952 212.425 158.957 209.996C159.962 207.568 158.801 204.782 156.364 203.774C153.927 202.765 151.137 203.916 150.132 206.344C149.127 208.772 150.288 211.558 152.725 212.567Z" fill="#FFEC64"/>
<path d="M152.208 213.817C149.13 212.544 147.621 209.031 148.834 205.93C150.066 202.796 153.629 201.248 156.774 202.485C156.809 202.499 156.844 202.514 156.879 202.528C159.957 203.802 161.466 207.315 160.248 210.414C159.016 213.548 155.453 215.096 152.308 213.859C152.273 213.844 152.238 213.83 152.203 213.815L152.208 213.817ZM155.847 205.024C155.847 205.024 155.806 205.008 155.786 204.999C154.032 204.309 152.052 205.171 151.364 206.919C150.684 208.647 151.528 210.601 153.245 211.311C153.265 211.32 153.285 211.328 153.305 211.336C155.059 212.027 157.041 211.16 157.727 209.417C158.407 207.689 157.563 205.735 155.852 205.026L155.847 205.024Z" fill="#C6B44B"/>
<path d="M117.896 237.369C112.264 235.038 107.332 232.293 103.248 229.203C102.455 228.606 102.303 227.482 102.9 226.692C103.497 225.903 104.625 225.749 105.416 226.351C110.636 230.304 120.21 235.755 136.172 239.267C137.142 239.481 137.757 240.439 137.545 241.405C137.333 242.372 136.375 242.983 135.405 242.769C129.052 241.37 123.167 239.55 117.896 237.369Z" fill="#FFEC64"/>
<path d="M99.5181 230.331C101.955 231.34 104.745 230.189 105.75 227.761C106.755 225.333 105.594 222.547 103.157 221.538C100.72 220.529 97.93 221.68 96.9251 224.108C95.9202 226.537 97.0811 229.322 99.5181 230.331Z" fill="#FFEC64"/>
<path d="M99.0024 231.577C99.0024 231.577 98.9573 231.558 98.9322 231.548C97.4295 230.902 96.2623 229.716 95.6502 228.198C95.0381 226.679 95.0537 225.022 95.699 223.519C96.3421 222.022 97.5282 220.861 99.0493 220.254C100.57 219.648 102.225 219.67 103.74 220.315C106.845 221.647 108.301 225.249 106.973 228.343C105.658 231.42 102.095 232.856 98.9974 231.575L99.0024 231.577ZM102.641 222.784C101.813 222.441 100.9 222.432 100.067 222.767C99.2227 223.103 98.5593 223.754 98.2036 224.585C97.4652 226.312 98.2758 228.318 100.004 229.056C101.728 229.822 103.746 228.994 104.482 227.272C105.221 225.544 104.41 223.539 102.682 222.8C102.667 222.794 102.657 222.79 102.641 222.784Z" fill="#C6B44B"/>
<path d="M137.197 246.663C139.634 247.672 142.425 246.521 143.429 244.093C144.434 241.665 143.273 238.879 140.837 237.87C138.4 236.862 135.609 238.012 134.605 240.44C133.6 242.869 134.761 245.655 137.197 246.663Z" fill="#FFEC64"/>
<path d="M136.68 247.913C136.68 247.913 136.635 247.895 136.61 247.884C135.107 247.239 133.94 246.053 133.328 244.534C132.716 243.016 132.731 241.358 133.377 239.856C134.02 238.359 135.206 237.198 136.727 236.591C138.248 235.984 139.915 236.018 141.417 236.652C142.92 237.297 144.087 238.483 144.699 240.002C145.311 241.52 145.296 243.178 144.65 244.68C143.331 247.754 139.772 249.193 136.675 247.911L136.68 247.913ZM140.319 239.12C139.491 238.778 138.577 238.769 137.745 239.104C136.9 239.44 136.234 240.084 135.881 240.922C135.523 241.758 135.515 242.686 135.854 243.53C136.193 244.373 136.841 245.039 137.682 245.393C137.697 245.399 137.707 245.403 137.722 245.41C139.444 246.122 141.433 245.323 142.165 243.61C142.523 242.774 142.531 241.846 142.192 241.003C141.853 240.159 141.205 239.493 140.364 239.139C140.349 239.133 140.339 239.129 140.324 239.123L140.319 239.12Z" fill="#C6B44B"/>
<path d="M146.75 150.116C142.09 151.304 141.804 155.034 145.575 157.175C149.351 159.317 149.549 159.704 154.351 158.487C159.556 157.161 162.105 152.41 157.427 151.054C152.749 149.699 149.353 149.453 146.75 150.116Z" fill="#3A1919"/>
<path d="M129.17 150.386C131.64 151.408 134.468 150.242 135.487 147.781C136.506 145.319 135.329 142.495 132.859 141.473C130.388 140.451 127.56 141.617 126.542 144.079C125.523 146.54 126.7 149.364 129.17 150.386Z" fill="#3A1919"/>
<path d="M111.185 171.226C110.075 170.767 109.547 169.5 110.005 168.395C110.462 167.289 111.731 166.766 112.841 167.225C117.75 169.257 135.51 169.759 144.036 162.953C144.501 162.583 145.093 162.418 145.683 162.498C146.273 162.578 146.8 162.896 147.154 163.376C150.838 168.439 155.678 172.159 161.948 174.754C168.218 177.348 175.194 178.478 181.954 179.149C181.983 179.149 182.01 179.155 182.039 179.155C183.084 179.259 184.121 179.355 185.149 179.44C186.347 179.544 187.237 180.591 187.138 181.781C187.04 182.97 185.99 183.86 184.797 183.759C176.712 183.078 168.143 182.004 160.292 178.755C153.977 176.141 148.939 172.487 144.956 167.622C134.516 174.292 116.777 173.541 111.185 171.226Z" fill="#3A1919"/>
<path d="M195.162 311.724C186.285 291.361 153.805 282.031 133.23 303.317C121.404 315.553 117.655 324.57 117.655 324.57C117.655 324.57 149.563 342.415 172.962 331.794C195.715 321.468 195.167 311.727 195.167 311.727L195.162 311.724Z" fill="#FFE14D"/>
<path d="M133.552 304.939C133.281 304.827 133.028 304.658 132.814 304.435C131.985 303.57 132.011 302.198 132.876 301.373C143.472 291.27 157.483 287.08 171.316 289.882C183.685 292.388 193.774 300.09 198.302 310.488C198.781 311.588 198.277 312.862 197.175 313.337C196.073 313.813 194.795 313.307 194.315 312.207C190.349 303.108 181.432 296.353 170.459 294.126C158.037 291.609 145.435 295.393 135.877 304.507C135.235 305.12 134.313 305.26 133.545 304.942L133.552 304.939Z" fill="#3A1919"/>
<path d="M52.6112 282.654C52.5116 278.078 50.5621 245.496 44.8477 235.62C44.0843 234.297 43.2272 233.058 42.2995 231.918C39.6478 222.783 33.996 215.839 27.8182 214.173C24.9927 213.414 20.7468 213.373 16.5283 217.485C15.5642 218.352 4.31168 228.862 2.36841 250.109C1.62473 258.214 4.29097 260.864 6.87041 263.425C9.79111 266.327 13.105 269.614 13.0738 283.925C13.0741 283.995 13.0773 284.073 13.0826 284.145C13.541 288.735 16.4214 297.033 23.9512 300.149C25.2814 300.7 26.7556 301.087 28.3823 301.263C35.0763 301.994 41.7917 302.319 45.5832 299.764C51.3442 295.873 52.6994 286.873 52.6112 282.654Z" fill="#3A1919"/>
<path d="M41.947 267.42C41.5968 264.985 39.0745 258.194 40.7802 250.932C45.7067 229.936 29.7335 207.584 18.0139 219.067C18.0139 219.067 6.46302 229.19 4.5272 250.305C3.06448 266.285 15.2956 256.578 15.2478 283.928C15.2478 283.928 16.6018 298.174 28.6169 299.104C44.62 300.343 44.7812 287.082 41.947 267.42Z" fill="#938282"/>
<path d="M23.7127 300.156C16.3436 297.107 13.5278 288.794 13.0883 284.13C13.081 284.063 13.0757 283.991 13.0805 283.922C13.1066 269.609 9.79778 266.324 6.87708 263.422C4.29763 260.861 1.6314 258.211 2.37508 250.106C4.31835 228.859 15.5729 218.344 16.535 217.483C20.7198 213.409 25.9472 212.655 30.887 215.437C39.6159 220.344 46.5235 235.974 42.9023 251.43C41.6695 256.696 42.8976 261.827 43.6294 264.889C43.8466 265.799 44.0205 266.515 44.1059 267.119C46.2122 281.734 46.4802 291.898 41.3183 297.395C38.4492 300.449 34.2449 301.715 28.4625 301.267C26.7073 301.132 25.1283 300.742 23.7177 300.158L23.7127 300.156ZM17.4207 283.82C17.558 285.037 19.1061 296.199 28.7807 296.946C33.1677 297.285 36.2308 296.462 38.1372 294.427C42.0996 290.208 41.6653 280.702 39.7997 267.721C39.7435 267.317 39.5831 266.653 39.4007 265.886C38.5781 262.447 37.2003 256.698 38.6696 250.434C41.8036 237.079 35.9627 223.261 28.7594 219.214C25.4797 217.365 22.3718 217.842 19.543 220.614C19.5134 220.643 19.4839 220.671 19.4564 220.695C19.3536 220.787 8.52204 230.593 6.69876 250.513C6.14307 256.587 7.65183 258.084 9.93784 260.36C13.2807 263.676 17.4326 267.808 17.4236 283.827L17.4207 283.82Z" fill="#3A1919"/>
<path d="M39.5934 262.451C39.4014 261.452 42.0838 253.095 40.5793 252.525C27.03 257.703 7.08411 257.41 6.1678 256.527C4.89322 256.239 3.95376 257.913 4.8857 258.843C4.8857 258.843 9.50689 263.134 10.6477 265.094C11.0647 265.806 27.8768 267.96 39.5934 262.451Z" fill="#3A1919"/>
<path d="M44.4597 287.787L43.4361 280.117C43.3678 279.614 43.0216 279.172 42.5314 278.992L36.92 276.881C36.7121 276.801 36.4886 276.773 36.2665 276.798L18.4554 278.677C17.6943 278.755 17.1567 279.429 17.2597 280.174L18.6381 290.511C19.1733 294.517 21.8623 297.779 25.3812 299.236C26.9976 299.905 28.7834 300.193 30.6167 299.997L35.2959 299.502C41.1249 298.885 45.2356 293.627 44.4568 287.78L44.4597 287.787Z" fill="#3A1919"/>
<path d="M195.541 45.3489C176.881 41.1119 151.862 38.6138 151.016 42.3472C144.969 69.1362 148.499 92.9702 142.451 119.759C162.803 131.855 185.279 133.354 211.37 133.771C217.418 106.982 230.964 88.6563 237.012 61.8674C237.857 58.134 214.199 49.5789 195.541 45.3489Z" fill="#A31E36"/>
<path fill-rule="evenodd" clip-rule="evenodd" d="M237.015 61.8748C237.562 59.4591 227.825 55.0134 215.829 51.0389C218.068 52.3758 219.301 53.5597 219.099 54.4602C213.051 81.2492 203.901 101.013 197.859 127.804C180.004 127.515 158.825 126.765 143.873 122.416C163.688 133.44 185.539 134.856 210.758 135.264C216.806 108.475 230.965 88.6688 237.013 61.8798L237.015 61.8748Z" fill="#791628"/>
<path d="M168.611 44.9831C163.433 44.5097 159.79 44.4317 157.335 44.5403L160.267 107.665L174.371 110.866L205.769 51.9192C202.242 50.9224 198.712 50.0181 195.386 49.2623C186.943 47.344 176.928 45.742 168.606 44.981L168.611 44.9831Z" fill="#FFEC64"/>
<path d="M208.738 134.462C208.748 134.396 208.757 134.33 208.774 134.261C210.452 126.952 212.697 120.236 215.162 113.84C191.458 112.185 168.617 107.735 147.155 100.704C146.556 107.252 145.67 113.927 144.183 120.757C144.092 121.177 143.876 121.556 143.572 121.852C143.075 122.326 142.425 122.988 141.743 123.784C161.623 130.799 182.685 135.555 204.495 137.879C206.979 136.581 208.339 135.44 208.581 134.854L208.741 134.469L208.738 134.462Z" fill="#2E3499"/>
<path d="M143.575 117.055L141.863 121.192C158.558 130.081 189.755 134.925 210.758 135.263C212.419 127.913 214.899 120.585 217.442 113.998C212.192 113.671 206.986 113.209 201.825 112.608C200.483 117.314 199.216 122.179 198.061 127.302C179.045 129.221 143.575 117.055 143.575 117.055Z" fill="#1E2672"/>
<path d="M210.967 134.758C157.776 128.773 142.104 120.243 142.104 120.243C136.185 125.919 129.371 136.731 148.168 142.612C179.46 152.399 208.363 141.038 210.579 135.682C210.778 135.201 210.967 134.746 210.96 134.761L210.967 134.758Z" fill="#3A1919"/>
<path d="M144.085 143.442C138.313 141.053 134.913 137.83 133.96 133.838C132.552 127.936 136.968 122.294 140.068 119.195C142.763 106.531 143.377 94.2488 143.971 82.3733C144.596 69.8374 145.244 56.8774 148.306 43.2994C148.886 40.7332 152.151 40.1455 154.932 39.9195C157.724 39.6927 161.505 39.7634 166.174 40.1315C175.084 40.8369 186.018 42.5325 195.428 44.6696C204.839 46.8068 215.437 49.9975 223.779 53.2099C228.152 54.8907 231.594 56.4617 234.014 57.8734C236.424 59.281 239.119 61.2223 238.542 63.7835C235.474 77.3765 230.452 88.9424 225.597 100.12C220.944 110.837 216.13 121.915 213.133 134.682C213.139 134.866 213.123 135.047 213.081 135.235C213.05 135.38 213.007 135.514 212.948 135.642L212.805 135.987C212.805 135.987 212.792 136.017 212.786 136.032L212.587 136.512C209.557 143.835 178.496 154.373 147.518 144.681C146.29 144.295 145.143 143.885 144.078 143.445L144.085 143.442ZM152.441 44.7296C149.547 57.7738 148.918 70.3901 148.312 82.5943C147.7 94.8427 147.07 107.517 144.181 120.751C144.089 121.17 143.874 121.549 143.569 121.845C141.615 123.725 137.172 128.565 138.194 132.843C139.124 136.748 144.489 139.186 148.818 140.544C166.413 146.05 182.078 144.256 189.847 142.702C201.867 140.295 208.032 136.168 208.579 134.848L208.738 134.462C208.748 134.396 208.758 134.33 208.775 134.261C211.852 120.871 216.811 109.443 221.615 98.3903C226.335 87.5255 231.215 76.2876 234.2 63.293C233.342 62.3403 229.678 59.998 220.486 56.5924C212.646 53.6873 202.923 50.8118 194.475 48.8914C186.027 46.9711 176.018 45.3712 167.695 44.6101C157.93 43.7145 153.623 44.2463 152.444 44.7367L152.441 44.7296Z" fill="#3A1919"/>
<path d="M240.242 165.545C239.931 165.416 239.651 165.312 239.422 165.24C238.622 164.985 237.751 165.158 237.114 165.703C236.477 166.247 236.172 167.082 236.303 167.904C236.584 169.654 237.583 172.283 238.982 174.941L239.347 175.649C249.759 195.94 260.831 203.879 268.286 206.964C271.032 208.1 273.855 208.823 276.675 209.112C289.712 210.442 299.889 206.153 305.061 201.697C307.313 199.752 308.171 198.203 308.484 197.448C308.956 196.308 308.485 194.988 307.393 194.401C305.878 193.587 302.069 191.923 295.749 189.307C292.466 187.948 288.717 186.421 284.739 184.797C280.215 182.955 275.388 180.98 270.579 178.99C261.709 175.319 249.045 169.99 241.47 166.117C241.052 165.903 240.642 165.716 240.245 165.552L240.242 165.545Z" fill="#FF9739"/>
<path d="M308.486 197.443C308.331 197.361 268.185 212.933 239.02 169.889C233.052 161.081 235.461 169.723 239.211 175.979C256.022 209.873 281.707 218.078 304.925 202.027C308.003 199.007 311.232 199.828 308.486 197.443Z" fill="#E26917"/>
<path d="M225.771 38.1696C238.351 48.9006 224.775 68.0513 209.516 61.7187C218.393 79.3942 190.248 84.337 180.78 72.1524C179.386 74.1124 171.091 96.374 170.901 107.702C170.901 107.702 170.133 108.263 169.589 108.172C169.111 108.091 168.078 107.319 168.078 107.319C166.138 97.2594 163.175 60.7188 182.477 31.4537C219.193 -24.2026 270.409 27.0296 225.771 38.1696Z" fill="#CECECE"/>
<path d="M223.32 34.8122C235.901 45.5432 222.325 64.6939 207.066 58.3613C215.943 76.0368 187.798 80.9796 178.33 68.795C176.936 70.755 168.64 93.0166 168.45 104.344C168.45 104.344 167.683 104.905 167.138 104.815C166.66 104.734 165.628 103.961 165.628 103.961C163.688 93.902 160.725 57.3614 180.027 28.0963C216.742 -27.5601 267.959 23.6722 223.32 34.8122Z" fill="white"/>
<path d="M178.044 113.13C176.383 120.481 169.393 124.641 162.976 122.601C157.095 120.729 153.823 114.231 155.24 107.952C156.657 101.672 162.401 97.2244 168.512 98.0721C175.184 98.9996 179.706 105.775 178.046 113.125L178.044 113.13Z" fill="#C6B44B"/>
<path d="M168.142 99.7055C169.503 99.9115 170.782 100.4 171.941 101.167C172.504 101.54 173.04 101.979 173.518 102.47C174.002 102.963 174.441 103.508 174.82 104.098C175.204 104.69 175.533 105.33 175.796 106.002C176.062 106.68 176.267 107.392 176.396 108.119C176.667 109.637 176.632 111.198 176.284 112.736C175.934 114.278 175.3 115.697 174.403 116.954C173.972 117.555 173.484 118.109 172.956 118.605C172.429 119.096 171.862 119.529 171.256 119.899C170.657 120.267 170.024 120.573 169.382 120.805C168.732 121.04 168.064 121.203 167.397 121.296C166.023 121.489 164.654 121.374 163.34 120.97C162.045 120.575 160.875 119.921 159.859 119.037C159.375 118.615 158.93 118.143 158.53 117.632C158.138 117.13 157.789 116.581 157.491 116.007C157.199 115.435 156.948 114.833 156.757 114.215C156.563 113.59 156.424 112.947 156.34 112.297C156.167 110.954 156.235 109.594 156.539 108.249C156.843 106.904 157.367 105.651 158.098 104.512C158.449 103.96 158.852 103.442 159.297 102.964C159.734 102.489 160.216 102.05 160.728 101.664C161.243 101.273 161.795 100.934 162.361 100.646C162.939 100.358 163.547 100.124 164.165 99.952C165.466 99.594 166.801 99.5079 168.135 99.7085M168.287 99.0275C162.638 98.201 157.301 102.302 155.985 108.125C154.668 113.948 157.728 119.954 163.182 121.649C169.09 123.485 175.489 119.63 177.011 112.896C178.529 106.16 174.416 99.9177 168.294 99.0246L168.287 99.0275Z" fill="white"/>
<path d="M157.522 108.474C156.729 111.995 157.829 115.532 160.168 117.765L159.016 104.992C158.328 106.013 157.813 107.188 157.522 108.474ZM171.983 111.237C172.257 110.02 172.024 109.092 171.813 108.366C171.521 107.466 171.227 106.7 171.407 105.896C171.607 105 172.448 104.288 173.385 104.453C173.43 104.46 173.465 104.474 173.509 104.481C172.184 102.597 170.206 101.28 167.867 100.91C164.843 100.431 161.917 101.646 159.923 103.838C160.111 103.88 160.284 103.917 160.437 103.945C161.281 104.107 162.632 104.238 162.632 104.238C163.086 104.292 162.975 105.03 162.515 105.004C162.515 105.004 162.055 104.978 161.556 104.906L162.322 115.557L165.575 109.885L165.134 105.608C164.678 105.489 164.261 105.346 164.261 105.346C163.809 105.23 164.037 104.48 164.486 104.59C164.486 104.59 165.872 104.976 166.729 105.137C167.649 105.313 169.128 105.462 169.128 105.462C169.625 105.527 169.513 106.295 169.009 106.262C169.009 106.262 168.505 106.23 167.961 106.151L168.898 117.242L170.573 114.303C171.321 113.007 171.796 112.073 171.985 111.232L171.983 111.237ZM165.707 111.2L161.313 118.678C162.007 119.147 162.771 119.516 163.609 119.763C164.615 120.062 165.639 120.158 166.641 120.081C166.626 120.033 166.617 119.983 166.609 119.933L165.707 111.2ZM174.895 107.398C174.865 107.725 174.812 108.067 174.729 108.437C174.499 109.448 174.058 110.543 173.188 111.835L168.364 119.769C171.52 118.848 174.178 116.147 175.017 112.445C175.41 110.698 175.343 108.972 174.895 107.398Z" fill="white"/>
<path d="M267.46 208.959C259.669 205.735 248.135 197.505 237.418 176.631L237.055 175.931C235.536 173.052 234.482 170.243 234.158 168.241C233.909 166.684 234.5 165.084 235.696 164.056C236.913 163.019 238.549 162.688 240.077 163.174C240.762 163.393 241.622 163.76 242.453 164.181C249.955 168.018 262.569 173.326 271.404 176.982C276.223 178.977 280.967 180.911 285.554 182.785C289.538 184.411 293.286 185.938 296.574 187.299C303.049 189.979 306.811 191.63 308.414 192.487C310.497 193.606 311.391 196.091 310.489 198.272C310.019 199.407 308.945 201.207 306.485 203.329C300.967 208.081 290.181 212.662 276.457 211.259C273.423 210.947 270.397 210.175 267.455 208.957L267.46 208.959ZM239.419 167.547C239.113 167.421 238.898 167.343 238.767 167.306C238.684 167.278 238.6 167.296 238.536 167.352C238.472 167.407 238.444 167.489 238.457 167.571C238.696 169.082 239.64 171.517 240.914 173.937L241.286 174.658C251.399 194.363 262.003 202.014 269.121 204.96C271.671 206.015 274.286 206.687 276.898 206.954C289.246 208.216 298.814 204.22 303.649 200.052C305.633 198.342 306.29 197.079 306.483 196.614C306.53 196.499 306.484 196.369 306.375 196.306C304.946 195.539 301.092 193.856 294.928 191.305C291.645 189.946 287.907 188.422 283.928 186.799C279.334 184.927 274.587 182.986 269.758 180.988C260.853 177.302 248.133 171.95 240.49 168.043C240.131 167.859 239.771 167.693 239.424 167.549L239.419 167.547Z" fill="#3A1919"/>
<path d="M148.797 125.052C146 124.082 144.284 123.342 143.43 122.948C143.017 122.753 142.534 122.84 142.212 123.164C136.502 128.763 131.65 135.87 156.442 143.277C157.154 143.49 140.719 132.582 148.952 126C149.287 125.729 149.207 125.198 148.795 125.057L148.797 125.052Z" fill="#605555"/>
<path d="M17.9898 298.585C12.9699 296.507 10.1487 291.362 9.6614 287.311L8.61144 278.611C8.54084 278.042 8.70328 277.465 9.05999 277.015C9.4167 276.565 9.93815 276.271 10.5076 276.203L33.6973 273.474C34.0376 273.433 34.3669 273.475 34.6643 273.581C34.9493 273.617 35.2339 273.682 35.5041 273.782L41.1176 275.888C42.3481 276.339 43.2478 277.461 43.411 278.8L44.3601 286.651C44.7857 290.154 43.9592 293.245 41.9851 295.586C40.0825 297.839 37.242 299.247 33.7638 299.653C33.6527 299.666 33.5458 299.668 33.4339 299.669C30.1759 299.557 24.8905 299.414 23.6937 299.493C21.5565 299.627 19.6543 299.28 17.9927 298.592L17.9898 298.585ZM13.1832 280.251L13.9767 286.801C14.3929 290.242 17.3182 295.548 23.405 295.161C25.1133 295.054 31.9992 295.279 33.4024 295.326C35.6885 295.031 37.5039 294.153 38.6579 292.785C39.8436 291.384 40.3201 289.437 40.0418 287.154L39.1513 279.773L34.1585 277.9C33.9334 277.918 33.7158 277.904 33.5055 277.858L13.1782 280.249L13.1832 280.251ZM39.6193 279.949L39.6043 279.943C39.6043 279.943 39.6143 279.947 39.6193 279.949Z" fill="#3A1919"/>
<path d="M13.6269 288.981C14.4234 294.97 19.1854 299.39 24.2654 298.85L28.9445 298.355C34.0224 297.82 37.4931 292.531 36.6966 286.543L35.5015 277.553L12.4339 279.987L13.629 288.976L13.6269 288.981Z" fill="#938282"/>
<path d="M19.4505 300.255C15.3744 298.568 12.1546 294.4 11.4711 289.261L10.276 280.271C10.1974 279.694 10.3569 279.11 10.7177 278.65C11.0786 278.19 11.6101 277.9 12.1946 277.837L35.2622 275.404C36.4363 275.28 37.4923 276.11 37.6503 277.277L38.8455 286.266C39.3468 290.041 38.3995 293.779 36.2356 296.522C34.4375 298.806 31.9287 300.223 29.1747 300.513L24.4956 301.007C22.7491 301.193 21.0368 300.912 19.4505 300.255ZM15.7758 288.705C16.4193 293.529 20.1202 297.117 24.0261 296.7L28.7052 296.206C30.7294 295.989 32.062 294.8 32.8174 293.842C34.2617 292.014 34.8859 289.455 34.5387 286.827L33.6228 279.933L14.8769 281.912L15.7778 288.7L15.7758 288.705Z" fill="#3A1919"/>
<path d="M140.678 287.285C160.89 291.88 182.489 272.542 188.92 244.094C195.351 215.645 184.179 188.858 163.967 184.264C143.754 179.669 122.156 199.006 115.725 227.455C109.294 255.904 120.466 282.691 140.678 287.285Z" fill="#FFC52E"/>
<path d="M138.078 283.619C124.472 280.238 117.087 265.635 115.054 252.731C111.332 229.632 120.902 200.867 142.2 189.183C146.971 186.676 152.435 185.252 157.826 185.908L157.826 186.347C156.542 186.566 155.279 186.763 154.055 187.147C150.42 188.133 147.044 189.952 144.032 192.144C124.984 206.575 116.878 236.503 121.866 259.329C123.63 267.13 127.14 274.886 133.382 280.147C134.83 281.379 136.496 282.455 138.17 283.353L138.071 283.622L138.078 283.619Z" fill="#FFEA94"/>
<path d="M135.441 287.888C127.143 284.454 120.413 277.246 116.197 267.147C111.313 255.436 110.39 241.17 113.6 226.979C116.809 212.788 123.776 200.317 133.218 191.863C142.867 183.226 153.959 179.779 164.439 182.159C174.925 184.542 183.443 192.444 188.436 204.417C193.32 216.128 194.243 230.394 191.038 244.586C184.353 274.152 161.545 294.257 140.199 289.406C138.565 289.035 136.975 288.529 135.444 287.895L135.441 287.888ZM167.513 187.661C166.213 187.123 164.867 186.695 163.486 186.381C154.414 184.32 144.698 187.411 136.124 195.087C127.344 202.947 120.846 214.612 117.835 227.941C114.823 241.27 115.668 254.602 120.204 265.49C124.64 276.125 132.079 283.111 141.144 285.175C160.157 289.499 180.634 270.849 186.793 243.62C189.803 230.296 188.96 216.96 184.424 206.072C180.663 197.058 174.75 190.662 167.511 187.666L167.513 187.661Z" fill="#3A1919"/>
<path d="M151.354 260.753C159.189 262.534 167.941 253.353 170.904 240.247C173.867 227.141 169.917 215.073 162.083 213.292C154.248 211.511 145.496 220.692 142.533 233.798C139.57 246.904 143.52 258.972 151.354 260.753Z" fill="#D39A23"/>
<path d="M181.905 157.289C181.262 157.023 180.815 156.428 180.738 155.734C180.661 154.982 181.032 154.256 181.696 153.887C186.449 151.226 193.656 151.584 193.961 151.599C195.014 151.654 195.815 152.547 195.764 153.593C195.709 154.636 194.818 155.439 193.77 155.386C193.694 155.384 191.53 155.285 188.989 155.616C190.436 156.098 192.038 156.644 193.642 157.202C194.638 157.55 195.155 158.631 194.811 159.619C194.466 160.607 193.382 161.125 192.39 160.779C187.243 158.982 182.12 157.366 182.068 157.351C182.017 157.33 181.96 157.312 181.91 157.291L181.905 157.289Z" fill="#3A1919"/>
<path d="M83.7586 158.877C96.674 132.729 92.0734 104.097 73.4829 94.9252C54.8925 85.7538 29.3519 99.5162 16.4366 125.664C3.52123 151.813 8.12182 180.445 26.7123 189.616C45.3027 198.787 70.8433 185.025 83.7586 158.877Z" fill="#FFC52E"/>
<path d="M21.5454 185.033C13.0197 178.001 9.43179 166.34 9.16024 155.56C8.56037 128.908 26.8252 98.8675 53.829 92.6907C59.2005 91.5744 64.8889 91.6672 70.0745 93.5145L69.9792 93.9438C64.8425 93.47 59.5926 94.2499 54.7787 96.0363C27.6593 106.342 9.12367 142.691 15.4006 170.785C16.2664 174.517 17.6116 178.214 19.587 181.539C20.2181 182.685 20.9873 183.753 21.7531 184.843L21.5484 185.04L21.5454 185.033Z" fill="#FFEA94"/>
<path d="M68.3446 152.335C74.8109 139.243 73.6333 125.463 65.7144 121.557C57.7955 117.65 46.134 125.096 39.6677 138.187C33.2014 151.279 34.379 165.059 42.2979 168.965C50.2168 172.872 61.8783 165.426 68.3446 152.335Z" fill="#D39A23"/>
<path d="M27.5058 192.339C26.9185 192.095 26.3395 191.832 25.7637 191.547C6.12236 181.866 1.06562 151.876 14.4879 124.7C27.9103 97.524 54.7971 83.2903 74.4414 92.9785C84.0844 97.7368 90.5282 107.398 92.5844 120.189C94.594 132.708 92.1553 146.784 85.7151 159.831C72.6874 186.209 46.9628 200.391 27.5058 192.339ZM71.0232 96.1803C53.6695 88.9984 30.3997 102.292 18.3862 126.618C6.02019 151.653 10.191 179.039 27.6766 187.664C28.1691 187.909 28.6699 188.134 29.1769 188.343C46.5305 195.525 69.8004 182.232 81.8139 157.906C87.8644 145.659 90.1633 132.503 88.2905 120.861C86.4622 109.494 80.8635 100.973 72.5185 96.8577C72.026 96.6129 71.5201 96.386 71.0182 96.1782L71.0232 96.1803Z" fill="#3A1919"/>
<path d="M138.546 309.466C141.466 297.013 138.538 263.1 118.48 265.01C101.75 268.397 96.7621 286.474 93.3861 300.214C89.2322 314.471 64.1799 331.333 102.751 342.299C109.895 344.33 117.049 343.254 122.401 338.333C130.568 329.71 135.895 322.863 138.548 309.461L138.546 309.466Z" fill="#3A1919"/>
<path d="M113.838 259.322C113.838 259.322 99.9102 264.987 93.1454 283.237C88.3988 296.041 99.274 290.009 87.6484 312.843C82.3114 323.324 86.2946 332.424 101.071 338.844C105.696 340.852 113.534 330.68 124.103 311.96C125.226 309.97 127.773 306.103 130.416 296.705C135.772 277.685 130.749 254.416 113.838 259.322Z" fill="#938282"/>
<path d="M100.301 340.875C100.271 340.862 100.235 340.848 100.205 340.835C91.6031 337.099 86.2016 332.321 84.1474 326.644C82.5046 322.103 83.0284 317.13 85.7123 311.867C92.2244 299.072 91.3307 296.16 90.4611 293.345C89.7437 291.015 88.9279 288.37 91.109 282.488C98.124 263.563 112.41 257.571 113.013 257.323C113.084 257.293 113.152 257.269 113.226 257.247C118.945 255.589 123.975 256.692 127.773 260.443C135.534 268.114 136.031 284.787 132.511 297.297C130.045 306.054 127.643 310.197 126.352 312.422C126.224 312.645 126.105 312.848 125.999 313.032C113.345 335.453 106.124 343.285 100.311 340.879L100.301 340.875ZM114.573 261.366C113.397 261.893 101.226 267.688 95.1791 283.991C93.5066 288.501 93.9961 290.074 94.6091 292.074C95.9424 296.41 96.3627 300.509 89.5797 313.83C87.4653 317.988 87.0082 321.806 88.2298 325.176C89.8608 329.688 94.4727 333.618 101.927 336.861L101.937 336.865C102.8 337.222 105.078 336.109 108.675 331.792C112.279 327.46 116.706 320.628 122.197 310.896C122.309 310.697 122.434 310.479 122.573 310.244C123.767 308.183 125.995 304.348 128.314 296.116C131.957 283.166 130.408 269.15 124.708 263.516C122.09 260.933 118.68 260.207 114.566 261.369L114.573 261.366Z" fill="#3A1919"/>
<path d="M126.323 303.213C126.091 302.836 125.694 302.589 125.253 302.547C109.55 301.163 92.7759 287.126 92.605 286.985C92.1772 286.627 91.573 286.552 91.0752 286.803C90.5774 287.054 90.2774 287.58 90.3158 288.141L90.855 295.746C90.8788 296.072 91.0157 296.381 91.2421 296.615C91.6211 297.006 98.0496 303.551 108.059 307.693C112.351 309.469 117.302 310.804 122.715 311.023C123.299 311.047 123.834 310.706 124.057 310.166L126.417 304.464C126.587 304.054 126.55 303.588 126.318 303.211L126.323 303.213Z" fill="#3A1919"/>
<path d="M119.723 322.216C119.858 321.762 119.756 321.269 119.45 320.914C119.145 320.559 118.676 320.37 118.203 320.433L111.884 321.268L92.5964 311.968C92.2633 311.806 91.8794 311.782 91.5332 311.908C91.184 312.027 90.8959 312.283 90.7401 312.617L87.5815 319.184C84.5581 325.466 86.9456 332.611 93.222 335.631L98.2544 338.047C98.2895 338.062 98.3196 338.074 98.3548 338.089C101.672 339.38 104.912 339.279 107.976 337.8C116.448 333.696 119.561 322.793 119.731 322.225L119.723 322.216Z" fill="#3A1919"/>
<path d="M121.077 322.524C121.174 321.92 120.858 321.321 120.3 321.049L92.7317 307.806C92.4869 307.687 92.2111 307.643 91.9435 307.679L84.5123 308.657C83.9024 308.739 83.4184 309.212 83.3212 309.816C83.224 310.421 83.5403 311.02 84.0981 311.292L111.667 324.535C111.912 324.654 112.187 324.698 112.455 324.662L119.886 323.684C120.496 323.602 120.98 323.129 121.077 322.524Z" fill="#3A1919"/>
<path d="M87.5942 334.028L93.1793 336.714C105.691 342.724 112.913 323.797 112.913 323.797L85.3591 310.56C85.3591 310.56 76.6064 328.754 87.5921 334.033L87.5942 334.028Z" fill="#938282"/>
<path d="M93.0558 339.03C92.7847 338.918 92.5128 338.794 92.2429 338.664L86.6557 335.983C73.864 329.84 83.0087 310.443 83.4037 309.616C83.6533 309.098 84.0991 308.703 84.6427 308.512C85.1862 308.321 85.7828 308.357 86.3025 308.607L113.856 321.844C114.875 322.336 115.351 323.517 114.95 324.57C114.775 325.036 110.507 336.018 102.484 339.194C99.4243 340.406 96.2534 340.353 93.0608 339.032L93.0558 339.03ZM88.5305 332.078L94.1177 334.759C96.4713 335.892 98.6843 336.028 100.866 335.162C105.143 333.464 108.469 328.156 110.086 324.83L86.4855 313.493C84.7578 317.98 81.5348 328.708 88.5325 332.073L88.5305 332.078Z" fill="#3A1919"/>
<path d="M160.582 250.652C153.704 245.023 152.574 238.164 153.271 235.3C154.273 231.175 158.647 227.894 164.41 226.94C164.927 226.855 165.492 226.796 166.094 226.764C169.92 226.554 174.944 227.427 180.27 228.354C186.764 229.483 197.85 229.349 196.436 245.296C194.179 270.766 169.459 257.929 160.585 250.659L160.582 250.652Z" fill="#FFE14D"/>
<path d="M186.755 254.723C179.577 254.606 171.908 252.14 163.033 244.871C157.755 240.548 155.657 236.012 155.375 232.603C153.883 233.936 153.693 233.542 153.268 235.293C152.571 238.156 153.703 245.011 160.579 250.645C169.453 257.914 177.125 260.375 184.3 260.497C199.899 260.754 215.998 265.952 216.637 251.764C210.403 257.152 195.592 254.865 186.757 254.718L186.755 254.723Z" fill="#EA911B"/>
<path d="M172.573 260.108C167.824 258.143 163.097 255.513 159.207 252.327C151.671 246.156 150.266 238.456 151.16 234.79C152.368 229.824 157.424 225.906 164.047 224.804C164.651 224.708 165.293 224.634 165.965 224.602C170.039 224.378 175.184 225.271 180.63 226.218C181.607 226.388 182.74 226.476 183.942 226.57C190.246 227.064 199.777 227.804 200.898 242.996C201.796 255.16 201.281 260.313 198.927 262.69C197.158 264.477 194.887 264.34 192.691 264.204C191.894 264.156 191.073 264.109 190.21 264.132C185.749 264.272 179.142 262.832 172.571 260.113L172.573 260.108ZM190.502 232.114C188.449 231.265 186.057 231.077 183.614 230.886C182.309 230.786 181.073 230.69 179.899 230.485C174.699 229.581 169.796 228.729 166.217 228.924C165.7 228.95 165.213 229.006 164.765 229.079C159.94 229.882 156.168 232.592 155.383 235.823C154.865 237.94 155.799 243.939 161.96 248.984C170.194 255.726 183.139 260.022 190.068 259.803C191.129 259.767 192.097 259.828 192.946 259.881C194.494 259.976 195.465 260.015 195.832 259.64C197.027 258.43 197.274 252.931 196.568 243.301C196.053 236.333 193.68 233.429 190.502 232.114Z" fill="#3A1919"/>
<path d="M225.647 259.67C212.463 266.552 177.093 259.629 177.093 259.629L179.427 226.031C179.427 226.031 206.344 231.3 210.61 227.869C215.807 223.693 214.357 216.626 220.152 214.372C251.463 202.192 245.337 232.85 248.48 236.635C248.48 236.635 238.154 253.147 225.65 259.677L225.647 259.67Z" fill="#A31E36"/>
<path d="M171.055 260.95C170.653 260.784 170.306 260.5 170.065 260.13C169.736 259.631 169.631 259.019 169.771 258.439L178.193 223.399C178.465 222.258 179.601 221.545 180.751 221.793C180.941 221.83 199.978 225.813 209.907 224.14C211.441 223.843 215.649 217.922 218.742 211.715C219.272 210.646 220.572 210.205 221.653 210.746C222.726 211.278 223.169 212.581 222.632 213.653C220.548 217.835 215.213 227.642 210.637 228.414C201.826 229.899 187.318 227.463 181.927 226.439L174.535 257.2C183.397 258.618 215.658 263.193 226.86 256.698C234.149 252.468 246.595 235.521 246.724 235.352C247.43 234.385 248.786 234.178 249.757 234.885C250.729 235.592 250.939 236.944 250.233 237.912C249.702 238.641 237.123 255.767 229.048 260.445C214.705 268.763 173.256 261.398 171.5 261.082C171.347 261.053 171.195 261.008 171.055 260.95Z" fill="#3A1919"/>
<path d="M204.452 225.694L171.213 222.522L167.478 262.526L200.717 265.698L204.452 225.694Z" fill="#A31E36"/>
<path d="M193.65 224.662L182.015 223.552L178.28 263.556L189.915 264.666L193.65 224.662Z" fill="#FFEC64"/>
<path d="M166.642 264.537C166.316 264.402 166.028 264.189 165.799 263.918C165.43 263.473 165.255 262.902 165.308 262.333L169.047 222.327C169.158 221.136 170.219 220.263 171.413 220.376L204.655 223.548C205.226 223.602 205.757 223.881 206.126 224.326C206.494 224.772 206.669 225.342 206.616 225.912L202.877 265.918C202.824 266.487 202.546 267.017 202.1 267.383C201.654 267.749 201.083 267.923 200.512 267.868L167.27 264.697C167.054 264.678 166.841 264.625 166.64 264.542L166.642 264.537ZM173.17 224.894L169.835 260.586L198.751 263.343L202.086 227.652L173.17 224.894Z" fill="#3A1919"/>
<path fill-rule="evenodd" clip-rule="evenodd" d="M252.202 220.184C252.243 218.807 251.573 217.569 250.531 216.821C251.615 216.133 252.348 214.943 252.389 213.566C252.45 211.359 250.712 209.52 248.501 209.449C248.501 209.449 246.48 208.964 244.45 211.112L233.844 208.169L231.968 208.114L221.214 210.4C219.308 208.129 217.264 208.496 217.264 208.496C215.051 208.429 213.212 210.158 213.147 212.363C213.106 213.741 213.775 214.978 214.818 215.726C213.734 216.414 213 217.604 212.959 218.982C212.918 220.359 213.588 221.597 214.631 222.345C213.546 223.033 212.813 224.223 212.772 225.6C212.731 226.978 213.4 228.216 214.443 228.964C213.359 229.651 212.625 230.842 212.584 232.219C212.522 234.372 214.19 236.182 216.33 236.323C216.273 236.575 216.236 236.835 216.231 237.103C216.17 239.31 217.909 241.148 220.119 241.219C220.827 241.242 221.501 241.076 222.087 240.768C222.083 240.807 222.078 240.846 222.079 240.888C222.018 243.095 223.756 244.933 225.967 245.004C226.809 245.03 227.597 244.788 228.253 244.368C228.756 245.426 229.714 246.221 230.878 246.521C231.012 246.553 231.145 246.585 231.283 246.607C231.436 246.635 231.588 246.651 231.752 246.654C231.752 246.654 231.793 246.654 231.812 246.65C231.834 246.653 231.851 246.654 231.874 246.658C232.03 246.664 232.187 246.653 232.34 246.64C232.48 246.628 232.612 246.606 232.747 246.58C233.928 246.354 234.928 245.614 235.491 244.593C236.124 245.054 236.892 245.343 237.734 245.369C239.947 245.435 241.785 243.706 241.851 241.501C241.85 241.46 241.85 241.419 241.849 241.378C242.419 241.719 243.08 241.928 243.789 241.946C246.002 242.013 247.841 240.284 247.906 238.079C247.911 237.811 247.895 237.553 247.849 237.294C249.993 237.285 251.761 235.585 251.818 233.429C251.859 232.052 251.189 230.814 250.147 230.066C251.231 229.378 251.965 228.188 252.005 226.811C252.046 225.433 251.377 224.195 250.334 223.448C251.418 222.76 252.152 221.569 252.193 220.192L252.202 220.184Z" fill="#791628"/>
<path d="M224.343 245.205C223.756 244.962 223.225 244.596 222.775 244.122C222.1 243.409 221.684 242.523 221.569 241.567C221.097 241.712 220.6 241.776 220.105 241.764C218.893 241.725 217.761 241.221 216.927 240.337C216.093 239.453 215.652 238.304 215.69 237.089C215.69 236.99 215.7 236.894 215.707 236.792C213.549 236.367 211.981 234.459 212.041 232.211C212.078 230.943 212.64 229.77 213.575 228.944C212.686 228.066 212.194 226.855 212.23 225.587C212.267 224.319 212.829 223.146 213.765 222.32C212.876 221.443 212.383 220.231 212.42 218.964C212.457 217.696 213.019 216.522 213.954 215.697C213.065 214.819 212.573 213.608 212.607 212.345C212.677 209.861 214.747 207.899 217.231 207.949C217.615 207.903 219.56 207.777 221.414 209.803L231.854 207.58C231.899 207.57 231.94 207.569 231.982 207.569L233.858 207.624C233.899 207.624 233.944 207.631 233.986 207.642L244.281 210.497C246.246 208.592 248.181 208.83 248.562 208.906C249.758 208.956 250.866 209.461 251.689 210.329C252.522 211.213 252.964 212.362 252.926 213.577C252.889 214.844 252.327 216.018 251.392 216.843C252.281 217.721 252.773 218.932 252.738 220.195C252.702 221.463 252.14 222.636 251.204 223.462C252.093 224.34 252.586 225.551 252.549 226.819C252.512 228.087 251.95 229.26 251.015 230.086C251.904 230.963 252.396 232.175 252.359 233.442C252.297 235.696 250.62 237.503 248.443 237.791C248.448 237.893 248.448 237.992 248.443 238.09C248.407 239.299 247.905 240.427 247.021 241.257C246.137 242.086 244.985 242.523 243.768 242.482C243.273 242.471 242.779 242.372 242.316 242.198C242.148 243.142 241.678 244.008 240.967 244.674C240.083 245.503 238.932 245.941 237.714 245.9C236.987 245.88 236.284 245.677 235.652 245.328C234.984 246.246 233.988 246.877 232.85 247.097C232.697 247.127 232.54 247.15 232.383 247.161C232.216 247.18 232.036 247.188 231.851 247.182C231.841 247.177 231.812 247.177 231.787 247.179C231.763 247.18 231.739 247.182 231.717 247.179C231.536 247.174 231.362 247.155 231.182 247.121C231.032 247.1 230.881 247.067 230.732 247.029C230.727 247.027 230.722 247.025 230.717 247.023C229.603 246.732 228.649 246.038 228.032 245.086C227.378 245.401 226.669 245.552 225.939 245.526C225.376 245.509 224.836 245.392 224.329 245.182L224.343 245.205ZM222.294 240.268C222.324 240.28 222.355 240.293 222.381 240.315C222.547 240.425 222.641 240.61 222.625 240.803C222.625 240.803 222.62 240.86 222.623 240.867C222.595 241.828 222.927 242.703 223.565 243.377C224.198 244.05 225.056 244.434 225.986 244.461C226.683 244.481 227.366 244.294 227.961 243.908C228.091 243.821 228.253 243.8 228.406 243.84C228.56 243.881 228.68 243.989 228.751 244.129C229.191 245.056 230.027 245.735 231.022 245.989L231.037 245.995C231.148 246.024 231.262 246.047 231.373 246.064C231.511 246.086 231.641 246.099 231.773 246.106C231.773 246.106 231.804 246.102 231.838 246.104C231.855 246.105 231.907 246.109 231.924 246.11C232.034 246.115 232.167 246.105 232.295 246.094C232.423 246.083 232.543 246.062 232.659 246.039C233.674 245.845 234.539 245.218 235.029 244.32C235.104 244.181 235.236 244.089 235.386 244.052C235.54 244.022 235.698 244.052 235.824 244.145C236.392 244.562 237.064 244.799 237.762 244.818C238.684 244.848 239.563 244.515 240.238 243.88C240.912 243.245 241.293 242.395 241.323 241.47L241.322 241.359C241.325 241.167 241.429 240.987 241.597 240.893C241.766 240.798 241.97 240.801 242.141 240.901C242.65 241.205 243.227 241.374 243.812 241.393C244.735 241.424 245.614 241.09 246.288 240.455C246.962 239.821 247.343 238.971 247.373 238.046C247.379 237.819 247.362 237.59 247.324 237.369C247.296 237.211 247.343 237.055 247.441 236.931C247.544 236.81 247.692 236.736 247.855 236.74C249.729 236.73 251.236 235.262 251.29 233.398C251.323 232.252 250.781 231.161 249.842 230.491C249.698 230.384 249.61 230.213 249.614 230.033C249.618 229.853 249.715 229.688 249.866 229.593C250.839 228.976 251.439 227.924 251.472 226.777C251.506 225.631 250.964 224.54 250.024 223.87C249.88 223.763 249.792 223.592 249.796 223.412C249.8 223.232 249.897 223.068 250.049 222.972C251.021 222.355 251.626 221.305 251.655 220.157C251.688 219.011 251.146 217.919 250.206 217.249C250.062 217.143 249.974 216.972 249.978 216.792C249.982 216.612 250.08 216.447 250.231 216.351C251.204 215.735 251.809 214.684 251.837 213.536C251.865 212.616 251.528 211.739 250.89 211.065C250.257 210.392 249.399 210.008 248.472 209.976C248.437 209.973 248.398 209.969 248.361 209.959C248.297 209.944 246.601 209.594 244.832 211.469C244.694 211.617 244.489 211.673 244.293 211.621L233.751 208.693L232.004 208.638L221.315 210.911C221.121 210.953 220.914 210.885 220.785 210.727C219.127 208.752 217.415 208.998 217.34 209.008C217.309 209.012 217.265 209.018 217.231 209.015C215.321 208.957 213.728 210.46 213.672 212.358C213.639 213.504 214.181 214.596 215.12 215.266C215.264 215.372 215.352 215.543 215.348 215.723C215.344 215.903 215.247 216.068 215.096 216.163C214.123 216.78 213.518 217.83 213.49 218.979C213.456 220.125 213.998 221.216 214.938 221.886C215.082 221.993 215.17 222.164 215.166 222.344C215.162 222.524 215.065 222.689 214.913 222.784C213.941 223.401 213.336 224.451 213.307 225.599C213.274 226.745 213.816 227.837 214.756 228.507C214.9 228.613 214.988 228.785 214.984 228.965C214.98 229.145 214.882 229.309 214.731 229.405C213.758 230.022 213.153 231.072 213.125 232.22C213.071 234.084 214.494 235.646 216.362 235.763C216.522 235.776 216.666 235.853 216.76 235.98C216.855 236.107 216.889 236.267 216.854 236.423C216.802 236.647 216.772 236.875 216.769 237.097C216.741 238.017 217.077 238.894 217.716 239.568C218.354 240.242 219.207 240.625 220.134 240.657C220.722 240.672 221.311 240.541 221.837 240.266C221.98 240.19 222.147 240.184 222.298 240.246L222.294 240.268Z" fill="#791628"/>
<path d="M254.683 217.925C254.724 216.547 254.062 215.306 253.019 214.558C254.106 213.878 254.842 212.683 254.888 211.307C254.954 209.102 253.218 207.259 251.009 207.183C251.009 207.183 248.985 206.691 246.95 208.836L236.354 205.869L234.475 205.806L223.72 208.069C221.821 205.795 219.773 206.154 219.773 206.154C217.563 206.083 215.719 207.81 215.648 210.012C215.607 211.39 216.27 212.631 217.312 213.378C216.225 214.059 215.49 215.254 215.444 216.63C215.398 218.005 216.065 219.248 217.108 219.996C216.021 220.676 215.285 221.872 215.239 223.247C215.198 224.624 215.861 225.865 216.903 226.613C215.816 227.294 215.081 228.489 215.035 229.864C214.97 232.023 216.628 233.828 218.771 233.977C218.714 234.229 218.677 234.489 218.672 234.756C218.607 236.961 220.343 238.804 222.551 238.88C223.259 238.904 223.933 238.738 224.522 238.437C224.518 238.476 224.513 238.515 224.514 238.556C224.448 240.761 226.184 242.604 228.393 242.68C229.234 242.707 230.02 242.47 230.678 242.045C231.181 243.102 232.138 243.902 233.301 244.202C233.435 244.234 233.569 244.266 233.707 244.288C233.86 244.316 234.012 244.332 234.175 244.336C234.175 244.336 234.217 244.335 234.236 244.331C234.258 244.335 234.275 244.336 234.297 244.339C234.453 244.345 234.611 244.334 234.763 244.321C234.904 244.309 235.036 244.287 235.175 244.263C236.357 244.037 237.36 243.304 237.923 242.284C238.553 242.75 239.322 243.038 240.169 243.066C242.379 243.138 244.223 241.411 244.294 239.208C244.293 239.167 244.292 239.126 244.292 239.084C244.862 239.426 245.522 239.635 246.23 239.658C248.441 239.729 250.284 238.002 250.355 235.8C250.365 235.534 250.345 235.269 250.303 235.017C252.45 235.015 254.217 233.315 254.287 231.158C254.327 229.781 253.665 228.54 252.622 227.792C253.709 227.112 254.445 225.916 254.491 224.541C254.537 223.166 253.87 221.923 252.827 221.175C253.914 220.494 254.65 219.299 254.696 217.924L254.683 217.925Z" fill="#FFE14D"/>
<path d="M222.753 211.781C223.095 211.495 223.143 210.982 222.85 210.638C222.562 210.296 222.047 210.247 221.704 210.539C221.687 210.549 220.206 211.77 218.405 211.903C216.719 212.026 215.861 211.343 215.83 211.318C216.091 212.152 216.614 212.878 217.312 213.378C217.263 213.411 217.213 213.449 217.164 213.481C217.567 213.531 218.021 213.555 218.525 213.517C220.845 213.352 222.675 211.843 222.748 211.779L222.753 211.781Z" fill="#C6B44B"/>
<path d="M222.697 218.466C223.028 218.164 223.052 217.652 222.753 217.323C222.449 216.992 221.938 216.962 221.602 217.263C221.591 217.276 220.228 218.481 218.451 218.654C216.773 218.815 215.895 218.152 215.867 218.135C215.802 218.079 215.729 218.043 215.654 218.011C215.919 218.818 216.437 219.513 217.111 220.003C217.013 220.068 216.921 220.135 216.826 220.207C217.329 220.298 217.924 220.339 218.61 220.272C220.931 220.049 222.622 218.534 222.695 218.471L222.697 218.466Z" fill="#C6B44B"/>
<path d="M222.618 224.965C222.949 224.663 222.971 224.156 222.674 223.823C222.377 223.489 221.859 223.462 221.525 223.757C221.514 223.77 220.35 224.777 218.325 224.981C216.631 225.153 215.741 224.521 215.71 224.497C215.602 224.417 215.486 224.369 215.36 224.346C215.589 225.243 216.118 226.025 216.844 226.571C217.317 226.638 217.866 226.66 218.492 226.597C221.075 226.336 222.554 225.021 222.613 224.963L222.618 224.965Z" fill="#C6B44B"/>
<path d="M251.695 212.997C250.006 212.761 249.25 211.986 249.211 211.94C248.912 211.611 248.403 211.576 248.069 211.872C247.73 212.165 247.699 212.679 247.999 213.02C248.079 213.112 248.612 213.684 249.701 214.135C250.183 214.334 250.775 214.509 251.481 214.608C252.076 214.69 252.634 214.692 253.135 214.648C253.099 214.621 253.065 214.589 253.024 214.561C253.738 214.113 254.291 213.445 254.608 212.65C254.151 212.831 253.045 213.187 251.698 213.005L251.695 212.997Z" fill="#C6B44B"/>
<path d="M248.87 218.319C248.58 217.982 248.068 217.94 247.728 218.222C247.384 218.513 247.339 219.021 247.631 219.365C247.709 219.461 248.276 220.095 249.451 220.581C249.903 220.768 250.44 220.932 251.074 221.035C251.697 221.135 252.291 221.176 252.83 221.182C252.83 221.182 252.825 221.18 252.82 221.178C253.471 220.768 253.993 220.176 254.319 219.473C253.687 219.551 252.564 219.637 251.337 219.434C249.651 219.158 248.917 218.362 248.877 218.316L248.87 218.319Z" fill="#C6B44B"/>
<path d="M248.671 224.511C248.381 224.174 247.874 224.134 247.527 224.419C247.185 224.705 247.137 225.218 247.43 225.562C247.51 225.653 248.15 226.381 249.716 227.029C249.957 227.129 250.222 227.227 250.511 227.323C251.252 227.565 251.999 227.693 252.664 227.763C253.259 227.376 253.735 226.836 254.057 226.201C253.329 226.211 252.144 226.148 251.015 225.78C249.354 225.233 248.697 224.546 248.668 224.516L248.671 224.511Z" fill="#C6B44B"/>
<path d="M222.952 231.091C223.205 230.721 223.113 230.22 222.748 229.964C222.384 229.708 221.872 229.795 221.614 230.162C221.608 230.177 220.609 231.568 218.959 232.145C217.387 232.69 216.331 232.258 216.268 232.239C216.089 232.147 215.891 232.141 215.71 232.195C216.328 233.118 217.313 233.778 218.472 233.947C218.796 233.888 219.141 233.808 219.499 233.681C221.664 232.925 222.899 231.163 222.952 231.091Z" fill="#C6B44B"/>
<path d="M226.936 234.948C226.955 234.505 226.616 234.13 226.166 234.108C225.719 234.081 225.337 234.421 225.306 234.865C225.302 234.904 225.224 235.874 224.16 236.869C223.06 237.907 221.078 238.007 221.061 238.006C220.845 238.016 220.661 238.104 220.521 238.245C221.111 238.624 221.807 238.86 222.561 238.885C223.269 238.908 223.943 238.742 224.532 238.441C224.528 238.48 224.523 238.519 224.524 238.56C224.521 238.582 224.524 238.602 224.526 238.626C224.794 238.461 225.053 238.276 225.288 238.05C226.828 236.602 226.933 235.111 226.943 234.945L226.936 234.948Z" fill="#C6B44B"/>
<path d="M242.243 235.852C241.852 235.632 241.38 235.765 241.154 236.14C240.928 236.515 241.047 237.009 241.417 237.251C241.422 237.253 242.062 237.681 242.61 239.056C243.156 240.437 242.986 241.643 242.878 242.132C243.715 241.43 244.263 240.391 244.298 239.21C244.298 239.169 244.297 239.128 244.297 239.087C244.317 239.095 244.332 239.101 244.352 239.11C244.288 238.895 244.22 238.674 244.131 238.45C243.365 236.522 242.361 235.907 242.247 235.842L242.243 235.852Z" fill="#C6B44B"/>
<path d="M247.742 233.617C247.395 233.333 247.336 232.822 247.622 232.472C247.906 232.127 248.418 232.069 248.765 232.353C248.765 232.353 248.791 232.376 248.832 232.404C247.75 231.552 246.832 231.383 246.706 231.361C246.265 231.29 245.859 231.59 245.783 232.027C245.708 232.465 246.006 232.881 246.448 232.965C246.492 232.971 247.552 233.181 248.654 234.481C249.731 235.758 249.681 236.845 249.679 236.879C249.655 237.121 249.751 237.343 249.907 237.507C250.174 236.99 250.336 236.413 250.355 235.8C250.365 235.534 250.345 235.269 250.302 235.017C250.402 235.017 250.506 235.007 250.603 235.001C250.242 234.921 249.898 234.814 249.582 234.683C248.543 234.253 247.793 233.65 247.744 233.612L247.742 233.617Z" fill="#C6B44B"/>
<path d="M251.462 233.493C250.308 233.455 249.128 232.627 248.837 232.407C249.183 232.679 249.543 233.015 249.903 233.44C250.356 233.979 250.664 234.499 250.874 234.972C252.163 234.785 253.251 233.987 253.835 232.876C253.548 233.056 252.677 233.527 251.464 233.488L251.462 233.493Z" fill="#C6B44B"/>
<path d="M248.83 232.409C248.789 232.381 248.768 232.36 248.763 232.358C248.414 232.079 247.899 232.13 247.62 232.477C247.336 232.822 247.393 233.338 247.74 233.622C247.789 233.66 248.539 234.263 249.578 234.693C249.894 234.824 250.243 234.933 250.599 235.01C250.691 235.002 250.778 234.991 250.87 234.982C250.66 234.508 250.352 233.988 249.899 233.449C249.539 233.025 249.179 232.689 248.833 232.416L248.83 232.409Z" fill="#C6B44B"/>
<path d="M232.129 237.56C232.005 237.134 231.559 236.891 231.134 237.008C230.704 237.123 230.45 237.568 230.564 238.002C230.572 238.041 230.805 238.969 230.141 240.276C229.44 241.656 227.782 242.522 227.768 242.528C227.73 242.547 227.698 242.569 227.663 242.596C227.901 242.647 228.145 242.684 228.396 242.688C229.237 242.714 230.023 242.477 230.681 242.052C230.707 242.104 230.74 242.152 230.765 242.204C231.076 241.852 231.368 241.458 231.594 241.012C232.548 239.134 232.174 237.72 232.129 237.56Z" fill="#C6B44B"/>
<path d="M236.825 237.664C236.564 237.298 236.059 237.212 235.693 237.471C235.327 237.729 235.237 238.231 235.496 238.602C235.504 238.611 236.106 239.499 236.338 241.083C236.524 242.355 236.107 243.617 235.941 244.047C236.783 243.704 237.49 243.089 237.931 242.293C237.949 242.306 237.969 242.314 237.992 242.33C238.031 241.866 238.027 241.366 237.955 240.856C237.666 238.855 236.867 237.717 236.83 237.666L236.825 237.664Z" fill="#C6B44B"/>
<path d="M232.714 237.041C227.151 236.859 222.761 232.195 222.931 226.641L223.483 208.556C223.483 208.556 226.839 206.5 235.447 206.782C244.056 207.064 247.277 209.341 247.277 209.341L246.724 227.425C246.556 232.974 241.892 237.341 236.323 237.157L232.709 237.039L232.714 237.041Z" fill="#A31E36"/>
<path d="M228.557 237.781C227.036 237.151 225.654 236.199 224.489 234.967C222.341 232.683 221.209 229.707 221.305 226.59L221.858 208.505C221.872 207.96 222.166 207.461 222.632 207.174C223.019 206.935 226.656 204.867 235.502 205.159C244.347 205.451 247.852 207.751 248.224 208.017C248.671 208.33 248.932 208.849 248.911 209.397L248.359 227.481C248.161 233.926 242.747 238.996 236.278 238.785L232.665 238.667C231.232 238.619 229.845 238.32 228.555 237.786L228.557 237.781ZM225.084 209.618L224.56 226.695C224.493 228.946 225.309 231.094 226.861 232.744C228.412 234.393 230.512 235.344 232.769 235.417L236.382 235.536C241.053 235.688 244.961 232.027 245.106 227.371L245.63 210.294C244.318 209.698 241.136 208.592 235.405 208.405C229.685 208.218 226.442 209.107 225.089 209.62L225.084 209.618Z" fill="#C6B44B"/>
<path d="M164.473 222.297C164.424 221.989 164.251 221.725 164 221.55C163.744 221.374 163.432 221.304 163.123 221.369L158.568 222.273C157.971 222.394 157.574 222.957 157.661 223.555C158.054 226.143 159.549 239.451 150.55 247.713C150.087 248.136 150.05 248.836 150.459 249.298L153.517 252.79C153.594 252.874 153.68 252.951 153.779 253.01C153.938 253.11 154.124 253.17 154.32 253.181C154.63 253.198 154.925 253.097 155.153 252.887C167.028 242.107 165.007 225.511 164.48 222.294L164.473 222.297Z" fill="#4F2F2F"/>
</g>
</svg>
