<svg width="68" height="12" viewBox="0 0 68 12" fill="none" xmlns="http://www.w3.org/2000/svg">
<path d="M12 6.00006C12 9.31377 9.31371 12.0001 6 12.0001C2.68629 12.0001 0 9.31377 0 6.00006C0 2.68635 2.68629 6.10352e-05 6 6.10352e-05C9.31371 6.10352e-05 12 2.68635 12 6.00006Z" fill="#F5B444"/>
<path d="M40 6.00006C40 9.31377 37.3137 12.0001 34 12.0001C30.6863 12.0001 28 9.31377 28 6.00006C28 2.68635 30.6863 6.10352e-05 34 6.10352e-05C37.3137 6.10352e-05 40 2.68635 40 6.00006Z" fill="#F5B444"/>
<path d="M68 6.00006C68 9.31377 65.3137 12.0001 62 12.0001C58.6863 12.0001 56 9.31377 56 6.00006C56 2.68635 58.6863 6.10352e-05 62 6.10352e-05C65.3137 6.10352e-05 68 2.68635 68 6.00006Z" fill="#F5B444"/>
</svg>
