<svg width="115" height="127" fill="none" xmlns="http://www.w3.org/2000/svg"><path fill-rule="evenodd" clip-rule="evenodd" d="M112.134 6.954c-.711-.177-1.872-.262-6.538-.262-1.507 0-3.22.009-5.04.018-2.056.01-4.25.02-6.44.02-3.522 0-8.453-.025-11.962-.226C76.534 2.42 70.06.24 62.896.024 47.372-.452 33.626 6.257 26.184 17.79c-2.515 2.392-7.248 5.05-8.528 5.335-2.145.476-3.535 2.355-3.303 4.465.167 1.521 1.25 3.23 3.663 4.026-.278.273-.544.56-.79.858-1.637 1.971-2.321 4.211-1.928 6.31.08.42.19.822.33 1.205a39.166 39.166 0 0 0-5.4 19.887c0 1.775.119 3.541.356 5.29a9.823 9.823 0 0 0-1.676-.145c-2.692 0-5.188 1.166-6.845 3.2C.233 70.47-.409 73.478.256 76.69c1.354 6.543 11.27 17.573 19.175 19.47a9.577 9.577 0 0 0 2.21.282c2.116 0 3.863-.892 4.921-2.51.336-.514.58-1.06.748-1.618a38.959 38.959 0 0 0 18.24 6.692c1.431 4.67 5.275 5.448 7.673 5.448 3.616 0 6.74-1.469 8.967-4.178a36.869 36.869 0 0 0 6.207-.435c-6.956 7.804-17.006 12.294-24.405 12.296h-.002c-3.12 0-7.31-.796-9.56-4.581-2.98-5.009-7.754-8.12-12.46-8.12-4.944 0-8.38 3.489-8.547 8.681-.091 2.811 1.382 5.868 4.26 8.839 4.843 5 14.234 10.045 24.298 10.045 2.224 0 4.404-.249 6.478-.74 17.835-4.223 33.815-18.497 38.463-34.198 17.024-13 15.674-48.742 10.033-64.678a53.578 53.578 0 0 0-1.268-3.248c.686.08 1.365.12 2.033.12 1.56 0 3.079-.22 4.516-.65 8.849-2.654 12.846-9.22 12.763-12.823-.044-1.902-1.169-3.404-2.865-3.829Z" fill="#261818"/></svg>