<svg width="110" height="169" fill="none" xmlns="http://www.w3.org/2000/svg"><g clip-path="url(#a)"><path d="M40.929 95.287s-7.5 3.778-10.893 4.01c-5.515.38-16.888-9.933-16.888-9.933l6.957-10.741s8.638 5.152 11.15 6.246c1.4.61 10.783-5.76 14.695 1.927 2.518 4.948-5.021 8.491-5.021 8.491Z" fill="#791628"/><path d="M29.752 100.199c-5.914 0-16.738-9.75-17.205-10.174a.893.893 0 0 1-.15-1.148l6.958-10.74a.894.894 0 0 1 1.208-.282c.084.051 8.452 5.037 10.975 6.162.304-.014 1.17-.313 1.873-.554 3.524-1.212 10.08-3.47 13.336 2.927.688 1.35.797 2.733.326 4.106-1.148 3.349-5.439 5.443-5.754 5.593-.43.216-7.72 3.858-11.223 4.099a4.317 4.317 0 0 1-.344.011ZM14.313 89.206c3.497 3.067 11.686 9.475 15.662 9.2 3.175-.219 10.48-3.88 10.554-3.916.007-.004.013-.006.02-.011.038-.018 3.919-1.878 4.838-4.564.31-.91.237-1.797-.23-2.714-2.353-4.624-6.805-3.548-11.163-2.048-1.556.536-2.413.83-3.094.534-2.126-.924-8.348-4.58-10.511-5.859l-6.076 9.377Z" fill="#3A1919"/><path d="M4.9 85.45c2.235 3.744 3.995 3.246 7.248 5.026 3.715 2.034 5.854 1.906 7.501-.355 1.324-1.822 2.63-4.236 3.093-8.824.259-1.033-4.763-4.032-8.335-5.932-2.482-1.32-4.572-1.388-6.146-.694-3.42 1.634-5.211 6.669-3.358 10.78H4.9Z" fill="#FFE14D"/><path d="M6.446 87.317c1.806 2.487 3.378 1.795 5.702 3.159 2.654 1.558 4.608 2.23 5.521.976 1.56-.815 2.396-1.927 3.655-4.776.087-.614-6.812-3.309-9.36-4.773-1.77-1.019-3.172-1.233-4.168-.938-2.152.721-2.931 3.668-1.35 6.352Z" fill="#EA911B"/><path d="M16.459 92.818c-1.57 0-3.208-.721-4.74-1.558-.906-.496-1.681-.802-2.431-1.099-1.835-.723-3.42-1.349-5.155-4.253a.703.703 0 0 1-.047-.092c-2.003-4.445-.233-10.029 3.788-11.951l.025-.011c1.389-.612 3.717-.983 6.926.723 8.984 4.778 8.955 6.198 8.796 6.872-.498 4.85-1.922 7.37-3.25 9.197-1.16 1.591-2.508 2.172-3.912 2.172Zm-10.764-7.78c1.41 2.341 2.541 2.788 4.251 3.462.764.301 1.628.643 2.633 1.192 3.74 2.048 5.202 1.48 6.35-.098 1.187-1.632 2.46-3.894 2.915-8.308-.428-.698-3.255-2.686-7.857-5.133-2.031-1.08-3.882-1.312-5.353-.672-3.104 1.494-4.495 6.033-2.939 9.556Z" fill="#3A1919"/><path d="m27.37 81.008-9.532-6.138-9.829 15.262 9.532 6.139 9.829-15.263Z" fill="#A31E36"/><path d="m17.834 74.87-2.978 4.623a4.625 4.625 0 0 0 1.078 2.747c1.775 2.136 4.879 4.172 7.114 5.474l4.32-6.707-9.531-6.137h-.003Z" fill="#791628"/><path d="m24.272 79.013-3.335-2.148-9.829 15.263 3.336 2.148 9.828-15.263Z" fill="#FFEC64"/><path d="m20.933 76.866-4.09 6.35-5.74 8.912 3.335 2.148 5.502-8.542 4.329-6.72-3.336-2.148Z" fill="#FFEC64"/><path d="m20.933 76.866-4.09 6.352c.91.893 1.998 1.748 3.097 2.518l4.329-6.723-3.336-2.147Z" fill="#DDC84B"/><path d="M17.535 97.165a.901.901 0 0 1-.484-.143l-9.532-6.138a.894.894 0 0 1-.267-1.234l9.83-15.263a.893.893 0 0 1 1.235-.265l9.53 6.137a.893.893 0 0 1 .266 1.235l-9.83 15.262a.893.893 0 0 1-.752.409h.004ZM9.24 89.866l8.028 5.171 8.864-13.762-8.029-5.17L9.24 89.865Z" fill="#3A1919"/><path d="m30.978 66.14-2.693 2.909c-4.168 2.898-9.004 5.46-11.248 5.96a2.09 2.09 0 0 0-.904.427 1.688 1.688 0 0 0-.567 1.695c.07.286.214.547.417.759.242.268.478.471.762.663 2.174 1.467 6.575 1.51 12.32-.024l1.529-.409c-.99-3.552-2.28-7.357.386-11.98h-.002Z" fill="#FF9739"/><path d="m30.2 66.515-2.692 2.91c-2.02 1.403-4.255 2.792-6.22 3.844.393 4.34-1.802 6.31-1.802 6.31 1.916-.083 6.301-.01 8.797-.677l1.53-.409c-.99-3.552-2.28-7.356.386-11.98l.002.002Z" fill="#E26917"/><path d="M21.585 80.56c-2.273 0-4.092-.422-5.345-1.266a4.953 4.953 0 0 1-.917-.797 2.55 2.55 0 0 1-.628-1.152 2.594 2.594 0 0 1 .864-2.596c.353-.295.784-.5 1.282-.61 2.096-.466 6.85-2.994 10.853-5.767l2.628-2.837a.893.893 0 0 1 1.429 1.054c-2.34 4.054-1.385 7.448-.458 10.732l.158.562a.891.891 0 0 1-.63 1.103l-1.529.409c-2.92.78-5.521 1.17-7.705 1.17l-.002-.005Zm7.073-10.685c-4.287 2.965-9.076 5.483-11.43 6.006-.215.047-.394.13-.528.24a.8.8 0 0 0-.272.798c.033.132.1.254.194.355l.018.02c.187.21.368.366.598.522 1.958 1.322 6.29 1.266 11.588-.15l.656-.176c-.647-2.304-1.3-4.81-.826-7.615h.002Z" fill="#3A1919"/><path d="M82.275 134.827a39.75 39.75 0 0 1-8.259 4.383l-.17.31c-5.978 10.94-18.957 19.35-30.187 19.562-5.597.101-9.935-2.002-12.25-5.898-3.072-5.164-7.877-7.042-11.036-6.229-2.311.596-3.686 2.543-3.778 5.342-.078 2.416 1.84 5.403 5.258 8.199 4.664 3.813 12.014 7.026 19.495 7.026 1.851 0 3.713-.197 5.542-.63 15.526-3.677 29.743-15.782 34.572-29.439l.84-2.648-.03.02.003.002Z" fill="#FF9739"/><path d="M80.513 135.975c-5.559 12.659-19.01 23.588-33.623 27.048a24.04 24.04 0 0 1-5.541.63c-7.482 0-14.832-3.213-19.496-7.026-2.56-2.094-4.278-4.296-4.948-6.283a7.402 7.402 0 0 0-.31 1.956c-.078 2.416 1.84 5.403 5.258 8.198 4.664 3.813 12.014 7.026 19.495 7.026 1.851 0 3.713-.196 5.542-.629 15.526-3.678 29.74-15.783 34.572-29.44l.84-2.648-.03.02c-.589.407-1.176.788-1.759 1.148Z" fill="#E26917"/><path d="M41.349 168.417c-8.272 0-15.787-3.733-20.06-7.227-3.638-2.974-5.674-6.225-5.587-8.919.103-3.18 1.764-5.488 4.448-6.18 3.483-.893 8.734 1.098 12.027 6.637 2.15 3.619 6.213 5.557 11.467 5.464 10.933-.208 23.58-8.42 29.42-19.098l.169-.313a.892.892 0 0 1 .462-.404 39.204 39.204 0 0 0 8.107-4.309.894.894 0 0 1 1.353 1.009l-.84 2.648-.009.027c-4.927 13.927-19.406 26.269-35.209 30.011a25.033 25.033 0 0 1-5.746.654h-.002Zm-19.445-20.755c-.462 0-.902.054-1.31.159-1.925.496-3.028 2.096-3.106 4.508-.067 2.103 1.775 4.898 4.93 7.479 4.037 3.298 11.127 6.823 18.93 6.823 1.842 0 3.638-.203 5.337-.605 15.24-3.608 29.191-15.475 33.931-28.855l.083-.261a40.479 40.479 0 0 1-6.055 3.016l-.014.027c-6.12 11.199-19.428 19.808-30.953 20.027-.134.002-.27.004-.402.004-5.722 0-10.196-2.241-12.634-6.34-2.436-4.095-5.984-5.979-8.737-5.979v-.003Z" fill="#3A1919"/><path d="M82.15 138.254c4.992-3.451 11.237-11.239 12.706-28.754.909-10.82-.36-23.047-3.226-31.154-.837-2.365-1.806-4.63-2.97-6.718-4.619-8.294-9.705-11.617-9.71-11.619-.283-.217-.569-.429-.861-.636a29.367 29.367 0 0 0-1.206-.83h-.004c-4.642-2.972-9.87-4.566-15.544-4.738a49.058 49.058 0 0 0-1.402-.023c-13.51 0-27.47 5.731-32.907 16.028-4.322 8.185 1.58 10.483 2.056 11.027 2.392 2.14-4.936 25.892-4.936 25.892-3.827.445-10.31 3.157-11.14 9.339-.012.081.267 1.295.397 1.818.006.027.01.056.02.082l.114.449c-1.425-1.029-2.959-1.576-4.459-1.576-1.708 0-3.284.732-4.322 2.007-1.197 1.471-1.603 3.503-1.146 5.722 1.088 5.26 10.056 15.073 16.368 16.589.527.127 1.013.19 1.446.19 1.039 0 1.804-.364 2.276-1.083.823-1.259.564-3.329.167-4.74 14.041 13.298 37.352 9.542 37.352 9.542h.09c3.252 0 6.96-.303 12.556-2.404 5.595-2.103 8.287-4.403 8.287-4.403l-.002-.007Z" fill="#FFE14D"/><path d="M90.717 79.063c-.838-2.365-1.806-4.631-2.97-6.719-3.628-6.514-7.544-9.962-9.06-11.14a43.439 43.439 0 0 1 4.352 6.432c1.163 2.087 2.132 4.351 2.97 6.718 2.868 8.107 5.697 21.674 4.788 32.494-1.469 17.515-7.714 25.304-12.706 28.754 0 0-2.692 2.302-8.287 4.403-5.595 2.103-12.644 2.404-12.644 2.404s-24.874 2.414-38.915-10.882c.398 1.409.657 3.481-.167 4.74-.47.719-1.235 1.083-2.275 1.083-.434 0-.92-.065-1.447-.19-2.208-.529-4.74-2.076-7.147-4.088 3.416 4.066 8.105 7.897 11.856 8.797.526.127 1.013.19 1.446.19 1.038 0 1.804-.364 2.275-1.083.824-1.259.565-3.329.168-4.74 14.04 13.298 37.352 9.542 37.352 9.542h.09c3.252 0 6.96-.303 12.556-2.404 5.595-2.103 8.287-4.403 8.287-4.403 4.992-3.452 11.237-11.239 12.708-28.754.909-10.82-.36-23.048-3.228-31.154h-.002Z" fill="#EA911B"/><path d="M94.271 87.759c-1.235-3.066-2.797-6.024-4.778-8.623-25.476 5.243-44.47 10.712-44.47 10.712-7.718-.252-17.218-.7-17.218-.7 0 .365-.607 2.467-1.444 5.186-.076.321-.156.65-.237.987a262.994 262.994 0 0 1-3.117 11.496c-.214.035-.437.078-.667.127a2709.45 2709.45 0 0 1-.764 2.335c1.315 3.57 5.76 6.446 23.86 9 20.856 2.119 39.614.047 49.288-2.847.235-1.563.431-3.215.576-4.963.63-7.495.224-15.664-1.031-22.708l.002-.002ZM76.488 60.429s7.926 10.515-8.76 16.575L88.66 71.63s-2.054-6.647-12.174-11.201h.002Z" fill="#EA911B"/><path d="M53.673 147.341c-1.78 0-3.791-.074-5.95-.279-6.48-.618-15.417-2.592-22.592-8.359.029 1-.121 2.079-.686 2.94-.444.679-1.328 1.487-3.02 1.487-.503 0-1.061-.071-1.655-.214-6.702-1.61-15.874-11.67-17.033-17.276-.516-2.487-.044-4.785 1.326-6.468 1.21-1.485 3.037-2.335 5.017-2.335 1.036 0 2.09.23 3.117.676-.098-.498-.087-.596-.076-.674.893-6.653 7.49-9.395 11.333-10.025a261.456 261.456 0 0 0 3.117-11.496c2.81-11.529 2.013-13.199 1.89-13.37-.006-.008-.013-.012-.02-.019a5.913 5.913 0 0 0-.278-.172c-1.5-.9-6.064-3.639-1.927-11.473 3.302-6.254 9.718-10.128 14.52-12.275 6.011-2.688 13.002-4.231 19.175-4.231.473 0 .955.007 1.43.022 5.837.177 11.22 1.818 16 4.879l.016.008c.375.244.768.516 1.237.853.254.181.529.384.857.634.45.304 5.452 3.796 9.97 11.911 1.12 2.01 2.11 4.251 3.033 6.855 2.907 8.216 4.193 20.591 3.275 31.527-1.496 17.83-7.917 25.823-13.054 29.39-.364.302-3.128 2.503-8.515 4.53-5.76 2.166-9.59 2.463-12.87 2.463h-.02c-.515.078-3.422.491-7.613.491h-.004Zm-29.806-11.819c.223 0 .444.082.614.245 7.057 6.682 16.602 8.861 23.367 9.513 7.392.713 13.172-.194 13.23-.203.047-.006.103-.004.143-.011h.09c3.11 0 6.747-.283 12.239-2.349 5.354-2.011 7.997-4.226 8.022-4.248a.939.939 0 0 1 .071-.056c4.827-3.336 10.884-10.918 12.324-28.096.898-10.703-.35-22.786-3.179-30.781-.886-2.507-1.837-4.66-2.907-6.58-4.427-7.95-9.218-11.174-9.422-11.308a30.799 30.799 0 0 0-2.06-1.465c-.005 0-.007-.004-.011-.006-4.504-2.88-9.576-4.425-15.08-4.593-.457-.013-.92-.02-1.377-.02-11.75 0-26.977 5.816-32.117 15.553-3.346 6.338-.114 8.278 1.268 9.106.275.166.465.28.614.434.567.531 1.056 1.665.496 5.771-.313 2.302-.927 5.343-1.822 9.04-1.518 6.267-3.353 12.349-3.371 12.409a.894.894 0 0 1-.753.63c-3.732.435-9.537 3.043-10.341 8.452.056.291.245 1.123.364 1.601l.013.063c.04.165.078.31.116.455a.894.894 0 0 1-1.386.953c-1.275-.919-2.637-1.406-3.934-1.406-1.44 0-2.762.612-3.63 1.677-1.025 1.257-1.367 3.025-.963 4.978 1.018 4.926 9.773 14.479 15.702 15.901.458.11.876.165 1.237.165.972 0 1.335-.386 1.527-.678.612-.936.43-2.684.056-4.01a.894.894 0 0 1 .86-1.136Zm4.604-53.566h.002-.002Zm-.074-.076.029.031-.03-.03Z" fill="#3A1919"/><path d="M89.94 74.718C64.463 79.96 45.47 85.43 45.47 85.43a1417.94 1417.94 0 0 1-17.218-.701c0 1.172-6.23 20.799-6.23 20.799 1.316 3.57 5.761 5.776 23.861 8.33 24.45 2.483 46.02-.792 53.447-4.398 0 0 .467-21.8-9.39-34.742Z" fill="#A31E36"/><path d="M63.048 115.622a171.22 171.22 0 0 1-17.292-.88c-9.042-1.277-14.72-2.458-18.41-3.833-3.488-1.297-5.33-2.815-6.163-5.073a.884.884 0 0 1-.013-.578c2.333-7.354 6.07-19.415 6.186-20.554a.894.894 0 0 1 .936-.868c.094.004 9.466.446 17.066.697 1.766-.503 20.302-5.732 44.4-10.69.338-.07.684.06.892.332 5.206 6.834 7.53 16.078 8.564 22.626 1.114 7.066 1.014 12.451 1.009 12.677a.888.888 0 0 1-.502.783c-5.38 2.613-19.125 5.359-36.671 5.359l-.002.002Zm-17.058-2.65c24.553 2.492 45.117-.826 52.45-4.081-.016-3.405-.507-21.735-8.878-33.182-24.871 5.14-43.659 10.527-43.846 10.58a.829.829 0 0 1-.277.034c-6.381-.21-14.064-.556-16.473-.667-.855 3.54-4.608 15.454-5.999 19.837 1.275 2.924 5.584 5.016 23.02 7.479h.003ZM27.36 84.713v.016-.016Z" fill="#3A1919"/><path fill-rule="evenodd" clip-rule="evenodd" d="M81.384 99.79c-5.184 3.081-22.837 5.312-22.837 5.312l-.137 5.505s15.544-1.614 24.372-6.075c7.678-3.88 10.558-10.768 9.194-12.36-1.063-1.243-5.957 4.863-10.594 7.618h.002Z" fill="#791628"/><path d="m26.765 82.436.567 4.1a.447.447 0 0 0 .402.385l14.78 1.13s.007-.042.015-.12c.29-2.463-1.522-4.678-3.991-4.915l-11.286-1.082a.446.446 0 0 0-.485.502h-.002Z" fill="#2E3499"/><path d="M42.512 88.944c-.023 0-.045 0-.067-.002l-14.78-1.13a1.339 1.339 0 0 1-1.22-1.16l-.564-4.093v-.007a1.337 1.337 0 0 1 1.455-1.507l11.286 1.083a5.313 5.313 0 0 1 3.653 1.965 5.255 5.255 0 0 1 1.119 4.101.897.897 0 0 1-.882.748v.002ZM28.167 86.06 41.65 87.09a3.488 3.488 0 0 0-.766-1.873 3.533 3.533 0 0 0-2.434-1.308l-10.723-1.03.44 3.182v-.002Z" fill="#3A1919"/><path d="m90 71.119 1.244 3.69a.447.447 0 0 1-.326.451L42.514 88.051s-.308-4.867 3.188-6.064L89.435 70.71a.447.447 0 0 1 .567.409H90Z" fill="#2E3499"/><path d="M73.887 74.718s1.384 1.303.598 4.38l16.756-4.291-1.243-3.69-16.111 3.598v.002Z" fill="#1E2672"/><path d="M42.512 88.944a.89.89 0 0 1-.89-.835c-.014-.226-.305-5.562 3.788-6.966l.067-.02L89.21 69.846a1.322 1.322 0 0 1 1.127.207c.29.21.482.52.538.867l1.215 3.603a.82.82 0 0 1 .044.244 1.333 1.333 0 0 1-.978 1.353L42.74 88.915a.885.885 0 0 1-.227.029Zm3.447-6.102c-1.855.657-2.373 2.728-2.512 4.037l46.758-12.356-.957-2.844-43.289 11.163ZM89.674 71.57l-.018.004.018-.004Z" fill="#3A1919"/><path d="M41.967 113.242h-.018a.77.77 0 0 1-.752-.786l.544-24.423a.769.769 0 0 1 .769-.752h.017a.77.77 0 0 1 .753.786l-.545 24.423a.77.77 0 0 1-.768.752Z" fill="#3A1919"/><path d="M41.197 98.696c-1.641 0-3.186-.134-4.61-.404a.742.742 0 0 1-.59-.864.742.742 0 0 1 .864-.59c2.646.5 7.165.753 13.68-.884.395-.1.797.141.895.536.1.395-.141.797-.536.896-3.454.868-6.736 1.306-9.703 1.306v.004Z" fill="#FFEC64"/><path d="M35.285 99.4a1.962 1.962 0 1 0 0-3.925 1.962 1.962 0 0 0 0 3.925Z" fill="#FFEC64"/><path d="M35.285 99.958a2.523 2.523 0 0 1-2.514-2.374 2.503 2.503 0 0 1 .634-1.821 2.504 2.504 0 0 1 1.737-.84c.67-.038 1.32.185 1.822.634a2.5 2.5 0 0 1 .84 1.737 2.503 2.503 0 0 1-.635 1.822 2.5 2.5 0 0 1-1.737.84c-.05.002-.098.004-.147.004v-.002Zm.004-3.923c-.027 0-.056 0-.082.002a1.392 1.392 0 0 0-.967.469 1.404 1.404 0 1 0 2.45.85 1.392 1.392 0 0 0-.47-.966 1.396 1.396 0 0 0-.93-.355Z" fill="#C6B44B"/><path d="M52.139 98.504a1.963 1.963 0 1 0 0-3.925 1.963 1.963 0 0 0 0 3.925Z" fill="#FFEC64"/><path d="M52.134 99.062a2.495 2.495 0 0 1-1.672-.638 2.5 2.5 0 0 1-.84-1.737 2.503 2.503 0 0 1 .635-1.822 2.5 2.5 0 0 1 1.737-.84 2.49 2.49 0 0 1 1.822.635 2.5 2.5 0 0 1 .84 1.737 2.504 2.504 0 0 1-.635 1.822 2.5 2.5 0 0 1-1.887.843Zm.005-3.925c-.027 0-.056 0-.083.003a1.399 1.399 0 0 0-1.32 1.482c.023.375.188.717.47.967.279.25.638.375 1.013.353.375-.023.717-.188.967-.47.25-.278.375-.64.353-1.013a1.392 1.392 0 0 0-.47-.967 1.397 1.397 0 0 0-.93-.355Z" fill="#C6B44B"/><path d="M39.938 91.226a23.87 23.87 0 0 1-3.635-.263.738.738 0 1 1 .228-1.46c2.654.41 7.178.51 13.641-1.35a.738.738 0 1 1 .406 1.42c-3.809 1.097-7.421 1.653-10.64 1.653Z" fill="#FFEC64"/><path d="M34.979 92.12a1.963 1.963 0 1 0 0-3.924 1.963 1.963 0 0 0 0 3.925Z" fill="#FFEC64"/><path d="M34.974 92.68a2.51 2.51 0 0 1-1.614-.588 2.513 2.513 0 0 1-.893-1.71c-.06-.67.145-1.324.578-1.84a2.514 2.514 0 0 1 1.71-.893 2.492 2.492 0 0 1 1.84.578c.516.433.833 1.04.893 1.71a2.523 2.523 0 0 1-2.514 2.742Zm.007-3.926a1.4 1.4 0 0 0-1.078.505 1.392 1.392 0 0 0-.322 1.025c.034.372.21.712.498.953a1.407 1.407 0 0 0 2.3-1.201 1.4 1.4 0 0 0-.498-.954 1.387 1.387 0 0 0-.9-.328Z" fill="#C6B44B"/><path d="M51.788 90.634a1.963 1.963 0 1 0 0-3.925 1.963 1.963 0 0 0 0 3.925Z" fill="#FFEC64"/><path d="M51.786 91.192a2.52 2.52 0 1 1 .003-5.041 2.52 2.52 0 0 1 0 5.041h-.003Zm.005-3.925a1.4 1.4 0 0 0-1.078.505 1.392 1.392 0 0 0-.322 1.025c.069.77.752 1.341 1.522 1.274.373-.033.713-.21.954-.497.24-.288.355-.652.321-1.025a1.4 1.4 0 0 0-.498-.954 1.387 1.387 0 0 0-.9-.328Z" fill="#C6B44B"/><path d="M41.387 106.269c-1.641 0-3.186-.134-4.61-.404a.742.742 0 0 1-.59-.864.742.742 0 0 1 .864-.589c2.645.5 7.164.752 13.68-.884a.735.735 0 0 1 .895.536c.1.395-.141.797-.536.895-3.454.868-6.736 1.306-9.706 1.306l.003.004Z" fill="#FFEC64"/><path d="M35.475 106.973a1.963 1.963 0 1 0-.001-3.926 1.963 1.963 0 0 0 0 3.926Z" fill="#FFEC64"/><path d="M35.472 107.531a2.492 2.492 0 0 1-1.672-.639 2.499 2.499 0 0 1-.84-1.737 2.504 2.504 0 0 1 .635-1.822 2.506 2.506 0 0 1 1.737-.839 2.51 2.51 0 0 1 1.822.634 2.5 2.5 0 0 1 .839 1.737 2.503 2.503 0 0 1-.634 1.822 2.501 2.501 0 0 1-1.887.844Zm.005-3.925c-.027 0-.056 0-.083.002a1.392 1.392 0 0 0-.967.469c-.25.279-.375.641-.352 1.014.022.375.187.716.468.966.28.25.641.375 1.014.353.375-.022.717-.188.967-.469.25-.279.375-.641.353-1.013a1.397 1.397 0 0 0-1.398-1.322h-.002Z" fill="#C6B44B"/><path d="M52.329 106.077a1.962 1.962 0 1 0 0-3.924 1.962 1.962 0 0 0 0 3.924Z" fill="#FFEC64"/><path d="M52.324 106.635a2.495 2.495 0 0 1-1.672-.638 2.5 2.5 0 0 1-.84-1.737 2.503 2.503 0 0 1 .635-1.822 2.506 2.506 0 0 1 1.737-.84 2.515 2.515 0 0 1 1.821.635 2.5 2.5 0 0 1 .84 1.737 2.523 2.523 0 0 1-2.52 2.665Zm.007-3.925c-.027 0-.056 0-.083.003a1.39 1.39 0 0 0-.966.468c-.25.279-.375.641-.353 1.014.022.375.187.717.469.967.279.25.638.375 1.013.353a1.405 1.405 0 0 0 .85-2.45 1.396 1.396 0 0 0-.93-.355Z" fill="#C6B44B"/><path d="M40.257 68.364c-1.583 1.187-1.105 2.654.663 2.875 1.77.221 1.907.337 3.539-.884 1.768-1.326 1.989-3.539 0-3.318-1.99.221-3.318.663-4.202 1.326ZM33.621 71.24a1.99 1.99 0 1 0 0-3.98 1.99 1.99 0 0 0 0 3.98ZM56.622 65.711a1.99 1.99 0 1 0 0-3.979 1.99 1.99 0 0 0 0 3.979ZM30.067 82.018a.893.893 0 1 1 0-1.786c2.184 0 9.007-2.61 11.174-6.548a.892.892 0 0 1 1.25-.33c2.195 1.348 4.618 2.002 7.406 2.002 2.789 0 5.62-.672 8.295-1.48.008-.002.017-.007.029-.01.406-.122.81-.25 1.21-.376.006 0 .01-.005.018-.005a.894.894 0 0 1 .544 1.701c-3.177 1.016-6.6 1.958-10.091 1.958-2.809 0-5.296-.598-7.573-1.824-2.916 4.189-9.773 6.7-12.258 6.7l-.004-.002Z" fill="#3A1919"/><path d="m93.505 76.91-60.982 47.888-4.236-6.434L89.59 69.846l3.916 7.064Z" fill="#F4DA6E"/><path d="m92.143 75.555-60.632 47.622-2.442-3.181 61.44-48.306 1.634 3.865Z" fill="#8C3333"/><path d="M32.523 125.691a.894.894 0 0 1-.746-.402l-4.235-6.436a.895.895 0 0 1 .192-1.193l61.301-48.517a.894.894 0 0 1 1.336.266l3.916 7.066a.89.89 0 0 1-.23 1.134l-60.983 47.888a.889.889 0 0 1-.551.19v.004Zm-3.041-7.135 3.253 4.94 59.62-46.818-3.036-5.479-59.835 47.357h-.002Z" fill="#3A1919"/><path d="m75.74 100.344.038-2.322c-.232.822-1.226 1.6-2.842 2.311l-60.54-.239c-1.608-.721-2.595-1.51-2.818-2.333l.013 2.322h-.026l-.125 23.605h-.052l-.01 2.264h.053l.026 4.338c1.318 3.401 15.591 6.129 33.017 6.198 17.426.069 31.726-2.547 33.08-5.939l.072-4.338h.054l.011-2.264h-.051l.125-23.608h-.027l.002.005Z" fill="#CECECE"/><path d="m75.642 123.952.125-23.608-66.198-.261-.125 23.607h-.051l-.011 2.264h.102c1.318 3.401 15.59 6.131 33.017 6.198 17.425.069 31.725-2.547 33.08-5.939h.103l.011-2.264h-.05l-.003.003Z" fill="#2E3499"/><path d="M75.58 129.875h.102l.011-2.583h-.051l.125-26.939-25.046.602v35.008s16.153 1.043 24.858-6.088Z" fill="#2D329B"/><path d="M75.63 126.028c-.977 3.465-15.442 6.162-33.132 6.091-17.689-.069-32.125-2.88-33.065-6.352l.027 4.526c1.317 3.4 15.59 6.128 33.016 6.197 17.426.07 31.726-2.547 33.081-5.938l.076-4.526-.002.002ZM75.78 98.022c-.978 3.465-15.443 6.162-33.132 6.091-17.69-.07-32.126-2.881-33.065-6.352l.026 4.525c1.318 3.401 15.59 6.129 33.017 6.198 17.425.069 31.725-2.547 33.08-5.939l.077-4.525-.003.002Z" fill="#CECECE"/><path d="M75.58 129.875h.102l.011-2.583h-.051l.125-26.939-25.046.602v35.008s16.153 1.043 24.858-6.088Z" fill="#1E2672"/><path d="M72.724 100.386c-4.182 1.762-12.237 3.077-22.003 3.523v4.372c13.58-.623 23.845-2.925 24.983-5.772l.036-2.194.038-2.331c-.241.857-1.313 1.67-3.056 2.402h.002ZM72.724 128.419c-4.182 1.762-12.237 3.077-22.003 3.524v4.371c13.58-.623 23.845-2.925 24.983-5.771l.036-2.195.038-2.331c-.241.857-1.313 1.67-3.056 2.402h.002Z" fill="#A3A3A3"/><path d="M75.78 98.022c-.978 3.465-15.443 6.162-33.132 6.091-17.69-.07-32.126-2.881-33.065-6.352l.026 4.525c1.318 3.401 15.59 6.129 33.017 6.198 17.425.069 31.725-2.547 33.08-5.939l.077-4.525-.003.002Z" fill="#CECECE"/><path d="M19.667 102.416a9.07 9.07 0 0 1-2.985-.549v31.371c.902.328 1.9.518 2.947.535h.373v-31.357c-.111 0-.223.002-.335 0Z" fill="#8D93FF"/><path d="M19.63 133.771h.372v-3.492a54.749 54.749 0 0 1-3.32-.721v3.68c.902.328 1.9.517 2.947.535v-.002ZM19.667 102.391a9.412 9.412 0 0 1-2.985-.524v4.027c1.018.259 2.128.503 3.32.73v-4.23c-.111 0-.223.002-.335 0v-.003Z" fill="#fff"/><path d="M42.648 104.115c17.69.069 32.154-2.628 33.132-6.09l.005-.735c-.94-3.472-15.379-6.283-33.066-6.352-17.689-.07-32.154 2.628-33.132 6.09l-.004.735c.94 3.472 15.378 6.283 33.065 6.352Z" fill="#EADFB0"/><path d="M43.316 105.008h-.672c-8.587-.034-16.747-.715-22.979-1.916-6.698-1.292-10.38-3.005-10.946-5.095l-.032-.116.005-.978.033-.116c.587-2.083 4.287-3.769 10.996-5.005 6.245-1.152 14.407-1.764 22.998-1.735 8.587.033 16.747.714 22.979 1.916 6.698 1.292 10.38 3.005 10.944 5.094l.031.117-.004.977-.034.117c-.587 2.083-4.286 3.768-10.995 5.007-6.082 1.123-13.988 1.737-22.327 1.737l.002-.004Zm-32.84-7.386c.91 2.273 12.681 5.522 32.176 5.597h.697c19.08 0 30.614-3.107 31.538-5.347v-.446c-.908-2.273-12.679-5.522-32.174-5.597-19.491-.07-31.302 3.078-32.237 5.347v.448-.002Z" fill="#3A1919"/><path d="M25.56 97.667v-.511c.564-1.992 7.537-3.62 16.885-4.097a114 114 0 0 0-5.272-.141c-12.304-.05-22.368 1.828-23.05 4.237v.512c.653 2.415 10.695 4.371 23.001 4.418 2.135.009 4.204-.04 6.167-.141-9.79-.493-17.174-2.219-17.732-4.277Z" fill="#FFF3E6"/><path d="M43.141 137.386h-.67c-8.45-.034-16.516-.697-22.71-1.865-6.61-1.248-10.357-2.898-11.134-4.903a.894.894 0 0 1-.06-.326l.109-30.207c0-.072.009-.14.025-.208l-.014-2.105.005-.746c0-.08.01-.16.033-.239.587-2.083 4.287-3.769 10.996-5.005 6.245-1.152 14.407-1.764 22.998-1.735 8.587.033 16.747.714 22.979 1.916 6.698 1.292 10.38 3.005 10.944 5.094a.96.96 0 0 1 .031.24l-.004.734-.036 2.116a.918.918 0 0 1 .023.208l-.21 30.208a.87.87 0 0 1-.065.326c-.8 1.998-4.561 3.616-11.183 4.813-6.042 1.092-13.854 1.688-22.061 1.688l.004-.004ZM10.355 130.1c1.27 2.3 12.882 5.424 32.126 5.499 19.238.079 30.888-2.956 32.185-5.246l.208-29.797a.834.834 0 0 1-.025-.223l.043-2.903c-.911-2.273-12.682-5.521-32.177-5.597-19.491-.07-31.302 3.079-32.237 5.347v.592l.011 2.313a.924.924 0 0 1-.027.223l-.107 29.797v-.005Z" fill="#3A1919"/><path d="M12.527 132.447h-.004a.893.893 0 0 1-.889-.898l.168-31.158a.893.893 0 0 1 .893-.889h.004c.494.002.891.404.889.897l-.168 31.159a.894.894 0 0 1-.893.889ZM27.377 135.586h-.005a.893.893 0 0 1-.888-.898l.165-31.145a.894.894 0 0 1 .893-.889h.004c.494.003.891.404.889.898l-.165 31.145a.894.894 0 0 1-.893.889ZM42.46 136.666h-.004a.893.893 0 0 1-.889-.897l.163-31.13a.894.894 0 0 1 .893-.889h.005c.493.003.89.405.889.898l-.164 31.13a.893.893 0 0 1-.893.888ZM57.56 135.691h-.005a.893.893 0 0 1-.888-.898l.163-31.114a.893.893 0 0 1 .893-.888h.004c.494.002.891.404.889.897l-.163 31.114a.894.894 0 0 1-.893.889ZM72.463 132.652h-.005a.893.893 0 0 1-.888-.897l.165-31.099a.893.893 0 0 1 .893-.888h.004c.494.002.891.404.889.897l-.165 31.099a.893.893 0 0 1-.893.888Z" fill="#3A1919"/><path d="M13.186 123.143c-.409-.114-.815-.23-1.221-.348-.518-.152-.938-.708-.936-1.232.023-4.03.043-8.058.065-12.088.002-.525.429-.826.945-.676.406.118.812.234 1.22.348.519.145.943.688.94 1.212l-.064 12.088c-.002.524-.431.839-.949.696Z" fill="#E9E9E9"/><path d="M13.432 124.072c-.159 0-.322-.022-.485-.067-.41-.114-.821-.232-1.23-.35-.904-.264-1.583-1.163-1.579-2.094l.065-12.09c.002-.527.232-1 .628-1.295.404-.302.935-.386 1.46-.235.404.119.808.233 1.212.346.911.255 1.596 1.148 1.592 2.077l-.065 12.087a1.618 1.618 0 0 1-.627 1.3c-.277.21-.616.319-.97.319l-.001.002Zm-1.445-14.356-.065 11.856c0 .116.15.328.293.37.341.099.685.197 1.03.293l.062-11.876c0-.111-.143-.308-.286-.348a80.43 80.43 0 0 1-1.036-.295h.002Z" fill="#3A1919"/><path d="M28.049 126.2c-.418-.056-.833-.116-1.25-.176-.53-.078-.96-.574-.958-1.099l.064-12.083c.003-.524.438-.886.97-.808.415.06.832.121 1.25.176.53.072.962.556.96 1.081-.02 4.028-.043 8.053-.065 12.081-.002.525-.44.9-.971.828Z" fill="#E9E9E9"/><path d="M28.174 127.102c-.083 0-.163-.007-.246-.018-.42-.056-.84-.116-1.26-.176-.97-.143-1.727-1.016-1.72-1.989l.064-12.081c.003-.503.217-.976.587-1.295a1.761 1.761 0 0 1 1.403-.393c.413.06.828.12 1.24.176.979.132 1.74.996 1.733 1.969l-.064 12.081c-.003.505-.22.98-.59 1.302a1.745 1.745 0 0 1-1.147.422v.002Zm-1.378-14.175-.065 12.003c0 .076.1.196.195.212.397.058.797.114 1.196.169l.063-12.022c0-.069-.094-.179-.185-.19-.402-.054-.804-.112-1.206-.17l.002-.002Z" fill="#3A1919"/><path d="M43.135 127.2c-.42 0-.84 0-1.26-.005a.972.972 0 0 1-.966-.966l.062-12.077c.003-.524.442-.944.978-.94.42.005.84.007 1.262.005.535 0 .968.424.966.947l-.062 12.074a.98.98 0 0 1-.978.96l-.002.002Z" fill="#E9E9E9"/><path d="M42.891 128.093c-.341 0-.683 0-1.024-.005a1.862 1.862 0 0 1-1.851-1.864l.062-12.076c.002-.489.199-.949.55-1.293.35-.346.817-.536 1.31-.536h.02c.415.005.833.007 1.25.005h.003c.502 0 .973.194 1.326.549.346.348.536.808.533 1.297l-.062 12.077a1.871 1.871 0 0 1-1.869 1.848h-.248v-.002Zm-.953-13.988c-.03 0-.05.012-.06.023-.014.013-.014.024-.014.029l-.062 12.074c0 .027.033.069.082.069.418.005.835.007 1.25.005.05 0 .085-.043.088-.072l.062-12.074s0-.013-.013-.027a.08.08 0 0 0-.06-.022c-.422 0-.847 0-1.27-.005h-.003Z" fill="#3A1919"/><path d="M58.232 126.142c-.418.058-.835.114-1.253.167-.531.067-.964-.31-.962-.835l.063-12.069c.002-.525.44-1.005.973-1.072l1.252-.165c.532-.074.963.29.96.815l-.064 12.069c-.002.525-.44 1.016-.971 1.092l.002-.002Z" fill="#E9E9E9"/><path d="M56.86 127.209c-.43 0-.845-.152-1.162-.433a1.728 1.728 0 0 1-.574-1.306l.062-12.07c.005-.971.775-1.828 1.753-1.953.415-.054.828-.108 1.244-.166a1.757 1.757 0 0 1 1.4.404c.368.322.578.797.575 1.3l-.064 12.07c-.007.968-.77 1.835-1.74 1.971-.42.058-.841.114-1.263.167a2.014 2.014 0 0 1-.232.016h.002Zm1.512-14.148c-.41.056-.81.107-1.207.158-.094.011-.193.121-.193.19l-.062 12.007c.406-.051.804-.105 1.199-.158.096-.014.2-.137.2-.212l.063-11.985Z" fill="#3A1919"/><path d="M73.121 123.025a99.58 99.58 0 0 1-1.228.339c-.522.141-.946-.176-.944-.701.022-4.021.042-8.042.065-12.065.002-.525.433-1.063.953-1.203.409-.11.82-.224 1.228-.337.52-.148.942.158.94.68l-.065 12.063c-.002.523-.428 1.077-.95 1.224h.001Z" fill="#E9E9E9"/><path d="M71.652 124.289c-.357 0-.699-.112-.978-.326a1.62 1.62 0 0 1-.616-1.306l.065-12.065c.004-.929.699-1.816 1.614-2.061.406-.11.813-.221 1.217-.335.527-.15 1.06-.058 1.46.248.393.299.616.772.614 1.299l-.065 12.063c-.006.931-.694 1.824-1.6 2.079-.411.116-.824.23-1.237.341a1.806 1.806 0 0 1-.474.065v-.002Zm1.59-14.318-1.04.286c-.146.038-.293.234-.293.346l-.063 11.848c.351-.093.693-.189 1.034-.285.143-.041.297-.251.3-.369l.062-11.824v-.002Z" fill="#3A1919"/><path d="M46.055 87.637a2.217 2.217 0 1 0-3.708 2.431l14.094 21.497a2.217 2.217 0 0 0 3.708-2.432L46.055 87.637Z" fill="#D8A577"/><mask id="b" style="mask-type:luminance" maskUnits="userSpaceOnUse" x="39" y="82" width="22" height="31"><path d="M45.08 84.61c-1.258-1.917-3.421-2.719-4.832-1.794-1.411.926-1.539 3.23-.282 5.146.61.93 1.436 1.596 2.284 1.931.032.058.063.114.1.17l14.096 21.496a2.224 2.224 0 0 0 3.07.638 2.224 2.224 0 0 0 .638-3.07L46.059 87.631c-.035-.055-.076-.107-.116-.158.032-.911-.25-1.934-.862-2.865l-.002.003Z" fill="#fff"/></mask><g mask="url(#b)"><path d="M45.135 84.693c1.25 1.907 1.023 4.057-.389 4.984-1.41.926-3.474.276-4.724-1.63-1.25-1.907-1.118-4.202.295-5.126 1.41-.927 3.57-.132 4.818 1.774v-.002Z" fill="#9E673E"/></g><path d="M45.08 84.61c1.256 1.919.334 3.008-1.077 3.935-1.411.926-2.78 1.337-4.037-.58-1.257-1.919-1.132-4.223.282-5.147 1.41-.927 3.574-.123 4.831 1.795v-.002Z" fill="#D8A577"/><path d="M58.308 113.452c-.215 0-.429-.022-.643-.067a3.099 3.099 0 0 1-1.97-1.337l-14.063-21.45c-.94-.441-1.788-1.194-2.413-2.147-1.525-2.326-1.284-5.189.538-6.383 1.821-1.195 4.543-.275 6.068 2.052.625.95.976 2.029 1.007 3.067l14.066 21.449a3.116 3.116 0 0 1-.896 4.307 3.082 3.082 0 0 1-1.694.509Zm-16.723-30.13c-.31 0-.6.076-.848.24-.98.642-.992 2.433-.025 3.911.487.743 1.15 1.308 1.864 1.59.197.078.36.223.46.408.018.034.036.067.058.1l14.095 21.497c.192.294.491.495.837.567.349.071.701.006.996-.186.61-.399.782-1.223.382-1.833L45.309 88.12c-.022-.033-.047-.064-.071-.096a.902.902 0 0 1-.192-.582c.026-.768-.228-1.601-.715-2.345-.723-1.102-1.826-1.777-2.748-1.777l.002.003Z" fill="#3A1919"/><path d="M70.951 103.392c-2.733 1.111-12.81 3.389-17.334 2.06-3.505-1.029-5.037-3.449-5.233-4.648-.284-1.728.841-3.68 2.868-4.97.184-.116.387-.23.608-.34 1.413-.696 3.456-1.176 5.617-1.683a199.074 199.074 0 0 0 8.156-2.12c2.786-.782 11.398-4.372 15.064 1.118 5.16 7.729-4.944 8.627-9.746 10.58v.003Z" fill="#FFE14D"/><path d="M70.951 100.804c-2.733 1.111-12.81 3.389-17.334 2.06-2.69-.79-4.213-2.174-4.867-3.42-.349.748-.485.627-.366 1.362.196 1.199 1.725 3.619 5.233 4.648 4.526 1.329 14.601-.949 17.334-2.061 4.338-1.766 13.003-2.67 10.828-8.528-1.491 3.05-7.461 4.57-10.828 5.941v-.002Z" fill="#EA911B"/><path d="M57.182 106.749c-1.442 0-2.76-.129-3.817-.44-3.843-1.127-5.611-3.824-5.863-5.36-.342-2.08.942-4.383 3.27-5.867.215-.137.447-.266.693-.387 1.504-.743 3.594-1.232 5.807-1.75a202.38 202.38 0 0 0 8.118-2.11c.299-.085.678-.205 1.116-.344 3.67-1.17 11.304-3.603 14.93 1.826 1.486 2.226 1.92 4.113 1.328 5.763-1.036 2.891-4.956 4.077-8.415 5.124-1.13.341-2.197.665-3.063 1.018-2.112.859-8.913 2.532-14.104 2.532v-.005Zm17.163-16.052c-2.61 0-5.394.886-7.294 1.493-.456.145-.849.27-1.177.362-3.034.85-5.79 1.567-8.191 2.13-2.11.495-4.104.962-5.426 1.614-.19.094-.366.192-.524.292-1.697 1.081-2.689 2.72-2.465 4.073.145.886 1.46 3.014 4.603 3.936 4.108 1.206 13.885-.868 16.747-2.032.945-.384 2.05-.719 3.22-1.071 3.054-.925 6.517-1.972 7.252-4.017.381-1.067 0-2.47-1.135-4.168-1.317-1.976-3.4-2.61-5.608-2.61l-.002-.002Z" fill="#3A1919"/><path d="M82.302 82.326s-3.729 2.738-8.725 5.136c-3.823 1.832-8.16 2.786-8.16 2.786l3.652 13.621s14.459-1.384 22.661-8.752c1.65-1.482 3.325-3.54 2.376-6.503-1.797-5.611-11.802-6.29-11.802-6.29l-.002.002Z" fill="#A31E36"/><path d="M60.746 107.153a.89.89 0 0 1-.869-.694l-3.099-13.487a.891.891 0 0 1 .65-1.065c.156-.04 15.593-4.03 22.94-9.85a.894.894 0 0 1 1.11 1.4c-6.72 5.324-19.357 9.023-22.764 9.957l2.715 11.813c2.974-.565 13.302-2.648 21.21-5.707a.892.892 0 1 1 .643 1.665c-9.455 3.658-22.25 5.933-22.38 5.955a.916.916 0 0 1-.156.013Z" fill="#3A1919"/><path d="M67.63 89.085 54.401 92.75l4.424 15.964 13.228-3.666-4.425-15.964Z" fill="#A31E36"/><path d="m63.33 90.276-4.63 1.283 4.425 15.965 4.63-1.284-4.425-15.964Z" fill="#FFEC64"/><path d="M58.819 109.614a.893.893 0 0 1-.86-.654l-4.423-15.966a.89.89 0 0 1 .62-1.098l13.23-3.666a.888.888 0 0 1 1.098.62l4.423 15.966a.892.892 0 0 1-.623 1.098l-13.228 3.666a.869.869 0 0 1-.24.034h.003Zm-3.325-16.236 3.948 14.244 11.507-3.188L67 90.19l-11.507 3.188Z" fill="#3A1919"/><path d="M84.037 122.318c-6.571-6.361-20.371-4.794-24.839 6.564-2.567 6.528-2.574 10.555-2.574 10.555s14.921 1.769 22.137-5.97c7.017-7.524 5.278-11.149 5.278-11.149h-.002Z" fill="#FFE14D"/><path d="M59.574 129.449a.894.894 0 0 1-.818-1.253c2.436-5.523 7.098-9.328 12.791-10.442 5.09-.995 10.132.349 13.485 3.597a.893.893 0 1 1-1.243 1.284c-2.934-2.842-7.384-4.012-11.9-3.128-5.113 1-9.304 4.429-11.5 9.41a.894.894 0 0 1-.818.534l.003-.002ZM25.336 133.722c-.757-1.728-6.617-13.838-10.34-16.7a11.554 11.554 0 0 0-1.549-1.009c-2.442-3.064-5.68-4.819-8.287-4.479-1.193.156-2.811.81-3.767 3.043-.23.482-2.85 6.263-.25 14.666.991 3.206 2.42 3.796 3.802 4.365 1.565.645 3.34 1.375 5.577 6.834l.038.083c.896 1.676 3.293 4.385 6.643 4.385.591 0 1.212-.085 1.857-.275 2.657-.777 5.258-1.712 6.296-3.284 1.576-2.391.677-6.035-.02-7.629Z" fill="#3A1919"/><path d="M18.893 129.598c-.516-.873-2.541-3.063-3.035-6.099-1.428-8.779-11.006-14.778-13.652-8.554 0 0-2.795 5.68-.212 14.033 1.956 6.32 5.075.692 9.354 11.123 0 0 2.753 5.215 7.462 3.674 6.271-2.051 4.249-7.131.083-14.177Z" fill="#938282"/><path d="M17.113 144.95c-3.277 0-5.653-2.724-6.553-4.432a.476.476 0 0 1-.035-.078c-2.24-5.459-4.012-6.189-5.578-6.834-1.382-.569-2.81-1.159-3.802-4.365-2.6-8.404.02-14.186.25-14.668.95-2.213 2.818-3.323 5.129-3.041 4.086.493 9.165 5.36 10.218 11.822.36 2.201 1.633 3.963 2.392 5.014.225.313.404.558.531.775 3.097 5.238 4.796 9.069 3.7 11.978-.61 1.616-2.008 2.762-4.274 3.503a6.342 6.342 0 0 1-1.976.326h-.002Zm-4.956-5.233c.243.442 2.585 4.451 6.376 3.21 1.72-.562 2.753-1.36 3.157-2.436.842-2.232-.817-5.787-3.566-10.439-.084-.146-.25-.373-.44-.637-.852-1.181-2.279-3.155-2.705-5.773-.909-5.584-5.298-9.929-8.67-10.335-1.538-.188-2.64.482-3.28 1.987l-.02.044c-.024.052-2.596 5.497-.158 13.376.744 2.402 1.552 2.735 2.777 3.242 1.791.737 4.017 1.657 6.53 7.763l-.001-.002Z" fill="#3A1919"/><path d="M17.22 128.076c-.23-.351-.524-3.959-1.185-3.939-4.332 4.111-11.952 7.145-12.438 6.953-.53.091-.623.877-.123 1.085 0 0 2.43.906 3.17 1.473.27.206 6.993-1.625 10.576-5.572ZM23.048 136.964l-1.595-2.762a.577.577 0 0 0-.52-.286l-2.462.08a.57.57 0 0 0-.262.072l-6.467 3.525a.548.548 0 0 0-.22.759l2.149 3.722a4.549 4.549 0 0 0 3.931 2.262c.72 0 1.442-.172 2.108-.536l1.699-.927c2.116-1.154 2.85-3.806 1.636-5.912l.003.003Z" fill="#3A1919"/><path d="M42.32 20.741c-7.752 1.329-17.645 4.323-17.38 5.879 1.914 11.163 7 19.69 8.913 30.853 9.63 1.4 18.4-1.574 28.373-5.53-1.913-11.164.35-20.284-1.563-31.447-.266-1.556-10.594-1.085-18.343.245Z" fill="#A31E36"/><path fill-rule="evenodd" clip-rule="evenodd" d="M60.663 20.498c-.172-1.007-4.568-1.166-9.748-.788 1.06.156 1.715.413 1.78.788 1.913 11.163 1.545 20.138 3.46 31.302-6.825 2.706-14.985 5.76-21.346 6.46 9.257 1.077 17.776-1.83 27.417-5.652-1.913-11.163.35-20.945-1.563-32.108v-.002Z" fill="#791628"/><path d="M32.036 24.85c-2.04.636-3.436 1.18-4.351 1.61l11.033 23.594 5.859-1.005 2.659-27.417a85.267 85.267 0 0 0-4.36.625c-3.508.601-7.562 1.57-10.842 2.593h.002Z" fill="#FFEC64"/><path d="M61.333 52.62c-.007-.027-.014-.054-.018-.081-.511-3.05-.714-5.964-.784-8.79-9.26 3.108-18.633 5.014-27.888 5.72.802 2.59 1.514 5.273 2.023 8.111a.898.898 0 0 1-.06.514c-.114.259-.257.614-.39 1.024 8.65-.462 17.396-1.97 26.043-4.525.739-.886 1.076-1.536 1.076-1.797v-.175l-.002-.002Z" fill="#2E3499"/><path d="M33.853 56.265v1.846c7.737.755 20.344-2.32 28.373-5.503-.525-3.063-.735-6.247-.804-9.158a119.897 119.897 0 0 1-6.148 1.933c.23 2.005.513 4.06.88 6.194-6.92 3.73-22.3 4.688-22.3 4.688Z" fill="#1E2672"/><path d="M62.226 52.382c-21.139 6.109-28.43 5.33-28.43 5.33-1.356 3.096-2.244 8.292 5.818 7.568 13.42-1.205 22.61-10.093 22.61-12.485v-.41l.002-.003Z" fill="#3A1919"/><path d="M38.194 66.24c-2.568 0-4.365-.692-5.354-2.063-1.463-2.027-.672-4.874.018-6.544-.967-5.25-2.664-10.029-4.305-14.648-1.732-4.876-3.523-9.917-4.494-15.575-.183-1.07.964-1.808 1.985-2.333 1.024-.527 2.471-1.096 4.302-1.692 3.494-1.137 7.912-2.215 11.822-2.885 3.91-.67 8.435-1.125 12.108-1.217 1.924-.049 3.478.007 4.619.163 1.136.157 2.465.471 2.648 1.539.971 5.664.882 10.864.795 15.89-.083 4.817-.17 9.798.698 15.137a.889.889 0 0 1 .08.395v.386c0 3.269-10.138 12.184-23.424 13.376a16.97 16.97 0 0 1-1.5.071h.002Zm-12.34-38.937c.951 5.428 2.695 10.335 4.383 15.082 1.692 4.764 3.445 9.694 4.427 15.193a.899.899 0 0 1-.06.513c-.447 1.025-1.373 3.57-.313 5.04.967 1.341 3.387 1.424 5.245 1.258 7.546-.676 13.212-3.83 15.918-5.648 4.187-2.813 5.879-5.36 5.879-5.948v-.174c-.007-.027-.014-.054-.018-.08-.935-5.589-.848-10.726-.761-15.696.084-4.885.172-9.937-.737-15.36-.476-.228-2.233-.543-6.26-.391-3.434.13-7.578.565-11.088 1.168-3.507.6-7.562 1.57-10.841 2.592-3.85 1.198-5.401 2.08-5.772 2.453l-.002-.002Z" fill="#3A1919"/><path d="M78.183 59.498c-.139 0-.262.004-.36.013a.993.993 0 0 0-.766 1.507c.382.623 1.175 1.467 2.124 2.26l.25.212c7.142 6.09 12.594 7.37 15.91 7.37 1.22 0 2.406-.17 3.523-.505 5.159-1.55 8.35-4.79 9.613-7.303.55-1.096.632-1.822.632-2.159a.995.995 0 0 0-.893-.99c-.703-.07-2.411-.104-5.222-.104-1.46 0-3.123.009-4.89.018-2.007.011-4.15.02-6.289.02-3.945 0-9.591-.034-13.076-.315a6.842 6.842 0 0 0-.554-.022l-.002-.002Z" fill="#FF9739"/><path d="M109.107 60.89c-.072-.006-12.869 12.26-30.708.456-3.65-2.415-1.377.498 1.03 2.291 11.71 10.266 22.752 9.341 29.046-.438.694-1.636 2.05-1.832.632-2.308Z" fill="#E26917"/><path d="M52.668 13.238c6.464 2.105 4.318 11.544-2.471 11.538 6.148 5.336-3.763 11.659-9.273 8.508-.22.967.128 10.76 1.836 15.106 0 0-.204.335-.425.387-.194.044-.707-.087-.707-.087-2.318-3.528-9.185-16.986-6.455-31.184 5.195-27.001 32.695-15.555 17.495-4.268Z" fill="#CECECE"/><path d="M51.21 12.344c6.464 2.106 4.318 11.545-2.471 11.539 6.148 5.336-3.762 11.659-9.273 8.508-.22.967.128 10.76 1.836 15.106 0 0-.203.335-.425.387-.194.044-.707-.087-.707-.087-2.318-3.528-9.185-16.986-6.455-31.184C38.91-10.388 66.41 1.058 51.21 12.344Z" fill="#fff"/><path d="M46.325 49.333c.525 3.063-1.476 5.751-4.233 5.986-2.527.214-4.791-1.746-5.24-4.363-.449-2.617 1.034-5.218 3.487-5.859 2.68-.698 5.461 1.17 5.986 4.234v.002Z" fill="#C6B44B"/><path d="M40.455 45.778a3.841 3.841 0 0 1 1.673-.042 4.185 4.185 0 0 1 1.554.663 4.576 4.576 0 0 1 1.23 1.284c.341.536.574 1.136.683 1.777.11.643.092 1.284-.051 1.904-.07.297-.168.585-.29.858a4.37 4.37 0 0 1-1.012 1.402c-.21.192-.438.36-.676.5a3.892 3.892 0 0 1-3.217.328 4.218 4.218 0 0 1-1.376-.781 4.634 4.634 0 0 1-1.02-1.233 4.79 4.79 0 0 1-.56-1.574 4.82 4.82 0 0 1 .004-1.67c.047-.265.118-.527.212-.779a4.434 4.434 0 0 1 .8-1.366c.173-.201.367-.386.575-.55a3.908 3.908 0 0 1 1.47-.718m-.05-.284c-2.275.576-3.657 2.98-3.242 5.407.416 2.427 2.52 4.234 4.858 4.02 2.532-.233 4.356-2.711 3.876-5.518-.482-2.806-3.025-4.536-5.49-3.911l-.002.002Z" fill="#fff"/><path d="M37.8 50.795c.253 1.467 1.227 2.641 2.466 3.124l-2.445-4.687a4.268 4.268 0 0 0-.02 1.563Zm5.926-1.228c-.087-.507-.321-.824-.515-1.067-.253-.297-.485-.542-.543-.877-.065-.373.143-.777.525-.862.018-.005.033-.005.051-.01a3.483 3.483 0 0 0-2.704-.47c-1.223.294-2.143 1.219-2.556 2.369.078-.014.15-.027.212-.04.346-.072.88-.235.88-.235.18-.051.254.248.076.31 0 0-.179.063-.38.114l1.965 3.939.344-2.675-.84-1.56a5.492 5.492 0 0 1-.373.037c-.19.027-.22-.294-.033-.323 0 0 .587-.072.938-.146.377-.078.962-.254.962-.254.199-.054.277.257.08.324 0 0-.196.067-.415.122l2.099 4.08.174-1.385c.08-.612.113-1.042.053-1.393v.002Zm-2.389.976-.493 3.543a3.427 3.427 0 0 0 2.244-.306c-.014-.015-.025-.033-.036-.051l-1.715-3.186Zm2.892-2.898c.04.13.073.268.1.422.072.422.076.909-.051 1.538l-.585 3.785c1.054-.849 1.639-2.298 1.375-3.84a4.215 4.215 0 0 0-.84-1.905Z" fill="#fff"/><path d="M62.181 130.386c-.848-5.206-7.29-17.669-14.606-13.777-5.82 3.929-4.873 11.605-3.996 17.374.663 6.088-6.2 16.466 10.17 14.561 3.032-.352 5.579-1.891 6.838-4.61 1.746-4.575 2.693-8.024 1.594-13.55v.002Z" fill="#3A1919"/><mask id="c" style="mask-type:luminance" maskUnits="userSpaceOnUse" x="22" y="74" width="77" height="41"><path d="M89.047 74.718C63.57 79.96 45.47 85.43 45.47 85.43a1417.94 1417.94 0 0 1-17.218-.701c0 1.172-6.23 20.129-6.23 20.129 1.316 3.57 5.76 6.446 23.86 9 24.45 2.483 45.127-.792 52.555-4.398 0 0 .467-21.8-9.39-34.742Z" fill="#fff"/></mask><g mask="url(#c)" fill="#791628"><path fill-rule="evenodd" clip-rule="evenodd" d="M95.423 80.84a1.639 1.639 0 0 0-1.217-.954 1.645 1.645 0 0 0-2.06-2.38s-.838.179-1.206 1.34l-4.452.793-.706.312-3.578 2.766c-1.11-.504-1.804-.006-1.804-.006a1.647 1.647 0 0 0 .38 3.125 1.645 1.645 0 0 0 1.104 2.496 1.644 1.644 0 0 0 1.105 2.497 1.644 1.644 0 0 0 2.005 2.402 1.647 1.647 0 0 0 2.922.627c.008.016.012.031.019.047a1.647 1.647 0 0 0 2.172.837c.317-.14.565-.37.732-.645a1.644 1.644 0 0 0 1.52.293c.061-.018.121-.038.182-.065 0 0 .015-.01.022-.011.009-.005.016-.005.025-.01a1.749 1.749 0 0 0 .31-.184c.397-.295.636-.749.663-1.229a1.64 1.64 0 0 0 1.806-2.281c-.007-.016-.016-.03-.022-.045a1.647 1.647 0 0 0 1.496-2.588 1.647 1.647 0 0 0 .786-2.145 1.639 1.639 0 0 0-1.217-.953 1.645 1.645 0 0 0-1.105-2.497 1.645 1.645 0 0 0 .111-1.542h.007Z"/><path d="M89.446 95.11a1.873 1.873 0 0 1-1.576-.861 1.872 1.872 0 0 1-2.974-.618l-.047-.115a1.859 1.859 0 0 1-2.172-1.051 1.867 1.867 0 0 1-.011-1.49 1.868 1.868 0 0 1-1.105-2.498 1.86 1.86 0 0 1-1.095-1.009 1.867 1.867 0 0 1-.01-1.489 1.872 1.872 0 0 1-.16-3.467c.133-.087.831-.478 1.878-.056l3.474-2.686a.16.16 0 0 1 .047-.027l.706-.312a.195.195 0 0 1 .051-.016l4.323-.77c.388-1.06 1.15-1.315 1.301-1.355a1.872 1.872 0 0 1 2.46 2.449 1.868 1.868 0 0 1 1.105 2.498c.485.17.885.531 1.095 1.01.212.477.212 1.015.01 1.489.485.17.885.53 1.095 1.009.375.848.076 1.82-.679 2.315a1.872 1.872 0 0 1-1.485 2.73 1.874 1.874 0 0 1-1.047 2.2 1.83 1.83 0 0 1-.866.154c-.085.46-.341.873-.725 1.158a2.015 2.015 0 0 1-.353.212c-.005 0-.016.007-.025.01-.009.004-.015.008-.022.01a1.748 1.748 0 0 1-.395.12l-.01.001a1.865 1.865 0 0 1-1.337-.241 1.85 1.85 0 0 1-1.45.699v-.002Zm-1.525-1.473h.03c.08.011.147.063.178.138l.009.027a1.425 1.425 0 0 0 1.882.737 1.41 1.41 0 0 0 .634-.558.224.224 0 0 1 .33-.056c.329.266.755.37 1.173.288h.006a1.36 1.36 0 0 0 .293-.09l.022-.01c.007-.003.027-.01.034-.014a.905.905 0 0 0 .134-.074 1.42 1.42 0 0 0 .699-1.145.23.23 0 0 1 .084-.163.212.212 0 0 1 .179-.042c.286.053.576.02.837-.094a1.424 1.424 0 0 0 .703-1.916.222.222 0 0 1 .221-.317 1.424 1.424 0 0 0 1.293-2.237.222.222 0 0 1 .085-.328 1.415 1.415 0 0 0 .679-1.853 1.42 1.42 0 0 0-1.052-.824.228.228 0 0 1-.165-.13.22.22 0 0 1 .016-.21 1.42 1.42 0 0 0-.956-2.156.228.228 0 0 1-.165-.13.22.22 0 0 1 .015-.21 1.42 1.42 0 0 0-.955-2.156.228.228 0 0 1-.165-.13.22.22 0 0 1 .015-.21 1.424 1.424 0 0 0-1.782-2.056.147.147 0 0 1-.044.014c-.027.006-.719.178-1.04 1.19a.221.221 0 0 1-.175.151l-4.425.789-.656.29-3.557 2.75a.225.225 0 0 1-.23.027c-.967-.44-1.556-.042-1.58-.026l-.038.022a1.424 1.424 0 0 0 .328 2.701.228.228 0 0 1 .165.13.22.22 0 0 1-.016.21 1.42 1.42 0 0 0 .956 2.156.228.228 0 0 1 .165.13.22.22 0 0 1-.015.21 1.42 1.42 0 0 0 .955 2.156.228.228 0 0 1 .165.13.22.22 0 0 1-.015.21 1.42 1.42 0 0 0-.096 1.333 1.418 1.418 0 0 0 1.83.743.223.223 0 0 1 .301.156 1.419 1.419 0 0 0 1.966.99c.22-.099.415-.253.56-.447a.226.226 0 0 1 .179-.09l.006-.006Z"/></g><path d="M95.338 71.75c-3.465 0-9.138-1.315-16.488-7.582l-.248-.21c-1.029-.857-1.873-1.761-2.308-2.473a1.878 1.878 0 0 1-.074-1.838 1.88 1.88 0 0 1 1.525-1.027 6.793 6.793 0 0 1 1.06.01c3.45.278 9.074.312 13.006.312 2.143 0 4.248-.011 6.285-.02 1.768-.01 3.431-.018 4.894-.018 2.882 0 4.57.035 5.311.11a1.882 1.882 0 0 1 1.697 1.877c0 .507-.127 1.362-.728 2.558-1.349 2.682-4.724 6.129-10.156 7.759-1.202.36-2.472.542-3.78.542h.004ZM78.183 60.39c-.134 0-.23.007-.286.012a.095.095 0 0 0-.08.053.103.103 0 0 0 .004.099c.328.535 1.07 1.317 1.933 2.038l.255.217c6.939 5.916 12.166 7.157 15.332 7.157a11.35 11.35 0 0 0 3.266-.466c4.887-1.467 7.892-4.499 9.073-6.85.485-.964.536-1.55.536-1.757a.101.101 0 0 0-.089-.1c-.661-.067-2.389-.1-5.133-.1-1.46 0-3.119.008-4.885.017-2.038.011-4.146.02-6.294.02-3.96 0-9.634-.033-13.148-.317a6.098 6.098 0 0 0-.482-.02l-.002-.002Z" fill="#3A1919"/><path d="M37.093 58.489c-1.215.071-1.983.06-2.369.044a.44.44 0 0 0-.428.275c-1.289 3.034-2.014 6.508 8.564 5.42.304-.03-7.651-1.595-5.56-5.402a.224.224 0 0 0-.207-.335v-.002Z" fill="#605555"/><path d="M14.693 145.254c-2.233 0-4.115-1.516-4.936-2.983l-1.766-3.15a.896.896 0 0 1 .341-1.217l8.377-4.698a.858.858 0 0 1 .384-.111c.114-.032.232-.052.35-.056l2.463-.083a1.46 1.46 0 0 1 1.329.748l1.594 2.842c1.429 2.55.652 5.151-1.98 6.627-.04.022-.081.04-.123.058-1.255.471-3.285 1.25-3.727 1.469a5.196 5.196 0 0 1-2.306.556v-.002Zm-4.706-6.229 1.33 2.371c.7 1.243 2.644 2.806 4.896 1.699.632-.311 3.282-1.311 3.823-1.514 1.717-.989 2.168-2.503 1.237-4.162l-1.498-2.672-2.19.074a.907.907 0 0 1-.255.087l-7.343 4.117Zm9.99-4.285h-.006.007Z" fill="#3A1919"/><path d="M11.527 142.282c1.244 2.157 3.747 3.09 5.59 2.083l1.7-.927c1.844-1.004 2.33-3.567 1.087-5.724l-1.866-3.237-8.377 4.565 1.866 3.238v.002Z" fill="#938282"/><path d="M15.512 145.66c-1.813 0-3.69-1.081-4.757-2.932l-1.867-3.237a.892.892 0 0 1 .346-1.23l8.377-4.566a.894.894 0 0 1 1.201.337l1.867 3.238c.783 1.359 1.011 2.933.62 4.32-.323 1.154-1.053 2.09-2.054 2.634l-1.699.927a4.217 4.217 0 0 1-2.034.509Zm-4.619-6.267 1.409 2.445c1 1.737 2.97 2.518 4.39 1.746l1.698-.927c.737-.402 1.054-1.065 1.19-1.549.262-.925.096-1.999-.448-2.945L17.7 135.68l-6.807 3.711v.002Z" fill="#3A1919"/><path d="M44.919 115.174s-4.399 4.355-4.1 12.377c.21 5.629 3.392 1.615 2.566 12.15-.38 4.836 2.563 7.676 9.183 7.792 2.072.036 3.449-5.077 4.52-13.878.114-.935.474-2.811 0-6.809-.955-8.094-6.519-16.169-12.17-11.632Z" fill="#938282"/><path d="M52.594 148.388h-.042c-3.854-.067-6.655-1.036-8.328-2.875-1.337-1.472-1.92-3.45-1.728-5.879.462-5.903-.335-6.872-1.107-7.807-.639-.775-1.364-1.655-1.46-4.24-.31-8.319 4.172-12.856 4.362-13.045a.776.776 0 0 1 .07-.063c1.91-1.534 3.994-1.907 6.025-1.076 4.153 1.699 6.962 7.975 7.591 13.297.44 3.727.179 5.685.038 6.736l-.038.288c-1.281 10.541-2.793 14.664-5.378 14.664h-.005Zm-7.075-32.552c-.364.387-4.074 4.515-3.809 11.682.074 1.982.507 2.505 1.054 3.17 1.188 1.442 1.992 2.938 1.51 9.085-.15 1.917.276 3.445 1.27 4.536 1.328 1.463 3.697 2.233 7.037 2.293h.004c.384 0 1.074-.783 1.762-2.996.688-2.219 1.295-5.521 1.85-10.096.012-.094.025-.196.041-.308.13-.974.373-2.786-.04-6.289-.652-5.511-3.443-10.608-6.493-11.856-1.4-.571-2.808-.31-4.188.782l.002-.003Z" fill="#3A1919"/><path d="M56.557 129.931a.58.58 0 0 0-.511-.085c-6.18 1.949-14.755-.755-14.843-.782a.577.577 0 0 0-.61.172.576.576 0 0 0-.077.63l1.4 2.813a.57.57 0 0 0 .283.27c.206.09 3.675 1.57 8.127 1.57 1.909 0 3.999-.273 6.088-1.043a.571.571 0 0 0 .375-.538v-2.545a.57.57 0 0 0-.234-.462h.002ZM57.037 138.214a.573.573 0 0 0-.857-.44l-2.269 1.315-8.785-.502a.559.559 0 0 0-.413.145.56.56 0 0 0-.19.395l-.167 3.001c-.16 2.871 1.869 5.217 4.726 5.378l2.291.127h.045c1.462-.031 2.677-.58 3.608-1.627 2.572-2.9 2.04-7.547 2.016-7.79l-.005-.002Z" fill="#3A1919"/><path d="M57.6 138.118a.577.577 0 0 0-.527-.44l-12.55-.698a.573.573 0 0 0-.319.075l-2.668 1.545a.576.576 0 0 0 .257 1.07l12.55.699a.573.573 0 0 0 .319-.076l2.668-1.545a.576.576 0 0 0 .27-.63Z" fill="#3A1919"/><path d="m46.693 147.784 2.543.142c5.696.318 5.464-8.035 5.464-8.035l-12.543-.699s-.465 8.315 4.536 8.594v-.002Z" fill="#938282"/><path d="M49.556 148.828c-.12 0-.244-.004-.366-.011l-2.543-.143c-5.823-.324-5.399-9.158-5.379-9.535a.891.891 0 0 1 .942-.842l12.543.699c.465.026.83.402.844.866.007.205.112 5.064-2.436 7.54-.97.944-2.183 1.424-3.603 1.424l-.002.002Zm-6.508-8.694c.049 1.983.509 6.58 3.697 6.759l2.543.142c1.076.058 1.933-.236 2.625-.911 1.358-1.321 1.787-3.869 1.878-5.391l-10.743-.599Z" fill="#3A1919"/><path d="M15.138 64.239a2.217 2.217 0 0 0-4.124-1.63L1.568 86.515a2.217 2.217 0 1 0 4.124 1.63l9.446-23.906Z" fill="#D8A577"/><mask id="d" style="mask-type:luminance" maskUnits="userSpaceOnUse" x="1" y="56" width="17" height="34"><path d="M17.042 61.697c.841-2.132.252-4.363-1.318-4.983-1.57-.621-3.525.605-4.369 2.737-.409 1.036-.478 2.092-.263 2.978a2.604 2.604 0 0 0-.083.179L1.563 86.513a2.222 2.222 0 0 0 1.248 2.875 2.224 2.224 0 0 0 2.875-1.248l9.447-23.905c.024-.062.044-.125.062-.187.764-.5 1.436-1.32 1.844-2.354l.003.003Z" fill="#fff"/></mask><g mask="url(#d)"><path d="M17.004 61.79c-.838 2.12-2.726 3.173-4.296 2.554-1.57-.62-2.228-2.68-1.39-4.8.836-2.118 2.788-3.333 4.36-2.712 1.569.62 2.163 2.842 1.326 4.96v-.002Z" fill="#9E673E"/></g><path d="M17.042 61.697c-.842 2.132-2.264 2.007-3.836 1.386-1.57-.62-2.695-1.502-1.85-3.632.84-2.133 2.797-3.358 4.369-2.737 1.569.62 2.16 2.85 1.317 4.983Z" fill="#D8A577"/><path d="M3.621 90.438a3.095 3.095 0 0 1-2.846-1.874 3.087 3.087 0 0 1-.04-2.38l9.426-23.853c-.181-1.023-.054-2.15.364-3.209.477-1.207 1.283-2.212 2.268-2.828 1.072-.672 2.228-.817 3.26-.409 2.025.8 2.842 3.557 1.82 6.142-.418 1.059-1.097 1.967-1.928 2.592L6.52 88.473a3.114 3.114 0 0 1-2.895 1.967l-.003-.002Zm11.246-32.994c-.464 0-.882.207-1.125.361-.654.411-1.221 1.13-1.554 1.972-.326.826-.406 1.692-.226 2.44a.905.905 0 0 1-.069.612c-.018.035-.036.071-.049.107L2.398 86.84c-.13.326-.123.685.018 1.011.14.326.4.576.725.706a1.323 1.323 0 0 0 1.717-.746l9.447-23.905c.015-.038.026-.076.037-.112a.895.895 0 0 1 .367-.493c.643-.422 1.176-1.11 1.504-1.936.65-1.64.275-3.393-.815-3.824a1.412 1.412 0 0 0-.529-.098h-.002Z" fill="#3A1919"/><path d="M12.672 77.502s-1.312-1.704-3.016-1.63c-.984.042-2.994 1.424-1.36 3.891.478.722 2.396 1.577 2.396 1.577s.909.312 2.016-.934c1.322-1.487-.038-2.904-.038-2.904h.002Z" fill="#FFE14D"/><path d="M10.828 82.57a.893.893 0 0 1-.31-.056c-1.436-.531-3.773-2.038-3.436-4.316.234-1.578 1.045-2.25 1.686-2.536 2.05-.915 4.956.942 5.28 1.157a.893.893 0 0 1-.985 1.489c-.772-.507-2.657-1.422-3.568-1.016-.125.056-.504.225-.645 1.165-.205 1.389 2.264 2.37 2.289 2.378a.893.893 0 0 1-.31 1.73v.005Z" fill="#3A1919"/><path d="M94.762 79.724a1.639 1.639 0 0 0-1.217-.954 1.645 1.645 0 0 0-2.06-2.38s-.838.179-1.206 1.34l-4.452.792-.705.313-3.58 2.766c-1.109-.504-1.803-.007-1.803-.007a1.647 1.647 0 0 0 .38 3.126 1.645 1.645 0 0 0 1.105 2.496 1.645 1.645 0 0 0 1.105 2.496 1.645 1.645 0 0 0 2.005 2.403 1.647 1.647 0 0 0 2.923.627c.006.016.01.031.017.047a1.647 1.647 0 0 0 2.172.837c.317-.14.565-.37.733-.645a1.644 1.644 0 0 0 1.52.292c.06-.017.12-.038.18-.064 0 0 .016-.01.023-.011.01-.005.016-.005.025-.01a1.727 1.727 0 0 0 .31-.185c.398-.294.636-.748.663-1.228a1.64 1.64 0 0 0 1.806-2.282c-.006-.015-.015-.028-.022-.044a1.647 1.647 0 0 0 1.496-2.588 1.647 1.647 0 0 0 .786-2.145 1.639 1.639 0 0 0-1.217-.954 1.645 1.645 0 0 0-1.105-2.496 1.645 1.645 0 0 0 .111-1.543h.007Z" fill="#FFE14D"/><path d="M81.846 83.157a.335.335 0 0 0-.611-.277c-.003.007-.34.73-.978 1.099-.6.346-1.043.248-1.056.243.245.264.567.44.915.503l-.036.066c.159-.053.33-.127.512-.23.828-.477 1.237-1.364 1.254-1.402v-.002ZM83.019 85.651a.335.335 0 0 0-.62-.252c-.003.007-.294.699-.919 1.08-.594.362-1.036.27-1.05.269a.307.307 0 0 0-.1-.007c.244.252.559.42.896.48-.025.04-.047.085-.07.127.204-.056.43-.147.673-.295.819-.5 1.176-1.364 1.19-1.4v-.002ZM84.148 88.078a.336.336 0 0 0-.183-.436.338.338 0 0 0-.438.181c-.002.007-.252.59-.964 1.027-.596.367-1.04.29-1.054.288a.334.334 0 0 0-.156.007c.243.293.58.489.944.56.188-.06.395-.15.617-.283.908-.558 1.22-1.313 1.234-1.344ZM92.777 78.428c-.667.215-1.085.063-1.11.054a.336.336 0 0 0-.435.179.338.338 0 0 0 .179.44c.04.017.286.113.685.113.244 0 .543-.035.889-.147a3.05 3.05 0 0 0 .618-.281c-.017-.005-.037-.011-.055-.014.183-.292.27-.64.245-.993-.136.15-.482.48-1.013.652l-.003-.002ZM92.681 80.911a.335.335 0 0 0-.272.612c.042.018.308.13.743.13.233 0 .512-.032.831-.126.25-.073.475-.165.676-.259h-.004c.167-.268.254-.58.25-.902a4.387 4.387 0 0 1-1.112.52c-.672.2-1.085.036-1.11.027l-.002-.002ZM93.713 83.249a.336.336 0 0 0-.272.611c.04.018.334.14.886.14a4.108 4.108 0 0 0 1.444-.263c.15-.25.233-.535.237-.828-.268.132-.717.324-1.201.389-.715.096-1.08-.045-1.094-.052v.003ZM85.365 90.295a.334.334 0 0 0-.277-.382.333.333 0 0 0-.384.277c0 .007-.12.704-.63 1.213-.484.486-.962.513-.98.515a.323.323 0 0 0-.212.085c.393.232.875.3 1.333.156.11-.08.224-.172.335-.283.665-.668.81-1.543.817-1.58h-.002ZM87.528 91.016a.337.337 0 0 0-.435-.176.337.337 0 0 0-.183.435c.007.016.15.388-.067.951-.223.583-.94.974-.944.978a.338.338 0 0 0-.159.185c.286.036.585 0 .869-.127.267-.118.486-.3.65-.518.006.016.01.031.017.047.005.009.01.016.011.022.07-.11.132-.225.181-.348.313-.815.085-1.386.058-1.449h.002ZM94.519 89.246c-.628-.579-1.11-.63-1.163-.632a.333.333 0 0 0-.353.301.34.34 0 0 0 .297.366c.002 0 .317.045.763.458.45.415.6.895.648 1.096.183-.41.2-.895.004-1.34-.006-.015-.015-.028-.022-.044h.025a2.807 2.807 0 0 0-.2-.205ZM95.05 86.81c.13.029.277.076.436.147.627.282.801.695.806.708.035.094.109.16.196.194a1.66 1.66 0 0 0-.138-.716 1.582 1.582 0 0 0-.161-.282c.038-.017.076-.04.112-.062-.21.051-.422.071-.612.071-.293 0-.534-.04-.641-.06h.002ZM94.744 86.394a.335.335 0 0 1 .402-.25l.036.007c-.554-.123-.922-.022-.974-.007a.331.331 0 0 0-.22.413c.05.177.236.28.412.23.014-.004.257-.067.646.02a.27.27 0 0 1-.05-.01.335.335 0 0 1-.25-.403h-.002ZM96.347 86.087c-.433.191-1.018.096-1.165.066.176.038.37.1.578.195.264.118.471.257.634.395.442-.3.703-.79.721-1.308-.073.116-.31.448-.768.65v.002Z" fill="#C6B44B"/><path d="M95.182 86.154a.492.492 0 0 0-.036-.007.335.335 0 0 0-.152.652c.005 0 .023.004.05.011h.006c.105.02.349.06.641.06.19 0 .402-.02.612-.071.031-.018.06-.038.089-.058a2.6 2.6 0 0 0-.634-.395 3.087 3.087 0 0 0-.578-.195l.002.003ZM89.915 91.056a.331.331 0 0 0-.467-.026.337.337 0 0 0-.033.47c.011.014.261.318.25.92-.013.64-.471 1.255-.476 1.262-.01.013-.017.03-.026.045a1.628 1.628 0 0 0 1.02-.741c.018.015.038.026.058.042.054-.185.09-.386.094-.592.018-.868-.373-1.328-.418-1.377l-.002-.002ZM91.674 90.255a.335.335 0 0 0-.326.585c.005 0 .387.223.755.772.295.44.366.983.382 1.172a1.65 1.65 0 0 0 .424-1.007c.009 0 .02 0 .03.003a2.633 2.633 0 0 0-.278-.54c-.464-.693-.964-.974-.984-.985h-.003Z" fill="#C6B44B"/><path d="M90.042 90.76a4.157 4.157 0 0 1-5.478-2.113l-3.023-6.82s.875-1.365 4.112-2.8c3.237-1.436 4.836-1.168 4.836-1.168l3.023 6.82a4.158 4.158 0 0 1-2.112 5.48l-1.358.603v-.003Z" fill="#A31E36"/><path d="M88.363 91.787a4.85 4.85 0 0 1-1.739-.326 4.782 4.782 0 0 1-2.672-2.543l-3.023-6.819a.663.663 0 0 1 .049-.632c.1-.156 1.078-1.576 4.405-3.052s5.035-1.246 5.22-1.214c.22.038.41.183.502.388l3.023 6.82a4.823 4.823 0 0 1-2.454 6.362l-1.357.603a4.794 4.794 0 0 1-1.95.415l-.004-.002Zm-6.041-9.85 2.853 6.438a3.463 3.463 0 0 0 1.931 1.835 3.455 3.455 0 0 0 2.664-.064l1.357-.603a3.487 3.487 0 0 0 1.773-4.595l-2.855-6.439c-.592.016-1.967.172-4.122 1.127-2.152.954-3.192 1.867-3.603 2.298l.002.002Z" fill="#C6B44B"/></g><defs><clipPath id="a"><path fill="#fff" d="M0 0h110v168.417H0z"/></clipPath></defs></svg>