<svg width="3552" height="319" fill="none" xmlns="http://www.w3.org/2000/svg"><mask id="a" style="mask-type:alpha" maskUnits="userSpaceOnUse" x="0" y="0" width="3552" height="319"><path fill="#D9D9D9" d="M0 0h3552v319H0z"/></mask><g mask="url(#a)"><path d="m2338 285 354-354" stroke="#573531" stroke-width="2" stroke-linecap="round"/><rect width="99.198" height="571.15" rx="49.599" transform="scale(-1 1) rotate(-45 -605.977 1634.156)" fill="#F5B444"/><path d="m1237.26 258.347 31.03 31.027-42.39 11.356 11.36-42.383Z" fill="#1E756D"/><circle cx="1418.79" cy="39.791" r="34" fill="#4041E4"/><rect x="2209.06" y="85.001" width="103.292" height="514.857" rx="51.646" transform="rotate(45 2209.06 85)" fill="#1E756D"/><rect x="1363.91" y="73.79" width="50.567" height="157.141" rx="25.284" transform="rotate(45 1363.91 73.79)" fill="#E67823"/><path d="m2399.02 94.968 10.85 56.226-54.12-18.715 43.27-37.51Z" fill="#4041E4"/><path d="m2256 334 162-162" stroke="#573531" stroke-width="5" stroke-linecap="round"/><path d="M2125 198c0 21.539-17.46 39-39 39s-39-17.461-39-39 17.46-39 39-39 39 17.461 39 39Z" fill="#F5B444"/><rect x="1525.43" y="187" width="93.313" height="399.413" rx="46.656" transform="rotate(45 1525.43 187)" fill="#4041E4"/><path d="M622 281 976-73" stroke="#573531" stroke-width="2" stroke-linecap="round"/><rect x="493.059" y="81.001" width="103.292" height="514.857" rx="51.646" transform="rotate(45 493.059 81)" fill="#1E756D"/><path d="m683.019 90.968 10.852 56.226-54.119-18.715 43.267-37.51Z" fill="#4041E4"/><path d="m540 330 162-162" stroke="#573531" stroke-width="5" stroke-linecap="round"/><path d="M409 194c0 21.539-17.461 39-39 39s-39-17.461-39-39 17.461-39 39-39 39 17.461 39 39Z" fill="#F5B444"/><rect width="99.198" height="571.15" rx="49.599" transform="scale(-1 1) rotate(-45 -1468.805 3703.551)" fill="#F5B444"/><path d="m2953.26 254.347 31.03 31.027-42.39 11.356 11.36-42.383Z" fill="#1E756D"/><circle cx="3134.79" cy="35.791" r="34" fill="#4041E4"/><rect x="3079.91" y="69.79" width="50.567" height="157.141" rx="25.284" transform="rotate(45 3079.91 69.79)" fill="#E67823"/><rect x="3241.43" y="183" width="93.313" height="399.413" rx="46.656" transform="rotate(45 3241.43 183)" fill="#4041E4"/></g></svg>