<svg width="147" height="110" viewBox="0 0 147 110" fill="none" xmlns="http://www.w3.org/2000/svg">
<path d="M141.633 4.97461H27.5246C25.7341 4.97461 24.2827 6.42246 24.2827 8.20848V105.241C24.2827 107.027 25.7341 108.475 27.5246 108.475H141.633C143.423 108.475 144.875 107.027 144.875 105.241V8.20848C144.875 6.42246 143.423 4.97461 141.633 4.97461Z" fill="#F5B444"/>
<path d="M141.628 4.97461H27.5246C25.7362 4.97461 24.2827 6.42446 24.2827 8.20848V105.241C24.2827 107.025 25.7362 108.475 27.5246 108.475H128.698C135.879 101.737 141.158 89.1522 144.875 76.7826V8.20848C144.875 6.42446 143.421 4.97461 141.633 4.97461H141.628Z" fill="#D6963A"/>
<path d="M141.628 110H27.5249C24.8935 110 22.7539 107.865 22.7539 105.241V8.20839C22.7539 5.58357 24.8935 3.44922 27.5249 3.44922H141.633C144.265 3.44922 146.404 5.58357 146.404 8.20839V105.241C146.404 107.865 144.265 110 141.633 110H141.628ZM27.5249 6.50522C26.5793 6.50522 25.8121 7.27057 25.8121 8.21378V105.246C25.8121 106.189 26.5793 106.955 27.5249 106.955H141.633C142.579 106.955 143.346 106.189 143.346 105.246V8.20839C143.346 7.26518 142.579 6.49983 141.633 6.49983H27.5249V6.50522Z" fill="#573531"/>
<path d="M119.767 97.7219C137.613 78.2702 143.443 21.9794 144.627 8.09529C144.773 6.41368 143.438 4.97461 141.747 4.97461H26.9576C25.4555 4.97461 24.202 6.12263 24.0777 7.6156C23.0511 19.9043 17.8533 71.8294 2.06003 94.1269C0.709253 96.0295 2.10866 98.6597 4.44821 98.6597H117.627C118.443 98.6597 119.216 98.3202 119.767 97.7219Z" fill="white"/>
<path d="M117.627 100.19H4.44254C2.77838 100.19 1.26551 99.2741 0.498268 97.7919C-0.263572 96.3259 -0.144703 94.585 0.806245 93.2483C7.39265 83.9563 12.8768 68.3368 17.102 46.8262C20.4898 29.5896 22.0405 13.5766 22.5484 7.49155C22.7375 5.22246 24.6718 3.44922 26.9519 3.44922H141.747C142.984 3.44922 144.167 3.96664 145.005 4.87751C145.837 5.78299 146.258 7.00647 146.15 8.22995C145.572 15.0049 143.805 32.7534 139.937 51.138C135.074 74.2601 128.666 90.2839 120.891 98.7567C120.053 99.6675 118.864 100.196 117.622 100.196L117.627 100.19ZM26.9573 6.50522C26.2441 6.50522 25.666 7.03881 25.6066 7.74487C24.3638 22.5883 19.085 72.751 3.31329 95.0108C2.89725 95.6037 3.11338 96.1696 3.22684 96.3852C3.46998 96.8541 3.92925 97.1344 4.45335 97.1344H117.632C118.016 97.1344 118.383 96.9727 118.643 96.6924C136.36 77.3808 142.13 19.3976 143.108 7.97124C143.141 7.58857 143.016 7.22745 142.757 6.94719C142.498 6.66692 142.141 6.51061 141.757 6.51061H26.9573V6.50522Z" fill="#573531"/>
<path d="M78.6543 10.4564L80.2645 12.0626C80.2645 12.0626 81.4207 12.1326 81.5126 11.114L80.3617 8.94727L78.6489 10.4564H78.6543Z" fill="#E5DBD1"/>
<path d="M76.8823 11.114C79.747 11.114 82.0693 8.79744 82.0693 5.93981C82.0693 3.08219 79.747 0.765625 76.8823 0.765625C74.0176 0.765625 71.6953 3.08219 71.6953 5.93981C71.6953 8.79744 74.0176 11.114 76.8823 11.114Z" fill="#F5B444"/>
<mask id="mask0_1519_5334" style="mask-type:luminance" maskUnits="userSpaceOnUse" x="71" y="0" width="12" height="12">
<path d="M76.8823 11.114C79.747 11.114 82.0693 8.79744 82.0693 5.93981C82.0693 3.08219 79.747 0.765625 76.8823 0.765625C74.0176 0.765625 71.6953 3.08219 71.6953 5.93981C71.6953 8.79744 74.0176 11.114 76.8823 11.114Z" fill="white"/>
</mask>
<g mask="url(#mask0_1519_5334)">
<path d="M79.6919 1.58984C79.6919 1.58984 80.778 2.39292 80.8158 3.88589C80.8482 5.15788 79.2813 8.77442 74.7373 8.48337C73.8944 8.42947 72.7165 8.37558 71.6953 6.82332L73.7593 15.6248L84.4413 6.60773L81.891 3.01813L79.6919 1.60062V1.58984Z" fill="#D89027"/>
</g>
<path d="M76.882 11.8791C73.5969 11.8791 70.9277 9.21652 70.9277 5.93954C70.9277 2.66255 73.5969 0 76.882 0C80.1671 0 82.8362 2.66255 82.8362 5.93954C82.8362 9.21652 80.1671 11.8791 76.882 11.8791ZM76.882 1.5307C74.4452 1.5307 72.4622 3.50875 72.4622 5.93954C72.4622 8.37033 74.4452 10.3484 76.882 10.3484C79.3188 10.3484 81.3017 8.37033 81.3017 5.93954C81.3017 3.50875 79.3188 1.5307 76.882 1.5307Z" fill="#573531"/>
<path d="M83.1393 11.5667L81.4211 11.1679C81.4211 11.1679 80.2594 11.502 80.4485 12.165L81.7507 12.8926C81.1402 13.7549 80.9456 14.7035 81.3239 15.5551C82.1073 17.3284 85.0466 18.0021 87.8778 17.0643C90.7145 16.1264 92.3732 13.9328 91.5898 12.1596C90.8063 10.3863 87.867 9.71261 85.0358 10.6504C84.328 10.8876 83.6904 11.2002 83.1501 11.5667H83.1393Z" fill="#F3EEE8"/>
<path d="M43.2372 38.3106C38.4447 38.3106 36.0025 38.316 30.8101 38.3214C31.5989 33.3628 31.9555 30.8296 32.6579 25.623H44.842C44.3124 30.8296 43.9937 33.3574 43.2318 38.3106H43.2372Z" fill="#FF957D"/>
<path d="M56.4959 38.2939C51.8168 38.2939 49.515 38.2993 44.7549 38.3047C45.5059 33.3515 45.8247 30.8291 46.3272 25.6172H57.7818C57.4684 30.8237 57.1983 33.3461 56.4959 38.2939Z" fill="#E5DBD1"/>
<path d="M69.9174 38.2836C65.006 38.2836 62.6664 38.289 57.9819 38.2944C58.6789 33.3466 58.9437 30.8296 59.2355 25.623H70.9008C70.7981 30.8296 70.5766 33.3466 69.9228 38.2836H69.9174Z" fill="#E5DBD1"/>
<path d="M84.2573 38.3214C79.0163 38.2836 76.439 38.2782 71.4844 38.2836C72.1327 33.3412 72.3489 30.8296 72.4299 25.623H85.1867C85.1326 30.8673 84.9111 33.3843 84.2573 38.3214Z" fill="#E5DBD1"/>
<path d="M99.4026 38.4184C93.9401 38.3807 91.2061 38.3645 85.9272 38.3321C86.5918 33.3951 86.8134 30.8727 86.889 25.623H100.645C100.424 30.9481 100.148 33.4813 99.408 38.4238L99.4026 38.4184Z" fill="#E5DBD1"/>
<path d="M114.774 38.5208C109.376 38.4831 106.61 38.4669 101.136 38.4345C101.887 33.4921 102.174 30.9589 102.411 25.623H116.346C115.952 31.0344 115.606 33.5784 114.768 38.5208H114.774Z" fill="#E5DBD1"/>
<path d="M129.557 38.6178C124.505 38.5801 121.852 38.5639 116.476 38.5316C117.324 33.5837 117.676 31.0452 118.092 25.623H131.389C130.848 31.1206 130.454 33.67 129.557 38.6232V38.6178Z" fill="#9AAAF7"/>
<path d="M40.6544 52.3187C35.8673 52.3241 33.4305 52.3295 28.2759 52.3349C29.2538 47.5865 29.6915 45.1827 30.4966 40.2564C35.689 40.251 38.1312 40.2456 42.9291 40.2402C42.1349 45.1611 41.681 47.5649 40.649 52.3133L40.6544 52.3187Z" fill="#F3EEE8"/>
<path d="M53.9188 52.2967C49.2397 52.3021 46.9325 52.3075 42.167 52.3129C43.199 47.5645 43.6583 45.1607 44.4471 40.2398C49.2181 40.2344 51.5252 40.229 56.2043 40.2236C55.4479 45.1391 54.9778 47.5376 53.9134 52.2913L53.9188 52.2967Z" fill="#F3EEE8"/>
<path d="M67.3349 52.2757C62.4396 52.2811 60.0947 52.2865 55.4048 52.2919C56.4692 47.5381 56.9447 45.1343 57.6957 40.2242C62.3856 40.2188 64.7306 40.2134 69.6474 40.208C68.9234 45.1181 68.4371 47.5112 67.3349 52.2703V52.2757Z" fill="#F3EEE8"/>
<path d="M81.6317 52.2858C76.4069 52.2696 73.835 52.2696 68.8911 52.275C69.9988 47.5159 70.4904 45.1174 71.209 40.2127C76.1691 40.2073 78.7464 40.2127 83.982 40.2504C83.2472 45.1551 82.7447 47.5374 81.6317 52.2912V52.2858Z" fill="#F3EEE8"/>
<path d="M96.6632 52.3294C91.2547 52.3133 88.5477 52.3079 83.2959 52.2917C84.4089 47.5433 84.9114 45.161 85.6517 40.2617C90.9251 40.2994 93.6483 40.3156 99.1 40.348C98.295 45.2473 97.7762 47.6134 96.6632 52.3294Z" fill="#F3EEE8"/>
<path d="M111.883 52.3722C106.529 52.356 103.795 52.3507 98.3809 52.3345C99.4939 47.6184 100.013 45.2523 100.828 40.3584C106.286 40.3961 109.041 40.4123 114.434 40.4446C113.542 45.3386 113.007 47.6831 111.883 52.3722Z" fill="#F3EEE8"/>
<path d="M126.618 52.4209C121.555 52.4047 118.913 52.3993 113.58 52.3831C114.704 47.6994 115.244 45.3495 116.141 40.4609C121.506 40.4987 124.154 40.5148 129.2 40.5472C128.26 45.4357 127.715 47.7641 126.618 52.4209Z" fill="#F3EEE8"/>
<path d="M37.5095 65.0489C32.7764 65.0489 30.372 65.0489 25.2715 65.0489C26.3413 61.0659 26.8654 58.9154 27.8812 54.1939C33.025 54.1885 35.4564 54.1831 40.2435 54.1777C39.1791 58.91 38.6442 61.0551 37.5095 65.0489Z" fill="#F3EEE8"/>
<path d="M50.6176 65.049C45.9926 65.049 43.7125 65.049 39.0063 65.049C40.1518 61.0552 40.6867 58.9046 41.7565 54.1724C46.5113 54.167 48.8184 54.1616 53.4921 54.1562C52.3899 58.8939 51.8442 61.0444 50.6122 65.049H50.6176Z" fill="#F3EEE8"/>
<path d="M63.8716 65.0549C59.0304 65.0549 56.7179 65.0549 52.082 65.0549C53.3247 61.0503 53.8705 58.8998 54.9781 54.1568C59.6626 54.1514 62.0022 54.146 66.892 54.1406C65.7465 58.889 65.1954 61.0395 63.8716 65.0549Z" fill="#F3EEE8"/>
<path d="M78.1846 65.0493C72.9057 65.0493 70.296 65.0493 65.4116 65.0493C66.7408 61.0286 67.2973 58.8834 68.4482 54.135C73.3812 54.1297 75.9585 54.135 81.1833 54.1404C80.0271 58.878 79.4921 61.034 78.1792 65.044L78.1846 65.0493Z" fill="#F3EEE8"/>
<path d="M93.2591 65.0387C87.856 65.0387 85.1598 65.0441 79.8647 65.0495C81.1669 61.0395 81.6964 58.8836 82.8527 54.1514C88.1099 54.1621 90.8169 54.1675 96.2254 54.1783C95.0799 58.8836 94.5666 61.0503 93.2591 65.0387Z" fill="#F3EEE8"/>
<path d="M108.485 65.022C103.098 65.022 100.375 65.0274 94.9717 65.0328C96.2846 61.0497 96.7925 58.883 97.938 54.1777C103.352 54.1885 106.08 54.1939 111.44 54.2047C110.295 58.883 109.798 61.0605 108.49 65.0166L108.485 65.022Z" fill="#F3EEE8"/>
<path d="M123.489 65.0115C118.248 65.0115 115.574 65.0169 110.192 65.0223C111.5 61.0662 111.992 58.8888 113.132 54.2158C118.47 54.2266 121.107 54.232 126.18 54.2428C125.073 58.8888 124.64 61.077 123.484 65.0115H123.489Z" fill="#F3EEE8"/>
<path d="M33.6788 76.6966C29.0429 76.6804 26.6818 76.6696 21.6353 76.6535C23.1319 72.5788 23.7371 70.5954 24.8501 66.6123C29.9398 66.6123 32.3388 66.6123 37.0612 66.6177C35.8779 70.6169 35.2187 72.6111 33.6788 76.702V76.6966Z" fill="#F3EEE8"/>
<path d="M46.495 76.7446C41.978 76.7284 39.7519 76.7176 35.1484 76.7015C36.6937 72.616 37.3637 70.6164 38.5578 66.6172C43.2477 66.6172 45.5224 66.6172 50.1313 66.6226C48.8453 70.638 48.1051 72.6483 46.5004 76.75L46.495 76.7446Z" fill="#F3EEE8"/>
<path d="M59.4737 76.7994C54.719 76.7832 52.4551 76.7725 47.9272 76.7563C49.5428 72.6601 50.2884 70.6389 51.5852 66.6289C56.2048 66.6289 58.512 66.6289 63.3423 66.6343C61.9537 70.6605 61.1487 72.6924 59.4737 76.8048V76.7994Z" fill="#F3EEE8"/>
<path d="M73.7431 76.7779C68.4534 76.8156 65.7897 76.821 60.9863 76.8048C62.6667 72.6978 63.4826 70.6605 64.8766 66.6343C69.7502 66.6343 72.3707 66.6343 77.6549 66.6289C76.2717 70.6497 75.4559 72.6762 73.7431 76.7832V76.7779Z" fill="#F3EEE8"/>
<path d="M88.6669 76.6697C83.3556 76.7074 80.7081 76.729 75.4238 76.7667C77.1528 72.6651 77.9633 70.6385 79.3411 66.6231C84.6469 66.6123 87.3377 66.6123 92.7354 66.6016C91.3522 70.59 90.5418 72.5842 88.6723 76.6697H88.6669Z" fill="#F3EEE8"/>
<path d="M103.719 76.5561C98.3379 76.5938 95.6741 76.6154 90.3521 76.6531C92.2485 72.5677 93.059 70.5788 94.4422 66.5958C99.8453 66.585 102.563 66.585 107.955 66.5742C106.561 70.5303 105.756 72.4922 103.719 76.5561Z" fill="#F3EEE8"/>
<path d="M119.01 76.4489C113.526 76.4866 110.814 76.5082 105.427 76.5459C107.475 72.482 108.28 70.5255 109.668 66.5694C115.055 66.5586 117.74 66.5586 123.019 66.5479C121.777 70.4716 121.053 72.3958 119.01 76.4489Z" fill="#F3EEE8"/>
<path d="M28.5189 88.834H16.3564C18.5609 84.4522 19.4578 82.3609 21.0355 78.2539C26.0767 78.2755 28.4324 78.2809 33.0629 78.3024C31.4636 82.4148 30.5666 84.5007 28.5189 88.834Z" fill="#F3EEE8"/>
<path d="M41.4001 88.8339H29.9941C32.0257 84.5059 32.9226 82.42 34.5274 78.3076C39.1254 78.3292 41.3461 78.3346 45.8523 78.3561C44.1989 82.4739 43.2966 84.5598 41.3947 88.8339H41.4001Z" fill="#F3EEE8"/>
<path d="M54.459 88.8346H42.8369C44.7226 84.5659 45.6249 82.4801 47.2837 78.3623C51.8007 78.3839 54.0592 78.3893 58.8085 78.4108C57.1065 82.534 56.2042 84.6145 54.4536 88.8346H54.459Z" fill="#F3EEE8"/>
<path d="M68.5019 88.8341H55.9883C57.7173 84.6246 58.6196 82.5388 60.327 78.4156C65.125 78.4372 67.7941 78.4318 73.0675 78.3887C71.3169 82.5119 70.3714 84.5923 68.5019 88.8341Z" fill="#F3EEE8"/>
<path d="M82.4036 88.834H70.0791C72.008 84.5814 72.9644 82.4956 74.7366 78.3778C80.0046 78.3347 82.6359 78.3185 87.9202 78.2754C85.9697 82.3878 84.8674 84.479 82.4036 88.834Z" fill="#F3EEE8"/>
<path d="M96.4092 88.8339H83.9604C86.4945 84.4682 87.613 82.3769 89.5905 78.2645C94.8801 78.2214 97.5331 78.2052 102.893 78.1621C100.732 82.2691 99.4728 84.3657 96.4038 88.8339H96.4092Z" fill="#F3EEE8"/>
<path d="M111.122 88.8343H98.019C101.147 84.35 102.423 82.2534 104.6 78.1464C109.971 78.1032 112.683 78.0871 118.183 78.0439C115.979 82.1402 114.639 84.2476 111.127 88.8343H111.122Z" fill="#F3EEE8"/>
</svg>
