<svg width="61" height="63" viewBox="0 0 61 63" fill="none" xmlns="http://www.w3.org/2000/svg">
<rect x="5" y="5.62549" width="56" height="56" rx="8" fill="#EEEEEE"/>
<path d="M31.76 31.2175H37.232V34.6255H27.2L31.76 31.2175ZM18.2 25.8175C18.2 24.6015 18.432 23.4495 18.896 22.3615C19.36 21.2735 20 20.3135 20.816 19.4815C21.648 18.6335 22.608 17.9695 23.696 17.4895C24.784 17.0095 25.952 16.7695 27.2 16.7695C28.432 16.7695 29.592 17.0095 30.68 17.4895C31.768 17.9695 32.728 18.6335 33.56 19.4815C34.408 20.3135 35.064 21.2735 35.528 22.3615C36.008 23.4495 36.248 24.6015 36.248 25.8175C36.248 27.0655 36.008 28.2335 35.528 29.3215C35.064 30.4095 34.408 31.3695 33.56 32.2015C32.728 33.0175 31.768 33.6575 30.68 34.1215C29.592 34.5855 28.432 34.8175 27.2 34.8175C25.952 34.8175 24.784 34.5855 23.696 34.1215C22.608 33.6575 21.648 33.0175 20.816 32.2015C20 31.3695 19.36 30.4095 18.896 29.3215C18.432 28.2335 18.2 27.0655 18.2 25.8175ZM21.8 25.8175C21.8 26.5855 21.936 27.3135 22.208 28.0015C22.496 28.6735 22.888 29.2735 23.384 29.8015C23.896 30.3135 24.48 30.7135 25.136 31.0015C25.808 31.2895 26.536 31.4335 27.32 31.4335C28.072 31.4335 28.768 31.2895 29.408 31.0015C30.064 30.7135 30.632 30.3135 31.112 29.8015C31.592 29.2895 31.968 28.6975 32.24 28.0255C32.512 27.3375 32.648 26.6015 32.648 25.8175C32.648 25.0495 32.504 24.3295 32.216 23.6575C31.944 22.9695 31.56 22.3695 31.064 21.8575C30.584 21.3455 30.016 20.9455 29.36 20.6575C28.704 20.3695 27.992 20.2255 27.224 20.2255C26.456 20.2255 25.744 20.3695 25.088 20.6575C24.432 20.9455 23.856 21.3455 23.36 21.8575C22.864 22.3695 22.48 22.9695 22.208 23.6575C21.936 24.3295 21.8 25.0495 21.8 25.8175Z" fill="#573531"/>
<rect x="1" y="1.62549" width="54" height="54" rx="7" stroke="#E67823" stroke-width="2"/>
</svg>
