<svg width="145" height="120" viewBox="0 0 145 120" fill="none" xmlns="http://www.w3.org/2000/svg">
<path d="M101.751 118.703C101.153 115.891 98.6511 113.772 95.6651 113.772C92.6792 113.772 90.1726 115.891 89.579 118.703H3.65246C2.35124 118.703 1.29199 117.644 1.29199 116.343V63.1388C1.29199 61.8376 2.35124 60.7783 3.65246 60.7783H89.579C90.1771 63.5908 92.6792 65.7093 95.6651 65.7093C98.6511 65.7093 101.158 63.5908 101.751 60.7783H126.137C127.438 60.7783 128.497 61.8376 128.497 63.1388V116.348C128.497 117.649 127.438 118.708 126.137 118.708H101.751V118.703Z" fill="#F5B444"/>
<path d="M95.665 115.069C98.3862 115.069 100.596 117.274 100.596 120H126.141C128.159 120 129.794 118.366 129.794 116.348V63.1389C129.794 61.1209 128.159 59.4863 126.141 59.4863H100.596C100.596 62.2075 98.3908 64.4173 95.665 64.4173V115.074V115.069Z" fill="#E67823"/>
<path d="M95.665 72.9321C94.5921 72.9321 93.7246 72.0646 93.7246 70.9917V70.9277C93.7246 69.8548 94.5921 68.9873 95.665 68.9873C96.738 68.9873 97.6055 69.8548 97.6055 70.9277V70.9917C97.6055 72.0646 96.738 72.9321 95.665 72.9321Z" fill="#573531"/>
<path d="M95.665 104.13C94.5921 104.13 93.7246 103.262 93.7246 102.189V102.066C93.7246 100.993 94.5921 100.125 95.665 100.125C96.738 100.125 97.6055 100.993 97.6055 102.066V102.189C97.6055 103.262 96.738 104.13 95.665 104.13ZM95.665 97.8882C94.5921 97.8882 93.7246 97.0208 93.7246 95.9478V95.8245C93.7246 94.7516 94.5921 93.8841 95.665 93.8841C96.738 93.8841 97.6055 94.7516 97.6055 95.8245V95.9478C97.6055 97.0208 96.738 97.8882 95.665 97.8882ZM95.665 91.6469C94.5921 91.6469 93.7246 90.7794 93.7246 89.7065V89.5832C93.7246 88.5103 94.5921 87.6428 95.665 87.6428C96.738 87.6428 97.6055 88.5103 97.6055 89.5832V89.7065C97.6055 90.7794 96.738 91.6469 95.665 91.6469ZM95.665 85.4056C94.5921 85.4056 93.7246 84.5381 93.7246 83.4652V83.3419C93.7246 82.269 94.5921 81.4015 95.665 81.4015C96.738 81.4015 97.6055 82.269 97.6055 83.3419V83.4652C97.6055 84.5381 96.738 85.4056 95.665 85.4056ZM95.665 79.1643C94.5921 79.1643 93.7246 78.2968 93.7246 77.2239V77.1006C93.7246 76.0276 94.5921 75.1602 95.665 75.1602C96.738 75.1602 97.6055 76.0276 97.6055 77.1006V77.2239C97.6055 78.2968 96.738 79.1643 95.665 79.1643Z" fill="#573531"/>
<path d="M95.665 110.312C94.5921 110.312 93.7246 109.444 93.7246 108.372V108.308C93.7246 107.235 94.5921 106.367 95.665 106.367C96.738 106.367 97.6055 107.235 97.6055 108.308V108.372C97.6055 109.444 96.738 110.312 95.665 110.312Z" fill="#573531"/>
<path d="M126.137 62.0751C126.726 62.0751 127.201 62.5545 127.201 63.1389V116.348C127.201 116.937 126.721 117.411 126.137 117.411H102.724C101.665 114.54 98.9023 112.48 95.6652 112.48C92.4282 112.48 89.6659 114.535 88.6067 117.411H3.65256C3.06359 117.411 2.58876 116.932 2.58876 116.348V63.1389C2.58876 62.5499 3.06815 62.0751 3.65256 62.0751H88.6067C89.6659 64.9469 92.4282 67.006 95.6652 67.006C98.9023 67.006 101.665 64.9515 102.724 62.0751H126.137ZM126.137 59.4863H100.592C100.592 62.2075 98.3864 64.4173 95.6607 64.4173C92.9349 64.4173 90.7297 62.2121 90.7297 59.4863H3.65256C1.63452 59.4863 0 61.1209 0 63.1389V116.348C0 118.366 1.63452 120 3.65256 120H90.7343C90.7343 117.279 92.9395 115.069 95.6652 115.069C98.391 115.069 100.596 117.274 100.596 120H126.141C128.159 120 129.794 118.366 129.794 116.348V63.1389C129.794 61.1209 128.159 59.4863 126.141 59.4863H126.137Z" fill="#573531"/>
<path d="M19.7141 87.5197H16.2441V85.4697H25.339V87.5197H21.8691V98.0528H19.7141V87.5197Z" fill="#D35E0D"/>
<path d="M28.4854 85.4697H30.6404V98.0528H28.4854V85.4697Z" fill="#D35E0D"/>
<path d="M43.9262 94.7066L45.3644 96.1265C45.3644 96.1265 43.7116 98.2632 40.5293 98.2632C36.8996 98.2632 34.1465 95.4782 34.1465 91.7571C34.1465 88.0361 36.895 85.251 40.5293 85.251C43.5473 85.251 45.1864 87.2279 45.1864 87.2279L43.7299 88.6479C43.7299 88.6479 42.5976 87.2645 40.5293 87.2645C38.0502 87.2645 36.3426 89.3327 36.3426 91.7571C36.3426 94.1815 38.0502 96.2498 40.5293 96.2498C42.7391 96.2498 43.9262 94.702 43.9262 94.702V94.7066Z" fill="#D35E0D"/>
<path d="M50.4825 91.1126L54.9752 85.4694H57.6689L52.7425 91.6514L58.2762 98.0479H55.418L50.4734 92.3682V98.0479H48.3184V85.4648H50.4734V91.1081L50.4825 91.1126Z" fill="#D35E0D"/>
<path d="M63.0795 90.5742H68.1109V92.6242H63.0795V96.0028H68.6497V98.0528H60.9199V85.4697H68.5401V87.5197H63.0749V90.5742H63.0795Z" fill="#D35E0D"/>
<path d="M74.4397 87.5197H70.9697V85.4697H80.0646V87.5197H76.5947V98.0528H74.4397V87.5197Z" fill="#D35E0D"/>
<path d="M18.802 86.6066H15.332V84.5566H24.4269V86.6066H20.957V97.1397H18.802V86.6066Z" fill="#E67823"/>
<path d="M21.1899 97.3678H18.5783V86.8347H15.1084V84.3281H24.6599V86.8347H21.1899V97.3678ZM19.0349 96.9112H20.7333V86.3781H24.2033V84.7847H15.565V86.3781H19.0349V96.9112Z" fill="#573531"/>
<path d="M27.5723 84.5566H29.7273V97.1397H27.5723V84.5566Z" fill="#E67823"/>
<path d="M29.9602 97.3678H27.3486V84.3281H29.9602V97.3678ZM27.8052 96.9112H29.5036V84.7847H27.8052V96.9112Z" fill="#573531"/>
<path d="M43.0141 93.7935L44.4523 95.2134C44.4523 95.2134 42.7995 97.3502 39.6172 97.3502C35.9875 97.3502 33.2344 94.5651 33.2344 90.844C33.2344 87.123 35.9829 84.3379 39.6172 84.3379C42.6352 84.3379 44.2743 86.3148 44.2743 86.3148L42.8178 87.7348C42.8178 87.7348 41.6855 86.3514 39.6172 86.3514C37.1381 86.3514 35.4305 88.4196 35.4305 90.844C35.4305 93.2684 37.1381 95.3367 39.6172 95.3367C41.827 95.3367 43.0141 93.7889 43.0141 93.7889V93.7935Z" fill="#E67823"/>
<path d="M39.6121 97.5821C35.8454 97.5821 33.001 94.6875 33.001 90.8477C33.001 87.0079 35.8408 84.1133 39.6121 84.1133C42.7031 84.1133 44.3741 86.0902 44.4426 86.1724L44.575 86.3322L42.7899 88.0717L42.6301 87.88C42.6301 87.88 41.5343 86.5788 39.6076 86.5788C37.3521 86.5788 35.6491 88.4142 35.6491 90.8431C35.6491 93.2721 37.3521 95.1075 39.6076 95.1075C41.6713 95.1075 42.8127 93.6647 42.8218 93.651L42.9816 93.4456L44.7485 95.1897L44.6253 95.3495C44.5568 95.4408 42.8675 97.5775 39.6076 97.5775L39.6121 97.5821ZM39.6121 84.5699C36.1057 84.5699 33.4575 87.2682 33.4575 90.8477C33.4575 94.4272 36.1011 97.1255 39.6121 97.1255C42.1552 97.1255 43.6939 95.701 44.1322 95.2262L43.0181 94.1259C42.6072 94.5596 41.4475 95.5686 39.6076 95.5686C37.0918 95.5686 35.1925 93.5369 35.1925 90.8477C35.1925 88.1585 37.0918 86.1268 39.6076 86.1268C41.3197 86.1268 42.4155 87.0171 42.8127 87.4143L43.9404 86.314C43.4884 85.8619 41.9863 84.5699 39.603 84.5699H39.6121Z" fill="#573531"/>
<path d="M49.5704 90.1995L54.0631 84.5563H56.7568L51.8304 90.7383L57.3641 97.1348H54.5059L49.5613 91.4551V97.1348H47.4062V84.5518H49.5613V90.195L49.5704 90.1995Z" fill="#E67823"/>
<path d="M57.8703 97.3678H54.4095L49.7981 92.0716V97.3678H47.1865V84.3281H49.7981V89.5467L53.9529 84.3281H57.2311L52.1312 90.7338L57.8703 97.3678ZM54.6149 96.9112H56.8704L51.5376 90.7475L56.286 84.7847H54.1721L49.3415 90.8525L54.6149 96.9112ZM47.6385 96.9112H49.337V84.7847H47.6385V96.9112Z" fill="#573531"/>
<path d="M62.1664 89.6611H67.1978V91.7111H62.1664V95.0897H67.7366V97.1397H60.0068V84.5566H67.627V86.6066H62.1618V89.6611H62.1664Z" fill="#E67823"/>
<path d="M67.9646 97.3678H59.7783V84.3281H67.8551V86.8347H62.3899V89.4326H67.4213V91.9392H62.3899V94.8612H67.9601V97.3678H67.9646ZM60.2349 96.9112H67.5081V95.3178H61.9379V91.4826H66.9693V89.8892H61.9379V86.3781H67.4031V84.7847H60.2395V96.9112H60.2349Z" fill="#573531"/>
<path d="M73.5256 86.6066H70.0557V84.5566H79.1505V86.6066H75.6806V97.1397H73.5256V86.6066Z" fill="#E67823"/>
<path d="M75.9096 97.3678H73.2981V86.8347H69.8281V84.3281H79.3796V86.8347H75.9096V97.3678ZM73.7546 96.9112H75.4531V86.3781H78.923V84.7847H70.2847V86.3781H73.7546V96.9112Z" fill="#573531"/>
<path d="M84.5478 113.503H11.9805C11.6243 113.503 11.3321 113.216 11.3321 112.855C11.3321 111.138 9.93503 109.737 8.21376 109.737C7.85763 109.737 7.56543 109.449 7.56543 109.088V70.4717C7.56543 70.1156 7.85307 69.8233 8.21376 69.8233C9.93047 69.8233 11.3321 68.4262 11.3321 66.705C11.3321 66.3488 11.6198 66.0566 11.9805 66.0566H84.5432C84.8994 66.0566 85.1916 66.3443 85.1916 66.705C85.1916 68.4217 86.5887 69.8233 88.3099 69.8233C88.6661 69.8233 88.9583 70.111 88.9583 70.4717V109.093C88.9583 109.449 88.6706 109.741 88.3099 109.741C86.5932 109.741 85.1916 111.138 85.1916 112.86C85.1916 113.216 84.9039 113.508 84.5432 113.508L84.5478 113.503ZM12.5831 112.211H83.9497C84.2327 110.298 85.7486 108.778 87.6662 108.495V71.0698C85.7531 70.7867 84.2327 69.2709 83.9497 67.3533H12.5831C12.3001 69.2663 10.7843 70.7867 8.86666 71.0698V108.495C10.7797 108.778 12.3001 110.298 12.5831 112.211Z" fill="#E67823"/>
<path d="M90.9731 101.467C91.8293 98.7225 90.6857 95.65 88.0825 94.1874C85.4792 92.7248 82.2563 93.3439 80.3612 95.5052L5.44852 53.4163C4.31408 52.779 3.90945 51.3367 4.54682 50.2022L30.6075 3.81767C31.2448 2.68324 32.6871 2.27861 33.8216 2.91598L108.734 45.0048C107.878 47.7498 109.022 50.8222 111.625 52.2848C114.228 53.7474 117.451 53.1283 119.346 50.967L140.606 62.9116C141.74 63.549 142.145 64.9913 141.508 66.1257L115.445 112.514C114.807 113.649 113.365 114.053 112.231 113.416L90.9709 101.471L90.9731 101.467Z" fill="#F5B444"/>
<path d="M87.4471 95.3178C89.8194 96.6506 90.6658 99.6556 89.3307 102.032L111.601 114.545C113.361 115.533 115.586 114.909 116.575 113.149L142.638 66.7608C143.626 65.0014 143.002 62.7758 141.243 61.7873L118.972 49.2747C117.639 51.647 114.634 52.4934 112.258 51.1583L87.4448 95.3217L87.4471 95.3178Z" fill="#E67823"/>
<path d="M108.088 58.582C107.152 58.0564 106.821 56.8752 107.346 55.9398L107.378 55.8841C107.903 54.9487 109.084 54.6173 110.02 55.1428C110.955 55.6684 111.287 56.8496 110.761 57.785L110.73 57.8407C110.204 58.7762 109.023 59.1075 108.088 58.582Z" fill="#573531"/>
<path d="M92.8055 85.7799C91.8701 85.2543 91.5387 84.0731 92.0643 83.1377L92.1247 83.0302C92.6502 82.0948 93.8314 81.7634 94.7668 82.289C95.7023 82.8145 96.0336 83.9957 95.5081 84.9312L95.4477 85.0386C94.9221 85.974 93.7409 86.3054 92.8055 85.7799ZM95.8627 80.3385C94.9273 79.813 94.5959 78.6318 95.1214 77.6964L95.1818 77.5889C95.7074 76.6535 96.8886 76.3221 97.824 76.8477C98.7594 77.3732 99.0908 78.5544 98.5652 79.4898L98.5048 79.5973C97.9793 80.5327 96.7981 80.8641 95.8627 80.3385ZM98.9198 74.8972C97.9844 74.3717 97.653 73.1905 98.1786 72.2551L98.239 72.1476C98.7645 71.2122 99.9457 70.8808 100.881 71.4063C101.817 71.9319 102.148 73.1131 101.622 74.0485L101.562 74.156C101.036 75.0914 99.8552 75.4228 98.9198 74.8972ZM101.977 69.4559C101.042 68.9304 100.71 67.7492 101.236 66.8137L101.296 66.7063C101.822 65.7709 103.003 65.4395 103.938 65.965C104.874 66.4906 105.205 67.6718 104.68 68.6072L104.619 68.7147C104.094 69.6501 102.912 69.9815 101.977 69.4559ZM105.034 64.0146C104.099 63.489 103.767 62.3078 104.293 61.3724L104.353 61.2649C104.879 60.3295 106.06 59.9982 106.995 60.5237C107.931 61.0493 108.262 62.2305 107.737 63.1659L107.676 63.2733C107.151 64.2088 105.97 64.5401 105.034 64.0146Z" fill="#573531"/>
<path d="M89.778 91.1699C88.8426 90.6443 88.5112 89.4631 89.0368 88.5277L89.0681 88.472C89.5936 87.5366 90.7748 87.2052 91.7103 87.7307C92.6457 88.2563 92.9771 89.4375 92.4515 90.3729L92.4202 90.4286C91.8946 91.364 90.7134 91.6954 89.778 91.1699Z" fill="#573531"/>
<path d="M139.971 64.0416C140.485 64.3301 140.664 64.9807 140.378 65.4902L114.315 111.879C114.026 112.392 113.376 112.571 112.866 112.285L92.4543 100.817C92.9375 97.7943 91.5379 94.6461 88.7158 93.0605C85.8936 91.4749 82.4791 91.9131 80.1467 93.902L6.08183 52.2895C5.56835 52.001 5.3892 51.3504 5.67546 50.8409L31.7383 4.45242C32.0268 3.93894 32.6774 3.75979 33.1869 4.04604L107.252 45.6585C106.768 48.6811 108.168 51.8293 110.99 53.4149C113.812 55.0005 117.227 54.5623 119.559 52.5735L139.971 64.0416ZM141.239 61.7847L118.968 49.2721C117.636 51.6445 114.631 52.4909 112.254 51.1557C109.878 49.8206 109.036 46.8179 110.371 44.4415L34.4549 1.78911C32.6955 0.800627 30.4699 1.42501 29.4814 3.18439L3.41852 49.5729C2.43004 51.3323 3.05443 53.5579 4.8138 54.5464L80.7335 97.2011C82.0664 94.8287 85.0714 93.9823 87.4477 95.3174C89.8241 96.6526 90.6665 99.6553 89.3314 102.032L111.602 114.544C113.362 115.533 115.587 114.908 116.576 113.149L142.639 66.7604C143.627 65.0011 143.003 62.7754 141.243 61.787L141.239 61.7847Z" fill="#573531"/>
<path d="M34.7261 34.0972L31.7009 32.3976L32.7051 30.6104L40.6342 35.0652L39.6301 36.8525L36.6049 35.1528L31.4455 44.3358L29.5668 43.2802L34.7261 34.0972Z" fill="#D35E0D"/>
<path d="M43.3779 36.6055L45.2567 37.661L39.0932 48.6313L37.2144 47.5757L43.3779 36.6055Z" fill="#D35E0D"/>
<path d="M52.3146 52.2214L52.8729 54.1638C52.8729 54.1638 50.3853 55.2171 47.6109 53.6583C44.4464 51.8804 43.4104 48.1038 45.2331 44.8597C47.0557 41.6156 50.8162 40.5338 53.9846 42.314C56.6157 43.7922 57.0764 46.3186 57.0764 46.3186L55.1111 46.8432C55.1111 46.8432 54.8015 45.0824 52.9984 44.0694C50.837 42.855 48.3352 43.8218 47.1477 45.9354C45.9602 48.049 46.4358 50.6886 48.5972 51.9029C50.5237 52.9854 52.3168 52.2174 52.3168 52.2174L52.3146 52.2214Z" fill="#D35E0D"/>
<path d="M59.7912 52.3003L66.4722 49.581L68.8207 50.9005L61.4977 53.877L63.1888 62.1642L60.6971 60.7642L59.1683 53.3905L56.3862 58.3422L54.5074 57.2866L60.6709 46.3164L62.5497 47.372L59.7855 52.2919L59.7912 52.3003Z" fill="#D35E0D"/>
<path d="M71.0368 58.0012L75.4233 60.4657L74.4191 62.2529L70.0326 59.7884L68.3777 62.734L73.2339 65.4623L72.2298 67.2496L65.4908 63.4634L71.6543 52.4932L78.2977 56.2257L77.2936 58.0129L72.5289 55.336L71.0328 57.9989L71.0368 58.0012Z" fill="#D35E0D"/>
<path d="M82.437 60.9019L79.4119 59.2023L80.416 57.415L88.3451 61.8699L87.341 63.6572L84.3158 61.9575L79.1565 71.1405L77.2777 70.0849L82.437 60.9019Z" fill="#D35E0D"/>
<path d="M34.3775 32.8531L31.3523 31.1534L32.3564 29.3662L40.2856 33.8211L39.2814 35.6083L36.2563 33.9087L31.0969 43.0916L29.2181 42.0361L34.3775 32.8531Z" fill="#E67823"/>
<path d="M31.1883 43.4047L28.9115 42.1255L34.0708 32.9426L31.0457 31.2429L32.2734 29.0576L40.6006 33.7361L39.3728 35.9214L36.3477 34.2218L31.1883 43.4047ZM29.5332 41.9511L31.0139 42.7831L36.1733 33.6001L39.1984 35.2997L39.9789 33.9106L32.4478 29.6793L31.6673 31.0685L34.6925 32.7681L29.5332 41.9511Z" fill="#573531"/>
<path d="M43.0283 35.3623L44.9071 36.4179L38.7436 47.3881L36.8648 46.3325L43.0283 35.3623Z" fill="#E67823"/>
<path d="M38.835 47.7012L36.5582 46.422L42.9453 35.0537L45.2221 36.3329L38.835 47.7012ZM37.1799 46.2476L38.6606 47.0795L44.6005 36.5073L43.1197 35.6754L37.1799 46.2476Z" fill="#573531"/>
<path d="M51.9669 50.9783L52.5252 52.9207C52.5252 52.9207 50.0377 53.9739 47.2633 52.4152C44.0988 50.6373 43.0628 46.8606 44.8854 43.6165C46.7081 40.3724 50.4685 39.2906 53.637 41.0708C56.2681 42.5491 56.7287 45.0755 56.7287 45.0755L54.7634 45.6C54.7634 45.6 54.4539 43.8393 52.6507 42.8262C50.4893 41.6118 47.9875 42.5786 46.8 44.6922C45.6125 46.8059 46.0881 49.4454 48.2495 50.6598C50.1761 51.7422 51.9691 50.9743 51.9691 50.9743L51.9669 50.9783Z" fill="#E67823"/>
<path d="M47.1449 52.6165C43.861 50.7714 42.799 46.8545 44.6798 43.507C46.5606 40.1594 50.4544 39.0268 53.7423 40.874C56.437 42.3881 56.9255 44.9301 56.945 45.0353L56.9822 45.2395L54.5737 45.8816L54.5283 45.6362C54.5283 45.6362 54.2104 43.965 52.5306 43.0213C50.5643 41.9165 48.1805 42.6825 46.9908 44.8001C45.801 46.9177 46.3867 49.352 48.353 50.4568C50.1522 51.4676 51.854 50.7689 51.8687 50.7614L52.1087 50.6606L52.7948 53.0466L52.6091 53.1256C52.5046 53.1716 49.9852 54.207 47.1432 52.6102L47.1449 52.6165ZM53.5186 41.2721C50.4616 39.5545 46.8312 40.6099 45.0779 43.7306C43.3246 46.8513 44.3076 50.4986 47.3685 52.2184C49.5857 53.4641 51.6249 52.9758 52.2396 52.7766L51.8073 51.2716C51.2366 51.4484 49.7313 51.7601 48.1272 50.8588C45.9339 49.6266 45.2732 46.9249 46.5905 44.5804C47.9077 42.2359 50.5588 41.3949 52.752 42.6272C54.2447 43.4658 54.7639 44.7788 54.9157 45.3196L56.4378 44.9127C56.2651 44.2973 55.5885 42.435 53.5107 41.2676L53.5186 41.2721Z" fill="#573531"/>
<path d="M59.4426 51.0571L66.1236 48.3379L68.4721 49.6573L61.149 52.6339L62.8402 60.921L60.3484 59.521L58.8196 52.1473L56.0376 57.099L54.1588 56.0434L60.3223 45.0732L62.2011 46.1288L59.4369 51.0487L59.4426 51.0571Z" fill="#E67823"/>
<path d="M63.1674 61.3719L60.1502 59.6767L58.7242 52.8006L56.1299 57.418L53.8531 56.1388L60.2402 44.7705L62.5171 46.0497L59.9609 50.5994L66.1393 48.0848L68.9973 49.6906L61.4134 52.7771L63.1674 61.3719ZM60.553 59.3793L62.5193 60.4841L60.8893 52.4983L67.9497 49.6257L66.1067 48.5902L58.9232 51.5142L60.553 59.3793ZM54.4708 55.9621L55.9516 56.7941L61.8914 46.2219L60.4107 45.39L54.4708 55.9621Z" fill="#573531"/>
<path d="M70.6882 56.758L75.0746 59.2225L74.0705 61.0097L69.684 58.5452L68.0291 61.4908L72.8853 64.2192L71.8811 66.0064L65.1422 62.2202L71.3057 51.25L77.9491 54.9825L76.945 56.7698L72.1803 54.0928L70.6842 56.7558L70.6882 56.758Z" fill="#E67823"/>
<path d="M71.9686 66.3166L64.8316 62.3067L71.2188 50.9385L78.2602 54.8946L77.0324 57.0799L72.2678 54.403L70.9953 56.6679L75.3818 59.1324L74.154 61.3177L69.7675 58.8532L68.3362 61.4007L73.1924 64.1291L71.9647 66.3143L71.9686 66.3166ZM65.4533 62.1323L71.7942 65.6949L72.5747 64.3057L67.7185 61.5773L69.5971 58.2337L73.9836 60.6982L74.7641 59.309L70.3776 56.8445L72.0974 53.7835L76.862 56.4605L77.6425 55.0713L71.3971 51.5624L65.4573 62.1346L65.4533 62.1323Z" fill="#573531"/>
<path d="M82.0884 59.6588L79.0632 57.9591L80.0674 56.1719L87.9965 60.6268L86.9924 62.414L83.9672 60.7143L78.8078 69.8973L76.9291 68.8417L82.0884 59.6588Z" fill="#E67823"/>
<path d="M78.8944 70.2085L76.6175 68.9292L81.7769 59.7463L78.7517 58.0466L79.9795 55.8613L88.3067 60.5399L87.0789 62.7251L84.0537 61.0255L78.8944 70.2085ZM77.2392 68.7548L78.72 69.5868L83.8793 60.4038L86.9045 62.1035L87.685 60.7143L80.1539 56.483L79.3734 57.8722L82.3986 59.5719L77.2392 68.7548Z" fill="#573531"/>
<path d="M78.5218 88.5065L15.256 52.9613C14.9456 52.7869 14.8317 52.393 15.0084 52.0786C15.8493 50.5819 15.3178 48.6755 13.8172 47.8324C13.5067 47.658 13.3928 47.2641 13.5695 46.9496L32.4849 13.2827C32.6593 12.9722 33.0532 12.8584 33.3677 13.0351C34.8643 13.8759 36.7707 13.3445 37.6138 11.8438C37.7882 11.5334 38.1821 11.4195 38.4966 11.5962L101.758 47.1391C102.069 47.3135 102.183 47.7074 102.006 48.0219C101.165 49.5186 101.697 51.4249 103.197 52.268C103.508 52.4425 103.622 52.8364 103.445 53.1508L84.5273 86.8217C84.3529 87.1322 83.959 87.2461 83.6445 87.0694C82.1478 86.2285 80.2415 86.7599 79.3984 88.2606C79.2239 88.5711 78.8301 88.6849 78.5156 88.5083L78.5218 88.5065ZM16.4144 52.1301L78.6333 87.0871C79.8171 85.5579 81.8833 84.9749 83.6938 85.6674L102.025 53.0394C100.496 51.8555 99.9133 49.7893 100.606 47.9788L38.3869 13.0218C37.203 14.551 35.1368 15.134 33.3263 14.4415L14.9947 47.0695C16.5238 48.2534 17.1046 50.3236 16.4144 52.1301Z" fill="#E67823"/>
</svg>
