<svg width="120" height="120" viewBox="0 0 120 120" fill="none" xmlns="http://www.w3.org/2000/svg">
<path d="M112.988 118.11H6.11778C3.12925 118.11 1.08145 115.094 2.18279 112.308L19.1618 69.4299C19.7985 67.8157 21.3587 66.7529 23.0968 66.7529H96.0147C97.747 66.7529 99.3072 67.8157 99.9497 69.4299L116.929 112.308C118.03 115.088 115.982 118.11 112.994 118.11H112.988Z" fill="#F3EEE8"/>
<path d="M43.7074 89.4963H18.6806C15.7093 89.4963 13.6615 86.5091 14.7342 83.7344L20.0745 69.8726C20.7055 68.2411 22.2715 67.1611 24.021 67.1611H45.0669C47.5679 67.1611 49.5239 69.3211 49.2773 71.8143L47.912 85.6761C47.6998 87.8476 45.8757 89.4963 43.7017 89.4963H43.7074Z" fill="#1E756D"/>
<path d="M85.9366 89.4955H60.732C58.3515 89.4955 56.4414 87.5309 56.5044 85.1468V84.9917C56.5675 82.6939 58.4433 80.8613 60.7377 80.8613H85.8965C87.8238 80.8613 89.5045 82.1596 89.9921 84.0266L90.0322 84.1817C90.732 86.8645 88.7072 89.4898 85.9366 89.4898V89.4955Z" fill="#E5DBD1"/>
<path d="M59.9806 117.07H5.55605C3.78932 117.07 2.57326 115.295 3.20997 113.647L9.88684 96.315C10.5178 94.6835 12.0838 93.6035 13.8333 93.6035H59.4988C61.7818 93.6035 63.6518 95.4188 63.7263 97.7052L64.2082 112.699C64.2827 115.088 62.3669 117.07 59.9806 117.07Z" fill="#E5DBD1"/>
<path d="M113.258 117.07H80.2234C78.0724 117.07 76.2597 115.45 76.0188 113.308L74.3267 98.3141C74.0456 95.8037 76.0073 93.6035 78.5312 93.6035H105.371C107.12 93.6035 108.686 94.6778 109.317 96.315L115.862 113.273C116.568 115.106 115.22 117.076 113.258 117.076V117.07Z" fill="#4041E4"/>
<path d="M82.6443 76.8867H61.0591C58.6786 76.8867 56.7685 74.922 56.8316 72.538L56.866 71.2857C56.9234 68.9878 58.7991 67.1553 61.0936 67.1553H82.323C84.2504 67.1553 85.9311 68.4536 86.4186 70.3206L86.7456 71.5729C87.4454 74.2557 85.4206 76.881 82.65 76.881L82.6443 76.8867Z" fill="#E5DBD1"/>
<path d="M112.988 120H6.1183C4.0877 120 2.20051 118.994 1.05902 117.317C-0.0824764 115.634 -0.317658 113.502 0.433777 111.618L17.4128 68.7402C18.342 66.3906 20.5734 64.874 23.0973 64.874H96.0152C98.5391 64.874 100.77 66.3906 101.7 68.7402L118.679 111.618C119.424 113.508 119.195 115.639 118.053 117.317C116.912 118.994 115.019 120 112.994 120H112.988ZM23.0916 68.6425C22.1221 68.6425 21.2675 69.2227 20.9118 70.1246L3.93856 113.008C3.64602 113.744 3.7378 114.542 4.17948 115.191C4.62116 115.846 5.33245 116.22 6.1183 116.22H112.988C113.78 116.22 114.486 115.846 114.927 115.191C115.369 114.537 115.455 113.744 115.168 113.008L98.1892 70.1304C97.8335 69.2285 96.9789 68.6483 96.0095 68.6483H23.0916V68.6425Z" fill="#573531"/>
<path opacity="0.25" d="M59.5507 100.997C74.9059 100.997 87.3538 97.1619 87.3538 92.4315C87.3538 87.701 74.9059 83.8662 59.5507 83.8662C44.1954 83.8662 31.7476 87.701 31.7476 92.4315C31.7476 97.1619 44.1954 100.997 59.5507 100.997Z" fill="black"/>
<path d="M59.5506 1.63184C42.6232 1.63184 29.4014 12.3686 28.9023 32.3255C28.4033 52.2824 53.5964 84.5903 59.5506 84.5903C65.5047 84.5903 90.7151 53.1154 90.1988 32.3255C89.6825 11.5356 76.4779 1.63184 59.5506 1.63184C42.6232 1.63184 29.4014 12.3686 28.9023 32.3255C28.4033 52.2824 53.5964 84.5903 59.5506 84.5903C65.5047 84.5903 90.7151 53.1154 90.1988 32.3255C89.6825 11.5356 76.4779 1.63184 59.5506 1.63184Z" fill="#E67823"/>
<mask id="mask0_1519_5389" style="mask-type:luminance" maskUnits="userSpaceOnUse" x="28" y="1" width="63" height="84">
<path d="M59.5506 1.63184C42.6232 1.63184 29.4014 12.3686 28.9023 32.3255C28.4033 52.2824 53.5964 84.5903 59.5506 84.5903C65.5047 84.5903 90.7151 53.1154 90.1988 32.3255C89.6825 11.5356 76.4779 1.63184 59.5506 1.63184C42.6232 1.63184 29.4014 12.3686 28.9023 32.3255C28.4033 52.2824 53.5964 84.5903 59.5506 84.5903C65.5047 84.5903 90.7151 53.1154 90.1988 32.3255C89.6825 11.5356 76.4779 1.63184 59.5506 1.63184Z" fill="white"/>
</mask>
<g mask="url(#mask0_1519_5389)">
<path d="M81.8813 10.3232C87.3249 20.4166 87.2905 29.4759 82.5294 40.7239C71.9979 65.581 59.5562 68.6487 48.3191 65.3225C42.537 63.6106 38.5103 60.0547 38.5103 60.0547C38.5103 60.0547 52.8449 83.7628 59.5562 84.5901C66.2675 85.4173 109.409 33.1984 81.8813 10.3232Z" fill="#CC6017"/>
</g>
<path d="M59.5505 47.824C67.6162 47.824 74.1547 41.2758 74.1547 33.1981C74.1547 25.1205 67.6162 18.5723 59.5505 18.5723C51.4848 18.5723 44.9463 25.1205 44.9463 33.1981C44.9463 41.2758 51.4848 47.824 59.5505 47.824Z" fill="white"/>
<path d="M59.5507 86.2157C58.8222 86.2157 56.5966 86.2157 50.9981 80.4653C41.0517 70.2513 27.2677 48.91 27.2734 32.9513C27.2734 32.7273 27.2734 32.5032 27.2792 32.2792C27.7667 12.6727 40.4379 0 59.5507 0C78.6636 0 91.3347 12.6727 91.8223 32.2792C91.8223 32.5032 91.828 32.7273 91.828 32.9513C91.828 41.9532 87.4571 51.9144 83.7286 58.7563C79.3634 66.7816 73.5183 74.8987 68.0976 80.4596C62.4991 86.21 60.2735 86.21 59.545 86.21L59.5507 86.2157ZM30.5258 32.9571C30.5258 47.8357 44.0402 68.6543 53.327 78.1904C57.9159 82.9068 59.5393 82.9585 59.5507 82.9585C59.5622 82.9585 61.1855 82.9068 65.7745 78.1904C75.0613 68.6543 88.5814 47.8357 88.5756 32.9571C88.5756 32.756 88.5756 32.5607 88.5699 32.3654C88.3462 23.3118 85.3519 15.815 79.9198 10.6793C74.7802 5.82508 67.7362 3.25722 59.5507 3.25722C51.3653 3.25722 44.3213 5.82508 39.1817 10.6793C33.7495 15.815 30.7553 23.3118 30.5316 32.3654C30.5316 32.5607 30.5258 32.7617 30.5258 32.9571Z" fill="#573531"/>
</svg>
