<svg width="139" height="128" viewBox="0 0 139 128" fill="none" xmlns="http://www.w3.org/2000/svg">
<g filter="url(#filter0_d_1601_303)">
<path d="M49.4769 70.2334H131.075C132.87 70.2334 133.095 71.6856 131.585 73.4798L96.6753 114.921C95.165 116.715 92.4866 118.168 90.6924 118.168H9.09391C7.29969 118.168 7.0738 116.715 8.58404 114.921L43.494 73.4798C45.0042 71.6856 47.6826 70.2334 49.4769 70.2334Z" fill="#F3EEE8"/>
<path d="M90.6923 120H9.0939C7.04797 120 6.26703 118.793 6.02823 118.277C5.67326 117.515 5.35701 115.914 7.1835 113.746L42.0934 72.3045C43.9651 70.0843 47.1405 68.4062 49.4768 68.4062H131.075C133.121 68.4062 133.902 69.6132 134.147 70.1295C134.502 70.8911 134.819 72.4917 132.992 74.6602L98.0822 116.102C96.2105 118.322 93.0352 120 90.6988 120M9.79739 116.34H90.6988C91.8283 116.34 94.0291 115.23 95.2812 113.746L130.191 72.3045C130.262 72.2206 130.327 72.1431 130.378 72.0657H49.4768C48.3474 72.0657 46.1466 73.1758 44.8945 74.6602L9.9781 116.102C9.90711 116.186 9.84257 116.269 9.79094 116.34" fill="#573531"/>
<path d="M33.0644 87.3164L8.52614 116.721C7.40959 118.044 8.1518 119.115 10.1784 119.115H39.5959L66.1543 87.3164H33.0644Z" fill="#E67823"/>
<path d="M17.0516 102.02H16.9548L13.7085 105.911C13.5277 106.131 13.3664 106.344 13.2373 106.55L17.0516 102.026" fill="#BFBFBF"/>
<path d="M130.03 72.0596H118.277L96.3268 98.121C94.4551 100.341 91.2797 102.019 88.9434 102.019H53.8786L47.915 109.157H95.8298C97.6241 109.157 100.302 107.705 101.813 105.911L129.83 72.3048C129.901 72.2209 129.965 72.1435 130.023 72.0596" fill="#B6B2AE"/>
<path d="M53.8723 102.02H21.8409L15.8257 109.158H47.9152L53.8723 102.02Z" fill="#AC5A1A"/>
<path d="M49.4768 68.4004H131.075C133.121 68.4004 133.902 69.6073 134.147 70.1236C134.502 70.8852 134.819 72.4793 132.992 74.6544L98.0822 116.096C96.2105 118.316 93.0352 119.994 90.6988 119.994H9.0939C7.04797 119.994 6.26703 118.787 6.02823 118.271C5.67326 117.509 5.35701 115.915 7.1835 113.74L42.0934 72.2986C43.9651 70.0784 47.1405 68.4004 49.4768 68.4004ZM130.378 72.0598H49.4768C48.3474 72.0598 46.1466 73.1699 44.8945 74.6544L9.9781 116.102C9.90711 116.186 9.84257 116.264 9.79094 116.341H90.6923C91.8218 116.341 94.0226 115.231 95.2747 113.746L130.185 72.3051C130.256 72.2212 130.32 72.1437 130.372 72.0663" fill="#573531"/>
<path d="M55.2985 80.0948C55.092 80.0948 54.879 80.0238 54.7112 79.8819C54.3239 79.5592 54.2723 78.9783 54.6015 78.591L54.6531 78.533C54.9758 78.1457 55.5567 78.0941 55.9439 78.4232C56.3311 78.7459 56.3828 79.3268 56.0536 79.7141L56.002 79.7721C55.8213 79.9851 55.5631 80.0948 55.2985 80.0948Z" fill="#D1C6BD"/>
<path d="M57.4992 77.4872C57.2927 77.4872 57.0797 77.4163 56.9119 77.2743C56.5246 76.9516 56.473 76.3707 56.8022 75.9835L56.9119 75.8544C57.2346 75.4671 57.8154 75.4155 58.2027 75.7447C58.5899 76.0674 58.6416 76.6482 58.3124 77.0355L58.2027 77.1645C58.022 77.3775 57.7638 77.4872 57.5056 77.4872M59.7646 74.8088C59.558 74.8088 59.345 74.7378 59.1708 74.5958C58.7835 74.2667 58.7384 73.6923 59.0611 73.305L59.1708 73.1759C59.4935 72.7887 60.0743 72.7435 60.4616 73.0662C60.8488 73.3954 60.894 73.9698 60.5713 74.357L60.4616 74.4861C60.2809 74.6991 60.0227 74.8088 59.7646 74.8088ZM62.0235 72.1304C61.8169 72.1304 61.6104 72.0594 61.4362 71.9174C61.0489 71.5947 60.9973 71.0138 61.32 70.6266L61.4297 70.4975C61.7524 70.1103 62.3333 70.0586 62.7205 70.3813C63.1077 70.7041 63.1594 71.2849 62.8367 71.6722L62.727 71.8012C62.5462 72.0142 62.2881 72.1304 62.0235 72.1304ZM64.2824 69.452C64.0759 69.452 63.8629 69.381 63.6951 69.239C63.3078 68.9163 63.2562 68.3354 63.5853 67.9482L63.6951 67.8191C64.0178 67.4319 64.5986 67.3802 64.9859 67.7094C65.3731 68.0321 65.4247 68.6129 65.0956 69.0002L64.9859 69.1293C64.8052 69.3422 64.547 69.452 64.2888 69.452" fill="#D1C6BD"/>
<path d="M66.5221 66.7735C66.3156 66.7735 66.1026 66.7026 65.9348 66.5606C65.5476 66.2379 65.4959 65.657 65.8251 65.2698L65.8767 65.2117C66.1994 64.8244 66.7803 64.7728 67.1675 65.102C67.5548 65.4247 67.6064 66.0055 67.2773 66.3928L67.2256 66.4508C67.0449 66.6638 66.7867 66.7735 66.5221 66.7735Z" fill="#D1C6BD"/>
<path d="M47.7215 52.252H129.32C131.114 52.252 131.34 53.7041 129.83 55.4983L94.9199 96.9397C93.4097 98.734 90.7312 100.186 88.937 100.186H7.33854C5.54432 100.186 5.31843 98.734 6.82867 96.9397L41.7386 55.4983C43.2488 53.7041 45.9273 52.252 47.7215 52.252Z" fill="#F3EEE8"/>
<path d="M88.937 102.019H7.33853C5.2926 102.019 4.51166 100.812 4.27286 100.296C3.91789 99.5346 3.60164 97.934 5.42813 95.7654L40.338 54.324C42.2097 52.1038 45.3851 50.4258 47.7215 50.4258H129.32C131.366 50.4258 132.147 51.6327 132.386 52.149C132.741 52.9106 133.057 54.5112 131.23 56.6797L96.3204 98.1212C94.4487 100.341 91.2733 102.019 88.937 102.019ZM8.03557 98.36H88.937C90.0664 98.36 92.2673 97.2499 93.5194 95.7654L128.429 54.324C128.5 54.2401 128.565 54.1562 128.616 54.0852H47.715C46.5856 54.0852 44.3847 55.1953 43.1326 56.6797L8.22273 98.1212C8.15174 98.2051 8.0872 98.289 8.03557 98.36Z" fill="#573531"/>
<path d="M53.5819 79.8751C53.9369 79.4556 54.4532 79.2168 55.0018 79.2168H110.042L94.165 98.3401C93.81 98.7596 93.2937 98.9984 92.7451 98.9984H37.4727L53.5819 79.8751Z" fill="#1E756D"/>
<path d="M75.6994 53.4463L62.3718 69.22C61.2553 70.543 61.9975 71.6144 64.0241 71.6144H114.411L129.752 53.4463H75.693" fill="#E5DBD1"/>
<path d="M50.232 83.8511H20.2466L13.2568 92.151C13.5021 92.2866 13.8248 92.3576 14.2249 92.3576H43.0616L50.2256 83.8511M113.862 71.6143H103.342L96.9335 79.2171H107.454L113.862 71.6143Z" fill="#B6B2AE"/>
<path d="M20.2467 83.8509H18.0975L13.7152 89.111C12.5471 90.4986 12.418 91.6862 13.257 92.1508L20.2467 83.8509ZM129.32 52.252H119.652L118.652 53.4395H129.752L114.411 71.6076H113.869L107.46 79.2105H110.035L104.62 85.7291L129.83 55.4983C131.34 53.7041 131.114 52.252 129.32 52.252Z" fill="#412825"/>
<path d="M110.035 79.2168H96.9398L96.3202 79.9526C95.5909 80.8174 94.6679 81.5983 93.674 82.2308C92.1057 83.2248 90.3631 83.8572 88.9367 83.8572H50.2319L43.0679 92.3637H95.8297C97.6239 92.3637 100.302 90.9115 101.813 89.1173L104.627 85.7418L110.041 79.2233" fill="#165852"/>
<path d="M129.759 53.4463H118.651L103.349 71.6144H113.869H114.411L129.759 53.4463Z" fill="#ACA49D"/>
<path d="M47.7215 50.4258H129.32C131.366 50.4258 132.147 51.6327 132.386 52.149C132.741 52.9106 133.057 54.5047 131.23 56.6797L96.3204 98.1212C94.4487 100.341 91.2733 102.019 88.937 102.019H7.33853C5.2926 102.019 4.51166 100.812 4.27286 100.296C3.91789 99.5346 3.60164 97.9404 5.42813 95.7654L40.338 54.324C42.2097 52.1038 45.3851 50.4258 47.7215 50.4258ZM128.623 54.0852H47.7215C46.592 54.0852 44.3912 55.1953 43.1391 56.6797L8.22273 98.1212C8.15174 98.2051 8.0872 98.2825 8.03557 98.36H88.937C90.0664 98.36 92.2673 97.2499 93.5194 95.7654L128.429 54.324C128.5 54.2401 128.565 54.1627 128.616 54.0852H128.623Z" fill="#573531"/>
<path d="M84.1674 60.0999C83.0896 60.0999 82.2183 59.2286 82.2183 58.1508V58.0604C82.2183 56.9826 83.0896 56.1113 84.1674 56.1113C85.2452 56.1113 86.1165 56.9826 86.1165 58.0604V58.1508C86.1165 59.2286 85.2452 60.0999 84.1674 60.0999Z" fill="black"/>
<path d="M84.1674 70.9885C83.0896 70.9885 82.2183 70.1172 82.2183 69.0393V68.8651C82.2183 67.7873 83.0896 66.916 84.1674 66.916C85.2452 66.916 86.1165 67.7873 86.1165 68.8651V69.0393C86.1165 70.1172 85.2452 70.9885 84.1674 70.9885ZM84.1674 65.5413C83.0896 65.5413 82.2183 64.67 82.2183 63.5921V63.4179C82.2183 62.34 83.0896 61.4688 84.1674 61.4688C85.2452 61.4688 86.1165 62.34 86.1165 63.4179V63.5921C86.1165 64.67 85.2452 65.5413 84.1674 65.5413Z" fill="black"/>
<path d="M84.1674 76.3519C83.0896 76.3519 82.2183 75.4806 82.2183 74.4028V74.3124C82.2183 73.2346 83.0896 72.3633 84.1674 72.3633C85.2452 72.3633 86.1165 73.2346 86.1165 74.3124V74.4028C86.1165 75.4806 85.2452 76.3519 84.1674 76.3519Z" fill="black"/>
<path d="M88.937 82.025H7.33854C5.54432 82.025 5.31843 80.5728 6.82867 78.7786L41.7386 37.3372C43.2488 35.543 45.9273 34.0908 47.7215 34.0908H129.32C131.114 34.0908 131.34 35.543 129.83 37.3372L94.9199 78.7786C93.4097 80.5728 90.7312 82.025 88.937 82.025Z" fill="#F3EEE8"/>
<path d="M88.937 83.8514H7.33853C5.2926 83.8514 4.51166 82.6445 4.27286 82.1282C3.91789 81.3666 3.60164 79.766 5.42813 77.5975L40.338 36.1561C42.2097 33.9359 45.3851 32.2578 47.7215 32.2578H129.32C131.366 32.2578 132.147 33.4647 132.386 33.981C132.741 34.7426 133.057 36.3432 131.23 38.5118L96.3204 79.9532C94.4487 82.1734 91.2733 83.8514 88.937 83.8514ZM8.03557 80.192H88.937C90.0664 80.192 92.2673 79.0819 93.5194 77.5975L128.429 36.1561C128.5 36.0722 128.565 35.9883 128.616 35.9173H47.715C46.5856 35.9173 44.3847 37.0273 43.1326 38.5118L8.22273 79.9532C8.15174 80.0371 8.0872 80.121 8.03557 80.192Z" fill="#573531"/>
<path d="M81.308 56.0731C81.1015 56.0731 80.8885 56.0021 80.7143 55.8537C80.327 55.5245 80.2819 54.9501 80.611 54.5629L80.6626 54.5048C80.9918 54.1176 81.5662 54.0724 81.9535 54.4015C82.3407 54.7307 82.3859 55.3051 82.0567 55.6923L82.0051 55.7504C81.8244 55.9634 81.5662 56.0731 81.308 56.0731Z" fill="#D1C6BD"/>
<path d="M72.2853 66.7802C72.0788 66.7802 71.8658 66.7092 71.698 66.5672C71.3108 66.2445 71.2591 65.6637 71.5883 65.2764L71.698 65.1473C72.0207 64.7601 72.6016 64.7085 72.9888 65.0376C73.3761 65.3603 73.4277 65.9412 73.0985 66.3284L72.9888 66.4575C72.8081 66.6705 72.5499 66.7802 72.2918 66.7802H72.2853ZM74.5442 64.1018C74.3377 64.1018 74.1312 64.0308 73.9569 63.8888C73.5697 63.5661 73.518 62.9852 73.8407 62.598L73.9505 62.4689C74.2732 62.0817 74.854 62.03 75.2413 62.3527C75.6285 62.6754 75.6801 63.2563 75.3574 63.6436L75.2477 63.7726C75.067 63.9856 74.8088 64.1018 74.5442 64.1018ZM76.8031 61.4234C76.5966 61.4234 76.3836 61.3524 76.2094 61.2104C75.8221 60.8812 75.777 60.3068 76.0997 59.9196L76.2094 59.7905C76.5385 59.4032 77.1129 59.3581 77.5002 59.6808C77.8874 60.0099 77.9326 60.5843 77.6099 60.9716L77.5002 61.1007C77.3195 61.3136 77.0613 61.4234 76.8031 61.4234ZM79.0621 58.7449C78.8555 58.7449 78.6425 58.6739 78.4747 58.532C78.0875 58.2093 78.0359 57.6284 78.365 57.2411L78.4747 57.1121C78.7974 56.7248 79.3783 56.6732 79.7656 57.0023C80.1528 57.325 80.2044 57.9059 79.8753 58.2932L79.7656 58.4222C79.5848 58.6352 79.3267 58.7449 79.0685 58.7449H79.0621Z" fill="#D1C6BD"/>
<path d="M70.0849 69.3934C69.8784 69.3934 69.6654 69.3225 69.4911 69.174C69.1039 68.8449 69.0587 68.2704 69.3879 67.8832L69.4395 67.8251C69.7687 67.4379 70.3431 67.3927 70.7303 67.7219C71.1175 68.051 71.1627 68.6254 70.8336 69.0127L70.7819 69.0707C70.6012 69.2837 70.3431 69.3934 70.0849 69.3934Z" fill="#D1C6BD"/>
<path d="M113.081 55.0596H62.4817C59.4225 55.0596 58.306 53.4396 59.9905 51.4453L73.6149 35.2715H129.746L113.081 55.0531" fill="#4041E4"/>
<path d="M60.9584 80.8371L74.286 65.0634C75.4025 63.7403 74.6603 62.6689 72.6337 62.6689H22.247L6.90576 80.8371H60.9648H60.9584Z" fill="#D6963A"/>
<path d="M88.937 83.8514H7.33853C5.2926 83.8514 4.51166 82.6445 4.27286 82.1282C3.91789 81.3666 3.60164 79.7725 5.42813 77.5975L40.338 36.1561C42.2097 33.9359 45.3851 32.2578 47.7215 32.2578H129.32C131.366 32.2578 132.147 33.4647 132.386 33.981C132.741 34.7426 133.057 36.3368 131.23 38.5118L96.3204 79.9532C94.4487 82.1734 91.2733 83.8514 88.937 83.8514ZM8.03557 80.192H88.937C90.0664 80.192 92.2673 79.0819 93.5194 77.5975L128.429 36.1561C128.5 36.0722 128.565 35.9947 128.616 35.9173H47.715C46.5856 35.9173 44.3847 37.0273 43.1326 38.5118L8.22273 79.9532C8.15174 80.0371 8.0872 80.1145 8.03557 80.192Z" fill="#573531"/>
<path d="M94.6099 38.3369C87.2136 38.3369 81.2178 40.3893 81.2178 42.9193C81.2178 45.4493 87.2136 47.5017 94.6099 47.5017C102.006 47.5017 108.002 45.4493 108.002 42.9193C108.002 40.3893 102.006 38.3369 94.6099 38.3369Z" fill="#3031AB"/>
<path d="M94.4742 1.72949C86.013 1.72949 79.4041 7.08635 79.1523 17.0514C78.8942 27.4295 91.4989 43.1386 94.4742 43.1386C97.4496 43.1386 110.054 27.4295 109.796 17.0514C109.544 7.0928 102.935 1.72949 94.4742 1.72949C86.013 1.72949 79.4041 7.08635 79.1523 17.0514C78.8942 27.4295 91.4989 43.1386 94.4742 43.1386C97.4496 43.1386 110.054 27.4295 109.796 17.0514C109.544 7.0928 102.935 1.72949 94.4742 1.72949Z" fill="#E67823"/>
<mask id="mask0_1601_303" style="mask-type:luminance" maskUnits="userSpaceOnUse" x="79" y="1" width="31" height="43">
<path d="M94.4742 1.72949C86.013 1.72949 79.4041 7.08635 79.1523 17.0514C78.8942 27.4295 91.4989 43.1386 94.4742 43.1386C97.4496 43.1386 110.054 27.4295 109.796 17.0514C109.544 7.0928 102.935 1.72949 94.4742 1.72949C86.013 1.72949 79.4041 7.08635 79.1523 17.0514C78.8942 27.4295 91.4989 43.1386 94.4742 43.1386C97.4496 43.1386 110.054 27.4295 109.796 17.0514C109.544 7.0928 102.935 1.72949 94.4742 1.72949Z" fill="white"/>
</mask>
<g mask="url(#mask0_1601_303)">
<path d="M105.633 6.06602C108.357 11.1002 108.338 15.6245 105.956 21.2395C100.69 33.6506 94.4743 35.1738 88.8528 33.5151C85.9614 32.6631 83.9478 30.8883 83.9478 30.8883C83.9478 30.8883 91.1117 42.7185 94.4678 43.1316C97.8239 43.5446 119.393 17.4768 105.627 6.05957L105.633 6.06602Z" fill="#CC6017"/>
</g>
<path d="M94.4743 24.7836C98.5057 24.7836 101.774 21.5155 101.774 17.4841C101.774 13.4527 98.5057 10.1846 94.4743 10.1846C90.4429 10.1846 87.1748 13.4527 87.1748 17.4841C87.1748 21.5155 90.4429 24.7836 94.4743 24.7836Z" fill="white"/>
<path d="M94.4746 43.9522C94.1067 43.9522 92.9966 43.9522 90.1955 41.0801C85.2195 35.9814 78.333 25.3323 78.333 17.3615C78.333 17.2518 78.333 17.1356 78.333 17.0259C78.5783 7.23512 84.9097 0.910156 94.4681 0.910156C104.027 0.910156 110.358 7.23512 110.603 17.0259C110.603 17.1356 110.603 17.2518 110.603 17.3615C110.603 21.8535 108.415 26.8296 106.557 30.2438C104.375 34.2517 101.451 38.2984 98.7407 41.0801C95.9396 43.9522 94.8295 43.9522 94.4617 43.9522H94.4746ZM79.9659 17.368C79.9659 24.7966 86.7233 35.1876 91.3637 39.9507C93.6614 42.3064 94.4681 42.3322 94.4746 42.3322C94.481 42.3322 95.2942 42.3064 97.5854 39.9507C102.226 35.1876 108.983 24.7966 108.983 17.368C108.983 17.2712 108.983 17.1679 108.983 17.0711C108.874 12.5532 107.376 8.8099 104.659 6.24765C102.09 3.82738 98.5664 2.54303 94.4746 2.54303C90.3827 2.54303 86.8588 3.82093 84.2901 6.24765C81.5729 8.8099 80.0756 12.5532 79.9659 17.0711C79.9659 17.1679 79.9659 17.2647 79.9659 17.368Z" fill="#573531"/>
<path d="M94.4744 44.862C93.6096 44.862 92.2672 44.5071 89.5435 41.7125C84.5094 36.5492 77.4229 25.5838 77.4229 17.3614C77.4229 17.2387 77.4229 17.1226 77.4229 17.0064C77.681 6.67348 84.3739 0 94.468 0C104.562 0 111.255 6.67348 111.513 17.0064C111.513 17.1226 111.513 17.2452 111.513 17.3678C111.513 22.0664 109.254 27.2038 107.357 30.6825C105.137 34.7615 102.161 38.8856 99.3989 41.7189C96.6753 44.5071 95.3328 44.8685 94.468 44.8685L94.4744 44.862ZM94.4744 3.45291C90.6214 3.45291 87.3169 4.64691 84.9224 6.90583C82.386 9.30027 80.9919 12.8177 80.8822 17.0903C80.8822 17.1807 80.8822 17.271 80.8822 17.3614C80.8822 24.5383 87.5299 34.6969 92.0219 39.3051C93.4289 40.7444 94.184 41.2155 94.4809 41.364C94.7778 41.2155 95.5329 40.7444 96.9399 39.3051C101.432 34.6969 108.08 24.5383 108.08 17.3614C108.08 17.271 108.08 17.1807 108.08 17.0903C107.97 12.8177 106.576 9.30027 104.039 6.90583C101.645 4.64691 98.3404 3.45291 94.4873 3.45291H94.4744Z" fill="#55332F"/>
</g>
<defs>
<filter id="filter0_d_1601_303" x="0" y="0" width="138.42" height="128" filterUnits="userSpaceOnUse" color-interpolation-filters="sRGB">
<feFlood flood-opacity="0" result="BackgroundImageFix"/>
<feColorMatrix in="SourceAlpha" type="matrix" values="0 0 0 0 0 0 0 0 0 0 0 0 0 0 0 0 0 0 127 0" result="hardAlpha"/>
<feOffset dy="4"/>
<feGaussianBlur stdDeviation="2"/>
<feComposite in2="hardAlpha" operator="out"/>
<feColorMatrix type="matrix" values="0 0 0 0 0 0 0 0 0 0 0 0 0 0 0 0 0 0 0.25 0"/>
<feBlend mode="normal" in2="BackgroundImageFix" result="effect1_dropShadow_1601_303"/>
<feBlend mode="normal" in="SourceGraphic" in2="effect1_dropShadow_1601_303" result="shape"/>
</filter>
</defs>
</svg>
