<svg width="131" height="120" viewBox="0 0 131 120" fill="none" xmlns="http://www.w3.org/2000/svg">
<path d="M45.4769 70.2334H127.075C128.87 70.2334 129.095 71.6856 127.585 73.4798L92.6753 114.921C91.165 116.715 88.4866 118.168 86.6924 118.168H5.09391C3.29969 118.168 3.0738 116.715 4.58404 114.921L39.494 73.4798C41.0042 71.6856 43.6826 70.2334 45.4769 70.2334Z" fill="#F3EEE8"/>
<path d="M86.6923 120H5.0939C3.04797 120 2.26703 118.793 2.02823 118.277C1.67326 117.515 1.35701 115.914 3.1835 113.746L38.0934 72.3045C39.9651 70.0843 43.1405 68.4062 45.4768 68.4062H127.075C129.121 68.4062 129.902 69.6132 130.147 70.1295C130.502 70.8911 130.819 72.4917 128.992 74.6602L94.0822 116.102C92.2105 118.322 89.0352 120 86.6988 120M5.79739 116.34H86.6988C87.8283 116.34 90.0291 115.23 91.2812 113.746L126.191 72.3045C126.262 72.2206 126.327 72.1431 126.378 72.0657H45.4768C44.3474 72.0657 42.1466 73.1758 40.8945 74.6602L5.9781 116.102C5.90711 116.186 5.84257 116.269 5.79094 116.34" fill="#573531"/>
<path d="M29.0644 87.3164L4.52614 116.721C3.40959 118.044 4.1518 119.115 6.17837 119.115H35.5959L62.1543 87.3164H29.0644Z" fill="#E67823"/>
<path d="M13.0516 102.02H12.9548L9.70845 105.911C9.52774 106.131 9.36639 106.344 9.2373 106.55L13.0516 102.026" fill="#BFBFBF"/>
<path d="M126.03 72.0596H114.277L92.3268 98.121C90.4551 100.341 87.2797 102.019 84.9434 102.019H49.8786L43.915 109.157H91.8298C93.6241 109.157 96.3025 107.705 97.8127 105.911L125.83 72.3048C125.901 72.2209 125.965 72.1435 126.023 72.0596" fill="#B6B2AE"/>
<path d="M49.8723 102.02H17.8409L11.8257 109.158H43.9152L49.8723 102.02Z" fill="#AC5A1A"/>
<path d="M45.4768 68.4004H127.075C129.121 68.4004 129.902 69.6073 130.147 70.1236C130.502 70.8852 130.819 72.4793 128.992 74.6544L94.0822 116.096C92.2105 118.316 89.0352 119.994 86.6988 119.994H5.0939C3.04797 119.994 2.26703 118.787 2.02823 118.271C1.67326 117.509 1.35701 115.915 3.1835 113.74L38.0934 72.2986C39.9651 70.0784 43.1405 68.4004 45.4768 68.4004ZM126.378 72.0598H45.4768C44.3474 72.0598 42.1466 73.1699 40.8945 74.6544L5.9781 116.102C5.90711 116.186 5.84257 116.264 5.79094 116.341H86.6923C87.8218 116.341 90.0226 115.231 91.2747 113.746L126.185 72.3051C126.256 72.2212 126.32 72.1437 126.372 72.0663" fill="#573531"/>
<path d="M51.2985 80.0948C51.092 80.0948 50.879 80.0238 50.7112 79.8819C50.3239 79.5592 50.2723 78.9783 50.6015 78.591L50.6531 78.533C50.9758 78.1457 51.5567 78.0941 51.9439 78.4232C52.3311 78.7459 52.3828 79.3268 52.0536 79.7141L52.002 79.7721C51.8213 79.9851 51.5631 80.0948 51.2985 80.0948Z" fill="#D1C6BD"/>
<path d="M53.4992 77.4872C53.2927 77.4872 53.0797 77.4163 52.9119 77.2743C52.5246 76.9516 52.473 76.3707 52.8022 75.9835L52.9119 75.8544C53.2346 75.4671 53.8154 75.4155 54.2027 75.7447C54.5899 76.0674 54.6416 76.6482 54.3124 77.0355L54.2027 77.1645C54.022 77.3775 53.7638 77.4872 53.5056 77.4872M55.7646 74.8088C55.558 74.8088 55.345 74.7378 55.1708 74.5958C54.7835 74.2667 54.7384 73.6923 55.0611 73.305L55.1708 73.1759C55.4935 72.7887 56.0743 72.7435 56.4616 73.0662C56.8488 73.3954 56.894 73.9698 56.5713 74.357L56.4616 74.4861C56.2809 74.6991 56.0227 74.8088 55.7646 74.8088ZM58.0235 72.1304C57.8169 72.1304 57.6104 72.0594 57.4362 71.9174C57.0489 71.5947 56.9973 71.0138 57.32 70.6266L57.4297 70.4975C57.7524 70.1103 58.3333 70.0586 58.7205 70.3814C59.1077 70.7041 59.1594 71.2849 58.8367 71.6722L58.727 71.8012C58.5462 72.0142 58.2881 72.1304 58.0235 72.1304ZM60.2824 69.452C60.0759 69.452 59.8629 69.381 59.6951 69.239C59.3078 68.9163 59.2562 68.3354 59.5853 67.9482L59.6951 67.8191C60.0178 67.4319 60.5986 67.3802 60.9859 67.7094C61.3731 68.0321 61.4247 68.6129 61.0956 69.0002L60.9859 69.1293C60.8052 69.3422 60.547 69.452 60.2888 69.452" fill="#D1C6BD"/>
<path d="M62.5221 66.7735C62.3156 66.7735 62.1026 66.7026 61.9348 66.5606C61.5476 66.2379 61.4959 65.657 61.8251 65.2698L61.8767 65.2117C62.1994 64.8244 62.7803 64.7728 63.1675 65.102C63.5548 65.4247 63.6064 66.0055 63.2773 66.3928L63.2256 66.4508C63.0449 66.6638 62.7867 66.7735 62.5221 66.7735Z" fill="#D1C6BD"/>
<path d="M43.7215 52.252H125.32C127.114 52.252 127.34 53.7041 125.83 55.4983L90.9199 96.9397C89.4097 98.734 86.7312 100.186 84.937 100.186H3.33854C1.54432 100.186 1.31843 98.734 2.82867 96.9397L37.7386 55.4983C39.2488 53.7041 41.9273 52.252 43.7215 52.252Z" fill="#F3EEE8"/>
<path d="M84.937 102.019H3.33853C1.2926 102.019 0.511659 100.812 0.272859 100.296C-0.0821132 99.5346 -0.398361 97.934 1.42813 95.7654L36.338 54.324C38.2097 52.1038 41.3851 50.4258 43.7215 50.4258H125.32C127.366 50.4258 128.147 51.6327 128.386 52.149C128.741 52.9106 129.057 54.5112 127.23 56.6797L92.3204 98.1212C90.4487 100.341 87.2733 102.019 84.937 102.019ZM4.03557 98.36H84.937C86.0664 98.36 88.2673 97.2499 89.5194 95.7654L124.429 54.324C124.5 54.2401 124.565 54.1562 124.616 54.0852H43.715C42.5856 54.0852 40.3847 55.1953 39.1326 56.6797L4.22273 98.1212C4.15174 98.2051 4.0872 98.289 4.03557 98.36Z" fill="#573531"/>
<path d="M49.5819 79.8751C49.9369 79.4556 50.4532 79.2168 51.0018 79.2168H106.042L90.165 98.3401C89.81 98.7596 89.2937 98.9984 88.7451 98.9984H33.4727L49.5819 79.8751Z" fill="#1E756D"/>
<path d="M71.6994 53.4463L58.3718 69.22C57.2553 70.543 57.9975 71.6144 60.0241 71.6144H110.411L125.752 53.4463H71.693" fill="#E5DBD1"/>
<path d="M46.232 83.8511H16.2466L9.25684 92.151C9.50209 92.2866 9.82479 92.3576 10.2249 92.3576H39.0616L46.2256 83.8511M109.862 71.6143H99.3423L92.9335 79.2171H103.454L109.862 71.6143Z" fill="#B6B2AE"/>
<path d="M16.2467 83.8509H14.0975L9.71525 89.111C8.54706 90.4986 8.41798 91.6861 9.25701 92.1508L16.2467 83.8509ZM125.32 52.252H115.652L114.652 53.4395H125.752L110.411 71.6076H109.869L103.46 79.2105H106.035L100.62 85.7291L125.83 55.4983C127.34 53.7041 127.114 52.252 125.32 52.252Z" fill="#412825"/>
<path d="M106.035 79.2168H92.9398L92.3202 79.9526C91.5909 80.8174 90.6679 81.5983 89.674 82.2308C88.1057 83.2248 86.3631 83.8572 84.9367 83.8572H46.2319L39.0679 92.3637H91.8297C93.6239 92.3637 96.3023 90.9115 97.8126 89.1173L100.627 85.7418L106.041 79.2233" fill="#165852"/>
<path d="M125.759 53.4463H114.651L99.3486 71.6144H109.869H110.411L125.759 53.4463Z" fill="#ACA49D"/>
<path d="M43.7215 50.4258H125.32C127.366 50.4258 128.147 51.6327 128.386 52.149C128.741 52.9106 129.057 54.5047 127.23 56.6797L92.3204 98.1212C90.4487 100.341 87.2733 102.019 84.937 102.019H3.33853C1.2926 102.019 0.511659 100.812 0.272859 100.296C-0.0821132 99.5346 -0.398361 97.9404 1.42813 95.7654L36.338 54.324C38.2097 52.1038 41.3851 50.4258 43.7215 50.4258ZM124.623 54.0852H43.7215C42.592 54.0852 40.3912 55.1953 39.1391 56.6797L4.22273 98.1212C4.15174 98.2051 4.0872 98.2825 4.03557 98.36H84.937C86.0664 98.36 88.2673 97.2499 89.5194 95.7654L124.429 54.324C124.5 54.2401 124.565 54.1627 124.616 54.0852H124.623Z" fill="#573531"/>
<path d="M80.1674 60.0999C79.0896 60.0999 78.2183 59.2286 78.2183 58.1508V58.0604C78.2183 56.9826 79.0896 56.1113 80.1674 56.1113C81.2452 56.1113 82.1165 56.9826 82.1165 58.0604V58.1508C82.1165 59.2286 81.2452 60.0999 80.1674 60.0999Z" fill="black"/>
<path d="M80.1674 70.9885C79.0896 70.9885 78.2183 70.1172 78.2183 69.0393V68.8651C78.2183 67.7873 79.0896 66.916 80.1674 66.916C81.2452 66.916 82.1165 67.7873 82.1165 68.8651V69.0393C82.1165 70.1172 81.2452 70.9885 80.1674 70.9885ZM80.1674 65.5413C79.0896 65.5413 78.2183 64.67 78.2183 63.5921V63.4179C78.2183 62.34 79.0896 61.4688 80.1674 61.4688C81.2452 61.4688 82.1165 62.34 82.1165 63.4179V63.5921C82.1165 64.67 81.2452 65.5413 80.1674 65.5413Z" fill="black"/>
<path d="M80.1674 76.3519C79.0896 76.3519 78.2183 75.4806 78.2183 74.4028V74.3124C78.2183 73.2346 79.0896 72.3633 80.1674 72.3633C81.2452 72.3633 82.1165 73.2346 82.1165 74.3124V74.4028C82.1165 75.4806 81.2452 76.3519 80.1674 76.3519Z" fill="black"/>
<path d="M84.937 82.025H3.33854C1.54432 82.025 1.31843 80.5728 2.82867 78.7786L37.7386 37.3372C39.2488 35.543 41.9273 34.0908 43.7215 34.0908H125.32C127.114 34.0908 127.34 35.543 125.83 37.3372L90.9199 78.7786C89.4097 80.5728 86.7312 82.025 84.937 82.025Z" fill="#F3EEE8"/>
<path d="M84.937 83.8514H3.33853C1.2926 83.8514 0.511659 82.6445 0.272859 82.1282C-0.0821132 81.3666 -0.398361 79.766 1.42813 77.5975L36.338 36.1561C38.2097 33.9359 41.3851 32.2578 43.7215 32.2578H125.32C127.366 32.2578 128.147 33.4647 128.386 33.981C128.741 34.7426 129.057 36.3432 127.23 38.5118L92.3204 79.9532C90.4487 82.1734 87.2733 83.8514 84.937 83.8514ZM4.03557 80.192H84.937C86.0664 80.192 88.2673 79.0819 89.5194 77.5975L124.429 36.1561C124.5 36.0722 124.565 35.9883 124.616 35.9173H43.715C42.5856 35.9173 40.3847 37.0273 39.1326 38.5118L4.22273 79.9532C4.15174 80.0371 4.0872 80.121 4.03557 80.192Z" fill="#573531"/>
<path d="M77.308 56.0731C77.1015 56.0731 76.8885 56.0021 76.7143 55.8537C76.327 55.5245 76.2819 54.9501 76.611 54.5629L76.6626 54.5048C76.9918 54.1176 77.5662 54.0724 77.9535 54.4015C78.3407 54.7307 78.3859 55.3051 78.0567 55.6923L78.0051 55.7504C77.8244 55.9634 77.5662 56.0731 77.308 56.0731Z" fill="#D1C6BD"/>
<path d="M68.2853 66.7802C68.0788 66.7802 67.8658 66.7092 67.698 66.5672C67.3108 66.2445 67.2591 65.6637 67.5883 65.2764L67.698 65.1473C68.0207 64.7601 68.6016 64.7085 68.9888 65.0376C69.3761 65.3603 69.4277 65.9412 69.0985 66.3284L68.9888 66.4575C68.8081 66.6705 68.5499 66.7802 68.2918 66.7802H68.2853ZM70.5442 64.1018C70.3377 64.1018 70.1312 64.0308 69.9569 63.8888C69.5697 63.5661 69.518 62.9852 69.8407 62.598L69.9505 62.4689C70.2732 62.0817 70.854 62.03 71.2413 62.3527C71.6285 62.6754 71.6801 63.2563 71.3574 63.6436L71.2477 63.7726C71.067 63.9856 70.8088 64.1018 70.5442 64.1018ZM72.8031 61.4234C72.5966 61.4234 72.3836 61.3524 72.2094 61.2104C71.8221 60.8812 71.777 60.3068 72.0997 59.9196L72.2094 59.7905C72.5385 59.4032 73.1129 59.3581 73.5002 59.6808C73.8874 60.0099 73.9326 60.5843 73.6099 60.9716L73.5002 61.1007C73.3195 61.3136 73.0613 61.4234 72.8031 61.4234ZM75.0621 58.7449C74.8555 58.7449 74.6425 58.6739 74.4747 58.532C74.0875 58.2093 74.0359 57.6284 74.365 57.2411L74.4747 57.1121C74.7974 56.7248 75.3783 56.6732 75.7656 57.0023C76.1528 57.325 76.2044 57.9059 75.8753 58.2932L75.7656 58.4222C75.5848 58.6352 75.3267 58.7449 75.0685 58.7449H75.0621Z" fill="#D1C6BD"/>
<path d="M66.0849 69.3934C65.8784 69.3934 65.6654 69.3225 65.4911 69.174C65.1039 68.8449 65.0587 68.2704 65.3879 67.8832L65.4395 67.8251C65.7687 67.4379 66.3431 67.3927 66.7303 67.7219C67.1175 68.051 67.1627 68.6254 66.8336 69.0127L66.7819 69.0707C66.6012 69.2837 66.3431 69.3934 66.0849 69.3934Z" fill="#D1C6BD"/>
<path d="M109.081 55.0596H58.4817C55.4225 55.0596 54.306 53.4396 55.9905 51.4453L69.6149 35.2715H125.746L109.081 55.0531" fill="#4041E4"/>
<path d="M56.9584 80.8371L70.286 65.0634C71.4025 63.7403 70.6603 62.6689 68.6337 62.6689H18.247L2.90576 80.8371H56.9648H56.9584Z" fill="#D6963A"/>
<path d="M84.937 83.8514H3.33853C1.2926 83.8514 0.511659 82.6445 0.272859 82.1282C-0.0821132 81.3666 -0.398361 79.7725 1.42813 77.5975L36.338 36.1561C38.2097 33.9359 41.3851 32.2578 43.7215 32.2578H125.32C127.366 32.2578 128.147 33.4647 128.386 33.981C128.741 34.7426 129.057 36.3368 127.23 38.5118L92.3204 79.9532C90.4487 82.1734 87.2733 83.8514 84.937 83.8514ZM4.03557 80.192H84.937C86.0664 80.192 88.2673 79.0819 89.5194 77.5975L124.429 36.1561C124.5 36.0722 124.565 35.9947 124.616 35.9173H43.715C42.5856 35.9173 40.3847 37.0273 39.1326 38.5118L4.22273 79.9532C4.15174 80.0371 4.0872 80.1145 4.03557 80.192Z" fill="#573531"/>
<path d="M90.6099 38.3369C83.2136 38.3369 77.2178 40.3893 77.2178 42.9193C77.2178 45.4493 83.2136 47.5017 90.6099 47.5017C98.0062 47.5017 104.002 45.4493 104.002 42.9193C104.002 40.3893 98.0062 38.3369 90.6099 38.3369Z" fill="#3031AB"/>
<path d="M90.4742 1.72949C82.013 1.72949 75.4041 7.08635 75.1523 17.0514C74.8942 27.4295 87.4989 43.1386 90.4742 43.1386C93.4496 43.1386 106.054 27.4295 105.796 17.0514C105.544 7.0928 98.9355 1.72949 90.4742 1.72949C82.013 1.72949 75.4041 7.08635 75.1523 17.0514C74.8942 27.4295 87.4989 43.1386 90.4742 43.1386C93.4496 43.1386 106.054 27.4295 105.796 17.0514C105.544 7.0928 98.9355 1.72949 90.4742 1.72949Z" fill="#E67823"/>
<mask id="mask0_1601_303" style="mask-type:luminance" maskUnits="userSpaceOnUse" x="75" y="1" width="31" height="43">
<path d="M90.4742 1.72949C82.013 1.72949 75.4041 7.08635 75.1523 17.0514C74.8942 27.4295 87.4989 43.1386 90.4742 43.1386C93.4496 43.1386 106.054 27.4295 105.796 17.0514C105.544 7.0928 98.9355 1.72949 90.4742 1.72949C82.013 1.72949 75.4041 7.08635 75.1523 17.0514C74.8942 27.4295 87.4989 43.1386 90.4742 43.1386C93.4496 43.1386 106.054 27.4295 105.796 17.0514C105.544 7.0928 98.9355 1.72949 90.4742 1.72949Z" fill="white"/>
</mask>
<g mask="url(#mask0_1601_303)">
<path d="M101.633 6.06602C104.357 11.1002 104.338 15.6245 101.956 21.2395C96.6895 33.6506 90.4743 35.1738 84.8528 33.5151C81.9614 32.6631 79.9478 30.8883 79.9478 30.8883C79.9478 30.8883 87.1117 42.7185 90.4678 43.1316C93.8239 43.5446 115.393 17.4768 101.627 6.05957L101.633 6.06602Z" fill="#CC6017"/>
</g>
<path d="M90.4743 24.7836C94.5057 24.7836 97.7738 21.5155 97.7738 17.4841C97.7738 13.4527 94.5057 10.1846 90.4743 10.1846C86.4429 10.1846 83.1748 13.4527 83.1748 17.4841C83.1748 21.5155 86.4429 24.7836 90.4743 24.7836Z" fill="white"/>
<path d="M90.4746 43.9522C90.1067 43.9522 88.9966 43.9522 86.1955 41.0801C81.2195 35.9814 74.333 25.3323 74.333 17.3615C74.333 17.2518 74.333 17.1356 74.333 17.0259C74.5783 7.23512 80.9097 0.910156 90.4681 0.910156C100.027 0.910156 106.358 7.23512 106.603 17.0259C106.603 17.1356 106.603 17.2518 106.603 17.3615C106.603 21.8535 104.415 26.8296 102.557 30.2438C100.375 34.2517 97.4514 38.2984 94.7407 41.0801C91.9396 43.9522 90.8295 43.9522 90.4617 43.9522H90.4746ZM75.9659 17.368C75.9659 24.7966 82.7233 35.1876 87.3637 39.9507C89.6614 42.3064 90.4681 42.3322 90.4746 42.3322C90.481 42.3322 91.2942 42.3064 93.5854 39.9507C98.2259 35.1876 104.983 24.7966 104.983 17.368C104.983 17.2712 104.983 17.1679 104.983 17.0711C104.874 12.5532 103.376 8.8099 100.659 6.24765C98.0903 3.82738 94.5664 2.54303 90.4746 2.54303C86.3827 2.54303 82.8588 3.82093 80.2901 6.24765C77.5729 8.8099 76.0756 12.5532 75.9659 17.0711C75.9659 17.1679 75.9659 17.2647 75.9659 17.368Z" fill="#573531"/>
<path d="M90.4744 44.862C89.6096 44.862 88.2672 44.5071 85.5435 41.7125C80.5094 36.5492 73.4229 25.5838 73.4229 17.3614C73.4229 17.2387 73.4229 17.1226 73.4229 17.0064C73.681 6.67348 80.3739 0 90.468 0C100.562 0 107.255 6.67348 107.513 17.0064C107.513 17.1226 107.513 17.2452 107.513 17.3678C107.513 22.0664 105.254 27.2038 103.357 30.6825C101.137 34.7615 98.1612 38.8856 95.3989 41.7189C92.6753 44.5071 91.3328 44.8685 90.468 44.8685L90.4744 44.862ZM90.4744 3.45291C86.6214 3.45291 83.3169 4.64691 80.9224 6.90583C78.386 9.30027 76.9919 12.8177 76.8822 17.0903C76.8822 17.1807 76.8822 17.271 76.8822 17.3614C76.8822 24.5383 83.5299 34.6969 88.0219 39.3051C89.4289 40.7444 90.184 41.2155 90.4809 41.364C90.7778 41.2155 91.5329 40.7444 92.9399 39.3051C97.4319 34.6969 104.08 24.5383 104.08 17.3614C104.08 17.271 104.08 17.1807 104.08 17.0903C103.97 12.8177 102.576 9.30027 100.039 6.90583C97.6449 4.64691 94.3404 3.45291 90.4873 3.45291H90.4744Z" fill="#55332F"/>
</svg>
