<svg width="148" height="124" viewBox="0 0 148 124" fill="none" xmlns="http://www.w3.org/2000/svg">
<g filter="url(#filter0_d_1450_2833)">
<path d="M101.751 118.703C101.153 115.891 98.6511 113.772 95.6651 113.772C92.6792 113.772 90.1726 115.891 89.579 118.703H3.65246C2.35124 118.703 1.29199 117.644 1.29199 116.343V63.1388C1.29199 61.8376 2.35124 60.7783 3.65246 60.7783H89.579C90.1771 63.5908 92.6792 65.7093 95.6651 65.7093C98.6511 65.7093 101.158 63.5908 101.751 60.7783H126.137C127.438 60.7783 128.497 61.8376 128.497 63.1388V116.348C128.497 117.649 127.438 118.708 126.137 118.708H101.751V118.703Z" fill="#F5B444"/>
<path d="M95.665 115.069C98.3862 115.069 100.596 117.274 100.596 120H126.141C128.159 120 129.794 118.366 129.794 116.348V63.1389C129.794 61.1209 128.159 59.4863 126.141 59.4863H100.596C100.596 62.2075 98.3908 64.4173 95.665 64.4173V115.074V115.069Z" fill="#E67823"/>
<path d="M95.6655 72.9321C94.5926 72.9321 93.7251 72.0646 93.7251 70.9917V70.9277C93.7251 69.8548 94.5926 68.9873 95.6655 68.9873C96.7385 68.9873 97.6059 69.8548 97.6059 70.9277V70.9917C97.6059 72.0646 96.7385 72.9321 95.6655 72.9321Z" fill="#573531"/>
<path d="M95.6655 104.13C94.5926 104.13 93.7251 103.262 93.7251 102.189V102.066C93.7251 100.993 94.5926 100.125 95.6655 100.125C96.7385 100.125 97.6059 100.993 97.6059 102.066V102.189C97.6059 103.262 96.7385 104.13 95.6655 104.13ZM95.6655 97.8882C94.5926 97.8882 93.7251 97.0208 93.7251 95.9478V95.8245C93.7251 94.7516 94.5926 93.8841 95.6655 93.8841C96.7385 93.8841 97.6059 94.7516 97.6059 95.8245V95.9478C97.6059 97.0208 96.7385 97.8882 95.6655 97.8882ZM95.6655 91.6469C94.5926 91.6469 93.7251 90.7794 93.7251 89.7065V89.5832C93.7251 88.5103 94.5926 87.6428 95.6655 87.6428C96.7385 87.6428 97.6059 88.5103 97.6059 89.5832V89.7065C97.6059 90.7794 96.7385 91.6469 95.6655 91.6469ZM95.6655 85.4056C94.5926 85.4056 93.7251 84.5381 93.7251 83.4652V83.3419C93.7251 82.269 94.5926 81.4015 95.6655 81.4015C96.7385 81.4015 97.6059 82.269 97.6059 83.3419V83.4652C97.6059 84.5381 96.7385 85.4056 95.6655 85.4056ZM95.6655 79.1643C94.5926 79.1643 93.7251 78.2968 93.7251 77.2239V77.1006C93.7251 76.0276 94.5926 75.1602 95.6655 75.1602C96.7385 75.1602 97.6059 76.0276 97.6059 77.1006V77.2239C97.6059 78.2968 96.7385 79.1643 95.6655 79.1643Z" fill="#573531"/>
<path d="M95.6655 110.312C94.5926 110.312 93.7251 109.444 93.7251 108.372V108.308C93.7251 107.235 94.5926 106.367 95.6655 106.367C96.7385 106.367 97.6059 107.235 97.6059 108.308V108.372C97.6059 109.444 96.7385 110.312 95.6655 110.312Z" fill="#573531"/>
<path d="M126.137 62.0751C126.726 62.0751 127.201 62.5545 127.201 63.1389V116.348C127.201 116.937 126.721 117.411 126.137 117.411H102.724C101.665 114.54 98.9023 112.48 95.6652 112.48C92.4282 112.48 89.6659 114.535 88.6067 117.411H3.65256C3.06359 117.411 2.58876 116.932 2.58876 116.348V63.1389C2.58876 62.5499 3.06815 62.0751 3.65256 62.0751H88.6067C89.6659 64.9469 92.4282 67.006 95.6652 67.006C98.9023 67.006 101.665 64.9515 102.724 62.0751H126.137ZM126.137 59.4863H100.592C100.592 62.2075 98.3864 64.4173 95.6607 64.4173C92.9349 64.4173 90.7297 62.2121 90.7297 59.4863H3.65256C1.63452 59.4863 0 61.1209 0 63.1389V116.348C0 118.366 1.63452 120 3.65256 120H90.7343C90.7343 117.279 92.9395 115.069 95.6652 115.069C98.391 115.069 100.596 117.274 100.596 120H126.141C128.159 120 129.794 118.366 129.794 116.348V63.1389C129.794 61.1209 128.159 59.4863 126.141 59.4863H126.137Z" fill="#573531"/>
<path d="M19.7146 87.5197H16.2446V85.4697H25.3395V87.5197H21.8696V98.0528H19.7146V87.5197Z" fill="#D35E0D"/>
<path d="M28.4854 85.4697H30.6404V98.0528H28.4854V85.4697Z" fill="#D35E0D"/>
<path d="M43.9267 94.7066L45.3649 96.1265C45.3649 96.1265 43.7121 98.2632 40.5298 98.2632C36.9001 98.2632 34.147 95.4782 34.147 91.7571C34.147 88.0361 36.8955 85.251 40.5298 85.251C43.5478 85.251 45.1868 87.2279 45.1868 87.2279L43.7304 88.6479C43.7304 88.6479 42.5981 87.2645 40.5298 87.2645C38.0506 87.2645 36.3431 89.3327 36.3431 91.7571C36.3431 94.1815 38.0506 96.2498 40.5298 96.2498C42.7396 96.2498 43.9267 94.702 43.9267 94.702V94.7066Z" fill="#D35E0D"/>
<path d="M50.483 91.1126L54.9756 85.4694H57.6694L52.743 91.6514L58.2767 98.0479H55.4185L50.4739 92.3682V98.0479H48.3188V85.4648H50.4739V91.1081L50.483 91.1126Z" fill="#D35E0D"/>
<path d="M63.0795 90.5742H68.1109V92.6242H63.0795V96.0028H68.6497V98.0528H60.9199V85.4697H68.5401V87.5197H63.0749V90.5742H63.0795Z" fill="#D35E0D"/>
<path d="M74.4392 87.5197H70.9692V85.4697H80.0641V87.5197H76.5942V98.0528H74.4392V87.5197Z" fill="#D35E0D"/>
<path d="M18.8015 86.6066H15.3315V84.5566H24.4264V86.6066H20.9565V97.1397H18.8015V86.6066Z" fill="#E67823"/>
<path d="M21.1894 97.3678H18.5778V86.8347H15.1079V84.3281H24.6594V86.8347H21.1894V97.3678ZM19.0344 96.9112H20.7329V86.3781H24.2028V84.7847H15.5645V86.3781H19.0344V96.9112Z" fill="#573531"/>
<path d="M27.5718 84.5566H29.7268V97.1397H27.5718V84.5566Z" fill="#E67823"/>
<path d="M29.9597 97.3678H27.3481V84.3281H29.9597V97.3678ZM27.8047 96.9112H29.5032V84.7847H27.8047V96.9112Z" fill="#573531"/>
<path d="M43.0136 93.7935L44.4518 95.2134C44.4518 95.2134 42.799 97.3502 39.6167 97.3502C35.987 97.3502 33.2339 94.5651 33.2339 90.844C33.2339 87.123 35.9824 84.3379 39.6167 84.3379C42.6347 84.3379 44.2738 86.3148 44.2738 86.3148L42.8173 87.7348C42.8173 87.7348 41.685 86.3514 39.6167 86.3514C37.1376 86.3514 35.43 88.4196 35.43 90.844C35.43 93.2684 37.1376 95.3367 39.6167 95.3367C41.8265 95.3367 43.0136 93.7889 43.0136 93.7889V93.7935Z" fill="#E67823"/>
<path d="M39.6121 97.5821C35.8454 97.5821 33.001 94.6875 33.001 90.8477C33.001 87.0079 35.8408 84.1133 39.6121 84.1133C42.7031 84.1133 44.3741 86.0902 44.4426 86.1724L44.575 86.3322L42.7899 88.0717L42.6301 87.88C42.6301 87.88 41.5343 86.5788 39.6076 86.5788C37.3521 86.5788 35.6491 88.4142 35.6491 90.8431C35.6491 93.2721 37.3521 95.1075 39.6076 95.1075C41.6713 95.1075 42.8127 93.6647 42.8218 93.651L42.9816 93.4456L44.7485 95.1897L44.6253 95.3495C44.5568 95.4408 42.8675 97.5775 39.6076 97.5775L39.6121 97.5821ZM39.6121 84.5699C36.1057 84.5699 33.4575 87.2682 33.4575 90.8477C33.4575 94.4272 36.1011 97.1255 39.6121 97.1255C42.1552 97.1255 43.6939 95.701 44.1322 95.2262L43.0181 94.1259C42.6072 94.5596 41.4475 95.5686 39.6076 95.5686C37.0918 95.5686 35.1925 93.5369 35.1925 90.8477C35.1925 88.1585 37.0918 86.1268 39.6076 86.1268C41.3197 86.1268 42.4155 87.0171 42.8127 87.4143L43.9404 86.314C43.4884 85.8619 41.9863 84.5699 39.603 84.5699H39.6121Z" fill="#573531"/>
<path d="M49.5699 90.1995L54.0626 84.5563H56.7563L51.8299 90.7383L57.3636 97.1348H54.5054L49.5608 91.4551V97.1348H47.4058V84.5518H49.5608V90.195L49.5699 90.1995Z" fill="#E67823"/>
<path d="M57.8703 97.3678H54.4095L49.7981 92.0716V97.3678H47.1865V84.3281H49.7981V89.5467L53.9529 84.3281H57.2311L52.1312 90.7338L57.8703 97.3678ZM54.6149 96.9112H56.8704L51.5376 90.7475L56.286 84.7847H54.1721L49.3415 90.8525L54.6149 96.9112ZM47.6385 96.9112H49.337V84.7847H47.6385V96.9112Z" fill="#573531"/>
<path d="M62.1664 89.6611H67.1978V91.7111H62.1664V95.0897H67.7366V97.1397H60.0068V84.5566H67.627V86.6066H62.1618V89.6611H62.1664Z" fill="#E67823"/>
<path d="M67.9651 97.3678H59.7788V84.3281H67.8555V86.8347H62.3904V89.4326H67.4218V91.9392H62.3904V94.8612H67.9606V97.3678H67.9651ZM60.2354 96.9112H67.5086V95.3178H61.9384V91.4826H66.9698V89.8892H61.9384V86.3781H67.4035V84.7847H60.2399V96.9112H60.2354Z" fill="#573531"/>
<path d="M73.5256 86.6066H70.0557V84.5566H79.1505V86.6066H75.6806V97.1397H73.5256V86.6066Z" fill="#E67823"/>
<path d="M75.9096 97.3678H73.2981V86.8347H69.8281V84.3281H79.3796V86.8347H75.9096V97.3678ZM73.7546 96.9112H75.4531V86.3781H78.923V84.7847H70.2847V86.3781H73.7546V96.9112Z" fill="#573531"/>
<path d="M84.5478 113.503H11.9805C11.6243 113.503 11.3321 113.216 11.3321 112.855C11.3321 111.138 9.93503 109.737 8.21376 109.737C7.85763 109.737 7.56543 109.449 7.56543 109.088V70.4717C7.56543 70.1156 7.85307 69.8233 8.21376 69.8233C9.93047 69.8233 11.3321 68.4262 11.3321 66.705C11.3321 66.3488 11.6198 66.0566 11.9805 66.0566H84.5432C84.8994 66.0566 85.1916 66.3443 85.1916 66.705C85.1916 68.4217 86.5887 69.8233 88.3099 69.8233C88.6661 69.8233 88.9583 70.111 88.9583 70.4717V109.093C88.9583 109.449 88.6706 109.741 88.3099 109.741C86.5932 109.741 85.1916 111.138 85.1916 112.86C85.1916 113.216 84.9039 113.508 84.5432 113.508L84.5478 113.503ZM12.5831 112.211H83.9497C84.2327 110.298 85.7486 108.778 87.6662 108.495V71.0698C85.7531 70.7867 84.2327 69.2709 83.9497 67.3533H12.5831C12.3001 69.2663 10.7843 70.7867 8.86666 71.0698V108.495C10.7797 108.778 12.3001 110.298 12.5831 112.211Z" fill="#E67823"/>
</g>
<g filter="url(#filter1_d_1450_2833)">
<path d="M90.9741 101.467C91.8303 98.7225 90.6867 95.65 88.0834 94.1874C85.4802 92.7248 82.2572 93.3439 80.3622 95.5052L5.4495 53.4163C4.31506 52.779 3.91043 51.3367 4.5478 50.2022L30.6084 3.81767C31.2458 2.68324 32.6881 2.27861 33.8226 2.91598L108.735 45.0048C107.879 47.7498 109.023 50.8222 111.626 52.2848C114.229 53.7474 117.452 53.1283 119.347 50.967L140.607 62.9116C141.741 63.549 142.146 64.9913 141.509 66.1257L115.446 112.514C114.808 113.649 113.366 114.053 112.232 113.416L90.9719 101.471L90.9741 101.467Z" fill="#F5B444"/>
<path d="M87.448 95.3178C89.8204 96.6506 90.6668 99.6556 89.3317 102.032L111.602 114.545C113.362 115.533 115.587 114.909 116.576 113.149L142.639 66.7608C143.627 65.0014 143.003 62.7758 141.244 61.7873L118.973 49.2747C117.64 51.647 114.635 52.4934 112.259 51.1583L87.4458 95.3217L87.448 95.3178Z" fill="#E67823"/>
<path d="M108.088 58.582C107.152 58.0564 106.821 56.8752 107.346 55.9398L107.378 55.8841C107.903 54.9487 109.084 54.6173 110.02 55.1428C110.955 55.6684 111.287 56.8496 110.761 57.785L110.73 57.8407C110.204 58.7762 109.023 59.1075 108.088 58.582Z" fill="#573531"/>
<path d="M92.8065 85.7799C91.8711 85.2543 91.5397 84.0731 92.0653 83.1377L92.1256 83.0302C92.6512 82.0948 93.8324 81.7634 94.7678 82.289C95.7032 82.8145 96.0346 83.9957 95.5091 84.9312L95.4487 85.0386C94.9231 85.974 93.7419 86.3054 92.8065 85.7799ZM95.8636 80.3385C94.9282 79.813 94.5969 78.6318 95.1224 77.6964L95.1828 77.5889C95.7083 76.6535 96.8895 76.3221 97.825 76.8477C98.7604 77.3732 99.0918 78.5544 98.5662 79.4898L98.5058 79.5973C97.9803 80.5327 96.7991 80.8641 95.8636 80.3385ZM98.9208 74.8972C97.9854 74.3717 97.654 73.1905 98.1796 72.2551L98.2399 72.1476C98.7655 71.2122 99.9467 70.8808 100.882 71.4063C101.818 71.9319 102.149 73.1131 101.623 74.0485L101.563 74.156C101.037 75.0914 99.8562 75.4228 98.9208 74.8972ZM101.978 69.4559C101.043 68.9304 100.711 67.7492 101.237 66.8137L101.297 66.7063C101.823 65.7709 103.004 65.4395 103.939 65.965C104.875 66.4906 105.206 67.6718 104.68 68.6072L104.62 68.7147C104.095 69.6501 102.913 69.9815 101.978 69.4559ZM105.035 64.0146C104.1 63.489 103.768 62.3078 104.294 61.3724L104.354 61.2649C104.88 60.3295 106.061 59.9982 106.996 60.5237C107.932 61.0493 108.263 62.2305 107.738 63.1659L107.677 63.2733C107.152 64.2088 105.97 64.5401 105.035 64.0146Z" fill="#573531"/>
<path d="M89.7785 91.1699C88.8431 90.6443 88.5117 89.4631 89.0373 88.5277L89.0686 88.472C89.5941 87.5366 90.7753 87.2052 91.7107 87.7307C92.6462 88.2563 92.9775 89.4375 92.452 90.3729L92.4207 90.4286C91.8951 91.364 90.7139 91.6954 89.7785 91.1699Z" fill="#573531"/>
<path d="M139.972 64.0416C140.485 64.3301 140.664 64.9807 140.378 65.4902L114.315 111.879C114.027 112.392 113.376 112.571 112.867 112.285L92.4548 100.817C92.938 97.7943 91.5384 94.6461 88.7163 93.0605C85.8941 91.4749 82.4795 91.9131 80.1471 93.902L6.08232 52.2895C5.56884 52.001 5.38969 51.3504 5.67595 50.8409L31.7388 4.45242C32.0273 3.93894 32.6778 3.75979 33.1873 4.04604L107.252 45.6585C106.769 48.6811 108.169 51.8293 110.991 53.4149C113.813 55.0005 117.227 54.5623 119.56 52.5735L139.972 64.0416ZM141.24 61.7847L118.969 49.2721C117.636 51.6445 114.631 52.4909 112.255 51.1557C109.878 49.8206 109.036 46.8179 110.371 44.4415L34.4554 1.78911C32.696 0.800627 30.4704 1.42501 29.4819 3.18439L3.41901 49.5729C2.43053 51.3323 3.05492 53.5579 4.81429 54.5464L80.734 97.2011C82.0669 94.8287 85.0719 93.9823 87.4482 95.3174C89.8246 96.6526 90.667 99.6553 89.3319 102.032L111.603 114.544C113.362 115.533 115.588 114.908 116.576 113.149L142.639 66.7604C143.628 65.0011 143.003 62.7754 141.244 61.787L141.24 61.7847Z" fill="#573531"/>
<path d="M34.7271 34.0972L31.7019 32.3976L32.7061 30.6104L40.6352 35.0652L39.631 36.8525L36.6059 35.1528L31.4465 44.3358L29.5677 43.2802L34.7271 34.0972Z" fill="#D35E0D"/>
<path d="M43.3779 36.6055L45.2567 37.661L39.0932 48.6313L37.2144 47.5757L43.3779 36.6055Z" fill="#D35E0D"/>
<path d="M52.3155 52.2214L52.8739 54.1638C52.8739 54.1638 50.3863 55.2171 47.6119 53.6583C44.4474 51.8804 43.4114 48.1038 45.234 44.8597C47.0567 41.6156 50.8171 40.5338 53.9856 42.314C56.6167 43.7922 57.0773 46.3186 57.0773 46.3186L55.1121 46.8432C55.1121 46.8432 54.8025 45.0824 52.9994 44.0694C50.838 42.855 48.3362 43.8218 47.1487 45.9354C45.9611 48.049 46.4367 50.6886 48.5982 51.9029C50.5247 52.9854 52.3178 52.2174 52.3178 52.2174L52.3155 52.2214Z" fill="#D35E0D"/>
<path d="M59.7917 52.3003L66.4727 49.581L68.8212 50.9005L61.4982 53.877L63.1893 62.1642L60.6975 60.7642L59.1688 53.3905L56.3867 58.3422L54.5079 57.2866L60.6714 46.3164L62.5502 47.372L59.786 52.2919L59.7917 52.3003Z" fill="#D35E0D"/>
<path d="M71.0378 58.0012L75.4243 60.4657L74.4201 62.2529L70.0336 59.7884L68.3787 62.734L73.2349 65.4623L72.2307 67.2496L65.4918 63.4634L71.6553 52.4932L78.2987 56.2257L77.2946 58.0129L72.5299 55.336L71.0338 57.9989L71.0378 58.0012Z" fill="#D35E0D"/>
<path d="M82.4375 60.9019L79.4124 59.2023L80.4165 57.415L88.3456 61.8699L87.3415 63.6572L84.3163 61.9575L79.157 71.1405L77.2782 70.0849L82.4375 60.9019Z" fill="#D35E0D"/>
<path d="M34.3784 32.8531L31.3533 31.1534L32.3574 29.3662L40.2865 33.8211L39.2824 35.6083L36.2572 33.9087L31.0979 43.0916L29.2191 42.0361L34.3784 32.8531Z" fill="#E67823"/>
<path d="M31.1893 43.4047L28.9125 42.1255L34.0718 32.9426L31.0466 31.2429L32.2744 29.0576L40.6016 33.7361L39.3738 35.9214L36.3486 34.2218L31.1893 43.4047ZM29.5341 41.9511L31.0149 42.7831L36.1742 33.6001L39.1994 35.2997L39.9799 33.9106L32.4488 29.6793L31.6683 31.0685L34.6935 32.7681L29.5341 41.9511Z" fill="#573531"/>
<path d="M43.0293 35.3623L44.9081 36.4179L38.7446 47.3881L36.8658 46.3325L43.0293 35.3623Z" fill="#E67823"/>
<path d="M38.8355 47.7012L36.5587 46.422L42.9458 35.0537L45.2226 36.3329L38.8355 47.7012ZM37.1804 46.2476L38.6611 47.0795L44.6009 36.5073L43.1202 35.6754L37.1804 46.2476Z" fill="#573531"/>
<path d="M51.9669 50.9783L52.5252 52.9207C52.5252 52.9207 50.0377 53.9739 47.2633 52.4152C44.0988 50.6373 43.0628 46.8606 44.8854 43.6165C46.7081 40.3724 50.4685 39.2906 53.637 41.0708C56.2681 42.5491 56.7287 45.0755 56.7287 45.0755L54.7634 45.6C54.7634 45.6 54.4539 43.8393 52.6507 42.8262C50.4893 41.6118 47.9875 42.5786 46.8 44.6922C45.6125 46.8059 46.0881 49.4454 48.2495 50.6598C50.1761 51.7422 51.9691 50.9743 51.9691 50.9743L51.9669 50.9783Z" fill="#E67823"/>
<path d="M47.1454 52.6165C43.8615 50.7714 42.7995 46.8545 44.6803 43.507C46.5611 40.1594 50.4549 39.0268 53.7427 40.874C56.4375 42.3881 56.926 44.9301 56.9455 45.0353L56.9826 45.2395L54.5742 45.8816L54.5288 45.6362C54.5288 45.6362 54.2109 43.965 52.5311 43.0213C50.5648 41.9165 48.181 42.6825 46.9912 44.8001C45.8015 46.9177 46.3872 49.352 48.3535 50.4568C50.1527 51.4676 51.8545 50.7689 51.8692 50.7614L52.1092 50.6606L52.7953 53.0466L52.6096 53.1256C52.5051 53.1716 49.9857 54.207 47.1437 52.6102L47.1454 52.6165ZM53.5191 41.2721C50.4621 39.5545 46.8317 40.6099 45.0784 43.7306C43.325 46.8513 44.308 50.4986 47.369 52.2184C49.5862 53.4641 51.6253 52.9758 52.24 52.7766L51.8078 51.2716C51.2371 51.4484 49.7318 51.7601 48.1277 50.8588C45.9344 49.6266 45.2737 46.9249 46.591 44.5804C47.9082 42.2359 50.5593 41.3949 52.7525 42.6272C54.2452 43.4658 54.7644 44.7788 54.9161 45.3196L56.4383 44.9127C56.2656 44.2973 55.589 42.435 53.5111 41.2676L53.5191 41.2721Z" fill="#573531"/>
<path d="M59.4426 51.0571L66.1236 48.3379L68.4721 49.6573L61.149 52.6339L62.8402 60.921L60.3484 59.521L58.8196 52.1473L56.0376 57.099L54.1588 56.0434L60.3223 45.0732L62.2011 46.1288L59.4369 51.0487L59.4426 51.0571Z" fill="#E67823"/>
<path d="M63.1679 61.3719L60.1507 59.6767L58.7246 52.8006L56.1304 57.418L53.8536 56.1388L60.2407 44.7705L62.5176 46.0497L59.9614 50.5994L66.1398 48.0848L68.9978 49.6906L61.4139 52.7771L63.1679 61.3719ZM60.5535 59.3793L62.5198 60.4841L60.8898 52.4983L67.9502 49.6257L66.1072 48.5902L58.9237 51.5142L60.5535 59.3793ZM54.4713 55.9621L55.952 56.7941L61.8919 46.2219L60.4112 45.39L54.4713 55.9621Z" fill="#573531"/>
<path d="M70.6891 56.758L75.0756 59.2225L74.0715 61.0097L69.685 58.5452L68.0301 61.4908L72.8862 64.2192L71.8821 66.0064L65.1432 62.2202L71.3066 51.25L77.9501 54.9825L76.9459 56.7698L72.1813 54.0928L70.6851 56.7558L70.6891 56.758Z" fill="#E67823"/>
<path d="M71.9691 66.3166L64.8321 62.3067L71.2192 50.9385L78.2607 54.8946L77.0329 57.0799L72.2683 54.403L70.9958 56.6679L75.3823 59.1324L74.1545 61.3177L69.768 58.8532L68.3367 61.4007L73.1929 64.1291L71.9651 66.3143L71.9691 66.3166ZM65.4538 62.1323L71.7947 65.6949L72.5752 64.3057L67.719 61.5773L69.5976 58.2337L73.9841 60.6982L74.7646 59.309L70.3781 56.8445L72.0979 53.7835L76.8625 56.4605L77.643 55.0713L71.3976 51.5624L65.4578 62.1346L65.4538 62.1323Z" fill="#573531"/>
<path d="M82.0884 59.6588L79.0632 57.9591L80.0674 56.1719L87.9965 60.6268L86.9924 62.414L83.9672 60.7143L78.8078 69.8973L76.9291 68.8417L82.0884 59.6588Z" fill="#E67823"/>
<path d="M78.8949 70.2085L76.618 68.9292L81.7774 59.7463L78.7522 58.0466L79.98 55.8613L88.3071 60.5399L87.0794 62.7251L84.0542 61.0255L78.8949 70.2085ZM77.2397 68.7548L78.7204 69.5868L83.8798 60.4038L86.905 62.1035L87.6855 60.7143L80.1544 56.483L79.3739 57.8722L82.3991 59.5719L77.2397 68.7548Z" fill="#573531"/>
<path d="M78.5228 88.5065L15.257 52.9613C14.9465 52.7869 14.8327 52.393 15.0093 52.0786C15.8502 50.5819 15.3188 48.6755 13.8181 47.8324C13.5077 47.658 13.3938 47.2641 13.5705 46.9496L32.4858 13.2827C32.6603 12.9722 33.0542 12.8584 33.3686 13.0351C34.8653 13.8759 36.7716 13.3445 37.6148 11.8438C37.7892 11.5334 38.1831 11.4195 38.4976 11.5962L101.759 47.1391C102.07 47.3135 102.184 47.7074 102.007 48.0219C101.166 49.5186 101.698 51.4249 103.198 52.268C103.509 52.4425 103.623 52.8364 103.446 53.1508L84.5283 86.8217C84.3538 87.1322 83.9599 87.2461 83.6455 87.0694C82.1488 86.2285 80.2425 86.7599 79.3994 88.2606C79.2249 88.5711 78.831 88.6849 78.5166 88.5083L78.5228 88.5065ZM16.4153 52.1301L78.6342 87.0871C79.8181 85.5579 81.8843 84.9749 83.6948 85.6674L102.026 53.0394C100.497 51.8555 99.9143 49.7893 100.607 47.9788L38.3879 13.0218C37.204 14.551 35.1378 15.134 33.3273 14.4415L14.9956 47.0695C16.5248 48.2534 17.1056 50.3236 16.4153 52.1301Z" fill="#E67823"/>
</g>
<defs>
<filter id="filter0_d_1450_2833" x="0" y="59.4863" width="133.794" height="64.5137" filterUnits="userSpaceOnUse" color-interpolation-filters="sRGB">
<feFlood flood-opacity="0" result="BackgroundImageFix"/>
<feColorMatrix in="SourceAlpha" type="matrix" values="0 0 0 0 0 0 0 0 0 0 0 0 0 0 0 0 0 0 127 0" result="hardAlpha"/>
<feOffset dx="4" dy="4"/>
<feComposite in2="hardAlpha" operator="out"/>
<feColorMatrix type="matrix" values="0 0 0 0 0 0 0 0 0 0 0 0 0 0 0 0 0 0 0.25 0"/>
<feBlend mode="normal" in2="BackgroundImageFix" result="effect1_dropShadow_1450_2833"/>
<feBlend mode="normal" in="SourceGraphic" in2="effect1_dropShadow_1450_2833" result="shape"/>
</filter>
<filter id="filter1_d_1450_2833" x="2.94971" y="1.32031" width="144.159" height="117.693" filterUnits="userSpaceOnUse" color-interpolation-filters="sRGB">
<feFlood flood-opacity="0" result="BackgroundImageFix"/>
<feColorMatrix in="SourceAlpha" type="matrix" values="0 0 0 0 0 0 0 0 0 0 0 0 0 0 0 0 0 0 127 0" result="hardAlpha"/>
<feOffset dx="4" dy="4"/>
<feComposite in2="hardAlpha" operator="out"/>
<feColorMatrix type="matrix" values="0 0 0 0 0 0 0 0 0 0 0 0 0 0 0 0 0 0 0.25 0"/>
<feBlend mode="normal" in2="BackgroundImageFix" result="effect1_dropShadow_1450_2833"/>
<feBlend mode="normal" in="SourceGraphic" in2="effect1_dropShadow_1450_2833" result="shape"/>
</filter>
</defs>
</svg>
