<svg width="600" height="402" viewBox="0 0 600 402" fill="none" xmlns="http://www.w3.org/2000/svg">
<mask id="mask0_1519_1001" style="mask-type:alpha" maskUnits="userSpaceOnUse" x="0" y="0" width="600" height="402">
<rect width="600" height="402" fill="#D9D9D9"/>
</mask>
<g mask="url(#mask0_1519_1001)">
<path d="M550.001 106.5C550.001 122.792 536.793 136 520.501 136C504.209 136 491.001 122.792 491.001 106.5C491.001 90.2076 504.209 77 520.501 77C536.793 77 550.001 90.2076 550.001 106.5Z" fill="#E67823"/>
<path d="M317 261C317 267.627 311.627 273 305 273C298.373 273 293 267.627 293 261C293 254.373 298.373 249 305 249C311.627 249 317 254.373 317 261Z" fill="#E67823"/>
<path d="M288 336.5C288 366.6 263.6 391 233.5 391C203.4 391 179 366.6 179 336.5C179 306.4 203.4 282 233.5 282C263.6 282 288 306.4 288 336.5Z" fill="#E67823"/>
<path d="M659 187.5C659 222.57 630.571 251 595.5 251C560.43 251 532 222.57 532 187.5C532 152.43 560.43 124 595.5 124C630.571 124 659 152.43 659 187.5Z" fill="#E67823"/>
<path d="M191 325C191 339.359 179.36 351 165 351C150.641 351 139 339.359 139 325C139 310.641 150.641 299 165 299C179.36 299 191 310.641 191 325Z" fill="#1E756D"/>
<path d="M591 77.5C591 87.165 583.165 95 573.5 95C563.835 95 556 87.165 556 77.5C556 67.835 563.835 60 573.5 60C583.165 60 591 67.835 591 77.5Z" fill="#1E756D"/>
<path d="M587 12C587 17.5228 582.523 22 577 22C571.477 22 567 17.5228 567 12C567 6.47715 571.477 2 577 2C582.523 2 587 6.47715 587 12Z" fill="#F5B444"/>
<path d="M454.283 6.54288L493.369 6.54288L473.826 40.3924L454.283 6.54288Z" fill="#1E756D"/>
<path d="M27.3616 341.303L4.42911 358.056L1.38655 329.819L27.3616 341.303Z" fill="#F5B444"/>
<path d="M362.362 193.303L339.429 210.056L336.387 181.819L362.362 193.303Z" fill="#F5B444"/>
<path d="M90.59 285.834L104.962 270.356L111.18 290.542L90.59 285.834Z" fill="#E67823"/>
<circle cx="445" cy="233" r="76" fill="#F5B444"/>
<circle cx="382.5" cy="316.5" r="42.5" fill="#F5B444"/>
</g>
</svg>
