<svg width="622" height="251" fill="none" xmlns="http://www.w3.org/2000/svg"><g clip-path="url(#a)"><path d="M84.813 184.883H38.906c-1.17 0-2.133.948-2.133 2.138v4.432c0 1.173.946 2.139 2.133 2.139h18.352v52.252c0 1.172.947 2.138 2.133 2.138h4.954c1.17 0 2.133-.948 2.133-2.138v-52.252H84.83c1.17 0 2.133-.949 2.133-2.139v-4.432a2.135 2.135 0 0 0-2.133-2.138h-.017ZM124.717 183.676c-18.576 0-32.577 14.072-32.577 32.748s14.001 32.748 32.577 32.748c18.575 0 32.507-14.072 32.507-32.748s-13.983-32.748-32.507-32.748Zm0 56.787c-13.365 0-23.461-10.329-23.461-24.039s10.079-24.04 23.461-24.04c13.381 0 23.374 10.554 23.374 24.04 0 13.485-10.268 24.039-23.374 24.039ZM182.56 213.561l26.436-25.005a2.127 2.127 0 0 0 .516-2.345 2.13 2.13 0 0 0-1.978-1.345h-6.381c-.55 0-1.066.207-1.462.586l-23.271 22.16v-20.608a2.135 2.135 0 0 0-2.133-2.138h-4.868a2.135 2.135 0 0 0-2.133 2.138v58.823c0 1.172.946 2.138 2.133 2.138h4.868a2.136 2.136 0 0 0 2.133-2.138v-26.178l25.731 27.643c.395.431.963.673 1.548.673h6.45c.842 0 1.616-.5 1.96-1.294a2.122 2.122 0 0 0-.412-2.31l-29.137-30.783v-.017ZM264.242 184.883h-5.47c-.756 0-1.462.397-1.84 1.052l-15.342 26.454-15.274-26.454a2.137 2.137 0 0 0-1.84-1.069h-5.47a2.137 2.137 0 0 0-1.84 3.207l19.883 34.024v23.712c0 1.173.946 2.139 2.133 2.139h4.867c1.17 0 2.133-.949 2.133-2.139v-23.712l19.883-34.024c.379-.655.396-1.483 0-2.138a2.137 2.137 0 0 0-1.84-1.069l.017.017ZM304.817 183.676c-18.576 0-32.577 14.072-32.577 32.748s14.001 32.748 32.577 32.748c18.575 0 32.507-14.072 32.507-32.748s-13.983-32.748-32.507-32.748Zm0 56.787c-13.365 0-23.461-10.329-23.461-24.039s10.079-24.04 23.461-24.04c13.381 0 23.374 10.554 23.374 24.04 0 13.485-10.268 24.039-23.374 24.039Z" fill="#231815"/><path d="M398.35 249.793a2.135 2.135 0 0 0 2.132-2.139v-4.431a2.135 2.135 0 0 0-2.132-2.139h-18.026l-8.961 8.709h26.987ZM378.535 185.521c-4.678 0-9.012 1.328-12.728 3.828l3.492 8.433c2.322-2.035 5.418-3.57 9.443-3.57 2.511 0 4.678.776 6.329 2.122l6.519-6.329c-3.646-3.035-8.462-4.484-13.089-4.484h.034Z" fill="#000"/><path d="M359.805 195.178a2.135 2.135 0 0 0-.258 2.052l2.029 5.122a2.125 2.125 0 0 0 1.806 1.345 2.126 2.126 0 0 0 1.995-1.035c.258-.431.534-.862.826-1.293l-3.784-9.14c-.911.914-1.806 1.88-2.597 2.984l-.017-.035Z" fill="#ECAE45"/><path d="M388.563 204.197c0 5.898-3.148 10.727-9.322 18.107-7.998 9.554-17.751 19.211-22.446 23.85a2.134 2.134 0 0 0 1.479 3.656h6.949l8.961-8.709h-.138c6.622-7.001 12.023-13.071 15.136-16.986 6.175-7.657 8.566-13.278 8.566-20.073 0-4.484-1.256-8.088-3.251-10.899l-6.828 6.64c.567 1.31.894 2.793.894 4.414Z" fill="#000"/><path d="m444.205 204.559 8.634-2.759c-.808-2.776-1.858-5.122-3.044-7.07l-6.743 6.553c.447.983.826 2.086 1.17 3.276h-.017Z" fill="#3A4D9F"/><path d="M419.815 218.252c0-16.176 4.231-24.04 12.952-24.04 3.285 0 5.934 1.121 7.946 3.38l6.467-6.277c-4.197-4.449-9.529-5.794-14.413-5.794-10.08 0-22.085 5.674-22.085 32.748 0 15.107 3.732 23.539 8.789 28.058l6.484-6.295c-4.128-3.397-6.14-10.588-6.14-21.763v-.017ZM445.718 218.252c0 16.176-4.231 24.039-12.951 24.039-.964 0-1.875-.12-2.718-.31l-7 6.794c3.13 1.639 6.518 2.225 9.718 2.225 10.079 0 22.084-5.674 22.084-32.748 0-4.725-.378-8.795-1.032-12.296l-8.737 2.794c.412 2.776.636 5.932.636 9.502Z" fill="#000"/><path d="M467.82 195.178a2.135 2.135 0 0 0-.258 2.052l2.03 5.122a2.122 2.122 0 0 0 1.806 1.345 2.128 2.128 0 0 0 1.995-1.035c.447-.758.98-1.552 1.582-2.345l-3.698-8.933a25.4 25.4 0 0 0-3.457 3.811v-.017Z" fill="#DC7527"/><path d="M486.551 185.521a22.604 22.604 0 0 0-11.765 3.259l3.44 8.278c2.201-1.656 5.022-2.846 8.548-2.846 1.823 0 3.475.414 4.885 1.156l6.605-6.415c-3.44-2.328-7.637-3.449-11.713-3.449v.017ZM506.348 241.101h-18.387L479 249.81h27.348a2.135 2.135 0 0 0 2.133-2.138v-4.432a2.136 2.136 0 0 0-2.133-2.139ZM497.215 224.115c6.174-7.657 8.565-13.278 8.565-20.073 0-5.225-1.703-9.278-4.317-12.244l-6.622 6.433c1.101 1.621 1.737 3.655 1.737 5.966 0 5.898-3.147 10.727-9.322 18.107-7.998 9.554-17.75 19.211-22.446 23.85a2.134 2.134 0 0 0 1.479 3.656h6.605l11.3-10.968c5.642-6.035 10.252-11.243 13.004-14.71l.017-.017ZM558.808 202.455c0-11.122-9.718-16.951-19.299-16.951-3.491 0-6.811.69-10.027 2.069l3.285 7.933c1.84-.759 4.042-1.294 6.656-1.294 4.73 0 10.251 2.225 10.251 8.468 0 2.776-1.135 4.897-2.872 6.415 2.786.759 5.607 1.879 8.514 3.363 3.01-3.708 3.474-7.847 3.474-10.003h.018Z" fill="#000"/><path d="M521.879 192.229a2.138 2.138 0 0 0-.619 2.466l1.806 4.363c.275.656.877 1.087 1.565 1.225.688.138 1.445-.104 1.944-.587.516-.5 1.342-1.276 2.46-2.086l-3.354-8.088a35.24 35.24 0 0 0-3.802 2.707Z" fill="#1E726A"/><path d="M555.333 217.286c-6.501-3.69-12.418-5.329-18.404-5.156v-.069h-3.044c-1.17 0-2.133.948-2.133 2.138v4.294c0 1.173.946 2.139 2.133 2.139h3.973c14.121 0 15.652 7.191 15.652 10.278 0 5.259-4.025 11.399-15.36 11.399-2.666 0-5.194-.311-7.585-.914l-2.339 8.363c2.855.742 6.089 1.242 9.907 1.242 16.908 0 24.476-9.864 24.476-19.659 0-4.863-2.064-10.382-7.31-14.055h.034Z" fill="#000"/><path d="M523.29 238.325a2.137 2.137 0 0 0-1.858-.19 2.13 2.13 0 0 0-1.29 1.345l-1.428 4.432a2.126 2.126 0 0 0 1.067 2.553 52.98 52.98 0 0 0 4.386 1.948l2.356-8.415a26.528 26.528 0 0 1-3.251-1.69l.018.017Z" fill="#ECAE45"/><path d="M54.369 94.33V10.278c0-2.725-2.116-4.846-4.833-4.846h-7.551c-2.718 0-4.988 2.121-4.988 4.846v91.76c0 9.537-4.524 13.02-9.821 13.02-5.745 0-9.821-3.932-9.821-13.02v-91.76c0-2.725-2.116-4.846-4.834-4.846H4.833C2.116 5.432 0 7.553 0 10.278v93.123c0 19.693 13.898 27.712 25.68 27.712 5.435 0 11.334-1.207 15.703-4.242l1.359-1.052s.034 0 .051-.034c10.269-8.019 11.576-13.331 11.576-31.472v.017Z" fill="#DC7527"/><path d="M86.55 5.432h-7.706c-2.717 0-4.833 2.121-4.833 4.846v7.14c0-4.812 3.887-8.71 8.686-8.71 4.799 0 8.686 3.898 8.686 8.71v-7.14c0-2.725-2.115-4.846-4.833-4.846Z" fill="#000"/><path d="M82.697 26.126c-4.799 0-8.686-3.897-8.686-8.709v84.621c0 9.537-4.523 13.02-9.82 13.02-1.308 0-2.53-.224-3.647-.638-2.099 5.553-5.074 10.347-8.669 13.762 3.99 2.069 8.944 2.931 13.382 2.931 11.781 0 26.126-8.329 26.126-27.712V17.417c0 4.812-3.887 8.71-8.686 8.71Z" fill="#1E726A"/><path d="M54.369 102.038v-7.725c0 18.141-1.307 23.453-11.575 31.472 1.032-.587 1.771-.88 2.665-.88.895 0 1.669.31 2.718.914l1.514 1.052c.67.483 1.41.914 2.167 1.293 3.612-3.414 6.587-8.208 8.669-13.761-3.733-1.431-6.175-5.381-6.175-12.382l.017.017ZM82.697 26.126c4.797 0 8.686-3.899 8.686-8.709S87.494 8.71 82.697 8.71c-4.797 0-8.686 3.899-8.686 8.708 0 4.81 3.89 8.71 8.686 8.71ZM12.539 5.432H4.833C2.116 5.432 0 7.553 0 10.278v7.14c0-4.812 3.887-8.71 8.686-8.71 4.799 0 8.686 3.898 8.686 8.71v-7.14c0-2.725-2.116-4.846-4.833-4.846Z" fill="#000"/><path d="M8.686 26.126c4.797 0 8.686-3.899 8.686-8.709S13.483 8.71 8.686 8.71C3.889 8.709 0 12.608 0 17.417c0 4.81 3.889 8.71 8.686 8.71Z" fill="#000"/><path d="M432.32 131.027c-.826-.138-1.806-.466-2.821-.983.86.483 1.806.828 2.821.983Z" fill="#3A4D9F"/><path d="M422.172 119.197v-15.331c0 6.95-2.838 10.502-7.121 11.416v7.019c0 3.225 1.376 5.846 3.216 7.812 2.907-1.035 4.661-2.311 6.175-2.311.912 0 1.582.138 2.219.414-2.443-2.035-4.489-5.07-4.489-9.019Z" fill="#231815"/><path d="M412.35 33.145c-14.052 0-26.591 9.243-26.591 25.746v3.329c0 2.724 2.116 5 4.833 5h7.104c2.718 0 4.833-2.12 4.833-4.845v-.759c0-8.64 4.386-12.416 9.821-12.416 6.502 0 9.821 4.535 9.821 14.537v55.46c0 3.932 2.047 6.984 4.49 9.019.43.19.825.431 1.255.793l.602.449c.31.207.654.414.981.603 1.014.5 1.995.828 2.82.983.293.035.568.086.878.086 3.319 0 5.882-2.121 5.882-5.897V61.771c0-18.935-12.074-28.626-26.729-28.626Z" fill="#1E726A"/><path d="M417.029 88.26c2.425 0 5.143.603 5.143 3.483v-21.66c0 1.966-1.359 3.484-3.475 3.484h-3.646V88.26h1.978Z" fill="#231815"/><path d="M415.051 115.265c-.757.155-1.548.259-2.391.259-6.347 0-10.268-4.536-10.268-11.658v-4.087c0-6.967 3.474-11.502 9.821-11.502h2.855V73.584h-4.506c-15.704 0-25.233 12.261-25.233 25.436v4.243c0 17.107 12.229 28.161 24.923 28.161 3.457 0 6.02-.604 8.015-1.328-1.84-1.966-3.216-4.587-3.216-7.812v-7.019ZM137.823 120.939c0-2.363.946-4.518 2.477-6.088a9.292 9.292 0 0 1-2.477.466v5.622Z" fill="#3A4D9F"/><path d="M137.823 115.334c-.327.017-.637.035-.981.035-6.948 0-9.976-4.398-9.976-14.986V64.186c0-5.743.981-9.727 3.01-12.14-.946.344-1.943.568-3.01.568-4.798 0-8.685-3.897-8.685-8.708 0-2.26.877-4.312 2.304-5.864-6.364 4.605-10.526 12.468-10.526 23.73v41.042c0 19.073 12.074 28.627 26.591 28.627.43 0 .86-.035 1.29-.052v-16.038l-.017-.017Z" fill="#3A4D9F"/><path d="M135.57 43.906c0 2.242-.86 4.26-2.253 5.794.997-.345 2.132-.5 3.371-.5.395 0 .774.017 1.135.051V33.198c-.378 0-.757-.052-1.135-.052-4.077 0-7.929.759-11.404 2.207a7.95 7.95 0 0 1 1.583-.155c4.798 0 8.686 3.897 8.686 8.709h.017Z" fill="#231815"/><path d="M137.823 33.197V49.25c5.865.518 8.686 5.243 8.686 14.935v36.197c0 6.087-.998 10.105-3.096 12.451a8.446 8.446 0 0 1 3.096-.604c4.798 0 8.686 3.897 8.686 8.709 0 1.897-.62 3.621-1.634 5.052 6.02-4.69 9.872-12.416 9.872-23.194V61.754c0-18.728-11.472-28.092-25.593-28.575l-.017.017Z" fill="#1E726A"/><path d="M137.823 120.939v10.433c3.268-.121 6.415-.707 9.27-1.794-.206 0-.395.052-.584.052-4.799 0-8.686-3.897-8.686-8.708v.017Z" fill="#231815"/><path d="M133.316 49.7c-1.358.465-2.511 1.241-3.422 2.345a8.753 8.753 0 0 0 3.422-2.345ZM120.485 38.042a25.199 25.199 0 0 1 4.799-2.69c-1.892.345-3.56 1.328-4.799 2.69Z" fill="#DC7527"/><path d="M126.884 52.614c1.066 0 2.064-.224 3.01-.569a7.6 7.6 0 0 1 3.422-2.345c1.376-1.535 2.254-3.553 2.254-5.794 0-4.812-3.888-8.71-8.686-8.71a9.47 9.47 0 0 0-1.583.156 24.683 24.683 0 0 0-4.798 2.69c-1.411 1.552-2.305 3.587-2.305 5.864 0 4.81 3.887 8.708 8.686 8.708ZM146.509 112.23a8.377 8.377 0 0 0-3.096.604 7.12 7.12 0 0 1-3.096 2.035 8.671 8.671 0 0 0-2.477 6.087c0 4.811 3.887 8.709 8.686 8.709.206 0 .396-.052.585-.052a24.88 24.88 0 0 0 6.45-3.587c1.015-1.431 1.634-3.156 1.634-5.053 0-4.811-3.887-8.708-8.686-8.708v-.035Z" fill="#231815"/><path d="M261.817 115.041c-.894.207-1.858.328-2.924.328-6.639 0-9.666-4.398-9.666-14.986V64.186c0-10.296 3.164-14.986 9.821-14.986.997 0 1.926.12 2.769.345V34.179c-1.496-.206-3.251-.413-5.332-.413-13.588 0-24.166 10.295-24.166 28.626v40.284c0 19.987 12.694 28.765 24.321 28.765 2.889 0 5.521-.586 7.568-1.224-1.393-1.639-2.374-3.674-2.374-6.174v-8.985l-.017-.017Z" fill="#1E726A"/><path d="M280.943 5.432h-7.241c-2.718 0-4.833 2.121-4.833 4.846v3.639c1.118-3.501 4.369-6.053 8.239-6.053 4.798 0 8.686 3.897 8.686 8.708v-6.277c0-2.724-2.116-4.846-4.834-4.846l-.017-.017Z" fill="#000"/><path d="M277.09 25.264c-3.87 0-7.103-2.552-8.238-6.053v6.053c0 1.966.154 3.035.154 5.45 0 .327-.068.655-.154.948v88.501c0 3.483 1.909 6.087 4.162 7.898.533.19 1.066.483 1.582.931l.602.449c.31.206.62.396.929.586 1.29.638 2.46 1.017 3.199 1.155.189.017.362.069.551.069 3.164 0 5.882-1.673 5.882-6.053V16.555c0 4.811-3.887 8.709-8.686 8.709h.017Z" fill="#3A4D9F"/><path d="M279.344 131.199c-.757-.137-1.909-.517-3.199-1.155.963.586 2.029 1.035 3.199 1.155Z" fill="#1E726A"/><path d="M268.852 120.163v-19.78c0 8.967-2.167 13.485-7.052 14.658v8.985c0 2.5.98 4.535 2.373 6.173.293-.103.62-.189.895-.293 2.872-1.052 4.678-2.121 6.192-2.121.619 0 1.187.086 1.737.276-2.253-1.811-4.162-4.415-4.162-7.898h.017ZM268.852 64.186V31.679c-.482 1.638-2.099 2.828-3.629 2.828-.981 0-2.116-.172-3.423-.345v15.366c4.747 1.224 7.052 5.915 7.052 14.658ZM277.09 7.846c-3.87 0-7.103 2.553-8.238 6.053v5.295c1.118 3.5 4.368 6.053 8.238 6.053 4.799 0 8.686-3.898 8.686-8.71 0-4.81-3.887-8.708-8.686-8.708v.017Z" fill="#000"/><path d="M211.765 33.904c-3.319 0-5.435.603-7.998 1.517-4.076 1.518-5.143 2.276-7.103 2.276-1.05 0-2.426-.448-3.32-1.207l-.602-.448c-1.359-1.052-2.872-1.966-4.833-1.966-3.32 0-5.745 2.276-5.745 5.898v73.722c0-4.811 3.887-8.709 8.686-8.709 3.87 0 7.104 2.552 8.239 6.053V63.754c0-9.691 2.563-11.967 10.578-11.967h1.513c2.718 0 5.435-1.811 5.435-4.846v-8.174c0-2.725-2.115-4.846-4.833-4.846l-.017-.017Z" fill="#ECAE45"/><path d="M190.85 122.387c-4.799 0-8.686-3.897-8.686-8.708v9.398c0 2.725 2.116 4.846 4.833 4.846h6.502c4.523 0 5.59-2.57 5.59-4.846v-6.743c-1.118 3.501-4.369 6.053-8.239 6.053Z" fill="#231815"/><path d="M190.85 104.97c-4.799 0-8.686 3.897-8.686 8.709 0 4.811 3.887 8.708 8.686 8.708 3.87 0 7.104-2.552 8.239-6.053v-5.294c-1.118-3.501-4.369-6.053-8.239-6.053v-.017Z" fill="#DC7527"/><path d="m472.017 35.87-.602-.449c-1.359-1.052-2.872-1.81-4.678-1.81-3.32 0-5.883 2.276-5.883 6.052v75.878c0-4.811 3.887-8.709 8.686-8.709 3.87 0 7.104 2.553 8.239 6.053V62.22c0-10.227-.327-20.418-4.3-25.42a5.486 5.486 0 0 1-1.428-.93h-.034Z" fill="#ECAE45"/><path d="M469.523 124.232c-4.799 0-8.686-3.897-8.686-8.708v9.985c0 2.724 2.115 4.845 4.833 4.845h7.241c2.718 0 4.833-2.121 4.833-4.845v-7.347c-1.118 3.501-4.368 6.053-8.238 6.053l.017.017Z" fill="#DC7527"/><path d="M481.374 34.956c-2.718 1.051-4.524 2.276-5.883 2.276-.756 0-1.41-.155-2.046-.431 3.973 5 4.3 15.192 4.3 25.419 0-7.76 2.992-11.589 7.103-12.675-.241-5.795-.894-11.072-2.649-14.848-.275.086-.585.172-.843.276l.018-.017Z" fill="#000"/><path d="M506.365 38.732c-1.17-.017-2.202-.465-3.096-1.052-1.445-1.155-2.941-2.07-4.541-2.742-2.597-1.12-5.418-1.638-8.6-1.638-2.7 0-5.504.62-7.912 1.397 1.737 3.776 2.408 9.07 2.649 14.848.86-.224 1.772-.345 2.701-.345 5.28 0 9.356 3.794 9.356 13.02v63.306c0 2.725 2.116 4.846 4.833 4.846h7.242c2.717 0 4.833-2.121 4.833-4.846V62.22c0-11.865-2.941-19.332-7.482-23.488h.017Z" fill="#DC7527"/><path d="M509.323 37.68c-.911.604-1.806 1.052-2.872 1.052h-.086c4.541 4.139 7.482 11.623 7.482 23.488 0-8.054 2.89-11.865 7.138-12.779-1.066-6.777-3.44-11.468-6.622-14.486-1.806.708-3.44 1.622-5.057 2.742l.017-.017Z" fill="#000"/><path d="M524.717 33.3c-4.317 0-7.55.57-10.354 1.656 3.182 3.017 5.556 7.708 6.622 14.485a10.294 10.294 0 0 1 2.219-.241c5.28 0 9.821 3.794 9.821 13.02v50.665c1.118-3.5 4.369-6.053 8.239-6.053 4.798 0 8.686 3.898 8.686 8.709V61.168c0-20.297-13.296-27.868-25.233-27.868Z" fill="#3A4D9F"/><path d="M541.264 124.233c-3.87 0-7.104-2.553-8.239-6.053v7.346c0 2.725 2.115 4.846 4.833 4.846h7.258c2.718 0 4.834-2.121 4.834-4.846v-9.985c0 4.811-3.888 8.709-8.686 8.709v-.017Z" fill="#231815"/><path d="M478.209 115.524c0-.931-.189-1.811-.447-2.656v5.294c.275-.845.447-1.724.447-2.655v.017ZM469.523 106.815c-4.799 0-8.686 3.897-8.686 8.709 0 4.811 3.887 8.709 8.686 8.709 3.87 0 7.103-2.553 8.239-6.053v-5.295c-1.118-3.5-4.369-6.053-8.239-6.053v-.017Z" fill="#DC7527"/><path d="M532.578 115.524c0 .931.189 1.811.447 2.656v-5.295c-.275.845-.447 1.725-.447 2.639ZM541.264 106.815c-3.87 0-7.104 2.552-8.239 6.053v5.294c1.118 3.501 4.369 6.053 8.239 6.053 4.798 0 8.686-3.897 8.686-8.708 0-4.812-3.888-8.709-8.686-8.709v.017Z" fill="#231815"/><path d="M597.679 33.3c-2.889 0-5.521.586-7.568 1.224 1.394 1.639 2.374 3.673 2.374 6.174v8.985a12.863 12.863 0 0 1 2.924-.328c6.639 0 9.666 4.398 9.666 14.986v36.197c0 10.295-3.165 14.986-9.821 14.986-.998 0-1.926-.121-2.769-.345v15.365c1.496.207 3.251.414 5.332.414 13.588 0 24.166-10.295 24.166-28.627V62.047c0-19.987-12.694-28.764-24.321-28.764l.017.017Z" fill="#DC7527"/><path d="M585.45 64.34V44.56c0-3.483-1.909-6.087-4.162-7.897a4.877 4.877 0 0 1-1.583-.931l-.602-.449a26.679 26.679 0 0 0-.929-.586c-1.29-.638-2.459-1.018-3.199-1.156-.189-.017-.361-.069-.55-.069-3.165 0-5.883 1.673-5.883 6.053v105.246c0-4.811 3.888-8.708 8.686-8.708 3.87 0 7.104 2.552 8.239 6.052v-2.655c0-1.966-.155-3.035-.155-5.45 0-.327.069-.655.155-.948V64.341h-.017Z" fill="#1E726A"/><path d="M577.211 153.463c-4.798 0-8.686-3.898-8.686-8.709v9.692c0 2.724 2.116 4.845 4.834 4.845h7.241c2.717 0 4.833-2.121 4.833-4.845v-7.036c-1.118 3.5-4.369 6.053-8.239 6.053h.017Z" fill="#000"/><path d="M574.958 33.507c.757.138 1.909.517 3.199 1.155-.963-.586-2.029-1.034-3.199-1.155Z" fill="#1E726A"/><path d="M585.45 44.544v19.78c0-8.968 2.167-13.486 7.052-14.659v-8.984c0-2.5-.98-4.536-2.374-6.174-.292.104-.619.19-.894.293-2.872 1.052-4.678 2.121-6.192 2.121a5.241 5.241 0 0 1-1.737-.276c2.253 1.811 4.162 4.415 4.162 7.899h-.017ZM585.45 100.538v32.507c.482-1.639 2.099-2.829 3.629-2.829.981 0 2.116.173 3.423.345v-15.365c-4.747-1.224-7.052-5.915-7.052-14.658Z" fill="#000"/><path d="M585.897 144.754c0-.931-.189-1.811-.447-2.656v5.294c.275-.845.447-1.724.447-2.655v.017Z" fill="#DC7527"/><path d="M577.211 136.045c-4.798 0-8.686 3.898-8.686 8.709s3.888 8.709 8.686 8.709c3.87 0 7.104-2.553 8.239-6.053v-5.294c-1.118-3.501-4.369-6.053-8.239-6.053v-.018ZM356.692 93.054c4.798 0 8.685 3.897 8.685 8.708v-6.984c0-2.725-2.115-4.846-4.833-4.846h-7.55c-2.718 0-4.988 2.121-4.988 4.846v6.984c0-4.81 3.887-8.708 8.686-8.708Z" fill="#000"/><path d="M356.623 23.643c4.592 0 8.325 3.57 8.686 8.088-.723-18.366-12.763-27.368-27.262-27.368-14.5 0-27.485 9.536-27.485 29.075v69.066c0 19.694 12.538 28.92 27.485 28.92s27.331-9.244 27.331-28.92v-.724c0 4.811-3.888 8.708-8.686 8.708-4.799 0-8.686-3.897-8.686-8.708v.431c0 9.536-4.524 12.864-9.976 12.864-6.502 0-10.114-4.535-10.114-12.864V33.748c0-9.088 4.231-13.02 10.114-13.02 5.315 0 9.339 3.26 9.89 11.089.309-4.553 4.059-8.174 8.686-8.174h.017Z" fill="#DC7527"/><path d="M356.623 41.198c-4.369 0-7.964-3.225-8.617-7.432v5.897c0 2.725 2.27 4.846 4.988 4.846h7.55c2.718 0 4.833-2.12 4.833-4.846v-6.208c0-.258-.017-.483-.034-.724-.155 4.708-3.99 8.484-8.72 8.484v-.017Z" fill="#000"/><path d="M347.937 31.817c0 .207-.069.397-.069.603 0 .466.069.897.138 1.346 0-.69-.035-1.328-.069-1.95ZM365.378 32.42c0-.241-.052-.448-.069-.69 0 .328.034.639.034.984 0-.104.035-.19.035-.294Z" fill="#3A4D9F"/><path d="M356.623 41.198c4.73 0 8.566-3.776 8.72-8.484 0-.328-.034-.656-.034-.983-.361-4.519-4.076-8.088-8.686-8.088s-8.376 3.604-8.686 8.174c.052.62.069 1.259.069 1.931.653 4.225 4.248 7.45 8.617 7.45ZM356.692 110.471c4.797 0 8.685-3.899 8.685-8.709s-3.888-8.708-8.685-8.708c-4.798 0-8.686 3.899-8.686 8.708 0 4.81 3.888 8.709 8.686 8.709Z" fill="#000"/><path d="M82.697 17.417c4.797 0 8.686-3.899 8.686-8.708 0-4.81-3.889-8.709-8.686-8.709-4.797 0-8.686 3.899-8.686 8.709s3.89 8.708 8.686 8.708ZM577.211 162.171c4.797 0 8.686-3.899 8.686-8.708 0-4.81-3.889-8.709-8.686-8.709-4.797 0-8.686 3.899-8.686 8.709 0 4.809 3.889 8.708 8.686 8.708ZM394.308 71.601c4.797 0 8.686-3.899 8.686-8.709s-3.889-8.708-8.686-8.708c-4.797 0-8.686 3.899-8.686 8.708 0 4.81 3.889 8.709 8.686 8.709Z" fill="#DC7527"/><path d="M469.523 132.941c4.797 0 8.686-3.899 8.686-8.709 0-4.809-3.889-8.708-8.686-8.708-4.797 0-8.686 3.899-8.686 8.708 0 4.81 3.889 8.709 8.686 8.709Z" fill="#1E726A"/><path d="M541.264 132.941c4.797 0 8.685-3.899 8.685-8.709 0-4.809-3.888-8.708-8.685-8.708-4.798 0-8.686 3.899-8.686 8.708 0 4.81 3.888 8.709 8.686 8.709ZM505.385 132.941c4.797 0 8.686-3.899 8.686-8.709 0-4.809-3.889-8.708-8.686-8.708-4.797 0-8.686 3.899-8.686 8.708 0 4.81 3.889 8.709 8.686 8.709Z" fill="#DC7527"/><path d="M356.692 49.838c4.797 0 8.685-3.9 8.685-8.709 0-4.81-3.888-8.709-8.685-8.709-4.798 0-8.686 3.9-8.686 8.71 0 4.809 3.888 8.708 8.686 8.708Z" fill="#3A4D9F"/><path d="M356.692 102.056c4.797 0 8.685-3.9 8.685-8.71 0-4.809-3.888-8.708-8.685-8.708-4.798 0-8.686 3.9-8.686 8.709 0 4.81 3.888 8.709 8.686 8.709Z" fill="#1E726A"/><path d="M136.688 49.838c4.797 0 8.686-3.9 8.686-8.709 0-4.81-3.889-8.709-8.686-8.709-4.797 0-8.686 3.9-8.686 8.71 0 4.809 3.889 8.708 8.686 8.708ZM136.688 131.837c4.797 0 8.686-3.899 8.686-8.708 0-4.81-3.889-8.709-8.686-8.709-4.797 0-8.686 3.899-8.686 8.709 0 4.809 3.889 8.708 8.686 8.708Z" fill="#DC7527"/><path d="M190.85 131.096c4.797 0 8.686-3.899 8.686-8.709 0-4.809-3.889-8.708-8.686-8.708-4.797 0-8.686 3.899-8.686 8.708 0 4.81 3.889 8.709 8.686 8.709ZM8.686 17.417c4.797 0 8.686-3.899 8.686-8.708C17.372 3.899 13.483 0 8.686 0 3.889 0 0 3.899 0 8.709s3.889 8.708 8.686 8.708Z" fill="#1E726A"/><path d="M45.683 17.417c4.797 0 8.686-3.899 8.686-8.708C54.369 3.899 50.48 0 45.683 0c-4.797 0-8.686 3.899-8.686 8.709s3.889 8.708 8.686 8.708ZM277.09 17.417c4.798 0 8.686-3.899 8.686-8.708 0-4.81-3.888-8.709-8.686-8.709-4.797 0-8.685 3.899-8.685 8.709s3.888 8.708 8.685 8.708Z" fill="#DC7527"/></g><defs><clipPath id="a"><path fill="#fff" d="M0 0h622v251H0z"/></clipPath></defs></svg>