<svg width="401" height="613" fill="none" xmlns="http://www.w3.org/2000/svg"><g clip-path="url(#a)"><path d="M149.076 346.498s-27.271 13.737-39.611 14.581c-20.054 1.38-61.41-36.12-61.41-36.12L73.353 285.9s31.411 18.738 40.544 22.716c5.091 2.216 39.214-20.946 53.438 7.006 9.158 17.991-18.259 30.876-18.259 30.876Z" fill="#791628"/><path d="M108.434 364.359c-21.507 0-60.866-35.454-62.563-36.997a3.248 3.248 0 0 1-.544-4.173l25.298-39.059a3.25 3.25 0 0 1 4.392-1.023c.309.187 30.737 18.316 39.911 22.408 1.105-.049 4.255-1.137 6.812-2.014 12.811-4.408 36.656-12.616 48.493 10.644 2.501 4.912 2.898 9.937 1.185 14.93-4.173 12.178-19.777 19.794-20.922 20.337-1.566.788-28.074 14.03-40.812 14.906-.406.033-.828.041-1.25.041Zm-56.141-39.976c12.714 11.155 42.493 34.455 56.952 33.457 11.545-.796 38.11-14.111 38.377-14.241.025-.016.049-.024.074-.04.138-.065 14.248-6.828 17.593-16.595 1.128-3.312.86-6.535-.836-9.872-8.558-16.814-24.746-12.901-40.594-7.445-5.659 1.949-8.776 3.02-11.252 1.94-7.729-3.361-30.356-16.651-38.223-21.303l-22.091 34.099Z" fill="#3A1919"/><path d="M18.064 310.727c8.127 13.615 14.525 11.804 26.353 18.275 13.51 7.396 21.288 6.933 27.28-1.291 4.814-6.625 9.563-15.401 11.244-32.085.941-3.759-17.317-14.662-30.307-21.571-9.028-4.798-16.627-5.05-22.351-2.525-12.438 5.943-18.95 24.25-12.21 39.197h-.009Z" fill="#FFE14D"/><path d="M23.683 317.514c6.567 9.044 12.283 6.528 20.735 11.488 9.653 5.667 16.757 8.111 20.077 3.548 5.675-2.963 8.712-7.006 13.29-17.366.317-2.233-24.77-12.032-34.033-17.358-6.438-3.702-11.537-4.481-15.158-3.41-7.826 2.623-10.66 13.339-4.912 23.098Z" fill="#EA911B"/><path d="M60.095 337.519c-5.708 0-11.667-2.623-17.236-5.667-3.296-1.803-6.114-2.915-8.841-3.995-6.674-2.63-12.438-4.903-18.747-15.466a2.534 2.534 0 0 1-.17-.333c-7.282-16.164-.844-36.469 13.777-43.459.033-.016.065-.033.09-.041 5.05-2.224 13.517-3.572 25.184 2.631 32.67 17.374 32.564 22.537 31.988 24.989-1.81 17.634-6.99 26.8-11.821 33.441-4.214 5.789-9.118 7.9-14.224 7.9Zm-39.14-28.294c5.123 8.516 9.239 10.14 15.458 12.592 2.776 1.096 5.918 2.338 9.572 4.335 13.598 7.445 18.916 5.383 23.09-.357 4.318-5.935 8.946-14.159 10.602-30.21-1.559-2.541-11.837-9.766-28.57-18.664-7.388-3.93-14.118-4.774-19.468-2.444-11.285 5.431-16.343 21.937-10.684 34.748Z" fill="#3A1919"/><path d="m99.77 294.573-34.662-22.32-35.74 55.5 34.662 22.321 35.74-55.501Z" fill="#A31E36"/><path d="m65.096 272.252-10.83 16.814c.203 3.41 1.315 6.852 3.921 9.986 6.454 7.77 17.74 15.174 25.866 19.907l15.71-24.388-34.659-22.319h-.008Z" fill="#791628"/><path d="m88.507 287.321-12.13-7.811-35.74 55.501 12.13 7.81 35.74-55.5Z" fill="#FFEC64"/><path d="M76.365 279.51 61.49 302.6l-20.873 32.41 12.13 7.81 20.004-31.062 15.742-24.437-12.13-7.811Z" fill="#FFEC64"/><path d="M76.365 279.51 61.49 302.608c3.313 3.248 7.266 6.357 11.26 9.158l15.743-24.445-12.13-7.811Z" fill="#DDC84B"/><path d="M64.008 353.326a3.279 3.279 0 0 1-1.762-.52l-34.659-22.318a3.252 3.252 0 0 1-.974-4.49l35.747-55.499a3.247 3.247 0 0 1 4.49-.966l34.658 22.318a3.248 3.248 0 0 1 .966 4.49L66.728 351.84a3.247 3.247 0 0 1-2.736 1.486h.016Zm-30.17-26.54 29.196 18.803 32.231-50.044-29.195-18.803-32.231 50.044Z" fill="#3A1919"/><path d="m112.891 240.508-9.791 10.579c-15.158 10.538-32.743 19.858-40.902 21.677-1.3.284-2.404.812-3.288 1.551-1.811 1.501-2.615 3.905-2.063 6.162a6.053 6.053 0 0 0 1.518 2.76 14.572 14.572 0 0 0 2.769 2.411c7.908 5.334 23.91 5.488 44.799-.089l5.561-1.486c-3.596-12.917-8.289-26.751 1.405-43.565h-.008Z" fill="#FF9739"/><path d="m110.065 241.872-9.791 10.579c-7.347 5.107-15.474 10.156-22.618 13.98 1.428 15.783-6.552 22.944-6.552 22.944 6.966-.301 22.91-.033 31.987-2.46l5.562-1.486c-3.597-12.917-8.289-26.751 1.404-43.565l.008.008Z" fill="#E26917"/><path d="M78.735 292.947c-8.265 0-14.881-1.534-19.436-4.603a18.023 18.023 0 0 1-3.337-2.899 9.272 9.272 0 0 1-2.281-4.189c-.844-3.459.39-7.161 3.142-9.442 1.283-1.072 2.85-1.819 4.66-2.216 7.623-1.697 24.908-10.888 39.465-20.971l9.556-10.319a3.242 3.242 0 0 1 4.311-.406 3.247 3.247 0 0 1 .885 4.238c-8.509 14.744-5.034 27.084-1.665 39.027l.577 2.046a3.252 3.252 0 0 1-2.29 4.01l-5.561 1.486c-10.62 2.833-20.078 4.254-28.018 4.254l-.008-.016Zm25.72-38.856c-15.588 10.782-33.002 19.939-41.567 21.839-.78.171-1.43.471-1.916.877-.861.714-1.243 1.843-.99 2.898.12.479.364.926.705 1.291.025.025.041.049.065.073.682.763 1.34 1.332 2.176 1.9 7.12 4.806 22.87 4.603 42.136-.544l2.387-.641c-2.354-8.379-4.725-17.496-3.004-27.693h.008Z" fill="#3A1919"/><path d="M299.426 490.28c-10.343 7.12-20.451 12.243-30.031 15.937l-.617 1.128c-21.742 39.782-68.936 70.365-109.773 71.136-20.354.366-36.128-7.282-44.547-21.449-11.172-18.779-28.643-25.606-40.131-22.651-8.403 2.167-13.404 9.247-13.737 19.428-.284 8.784 6.69 19.647 19.12 29.812 16.96 13.866 43.686 25.549 70.892 25.549 6.73 0 13.501-.714 20.151-2.289 56.457-13.372 108.157-57.391 125.718-107.053l3.052-9.629s-.073.048-.105.073l.008.008Z" fill="#FF9739"/><path d="M293.02 494.453c-20.215 46.033-69.131 85.774-122.267 98.358-6.65 1.575-13.421 2.289-20.151 2.289-27.206 0-53.933-11.682-70.892-25.549-9.313-7.615-15.556-15.621-17.991-22.846-.666 2.151-1.048 4.53-1.129 7.112-.284 8.784 6.69 19.647 19.12 29.812 16.96 13.866 43.686 25.549 70.892 25.549 6.73 0 13.501-.714 20.151-2.289 56.457-13.372 108.149-57.391 125.718-107.053l3.052-9.629s-.073.049-.105.073a151.09 151.09 0 0 1-6.398 4.173Z" fill="#E26917"/><path d="M150.602 612.426c-30.08 0-57.407-13.575-72.947-26.281-13.225-10.814-20.63-22.634-20.313-32.434.374-11.561 6.414-19.956 16.173-22.472 12.665-3.248 31.76 3.994 43.735 24.137 7.819 13.16 22.595 20.207 41.698 19.866 39.757-.755 85.75-30.616 106.98-69.447l.617-1.137a3.234 3.234 0 0 1 1.681-1.469c10.148-3.922 20.02-9.158 29.341-15.572a3.244 3.244 0 0 1 3.905-.016 3.24 3.24 0 0 1 1.153 3.588l-3.053 9.629s-.024.065-.033.097c-17.918 50.645-70.567 95.525-128.031 109.132-6.666 1.575-13.697 2.379-20.898 2.379h-.008Zm-70.706-75.472c-1.68 0-3.28.195-4.765.577-6.999 1.802-11.01 7.623-11.294 16.391-.243 7.648 6.455 17.813 17.927 27.198 14.678 11.991 40.463 24.811 68.838 24.811 6.698 0 13.225-.739 19.404-2.2 55.418-13.12 106.152-56.271 123.388-104.926l.3-.95a147.603 147.603 0 0 1-22.018 10.968l-.049.097c-22.253 40.724-70.649 72.029-112.557 72.825-.487.008-.983.016-1.462.016-20.808 0-37.078-8.151-45.943-23.057-8.858-14.889-21.758-21.742-31.769-21.742v-.008Z" fill="#3A1919"/><path d="M298.971 502.742c18.154-12.551 40.862-40.869 46.204-104.561 3.304-39.343-1.307-83.809-11.732-113.288-3.044-8.598-6.568-16.838-10.798-24.429-16.797-30.161-35.292-42.242-35.308-42.25a113.587 113.587 0 0 0-3.134-2.314 107.94 107.94 0 0 0-4.384-3.02h-.016c-16.879-10.806-35.893-16.602-56.522-17.228a181.11 181.11 0 0 0-5.099-.081c-49.126 0-99.892 20.841-119.661 58.284-15.718 29.764 5.748 38.118 7.477 40.099 8.695 7.777-17.95 94.152-17.95 94.152-13.916 1.616-37.493 11.48-40.513 33.961-.04.292.974 4.709 1.445 6.608.025.098.04.203.073.301l.414 1.632c-5.18-3.743-10.757-5.732-16.213-5.732-6.21 0-11.942 2.663-15.717 7.298-4.352 5.351-5.83 12.739-4.165 20.809 3.954 19.127 36.566 54.809 59.518 60.322 1.916.462 3.686.69 5.26.69 3.776 0 6.56-1.324 8.274-3.938 2.995-4.579 2.054-12.105.609-17.236 51.058 48.355 135.825 34.699 135.825 34.699h.325c11.829 0 25.314-1.104 45.66-8.743 20.345-7.648 30.136-16.01 30.136-16.01l-.008-.025Z" fill="#FFE14D"/><path d="M330.123 287.499c-3.045-8.597-6.569-16.838-10.798-24.429-13.193-23.69-27.433-36.226-32.946-40.512 5.017 6.113 10.506 13.842 15.823 23.39 4.23 7.591 7.754 15.823 10.798 24.429 10.433 29.479 20.719 78.816 17.415 118.159-5.342 63.692-28.05 92.018-46.204 104.561 0 0-9.791 8.371-30.136 16.01-20.346 7.648-45.976 8.744-45.976 8.744s-90.451 8.776-141.51-39.571c1.446 5.123 2.388 12.658-.608 17.237-1.705 2.614-4.49 3.937-8.273 3.937-1.575 0-3.345-.235-5.261-.69-8.03-1.924-17.236-7.55-25.988-14.865 12.422 14.784 29.47 28.715 43.11 31.987 1.916.463 3.686.69 5.261.69 3.775 0 6.56-1.323 8.273-3.937 2.996-4.579 2.054-12.105.609-17.236 51.058 48.355 135.826 34.699 135.826 34.699h.325c11.828 0 25.314-1.104 45.659-8.744 20.346-7.648 30.137-16.01 30.137-16.01 18.153-12.551 40.861-40.869 46.211-104.56 3.305-39.344-1.307-83.81-11.739-113.289h-.008Z" fill="#EA911B"/><path d="M343.048 319.122c-4.49-11.147-10.173-21.905-17.374-31.355-92.643 19.063-161.709 38.954-161.709 38.954-28.066-.918-62.611-2.55-62.611-2.55 0 1.332-2.208 8.972-5.253 18.86-.276 1.169-.568 2.363-.86 3.589-4.466 18.307-9.613 35.998-11.334 41.803-.78.13-1.591.284-2.427.463-1.697 5.196-2.777 8.492-2.777 8.492 4.782 12.981 20.946 23.438 86.764 32.726 75.837 7.705 144.05.171 179.229-10.351a274.632 274.632 0 0 0 2.094-18.048c2.29-27.254.812-56.961-3.751-82.575l.009-.008ZM278.382 219.741s28.822 38.239-31.858 60.273l76.121-19.542s-7.469-24.169-44.271-40.731h.008Z" fill="#EA911B"/><path d="M195.417 535.785c-6.47 0-13.785-.268-21.636-1.015-23.561-2.248-56.06-9.425-82.153-30.396.105 3.637-.439 7.559-2.493 10.692-1.615 2.468-4.83 5.407-10.984 5.407-1.827 0-3.857-.259-6.016-.779-24.373-5.854-57.724-42.436-61.938-62.822-1.875-9.045-.162-17.399 4.823-23.52 4.4-5.399 11.041-8.492 18.243-8.492 3.767 0 7.599.836 11.333 2.46-.357-1.811-.316-2.168-.276-2.452 3.248-24.194 27.238-34.164 41.21-36.453 1.722-5.805 6.87-23.488 11.334-41.803 10.222-41.925 7.323-47.998 6.877-48.623-.024-.025-.049-.041-.073-.065-.187-.13-.642-.406-1.015-.625-5.456-3.272-22.05-13.234-7.007-41.722 12.008-22.741 35.341-36.827 52.805-44.637 21.855-9.775 47.275-15.385 69.723-15.385 1.721 0 3.475.024 5.204.081 21.222.642 40.796 6.609 58.179 17.74l.056.032c1.364.885 2.793 1.875 4.498 3.101.926.658 1.924 1.397 3.118 2.306 1.64 1.104 19.826 13.802 36.258 43.313 4.067 7.307 7.672 15.458 11.025 24.925 10.571 29.877 15.247 74.879 11.91 114.644-5.439 64.836-28.789 93.901-47.47 106.874-1.323 1.096-11.374 9.101-30.965 16.473-20.946 7.875-34.869 8.955-46.796 8.955h-.073c-1.875.284-12.446 1.786-27.685 1.786h-.016Zm-108.384-42.98c.811 0 1.615.3 2.232.893 25.663 24.299 60.371 32.223 84.971 34.594 26.881 2.59 47.9-.707 48.111-.739.17-.024.373-.016.519-.041h.325c11.31 0 24.535-1.031 44.507-8.541 19.469-7.314 29.081-15.368 29.17-15.449.082-.073.171-.138.26-.203 17.553-12.13 39.579-39.701 44.815-102.166 3.264-38.921-1.274-82.859-11.561-111.933-3.223-9.117-6.681-16.943-10.57-23.925-16.1-28.911-33.522-40.634-34.261-41.122a1.75 1.75 0 0 1-.138-.097 108.286 108.286 0 0 0-3.093-2.281 110.859 110.859 0 0 0-4.263-2.947c-.016 0-.024-.017-.04-.025-16.376-10.473-34.821-16.091-54.834-16.7a170.744 170.744 0 0 0-5.009-.073c-42.729 0-98.098 21.149-116.788 56.555-12.17 23.049-.414 30.104 4.612 33.116.998.601 1.689 1.015 2.233 1.575 2.062 1.932 3.84 6.057 1.802 20.987-1.137 8.37-3.369 19.428-6.625 32.872-5.52 22.79-12.194 44.905-12.26 45.124a3.25 3.25 0 0 1-2.735 2.29c-13.575 1.583-34.683 11.065-37.606 30.737.203 1.055.893 4.084 1.323 5.821l.049.227c.146.601.284 1.129.422 1.657a3.248 3.248 0 0 1-1.307 3.507 3.247 3.247 0 0 1-3.734-.041c-4.636-3.345-9.589-5.114-14.306-5.114-5.236 0-10.042 2.224-13.2 6.097-3.727 4.571-4.97 11.001-3.5 18.104 3.702 17.91 35.536 52.65 57.099 57.822 1.664.398 3.182.601 4.498.601 3.531 0 4.855-1.405 5.553-2.469 2.225-3.401 1.559-9.758.203-14.581a3.248 3.248 0 0 1 3.126-4.132Zm16.74-194.784h.008-.008Zm-.268-.276s.065.073.106.114c-.032-.041-.073-.073-.106-.114Z" fill="#3A1919"/><path d="M327.297 271.7c-92.642 19.063-161.708 38.954-161.708 38.954-28.066-.918-62.611-2.55-62.611-2.55 0 4.263-22.651 75.634-22.651 75.634 4.782 12.982 20.946 21.003 86.764 30.291 88.908 9.028 167.343-2.882 194.354-15.994 0 0 1.696-79.271-34.148-126.335Z" fill="#A31E36"/><path d="M229.508 420.443c-19.761 0-40.829-.958-62.75-3.183-.04 0-.081-.008-.13-.016-32.88-4.644-53.526-8.939-66.946-13.94-12.682-4.717-19.38-10.237-22.408-18.445a3.22 3.22 0 0 1-.049-2.103c8.484-26.743 22.075-70.6 22.497-74.741a3.254 3.254 0 0 1 1.007-2.265 3.28 3.28 0 0 1 2.395-.893c.341.016 34.423 1.624 62.059 2.533 6.422-1.827 73.823-20.841 161.457-38.872a3.249 3.249 0 0 1 3.239 1.209c18.933 24.852 27.384 58.463 31.143 82.275 4.052 25.696 3.686 45.278 3.67 46.098a3.236 3.236 0 0 1-1.827 2.85c-19.566 9.499-69.544 19.485-133.349 19.485l-.008.008Zm-62.027-9.637c89.281 9.06 164.062-3.004 190.724-14.841-.057-12.381-1.843-79.035-32.28-120.66-90.442 18.689-158.761 38.28-159.443 38.474a3.001 3.001 0 0 1-1.007.122c-23.203-.763-51.139-2.021-59.899-2.427-3.11 12.876-16.757 56.197-21.815 72.134 4.636 10.636 20.305 18.243 83.712 27.198h.008Zm-67.75-102.758v.056-.056Z" fill="#3A1919"/><path fill-rule="evenodd" clip-rule="evenodd" d="M296.186 362.873c-18.851 11.204-83.046 19.315-83.046 19.315l-.495 20.02s56.522-5.869 88.624-22.091c27.92-14.11 38.393-39.156 33.433-44.945-3.865-4.522-21.661 17.683-38.524 27.701h.008Z" fill="#791628"/><path d="m97.57 299.767 2.063 14.906a1.623 1.623 0 0 0 1.461 1.404l53.746 4.108s.024-.154.057-.438c1.055-8.955-5.537-17.009-14.516-17.87l-41.04-3.937a1.622 1.622 0 0 0-1.762 1.827h-.008Z" fill="#2E3499"/><path d="M154.832 323.433c-.081 0-.163 0-.244-.009l-53.746-4.108c-2.33-.219-4.132-1.948-4.432-4.221l-2.054-14.882v-.024a4.863 4.863 0 0 1 5.293-5.48l41.04 3.937a19.32 19.32 0 0 1 13.282 7.145c3.28 4.067 4.758 9.158 4.149 14.329-.041.374-.081.585-.081.585a3.263 3.263 0 0 1-3.207 2.719v.009Zm-52.163-10.49 49.029 3.751a12.672 12.672 0 0 0-2.785-6.811 12.846 12.846 0 0 0-8.849-4.758l-38.994-3.743 1.599 11.569v-.008Z" fill="#3A1919"/><path d="m327.516 258.613 4.523 13.42a1.626 1.626 0 0 1-1.186 1.64L154.84 320.185s-1.12-17.699 11.593-22.05l159.029-41.008a1.625 1.625 0 0 1 2.063 1.486h-.009Z" fill="#2E3499"/><path d="M268.924 271.7s5.033 4.742 2.176 15.929l60.93-15.604-4.522-13.42-58.584 13.087v.008Z" fill="#1E2672"/><path d="M154.832 323.433c-.674 0-1.34-.211-1.9-.609a3.24 3.24 0 0 1-1.34-2.428c-.048-.82-1.104-20.223 13.778-25.33l.243-.073 159.029-41.008c1.373-.389 2.891-.113 4.1.755a4.835 4.835 0 0 1 1.957 3.15l4.417 13.104a3 3 0 0 1 .162.885 4.847 4.847 0 0 1-3.556 4.92L155.66 323.327a3.221 3.221 0 0 1-.828.106Zm12.535-22.189c-6.747 2.387-8.63 9.921-9.133 14.679l170.029-44.929-3.483-10.343-157.413 40.593Zm158.964-40.991-.065.016s.041-.008.065-.016Z" fill="#3A1919"/><path d="M152.851 411.788h-.065a2.799 2.799 0 0 1-2.736-2.857l1.981-88.811a2.797 2.797 0 0 1 2.793-2.736h.065a2.801 2.801 0 0 1 2.736 2.858l-1.981 88.81a2.797 2.797 0 0 1-2.793 2.736Z" fill="#3A1919"/><path d="M150.05 358.895c-5.967 0-11.585-.487-16.765-1.469a2.7 2.7 0 0 1-2.144-3.142 2.7 2.7 0 0 1 3.142-2.144c9.621 1.819 26.053 2.736 49.744-3.215a2.678 2.678 0 0 1 3.255 1.949 2.676 2.676 0 0 1-1.948 3.255c-12.56 3.159-24.494 4.75-35.284 4.75v.016Z" fill="#FFEC64"/><path d="M128.552 361.452a7.136 7.136 0 1 0-7.137-7.136 7.136 7.136 0 0 0 7.137 7.136Z" fill="#FFEC64"/><path d="M128.552 363.482c-4.815 0-8.858-3.767-9.142-8.63a9.102 9.102 0 0 1 2.306-6.625 9.105 9.105 0 0 1 6.316-3.053 9.114 9.114 0 0 1 6.625 2.306 9.091 9.091 0 0 1 3.053 6.317 9.1 9.1 0 0 1-2.306 6.624 9.091 9.091 0 0 1-6.317 3.053c-.178.008-.357.016-.535.016v-.008Zm.016-14.264c-.098 0-.203 0-.301.008a5.061 5.061 0 0 0-3.515 1.705 5.043 5.043 0 0 0-1.283 3.685c.163 2.81 2.598 4.977 5.391 4.799a5.067 5.067 0 0 0 3.516-1.705 5.045 5.045 0 0 0 1.282-3.686 5.063 5.063 0 0 0-1.705-3.516 5.075 5.075 0 0 0-3.385-1.29Z" fill="#C6B44B"/><path d="M189.84 358.197a7.136 7.136 0 1 0 0-14.273 7.136 7.136 0 0 0 0 14.273Z" fill="#FFEC64"/><path d="M189.823 360.227a9.07 9.07 0 0 1-6.08-2.322 9.091 9.091 0 0 1-3.053-6.317 9.104 9.104 0 0 1 2.306-6.625 9.09 9.09 0 0 1 6.316-3.052 9.06 9.06 0 0 1 6.625 2.305 9.09 9.09 0 0 1 3.052 6.317 9.101 9.101 0 0 1-2.305 6.625 9.094 9.094 0 0 1-6.317 3.052c-.178.008-.365.017-.544.017Zm.017-14.273c-.098 0-.203 0-.301.008a5.083 5.083 0 0 0-3.515 1.697 5.053 5.053 0 0 0-1.283 3.694 5.06 5.06 0 0 0 1.705 3.515 5.034 5.034 0 0 0 3.686 1.283 5.06 5.06 0 0 0 3.515-1.705 5.041 5.041 0 0 0 1.283-3.686 5.06 5.06 0 0 0-1.705-3.515 5.073 5.073 0 0 0-3.385-1.291Z" fill="#C6B44B"/><path d="M145.471 331.73c-4.644 0-9.061-.317-13.217-.958a2.683 2.683 0 0 1-2.241-3.069 2.69 2.69 0 0 1 3.069-2.241c9.653 1.494 26.101 1.859 49.605-4.903a2.68 2.68 0 0 1 3.321 1.843 2.682 2.682 0 0 1-1.843 3.32c-13.851 3.986-26.987 6.008-38.694 6.008Z" fill="#FFEC64"/><path d="M127.439 334.986a7.137 7.137 0 1 0 0-14.273 7.137 7.137 0 0 0 0 14.273Z" fill="#FFEC64"/><path d="M127.423 337.015a9.135 9.135 0 0 1-5.87-2.135 9.14 9.14 0 0 1-3.247-6.219 9.075 9.075 0 0 1 2.103-6.69 9.14 9.14 0 0 1 6.218-3.247 9.063 9.063 0 0 1 6.69 2.103 9.137 9.137 0 0 1 3.248 6.218c.446 5.034-3.288 9.491-8.322 9.938a9.487 9.487 0 0 1-.82.032Zm.024-14.272c-.154 0-.308 0-.454.024a5.09 5.09 0 0 0-3.467 1.81 5.06 5.06 0 0 0-1.169 3.727 5.087 5.087 0 0 0 1.811 3.467 5.066 5.066 0 0 0 3.726 1.169 5.118 5.118 0 0 0 4.636-5.537 5.087 5.087 0 0 0-1.811-3.467 5.045 5.045 0 0 0-3.272-1.193Z" fill="#C6B44B"/><path d="M188.565 329.578a7.136 7.136 0 1 0 0-14.272 7.136 7.136 0 0 0 0 14.272Z" fill="#FFEC64"/><path d="M188.557 331.608c-4.693 0-8.703-3.596-9.117-8.354a9.07 9.07 0 0 1 2.102-6.69 9.142 9.142 0 0 1 6.219-3.247 9.097 9.097 0 0 1 6.69 2.103 9.145 9.145 0 0 1 3.248 6.218 9.074 9.074 0 0 1-2.103 6.69 9.137 9.137 0 0 1-6.219 3.248 9.305 9.305 0 0 1-.812.032h-.008Zm.016-14.272c-.154 0-.308 0-.455.024a5.09 5.09 0 0 0-3.466 1.81 5.06 5.06 0 0 0-1.169 3.727 5.122 5.122 0 0 0 5.537 4.636 5.09 5.09 0 0 0 3.466-1.811 5.059 5.059 0 0 0 1.169-3.726 5.086 5.086 0 0 0-1.81-3.467 5.047 5.047 0 0 0-3.272-1.193Z" fill="#C6B44B"/><path d="M150.74 386.434c-5.967 0-11.585-.487-16.765-1.47a2.699 2.699 0 0 1-2.143-3.142 2.698 2.698 0 0 1 3.141-2.143c9.621 1.819 26.053 2.736 49.744-3.215a2.677 2.677 0 0 1 3.255 1.948 2.677 2.677 0 0 1-1.948 3.256c-12.56 3.158-24.494 4.749-35.292 4.749l.008.017Z" fill="#FFEC64"/><path d="M129.242 388.991a7.136 7.136 0 1 0 0-14.273 7.136 7.136 0 0 0 0 14.273Z" fill="#FFEC64"/><path d="M129.234 391.021a9.07 9.07 0 0 1-6.081-2.322 9.091 9.091 0 0 1-3.053-6.317 9.1 9.1 0 0 1 2.306-6.624 9.105 9.105 0 0 1 6.316-3.053c2.444-.13 4.798.674 6.625 2.306a9.087 9.087 0 0 1 3.053 6.316 9.102 9.102 0 0 1-2.306 6.625 9.091 9.091 0 0 1-6.316 3.053c-.179.008-.366.016-.544.016Zm.016-14.273c-.098 0-.203 0-.301.008a5.06 5.06 0 0 0-3.515 1.705 5.046 5.046 0 0 0-1.283 3.686 5.06 5.06 0 0 0 1.705 3.515 5.041 5.041 0 0 0 3.686 1.283 5.06 5.06 0 0 0 3.515-1.705 5.041 5.041 0 0 0 1.283-3.686 5.083 5.083 0 0 0-1.697-3.515 5.076 5.076 0 0 0-3.385-1.291h-.008Z" fill="#C6B44B"/><path d="M190.53 385.736a7.137 7.137 0 1 0-.002-14.274 7.137 7.137 0 0 0 .002 14.274Z" fill="#FFEC64"/><path d="M190.513 387.765a9.07 9.07 0 0 1-6.08-2.322 9.087 9.087 0 0 1-3.053-6.316 9.102 9.102 0 0 1 2.306-6.625 9.105 9.105 0 0 1 6.316-3.053c2.444-.129 4.798.674 6.625 2.306a9.09 9.09 0 0 1 3.052 6.316c.293 5.042-3.572 9.386-8.622 9.678-.178.008-.365.016-.544.016Zm.025-14.272c-.098 0-.203 0-.301.008a5.061 5.061 0 0 0-3.515 1.705 5.043 5.043 0 0 0-1.283 3.685 5.061 5.061 0 0 0 1.705 3.516 5.034 5.034 0 0 0 3.686 1.283 5.11 5.11 0 0 0 4.798-5.391 5.063 5.063 0 0 0-1.705-3.516 5.075 5.075 0 0 0-3.385-1.29Z" fill="#C6B44B"/><path d="M146.632 248.595c-5.756 4.319-4.019 9.653 2.411 10.456 6.438.804 6.933 1.226 12.868-3.215 6.43-4.822 7.234-12.868 0-12.064-7.233.804-12.064 2.411-15.279 4.823ZM122.503 259.051a7.233 7.233 0 1 0 0-14.467 7.234 7.234 0 0 0 0 14.467ZM206.142 238.949a7.233 7.233 0 1 0 0-14.467 7.234 7.234 0 0 0 0 14.467ZM109.578 298.248a3.247 3.247 0 1 1 0-6.495c7.94 0 32.751-9.49 40.634-23.812a3.249 3.249 0 0 1 2.014-1.575 3.267 3.267 0 0 1 2.533.374c7.981 4.903 16.789 7.282 26.93 7.282 10.14 0 20.434-2.444 30.16-5.382.033-.009.065-.025.106-.033 1.478-.447 2.947-.909 4.4-1.372.025 0 .041-.016.065-.016a3.25 3.25 0 0 1 4.084 2.102 3.254 3.254 0 0 1-2.103 4.084c-11.553 3.694-23.999 7.12-36.696 7.12-10.214 0-19.258-2.176-27.539-6.633-10.603 15.231-35.535 24.364-44.571 24.364l-.017-.008Z" fill="#3A1919"/><path d="M340.263 279.673 118.509 453.811l-15.401-23.398 222.915-176.428 14.24 25.688Z" fill="#F4DA6E"/><path d="M335.31 274.745 114.831 447.917l-8.882-11.57 223.419-175.656 5.942 14.054Z" fill="#8C3333"/><path d="M118.509 457.058c-.171 0-.349-.016-.52-.04a3.256 3.256 0 0 1-2.192-1.421l-15.401-23.406a3.25 3.25 0 0 1 .698-4.336l222.915-176.427a3.25 3.25 0 0 1 2.655-.641 3.257 3.257 0 0 1 2.2 1.607l14.24 25.696a3.236 3.236 0 0 1-.836 4.124L120.514 456.352a3.227 3.227 0 0 1-2.005.69v.016Zm-11.058-25.947 11.829 17.967 216.802-170.249-11.042-19.924-217.581 172.206h-.008Z" fill="#3A1919"/><path d="m275.662 364.887.138-8.444c-.844 2.988-4.457 5.821-10.335 8.403l-220.146-.869c-5.846-2.622-9.434-5.488-10.246-8.484l.049 8.444h-.098l-.454 85.839h-.187l-.04 8.232h.194l.098 15.775c4.79 12.365 56.692 22.286 120.059 22.537 63.366.252 115.366-9.263 120.295-21.595l.259-15.775h.195l.041-8.232h-.187l.455-85.848h-.098l.008.017Z" fill="#CECECE"/><path d="m275.305 450.734.455-85.847-240.72-.95-.454 85.847h-.187l-.04 8.232h.373c4.79 12.365 56.693 22.294 120.059 22.538 63.367.251 115.367-9.264 120.295-21.596h.373l.041-8.232h-.187l-.008.008Z" fill="#2E3499"/><path d="M275.078 472.273h.373l.041-9.394h-.187l.455-97.96-91.076 2.192v127.301s58.739 3.792 90.394-22.139Z" fill="#2D329B"/><path d="M275.264 458.284c-3.556 12.6-56.157 22.408-120.481 22.148-64.324-.252-116.82-10.473-120.238-23.098l.098 16.457c4.79 12.365 56.692 22.286 120.059 22.537 63.366.252 115.367-9.263 120.295-21.595l.276-16.457-.009.008ZM275.809 356.443c-3.556 12.6-56.157 22.408-120.482 22.148-64.324-.252-116.82-10.473-120.238-23.098l.098 16.457c4.79 12.365 56.692 22.286 120.059 22.537 63.366.252 115.367-9.263 120.295-21.595l.276-16.457-.008.008Z" fill="#CECECE"/><path d="M275.078 472.273h.373l.041-9.394h-.187l.455-97.96-91.076 2.192v127.301s58.739 3.792 90.394-22.139Z" fill="#1E2672"/><path d="M264.694 365.041c-15.206 6.406-44.498 11.188-80.01 12.811v15.897c49.378-2.265 86.708-10.636 90.849-20.987l.129-7.981.138-8.476c-.876 3.118-4.773 6.073-11.114 8.736h.008ZM264.694 466.979c-15.206 6.406-44.498 11.188-80.01 12.812v15.896c49.378-2.265 86.708-10.635 90.849-20.987l.129-7.98.138-8.476c-.876 3.117-4.773 6.072-11.114 8.735h.008Z" fill="#A3A3A3"/><path d="M275.809 356.443c-3.556 12.6-56.157 22.408-120.482 22.148-64.324-.252-116.82-10.473-120.238-23.098l.098 16.457c4.79 12.365 56.692 22.286 120.059 22.537 63.366.252 115.367-9.263 120.295-21.595l.276-16.457-.008.008Z" fill="#CECECE"/><path d="M71.761 372.421c-3.864-.065-7.534-.771-10.854-1.997V484.5c3.28 1.193 6.909 1.883 10.716 1.948h1.356V372.421c-.406 0-.812.008-1.218 0Z" fill="#8D93FF"/><path d="M71.623 486.44h1.356v-12.698a201.142 201.142 0 0 1-12.072-2.622v13.379c3.28 1.194 6.909 1.884 10.716 1.949v-.008ZM71.761 372.332c-3.864-.057-7.534-.739-10.854-1.908v14.646c3.702.942 7.737 1.827 12.072 2.655V372.34c-.406 0-.812.008-1.218 0v-.008Z" fill="#fff"/><path d="M155.327 378.599c64.325.252 116.926-9.556 120.482-22.148l.016-2.671c-3.418-12.624-55.922-22.846-120.238-23.097-64.324-.252-116.925 9.555-120.481 22.147l-.017 2.671c3.418 12.625 55.922 22.846 120.238 23.098Z" fill="#EADFB0"/><path d="M157.755 381.847h-2.444c-31.225-.122-60.899-2.598-83.558-6.966-24.356-4.701-37.744-10.928-39.806-18.527l-.113-.422.016-3.556.122-.422c2.135-7.575 15.587-13.705 39.984-18.202 22.708-4.19 52.39-6.414 83.631-6.309 31.224.122 60.898 2.598 83.557 6.966 24.357 4.701 37.744 10.928 39.798 18.527l.114.422-.016 3.556-.122.422c-2.135 7.575-15.588 13.705-39.985 18.211-22.115 4.083-50.863 6.316-81.187 6.316l.009-.016ZM38.337 354.99c3.312 8.265 46.114 20.078 117.006 20.354h2.533c69.383 0 111.324-11.302 114.685-19.445v-1.623c-3.304-8.265-46.106-20.078-116.998-20.354-70.877-.252-113.825 11.196-117.226 19.444v1.632-.008Z" fill="#3A1919"/><path d="M93.187 355.152v-1.859c2.054-7.242 27.408-13.16 61.401-14.898a414.585 414.585 0 0 0-19.168-.511c-44.742-.179-81.341 6.649-83.817 15.409v1.859c2.37 8.785 38.888 15.897 83.638 16.067 7.762.033 15.288-.146 22.424-.511-35.6-1.794-62.449-8.07-64.478-15.556Z" fill="#FFF3E6"/><path d="M157.121 499.584h-2.435c-30.73-.122-60.063-2.533-82.584-6.779-24.04-4.538-37.662-10.538-40.488-17.829a3.263 3.263 0 0 1-.219-1.185l.398-109.846c0-.26.032-.512.09-.755l-.05-7.656.017-2.712c0-.292.04-.584.122-.868 2.135-7.575 15.587-13.705 39.984-18.202 22.708-4.19 52.39-6.414 83.631-6.309 31.224.122 60.898 2.598 83.557 6.966 24.357 4.701 37.744 10.928 39.798 18.527.073.284.114.576.114.869l-.016 2.671-.13 7.696c.057.244.081.495.081.755l-.763 109.846c0 .406-.081.804-.236 1.186-2.906 7.266-16.586 13.152-40.666 17.504-21.969 3.97-50.377 6.137-80.221 6.137l.016-.016ZM37.898 473.093c4.62 8.362 46.845 19.72 116.82 19.996 69.959.284 112.322-10.749 117.039-19.079l.755-108.352a3.043 3.043 0 0 1-.089-.812l.154-10.554c-3.312-8.265-46.114-20.078-117.006-20.354-70.877-.251-113.825 11.196-117.226 19.445v2.151l.04 8.411c0 .276-.032.552-.097.812l-.39 108.352v-.016Z" fill="#3A1919"/><path d="M45.798 481.625h-.017a3.246 3.246 0 0 1-3.23-3.263l.608-113.305a3.248 3.248 0 0 1 3.248-3.231h.016a3.246 3.246 0 0 1 3.231 3.264l-.609 113.304a3.248 3.248 0 0 1-3.247 3.231ZM99.795 493.04h-.016a3.246 3.246 0 0 1-3.231-3.263l.6-113.256a3.248 3.248 0 0 1 3.248-3.231h.016a3.245 3.245 0 0 1 3.231 3.263l-.6 113.256a3.249 3.249 0 0 1-3.248 3.231ZM154.645 496.97h-.016a3.246 3.246 0 0 1-3.231-3.264l.592-113.199a3.249 3.249 0 0 1 3.248-3.231h.016a3.246 3.246 0 0 1 3.231 3.264l-.592 113.198a3.25 3.25 0 0 1-3.248 3.232ZM209.552 493.422h-.016a3.247 3.247 0 0 1-3.232-3.264l.593-113.142a3.248 3.248 0 0 1 3.248-3.231h.016a3.246 3.246 0 0 1 3.231 3.264l-.593 113.142a3.248 3.248 0 0 1-3.247 3.231ZM263.744 482.372h-.016a3.245 3.245 0 0 1-3.231-3.263l.6-113.086a3.25 3.25 0 0 1 3.248-3.231h.016a3.246 3.246 0 0 1 3.231 3.264l-.6 113.085a3.25 3.25 0 0 1-3.248 3.231Z" fill="#3A1919"/><path d="M48.193 447.795a382.824 382.824 0 0 1-4.441-1.267c-1.884-.552-3.41-2.573-3.402-4.481.081-14.654.154-29.301.236-43.955.008-1.908 1.558-3.004 3.434-2.46 1.477.431 2.955.853 4.44 1.267 1.884.527 3.427 2.5 3.419 4.408-.081 14.654-.155 29.301-.236 43.955-.008 1.908-1.567 3.052-3.45 2.533Z" fill="#E9E9E9"/><path d="M49.086 451.172a6.69 6.69 0 0 1-1.762-.243 409.62 409.62 0 0 1-4.473-1.275c-3.288-.958-5.757-4.23-5.74-7.615l.235-43.963c.008-1.916.845-3.637 2.282-4.709 1.469-1.096 3.401-1.404 5.31-.852 1.469.43 2.938.844 4.407 1.258 3.313.926 5.805 4.173 5.79 7.55l-.236 43.955c-.008 1.916-.845 3.637-2.282 4.725a5.808 5.808 0 0 1-3.523 1.161l-.008.008Zm-5.253-52.203-.236 43.11c0 .422.544 1.194 1.064 1.348 1.242.357 2.492.714 3.743 1.064l.227-43.184c0-.406-.52-1.12-1.04-1.266a332.279 332.279 0 0 1-3.766-1.072h.008Z" fill="#3A1919"/><path d="M102.239 458.909c-1.518-.203-3.028-.422-4.547-.641-1.924-.284-3.49-2.087-3.482-3.994.08-14.647.154-29.293.235-43.939.008-1.908 1.591-3.223 3.524-2.939 1.51.219 3.028.439 4.546.642 1.932.259 3.499 2.021 3.491 3.929-.073 14.646-.154 29.284-.235 43.93-.009 1.908-1.6 3.272-3.532 3.012Z" fill="#E9E9E9"/><path d="M102.694 462.189c-.301 0-.593-.024-.893-.065-1.527-.203-3.053-.422-4.58-.641-3.531-.52-6.283-3.694-6.259-7.234l.236-43.93c.008-1.827.787-3.548 2.135-4.709 1.372-1.177 3.231-1.697 5.098-1.429 1.502.219 3.012.439 4.514.642 3.556.479 6.325 3.621 6.3 7.16l-.235 43.93c-.008 1.835-.796 3.565-2.143 4.734-1.145.998-2.631 1.534-4.173 1.534v.008Zm-5.01-51.545-.235 43.646c0 .276.365.714.706.771 1.445.211 2.899.414 4.352.617l.227-43.719c0-.252-.341-.65-.674-.69-1.461-.195-2.922-.406-4.384-.617l.008-.008Z" fill="#3A1919"/><path d="M157.097 462.546c-1.526 0-3.053 0-4.579-.016-1.94-.016-3.532-1.607-3.515-3.515.073-14.638.154-29.276.227-43.914.008-1.908 1.607-3.434 3.556-3.418 1.526.016 3.053.024 4.587.016 1.948 0 3.523 1.543 3.515 3.442-.073 14.638-.154 29.276-.227 43.906-.008 1.908-1.607 3.483-3.556 3.491l-.008.008Z" fill="#E9E9E9"/><path d="M156.212 465.794c-1.242 0-2.484 0-3.726-.016-3.735-.033-6.755-3.077-6.731-6.779l.227-43.914a6.598 6.598 0 0 1 1.998-4.701 6.741 6.741 0 0 1 4.765-1.949h.073c1.51.017 3.029.025 4.547.017h.008c1.827 0 3.54.706 4.823 1.997a6.606 6.606 0 0 1 1.94 4.717l-.227 43.914c-.017 3.694-3.069 6.714-6.796 6.722h-.901v-.008Zm-3.467-50.864a.305.305 0 0 0-.219.082c-.049.048-.049.089-.049.105l-.227 43.906c0 .097.122.252.301.252 1.518.016 3.036.024 4.546.016.179 0 .308-.154.317-.26l.227-43.906s0-.049-.049-.097c-.04-.041-.105-.081-.219-.081-1.534 0-3.077 0-4.62-.017h-.008Z" fill="#3A1919"/><path d="M211.996 458.698c-1.519.211-3.037.414-4.555.609-1.932.244-3.507-1.128-3.499-3.036.073-14.63.154-29.26.227-43.89.008-1.908 1.6-3.653 3.54-3.897 1.518-.195 3.036-.398 4.554-.601 1.933-.268 3.5 1.056 3.492 2.964-.082 14.629-.155 29.259-.236 43.889-.008 1.908-1.599 3.694-3.532 3.97l.009-.008Z" fill="#E9E9E9"/><path d="M207.011 462.579c-1.567 0-3.077-.552-4.23-1.575-1.34-1.185-2.095-2.915-2.087-4.75l.228-43.889c.016-3.532 2.817-6.649 6.373-7.104 1.51-.195 3.012-.39 4.522-.601 1.867-.26 3.726.276 5.09 1.47 1.34 1.169 2.103 2.898 2.095 4.725l-.235 43.889c-.025 3.524-2.801 6.674-6.325 7.169-1.526.211-3.061.414-4.595.609a7.25 7.25 0 0 1-.844.057h.008Zm5.496-51.448c-1.494.203-2.947.389-4.392.576-.341.041-.698.439-.698.69l-.228 43.663c1.478-.187 2.923-.382 4.36-.577.349-.048.731-.495.731-.771l.227-43.581Z" fill="#3A1919"/><path d="M266.139 447.365c-1.486.422-2.971.828-4.465 1.234-1.9.511-3.442-.642-3.434-2.55.081-14.621.154-29.243.235-43.873.008-1.908 1.575-3.865 3.467-4.376 1.486-.398 2.979-.812 4.465-1.226 1.892-.536 3.426.576 3.418 2.476-.081 14.622-.154 29.244-.235 43.866-.009 1.899-1.559 3.913-3.459 4.449h.008Z" fill="#E9E9E9"/><path d="M260.797 451.96a5.8 5.8 0 0 1-3.556-1.186c-1.429-1.104-2.249-2.833-2.241-4.749l.236-43.873c.016-3.378 2.541-6.601 5.87-7.494 1.477-.398 2.955-.804 4.424-1.218 1.916-.544 3.857-.211 5.31.901 1.429 1.088 2.241 2.809 2.232 4.725l-.235 43.866c-.024 3.385-2.525 6.633-5.821 7.558-1.494.422-2.996.836-4.498 1.242a6.624 6.624 0 0 1-1.721.236v-.008Zm5.781-52.065c-1.283.357-2.533.698-3.784 1.039-.527.138-1.063.852-1.063 1.258l-.228 43.086a307.21 307.21 0 0 0 3.759-1.039c.52-.146 1.08-.909 1.088-1.34l.228-42.996v-.008Z" fill="#3A1919"/><path d="M167.718 318.681a8.061 8.061 0 0 0-11.162-2.322 8.061 8.061 0 0 0-2.322 11.162l51.249 78.168a8.062 8.062 0 0 0 13.484-8.84l-51.249-78.168Z" fill="#D8A577"/><mask id="b" style="mask-type:luminance" maskUnits="userSpaceOnUse" x="142" y="299" width="79" height="111"><path d="M164.168 307.674c-4.571-6.974-12.438-9.888-17.569-6.527-5.131 3.369-5.593 11.748-1.023 18.713 2.217 3.386 5.221 5.805 8.306 7.023.114.211.227.414.365.617l51.254 78.167c2.427 3.71 7.453 4.749 11.163 2.322 3.71-2.428 4.749-7.453 2.322-11.163l-51.254-78.167c-.129-.203-.276-.39-.422-.577.114-3.312-.909-7.03-3.134-10.416l-.008.008Z" fill="#fff"/></mask><g mask="url(#b)"><path d="M164.371 307.975c4.547 6.933 3.719 14.751-1.412 18.121-5.131 3.369-12.633 1.006-17.18-5.927-4.546-6.933-4.067-15.279 1.072-18.641 5.131-3.369 12.982-.479 17.52 6.455v-.008Z" fill="#9E673E"/></g><path d="M164.168 307.674c4.571 6.974 1.218 10.936-3.913 14.305-5.131 3.37-10.108 4.864-14.678-2.11-4.571-6.974-4.117-15.353 1.023-18.714 5.131-3.369 12.998-.447 17.568 6.527v-.008Z" fill="#D8A577"/><path d="M212.272 412.552c-.78 0-1.559-.082-2.339-.244a11.26 11.26 0 0 1-7.16-4.863l-51.14-77.996c-3.418-1.608-6.503-4.344-8.776-7.811-5.545-8.459-4.669-18.867 1.956-23.211 6.625-4.343 16.522-.999 22.067 7.461 2.273 3.459 3.548 7.38 3.661 11.155l51.148 77.997c3.418 5.212 1.957 12.243-3.255 15.661a11.22 11.22 0 0 1-6.162 1.851ZM151.463 302.99c-1.129 0-2.184.276-3.086.868-3.564 2.339-3.604 8.85-.089 14.224 1.77 2.704 4.181 4.758 6.779 5.781a3.287 3.287 0 0 1 1.673 1.486c.065.121.13.243.211.365l51.253 78.167a4.756 4.756 0 0 0 3.045 2.062 4.81 4.81 0 0 0 3.621-.674 4.825 4.825 0 0 0 1.388-6.665l-51.253-78.167a5.746 5.746 0 0 0-.26-.349 3.278 3.278 0 0 1-.698-2.119c.097-2.793-.829-5.821-2.598-8.525-2.631-4.011-6.642-6.462-9.995-6.462l.009.008Z" fill="#3A1919"/><path d="M258.248 375.969c-9.937 4.043-46.585 12.324-63.034 7.493-12.746-3.742-18.315-12.543-19.03-16.903-1.031-6.284 3.061-13.379 10.433-18.072a24.018 24.018 0 0 1 2.208-1.234c5.139-2.533 12.568-4.279 20.427-6.122 9.596-2.249 19.907-4.976 29.657-7.712 10.132-2.842 41.446-15.897 54.777 4.067 18.762 28.107-17.975 31.371-35.438 38.475v.008Z" fill="#FFE14D"/><path d="M258.248 366.559c-9.938 4.043-46.585 12.324-63.034 7.494-9.783-2.874-15.32-7.908-17.699-12.438-1.266 2.72-1.761 2.281-1.331 4.952.714 4.36 6.276 13.161 19.03 16.903 16.457 4.831 53.096-3.45 63.034-7.493 15.774-6.422 47.283-9.71 39.375-31.014-5.423 11.091-27.132 16.619-39.375 21.604v-.008Z" fill="#EA911B"/><path d="M208.18 388.179c-5.245 0-10.035-.471-13.883-1.599-13.972-4.1-20.402-13.907-21.32-19.493-1.242-7.567 3.426-15.937 11.894-21.336a26.525 26.525 0 0 1 2.517-1.405c5.472-2.703 13.071-4.481 21.117-6.365 8.646-2.029 18.575-4.611 29.519-7.672 1.088-.308 2.468-.747 4.059-1.25 13.348-4.254 41.105-13.104 54.29 6.641 5.407 8.094 6.982 14.955 4.831 20.954-3.767 10.514-18.024 14.825-30.6 18.633-4.108 1.242-7.988 2.419-11.138 3.702-7.681 3.126-32.41 9.206-51.286 9.206v-.016Zm62.408-58.373c-9.491 0-19.615 3.223-26.524 5.431-1.656.528-3.085.983-4.278 1.315-11.033 3.094-21.052 5.7-29.788 7.746-7.672 1.802-14.922 3.499-19.728 5.87-.69.34-1.332.698-1.908 1.063-6.17 3.929-9.775 9.889-8.963 14.809.528 3.223 5.31 10.96 16.741 14.313 14.938 4.384 50.49-3.158 60.898-7.388 3.434-1.397 7.453-2.614 11.707-3.897 11.107-3.361 23.699-7.169 26.37-14.606 1.388-3.88 0-8.979-4.125-15.157-4.79-7.185-12.364-9.491-20.394-9.491l-.008-.008Z" fill="#3A1919"/><path d="M299.523 299.369s-13.558 9.953-31.728 18.673c-13.899 6.665-29.674 10.132-29.674 10.132l13.283 49.532s52.576-5.033 82.404-31.825c6-5.391 12.089-12.876 8.639-23.65-6.536-20.402-42.916-22.87-42.916-22.87l-.008.008Z" fill="#A31E36"/><path d="M221.137 389.649a3.24 3.24 0 0 1-3.158-2.525l-11.269-49.045a3.241 3.241 0 0 1 2.363-3.873c.568-.146 56.701-14.654 83.419-35.82a3.252 3.252 0 0 1 4.563.528 3.25 3.25 0 0 1-.528 4.563c-24.437 19.363-70.389 32.816-82.778 36.209l9.873 42.956c10.814-2.054 48.371-9.629 77.127-20.751a3.24 3.24 0 0 1 4.197 1.859 3.24 3.24 0 0 1-1.859 4.197c-34.382 13.299-80.911 21.572-81.382 21.653a3.395 3.395 0 0 1-.568.049Z" fill="#3A1919"/><path d="m246.168 323.945-48.1 13.33 16.088 58.053 48.101-13.331-16.089-58.052Z" fill="#A31E36"/><path d="m230.537 328.277-16.837 4.666 16.088 58.052 16.837-4.666-16.088-58.052Z" fill="#FFEC64"/><path d="M214.131 398.596a3.248 3.248 0 0 1-3.126-2.379l-16.083-58.057a3.273 3.273 0 0 1 .3-2.468 3.238 3.238 0 0 1 1.957-1.526l48.103-13.331a3.24 3.24 0 0 1 3.995 2.257l16.083 58.056a3.246 3.246 0 0 1-2.265 3.995l-48.104 13.331a3.252 3.252 0 0 1-.868.122h.008Zm-12.089-59.04 14.354 51.798 41.844-11.594-14.354-51.797-41.844 11.593Z" fill="#3A1919"/><path d="M305.831 444.791c-23.893-23.13-74.074-17.431-90.32 23.869-9.336 23.739-9.361 38.385-9.361 38.385s54.257 6.43 80.497-21.709c25.517-27.36 19.193-40.545 19.193-40.545h-.009Z" fill="#FFE14D"/><path d="M216.875 470.722a3.249 3.249 0 0 1-2.972-4.555c8.858-20.085 25.81-33.92 46.512-37.971 18.511-3.621 36.843 1.267 49.037 13.079a3.247 3.247 0 0 1 .073 4.596 3.247 3.247 0 0 1-4.595.073c-10.668-10.335-26.848-14.59-43.272-11.375-18.592 3.638-33.831 16.108-41.82 34.221a3.248 3.248 0 0 1-2.971 1.94l.008-.008ZM92.375 486.261c-2.752-6.284-24.064-50.32-37.598-60.728a42.054 42.054 0 0 0-5.634-3.669c-8.882-11.139-20.654-17.52-30.137-16.286-4.335.568-10.221 2.947-13.696 11.065-.836 1.754-10.368 22.773-.91 53.332 3.605 11.658 8.801 13.802 13.827 15.872 5.69 2.346 12.145 5.001 20.28 24.851.04.098.09.203.138.301 3.256 6.097 11.975 15.945 24.153 15.945 2.152 0 4.409-.309 6.755-.999 9.661-2.825 19.12-6.227 22.895-11.942 5.732-8.695 2.46-21.945-.073-27.742Z" fill="#3A1919"/><path d="M68.944 471.266c-1.875-3.174-9.239-11.139-11.033-22.18-5.196-31.923-40.025-53.738-49.646-31.103 0 0-10.165 20.654-.771 51.026 7.112 22.984 18.454 2.517 34.017 40.447 0 0 10.01 18.966 27.133 13.364 22.805-7.461 15.45-25.931.3-51.554Z" fill="#938282"/><path d="M62.474 527.09c-11.919 0-20.557-9.905-23.829-16.115a1.796 1.796 0 0 1-.13-.285c-8.143-19.85-14.589-22.505-20.28-24.851-5.026-2.07-10.222-4.214-13.826-15.872-9.459-30.559.073-51.586.909-53.34 3.45-8.045 10.246-12.08 18.649-11.058 14.857 1.795 33.327 19.493 37.159 42.989 1.307 8.005 5.935 14.411 8.695 18.235.82 1.136 1.47 2.029 1.932 2.817 11.26 19.046 17.44 32.978 13.453 43.557-2.216 5.878-7.299 10.042-15.54 12.738-2.508.82-4.903 1.185-7.184 1.185h-.008ZM44.45 508.06c.885 1.607 9.401 16.189 23.187 11.675 6.251-2.046 10.01-4.945 11.48-8.858 3.06-8.119-2.972-21.044-12.966-37.963-.308-.528-.909-1.356-1.6-2.314-3.1-4.295-8.288-11.471-9.839-20.995-3.304-20.305-19.266-36.104-31.525-37.581-5.594-.682-9.604 1.754-11.926 7.226-.025.056-.049.113-.073.162-.09.187-9.442 19.988-.577 48.639 2.704 8.736 5.643 9.945 10.1 11.788 6.511 2.68 14.605 6.024 23.747 28.229l-.008-.008Z" fill="#3A1919"/><path d="M62.863 465.729c-.836-1.275-1.908-14.394-4.31-14.321-15.751 14.946-43.46 25.979-45.23 25.281-1.924.333-2.265 3.191-.447 3.946 0 0 8.834 3.296 11.529 5.358.982.747 25.428-5.91 38.458-20.264ZM84.053 498.05l-5.797-10.043a2.1 2.1 0 0 0-1.891-1.04l-8.955.293a2.048 2.048 0 0 0-.95.26l-23.52 12.819c-1.007.544-1.364 1.786-.796 2.76l7.81 13.534c3.029 5.245 8.606 8.224 14.297 8.224 2.615 0 5.245-.625 7.665-1.948l6.178-3.369c7.696-4.198 10.368-13.843 5.95-21.499l.009.009Z" fill="#3A1919"/><path d="M154.134 75.423c-28.188 4.83-64.162 15.718-63.196 21.376 6.957 40.594 25.452 71.599 32.41 112.193 35.016 5.09 66.906-5.724 103.172-20.111-6.958-40.593 1.275-73.758-5.683-114.351-.966-5.66-38.523-3.946-66.703.893Z" fill="#A31E36"/><path fill-rule="evenodd" clip-rule="evenodd" d="M220.837 74.538c-.625-3.662-16.611-4.238-35.446-2.866 3.856.568 6.235 1.502 6.47 2.866 6.958 40.593 5.618 73.23 12.584 113.824-24.819 9.84-54.492 20.946-77.623 23.495 33.66 3.914 64.641-6.657 99.698-20.556-6.958-40.594 1.275-76.162-5.683-116.755v-.008Z" fill="#791628"/><path d="M116.739 90.361c-7.42 2.314-12.495 4.295-15.823 5.854l40.122 85.798 21.304-3.653 9.669-99.698a310.29 310.29 0 0 0-15.856 2.273c-12.754 2.184-27.498 5.708-39.424 9.426h.008Z" fill="#FFEC64"/><path d="M223.272 191.341c-.024-.097-.048-.194-.064-.292-1.86-11.09-2.598-21.685-2.85-31.963-33.676 11.301-67.759 18.234-101.411 20.8 2.915 9.418 5.505 19.176 7.356 29.495a3.276 3.276 0 0 1-.219 1.867 40.885 40.885 0 0 0-1.421 3.727c31.46-1.681 63.261-7.169 94.704-16.457 2.688-3.223 3.914-5.585 3.914-6.535v-.633l-.009-.009Z" fill="#2E3499"/><path d="M123.348 204.599v6.714c28.131 2.745 73.977-8.435 103.172-20.012-1.908-11.139-2.671-22.716-2.923-33.303a436.286 436.286 0 0 1-22.359 7.031 407.84 407.84 0 0 0 3.199 22.521c-25.16 13.566-81.089 17.049-81.089 17.049Z" fill="#1E2672"/><path d="M226.52 190.481c-76.868 22.213-103.384 19.379-103.384 19.379-4.928 11.261-8.159 30.153 21.158 27.523 48.801-4.385 82.218-36.705 82.218-45.4v-1.494l.008-.008Z" fill="#3A1919"/><path d="M139.13 240.874c-9.336 0-15.872-2.517-19.468-7.502-5.318-7.372-2.444-17.723.065-23.796-3.516-19.095-9.686-36.469-15.653-53.267-6.3-17.731-12.812-36.063-16.343-56.636-.666-3.889 3.507-6.576 7.217-8.484 3.727-1.916 8.988-3.986 15.645-6.154 12.706-4.132 28.773-8.053 42.989-10.49 14.215-2.435 30.672-4.09 44.027-4.424 6.999-.178 12.649.025 16.798.593 4.132.568 8.963 1.713 9.629 5.594 3.531 20.597 3.206 39.505 2.89 57.78-.301 17.521-.617 35.633 2.541 55.045.114.252.195.512.244.796.04.219.056.43.048.641v1.405c0 11.885-36.867 44.303-85.181 48.639-1.916.17-3.735.26-5.456.26h.008ZM94.258 99.284c3.459 19.736 9.799 37.581 15.937 54.841 6.154 17.326 12.527 35.252 16.1 55.248a3.268 3.268 0 0 1-.22 1.867c-1.623 3.727-4.993 12.982-1.136 18.324 3.515 4.88 12.316 5.18 19.071 4.579 27.441-2.46 48.046-13.931 57.886-20.54 15.222-10.23 21.376-19.493 21.376-21.628v-.634c-.024-.097-.048-.194-.065-.292-3.401-20.321-3.085-39.002-2.768-57.074.308-17.764.625-36.137-2.679-55.857-1.729-.828-8.119-1.973-22.765-1.42-12.487.47-27.555 2.053-40.317 4.245-12.755 2.184-27.498 5.708-39.425 9.426-13.996 4.36-19.639 7.567-20.987 8.923l-.008-.008Z" fill="#3A1919"/><path d="M284.544 216.355c-.503 0-.95.016-1.307.049a3.61 3.61 0 0 0-2.785 5.48c1.389 2.265 4.271 5.334 7.721 8.216l.91.771c25.971 22.148 45.797 26.8 57.853 26.8 4.441 0 8.752-.617 12.812-1.835 18.762-5.634 30.364-17.414 34.959-26.556 1.997-3.986 2.297-6.625 2.297-7.851a3.616 3.616 0 0 0-3.247-3.596c-2.557-.26-8.768-.382-18.99-.382-5.309 0-11.358.033-17.78.065-7.298.041-15.092.073-22.87.073-14.346 0-34.878-.122-47.551-1.145a25.215 25.215 0 0 0-2.014-.081l-.008-.008Z" fill="#FF9739"/><path d="M396.996 221.421c-.26-.024-46.796 44.58-111.664 1.656-13.274-8.784-5.009 1.811 3.742 8.33 42.583 37.33 82.738 33.969 105.625-1.591 2.525-5.951 7.453-6.665 2.297-8.395Z" fill="#E26917"/><path d="M191.764 48.136c23.503 7.656 15.701 41.982-8.988 41.957 22.359 19.404-13.68 42.396-33.717 30.941-.803 3.515.463 39.124 6.674 54.931 0 0-.739 1.217-1.543 1.404-.706.163-2.573-.316-2.573-.316-8.427-12.828-33.401-61.768-23.471-113.394 18.892-98.188 118.89-56.563 63.618-15.523Z" fill="#CECECE"/><path d="M186.462 44.888c23.504 7.656 15.702 41.982-8.987 41.958 22.359 19.403-13.68 42.396-33.717 30.94-.804 3.515.463 39.124 6.674 54.931 0 0-.739 1.218-1.543 1.405-.706.162-2.574-.317-2.574-.317-8.427-12.827-33.4-61.767-23.471-113.394 18.892-98.187 118.89-56.563 63.618-15.523Z" fill="#fff"/><path d="M168.699 179.391c1.907 11.139-5.367 20.913-15.393 21.766-9.191.779-17.423-6.349-19.055-15.864-1.632-9.515 3.759-18.973 12.681-21.303 9.743-2.542 19.859 4.254 21.767 15.393v.008Z" fill="#C6B44B"/><path d="M147.354 166.466a13.969 13.969 0 0 1 6.081-.154 14.41 14.41 0 0 1 2.923.901c.95.406 1.867.909 2.728 1.51a15.964 15.964 0 0 1 2.436 2.078 16.614 16.614 0 0 1 2.037 2.59 17.436 17.436 0 0 1 2.485 6.463 17.563 17.563 0 0 1-.187 6.925 17.017 17.017 0 0 1-1.055 3.117 15.922 15.922 0 0 1-1.608 2.769 15.402 15.402 0 0 1-2.07 2.33 14.656 14.656 0 0 1-2.46 1.818 13.896 13.896 0 0 1-5.789 1.876 14.16 14.16 0 0 1-5.91-.682 15.42 15.42 0 0 1-2.639-1.185 15.572 15.572 0 0 1-2.362-1.657 16.824 16.824 0 0 1-2.038-2.062 17.21 17.21 0 0 1-1.673-2.419 17.427 17.427 0 0 1-2.037-5.724 17.543 17.543 0 0 1 .016-6.073c.17-.966.43-1.916.771-2.833a16.136 16.136 0 0 1 2.907-4.969 15.257 15.257 0 0 1 2.094-1.997 14.224 14.224 0 0 1 5.342-2.614m-.178-1.031c-8.273 2.094-13.299 10.838-11.789 19.663 1.51 8.825 9.166 15.393 17.667 14.614 9.206-.844 15.839-9.856 14.094-20.061-1.754-10.206-11.001-16.498-19.964-14.224l-.008.008Z" fill="#fff"/><path d="M137.701 184.708c.918 5.334 4.458 9.605 8.963 11.358l-8.89-17.041a15.537 15.537 0 0 0-.073 5.683Zm21.547-4.465c-.316-1.843-1.169-2.996-1.875-3.881-.917-1.079-1.762-1.972-1.973-3.19-.235-1.356.52-2.826 1.908-3.134.065-.016.122-.016.187-.033-2.907-1.851-6.39-2.541-9.832-1.713-4.449 1.072-7.794 4.433-9.296 8.614.284-.048.544-.097.771-.146 1.259-.26 3.199-.852 3.199-.852.658-.187.926.901.276 1.128 0 0-.649.228-1.38.414l7.144 14.322 1.251-9.726-3.053-5.675c-.698.097-1.356.138-1.356.138-.69.097-.803-1.072-.121-1.178 0 0 2.135-.259 3.409-.527 1.372-.285 3.5-.926 3.5-.926.722-.195 1.006.934.292 1.177 0 0-.715.244-1.51.447l7.631 14.833.634-5.034c.292-2.224.414-3.791.194-5.066v.008Zm-8.687 3.548-1.794 12.884c1.226.252 2.493.325 3.792.187a12.441 12.441 0 0 0 4.367-1.299 1.548 1.548 0 0 1-.129-.187l-6.236-11.585Zm10.514-10.538c.146.471.268.974.365 1.534.26 1.535.277 3.305-.186 5.594l-2.127 13.761c3.832-3.085 5.959-8.354 5.001-13.964-.455-2.646-1.535-5.001-3.053-6.925Z" fill="#fff"/><path d="M226.358 474.132c-3.086-18.933-26.508-64.252-53.113-50.101-21.165 14.289-17.723 42.201-14.532 63.18 2.411 22.14-22.546 59.875 36.98 52.95 11.025-1.283 20.289-6.876 24.868-16.765 6.349-16.635 9.791-29.179 5.797-49.272v.008Z" fill="#3A1919"/><mask id="c" style="mask-type:luminance" maskUnits="userSpaceOnUse" x="80" y="271" width="279" height="147"><path d="M324.05 271.7c-92.643 19.063-158.461 38.954-158.461 38.954-28.066-.918-62.611-2.549-62.611-2.549 0 4.262-22.651 73.198-22.651 73.198 4.781 12.982 20.946 23.438 86.764 32.726 88.908 9.028 164.095-2.882 191.106-15.994 0 0 1.697-79.271-34.147-126.335Z" fill="#fff"/></mask><g mask="url(#c)" fill="#791628"><path fill-rule="evenodd" clip-rule="evenodd" d="M347.237 293.962a5.958 5.958 0 0 0-4.425-3.467 5.98 5.98 0 0 0 .406-5.61 5.988 5.988 0 0 0-7.899-3.044s-3.045.649-4.384 4.871l-16.189 2.882-2.566 1.137-13.014 10.059c-4.035-1.835-6.56-.025-6.56-.025a5.99 5.99 0 0 0-3.044 7.9 5.957 5.957 0 0 0 4.424 3.466 5.98 5.98 0 0 0-.406 5.61 5.96 5.96 0 0 0 4.425 3.467 5.98 5.98 0 0 0-.406 5.61 5.958 5.958 0 0 0 4.425 3.467 5.98 5.98 0 0 0 7.29 8.736c.09.373.203.755.366 1.12a5.988 5.988 0 0 0 10.262 1.161c.024.057.04.114.065.17a5.988 5.988 0 0 0 7.899 3.045 5.93 5.93 0 0 0 2.663-2.346 5.981 5.981 0 0 0 4.928 1.209 6.93 6.93 0 0 0 .601-.146c.219-.065.438-.138.658-.235 0 0 .056-.033.081-.041.032-.016.057-.016.089-.032a5.76 5.76 0 0 0 1.129-.674 5.985 5.985 0 0 0 2.411-4.465 5.965 5.965 0 0 0 3.523-.398 5.99 5.99 0 0 0 3.045-7.9c-.024-.057-.057-.105-.081-.162a5.98 5.98 0 0 0 2.979-.487 5.99 5.99 0 0 0 3.045-7.9 5.783 5.783 0 0 0-.585-1.023c2.882-1.404 4.165-4.847 2.858-7.802a5.957 5.957 0 0 0-4.425-3.466 5.978 5.978 0 0 0 .406-5.61 5.958 5.958 0 0 0-4.424-3.467 5.98 5.98 0 0 0 .406-5.61h.024Z"/><path d="M325.503 345.857a6.812 6.812 0 0 1-5.732-3.134 6.764 6.764 0 0 1-1.843 1.209c-3.426 1.519-7.453-.032-8.971-3.458l-.17-.414a6.76 6.76 0 0 1-7.9-3.824 6.79 6.79 0 0 1-.04-5.415 6.793 6.793 0 0 1-3.979-3.67 6.79 6.79 0 0 1-.04-5.415 6.761 6.761 0 0 1-3.978-3.67 6.786 6.786 0 0 1-.041-5.415 6.785 6.785 0 0 1-3.978-3.67c-1.51-3.401.016-7.396 3.394-8.938.487-.317 3.028-1.738 6.836-.203l12.632-9.767a.572.572 0 0 1 .171-.097l2.565-1.137a.726.726 0 0 1 .187-.057l15.718-2.801c1.412-3.856 4.181-4.782 4.733-4.928 3.41-1.469 7.396.081 8.906 3.491a6.794 6.794 0 0 1 .041 5.415 6.788 6.788 0 0 1 3.978 3.67 6.794 6.794 0 0 1 .041 5.415 6.788 6.788 0 0 1 3.978 3.67 6.79 6.79 0 0 1 .04 5.415 6.785 6.785 0 0 1 3.978 3.67 6.77 6.77 0 0 1-2.468 8.419c.073.13.138.268.195.406 1.518 3.426-.032 7.453-3.458 8.971a6.81 6.81 0 0 1-2.136.552c.861 3.182-.698 6.617-3.807 7.997a6.658 6.658 0 0 1-3.15.56 6.789 6.789 0 0 1-2.639 4.214 7.214 7.214 0 0 1-1.283.771c-.016 0-.056.024-.089.032-.032.017-.057.033-.081.041a5.324 5.324 0 0 1-.763.276 6.124 6.124 0 0 1-.674.162h-.033a6.78 6.78 0 0 1-4.863-.877 6.717 6.717 0 0 1-2.533 1.957 6.724 6.724 0 0 1-2.744.585v-.008Zm-5.545-5.359h.106a.817.817 0 0 1 .649.504c0 .008.033.089.033.097 1.177 2.655 4.238 3.84 6.844 2.679a5.115 5.115 0 0 0 2.305-2.03.815.815 0 0 1 1.202-.203 5.154 5.154 0 0 0 4.262 1.048h.025c.17-.033.332-.073.495-.122.203-.057.39-.122.568-.203 0 0 .041-.024.081-.041a.735.735 0 0 0 .122-.048c.154-.065.325-.163.487-.268.171-.098.317-.203.455-.309a5.158 5.158 0 0 0 2.086-3.856.841.841 0 0 1 .309-.593.77.77 0 0 1 .649-.154 5.202 5.202 0 0 0 3.045-.341 5.177 5.177 0 0 0 2.63-6.828c0-.008-.065-.13-.073-.138a.808.808 0 0 1 .804-1.153 5.18 5.18 0 0 0 2.574-.422 5.177 5.177 0 0 0 2.127-7.713.808.808 0 0 1 .308-1.193 5.146 5.146 0 0 0 2.468-6.739 5.159 5.159 0 0 0-3.824-2.995.83.83 0 0 1-.6-.471.8.8 0 0 1 .056-.763 5.163 5.163 0 0 0 .35-4.847 5.162 5.162 0 0 0-3.824-2.996.829.829 0 0 1-.601-.471.8.8 0 0 1 .057-.763 5.166 5.166 0 0 0 .349-4.847 5.162 5.162 0 0 0-3.824-2.996.826.826 0 0 1-.601-.471.798.798 0 0 1 .057-.763 5.166 5.166 0 0 0 .349-4.847 5.177 5.177 0 0 0-6.828-2.63.566.566 0 0 1-.162.049c-.098.024-2.614.649-3.783 4.327a.805.805 0 0 1-.634.552l-16.091 2.866-2.387 1.055-12.933 10.003a.818.818 0 0 1-.836.097c-3.516-1.599-5.659-.154-5.748-.097-.041.032-.089.056-.138.081a5.176 5.176 0 0 0-2.631 6.827 5.16 5.16 0 0 0 3.824 2.996.831.831 0 0 1 .601.471.8.8 0 0 1-.057.763 5.166 5.166 0 0 0-.349 4.847 5.16 5.16 0 0 0 3.824 2.996.829.829 0 0 1 .601.471.802.802 0 0 1-.057.763 5.166 5.166 0 0 0-.349 4.847 5.162 5.162 0 0 0 3.824 2.996.826.826 0 0 1 .601.471.802.802 0 0 1-.057.763 5.16 5.16 0 0 0-.349 4.847 5.158 5.158 0 0 0 6.657 2.703.833.833 0 0 1 .682.033.808.808 0 0 1 .414.535c.073.341.187.666.317.967a5.176 5.176 0 0 0 6.827 2.63 5.155 5.155 0 0 0 2.038-1.624.822.822 0 0 1 .65-.324l.024-.025Z"/></g><path d="M346.928 260.911c-12.6 0-33.23-4.782-59.956-27.572l-.901-.763c-3.743-3.117-6.812-6.405-8.395-8.995a6.83 6.83 0 0 1-.268-6.682 6.833 6.833 0 0 1 5.545-3.734c1.08-.09 2.46-.082 3.856.032 12.544 1.015 32.995 1.137 47.292 1.137 7.794 0 15.45-.041 22.854-.073 6.43-.033 12.478-.065 17.796-.065 10.481 0 16.619.129 19.314.397a6.843 6.843 0 0 1 6.171 6.828c0 1.843-.463 4.953-2.647 9.304-4.904 9.751-17.179 22.286-36.932 28.213-4.368 1.307-8.987 1.973-13.745 1.973h.016Zm-62.384-41.308c-.487 0-.836.024-1.039.04a.343.343 0 0 0-.292.195.372.372 0 0 0 .016.357c1.193 1.949 3.889 4.79 7.031 7.413l.925.787c25.233 21.515 44.239 26.029 55.751 26.029 4.125 0 8.119-.569 11.878-1.697 17.772-5.334 28.7-16.359 32.994-24.908 1.762-3.508 1.949-5.635 1.949-6.39a.368.368 0 0 0-.325-.365c-2.403-.244-8.687-.365-18.665-.365-5.309 0-11.342.032-17.763.065-7.413.04-15.077.073-22.887.073-14.403 0-35.032-.122-47.811-1.153a22.045 22.045 0 0 0-1.754-.073l-.008-.008Z" fill="#3A1919"/><path d="M135.128 212.685c-4.417.26-7.21.22-8.614.163a1.596 1.596 0 0 0-1.559.998c-4.684 11.034-7.323 23.666 31.143 19.713 1.105-.114-27.822-5.805-20.215-19.648.308-.568-.106-1.258-.755-1.217v-.009Z" fill="#605555"/><path d="M53.673 528.194c-8.119 0-14.963-5.512-17.95-10.846L29.3 505.892a3.258 3.258 0 0 1 1.242-4.425l30.461-17.081c.43-.244.91-.382 1.397-.406a5.608 5.608 0 0 1 1.274-.203l8.955-.301a5.306 5.306 0 0 1 4.83 2.72l5.797 10.335c5.197 9.272 2.371 18.73-7.2 24.097a4.538 4.538 0 0 1-.447.211c-4.563 1.713-11.943 4.546-13.55 5.342-2.874 1.412-5.7 2.021-8.387 2.021v-.008Zm-17.114-22.651 4.839 8.622c2.54 4.522 9.612 10.205 17.804 6.178 2.297-1.128 11.934-4.765 13.899-5.504 6.243-3.597 7.883-9.101 4.498-15.133l-5.448-9.718-7.964.268a3.218 3.218 0 0 1-.926.316L36.56 505.543Zm36.33-15.58h-.023.024Z" fill="#3A1919"/><path d="M42.16 517.388c4.523 7.843 13.624 11.237 20.33 7.575l6.178-3.369c6.706-3.654 8.476-12.974 3.954-20.817l-6.787-11.772-30.462 16.603 6.788 11.772v.008Z" fill="#938282"/><path d="M56.653 529.672c-6.593 0-13.42-3.93-17.301-10.66l-6.788-11.772a3.243 3.243 0 0 1 1.259-4.474l30.461-16.602a3.247 3.247 0 0 1 4.368 1.226l6.787 11.772c2.85 4.944 3.678 10.668 2.257 15.709-1.177 4.198-3.832 7.6-7.469 9.581l-6.178 3.369c-2.306 1.258-4.831 1.851-7.397 1.851Zm-16.798-22.789 5.123 8.89c3.637 6.316 10.798 9.158 15.961 6.348l6.179-3.369c2.679-1.461 3.832-3.872 4.327-5.634.95-3.361.349-7.266-1.632-10.709l-5.204-9.028-24.754 13.494v.008Z" fill="#3A1919"/><path d="M163.584 418.811s-15.994 15.84-14.906 45.01c.763 20.467 12.332 5.87 9.328 44.182-1.38 17.585 9.32 27.912 33.392 28.334 7.535.13 12.544-18.462 16.441-50.465.414-3.402 1.721-10.222 0-24.762-3.475-29.431-23.707-58.796-44.255-42.299Z" fill="#938282"/><path d="M191.496 539.593h-.154c-14.013-.244-24.202-3.767-30.283-10.457-4.863-5.35-6.982-12.543-6.284-21.377 1.681-21.465-1.218-24.989-4.027-28.391-2.322-2.817-4.96-6.016-5.309-15.417-1.129-30.25 15.173-46.747 15.863-47.438a3.61 3.61 0 0 1 .252-.227c6.95-5.577 14.524-6.933 21.913-3.913 15.1 6.178 25.314 29 27.603 48.355 1.599 13.55.65 20.67.138 24.494-.049.382-.097.731-.138 1.047-4.66 38.329-10.156 53.324-19.558 53.324h-.016Zm-25.728-118.371c-1.324 1.405-14.817 16.416-13.851 42.477.268 7.21 1.843 9.109 3.832 11.529 4.319 5.245 7.242 10.684 5.489 33.035-.544 6.974 1.006 12.527 4.619 16.497 4.831 5.318 13.445 8.119 25.59 8.338h.016c1.397 0 3.906-2.85 6.406-10.895 2.501-8.07 4.709-20.078 6.73-36.713.041-.341.09-.715.147-1.12.47-3.54 1.355-10.133-.147-22.871-2.37-20.037-12.519-38.572-23.609-43.11-5.09-2.078-10.213-1.129-15.23 2.841l.008-.008Z" fill="#3A1919"/><path d="M205.907 472.476a2.11 2.11 0 0 0-1.86-.309c-22.472 7.088-53.656-2.744-53.973-2.841a2.092 2.092 0 0 0-2.216.625 2.089 2.089 0 0 0-.284 2.289l5.09 10.23c.219.438.585.787 1.031.982.747.325 13.364 5.708 29.552 5.708 6.942 0 14.541-.991 22.14-3.792a2.08 2.08 0 0 0 1.364-1.956v-9.256c0-.665-.317-1.291-.853-1.68h.009ZM207.652 502.596a2.087 2.087 0 0 0-1.12-1.648 2.097 2.097 0 0 0-1.997.049l-8.249 4.781-31.947-1.826a2.035 2.035 0 0 0-1.502.528 2.038 2.038 0 0 0-.69 1.437l-.609 10.911c-.585 10.441 6.795 18.973 17.187 19.558l8.33.463h.162c5.318-.114 9.735-2.111 13.12-5.919 9.353-10.546 7.421-27.441 7.331-28.326l-.016-.008Z" fill="#3A1919"/><path d="M209.698 502.247a2.094 2.094 0 0 0-1.916-1.6l-45.635-2.541a2.072 2.072 0 0 0-1.161.276L151.284 504a2.095 2.095 0 0 0-.982 2.29c.211.893.99 1.543 1.916 1.599l45.635 2.542c.406.024.812-.074 1.161-.277l9.702-5.618a2.095 2.095 0 0 0 .982-2.289Z" fill="#3A1919"/><path d="m170.038 537.393 9.247.519c20.711 1.153 19.867-29.219 19.867-29.219l-45.611-2.541s-1.689 30.234 16.497 31.249v-.008Z" fill="#938282"/><path d="M180.446 541.192c-.438 0-.885-.016-1.331-.04l-9.247-.52c-21.174-1.177-19.631-33.303-19.558-34.675a3.248 3.248 0 0 1 3.426-3.061l45.611 2.542a3.25 3.25 0 0 1 3.069 3.15c.024.746.406 18.413-8.858 27.416-3.532 3.435-7.94 5.18-13.103 5.18l-.009.008Zm-23.666-31.614c.179 7.209 1.851 23.926 13.445 24.575l9.247.52c3.913.211 7.031-.861 9.548-3.312 4.936-4.807 6.495-14.07 6.828-19.607l-39.068-2.176Z" fill="#3A1919"/><path d="M55.29 233.596a8.063 8.063 0 0 0-14.996-5.926L5.946 314.601a8.063 8.063 0 0 0 14.996 5.925l34.348-86.93Z" fill="#D8A577"/><mask id="d" style="mask-type:luminance" maskUnits="userSpaceOnUse" x="5" y="205" width="59" height="121"><path d="M62.214 224.352c3.06-7.753.917-15.864-4.79-18.121-5.708-2.257-12.82 2.2-15.889 9.954-1.485 3.767-1.737 7.607-.958 10.83-.105.211-.21.43-.3.649l-34.35 86.927c-1.632 4.125.414 8.833 4.538 10.457 4.124 1.624 8.833-.414 10.457-4.538l34.35-86.927c.09-.227.163-.455.227-.682 2.777-1.819 5.22-4.798 6.707-8.557l.008.008Z" fill="#fff"/></mask><g mask="url(#d)"><path d="M62.076 224.693c-3.045 7.705-9.913 11.537-15.62 9.288-5.708-2.257-8.103-9.751-5.059-17.455 3.045-7.705 10.14-12.122 15.856-9.865 5.708 2.257 7.867 10.336 4.823 18.04v-.008Z" fill="#9E673E"/></g><path d="M62.214 224.352c-3.06 7.753-8.233 7.299-13.948 5.042-5.707-2.257-9.8-5.464-6.73-13.209 3.06-7.754 10.172-12.211 15.888-9.954 5.707 2.257 7.859 10.368 4.79 18.121Z" fill="#D8A577"/><path d="M13.412 328.864c-1.38 0-2.784-.252-4.14-.788a11.216 11.216 0 0 1-6.211-6.024 11.226 11.226 0 0 1-.146-8.654l34.277-86.74c-.658-3.719-.195-7.819 1.323-11.667 1.738-4.392 4.669-8.045 8.249-10.286 3.897-2.444 8.102-2.972 11.853-1.486 7.364 2.907 10.335 12.933 6.617 22.335-1.518 3.848-3.986 7.152-7.006 9.425L23.95 321.72c-1.753 4.44-6.024 7.152-10.53 7.152l-.008-.008Zm40.894-119.978c-1.688 0-3.207.755-4.092 1.315-2.378 1.494-4.44 4.108-5.65 7.169-1.186 3.004-1.478 6.154-.82 8.874.178.747.089 1.534-.252 2.224-.065.13-.13.26-.179.39l-34.35 86.927a4.777 4.777 0 0 0 .065 3.678 4.782 4.782 0 0 0 2.639 2.565 4.812 4.812 0 0 0 6.243-2.712l34.35-86.926c.057-.139.098-.277.138-.406.22-.739.69-1.372 1.332-1.795 2.338-1.534 4.278-4.035 5.472-7.039 2.362-5.967.998-12.34-2.964-13.907a5.125 5.125 0 0 0-1.924-.357h-.008Z" fill="#3A1919"/><path d="M46.325 281.824s-4.773-6.194-10.968-5.926c-3.58.154-10.887 5.179-4.944 14.151 1.737 2.622 8.711 5.731 8.711 5.731s3.304 1.137 7.331-3.393c4.807-5.407-.138-10.563-.138-10.563h.008Z" fill="#FFE14D"/><path d="M39.62 300.254c-.374 0-.755-.065-1.129-.203-5.22-1.932-13.72-7.413-12.495-15.694.853-5.74 3.8-8.183 6.13-9.222 7.453-3.329 18.023 3.426 19.2 4.205a3.246 3.246 0 0 1-3.58 5.415c-2.809-1.843-9.66-5.171-12.973-3.694-.455.203-1.835.82-2.347 4.238-.747 5.05 8.233 8.614 8.322 8.647a3.247 3.247 0 0 1-1.128 6.292v.016Z" fill="#3A1919"/><path d="M344.834 289.902a5.963 5.963 0 0 0-4.425-3.466 5.98 5.98 0 0 0 .406-5.61 5.99 5.99 0 0 0-7.9-3.045s-3.044.65-4.384 4.871l-16.188 2.883-2.566 1.136-13.014 10.059c-4.035-1.835-6.56-.024-6.56-.024a5.99 5.99 0 0 0-3.045 7.899 5.96 5.96 0 0 0 4.425 3.467 5.98 5.98 0 0 0-.406 5.61 5.958 5.958 0 0 0 4.425 3.467 5.98 5.98 0 0 0-.406 5.61 5.957 5.957 0 0 0 4.425 3.466 5.978 5.978 0 0 0-.406 5.61c1.307 2.956 4.725 4.32 7.696 3.126.089.374.203.755.365 1.121a5.99 5.99 0 0 0 7.9 3.044 5.906 5.906 0 0 0 2.362-1.883c.025.056.041.113.065.17a5.99 5.99 0 0 0 7.9 3.045 5.927 5.927 0 0 0 2.663-2.347 5.981 5.981 0 0 0 4.928 1.21c.203-.041.406-.089.601-.146.219-.065.438-.138.657-.236 0 0 .057-.032.081-.04.033-.017.057-.016.09-.033a5.753 5.753 0 0 0 1.128-.674 5.983 5.983 0 0 0 2.412-4.465 5.96 5.96 0 0 0 3.523-.398 5.99 5.99 0 0 0 3.045-7.899c-.025-.057-.057-.106-.082-.163a5.96 5.96 0 0 0 2.98-.487 5.988 5.988 0 0 0 3.044-7.899 5.743 5.743 0 0 0-.584-1.023c2.882-1.405 4.165-4.847 2.858-7.802a5.96 5.96 0 0 0-4.425-3.467 5.98 5.98 0 0 0 .406-5.61 5.958 5.958 0 0 0-4.425-3.467 5.98 5.98 0 0 0 .406-5.61h.025Z" fill="#FFE14D"/><path d="M297.867 302.389a1.22 1.22 0 0 0-.609-1.608 1.235 1.235 0 0 0-1.616.601c-.008.025-1.234 2.655-3.556 3.995-2.183 1.258-3.791.901-3.84.885a6.009 6.009 0 0 0 3.329 1.826c-.049.081-.089.163-.13.244a10.686 10.686 0 0 0 1.859-.836c3.012-1.738 4.498-4.961 4.563-5.099v-.008ZM302.129 311.458a1.218 1.218 0 0 0-2.257-.918c-.008.024-1.063 2.541-3.336 3.93-2.16 1.315-3.768.982-3.816.974a1.104 1.104 0 0 0-.366-.025 6 6 0 0 0 3.256 1.746c-.089.146-.171.309-.252.463a9.631 9.631 0 0 0 2.444-1.072c2.98-1.818 4.279-4.96 4.327-5.09v-.008ZM306.237 320.283a1.223 1.223 0 0 0-.665-1.584 1.23 1.23 0 0 0-1.592.658c-.008.024-.917 2.143-3.507 3.735-2.168 1.331-3.783 1.055-3.832 1.047a1.218 1.218 0 0 0-.568.024 5.98 5.98 0 0 0 3.434 2.038 10.526 10.526 0 0 0 2.241-1.031c3.304-2.03 4.441-4.774 4.489-4.887ZM337.616 285.194c-2.427.779-3.946.227-4.035.194a1.223 1.223 0 0 0-1.583.65c-.26.617.032 1.331.649 1.599.147.065 1.04.414 2.493.414.885 0 1.973-.129 3.231-.535a11.11 11.11 0 0 0 2.249-1.023c-.065-.017-.138-.041-.203-.049a6.025 6.025 0 0 0 .893-3.613 8.758 8.758 0 0 1-3.686 2.371l-.008-.008ZM337.267 294.222a1.218 1.218 0 0 0-.99 2.224c.154.065 1.12.471 2.703.471.844 0 1.859-.114 3.02-.455.91-.268 1.73-.6 2.46-.941h-.016a6.026 6.026 0 0 0 .909-3.28 15.98 15.98 0 0 1-4.043 1.891c-2.444.723-3.946.13-4.035.098l-.008-.008ZM341.018 302.722a1.22 1.22 0 0 0-1.6.617c-.276.609 0 1.331.609 1.607.146.065 1.218.512 3.223.512a14.995 14.995 0 0 0 5.253-.958 6.05 6.05 0 0 0 .861-3.012c-.974.479-2.606 1.177-4.368 1.412-2.598.35-3.93-.162-3.978-.186v.008ZM310.662 328.344a1.213 1.213 0 0 0-1.007-1.388 1.21 1.21 0 0 0-1.396 1.007c0 .024-.439 2.557-2.29 4.408-1.761 1.77-3.499 1.868-3.564 1.876-.3 0-.568.13-.771.308a6.003 6.003 0 0 0 4.847.569 10.57 10.57 0 0 0 1.218-1.031c2.419-2.428 2.947-5.611 2.971-5.749h-.008ZM318.529 330.967c-.26-.609-.966-.885-1.583-.642a1.229 1.229 0 0 0-.666 1.584c.025.056.544 1.412-.243 3.458-.812 2.119-3.418 3.54-3.435 3.556a1.224 1.224 0 0 0-.576.674c1.039.13 2.127 0 3.158-.463a5.916 5.916 0 0 0 2.363-1.883c.024.056.04.113.065.17.016.033.032.057.04.081.252-.398.479-.82.658-1.266 1.136-2.964.308-5.042.211-5.269h.008ZM343.949 324.529c-2.282-2.103-4.035-2.29-4.23-2.298a1.212 1.212 0 0 0-1.283 1.096 1.234 1.234 0 0 0 1.08 1.332c.008 0 1.153.162 2.776 1.664a8.04 8.04 0 0 1 2.355 3.986 5.983 5.983 0 0 0 .016-4.871c-.024-.057-.057-.106-.081-.162h.089a10.014 10.014 0 0 0-.722-.747ZM345.881 315.671a8.283 8.283 0 0 1 1.583.536c2.281 1.023 2.915 2.525 2.931 2.574.13.341.398.584.714.706a6.032 6.032 0 0 0-.503-2.606 5.722 5.722 0 0 0-.585-1.023 4.04 4.04 0 0 0 .406-.227 9.502 9.502 0 0 1-2.224.259c-1.064 0-1.94-.146-2.33-.219h.008ZM344.769 314.161a1.218 1.218 0 0 1 1.461-.909s.049.008.13.024c-2.013-.446-3.353-.081-3.54-.024-.641.195-.99.86-.804 1.502a1.227 1.227 0 0 0 1.502.836c.049-.016.934-.244 2.347.073a.873.873 0 0 1-.179-.041 1.216 1.216 0 0 1-.909-1.461h-.008ZM350.598 313.041c-1.575.698-3.702.349-4.238.243.641.138 1.348.366 2.103.707.958.43 1.713.933 2.305 1.437a5.995 5.995 0 0 0 2.623-4.758 6.393 6.393 0 0 1-2.793 2.363v.008Z" fill="#C6B44B"/><path d="M346.36 313.284a1.927 1.927 0 0 0-.13-.024 1.219 1.219 0 0 0-1.461.909 1.213 1.213 0 0 0 .909 1.462c.016 0 .081.016.179.04h.024c.382.073 1.266.219 2.33.219.69 0 1.461-.073 2.225-.259.113-.065.219-.138.324-.212a9.49 9.49 0 0 0-2.305-1.437 11.244 11.244 0 0 0-2.103-.706l.008.008ZM327.208 331.113a1.206 1.206 0 0 0-1.697-.098 1.227 1.227 0 0 0-.122 1.714c.041.048.95 1.152.91 3.344-.049 2.322-1.713 4.563-1.73 4.587-.04.049-.065.106-.097.163a5.477 5.477 0 0 0 1.047-.349 5.927 5.927 0 0 0 2.663-2.347c.065.057.138.098.211.155a8.44 8.44 0 0 0 .341-2.152c.065-3.158-1.356-4.83-1.518-5.009l-.008-.008ZM333.605 328.198a1.22 1.22 0 0 0-1.648.471 1.222 1.222 0 0 0 .463 1.656c.016 0 1.405.812 2.744 2.809 1.072 1.6 1.332 3.573 1.388 4.263a5.994 5.994 0 0 0 1.543-3.662c.033 0 .073 0 .106.008a9.617 9.617 0 0 0-1.007-1.964c-1.689-2.517-3.507-3.54-3.58-3.581h-.009Z" fill="#C6B44B"/><path d="M327.671 330.033c-7.607 3.378-16.546-.073-19.924-7.68l-10.992-24.803s3.182-4.96 14.954-10.181c11.773-5.22 17.585-4.246 17.585-4.246l10.993 24.803c3.378 7.607-.073 16.546-7.68 19.923l-4.936 2.192v-.008Z" fill="#A31E36"/><path d="M321.566 333.768a17.63 17.63 0 0 1-6.325-1.186c-4.376-1.688-7.826-4.968-9.718-9.247l-10.993-24.794a2.41 2.41 0 0 1 .179-2.298c.365-.568 3.921-5.732 16.018-11.098 12.097-5.367 18.308-4.53 18.982-4.417a2.454 2.454 0 0 1 1.826 1.413l10.993 24.803c3.921 8.841-.081 19.217-8.922 23.13l-4.937 2.192a17.427 17.427 0 0 1-7.087 1.51l-.016-.008Zm-21.97-35.82 10.376 23.414a12.591 12.591 0 0 0 7.023 6.674 12.56 12.56 0 0 0 9.685-.235l4.936-2.193c6.382-2.825 9.272-10.318 6.447-16.708l-10.384-23.414c-2.152.057-7.153.625-14.987 4.1-7.827 3.467-11.61 6.787-13.104 8.354l.008.008Z" fill="#C6B44B"/></g><defs><clipPath id="a"><path fill="#fff" transform="translate(.244)" d="M0 0h400v612.426H0z"/></clipPath></defs></svg>