<svg width="427" height="504" viewBox="0 0 427 504" fill="none" xmlns="http://www.w3.org/2000/svg">
<path d="M366.78 244.225C365.102 243.351 361.151 241.689 354.351 238.986C350.901 237.615 346.968 236.076 342.788 234.439C337.973 232.556 332.998 230.602 327.941 228.592C318.67 224.907 305.431 219.559 297.551 215.659C296.669 215.223 295.781 214.864 295.057 214.643C294.747 214.55 294.439 214.495 294.126 214.468C294.126 214.468 294.121 214.466 294.118 214.459C294.112 214.444 294.098 214.433 294.089 214.423C286.396 203.716 276.399 195.351 264.34 189.49C265.147 188.701 265.712 187.925 266.007 187.182L266.206 186.682C266.206 186.682 266.219 186.65 266.225 186.634L266.369 186.271C266.424 186.134 266.475 185.989 266.503 185.842C266.545 185.645 266.559 185.456 266.55 185.263C269.508 171.854 274.382 160.189 279.097 148.894C284.018 137.113 289.103 124.934 292.123 110.66C292.694 107.965 289.855 105.977 287.319 104.547C285.838 103.715 283.989 102.827 281.813 101.902C284.708 96.7512 284.67 90.1726 279.621 85.1343C279.409 84.7327 279.171 84.3332 278.906 83.9412C298.365 78.5676 299.724 65.9872 291.967 57.8654C284.345 44.3993 254.186 37.285 230.567 74.2548C227.777 78.6175 225.454 83.1287 223.526 87.6875C221.013 87.4266 218.577 87.2151 216.27 87.0664C211.391 86.7559 207.444 86.7424 204.532 87.0245C201.633 87.3055 198.233 87.9729 197.662 90.6677C194.642 104.924 194.144 118.499 193.659 131.628C193.197 144.071 192.727 156.932 190.078 170.225C187.41 172.977 183.813 177.592 183.599 182.625C177.554 184.529 171.551 187.248 166.143 191.094C154.537 193.636 141.948 194.97 136.812 194.142C135.54 193.935 134.323 194.019 133.216 194.378C133.048 194.433 132.883 194.496 132.721 194.566C132.37 194.145 132.008 193.721 131.639 193.282C130.007 191.358 128.384 189.871 126.804 188.719L143.622 170.84C146.165 170.149 148.621 168.636 150.598 166.531C155.436 161.39 156.093 154.119 152.065 150.334C150.015 148.402 147.148 147.666 143.992 148.241C141.091 148.771 138.247 150.386 135.987 152.787C134.01 154.893 132.652 157.433 132.12 160.016L87.5023 207.444C86.0636 208.977 85.3038 210.98 85.3652 213.097C85.4287 215.208 86.3087 217.169 87.8413 218.607C88.5828 219.305 89.4291 219.83 90.3246 220.186C93.09 221.285 96.3393 220.753 98.6115 218.643C99.1556 219.591 99.7511 220.426 100.384 221.196L99.6339 221.733C98.6124 222.462 98.3797 223.876 99.1082 224.897L107.236 236.277C101.771 236.46 98.1507 237.68 96.4136 239.948L96.2257 240.19L96.1126 240.475L95.92 240.959L95.3002 242.488L95.296 242.499L93.462 247.204C93.3624 247.348 93.2764 247.503 93.2094 247.671L81.803 276.076C81.5804 275.853 81.3558 275.636 81.129 275.424C81.1185 275.42 81.1121 275.405 81.1016 275.401C79.9129 274.294 78.6689 273.372 77.3906 272.675C77.1292 272.535 76.8637 272.405 76.6013 272.282C76.5908 272.278 76.575 272.272 76.5644 272.268C76.1746 272.082 75.7816 271.92 75.3876 271.775C75.3666 271.767 75.3455 271.759 75.3192 271.748C74.9831 271.627 74.6461 271.523 74.308 271.438C74.2638 271.426 74.2185 271.402 74.1721 271.396C71.2127 270.647 66.7803 270.672 62.4321 275.043C61.8827 275.551 58.1075 279.186 54.5395 286.076C54.4671 286.212 54.3969 286.342 54.3277 286.486C54.2732 286.592 54.224 286.701 54.1695 286.807C54.0217 287.102 53.8718 287.402 53.7252 287.71C53.6047 287.967 53.48 288.235 53.3606 288.505C53.283 288.669 53.2076 288.828 53.1332 289C53.0547 289.182 52.9719 289.375 52.8913 289.562C52.5855 290.27 52.2818 291.004 51.9909 291.766C51.8161 292.222 51.6444 292.684 51.4813 293.156C51.4687 293.187 51.4582 293.214 51.4457 293.245C51.3107 293.631 51.179 294.024 51.0524 294.419C51.0096 294.542 50.9688 294.66 50.929 294.791C49.5803 298.982 48.5267 303.858 48.0893 309.424C47.9766 310.843 47.9667 312.095 48.0323 313.219C48.3613 318.822 50.6998 321.087 52.9666 323.287C55.3715 325.616 58.0318 328.192 59.1609 336.308L56.9269 336.603C55.6841 336.768 54.8151 337.911 54.9799 339.154L56.1922 348.242C56.602 351.309 58.3056 354.957 61.2174 357.529C62.6761 359.384 64.5307 360.81 66.5903 361.629C68.2548 362.29 70.0458 362.557 71.8664 362.335L73.307 362.164C74.1189 362.346 74.9718 362.472 75.8677 362.535C75.8856 362.536 75.9087 362.539 75.9266 362.54C82.9236 363.199 89.9375 363.431 93.8609 360.696C95.2966 359.693 96.4642 358.382 97.4041 356.907C106.176 371.087 118.662 381.521 130.301 388.886C131.011 392.609 132.986 395.987 137.217 397.943L143.083 400.665C143.366 400.796 143.651 400.921 143.936 401.034C144.542 401.275 145.153 401.457 145.756 401.611C148.159 402.548 150.92 403.444 154.099 404.299C157.698 405.266 161.288 405.473 164.657 404.854C169.428 406.403 172.651 407.178 173.472 407.37L173.519 407.389C178.002 409.171 183.018 410.884 189.475 412.072C167.468 422.429 140.992 425.013 121.206 417.582C108.724 412.877 100.955 404.494 99.276 393.939C96.701 377.782 86.1795 368.159 77.1247 366.999C70.1515 366.113 64.0601 370.005 60.8363 377.409C58.1037 383.685 59.8592 393.264 65.6511 403.691C72.4616 415.945 86.686 431.797 106.202 439.555C110.874 441.412 115.643 442.703 120.374 443.401C157.858 448.906 199.507 436.231 225.174 412.232C228.219 411.662 230.044 411.106 230.527 410.95C245.602 407.445 267.502 395.149 287.355 356.865C291.743 357.243 295.482 357.32 298.455 357.099C299.304 357.034 300.045 356.505 300.375 355.721C300.597 355.193 305.884 342.582 309.882 324.866C311.362 318.305 312.753 310.538 313.527 302.239C315.625 301.67 317.106 299.739 317.015 297.483C317.008 297.346 316.994 297.212 316.978 297.084C317.176 296.772 317.158 296.356 316.899 296.07C316.832 295.995 316.751 295.938 316.667 295.887C316.484 295.442 316.24 295.028 315.936 294.657C315.946 294.526 315.944 294.392 315.938 294.255C315.927 294.006 315.888 293.765 315.837 293.526C316.456 292.674 316.784 291.633 316.743 290.555C316.744 290.537 316.738 290.523 316.739 290.505C316.985 290.316 317.114 290.007 317.058 289.686C316.993 289.343 316.737 289.083 316.412 289.009C316.233 288.541 315.972 288.108 315.654 287.725C315.663 287.595 315.667 287.462 315.666 287.327C315.655 287.079 315.616 286.838 315.565 286.598C316.184 285.746 316.513 284.705 316.471 283.628C316.467 283.547 316.455 283.469 316.451 283.388C316.705 283.178 316.827 282.824 316.725 282.484C316.631 282.166 316.369 281.952 316.069 281.894C315.892 281.494 315.665 281.13 315.389 280.794C315.399 280.664 315.403 280.531 315.401 280.396C315.39 280.148 315.352 279.907 315.301 279.667C315.92 278.815 316.248 277.775 316.207 276.697C316.201 276.512 316.178 276.325 316.152 276.144C316.478 275.877 316.565 275.412 316.338 275.047C316.226 274.869 316.061 274.748 315.875 274.692C316.846 274.322 317.456 273.339 317.316 272.295L315.376 257.195C318.63 259.538 321.633 261.097 324.23 262.13C327.316 263.357 330.485 264.116 333.656 264.394C348.001 265.643 359.198 260.676 364.894 255.614C367.433 253.354 368.535 251.456 369.011 250.26C369.921 247.969 368.957 245.377 366.768 244.239L366.78 244.225Z" fill="#E67823"/>
<path d="M165.144 263.198C165.144 263.198 143.908 265.078 135.683 262.443C122.317 258.167 105.155 223.171 105.155 223.171L131.642 204.353C131.642 204.353 147.189 224.611 152.089 229.548C154.82 232.299 182.933 226.071 184.953 247.875C186.255 261.909 165.144 263.198 165.144 263.198Z" fill="#791628"/>
<path d="M134.168 264.305C120.215 258.759 103.821 225.605 103.118 224.166C102.631 223.168 102.932 221.964 103.842 221.319L130.328 202.501C131.323 201.792 132.697 202.003 133.442 202.97C133.594 203.171 148.661 222.78 153.558 227.801C154.287 228.054 156.611 228.161 158.497 228.251C167.946 228.695 185.533 229.519 187.214 247.663C187.57 251.495 186.532 254.858 184.133 257.656C178.285 264.481 166.197 265.397 165.314 265.455C164.094 265.562 143.481 267.317 134.99 264.601C134.718 264.517 134.442 264.414 134.168 264.305ZM108.053 223.889C113.425 234.406 126.737 257.203 136.376 260.284C144.072 262.746 164.741 260.958 164.948 260.942C164.968 260.938 164.986 260.939 165.006 260.935C165.112 260.928 176.011 260.18 180.7 254.705C182.287 252.847 182.944 250.687 182.704 248.084C181.488 234.969 169.976 233.333 158.286 232.785C154.112 232.59 151.813 232.482 150.485 231.142C146.337 226.968 135.084 212.51 131.18 207.463L108.053 223.889Z" fill="#3A1919"/>
<path d="M89.3673 206.202C91.1288 217.132 95.7465 217.607 101.753 224.856C108.61 233.138 113.776 234.844 119.784 231.053C124.616 227.996 129.961 223.527 135.354 213.136C136.935 210.94 127.9 199.157 121.254 191.324C116.634 185.883 111.768 183.76 107.403 183.922C97.8011 184.57 88.8551 194.769 89.3725 206.204L89.3673 206.202Z" fill="#FFE14D"/>
<path d="M91.2618 212.054C93.1908 219.616 97.5481 219.457 101.752 224.855C106.554 231.021 110.533 234.439 113.864 232.335C118.31 231.876 121.323 230.036 126.965 224.495C127.747 223.128 113.997 210.301 109.36 204.456C106.138 200.394 103.031 198.573 100.405 198.335C94.6512 198.018 90.0491 204.24 91.2618 212.054Z" fill="#EA911B"/>
<path d="M109.728 234.424C106.025 232.952 102.835 229.714 100.006 226.302C98.3325 224.283 96.7916 222.834 95.3001 221.43C91.6486 218.003 88.495 215.041 87.1261 206.561C87.1112 206.476 87.1036 206.388 87.1013 206.301C86.545 193.936 95.9586 182.422 107.248 181.658C107.273 181.655 107.299 181.653 107.317 181.654C111.167 181.513 117.008 182.823 122.978 189.856C139.694 209.553 138.294 212.876 137.287 214.319C131.565 225.293 125.84 229.904 120.994 232.967C116.767 235.636 113.041 235.741 109.728 234.424ZM91.6299 205.973C92.7574 212.819 95.0092 214.934 98.4118 218.129C99.9306 219.556 101.649 221.172 103.504 223.41C110.407 231.748 114.389 231.781 118.577 229.133C122.91 226.397 128.033 222.254 133.247 212.267C132.891 210.217 128.086 202.878 119.524 192.789C115.744 188.335 111.595 186.051 107.523 186.183C98.8007 186.797 91.2624 196.201 91.6299 205.973Z" fill="#3A1919"/>
<path d="M146.545 216.793L129.812 193.372L92.3104 220.164L109.043 243.585L146.545 216.793Z" fill="#A31E36"/>
<path d="M129.804 193.369L118.441 201.485C117.693 203.749 117.527 206.27 118.41 208.975C120.594 215.681 126.006 223.395 130.058 228.562L146.541 216.789L129.809 193.371L129.804 193.369Z" fill="#791628"/>
<path d="M141.108 209.183L135.252 200.987L97.7503 227.779L103.606 235.975L141.108 209.183Z" fill="#FFEC64"/>
<path d="M135.244 200.983L119.639 212.128L97.7379 227.773L103.593 235.969L124.583 220.974L141.099 209.179L135.244 200.983Z" fill="#FFEC64"/>
<path d="M135.243 200.983L119.637 212.133C120.948 215.095 122.712 218.132 124.581 220.979L141.099 209.179L135.243 200.983Z" fill="#DDC84B"/>
<path d="M108.19 245.689C107.79 245.53 107.441 245.257 107.181 244.898L90.4496 221.479C89.7211 220.457 89.9591 219.045 90.9754 218.315L128.481 191.525C128.973 191.178 129.579 191.034 130.173 191.136C130.767 191.238 131.296 191.564 131.643 192.056L148.374 215.475C148.722 215.966 148.865 216.572 148.763 217.166C148.661 217.76 148.335 218.289 147.843 218.637L110.338 245.427C109.846 245.774 109.24 245.917 108.646 245.815C108.486 245.788 108.332 245.746 108.179 245.685L108.19 245.689ZM95.4604 220.689L109.553 240.418L143.371 216.261L129.278 196.533L95.4604 220.689Z" fill="#3A1919"/>
<path d="M169.001 185.099L159.92 189.437C147.368 192.365 133.555 193.877 127.792 192.953C126.876 192.802 126.023 192.86 125.259 193.111C123.697 193.619 122.556 194.97 122.332 196.577C122.227 197.316 122.324 198.069 122.605 198.76C122.922 199.618 123.29 200.319 123.779 201.038C127.534 206.538 137.877 210.765 152.868 212.534L156.86 213.004C157.857 203.696 158.38 193.51 169.006 185.101L169.001 185.099Z" fill="#FF9739"/>
<path d="M166.816 185.255L157.735 189.593C151.651 191.012 145.076 192.192 139.454 192.831C136.311 203.439 129.286 206.027 129.286 206.027C133.883 207.629 144.16 211.915 150.675 212.68L154.666 213.151C155.664 203.843 156.187 193.657 166.813 185.247L166.816 185.255Z" fill="#E26917"/>
<path d="M133.316 210.313C127.954 208.181 124.057 205.479 121.893 202.313C121.296 201.436 120.848 200.568 120.476 199.572C120.056 198.527 119.919 197.381 120.076 196.266C120.42 193.804 122.175 191.721 124.549 190.95C125.658 190.586 126.867 190.505 128.145 190.714C133.528 191.579 147.113 190.074 159.158 187.286L168.019 183.055C169.06 182.554 170.31 182.923 170.921 183.904C171.531 184.884 171.308 186.168 170.402 186.881C161.079 194.253 160.151 203.156 159.257 211.773L159.104 213.249C159.041 213.852 158.737 214.403 158.263 214.781C157.789 215.16 157.185 215.329 156.584 215.261L152.593 214.791C144.972 213.89 138.469 212.373 133.317 210.325L133.316 210.313ZM160.024 191.735C147.13 194.711 133.47 196.161 127.423 195.185C126.873 195.095 126.374 195.122 125.953 195.26C125.211 195.501 124.672 196.135 124.563 196.885C124.519 197.227 124.562 197.579 124.689 197.904C124.698 197.926 124.702 197.946 124.712 197.969C124.958 198.64 125.238 199.178 125.634 199.762C129.014 204.717 139.285 208.647 153.112 210.276L154.826 210.475C155.46 204.432 156.273 197.905 160.019 191.733L160.024 191.735Z" fill="#3A1919"/>
<path d="M225.612 395.259C217.065 397.211 209.186 397.928 202.018 397.854L201.326 398.427C176.961 418.631 138.453 426.302 111.759 416.271C98.4591 411.259 90.1967 402.229 88.3879 390.866C85.9827 375.801 76.4079 366.866 68.1923 365.82C62.1814 365.06 57.1108 368.363 54.2693 374.883C51.8195 380.509 53.5428 389.355 58.986 399.156C66.4137 412.527 80.7413 426.999 98.3927 434.015C102.759 435.751 107.337 437.034 112.057 437.727C152.136 443.611 197.031 428.384 221.232 400.691L225.696 395.231C225.696 395.231 225.636 395.244 225.609 395.251L225.612 395.259Z" fill="#FF9739"/>
<path d="M220.38 396.314C195.392 420.968 153.407 434.137 115.686 428.598C110.965 427.905 106.388 426.623 102.021 424.887C84.37 417.871 70.0423 403.398 62.6146 390.027C58.5367 382.685 56.5505 375.881 56.8337 370.565C55.8469 371.789 54.9858 373.234 54.2674 374.888C51.8176 380.514 53.5409 389.361 58.9841 399.161C66.4117 412.532 80.7394 427.005 98.3908 434.021C102.758 435.756 107.335 437.039 112.055 437.732C152.134 443.616 197.024 428.387 221.231 400.697L225.694 395.237C225.694 395.237 225.634 395.249 225.607 395.257C223.835 395.663 222.092 396.013 220.38 396.314Z" fill="#E26917"/>
<path d="M97.5529 436.128C78.0369 428.37 63.8073 412.515 57.002 400.264C51.2101 389.837 49.4547 380.258 52.1873 373.982C55.4111 366.578 61.495 362.689 68.4756 363.572C77.5304 364.732 88.0519 374.355 90.6269 390.512C92.3055 401.067 100.075 409.449 112.557 414.155C138.547 423.918 176.088 416.405 199.877 396.686L200.571 396.108C200.981 395.765 201.505 395.583 202.04 395.588C209.636 395.661 217.391 394.809 225.092 393.052C225.12 393.044 225.187 393.028 225.207 393.024C226.151 392.813 227.122 393.224 227.63 394.048C228.138 394.872 228.068 395.924 227.453 396.674L222.989 402.134C222.989 402.134 222.956 402.169 222.943 402.188C198.257 430.426 152.523 445.967 111.73 439.976C106.999 439.279 102.23 437.987 97.5582 436.13L97.5529 436.128ZM71.1419 368.926C70.0515 368.493 68.9635 368.207 67.9012 368.071C62.8958 367.436 58.7924 370.178 56.3468 375.794C54.2165 380.693 55.9408 389.016 60.9634 398.063C67.3945 409.629 80.818 424.596 99.2279 431.914C103.574 433.641 107.999 434.845 112.385 435.49C151.724 441.27 195.769 426.357 219.5 399.234L219.94 398.695C214.213 399.658 208.479 400.136 202.825 400.133L202.769 400.184C177.828 420.867 138.355 428.697 110.959 418.406C110.641 418.285 110.318 418.163 110.007 418.039C96.5063 412.673 88.0524 403.188 86.1444 391.231C84.2375 379.286 77.6346 371.513 71.1398 368.932L71.1419 368.926Z" fill="#3A1919"/>
<path d="M222.103 403.227C237.118 399.765 259.154 387.248 279.046 347.303C291.336 322.628 299.811 292.589 300.65 270.774C300.892 264.411 300.731 258.156 299.945 252.14C296.825 228.239 287.941 215.632 287.932 215.622C287.466 214.845 286.991 214.077 286.496 213.313C285.835 212.275 285.153 211.242 284.43 210.222C284.43 210.222 284.43 210.222 284.425 210.22C284.425 210.22 284.425 210.22 284.42 210.218C276.255 198.854 265.414 190.19 252.19 184.464C251.102 183.995 249.999 183.532 248.903 183.096C217.03 170.427 178.717 170.857 156.235 190.052C138.361 205.309 150.134 216.265 150.745 217.996C154.381 225.285 114.817 274.454 114.817 274.454C105.372 271.914 87.5314 272.234 79.7743 286.04C79.6725 286.22 79.192 289.347 79.0076 290.701C78.9982 290.77 78.9815 290.843 78.9775 290.915C78.9268 291.303 78.876 291.692 78.8253 292.08C76.4298 288.316 73.324 285.587 69.7843 284.18C65.7547 282.578 61.3491 282.828 57.7041 284.862C53.501 287.211 50.637 291.623 49.6356 297.289C47.268 310.718 59.2255 342.28 72.695 351.775C73.8188 352.57 74.9085 353.174 75.9304 353.58C78.3798 354.553 80.5278 354.413 82.3135 353.159C85.438 350.96 86.7679 345.834 87.1535 342.133C107.81 386.674 166.33 399.675 166.33 399.675L166.541 399.758C174.215 402.809 183.25 405.57 198.42 405.86C213.593 406.145 222.102 403.245 222.102 403.245L222.103 403.227Z" fill="#FFE14D"/>
<path d="M297.824 271.609C298.066 265.246 297.905 258.99 297.118 252.974C294.668 234.201 288.662 222.396 286.191 218.193C287.869 223.454 289.437 229.884 290.425 237.45C291.212 243.465 291.375 249.715 291.131 256.084C290.297 277.901 284.247 312.564 271.957 337.238C252.065 377.184 230.027 389.706 215.014 393.163C215.014 393.163 206.503 396.069 191.332 395.778C176.16 395.493 159.247 389.595 159.247 389.595C159.247 389.595 98.2989 371.962 77.6399 327.427C77.2564 331.123 75.9244 336.254 72.7998 338.452C71.0195 339.709 68.8714 339.849 66.4168 338.874C65.3949 338.467 64.3073 337.858 63.1814 337.069C58.4681 333.75 53.9457 327.725 50.1538 320.722C54.4004 333.518 61.8692 346.954 69.8748 352.594C70.9986 353.388 72.0883 353.992 73.1102 354.399C75.5596 355.372 77.7076 355.232 79.4932 353.977C82.6178 351.779 83.9477 346.653 84.3333 342.952C104.99 387.492 163.51 400.493 163.51 400.493L163.721 400.577C171.395 403.628 180.429 406.389 195.6 406.679C210.773 406.964 219.282 404.064 219.282 404.064C234.297 400.602 256.333 388.085 276.23 348.141C288.52 323.467 296.996 293.428 297.829 271.611L297.824 271.609Z" fill="#EA911B"/>
<path d="M298.055 295.46C298.017 287.069 297.104 278.624 294.869 270.636C229.845 259.112 179.905 254.206 179.905 254.206C161.932 246.373 139.939 236.405 139.939 236.405C139.596 237.269 136.193 241.656 131.667 247.287C131.187 247.974 130.689 248.673 130.184 249.393C122.565 260.12 114.663 270.27 112.049 273.592C111.51 273.476 110.944 273.366 110.355 273.267C107.914 276.2 106.364 278.06 106.364 278.06C106.118 287.716 113.909 298.669 154.217 321.67C201.434 346.226 247.635 358.93 273.172 361.175C275.191 357.708 277.204 353.994 279.186 350.006C287.7 332.913 294.402 313.258 298.048 295.463L298.055 295.46Z" fill="#EA911B"/>
<path d="M281.729 214.303C281.729 214.303 290.567 246.546 245.515 245.193L299.943 252.145C299.943 252.145 301.33 234.538 281.723 214.301L281.729 214.303Z" fill="#EA911B"/>
<path d="M146.395 397.96C142.197 396.292 137.52 394.231 132.619 391.722C117.912 384.187 98.6774 371.149 87.1558 350.814C86.2863 353.201 84.9221 355.605 82.7812 357.108C81.0965 358.293 78.2526 359.371 74.2599 357.784C73.0747 357.312 71.8248 356.62 70.5576 355.726C56.2542 345.643 44.0498 313.307 46.5734 298.993C47.689 292.642 50.955 287.663 55.7679 284.977C60.0152 282.609 65.1217 282.315 69.794 284.172C72.2381 285.143 74.5087 286.674 76.513 288.691C76.7482 287.424 76.8666 287.203 76.9663 287.029C85.3126 272.169 103.449 271.888 113.105 274.006C115.719 270.683 123.619 260.538 131.239 249.806C148.683 225.241 148.369 220.553 148.24 220.033C148.231 220.011 148.219 219.994 148.21 219.972C148.122 219.839 147.898 219.543 147.712 219.304C145.016 215.775 136.819 205.032 153.926 190.428C167.582 178.77 186.353 175.648 199.698 175.085C216.399 174.379 234.338 177.295 248.902 183.084C250.019 183.528 251.151 183.996 252.258 184.479C265.862 190.368 277.023 199.288 285.43 210.992C285.438 211.002 285.45 211.018 285.459 211.028C286.115 211.954 286.787 212.965 287.577 214.2C288.008 214.865 288.465 215.602 289.005 216.5C289.784 217.639 298.309 230.568 301.359 253.953C302.114 259.742 302.351 265.961 302.085 272.967C301.238 295.078 292.667 325.481 280.246 350.421C259.996 391.085 237.352 403.921 221.885 407.52C220.744 407.89 212.158 410.492 197.547 410.222C181.926 409.93 172.613 407.04 164.875 403.964L164.828 403.945C163.538 403.646 156.292 401.894 146.405 397.964L146.395 397.96ZM87.158 342.122C87.6848 342.332 88.1288 342.734 88.3763 343.278C98.7602 365.662 119.235 379.754 134.584 387.636C151.357 396.248 165.845 399.531 165.99 399.564C166.107 399.592 166.237 399.65 166.338 399.672L166.548 399.755C173.886 402.672 182.733 405.414 197.627 405.692C212.145 405.967 220.459 403.22 220.538 403.191C220.609 403.164 220.684 403.145 220.759 403.126C235.275 399.783 256.676 387.575 276.183 348.397C288.338 323.987 296.725 294.309 297.549 272.793C297.809 266.046 297.583 260.077 296.861 254.544C293.871 231.634 285.591 219.535 285.237 219.028C285.214 218.994 285.19 218.961 285.173 218.929C284.621 218.015 284.178 217.302 283.754 216.651C282.996 215.459 282.36 214.511 281.749 213.64C281.738 213.636 281.737 213.623 281.728 213.614C273.805 202.596 263.286 194.193 250.459 188.637C249.391 188.177 248.307 187.727 247.227 187.298C219.505 176.279 178.126 175.721 156.869 193.873C143.029 205.689 148.837 213.298 151.321 216.548C151.814 217.195 152.155 217.642 152.363 218.146C153.203 219.931 153.293 223.066 148.12 232.227C145.224 237.365 140.924 243.963 135.344 251.847C125.885 265.209 115.852 277.836 115.753 277.962C115.191 278.672 114.265 278.975 113.388 278.742C104.172 276.268 88.0314 276.977 81.0619 288.986C80.9214 289.723 80.5882 291.866 80.4193 293.104L80.3923 293.264C80.3322 293.692 80.2856 294.07 80.2391 294.448C80.1243 295.396 79.4249 296.174 78.4865 296.386C77.5533 296.601 76.5851 296.198 76.0739 295.397C73.9288 292.031 71.1721 289.606 68.1117 288.389C64.7141 287.039 61.0221 287.242 57.9743 288.941C54.3777 290.945 51.9136 294.797 51.0349 299.785C48.8181 312.359 60.5128 343.109 73.1695 352.025C74.1468 352.712 75.0794 353.236 75.9328 353.575C78.2241 354.486 79.445 353.916 80.1722 353.406C82.4928 351.772 83.7003 347.476 84.0643 343.998C84.1684 342.984 84.9403 342.162 85.9462 341.995C86.365 341.923 86.784 341.974 87.158 342.122ZM148.253 220.062C148.253 220.062 148.253 220.062 148.258 220.064C148.258 220.064 148.258 220.064 148.253 220.062ZM148.15 219.814C148.15 219.814 148.174 219.878 148.189 219.915C148.179 219.88 148.161 219.849 148.15 219.814Z" fill="#3A1919"/>
<path d="M300.065 260.63C235.042 249.106 185.102 244.2 185.102 244.2C167.128 236.367 145.136 226.399 145.136 226.399C144.037 229.164 110.934 269.629 110.934 269.629C110.689 279.285 119.108 288.658 159.416 311.658C214.772 340.445 268.733 352.945 289.64 351.404C289.64 351.404 311.184 300.41 300.065 260.63Z" fill="#A31E36"/>
<path d="M198.259 331.917C185.438 326.821 172.016 320.766 158.367 313.669C158.341 313.659 158.316 313.643 158.287 313.625C138.151 302.133 125.864 294.022 118.446 287.316C111.435 280.985 108.513 275.676 108.665 269.569C108.675 269.067 108.857 268.578 109.176 268.193C121.577 253.029 141.705 228.079 143.047 225.502C143.283 224.955 143.726 224.515 144.284 224.292C144.857 224.062 145.51 224.078 146.068 224.33C146.285 224.428 167.984 234.261 185.68 241.978C190.318 242.449 238.952 247.495 300.459 258.396C301.32 258.549 302.015 259.179 302.249 260.016C308.124 281.022 304.939 305.01 301.237 321.428C297.239 339.145 291.952 351.756 291.73 352.284C291.4 353.068 290.657 353.602 289.81 353.661C274.665 354.779 239.663 348.368 198.266 331.914L198.259 331.917ZM160.5 309.668C216.09 338.572 267.721 350.03 288.072 349.225C291.228 341.178 307.259 297.471 298.246 262.615C234.746 251.417 185.368 246.508 184.875 246.459C184.639 246.438 184.407 246.376 184.19 246.278C169.333 239.799 151.532 231.778 145.953 229.255C140.615 236.808 120.588 261.395 113.196 270.431C113.461 278.527 121.665 287.504 160.495 309.666L160.5 309.668ZM143.044 225.525C143.044 225.525 143.033 225.551 143.029 225.562C143.033 225.551 143.04 225.535 143.044 225.525Z" fill="#3A1919"/>
<path fill-rule="evenodd" clip-rule="evenodd" d="M256.368 311.761C241.247 314.168 197.506 302.875 197.506 302.875L192.021 315.737C192.021 315.737 230.207 326.505 255.218 324.26C276.972 322.305 290.226 308.756 288.501 303.721C287.16 299.79 269.887 309.607 256.363 311.759L256.368 311.761Z" fill="#791628"/>
<path d="M143.778 219.595L141.272 229.798C141.141 230.313 141.387 230.844 141.858 231.086L175.669 247.612C175.669 247.612 175.725 247.518 175.819 247.342C178.814 241.804 176.613 234.879 171.009 232.005L145.398 218.866C144.749 218.535 143.96 218.892 143.784 219.597L143.778 219.595Z" fill="#2E3499"/>
<path d="M174.827 249.717C174.774 249.696 174.721 249.675 174.671 249.649L140.859 233.123C139.404 232.38 138.681 230.793 139.072 229.241L141.577 219.056C141.577 219.056 141.581 219.045 141.584 219.04C141.838 218.031 142.533 217.203 143.479 216.774C144.424 216.344 145.51 216.373 146.431 216.849L172.043 229.988C175.321 231.669 177.726 234.534 178.818 238.049C179.897 241.534 179.543 245.217 177.814 248.416C177.692 248.648 177.611 248.774 177.611 248.774C177.031 249.727 175.851 250.118 174.829 249.712L174.827 249.717ZM143.688 229.459L174.531 244.537C175.02 242.877 175.008 241.097 174.481 239.399C173.754 237.055 172.151 235.149 169.967 234.03L145.632 221.546L143.686 229.464L143.688 229.459Z" fill="#3A1919"/>
<path d="M303.583 252.195L303.056 262.069C302.882 262.567 302.39 262.884 301.864 262.827L175.669 247.612C175.669 247.612 179.507 235.84 188.878 236.295L302.633 250.702C303.36 250.777 303.824 251.511 303.588 252.198L303.583 252.195Z" fill="#2E3499"/>
<path d="M262.192 245.576C262.192 245.576 264.235 249.95 259.496 256.472L303.053 262.062L303.58 252.188L262.194 245.571L262.192 245.576Z" fill="#1E2672"/>
<path d="M174.826 249.716C174.389 249.543 174.012 249.234 173.751 248.831C173.386 248.26 173.295 247.553 173.508 246.911C173.688 246.366 178.007 233.505 188.979 234.03C189.038 234.035 189.097 234.04 189.156 234.045L302.911 248.451C303.902 248.552 304.816 249.123 305.377 249.998C305.865 250.766 306.027 251.678 305.834 252.547L305.32 262.188C305.31 262.397 305.269 262.607 305.197 262.804C304.677 264.311 303.206 265.251 301.621 265.079L175.391 249.862C175.193 249.838 175.005 249.788 174.826 249.716ZM188.682 238.553C183.689 238.362 180.524 242.764 178.97 245.721L300.874 260.421L301.282 252.811L188.682 238.553ZM302.391 252.953L302.344 252.947C302.344 252.947 302.373 252.952 302.391 252.953Z" fill="#3A1919"/>
<path d="M150.755 306.532L150.713 306.515C149.72 306.096 149.256 304.948 149.674 303.956L173.863 246.845C174.278 245.863 175.401 245.401 176.381 245.79L176.423 245.807C177.415 246.226 177.88 247.374 177.461 248.367L153.272 305.477C152.858 306.459 151.734 306.921 150.755 306.532Z" fill="#3A1919"/>
<path d="M162.578 271.492C158.707 269.953 155.187 268.188 152.08 266.215C151.208 265.661 150.949 264.503 151.499 263.624C152.053 262.752 153.212 262.493 154.091 263.044C159.864 266.705 170.288 271.538 187.194 273.786C188.22 273.92 188.942 274.865 188.804 275.89C188.67 276.916 187.724 277.639 186.7 277.5C177.736 276.31 169.583 274.264 162.582 271.482L162.578 271.492Z" fill="#FFEC64"/>
<path d="M147.971 267.607C150.528 268.624 153.425 267.375 154.441 264.818C155.458 262.261 154.209 259.364 151.652 258.347C149.094 257.331 146.198 258.58 145.181 261.137C144.165 263.694 145.414 266.591 147.971 267.607Z" fill="#FFEC64"/>
<path d="M147.447 268.924C144.324 267.683 142.672 264.196 143.742 260.967C144.282 259.346 145.416 258.028 146.946 257.264C148.476 256.499 150.21 256.371 151.831 256.912C153.447 257.451 154.771 258.587 155.535 260.117C156.302 261.641 156.427 263.381 155.887 265.002C155.346 266.623 154.212 267.941 152.682 268.706C151.158 269.472 149.418 269.598 147.797 269.057C147.679 269.016 147.561 268.976 147.445 268.93L147.447 268.924ZM151.136 259.673C151.073 259.648 151.005 259.621 150.939 259.601C150.034 259.302 149.073 259.372 148.219 259.801C147.367 260.225 146.733 260.961 146.436 261.861C145.817 263.726 146.838 265.76 148.696 266.365C149.602 266.664 150.563 266.594 151.417 266.165C152.268 265.741 152.903 265.005 153.2 264.105C153.499 263.199 153.429 262.238 153 261.384C152.605 260.599 151.948 259.996 151.136 259.673Z" fill="#C6B44B"/>
<path d="M188.575 281.3C191.132 282.317 194.029 281.068 195.045 278.511C196.062 275.954 194.813 273.057 192.256 272.04C189.698 271.024 186.802 272.273 185.785 274.83C184.769 277.387 186.018 280.284 188.575 281.3Z" fill="#FFEC64"/>
<path d="M188.04 282.613C186.581 282.034 185.4 280.954 184.694 279.539C183.927 278.014 183.802 276.275 184.342 274.653C184.883 273.032 186.017 271.714 187.547 270.95C189.071 270.183 190.811 270.057 192.432 270.598C194.061 271.136 195.371 272.273 196.136 273.803C196.902 275.327 197.028 277.067 196.487 278.688C195.947 280.309 194.813 281.627 193.283 282.392C191.758 283.158 190.019 283.284 188.398 282.743C188.28 282.702 188.156 282.66 188.04 282.613ZM191.732 273.357C191.669 273.332 191.6 273.305 191.535 273.285C190.629 272.986 189.668 273.056 188.816 273.48C187.965 273.903 187.331 274.64 187.031 275.545C186.732 276.451 186.802 277.412 187.231 278.266C187.655 279.118 188.386 279.75 189.292 280.049C190.198 280.348 191.158 280.278 192.012 279.849C192.864 279.425 193.498 278.689 193.795 277.789C194.094 276.883 194.025 275.922 193.595 275.068C193.2 274.283 192.543 273.68 191.732 273.357Z" fill="#C6B44B"/>
<path d="M166.613 252.686C163.6 251.489 160.817 250.144 158.285 248.656C157.39 248.129 157.096 246.982 157.623 246.087C158.147 245.197 159.297 244.898 160.192 245.425C166.069 248.883 176.647 253.362 193.641 255.036C194.669 255.134 195.425 256.056 195.32 257.088C195.215 258.12 194.299 258.872 193.268 258.767C183.253 257.781 174.209 255.705 166.613 252.686Z" fill="#FFEC64"/>
<path d="M154.074 250.148C156.631 251.164 159.528 249.915 160.544 247.358C161.561 244.801 160.312 241.904 157.755 240.888C155.197 239.871 152.301 241.12 151.284 243.677C150.268 246.235 151.517 249.132 154.074 250.148Z" fill="#FFEC64"/>
<path d="M153.54 251.461C152.15 250.908 151.005 249.892 150.283 248.562C149.472 247.056 149.294 245.326 149.78 243.689C150.265 242.053 151.364 240.702 152.869 239.891C154.375 239.081 156.105 238.902 157.741 239.388C159.384 239.876 160.729 240.972 161.54 242.478C162.35 243.983 162.529 245.713 162.043 247.35C161.034 250.731 157.462 252.66 154.081 251.651C153.895 251.596 153.714 251.53 153.54 251.461ZM157.237 242.207C157.137 242.167 157.037 242.127 156.936 242.106C156.025 241.835 155.059 241.933 154.22 242.386C153.381 242.84 152.771 243.591 152.5 244.502C152.23 245.414 152.327 246.38 152.781 247.219C153.234 248.058 153.986 248.667 154.897 248.938C156.779 249.497 158.766 248.427 159.333 246.541C159.603 245.63 159.505 244.664 159.052 243.825C158.653 243.081 158.017 242.517 157.237 242.207Z" fill="#C6B44B"/>
<path d="M195.128 262.404C197.685 263.421 200.582 262.172 201.598 259.615C202.614 257.058 201.366 254.161 198.808 253.144C196.251 252.128 193.354 253.377 192.338 255.934C191.321 258.491 192.57 261.388 195.128 262.404Z" fill="#FFEC64"/>
<path d="M194.599 263.719C191.555 262.509 189.88 259.141 190.838 255.948C191.324 254.311 192.422 252.96 193.928 252.149C195.433 251.339 197.163 251.16 198.8 251.646C200.442 252.134 201.786 253.235 202.598 254.736C203.409 256.241 203.587 257.971 203.101 259.608C202.616 261.245 201.517 262.596 200.012 263.406C198.506 264.217 196.776 264.395 195.14 263.909C194.954 263.854 194.778 263.79 194.604 263.721L194.599 263.719ZM198.29 254.463C198.19 254.423 198.09 254.383 197.989 254.362C197.078 254.091 196.112 254.189 195.273 254.642C194.434 255.096 193.824 255.847 193.554 256.758C192.994 258.641 194.07 260.63 195.95 261.194C196.862 261.465 197.828 261.367 198.667 260.914C199.506 260.46 200.115 259.708 200.386 258.797C200.657 257.886 200.559 256.92 200.106 256.081C199.706 255.337 199.07 254.773 198.29 254.463Z" fill="#C6B44B"/>
<path d="M155.924 289.537C152.052 287.998 148.533 286.233 145.425 284.26C144.554 283.706 144.294 282.547 144.845 281.668C145.399 280.797 146.557 280.537 147.436 281.088C153.209 284.749 163.634 289.582 180.539 291.831C181.566 291.964 182.288 292.91 182.149 293.934C182.016 294.961 181.07 295.683 180.045 295.544C171.082 294.354 162.929 292.309 155.923 289.524L155.924 289.537Z" fill="#FFEC64"/>
<path d="M141.316 285.651C143.873 286.668 146.77 285.419 147.787 282.862C148.803 280.305 147.554 277.408 144.997 276.391C142.44 275.375 139.543 276.624 138.526 279.181C137.51 281.738 138.759 284.635 141.316 285.651Z" fill="#FFEC64"/>
<path d="M140.787 286.966C139.328 286.387 138.147 285.307 137.441 283.892C136.674 282.367 136.548 280.628 137.089 279.006C137.63 277.385 138.764 276.067 140.294 275.303C141.823 274.538 143.558 274.41 145.179 274.951C146.798 275.497 148.118 276.626 148.883 278.156C149.649 279.68 149.775 281.42 149.234 283.041C148.694 284.662 147.56 285.98 146.03 286.745C144.505 287.511 142.766 287.637 141.144 287.096C141.026 287.055 140.903 287.013 140.787 286.966ZM144.479 277.71C144.415 277.685 144.347 277.658 144.282 277.638C143.376 277.339 142.415 277.409 141.561 277.838C140.709 278.262 140.075 278.998 139.778 279.898C139.479 280.804 139.549 281.765 139.978 282.619C140.402 283.471 141.138 284.105 142.039 284.402C142.944 284.701 143.905 284.631 144.759 284.202C145.611 283.778 146.245 283.042 146.542 282.142C146.841 281.236 146.772 280.275 146.348 279.423C145.952 278.638 145.295 278.035 144.484 277.713L144.479 277.71Z" fill="#C6B44B"/>
<path d="M181.92 299.346C184.477 300.362 187.374 299.113 188.391 296.556C189.407 293.999 188.158 291.102 185.601 290.086C183.044 289.069 180.147 290.318 179.13 292.875C178.114 295.432 179.363 298.329 181.92 299.346Z" fill="#FFEC64"/>
<path d="M181.386 300.658C179.927 300.078 178.746 298.999 178.039 297.584C177.273 296.059 177.147 294.319 177.688 292.698C178.228 291.077 179.362 289.759 180.892 288.995C182.422 288.23 184.156 288.102 185.778 288.643C187.397 289.189 188.717 290.318 189.481 291.847C190.248 293.372 190.374 295.112 189.833 296.733C188.722 300.079 185.095 301.901 181.743 300.788C181.625 300.747 181.502 300.704 181.386 300.658ZM185.083 291.404C185.019 291.379 184.951 291.352 184.886 291.332C183.98 291.033 183.019 291.103 182.165 291.532C181.313 291.956 180.679 292.692 180.382 293.592C180.083 294.498 180.153 295.459 180.582 296.313C181.006 297.165 181.737 297.797 182.642 298.096C184.507 298.715 186.527 297.7 187.146 295.836C187.445 294.93 187.375 293.969 186.946 293.115C186.551 292.33 185.894 291.727 185.083 291.404Z" fill="#C6B44B"/>
<path d="M188.807 199.046C183.958 200.364 183.71 204.273 187.674 206.452C191.644 208.634 191.857 209.036 196.853 207.685C202.268 206.214 204.865 201.202 199.964 199.858C195.063 198.513 191.515 198.311 188.807 199.046Z" fill="#3A1919"/>
<path d="M170.455 199.608C173.047 200.638 175.984 199.372 177.014 196.78C178.044 194.188 176.778 191.251 174.186 190.221C171.594 189.191 168.657 190.457 167.627 193.049C166.597 195.641 167.863 198.577 170.455 199.608Z" fill="#3A1919"/>
<path d="M229.905 208.136C232.497 209.166 235.433 207.9 236.464 205.308C237.494 202.716 236.228 199.779 233.636 198.749C231.044 197.719 228.107 198.985 227.077 201.577C226.047 204.169 227.313 207.105 229.905 208.136Z" fill="#3A1919"/>
<path d="M151.96 221.706C150.796 221.244 150.228 219.926 150.691 218.762C151.153 217.598 152.471 217.03 153.635 217.492C158.787 219.54 177.332 219.781 186.14 212.522C186.62 212.127 187.236 211.945 187.852 212.019C188.469 212.094 189.024 212.418 189.4 212.915C193.313 218.155 198.415 221.97 204.994 224.585C211.573 227.2 218.882 228.269 225.951 228.871C225.974 228.874 225.999 228.872 226.028 228.877C227.101 228.968 228.174 229.047 229.236 229.122C229.252 229.128 229.267 229.122 229.283 229.128C230.534 229.217 231.477 230.299 231.39 231.545C231.303 232.792 230.219 233.739 228.973 233.653C220.524 233.07 211.566 232.083 203.327 228.808C196.701 226.174 191.394 222.43 187.171 217.403C176.363 224.55 157.831 224.046 151.969 221.716L151.96 221.706Z" fill="#3A1919"/>
<path d="M306.421 269.146L117.636 324.94L113.678 305.787L303.807 248.808L306.421 269.146Z" fill="#F4DA6E"/>
<path d="M304.479 264.672L116.77 320.167L113.991 310.37L304.248 254.021L304.479 264.672Z" fill="#8C3333"/>
<path d="M116.799 327.047C116.688 327.003 116.576 326.946 116.472 326.887C115.93 326.561 115.546 326.024 115.416 325.399L111.46 306.241C111.222 305.091 111.902 303.947 113.031 303.609L303.16 246.629C303.798 246.437 304.49 246.535 305.048 246.897C305.606 247.259 305.974 247.851 306.061 248.508L308.673 268.852C308.814 269.957 308.137 270.999 307.067 271.312L118.282 327.106C117.791 327.252 117.272 327.223 116.803 327.036L116.799 327.047ZM116.316 307.36L119.357 322.068L303.926 267.52L301.901 251.746L116.321 307.362L116.316 307.36Z" fill="#3A1919"/>
<path d="M242.532 307.775L244.799 302.332C243.481 304.053 240.406 304.959 235.927 305.118L93.3175 247.781C90.2012 244.572 88.612 241.787 88.8579 239.634L86.712 245.125L86.6488 245.099L64.2165 300.675L64.0954 300.627L61.946 305.958L62.0724 306.008L58.0674 316.268C57.9865 325.526 89.103 345.348 130.151 361.853C171.199 378.358 207.391 385.595 213.769 378.865L218.005 368.697L218.132 368.747L220.281 363.416L220.16 363.368L242.594 307.787L242.531 307.762L242.532 307.775Z" fill="#CECECE"/>
<path d="M220.161 363.38L242.596 307.799L86.6593 245.103L64.2249 300.684L64.1038 300.636L61.9544 305.967L62.1967 306.063C62.1157 315.321 93.2302 335.149 134.28 351.648C175.328 368.153 211.52 375.39 217.898 368.66L218.14 368.756L220.29 363.425L220.169 363.377L220.161 363.38Z" fill="#2E3499"/>
<path d="M214.459 377.297L214.701 377.393L217.15 371.309L217.029 371.261L242.587 307.821L182.931 285.755L150.101 368.35C150.101 368.35 187.233 385.958 214.459 377.297Z" fill="#2D329B"/>
<path d="M218.188 368.269C212.631 375.527 175.974 368.325 134.306 351.568C92.6369 334.816 61.2133 314.646 62.2515 305.573L58.0706 316.276C57.9897 325.533 89.1062 345.356 130.154 361.861C171.202 378.366 207.394 385.603 213.772 378.872L218.195 368.266L218.188 368.269Z" fill="#CECECE"/>
<path d="M244.804 302.334C239.248 309.592 202.59 302.39 160.923 285.632C119.254 268.88 87.83 248.71 88.8682 239.638L84.6873 250.34C84.6064 259.598 115.723 279.42 156.771 295.925C197.819 312.43 234.011 319.667 240.389 312.937L244.812 302.331L244.804 302.334Z" fill="#CECECE"/>
<path d="M214.459 377.297L214.701 377.393L217.15 371.309L217.029 371.261L242.587 307.821L182.931 285.755L150.101 368.35C150.101 368.35 187.233 385.958 214.459 377.297Z" fill="#1E2672"/>
<path d="M235.376 305.046C223.858 305.28 203.62 300.829 180.161 292.724L176.061 303.038C208.682 314.302 235.061 318.499 240.417 312.85L242.559 307.706L244.835 302.242C243.462 304.039 240.171 304.951 235.371 305.044L235.376 305.046Z" fill="#A3A3A3"/>
<path d="M209.087 371.185C197.569 371.419 177.33 366.967 153.871 358.863L149.772 369.177C182.393 380.441 208.771 384.637 214.127 378.989L216.27 373.845L218.545 368.381C217.172 370.178 213.882 371.09 209.081 371.182L209.087 371.185Z" fill="#A3A3A3"/>
<path d="M244.804 302.334C239.248 309.592 202.59 302.39 160.923 285.632C119.254 268.88 87.83 248.71 88.8682 239.638L84.6873 250.34C84.6064 259.598 115.723 279.42 156.771 295.925C197.819 312.43 234.011 319.667 240.389 312.937L244.812 302.331L244.804 302.334Z" fill="#CECECE"/>
<path d="M108.296 260.078C105.806 259.039 103.607 257.635 101.769 255.983L72.3492 329.997C74.1695 331.617 76.3461 333 78.7998 334.024C79.0948 334.142 79.3898 334.259 79.6795 334.374L109.086 260.392C108.823 260.287 108.557 260.188 108.296 260.078Z" fill="#8D93FF"/>
<path d="M78.802 334.019C79.097 334.136 79.3919 334.253 79.6817 334.369L82.9563 326.13C80.3528 324.485 77.961 322.876 75.7998 321.315L72.3493 329.996C74.1696 331.616 76.3462 333 78.7999 334.024L78.802 334.019Z" fill="white"/>
<path d="M108.319 260.02C105.826 258.987 103.621 257.598 101.769 255.983L97.9914 265.485C100.151 267.051 102.54 268.666 105.14 270.321L109.107 260.339C108.844 260.235 108.578 260.135 108.317 260.025L108.319 260.02Z" fill="white"/>
<path d="M160.921 285.637C202.591 302.39 239.248 309.592 244.803 302.339L245.502 300.61C246.54 291.538 215.111 271.366 173.447 254.616C131.778 237.864 95.1202 230.661 89.5656 237.914L88.8662 239.643C87.8281 248.715 119.257 268.887 160.921 285.637Z" fill="#EADFB0"/>
<path d="M161.658 288.371C161.132 288.161 160.605 287.952 160.073 287.74C139.846 279.609 121.231 270.35 107.656 261.672C93.0661 252.341 85.9859 244.848 86.6077 239.386L86.6428 239.083L87.5704 236.78L87.7583 236.537C91.0971 232.173 101.406 231.666 118.395 235.039C134.208 238.177 154.04 244.389 174.282 252.514C194.51 260.646 213.124 269.905 226.699 278.583C241.289 287.914 248.369 295.406 247.742 300.867L247.707 301.17L246.779 303.473L246.592 303.715C243.253 308.079 232.944 308.587 215.953 305.218C200.551 302.165 181.323 296.199 161.649 288.379L161.658 288.371ZM91.105 240.149C91.1227 246.365 115.846 265.068 161.771 283.53C162.319 283.747 162.872 283.967 163.415 284.183C208.431 302.076 238.557 305.56 242.838 301.143L243.256 300.09C243.244 293.875 218.52 275.173 172.596 256.711C126.675 238.27 95.858 234.621 91.5237 239.095L91.1029 240.154L91.105 240.149Z" fill="#3A1919"/>
<path d="M126.65 254.399L127.13 253.193C130.33 249.024 148.307 251.723 170.81 259.362C166.897 257.575 162.776 255.803 158.505 254.087C129.522 242.432 104.015 237.424 100.15 242.469L99.6702 243.675C98.9429 249.986 120.802 264.018 149.792 275.669C154.82 277.692 159.749 279.517 164.473 281.12C141.838 270.775 126.037 259.779 126.65 254.399Z" fill="#FFF3E6"/>
<path d="M130.884 364.596C130.357 364.387 129.831 364.178 129.304 363.968C109.398 355.964 90.9883 346.835 77.4713 338.272C63.0446 329.128 55.753 321.722 55.8002 316.263C55.8016 315.983 55.8589 315.701 55.9636 315.438L84.5502 244.271C84.6172 244.102 84.7032 243.948 84.8029 243.804L86.7457 238.824L87.4555 237.069C87.5309 236.88 87.6326 236.7 87.7586 236.537C91.0974 232.173 101.406 231.665 118.395 235.039C134.209 238.177 154.04 244.389 174.282 252.514C194.51 260.645 213.124 269.905 226.699 278.582C241.289 287.913 248.37 295.406 247.742 300.866C247.717 301.07 247.668 301.27 247.592 301.459L246.893 303.188L244.824 308.148C244.798 308.321 244.749 308.49 244.682 308.659L215.858 379.731C215.753 379.995 215.598 380.232 215.399 380.44C211.64 384.405 201.246 384.696 184.5 381.309C169.223 378.219 150.233 372.299 130.869 364.603L130.884 364.596ZM60.3629 316.662C61.2036 323.279 85.6707 341.537 131 359.763C176.317 377.989 206.648 381.755 211.857 377.567L240.29 307.462C240.317 307.272 240.365 307.089 240.441 306.912L243.263 300.104C243.245 293.888 218.522 275.185 172.597 256.724C126.677 238.282 95.8594 234.633 91.5251 239.108L90.9702 240.504L88.8274 245.971C88.7562 246.15 88.664 246.321 88.5548 246.473L60.3588 316.672L60.3629 316.662Z" fill="#3A1919"/>
<path d="M63.2878 324.236L63.2772 324.231C62.1152 323.763 61.5545 322.443 62.0224 321.281L91.6379 247.924C92.1038 246.768 93.4194 246.205 94.5783 246.665L94.5888 246.67C95.7508 247.138 96.3116 248.458 95.8436 249.62L66.2281 322.977C65.7622 324.133 64.4466 324.696 63.2878 324.236Z" fill="#3A1919"/>
<path d="M95.3785 345.567L95.3679 345.563C94.2059 345.095 93.6451 343.774 94.1131 342.612L123.711 269.286C124.177 268.129 125.492 267.566 126.651 268.027L126.662 268.031C127.824 268.499 128.384 269.82 127.916 270.982L98.3188 344.308C97.8529 345.465 96.5373 346.028 95.3785 345.567Z" fill="#3A1919"/>
<path d="M129.952 362.262L129.941 362.258C128.779 361.79 128.218 360.469 128.686 359.307L158.264 286.015C158.73 284.859 160.046 284.296 161.204 284.756L161.215 284.761C162.377 285.229 162.938 286.549 162.47 287.711L132.892 361.003C132.426 362.16 131.111 362.723 129.952 362.262Z" fill="#3A1919"/>
<path d="M166.491 374.12L166.481 374.116C165.319 373.648 164.758 372.327 165.226 371.165L194.789 297.91C195.255 296.754 196.57 296.191 197.729 296.651L197.74 296.656C198.902 297.124 199.463 298.445 198.995 299.607L169.432 372.862C168.966 374.018 167.65 374.581 166.491 374.12Z" fill="#3A1919"/>
<path d="M204.501 380.927L204.49 380.923C203.328 380.455 202.768 379.134 203.236 377.972L232.789 304.756C233.255 303.599 234.571 303.036 235.73 303.497L235.74 303.501C236.902 303.969 237.463 305.29 236.995 306.452L207.441 379.668C206.975 380.825 205.66 381.388 204.501 380.927Z" fill="#3A1919"/>
<path d="M73.5664 302.904C72.7093 302.252 71.8594 301.597 71.0117 300.937C69.932 300.093 69.4631 298.388 69.9604 297.152C73.7923 287.665 77.6168 278.181 81.4487 268.694C81.946 267.459 83.2348 267.147 84.3113 267.984C85.159 268.644 86.0088 269.299 86.866 269.951C87.952 270.779 88.444 272.457 87.9467 273.693C84.1148 283.18 80.2903 292.663 76.4584 302.15C75.9611 303.386 74.6545 303.727 73.5664 302.904Z" fill="#E9E9E9"/>
<path d="M73.2748 305.325C72.9008 305.177 72.5372 304.971 72.1945 304.713C71.3321 304.059 70.4738 303.395 69.6209 302.732C67.7346 301.263 66.9771 298.503 67.8607 296.311L79.3511 267.848C79.8505 266.607 80.8369 265.706 82.0457 265.381C83.2817 265.049 84.615 265.347 85.7104 266.198C86.5529 266.856 87.3995 267.503 88.2462 268.151C90.1566 269.606 90.9362 272.356 90.0547 274.543L78.5663 303C78.067 304.241 77.0805 305.142 75.8676 305.478C75.0176 305.713 74.1144 305.653 73.2821 305.322L73.2748 305.325ZM83.3295 270.101L72.0589 298.01C71.9501 298.284 72.1041 298.925 72.4014 299.159C73.1152 299.711 73.8343 300.265 74.5555 300.814L85.8396 272.855C85.9443 272.592 85.7914 271.994 85.492 271.765C84.7656 271.214 84.0465 270.66 83.3243 270.099L83.3295 270.101Z" fill="#3A1919"/>
<path d="M105.766 324.053C104.833 323.529 103.91 322.998 102.981 322.464C101.806 321.783 101.255 320.21 101.752 318.974C105.582 309.493 109.406 300.009 113.236 290.527C113.733 289.292 115.1 288.846 116.28 289.529C117.203 290.061 118.132 290.595 119.064 291.118C120.251 291.785 120.813 293.332 120.316 294.568C116.491 304.051 112.664 313.528 108.834 323.009C108.337 324.245 106.952 324.72 105.766 324.053Z" fill="#E9E9E9"/>
<path d="M105.215 326.298C105.02 326.221 104.837 326.13 104.652 326.026C103.714 325.501 102.781 324.965 101.847 324.429C99.6895 323.181 98.7225 320.412 99.6512 318.121L111.133 289.68C111.61 288.496 112.559 287.581 113.733 287.175C114.927 286.765 116.267 286.907 117.409 287.563C118.327 288.092 119.251 288.624 120.173 289.143C122.356 290.371 123.342 293.123 122.414 295.414L110.932 323.856C110.453 325.044 109.496 325.963 108.32 326.374C107.32 326.726 106.218 326.691 105.217 326.293L105.215 326.298ZM115.258 291.563L103.849 319.821C103.778 320 103.902 320.378 104.109 320.503C104.992 321.013 105.883 321.519 106.773 322.026L118.195 293.719C118.26 293.556 118.142 293.209 117.936 293.097C117.038 292.594 116.145 292.08 115.251 291.566L115.258 291.563Z" fill="#3A1919"/>
<path d="M140.42 340.56C139.43 340.166 138.439 339.773 137.453 339.369C136.199 338.858 135.577 337.415 136.079 336.181C139.902 326.703 143.729 317.226 147.552 307.748C148.049 306.512 149.48 305.934 150.74 306.447C151.726 306.852 152.715 307.251 153.712 307.641C154.976 308.144 155.601 309.551 155.105 310.781C151.283 320.259 147.455 329.736 143.635 339.209C143.138 340.445 141.694 341.054 140.427 340.557L140.42 340.56Z" fill="#E9E9E9"/>
<path d="M139.008 342.439C138.202 342.119 137.397 341.798 136.595 341.467C134.18 340.483 133.006 337.729 133.976 335.333L145.449 306.9C145.913 305.749 146.808 304.848 147.957 304.365C149.109 303.878 150.387 303.867 151.552 304.33L151.599 304.349C152.574 304.749 153.557 305.146 154.545 305.532L154.55 305.534C155.735 306.005 156.664 306.905 157.164 308.074C157.653 309.22 157.67 310.483 157.206 311.634L145.733 340.068C144.77 342.46 142.011 343.632 139.591 342.677C139.396 342.599 139.201 342.522 139.006 342.444L139.008 342.439ZM149.877 308.544C149.808 308.517 149.75 308.524 149.713 308.54C149.669 308.559 149.659 308.586 149.655 308.596L138.184 337.024C138.159 337.087 138.198 337.219 138.314 337.265C139.295 337.667 140.278 338.064 141.26 338.448C141.376 338.494 141.5 338.427 141.532 338.361L153.003 309.933C153.003 309.933 153.015 309.901 152.996 309.857C152.98 309.82 152.949 309.777 152.875 309.748C151.879 309.352 150.878 308.955 149.882 308.546L149.877 308.544Z" fill="#3A1919"/>
<path d="M177.032 352.221C175.992 351.967 174.955 351.707 173.92 351.442C172.603 351.102 171.935 349.805 172.432 348.569C176.253 339.096 180.078 329.625 183.899 320.152C184.396 318.916 185.878 318.194 187.2 318.537C188.236 318.802 189.273 319.061 190.31 319.321C191.633 319.646 192.308 320.908 191.811 322.144C187.985 331.615 184.165 341.089 180.339 350.56C179.842 351.795 178.349 352.544 177.024 352.225L177.032 352.221Z" fill="#E9E9E9"/>
<path d="M172.797 353.454C171.78 353.049 170.943 352.302 170.458 351.341C169.895 350.226 169.851 348.91 170.33 347.721L181.796 319.304C182.717 317.017 185.338 315.716 187.763 316.338C188.793 316.601 189.818 316.862 190.852 317.115C192.13 317.428 193.198 318.255 193.776 319.381C194.343 320.485 194.392 321.804 193.916 322.987L182.444 351.402C181.52 353.682 178.906 355.01 176.492 354.422C175.448 354.166 174.4 353.902 173.354 353.632C173.161 353.58 172.976 353.525 172.791 353.451L172.797 353.454ZM189.631 321.491C188.609 321.237 187.618 320.984 186.632 320.732C186.401 320.671 186.066 320.837 186.001 321L174.594 349.27C175.601 349.53 176.588 349.776 177.571 350.02C177.81 350.079 178.173 349.887 178.244 349.708L189.631 321.491Z" fill="#3A1919"/>
<path d="M215.084 358.831C214.011 358.722 212.942 358.602 211.868 358.481C210.504 358.322 209.8 357.177 210.298 355.941C214.121 346.475 217.94 337.007 221.765 327.536C222.262 326.3 223.784 325.435 225.143 325.591C226.209 325.716 227.285 325.833 228.356 325.947C229.722 326.087 230.43 327.205 229.935 328.435C226.112 337.901 222.293 347.369 218.47 356.835C217.975 358.065 216.449 358.972 215.079 358.829L215.084 358.831Z" fill="#E9E9E9"/>
<path d="M210.432 360.435C209.59 360.1 208.888 359.516 208.431 358.749C207.789 357.664 207.702 356.33 208.202 355.089L219.669 326.685C220.551 324.497 223.02 323.057 225.41 323.336C226.471 323.459 227.535 323.577 228.595 323.687C229.978 323.829 231.152 324.545 231.808 325.641C232.454 326.716 232.537 328.042 232.038 329.283L220.572 357.682C219.683 359.873 217.223 361.335 214.846 361.085C213.768 360.974 212.687 360.855 211.608 360.731C211.194 360.683 210.799 360.587 210.43 360.44L210.432 360.435ZM227.61 328.145C226.686 328.046 225.786 327.945 224.887 327.844C224.509 327.797 223.977 328.123 223.873 328.386L212.614 356.282C213.529 356.389 214.425 356.483 215.321 356.577C215.695 356.616 216.256 356.266 216.372 355.988L227.608 328.15L227.61 328.145Z" fill="#3A1919"/>
<path d="M184.413 249.957C183.789 246.912 180.815 244.948 177.769 245.572C174.724 246.196 172.76 249.17 173.384 252.215L186.476 316.149C187.1 319.194 190.074 321.157 193.12 320.534C196.165 319.91 198.128 316.936 197.505 313.89L184.413 249.957Z" fill="#D8A577"/>
<mask id="mask0_1394_2336" style="mask-type:luminance" maskUnits="userSpaceOnUse" x="169" y="233" width="29" height="88">
<path d="M184.948 241.901C183.781 236.197 179.429 232.277 175.233 233.135C171.035 233.997 168.574 239.314 169.743 245.013C170.308 247.781 171.633 250.125 173.321 251.711C173.34 251.877 173.361 252.038 173.399 252.205L186.494 316.139C187.112 319.172 190.104 321.142 193.138 320.524C196.171 319.906 198.141 316.913 197.523 313.88L184.428 249.947C184.396 249.782 184.349 249.623 184.303 249.464C185.231 247.344 185.526 244.668 184.956 241.898L184.948 241.901Z" fill="white"/>
</mask>
<g mask="url(#mask0_1394_2336)">
<path d="M185.002 242.147C186.164 247.818 183.61 252.677 179.412 253.54C175.214 254.403 170.957 250.935 169.795 245.265C168.633 239.594 171.096 234.302 175.297 233.447C179.495 232.584 183.844 236.484 185 242.153L185.002 242.147Z" fill="#9E673E"/>
</g>
<path d="M184.948 241.901C186.115 247.604 182.918 249.31 178.72 250.173C174.522 251.036 170.908 250.722 169.741 245.018C168.574 239.314 171.03 233.996 175.231 233.14C179.429 232.277 183.779 236.203 184.946 241.906L184.948 241.901Z" fill="#D8A577"/>
<path d="M189.111 322.351C188.605 322.15 188.121 321.897 187.657 321.59C185.893 320.426 184.691 318.649 184.265 316.589L171.2 252.795C169.397 250.871 168.101 248.3 167.52 245.464C166.104 238.546 169.357 232.019 174.775 230.909C180.194 229.8 185.752 234.522 187.168 241.441C187.751 244.271 187.567 247.144 186.667 249.623L199.738 313.418C200.611 317.681 197.85 321.866 193.587 322.74C192.066 323.05 190.523 322.913 189.111 322.351ZM177.913 235.584C177.181 235.293 176.425 235.2 175.687 235.352C172.772 235.95 171.066 240.164 171.961 244.558C172.412 246.769 173.447 248.723 174.868 250.057C175.259 250.425 175.507 250.921 175.57 251.452C175.581 251.548 175.592 251.644 175.613 251.744L188.708 315.677C188.885 316.552 189.402 317.307 190.152 317.8C190.906 318.295 191.799 318.473 192.675 318.297C194.488 317.925 195.666 316.143 195.295 314.33L182.199 250.397C182.178 250.297 182.15 250.2 182.121 250.103C181.97 249.592 182.002 249.037 182.214 248.548C182.998 246.761 183.178 244.558 182.727 242.347C182.055 239.067 180.085 236.442 177.91 235.577L177.913 235.584Z" fill="#3A1919"/>
<path d="M228.375 310.473C220.885 310.533 194.972 306.455 185.546 299.079C178.241 293.363 176.897 286.217 177.558 283.204C178.51 278.861 182.994 275.313 188.988 274.169C189.528 274.067 190.114 273.989 190.739 273.938C194.726 273.62 199.996 274.403 205.57 275.234C212.376 276.25 219.77 277.139 226.801 277.879C234.108 278.648 257.792 278.253 261.292 294.644C266.217 317.719 241.54 310.362 228.377 310.468L228.375 310.473Z" fill="#FFE14D"/>
<path d="M230.802 304.368C223.312 304.428 197.399 300.35 187.973 292.974C182.366 288.586 180.072 283.892 179.697 280.34C178.174 281.778 177.966 281.365 177.556 283.209C176.895 286.222 178.234 293.366 185.544 299.084C194.975 306.462 220.883 310.538 228.373 310.478C240.264 310.38 261.555 316.372 261.919 300.511C255.54 306.308 240.029 304.296 230.8 304.373L230.802 304.368Z" fill="#EA911B"/>
<path d="M192.742 305.483C189.339 304.131 186.352 302.59 184.147 300.865C176.139 294.602 174.496 286.58 175.341 282.72C176.487 277.49 181.674 273.263 188.561 271.944C189.194 271.824 189.863 271.736 190.556 271.682C194.803 271.339 200.192 272.145 205.898 272.998C212.031 273.911 219.139 274.797 227.029 275.633C227.815 275.713 228.823 275.785 229.985 275.869C239.742 276.551 260.034 277.968 263.497 294.178C264.917 300.825 264.17 305.682 261.227 309.02C256.071 314.87 245.71 313.99 236.568 313.217C233.583 312.964 230.761 312.727 228.387 312.747C222.597 312.794 204.984 310.362 192.737 305.494L192.742 305.483ZM248.287 283.705C242.129 281.257 234.73 280.737 229.677 280.388C228.467 280.303 227.422 280.23 226.562 280.138C218.606 279.3 211.434 278.407 205.238 277.481C199.796 276.672 194.654 275.903 190.925 276.202C190.389 276.245 189.881 276.312 189.412 276.4C184.396 277.358 180.52 280.295 179.778 283.696C179.289 285.924 180.396 292.177 186.948 297.3C195.51 303.997 220.521 308.272 228.365 308.212C230.953 308.192 233.875 308.438 236.966 308.703C245.039 309.386 254.191 310.163 257.841 306.027C259.743 303.867 260.157 300.201 259.075 295.129C257.82 289.232 253.5 285.783 248.29 283.712L248.287 283.705Z" fill="#3A1919"/>
<path d="M274.91 271.418C274.91 271.418 263.546 274.38 249.509 275.351C238.772 276.091 227.643 274.272 227.643 274.272L223.487 309.835C223.487 309.835 258.897 320.128 285.159 310.438C290.442 308.488 296.323 305.201 296.863 297.321C297.884 282.399 274.917 271.415 274.917 271.415L274.91 271.418Z" fill="#A31E36"/>
<path d="M200.769 309.778C199.806 309.395 199.206 308.388 199.372 307.325L204.709 272.598C204.894 271.379 206.016 270.538 207.24 270.695C207.647 270.747 247.808 275.81 270.601 268.968C271.8 268.609 273.066 269.289 273.426 270.487C273.785 271.685 273.105 272.952 271.907 273.311C251.058 279.572 217.774 276.45 208.861 275.457L204.188 305.873C211.734 307.329 238.055 312.1 259.581 312.3C260.834 312.31 261.84 313.338 261.825 314.589C261.815 315.841 260.787 316.848 259.536 316.832C233.799 316.594 201.477 309.962 201.151 309.893C201.021 309.866 200.891 309.826 200.769 309.778Z" fill="#3A1919"/>
<path d="M233.955 273.605L199.309 269.849L194.776 311.663L229.422 315.419L233.955 273.605Z" fill="#A31E36"/>
<path d="M222.695 272.384L210.567 271.069L206.034 312.884L218.162 314.198L222.695 272.384Z" fill="#FFEC64"/>
<path d="M193.916 313.776C192.994 313.41 192.389 312.462 192.502 311.427L197.039 269.611C197.105 269.015 197.404 268.463 197.871 268.087C198.337 267.711 198.938 267.535 199.534 267.602L234.182 271.358C234.785 271.421 235.33 271.723 235.705 272.189C236.081 272.656 236.257 273.256 236.191 273.852L231.654 315.668C231.518 316.913 230.399 317.811 229.154 317.675L194.506 313.919C194.295 313.896 194.095 313.847 193.911 313.774L193.916 313.776ZM201.299 272.353L197.253 309.662L227.392 312.931L231.437 275.623L201.299 272.353Z" fill="#3A1919"/>
<path d="M241.499 367.397C231.962 346.228 197.934 336.985 176.743 359.591C164.563 372.585 160.77 382.081 160.77 382.081C160.77 382.081 194.315 400.246 218.596 388.756C242.208 377.585 241.505 367.399 241.505 367.399L241.499 367.397Z" fill="#FFE14D"/>
<path d="M177.096 361.28C176.811 361.167 176.545 360.994 176.319 360.764C175.441 359.872 175.451 358.437 176.343 357.559C187.269 346.812 201.836 342.207 216.313 344.918C229.256 347.343 239.89 355.241 244.755 366.05C245.27 367.194 244.762 368.535 243.618 369.051C242.473 369.566 241.132 369.057 240.617 367.913C236.361 358.456 226.96 351.523 215.475 349.373C202.474 346.939 189.371 351.099 179.517 360.791C178.855 361.443 177.894 361.604 177.089 361.284L177.096 361.28Z" fill="#3A1919"/>
<path d="M92.3114 339.254C92.1462 334.468 89.6756 300.401 83.5789 290.157C82.7643 288.785 81.8532 287.501 80.8696 286.323C77.9796 276.806 71.9874 269.63 65.5167 267.985C62.5573 267.236 58.1249 267.261 53.7767 271.632C52.7819 272.554 41.1771 283.734 39.4328 306C38.765 314.494 41.5834 317.224 44.3101 319.864C47.3975 322.854 50.9005 326.241 51.0593 341.218C51.0605 341.291 51.0649 341.372 51.0714 341.448C51.6113 346.244 54.7288 354.882 62.6301 358.022C64.026 358.577 65.5699 358.959 67.2702 359.116C74.2671 359.775 81.281 360.007 85.2044 357.272C91.1657 353.109 92.4599 343.669 92.3114 339.254Z" fill="#3A1919"/>
<path d="M80.9769 323.483C80.5788 320.94 77.8551 313.873 79.5385 306.247C84.4 284.195 67.4283 261.059 55.349 273.264C55.349 273.264 43.4275 284.043 41.6893 306.171C40.3762 322.917 53.0133 312.563 53.329 341.187C53.329 341.187 54.9329 356.073 67.4867 356.854C84.2072 357.895 84.1982 344.014 80.9769 323.483Z" fill="#938282"/>
<path d="M62.3819 358.033C54.6492 354.96 51.599 346.306 51.0779 341.432C51.0693 341.362 51.0628 341.286 51.0669 341.214C50.9028 326.235 47.4051 322.85 44.3177 319.86C41.591 317.221 38.7725 314.49 39.4404 305.997C41.1847 283.731 52.7915 272.546 53.7863 271.624C58.0999 267.294 63.5494 266.428 68.7375 269.259C77.9143 274.254 85.3334 290.501 81.7604 306.733C80.544 312.264 81.8945 317.614 82.6993 320.806C82.9382 321.755 83.1293 322.502 83.2264 323.133C85.6205 338.394 86.0362 349.027 80.7217 354.862C77.7677 358.104 73.3962 359.496 67.3546 359.119C65.5154 359.004 63.8673 358.624 62.3872 358.035L62.3819 358.033ZM55.5958 341.038C55.7554 342.309 57.5206 353.966 67.629 354.593C72.2126 354.877 75.3989 353.966 77.3615 351.806C81.4411 347.328 80.8606 337.387 78.7397 323.832C78.6756 323.41 78.4994 322.718 78.2987 321.918C77.3941 318.332 75.8791 312.337 77.3289 305.759C80.4216 291.733 74.1401 277.366 66.5672 273.245C63.1138 271.36 59.8835 271.906 56.9658 274.858C56.9354 274.888 56.9049 274.919 56.8766 274.944C56.7705 275.042 45.5956 285.478 43.9589 306.353C43.4601 312.718 45.055 314.261 47.4715 316.606C51.0051 320.024 55.3942 324.281 55.599 341.046L55.5958 341.038Z" fill="#3A1919"/>
<path d="M78.4591 318.322C78.2453 317.28 80.9335 308.491 79.3555 307.919C65.2819 313.554 44.4585 313.567 43.4903 312.657C42.1561 312.377 41.1978 314.143 42.183 315.102C42.183 315.102 47.064 319.519 48.281 321.552C48.7257 322.29 66.303 324.275 78.4591 318.322Z" fill="#3A1919"/>
<path d="M83.872 344.757L82.701 336.746C82.623 336.221 82.2557 335.764 81.7417 335.584L75.8563 333.464C75.6382 333.384 75.4045 333.358 75.173 333.388L56.607 335.64C55.8135 335.733 55.2614 336.447 55.3789 337.225L56.9559 348.02C57.5682 352.204 60.4185 355.576 64.111 357.044C65.8072 357.718 67.675 357.991 69.586 357.756L74.4635 357.163C80.5396 356.425 84.76 350.856 83.8688 344.75L83.872 344.757Z" fill="#3A1919"/>
<path d="M238.334 88.6256C218.799 84.4903 192.651 82.2766 191.819 86.1972C185.864 114.329 189.867 139.215 183.913 167.347C205.319 179.68 228.798 180.888 256.038 180.907C261.993 152.775 275.887 133.38 281.842 105.248C282.674 101.328 257.865 92.7536 238.334 88.6256Z" fill="#A31E36"/>
<path fill-rule="evenodd" clip-rule="evenodd" d="M281.84 105.253C282.378 102.716 272.155 98.2198 259.581 94.2525C261.936 95.6157 263.239 96.835 263.04 97.7806C257.085 125.912 247.799 146.742 241.85 174.876C223.21 174.86 201.093 174.413 185.428 170.102C206.258 181.322 229.085 182.453 255.414 182.476C261.369 154.344 275.883 133.39 281.838 105.259L281.84 105.253Z" fill="#791628"/>
<path d="M210.219 88.6731C204.808 88.2607 201.005 88.2374 198.443 88.3903L202.348 154.404L217.112 157.528L249.097 95.337C245.403 94.3503 241.706 93.4604 238.224 92.7228C229.385 90.8504 218.911 89.3343 210.214 88.671L210.219 88.6731Z" fill="#FFEC64"/>
<path d="M253.297 181.665C253.306 181.596 253.316 181.527 253.33 181.459C254.984 173.784 257.237 166.72 259.724 159.986C234.96 158.634 211.059 154.342 188.564 147.328C188.026 154.19 187.19 161.19 185.73 168.362C185.64 168.802 185.42 169.203 185.106 169.517C184.594 170.021 183.924 170.725 183.223 171.568C204.068 178.591 226.116 183.232 248.912 185.315C251.487 183.917 252.892 182.7 253.137 182.084L253.3 181.673L253.297 181.665Z" fill="#2E3499"/>
<path d="M185.046 164.497L183.314 168.853C200.858 177.889 233.487 182.459 255.415 182.476C257.049 174.757 259.54 167.049 262.107 160.115C256.622 159.857 251.182 159.457 245.787 158.911C244.449 163.857 243.192 168.969 242.054 174.348C222.232 176.661 185.046 164.497 185.046 164.497Z" fill="#1E2672"/>
<path d="M255.626 181.944C200.025 176.532 183.552 167.856 183.552 167.856C177.45 173.891 170.482 185.315 190.181 191.169C222.975 200.91 252.991 188.558 255.233 182.917C255.434 182.411 255.625 181.931 255.619 181.947L255.626 181.944Z" fill="#3A1919"/>
<path d="M185.931 192.102C179.873 189.694 176.282 186.376 175.234 182.214C173.685 176.06 178.219 170.085 181.413 166.792C184.056 153.496 184.534 140.632 184.994 128.195C185.479 115.066 185.982 101.493 188.997 87.2342C189.568 84.5393 192.968 83.872 195.867 83.591C198.779 83.3089 202.727 83.3224 207.605 83.6329C216.914 84.2284 228.35 85.8278 238.201 87.9137C248.053 89.9996 259.157 93.1691 267.908 96.3973C272.495 98.0863 276.109 99.6752 278.654 101.114C281.188 102.548 284.027 104.537 283.458 107.226C280.438 121.501 275.351 133.685 270.432 145.46C265.719 156.75 260.843 168.42 257.886 181.829C257.894 182.022 257.88 182.212 257.838 182.408C257.808 182.561 257.764 182.702 257.705 182.837L257.56 183.201C257.56 183.201 257.548 183.232 257.541 183.248L257.342 183.748C254.277 191.46 221.997 202.985 189.532 193.338C188.245 192.955 187.042 192.544 185.925 192.1L185.931 192.102ZM193.332 88.6647C190.486 102.362 189.998 115.575 189.529 128.357C189.054 141.185 188.566 154.459 185.726 168.354C185.637 168.794 185.417 169.195 185.103 169.509C183.088 171.508 178.515 176.644 179.64 181.104C180.662 185.177 186.295 187.641 190.832 188.994C209.271 194.474 225.598 192.345 233.687 190.595C246.201 187.884 252.583 183.461 253.134 182.076L253.297 181.665C253.306 181.595 253.316 181.526 253.33 181.458C256.364 167.396 261.387 155.358 266.253 143.714C271.034 132.268 275.978 120.429 278.92 106.783C278.011 105.799 274.161 103.409 264.516 99.9898C256.293 97.0751 246.109 94.2163 237.263 92.3471C228.424 90.4748 217.95 88.9586 209.253 88.2954C199.047 87.5144 194.559 88.1399 193.335 88.6721L193.332 88.6647Z" fill="#3A1919"/>
<path d="M286.6 213.695C286.274 213.566 285.98 213.461 285.74 213.39C284.901 213.136 283.994 213.331 283.337 213.911C282.679 214.491 282.373 215.37 282.52 216.227C282.836 218.055 283.915 220.789 285.41 223.549L285.801 224.284C296.94 245.352 308.604 253.483 316.426 256.592C319.307 257.738 322.263 258.449 325.211 258.706C338.837 259.889 349.403 255.238 354.742 250.491C357.066 248.42 357.941 246.786 358.257 245.99C358.734 244.789 358.225 243.416 357.078 242.819C355.485 241.991 351.487 240.311 344.855 237.674C341.41 236.305 337.478 234.766 333.303 233.131C328.557 231.275 323.492 229.286 318.445 227.281C309.138 223.581 295.848 218.207 287.889 214.275C287.451 214.058 287.02 213.868 286.603 213.703L286.6 213.695Z" fill="#FF9739"/>
<path d="M358.254 245.983C358.091 245.9 316.395 262.839 285.377 218.26C279.03 209.138 281.66 218.143 285.658 224.63C303.658 259.832 330.578 268.007 354.598 250.837C357.771 247.627 361.153 248.435 358.254 245.983Z" fill="#E26917"/>
<path d="M269.785 80.6256C283.06 91.6543 269.146 111.913 253.134 105.53C262.636 123.886 233.324 129.509 223.279 116.909C221.85 118.983 213.489 142.413 213.442 154.27C213.442 154.27 212.649 154.87 212.079 154.784C211.579 154.707 210.491 153.915 210.491 153.915C208.331 143.419 204.75 105.226 224.506 74.2904C262.085 15.4575 316.23 68.2527 269.785 80.6256Z" fill="#CECECE"/>
<path d="M267.183 77.1515C280.458 88.1802 266.544 108.439 250.532 102.056C260.034 120.412 230.722 126.035 220.676 113.435C219.248 115.509 210.887 138.939 210.84 150.796C210.84 150.796 210.047 151.396 209.477 151.31C208.977 151.233 207.889 150.44 207.889 150.44C205.729 139.944 202.148 101.752 221.904 70.8163C259.483 11.9834 313.628 64.7786 267.183 77.1515Z" fill="white"/>
<path d="M220.971 159.837C219.336 167.556 212.096 172.022 205.371 169.989C199.207 168.125 195.704 161.377 197.099 154.782C198.494 148.188 204.431 143.442 210.821 144.231C217.797 145.095 222.608 152.112 220.973 159.832L220.971 159.837Z" fill="#C6B44B"/>
<path d="M210.456 145.946C211.88 146.14 213.222 146.631 214.441 147.414C215.034 147.796 215.599 148.246 216.105 148.753C216.617 149.261 217.082 149.824 217.486 150.436C217.894 151.05 218.246 151.714 218.53 152.412C218.817 153.118 219.04 153.86 219.184 154.618C219.488 156.203 219.472 157.838 219.129 159.452C218.784 161.072 218.141 162.567 217.222 163.897C216.78 164.533 216.279 165.12 215.733 165.647C215.19 166.17 214.604 166.632 213.976 167.029C213.356 167.423 212.7 167.754 212.032 168.007C211.357 168.263 210.663 168.445 209.967 168.553C208.536 168.777 207.106 168.678 205.728 168.276C204.371 167.884 203.142 167.218 202.069 166.31C201.559 165.875 201.087 165.389 200.663 164.86C200.247 164.341 199.875 163.772 199.557 163.176C199.244 162.582 198.974 161.957 198.767 161.313C198.556 160.662 198.402 159.991 198.306 159.312C198.107 157.909 198.161 156.485 198.46 155.073C198.759 153.661 199.289 152.341 200.036 151.137C200.396 150.554 200.81 150.005 201.267 149.497C201.718 148.993 202.215 148.526 202.744 148.114C203.276 147.697 203.848 147.333 204.435 147.023C205.034 146.712 205.666 146.457 206.309 146.268C207.661 145.872 209.054 145.761 210.449 145.949M210.599 145.234C204.691 144.46 199.175 148.837 197.879 154.952C196.583 161.067 199.857 167.303 205.573 168.989C211.764 170.816 218.391 166.68 219.891 159.608C221.385 152.535 217.008 146.068 210.606 145.231L210.599 145.234Z" fill="white"/>
<path d="M199.488 155.293C198.708 158.99 199.903 162.673 202.375 164.973L201.001 151.624C200.298 152.705 199.775 153.943 199.488 155.293ZM214.62 157.952C214.89 156.675 214.634 155.707 214.404 154.951C214.087 154.014 213.77 153.216 213.947 152.372C214.144 151.431 215.013 150.673 215.993 150.831C216.039 150.837 216.076 150.851 216.122 150.858C214.714 148.907 212.632 147.561 210.185 147.211C207.022 146.759 203.985 148.077 201.932 150.402C202.129 150.444 202.311 150.479 202.471 150.506C203.354 150.662 204.766 150.778 204.766 150.778C205.241 150.827 205.134 151.602 204.654 151.582C204.654 151.582 204.174 151.561 203.652 151.494L204.594 162.629L207.913 156.641L207.396 152.171C206.918 152.054 206.481 151.911 206.481 151.911C206.008 151.796 206.236 151.009 206.705 151.116C206.705 151.116 208.158 151.498 209.054 151.653C210.017 151.822 211.563 151.955 211.563 151.955C212.082 152.015 211.975 152.82 211.449 152.794C211.449 152.794 210.923 152.768 210.354 152.694L211.48 164.286L213.189 161.184C213.952 159.816 214.436 158.831 214.622 157.947L214.62 157.952ZM208.069 158.014L203.582 165.911C204.312 166.39 205.115 166.764 205.994 167.01C207.047 167.306 208.118 167.39 209.163 167.293C209.146 167.244 209.136 167.191 209.126 167.139L208.069 158.014ZM217.608 153.888C217.581 154.231 217.53 154.589 217.449 154.978C217.222 156.04 216.776 157.193 215.885 158.559L210.956 166.939C214.238 165.925 216.977 163.055 217.802 159.168C218.19 157.334 218.097 155.528 217.608 153.888Z" fill="white"/>
<path d="M182.369 365.938C185.25 352.859 181.741 317.415 160.83 319.735C143.413 323.547 138.448 342.545 135.108 356.979C130.962 371.965 105.038 390.012 145.445 400.871C152.93 402.882 160.382 401.641 165.903 396.406C174.313 387.251 179.781 380 182.371 365.933L182.369 365.938Z" fill="#3A1919"/>
<mask id="mask1_1394_2336" style="mask-type:luminance" maskUnits="userSpaceOnUse" x="111" y="226" width="191" height="125">
<path d="M297.958 259.792C232.935 248.269 185.102 244.2 185.102 244.2C167.128 236.367 145.136 226.399 145.136 226.399C144.037 229.164 111.562 268.049 111.562 268.049C111.317 277.705 119.108 288.658 159.416 311.658C214.772 340.445 266.626 352.107 287.533 350.566C287.533 350.566 309.077 299.572 297.958 259.792Z" fill="white"/>
</mask>
<g mask="url(#mask1_1394_2336)">
<path fill-rule="evenodd" clip-rule="evenodd" d="M307.261 280.216C307.207 278.773 306.426 277.529 305.285 276.825C306.369 276.03 307.049 274.733 306.995 273.29C306.904 270.985 304.96 269.187 302.655 269.278C302.655 269.278 300.512 268.914 298.554 271.307L287.307 269.003L285.35 269.078L274.312 272.248C272.167 270.017 270.062 270.541 270.062 270.541C267.757 270.631 265.959 272.576 266.049 274.881C266.104 276.324 266.884 277.568 268.026 278.271C266.941 279.066 266.261 280.364 266.316 281.806C266.37 283.249 267.151 284.493 268.293 285.197C267.208 285.992 266.528 287.289 266.582 288.732C266.637 290.175 267.418 291.418 268.559 292.122C267.475 292.917 266.794 294.214 266.849 295.657C266.935 297.912 268.801 299.678 271.036 299.67C270.998 299.936 270.973 300.213 270.985 300.491C271.075 302.796 273.02 304.594 275.325 304.504C276.068 304.476 276.754 304.255 277.343 303.891C277.344 303.934 277.34 303.975 277.341 304.019C277.432 306.324 279.377 308.121 281.682 308.031C282.561 307.997 283.362 307.686 284.014 307.196C284.615 308.264 285.667 309.023 286.9 309.251C287.042 309.277 287.186 309.298 287.327 309.311C287.486 309.326 287.647 309.335 287.815 309.328C287.815 309.328 287.86 309.322 287.878 309.323C287.903 309.321 287.919 309.327 287.944 309.325C288.111 309.318 288.272 309.297 288.428 309.273C288.571 309.251 288.713 309.216 288.85 309.179C290.064 308.856 291.053 308.011 291.566 306.903C292.258 307.343 293.082 307.585 293.955 307.554C296.26 307.464 298.058 305.519 297.967 303.214C297.966 303.171 297.958 303.131 297.957 303.088C298.576 303.401 299.278 303.57 300.015 303.54C302.32 303.45 304.118 301.505 304.028 299.2C304.017 298.921 303.978 298.649 303.912 298.385C306.145 298.217 307.865 296.315 307.779 294.06C307.724 292.617 306.943 291.374 305.802 290.67C306.886 289.875 307.567 288.578 307.512 287.135C307.457 285.692 306.677 284.448 305.535 283.744C306.62 282.95 307.3 281.652 307.245 280.209L307.261 280.216Z" fill="#791628"/>
<path d="M279.777 308.28C278.297 307.692 277.177 306.381 276.866 304.769C276.384 304.955 275.873 305.057 275.359 305.078C272.744 305.18 270.532 303.135 270.43 300.521C270.429 300.417 270.428 300.312 270.426 300.208C268.148 299.925 266.377 298.043 266.287 295.69C266.235 294.364 266.739 293.094 267.657 292.166C266.673 291.311 266.07 290.083 266.023 288.759C265.97 287.433 266.475 286.164 267.393 285.235C266.407 284.386 265.805 283.152 265.758 281.828C265.706 280.502 266.21 279.233 267.128 278.305C266.144 277.45 265.541 276.222 265.494 274.898C265.391 272.301 267.412 270.103 270.001 269.973C270.398 269.894 272.414 269.627 274.488 271.605L285.203 268.526C285.245 268.512 285.291 268.506 285.339 268.506L287.297 268.431C287.34 268.43 287.388 268.43 287.433 268.442L298.353 270.678C300.264 268.54 302.299 268.654 302.695 268.701C305.286 268.627 307.472 270.662 307.573 273.263C307.625 274.589 307.12 275.859 306.203 276.787C307.186 277.642 307.79 278.87 307.837 280.194C307.89 281.52 307.385 282.79 306.467 283.718C307.451 284.573 308.055 285.801 308.102 287.125C308.154 288.451 307.649 289.72 306.732 290.649C307.715 291.503 308.319 292.731 308.366 294.056C308.456 296.409 306.839 298.42 304.594 298.881C304.608 298.985 304.614 299.091 304.615 299.195C304.717 301.809 302.672 304.022 300.058 304.124C299.538 304.143 299.021 304.078 298.53 303.931C298.268 306.218 296.371 308.044 293.997 308.138C293.242 308.167 292.496 308.017 291.809 307.689C291.178 308.694 290.185 309.428 289.01 309.742C288.854 309.784 288.692 309.823 288.529 309.85C288.358 309.879 288.172 309.903 287.979 309.912C287.969 309.908 287.936 309.913 287.913 309.91C287.888 309.912 287.868 309.916 287.85 309.915C287.657 309.924 287.471 309.917 287.284 309.897C287.125 309.883 286.962 309.861 286.804 309.829C286.799 309.827 286.794 309.825 286.783 309.821C285.602 309.601 284.558 308.942 283.854 307.998C283.199 308.372 282.462 308.585 281.706 308.614C281.024 308.642 280.37 308.522 279.775 308.285L279.777 308.28ZM277.561 303.374C277.561 303.374 277.609 303.392 277.63 303.401C277.809 303.503 277.919 303.686 277.921 303.895C277.919 303.9 277.919 303.961 277.917 303.966C277.996 305.993 279.677 307.551 281.667 307.47C282.392 307.441 283.094 307.195 283.686 306.748C283.818 306.647 283.983 306.615 284.141 306.648C284.299 306.68 284.44 306.785 284.518 306.926C285.043 307.86 285.951 308.508 287.014 308.704C287.014 308.704 287.024 308.709 287.029 308.711C287.148 308.734 287.264 308.749 287.382 308.759C287.528 308.775 287.666 308.781 287.803 308.774C287.803 308.774 287.836 308.769 287.866 308.769C287.884 308.77 287.938 308.773 287.958 308.769C288.075 308.766 288.21 308.747 288.343 308.721C288.479 308.701 288.601 308.67 288.718 308.638C289.76 308.363 290.614 307.641 291.066 306.674C291.137 306.525 291.265 306.417 291.419 306.369C291.572 306.32 291.74 306.344 291.88 306.436C292.504 306.83 293.22 307.024 293.943 307C295.931 306.924 297.492 305.239 297.411 303.248C297.413 303.243 297.402 303.147 297.399 303.14C297.384 302.933 297.484 302.741 297.651 302.63C297.824 302.516 298.037 302.503 298.218 302.599C298.766 302.878 299.383 303.014 299.996 302.989C301.985 302.913 303.545 301.228 303.464 299.238C303.454 299.002 303.421 298.763 303.366 298.534C303.326 298.372 303.363 298.203 303.458 298.07C303.554 297.937 303.709 297.853 303.874 297.839C305.823 297.692 307.293 296.05 307.213 294.103C307.166 292.901 306.528 291.806 305.504 291.173C305.343 291.073 305.247 290.9 305.236 290.713C305.225 290.526 305.314 290.348 305.47 290.232C306.442 289.521 306.993 288.38 306.946 287.178C306.899 285.976 306.261 284.88 305.238 284.248C305.076 284.147 304.98 283.975 304.969 283.788C304.958 283.6 305.048 283.422 305.203 283.307C306.175 282.595 306.726 281.454 306.68 280.252C306.633 279.05 305.995 277.955 304.971 277.322C304.81 277.222 304.714 277.049 304.703 276.862C304.692 276.675 304.783 276.491 304.936 276.382C305.909 275.67 306.46 274.529 306.413 273.327C306.337 271.339 304.652 269.778 302.661 269.859C302.623 269.863 302.582 269.858 302.543 269.849C302.474 269.84 300.68 269.596 298.973 271.681C298.842 271.842 298.627 271.922 298.42 271.876L287.24 269.585L285.419 269.655L274.449 272.809C274.248 272.869 274.029 272.807 273.881 272.656C272.013 270.712 270.249 271.097 270.177 271.111C270.142 271.121 270.104 271.125 270.066 271.128C268.078 271.204 266.518 272.889 266.599 274.88C266.646 276.081 267.284 277.177 268.307 277.809C268.469 277.91 268.565 278.083 268.576 278.27C268.587 278.457 268.497 278.635 268.342 278.75C267.37 279.462 266.819 280.603 266.865 281.805C266.912 283.007 267.55 284.102 268.574 284.735C268.735 284.836 268.831 285.008 268.842 285.195C268.853 285.383 268.764 285.561 268.609 285.676C267.636 286.387 267.085 287.529 267.132 288.73C267.179 289.932 267.817 291.028 268.84 291.66C269.002 291.761 269.098 291.933 269.109 292.121C269.12 292.308 269.031 292.486 268.875 292.601C267.903 293.313 267.352 294.454 267.399 295.656C267.477 297.608 269.062 299.129 271.021 299.127C271.186 299.125 271.345 299.201 271.455 299.324C271.563 299.452 271.612 299.618 271.585 299.778C271.545 300.018 271.535 300.258 271.542 300.487C271.618 302.475 273.303 304.035 275.293 303.954C275.907 303.93 276.51 303.748 277.034 303.426C277.187 303.334 277.376 303.318 277.539 303.383L277.561 303.374Z" fill="#791628"/>
</g>
<path d="M315.585 258.692C307.41 255.443 295.258 247.02 283.795 225.341L283.407 224.614C281.782 221.626 280.639 218.701 280.28 216.613C279.997 214.963 280.578 213.315 281.829 212.208C283.086 211.103 284.789 210.731 286.39 211.215C287.114 211.436 288.007 211.797 288.884 212.231C296.76 216.124 309.998 221.477 319.274 225.164C324.331 227.174 329.308 229.123 334.121 231.011C338.301 232.648 342.234 234.187 345.684 235.558C352.484 238.261 356.433 239.928 358.113 240.797C360.301 241.936 361.268 244.522 360.355 246.819C359.88 248.014 358.778 249.912 356.238 252.173C350.542 257.234 339.345 262.202 325.001 260.953C321.83 260.674 318.661 259.915 315.574 258.688L315.585 258.692ZM285.762 215.803C285.446 215.677 285.213 215.603 285.078 215.561C284.991 215.533 284.904 215.553 284.838 215.612C284.772 215.671 284.743 215.758 284.756 215.848C285.028 217.42 286.044 219.959 287.406 222.471L287.804 223.22C298.627 243.686 309.794 251.517 317.263 254.486C319.939 255.549 322.677 256.211 325.407 256.448C338.313 257.57 348.246 253.235 353.238 248.796C355.285 246.975 355.955 245.643 356.15 245.153C356.198 245.032 356.148 244.896 356.033 244.832C354.537 244.055 350.491 242.355 344.017 239.782C340.572 238.412 336.65 236.878 332.475 235.243C327.656 233.358 322.675 231.402 317.607 229.388C308.263 225.674 294.91 220.274 286.884 216.31C286.502 216.121 286.124 215.952 285.766 215.81L285.762 215.803Z" fill="#3A1919"/>
<path d="M190.603 172.782C187.671 171.811 185.869 171.065 184.972 170.666C184.538 170.469 184.035 170.568 183.704 170.912C177.819 176.862 172.849 184.378 198.826 191.733C199.572 191.944 182.271 180.791 190.777 173.772C191.124 173.483 191.033 172.928 190.601 172.787L190.603 172.782Z" fill="#605555"/>
<path d="M56.3869 356.48C51.1194 354.387 48.1006 349.045 47.5377 344.814L46.3254 335.725C46.1606 334.482 47.0329 333.347 48.2724 333.175L72.4413 329.948C72.7833 329.901 73.1297 329.935 73.452 330.044C73.75 330.077 74.048 330.141 74.3314 330.241L80.2189 332.356C81.5146 332.81 82.4634 333.968 82.6517 335.366L83.7473 343.567C84.7274 350.922 80.4551 356.33 72.8608 357.344C72.745 357.359 72.6334 357.363 72.5166 357.365C69.1145 357.3 63.5956 357.235 62.3475 357.337C60.1185 357.512 58.1284 357.179 56.3848 356.486L56.3869 356.48ZM51.1246 337.37L52.0405 344.212C52.523 347.802 55.6453 353.313 61.9987 352.813C63.7805 352.673 70.971 352.798 72.4362 352.826C77.4145 352.102 79.8981 348.954 79.2572 344.167L78.2289 336.457L72.9924 334.577C72.763 334.602 72.5304 334.588 72.3103 334.544L51.1246 337.37ZM78.7146 336.632L78.6987 336.625C78.6987 336.625 78.7093 336.63 78.7146 336.632Z" fill="#3A1919"/>
<path d="M51.7045 346.501C52.6159 352.755 57.6456 357.304 62.9408 356.658L67.8183 356.065C73.1114 355.424 76.6634 349.834 75.7519 343.579L74.3843 334.191L50.3389 337.107L51.7066 346.495L51.7045 346.501Z" fill="#938282"/>
<path d="M57.9392 358.208C53.662 356.507 50.2454 352.197 49.4632 346.83L48.0955 337.441C48.0058 336.838 48.1645 336.224 48.535 335.737C48.9055 335.25 49.4564 334.938 50.0657 334.863L74.111 331.947C75.3349 331.799 76.4483 332.651 76.6288 333.869L77.9965 343.257C78.5703 347.2 77.6315 351.127 75.4094 354.032C73.5632 356.452 70.9634 357.974 68.0927 358.321L63.2152 358.914C61.3947 359.136 59.6037 358.869 57.9392 358.208ZM52.9179 339.09L53.949 346.179C54.6799 351.215 58.593 354.905 62.6676 354.414L67.5451 353.822C69.6602 353.564 71.03 352.297 71.8057 351.282C73.2888 349.346 73.9061 346.658 73.5086 343.913L72.4604 336.714L52.92 339.085L52.9179 339.09Z" fill="#3A1919"/>
<path d="M155.907 313.857C155.907 313.857 141.445 320.009 134.628 339.215C129.845 352.692 141.116 346.204 129.287 370.287C123.856 381.34 128.135 390.8 143.645 397.282C148.499 399.309 156.544 388.539 167.326 368.779C168.472 366.679 171.079 362.591 173.712 352.713C179.047 332.723 173.494 308.452 155.907 313.857Z" fill="#938282"/>
<path d="M142.868 399.42C142.837 399.407 142.8 399.392 142.768 399.38C133.739 395.608 128.037 390.694 125.817 384.786C124.042 380.06 124.522 374.847 127.253 369.296C133.879 355.802 132.908 352.768 131.962 349.837C131.182 347.41 130.295 344.654 132.493 338.465C139.563 318.547 154.394 312.048 155.02 311.778C155.094 311.746 155.165 311.72 155.242 311.695C161.189 309.869 166.453 310.942 170.468 314.807C178.672 322.71 179.413 340.151 175.907 353.299C173.45 362.503 170.998 366.878 169.68 369.227C169.55 369.462 169.428 369.676 169.32 369.871C156.412 393.537 148.979 401.848 142.879 399.424L142.868 399.42ZM156.703 315.985C155.482 316.554 142.856 322.814 136.762 339.972C135.076 344.719 135.608 346.357 136.275 348.44C137.725 352.957 138.218 357.24 131.316 371.289C129.165 375.673 128.739 379.676 130.059 383.184C131.822 387.88 136.688 391.919 144.512 395.193L144.522 395.197C145.428 395.557 147.791 394.356 151.488 389.78C155.192 385.189 159.721 377.968 165.323 367.696C165.437 367.486 165.565 367.256 165.707 367.007C166.925 364.832 169.199 360.783 171.51 352.131C175.139 338.519 173.335 323.877 167.31 318.072C164.543 315.411 160.974 314.706 156.695 315.988L156.703 315.985Z" fill="#3A1919"/>
<path d="M169.527 359.589C169.28 359.198 168.862 358.947 168.401 358.91C151.992 357.713 134.295 343.292 134.115 343.147C133.664 342.778 133.032 342.71 132.516 342.981C132 343.251 131.693 343.807 131.741 344.393L132.406 352.343C132.435 352.684 132.582 353.005 132.821 353.246C133.222 353.649 140.02 360.395 150.523 364.57C155.027 366.361 160.213 367.678 165.865 367.82C166.475 367.837 167.029 367.471 167.255 366.902L169.642 360.898C169.813 360.466 169.769 359.978 169.522 359.587L169.527 359.589Z" fill="#3A1919"/>
<path d="M162.892 379.582C163.027 379.105 162.914 378.591 162.59 378.224C162.266 377.858 161.774 377.668 161.282 377.741L154.697 378.716L134.44 369.292C134.09 369.129 133.689 369.109 133.33 369.247C132.967 369.377 132.669 369.649 132.511 370.001L129.302 376.924C126.23 383.547 128.818 390.986 135.41 394.046L140.695 396.494C140.732 396.509 140.763 396.521 140.8 396.536C144.28 397.834 147.66 397.677 150.839 396.08C159.627 391.649 162.73 380.189 162.9 379.592L162.892 379.582Z" fill="#3A1919"/>
<path d="M164.309 379.883C164.403 379.249 164.064 378.627 163.479 378.351L134.525 364.933C134.268 364.813 133.98 364.771 133.701 364.813L125.957 365.956C125.322 366.051 124.823 366.554 124.73 367.188C124.636 367.822 124.974 368.445 125.56 368.72L154.513 382.138C154.771 382.258 155.059 382.3 155.338 382.258L163.081 381.115C163.717 381.02 164.216 380.517 164.309 379.883Z" fill="#3A1919"/>
<path d="M129.514 392.458L135.38 395.18C148.52 401.269 155.805 381.346 155.805 381.346L126.867 367.935C126.867 367.935 117.974 387.115 129.512 392.464L129.514 392.458Z" fill="#938282"/>
<path d="M135.287 397.607C135.002 397.494 134.717 397.369 134.434 397.238L128.568 394.516C115.134 388.292 124.42 367.846 124.821 366.975C125.074 366.429 125.535 366.008 126.099 365.799C126.664 365.591 127.293 365.621 127.833 365.872L156.771 379.284C157.841 379.782 158.353 381.011 157.949 382.119C157.772 382.61 153.464 394.17 145.132 397.623C141.955 398.94 138.644 398.936 135.294 397.604L135.287 397.607ZM128.085 370.993C126.342 375.716 123.116 386.993 130.47 390.404L136.336 393.126C138.821 394.273 141.12 394.381 143.385 393.44C147.827 391.594 151.227 385.986 152.871 382.479L128.085 370.993Z" fill="#3A1919"/>
<path d="M133.411 165.758C135.54 163.493 135.431 159.931 133.166 157.802C130.901 155.672 127.339 155.782 125.21 158.046L80.5054 205.59C78.376 207.855 78.4856 211.417 80.7503 213.546C83.015 215.676 86.5772 215.566 88.7067 213.301L133.411 165.758Z" fill="#D8A577"/>
<mask id="mask2_1394_2336" style="mask-type:luminance" maskUnits="userSpaceOnUse" x="78" y="146" width="66" height="70">
<path d="M140.287 161.546C144.273 157.305 144.974 151.49 141.853 148.554C138.732 145.618 132.968 146.676 128.977 150.915C127.042 152.976 125.888 155.402 125.563 157.694C125.44 157.804 125.315 157.919 125.2 158.038L80.4956 205.579C78.3732 207.834 78.4862 211.416 80.7433 213.534C83.0005 215.651 86.5812 215.543 88.6983 213.286L133.403 165.745C133.519 165.621 133.625 165.492 133.726 165.362C135.997 164.898 138.351 163.595 140.284 161.539L140.287 161.546Z" fill="white"/>
</mask>
<g mask="url(#mask2_1394_2336)">
<path d="M140.109 161.732C136.147 165.946 130.703 166.661 127.58 163.73C124.459 160.793 124.837 155.314 128.799 151.1C132.762 146.886 138.505 145.851 141.631 148.789C144.752 151.726 144.07 157.524 140.107 161.737L140.109 161.732Z" fill="#9E673E"/>
</g>
<path d="M140.287 161.547C136.302 165.788 133.064 164.159 129.937 161.221C126.816 158.284 124.989 155.148 128.977 150.915C132.963 146.674 138.726 145.616 141.853 148.554C144.974 151.49 144.278 157.308 140.287 161.547Z" fill="#D8A577"/>
<path d="M81.6712 216.77C80.7757 216.414 79.9294 215.888 79.1879 215.191C77.6553 213.752 76.7753 211.792 76.7118 209.681C76.6483 207.569 77.405 205.558 78.8489 204.028L123.458 156.59C123.99 154.008 125.348 151.467 127.325 149.362C129.585 146.96 132.429 145.346 135.33 144.815C138.488 144.235 141.353 144.977 143.404 146.908C147.432 150.693 146.774 157.965 141.937 163.105C139.959 165.211 137.506 166.718 134.96 167.414L90.3509 214.852C88.0679 217.281 84.5978 217.939 81.6744 216.777L81.6712 216.77ZM139.145 149.473C138.049 149.038 136.87 149.136 136.151 149.271C134.222 149.627 132.21 150.791 130.636 152.465C129.092 154.108 128.09 156.077 127.816 158.011C127.739 158.542 127.478 159.03 127.079 159.389C127.003 159.457 126.927 159.524 126.862 159.596L82.1577 207.136C81.5465 207.784 81.2252 208.638 81.2513 209.539C81.2775 210.44 81.654 211.273 82.3016 211.884C83.6517 213.153 85.781 213.091 87.0517 211.735L131.756 164.195C131.829 164.12 131.891 164.041 131.95 163.967C132.283 163.544 132.752 163.255 133.277 163.146C135.19 162.754 137.094 161.632 138.643 159.991C141.714 156.728 142.473 152.241 140.307 150.203C139.952 149.867 139.556 149.636 139.15 149.475L139.145 149.473Z" fill="#3A1919"/>
<path d="M115.157 194.738C115.157 194.738 113.657 189.488 109.569 188.064C107.206 187.241 101.169 188.617 102.712 195.97C103.163 198.12 106.886 201.936 106.886 201.936C106.886 201.936 108.736 203.525 112.517 201.624C117.03 199.356 115.152 194.736 115.152 194.736L115.157 194.738Z" fill="#FFE14D"/>
<path d="M106.053 204.965C105.811 204.869 105.58 204.729 105.373 204.543C102.485 201.943 98.3828 196.195 101.314 191.138C103.347 187.634 105.889 186.809 107.669 186.735C113.363 186.498 118.48 193.606 119.042 194.416C119.756 195.443 119.505 196.857 118.478 197.57C117.45 198.284 116.037 198.033 115.323 197.006C113.976 195.085 110.388 191.159 107.858 191.263C107.511 191.277 106.456 191.322 105.243 193.408C103.456 196.491 108.363 201.119 108.412 201.164C109.341 202.003 109.418 203.436 108.579 204.365C107.926 205.088 106.911 205.294 106.057 204.955L106.053 204.965Z" fill="#3A1919"/>
<path d="M306.749 276.962C306.694 275.519 305.914 274.276 304.772 273.572C305.857 272.777 306.537 271.48 306.482 270.037C306.392 267.732 304.447 265.934 302.142 266.024C302.142 266.024 300 265.66 298.042 268.054L286.795 265.749L284.837 265.825L273.799 268.995C271.655 266.764 269.55 267.287 269.55 267.287C267.245 267.378 265.447 269.323 265.537 271.628C265.592 273.071 266.372 274.314 267.514 275.018C266.429 275.813 265.749 277.11 265.804 278.553C265.858 279.996 266.639 281.24 267.78 281.943C266.696 282.738 266.015 284.036 266.07 285.479C266.125 286.922 266.905 288.165 268.047 288.869C266.962 289.664 266.282 290.961 266.337 292.404C266.423 294.658 268.289 296.425 270.524 296.417C270.486 296.682 270.461 296.959 270.472 297.238C270.563 299.543 272.508 301.341 274.812 301.251C275.556 301.223 276.241 301.001 276.831 300.638C276.832 300.681 276.828 300.722 276.829 300.765C276.919 303.07 278.864 304.868 281.169 304.778C282.049 304.743 282.85 304.433 283.502 303.942C284.102 305.01 285.155 305.77 286.388 305.998C286.53 306.024 286.674 306.045 286.815 306.058C286.974 306.072 287.135 306.082 287.302 306.075C287.302 306.075 287.348 306.068 287.366 306.069C287.391 306.067 287.407 306.074 287.432 306.071C287.599 306.065 287.76 306.043 287.916 306.02C288.059 305.997 288.201 305.962 288.338 305.925C289.552 305.603 290.541 304.757 291.054 303.65C291.745 304.089 292.57 304.332 293.443 304.301C295.748 304.21 297.545 302.265 297.455 299.96C297.454 299.917 297.445 299.877 297.444 299.834C298.064 300.148 298.765 300.317 299.503 300.286C301.808 300.196 303.606 298.251 303.516 295.946C303.505 295.667 303.466 295.396 303.4 295.132C305.632 294.964 307.352 293.061 307.266 290.807C307.212 289.364 306.431 288.12 305.29 287.417C306.374 286.622 307.055 285.324 307 283.881C306.945 282.438 306.165 281.195 305.023 280.491C306.108 279.696 306.788 278.399 306.733 276.956L306.749 276.962Z" fill="#FFE14D"/>
<mask id="mask3_1394_2336" style="mask-type:luminance" maskUnits="userSpaceOnUse" x="265" y="265" width="43" height="42">
<path d="M306.749 276.962C306.694 275.519 305.914 274.276 304.772 273.572C305.857 272.777 306.537 271.48 306.482 270.037C306.392 267.732 304.447 265.934 302.142 266.024C302.142 266.024 300 265.66 298.042 268.054L286.795 265.749L284.837 265.825L273.799 268.995C271.655 266.764 269.55 267.287 269.55 267.287C267.245 267.378 265.447 269.323 265.537 271.628C265.592 273.071 266.372 274.314 267.514 275.018C266.429 275.813 265.749 277.11 265.804 278.553C265.858 279.996 266.639 281.24 267.78 281.943C266.696 282.738 266.015 284.036 266.07 285.479C266.125 286.922 266.905 288.165 268.047 288.869C266.962 289.664 266.282 290.961 266.337 292.404C266.423 294.658 268.289 296.425 270.524 296.417C270.486 296.682 270.461 296.959 270.472 297.238C270.563 299.543 272.508 301.341 274.812 301.251C275.556 301.223 276.241 301.001 276.831 300.638C276.832 300.681 276.828 300.722 276.829 300.765C276.919 303.07 278.864 304.868 281.169 304.778C282.049 304.743 282.85 304.433 283.502 303.942C284.102 305.01 285.155 305.77 286.388 305.998C286.53 306.024 286.674 306.045 286.815 306.058C286.974 306.072 287.135 306.082 287.302 306.075C287.302 306.075 287.348 306.068 287.366 306.069C287.391 306.067 287.407 306.074 287.432 306.071C287.599 306.065 287.76 306.043 287.916 306.02C288.059 305.997 288.201 305.962 288.338 305.925C289.552 305.603 290.541 304.757 291.054 303.65C291.745 304.089 292.57 304.332 293.443 304.301C295.748 304.21 297.545 302.265 297.455 299.96C297.454 299.917 297.445 299.877 297.444 299.834C298.064 300.148 298.765 300.317 299.503 300.286C301.808 300.196 303.606 298.251 303.516 295.946C303.505 295.667 303.466 295.396 303.4 295.132C305.632 294.964 307.352 293.061 307.266 290.807C307.212 289.364 306.431 288.12 305.29 287.417C306.374 286.622 307.055 285.324 307 283.881C306.945 282.438 306.165 281.195 305.023 280.491C306.108 279.696 306.788 278.399 306.733 276.956L306.749 276.962Z" fill="white"/>
</mask>
<g mask="url(#mask3_1394_2336)">
<path d="M265.6 274.769C265.131 274.583 264.86 274.39 264.798 274.347C264.423 274.064 264.347 273.533 264.625 273.156C264.908 272.78 265.439 272.705 265.816 272.983C265.843 273.006 266.794 273.652 268.536 273.399C270.388 273.129 271.859 271.743 271.873 271.724C272.214 271.403 272.752 271.415 273.076 271.751C273.4 272.087 273.393 272.627 273.057 272.951C272.979 273.024 271.189 274.734 268.781 275.082C267.344 275.292 266.274 275.037 265.6 274.769Z" fill="#C6B44B"/>
<path d="M266.065 281.841C265.659 281.679 265.419 281.517 265.362 281.476C264.982 281.203 264.888 280.672 265.161 280.292C265.434 279.913 265.965 279.819 266.345 280.092C266.375 280.11 267.334 280.735 269.072 280.444C270.905 280.129 272.239 278.768 272.25 278.755C272.573 278.419 273.114 278.409 273.449 278.731C273.79 279.056 273.803 279.591 273.478 279.932C273.408 280.002 271.758 281.713 269.358 282.119C267.848 282.373 266.734 282.107 266.065 281.841Z" fill="#C6B44B"/>
<path d="M266.303 288.468C265.966 288.334 265.761 288.204 265.707 288.17C265.316 287.911 265.21 287.381 265.469 286.99C265.728 286.599 266.259 286.492 266.65 286.751C266.679 286.769 267.656 287.365 269.406 287.06C271.497 286.696 272.633 285.555 272.645 285.542C272.972 285.208 273.506 285.201 273.847 285.525C274.182 285.848 274.195 286.383 273.87 286.724C273.809 286.785 272.364 288.273 269.697 288.737C268.11 289.016 266.951 288.725 266.303 288.468Z" fill="#C6B44B"/>
<path d="M300.934 273.254C299.991 272.879 299.502 272.422 299.424 272.342C299.09 272.015 299.085 271.476 299.415 271.137C299.742 270.804 300.274 270.802 300.609 271.124C300.659 271.168 301.5 271.923 303.278 272.038C305.133 272.159 306.502 271.338 306.512 271.329C306.913 271.086 307.433 271.207 307.683 271.605C307.928 272.002 307.812 272.523 307.414 272.773C307.341 272.818 305.589 273.896 303.166 273.732C302.25 273.673 301.505 273.475 300.931 273.246L300.934 273.254Z" fill="#C6B44B"/>
<path d="M301.137 280.002C300.11 279.593 299.588 279.081 299.504 278.999C299.18 278.663 299.188 278.123 299.524 277.799C299.86 277.475 300.389 277.478 300.72 277.811C300.768 277.86 301.59 278.632 303.364 278.788C305.335 278.968 307.006 278.48 307.019 278.478C307.468 278.346 307.94 278.601 308.078 279.052C308.21 279.501 307.955 279.973 307.512 280.108C307.429 280.13 305.529 280.692 303.214 280.486C302.372 280.407 301.685 280.219 301.137 280.002Z" fill="#C6B44B"/>
<path d="M301.708 286.652C300.407 286.135 299.827 285.569 299.749 285.489C299.425 285.153 299.432 284.613 299.769 284.289C300.105 283.965 300.632 283.973 300.965 284.301C300.996 284.331 301.728 285.007 303.498 285.448C305.401 285.924 307.4 285.578 307.42 285.573C307.886 285.49 308.324 285.799 308.409 286.26C308.495 286.72 308.184 287.164 307.725 287.244C307.627 287.26 305.357 287.663 303.087 287.096C302.554 286.964 302.101 286.814 301.706 286.657L301.708 286.652Z" fill="#C6B44B"/>
<path d="M267.178 296.38C266.751 296.21 266.534 295.727 266.694 295.297C266.857 294.855 267.344 294.628 267.785 294.791C267.822 294.806 268.976 295.185 270.581 294.494C272.259 293.77 273.192 292.237 273.203 292.224C273.444 291.819 273.954 291.686 274.369 291.931C274.774 292.171 274.902 292.692 274.664 293.091C274.613 293.174 273.455 295.105 271.254 296.054C268.999 297.031 267.27 296.41 267.199 296.388L267.178 296.38Z" fill="#C6B44B"/>
<path d="M272.979 302.089C272.694 301.976 272.487 301.716 272.449 301.396C272.396 300.93 272.734 300.51 273.201 300.457C273.221 300.453 275.278 300.203 276.346 299.035C277.377 297.914 277.392 296.895 277.396 296.854C277.397 296.391 277.771 296.003 278.236 295.999C278.701 295.995 279.083 296.354 279.098 296.823C279.102 296.996 279.096 298.561 277.602 300.187C276.098 301.822 273.504 302.133 273.396 302.145C273.255 302.162 273.111 302.141 272.984 302.091L272.979 302.089Z" fill="#C6B44B"/>
<path d="M296.669 304.393C296.269 304.234 296.045 303.798 296.165 303.375C296.169 303.365 296.578 301.753 295.713 299.939C295.041 298.543 294.346 298.145 294.341 298.143C293.935 297.921 293.772 297.41 293.983 297C294.195 296.591 294.695 296.423 295.098 296.62C295.221 296.681 296.312 297.249 297.25 299.202C298.403 301.612 297.832 303.739 297.809 303.828C297.684 304.278 297.213 304.543 296.763 304.418C296.736 304.408 296.705 304.395 296.678 304.385L296.669 304.393Z" fill="#C6B44B"/>
<path d="M303.447 297.944C303.126 297.817 302.903 297.502 302.908 297.138C302.91 297.102 302.886 295.965 301.67 294.713C300.434 293.434 299.31 293.299 299.264 293.293C298.802 293.243 298.461 292.827 298.505 292.363C298.549 291.898 298.953 291.559 299.414 291.596C299.591 291.611 301.209 291.791 302.886 293.525C304.596 295.284 304.61 296.985 304.603 297.171C304.592 297.643 304.206 298.014 303.735 298.004C303.633 298 303.532 297.978 303.437 297.94L303.447 297.944Z" fill="#C6B44B"/>
<path d="M302.237 294.699C301.336 294.341 300.706 293.902 300.657 293.87C300.27 293.601 300.176 293.069 300.444 292.688C300.712 292.306 301.238 292.21 301.627 292.475C301.627 292.475 303.137 293.508 304.517 293.459C306.061 293.395 307.036 292.569 307.046 292.561C307.395 292.248 307.938 292.281 308.245 292.629C308.557 292.978 308.527 293.515 308.177 293.828C308.12 293.878 306.756 295.069 304.588 295.152C303.746 295.184 302.913 294.962 302.239 294.694L302.237 294.699Z" fill="#C6B44B"/>
<path d="M280.634 306.187C280.465 306.12 280.323 306.002 280.219 305.833C279.976 305.432 280.105 304.909 280.506 304.666C280.523 304.655 282.181 303.63 282.811 302.136C283.405 300.719 283.1 299.768 283.084 299.731C282.937 299.289 283.17 298.808 283.605 298.651C284.044 298.497 284.524 298.718 284.68 299.152C284.74 299.31 285.225 300.759 284.374 302.794C283.525 304.805 281.468 306.067 281.381 306.118C281.147 306.263 280.868 306.274 280.625 306.177L280.634 306.187Z" fill="#C6B44B"/>
<path d="M289.556 306.897C289.13 306.727 288.913 306.245 289.072 305.814C289.078 305.798 289.671 304.137 289.325 302.523C288.974 300.889 288.277 300.002 288.269 299.993C287.975 299.626 288.034 299.094 288.395 298.799C288.757 298.503 289.285 298.555 289.586 298.918C289.623 298.963 290.539 300.096 290.986 302.165C291.441 304.273 290.695 306.319 290.667 306.405C290.503 306.847 290.011 307.072 289.575 306.911L289.554 306.902L289.556 306.897Z" fill="#C6B44B"/>
</g>
<path d="M285.264 298.573C279.457 298.802 274.548 294.258 274.318 288.452L273.583 269.525C273.583 269.525 276.927 267.127 285.911 266.776C294.895 266.425 298.415 268.556 298.415 268.556L299.151 287.483C299.381 293.29 294.837 298.2 289.03 298.429L285.262 298.578L285.264 298.573Z" fill="#A31E36"/>
<path d="M280.34 299.421C278.954 298.871 277.672 298.062 276.542 297.021C274.138 294.797 272.746 291.779 272.622 288.515L271.884 269.594C271.861 269.023 272.127 268.476 272.592 268.149C272.976 267.874 276.615 265.441 285.847 265.079C295.08 264.717 298.894 266.861 299.302 267.109C299.788 267.406 300.099 267.926 300.122 268.497L300.858 287.424C301.122 294.171 295.85 299.871 289.104 300.13L285.336 300.279C283.607 300.348 281.913 300.053 280.348 299.431L280.34 299.421ZM275.324 270.516L276.017 288.383C276.112 290.738 277.117 292.919 278.852 294.524C280.587 296.128 282.842 296.963 285.197 296.869L288.965 296.72C293.834 296.532 297.642 292.416 297.457 287.542L296.758 269.672C295.347 269.154 291.956 268.233 285.977 268.467C280.005 268.698 276.694 269.877 275.32 270.508L275.324 270.516Z" fill="#C6B44B"/>
</svg>
