<svg width="249" height="248" viewBox="0 0 249 248" fill="none" xmlns="http://www.w3.org/2000/svg">
<mask id="mask0_1421_432" style="mask-type:alpha" maskUnits="userSpaceOnUse" x="0" y="0" width="249" height="248">
<rect width="249" height="248" fill="#D9D9D9"/>
</mask>
<g mask="url(#mask0_1421_432)">
<path d="M215.417 124.236C214.391 123.702 211.977 122.687 207.822 121.035C205.714 120.197 203.31 119.257 200.756 118.256C197.814 117.106 194.774 115.912 191.684 114.684C186.019 112.432 177.929 109.164 173.114 106.781C172.575 106.514 172.032 106.295 171.59 106.16C171.4 106.103 171.212 106.069 171.021 106.053C171.021 106.053 171.018 106.052 171.016 106.047C171.012 106.038 171.004 106.031 170.998 106.026C166.297 99.4828 160.189 94.3711 152.82 90.7897C153.313 90.3075 153.658 89.8334 153.839 89.3795L153.96 89.0738C153.96 89.0738 153.968 89.0544 153.972 89.0448L154.06 88.8227C154.093 88.739 154.125 88.6508 154.142 88.5607C154.167 88.4404 154.176 88.3246 154.17 88.2069C155.977 80.0132 158.956 72.8853 161.837 65.9833C164.844 58.7846 167.951 51.3425 169.797 42.62C170.146 40.9733 168.411 39.7582 166.861 38.8849C165.956 38.3761 164.826 37.8338 163.497 37.2681C165.266 34.121 165.242 30.101 162.157 27.0223C162.028 26.7769 161.882 26.5328 161.72 26.2932C173.611 23.0097 174.442 15.3223 169.701 10.3594C165.044 2.13083 146.615 -2.21643 132.182 20.3743C130.478 23.0402 129.058 25.7968 127.88 28.5825C126.344 28.4231 124.856 28.2938 123.446 28.203C120.465 28.0133 118.053 28.005 116.274 28.1774C114.502 28.3491 112.424 28.7569 112.075 30.4036C110.23 39.1151 109.926 47.4105 109.63 55.433C109.347 63.0362 109.06 70.8948 107.441 79.018C105.811 80.6996 103.613 83.5196 103.483 86.595C99.7886 87.7582 96.1202 89.4199 92.8155 91.7702C85.7237 93.3234 78.031 94.1383 74.8923 93.6325C74.1151 93.5062 73.3717 93.5574 72.6955 93.7769C72.5927 93.8105 72.4918 93.8487 72.3928 93.8914C72.1781 93.6346 71.9569 93.3752 71.7318 93.1068C70.7343 91.9313 69.7424 91.0227 68.7774 90.3185L79.0538 79.3934C80.6081 78.9713 82.1086 78.047 83.317 76.7606C86.2727 73.6192 86.6747 69.1758 84.2133 66.8631C82.9604 65.683 81.2087 65.2327 79.2798 65.5842C77.5072 65.9083 75.7695 66.8949 74.3886 68.3625C73.1802 69.6489 72.3507 71.2014 72.0254 72.7793L44.7615 101.761C43.8823 102.697 43.418 103.922 43.4556 105.215C43.4944 106.505 44.0321 107.703 44.9686 108.582C45.4217 109.008 45.9389 109.329 46.486 109.547C48.1759 110.219 50.1614 109.893 51.5498 108.604C51.8823 109.183 52.2462 109.693 52.6331 110.164L52.1746 110.492C51.5504 110.938 51.4082 111.802 51.8533 112.426L56.8197 119.38C53.4805 119.491 51.2682 120.237 50.2068 121.623L50.092 121.771L50.0229 121.945L49.9052 122.241L49.5264 123.175L49.5239 123.181L48.4032 126.057C48.3423 126.144 48.2898 126.239 48.2488 126.342L41.2789 143.699C41.1428 143.563 41.0056 143.43 40.867 143.301C40.8606 143.298 40.8567 143.289 40.8502 143.286C40.1239 142.61 39.3637 142.047 38.5826 141.621C38.4229 141.535 38.2606 141.456 38.1003 141.381C38.0939 141.378 38.0842 141.374 38.0778 141.372C37.8395 141.259 37.5994 141.159 37.3587 141.071C37.3458 141.066 37.3329 141.061 37.3168 141.055C37.1115 140.98 36.9055 140.917 36.6989 140.865C36.6719 140.858 36.6442 140.843 36.6159 140.839C34.8075 140.381 32.0991 140.397 29.442 143.068C29.1063 143.378 26.7995 145.6 24.6192 149.81C24.575 149.893 24.5321 149.972 24.4898 150.06C24.4565 150.125 24.4264 150.191 24.3931 150.256C24.3028 150.437 24.2112 150.62 24.1216 150.808C24.048 150.965 23.9718 151.129 23.8988 151.294C23.8514 151.394 23.8053 151.491 23.7599 151.596C23.7119 151.708 23.6614 151.826 23.6121 151.94C23.4252 152.373 23.2396 152.821 23.0618 153.287C22.955 153.565 22.8502 153.848 22.7505 154.136C22.7428 154.155 22.7364 154.171 22.7287 154.191C22.6462 154.426 22.5657 154.666 22.4884 154.908C22.4622 154.983 22.4373 155.055 22.413 155.135C21.5889 157.696 20.945 160.675 20.6778 164.077C20.6089 164.944 20.6028 165.709 20.6429 166.396C20.844 169.819 22.2729 171.204 23.6581 172.548C25.1276 173.971 26.7532 175.545 27.4432 180.504L26.0781 180.685C25.3187 180.786 24.7876 181.484 24.8883 182.243L25.6291 187.797C25.8795 189.671 26.9205 191.9 28.6998 193.472C29.5912 194.605 30.7244 195.477 31.983 195.977C33.0001 196.381 34.0945 196.544 35.207 196.409L36.0873 196.304C36.5834 196.415 37.1046 196.492 37.652 196.531C37.6629 196.531 37.6771 196.533 37.688 196.534C41.9636 196.936 46.2495 197.078 48.6469 195.407C49.5242 194.794 50.2377 193.993 50.8121 193.092C56.1719 201.756 63.8018 208.133 70.9138 212.633C71.3477 214.908 72.555 216.972 75.14 218.167L78.7243 219.83C78.8975 219.91 79.0719 219.987 79.2458 220.056C79.6159 220.203 79.9892 220.314 80.358 220.409C81.8263 220.981 83.5133 221.529 85.4563 222.051C87.6554 222.642 89.8489 222.769 91.9076 222.39C94.8227 223.337 96.7926 223.81 97.2939 223.928L97.3228 223.939C100.062 225.028 103.127 226.075 107.073 226.801C93.6251 233.129 77.447 234.709 65.3567 230.168C57.7292 227.292 52.9816 222.17 51.9559 215.72C50.3824 205.847 43.9531 199.967 38.4201 199.259C34.1591 198.717 30.4369 201.095 28.467 205.62C26.7972 209.455 27.8699 215.308 31.409 221.68C35.5707 229.167 44.2626 238.854 56.1881 243.594C59.0431 244.729 61.9572 245.518 64.848 245.944C87.7531 249.309 113.203 241.563 128.887 226.899C130.748 226.55 131.863 226.21 132.158 226.115C141.37 223.973 154.752 216.459 166.883 193.066C169.564 193.297 171.849 193.344 173.666 193.209C174.185 193.169 174.638 192.846 174.839 192.367C174.975 192.044 178.206 184.338 180.649 173.512C181.553 169.503 182.403 164.757 182.876 159.686C184.158 159.338 185.063 158.159 185.007 156.78C185.003 156.696 184.995 156.615 184.985 156.536C185.106 156.346 185.095 156.092 184.937 155.917C184.895 155.871 184.846 155.836 184.795 155.805C184.683 155.533 184.534 155.28 184.348 155.053C184.354 154.973 184.353 154.891 184.349 154.807C184.342 154.656 184.319 154.508 184.288 154.362C184.666 153.841 184.867 153.205 184.841 152.547C184.842 152.536 184.838 152.527 184.839 152.516C184.989 152.4 185.068 152.212 185.034 152.016C184.994 151.806 184.837 151.647 184.639 151.602C184.529 151.316 184.37 151.051 184.176 150.817C184.181 150.738 184.184 150.657 184.183 150.574C184.176 150.422 184.153 150.275 184.121 150.129C184.5 149.608 184.7 148.972 184.675 148.314C184.672 148.264 184.665 148.217 184.663 148.167C184.818 148.039 184.893 147.822 184.83 147.615C184.773 147.421 184.612 147.29 184.429 147.254C184.321 147.01 184.182 146.787 184.014 146.582C184.02 146.503 184.022 146.421 184.021 146.339C184.015 146.187 183.991 146.04 183.96 145.894C184.338 145.373 184.539 144.737 184.514 144.079C184.51 143.965 184.496 143.852 184.48 143.741C184.679 143.578 184.732 143.293 184.594 143.07C184.525 142.961 184.424 142.888 184.311 142.854C184.904 142.627 185.277 142.026 185.191 141.388L184.006 132.162C185.994 133.593 187.829 134.546 189.416 135.177C191.302 135.927 193.239 136.391 195.176 136.561C203.941 137.324 210.784 134.289 214.264 131.196C215.816 129.815 216.489 128.655 216.78 127.924C217.336 126.524 216.747 124.94 215.41 124.245L215.417 124.236Z" fill="#E67823"/>
<path d="M96.4007 135.83C96.4007 135.83 83.4242 136.979 78.3986 135.369C70.2308 132.756 59.7441 111.371 59.7441 111.371L75.9289 99.8721C75.9289 99.8721 85.4294 112.251 88.4236 115.268C90.0925 116.948 107.271 113.143 108.505 126.466C109.301 135.042 96.4007 135.83 96.4007 135.83Z" fill="#791628"/>
<path d="M77.4731 136.506C68.9466 133.117 58.9293 112.858 58.4996 111.979C58.2018 111.369 58.3861 110.633 58.9416 110.239L75.1265 98.7403C75.7346 98.3074 76.5743 98.4362 77.029 99.0269C77.1219 99.1496 86.3289 111.132 89.3212 114.2C89.7667 114.355 91.187 114.42 92.3391 114.475C98.113 114.747 108.86 115.25 109.887 126.337C110.105 128.679 109.47 130.734 108.004 132.443C104.431 136.614 97.0444 137.174 96.5048 137.209C95.7595 137.274 83.1636 138.347 77.9752 136.687C77.8091 136.636 77.6405 136.573 77.4731 136.506ZM61.5152 111.81C64.7979 118.236 72.9324 132.167 78.8223 134.05C83.5248 135.553 96.1548 134.461 96.2815 134.452C96.2937 134.449 96.3046 134.45 96.3168 134.447C96.3818 134.443 103.042 133.985 105.907 130.64C106.876 129.505 107.278 128.185 107.131 126.595C106.388 118.58 99.3534 117.58 92.2107 117.246C89.6601 117.127 88.2552 117.06 87.4437 116.242C84.9091 113.691 78.0328 104.857 75.647 101.773L61.5152 111.81Z" fill="#3A1919"/>
<path d="M50.0969 101.002C51.1733 107.68 53.995 107.971 57.665 112.4C61.8555 117.461 65.012 118.504 68.6834 116.187C71.6362 114.319 74.9022 111.588 78.1976 105.239C79.1634 103.897 73.6426 96.6967 69.5814 91.9105C66.7583 88.5855 63.7852 87.2882 61.1181 87.3873C55.2504 87.7833 49.7839 94.0155 50.1001 101.003L50.0969 101.002Z" fill="#FFE14D"/>
<path d="M51.2546 104.578C52.4333 109.199 55.0959 109.102 57.6649 112.4C60.599 116.168 63.0303 118.257 65.0658 116.971C67.7827 116.69 69.6236 115.566 73.0715 112.18C73.5489 111.345 65.1472 103.507 62.3139 99.9354C60.3448 97.453 58.4463 96.3406 56.8418 96.1948C53.3257 96.0011 50.5135 99.8034 51.2546 104.578Z" fill="#EA911B"/>
<path d="M62.5385 118.247C60.2757 117.348 58.3264 115.369 56.5981 113.284C55.5753 112.05 54.6337 111.165 53.7223 110.307C51.491 108.213 49.564 106.403 48.7275 101.221C48.7184 101.169 48.7138 101.115 48.7124 101.063C48.3724 93.5064 54.1247 86.4709 61.0233 86.0038C61.0387 86.0025 61.0541 86.0011 61.0651 86.0018C63.4177 85.9156 66.9872 86.7157 70.6351 91.0134C80.8494 103.05 79.9939 105.08 79.379 105.962C75.8823 112.667 72.3843 115.485 69.4226 117.357C66.8398 118.988 64.5631 119.052 62.5385 118.247ZM51.4796 100.862C52.1685 105.045 53.5446 106.338 55.6237 108.29C56.5518 109.162 57.6017 110.15 58.7354 111.517C62.9536 116.612 65.3869 116.632 67.9459 115.014C70.5935 113.342 73.7242 110.811 76.9102 104.708C76.6927 103.455 73.7564 98.9706 68.5248 92.806C66.215 90.0839 63.6797 88.6885 61.1913 88.7691C55.8614 89.1441 51.255 94.8908 51.4796 100.862Z" fill="#3A1919"/>
<path d="M85.0359 107.474L74.8114 93.1621L51.8954 109.534L62.1199 123.845L85.0359 107.474Z" fill="#A31E36"/>
<path d="M74.8065 93.1601L67.863 98.1194C67.4062 99.5033 67.3047 101.043 67.844 102.696C69.1785 106.794 72.4858 111.508 74.9619 114.665L85.0335 107.472L74.8097 93.1614L74.8065 93.1601Z" fill="#791628"/>
<path d="M81.7135 102.823L78.1355 97.8152L55.2195 114.187L58.7975 119.195L81.7135 102.823Z" fill="#FFEC64"/>
<path d="M78.13 97.8139L68.5946 104.624L55.2118 114.184L58.7898 119.192L71.6158 110.029L81.708 102.822L78.13 97.8139Z" fill="#FFEC64"/>
<path d="M78.1302 97.8129L68.5935 104.626C69.395 106.436 70.4725 108.292 71.6148 110.032L81.7082 102.821L78.1302 97.8129Z" fill="#DDC84B"/>
<path d="M61.5988 125.131C61.3542 125.034 61.1409 124.867 60.9822 124.647L50.7585 110.337C50.3133 109.713 50.4587 108.85 51.0797 108.404L73.9979 92.0333C74.2985 91.8211 74.6688 91.7334 75.0317 91.7957C75.3946 91.8579 75.7179 92.0573 75.9302 92.3578L86.1539 106.668C86.3662 106.969 86.4538 107.339 86.3916 107.702C86.3293 108.065 86.13 108.388 85.8294 108.6L62.9112 124.97C62.6107 125.183 62.2404 125.27 61.8775 125.208C61.7797 125.191 61.6857 125.165 61.5924 125.128L61.5988 125.131ZM53.8203 109.854L62.4318 121.91L83.0966 107.149L74.485 95.0933L53.8203 109.854Z" fill="#3A1919"/>
<path d="M98.7576 88.1059L93.2087 90.7569C85.5387 92.5462 77.0981 93.4702 73.5766 92.9054C73.0169 92.8133 72.496 92.8485 72.0287 93.002C71.0742 93.3121 70.3769 94.1382 70.2401 95.12C70.1761 95.5717 70.2356 96.0315 70.407 96.4537C70.6011 96.9781 70.8258 97.4066 71.1246 97.8459C73.4191 101.207 79.7389 103.79 88.8997 104.87L91.3387 105.158C91.9483 99.4698 92.268 93.2456 98.7608 88.1072L98.7576 88.1059Z" fill="#FF9739"/>
<path d="M97.4225 88.2019L91.8736 90.853C88.1558 91.7197 84.1381 92.4411 80.703 92.8313C78.7823 99.3137 74.4898 100.895 74.4898 100.895C77.2989 101.874 83.5783 104.493 87.5594 104.961L89.9984 105.248C90.608 99.5601 90.9277 93.3359 97.4205 88.1974L97.4225 88.2019Z" fill="#E26917"/>
<path d="M76.9524 103.514C73.6757 102.211 71.2942 100.56 69.9721 98.6257C69.6075 98.0895 69.3337 97.5594 69.1059 96.9508C68.8492 96.312 68.766 95.6118 68.8616 94.9304C69.0719 93.4262 70.1446 92.1529 71.5952 91.6821C72.2727 91.4594 73.0116 91.4102 73.7921 91.5378C77.0819 92.0665 85.3829 91.1467 92.7432 89.443L98.1578 86.8578C98.7939 86.5515 99.5578 86.7769 99.9309 87.3762C100.304 87.9755 100.167 88.7599 99.6139 89.1959C93.9172 93.7003 93.3501 99.1404 92.8039 104.406L92.71 105.308C92.6716 105.677 92.4858 106.013 92.1962 106.244C91.9067 106.476 91.5377 106.579 91.1703 106.537L88.7313 106.25C84.0747 105.7 80.101 104.773 76.953 103.521L76.9524 103.514ZM93.2726 92.1619C85.3936 93.9799 77.0462 94.8664 73.351 94.2698C73.0151 94.2145 72.7103 94.2313 72.4532 94.3155C71.9994 94.4631 71.6703 94.8504 71.6038 95.3085C71.5766 95.5176 71.6027 95.733 71.6804 95.9315C71.6862 95.945 71.6888 95.9573 71.6946 95.9708C71.8447 96.3808 72.0159 96.7097 72.2578 97.0668C74.3233 100.094 80.5996 102.496 89.0489 103.491L90.0963 103.613C90.4832 99.9204 90.9801 95.9321 93.2694 92.1606L93.2726 92.1619Z" fill="#3A1919"/>
<path d="M133.351 216.527C128.128 217.72 123.313 218.158 118.933 218.113L118.511 218.463C103.622 230.809 80.0916 235.496 63.7797 229.367C55.6527 226.304 50.6039 220.786 49.4986 213.843C48.0289 204.637 42.1781 199.177 37.1579 198.538C33.4848 198.073 30.3865 200.092 28.6501 204.076C27.1531 207.514 28.2062 212.92 31.5323 218.908C36.071 227.079 44.8261 235.922 55.6121 240.209C58.2805 241.27 61.0775 242.054 63.9619 242.477C88.4523 246.073 115.886 236.768 130.675 219.846L133.402 216.51C133.402 216.51 133.366 216.518 133.349 216.522L133.351 216.527Z" fill="#FF9739"/>
<path d="M130.154 217.172C114.885 232.237 89.2289 240.284 66.1791 236.899C63.2947 236.476 60.4977 235.692 57.8294 234.632C47.0433 230.344 38.2882 221.501 33.7495 213.33C31.2577 208.844 30.0439 204.686 30.217 201.438C29.614 202.186 29.0879 203.069 28.6488 204.079C27.1518 207.517 28.2049 212.923 31.531 218.912C36.0697 227.082 44.8248 235.926 55.6109 240.213C58.2792 241.274 61.0762 242.057 63.9606 242.481C88.451 246.076 115.882 236.77 130.673 219.85L133.401 216.513C133.401 216.513 133.364 216.521 133.348 216.526C132.265 216.774 131.2 216.988 130.154 217.172Z" fill="#E26917"/>
<path d="M55.099 241.5C43.1735 236.76 34.4783 227.072 30.3199 219.586C26.7807 213.214 25.708 207.361 27.3778 203.526C29.3478 199.001 33.0654 196.625 37.331 197.165C42.864 197.873 49.2933 203.753 50.8667 213.626C51.8925 220.076 56.6401 225.198 64.2675 228.073C80.1487 234.039 103.089 229.449 117.625 217.399L118.049 217.046C118.3 216.836 118.62 216.725 118.947 216.728C123.588 216.772 128.327 216.252 133.033 215.178C133.05 215.174 133.091 215.164 133.103 215.161C133.68 215.033 134.273 215.283 134.584 215.787C134.894 216.291 134.851 216.933 134.476 217.391L131.748 220.728C131.748 220.728 131.728 220.75 131.72 220.761C116.635 238.016 88.6887 247.513 63.7621 243.852C60.8713 243.426 57.9572 242.636 55.1022 241.501L55.099 241.5ZM38.9602 200.436C38.2939 200.171 37.6291 199.997 36.98 199.914C33.9214 199.526 31.414 201.201 29.9195 204.633C28.6178 207.626 29.6714 212.712 32.7405 218.241C36.6704 225.308 44.8729 234.454 56.1225 238.925C58.778 239.981 61.4823 240.716 64.162 241.111C88.2008 244.642 115.115 235.53 129.616 218.956L129.884 218.627C126.386 219.215 122.881 219.507 119.427 219.505L119.392 219.536C104.152 232.175 80.0316 236.96 63.291 230.671C63.0966 230.597 62.899 230.523 62.7091 230.447C54.4594 227.168 49.2935 221.372 48.1277 214.066C46.9624 206.767 42.9277 202.017 38.9589 200.439L38.9602 200.436Z" fill="#3A1919"/>
<path d="M131.207 221.396C140.382 219.28 153.847 211.632 166.002 187.223C173.512 172.145 178.691 153.789 179.204 140.459C179.352 136.571 179.253 132.749 178.773 129.072C176.866 114.468 171.437 106.764 171.432 106.758C171.148 106.283 170.857 105.814 170.554 105.347C170.15 104.713 169.734 104.081 169.292 103.458C169.292 103.458 169.292 103.458 169.289 103.457C169.289 103.457 169.289 103.457 169.286 103.456C164.297 96.5119 157.672 91.2173 149.592 87.7185C148.927 87.4318 148.253 87.1489 147.583 86.8828C128.106 79.1411 104.695 79.4035 90.9571 91.1331C80.0353 100.456 87.2291 107.151 87.6025 108.209C89.8242 112.663 65.6486 142.708 65.6486 142.708C59.877 141.156 48.9753 141.351 44.2352 149.788C44.1731 149.897 43.8794 151.808 43.7667 152.636C43.761 152.678 43.7508 152.722 43.7484 152.766C43.7174 153.004 43.6864 153.241 43.6554 153.478C42.1916 151.178 40.2938 149.511 38.1308 148.651C35.6684 147.672 32.9763 147.825 30.7491 149.068C28.1807 150.503 26.4306 153.199 25.8187 156.661C24.372 164.867 31.6787 184.153 39.9094 189.956C40.5961 190.441 41.262 190.81 41.8864 191.058C43.3831 191.653 44.6957 191.567 45.7868 190.801C47.6961 189.458 48.5088 186.325 48.7444 184.063C61.367 211.281 97.126 219.225 97.126 219.225L97.2547 219.276C101.944 221.14 107.465 222.828 116.735 223.005C126.006 223.179 131.206 221.407 131.206 221.407L131.207 221.396Z" fill="#FFE14D"/>
<path d="M177.477 140.969C177.625 137.081 177.526 133.259 177.045 129.583C175.548 118.111 171.878 110.897 170.368 108.329C171.394 111.544 172.352 115.473 172.955 120.096C173.436 123.772 173.536 127.591 173.387 131.483C172.877 144.814 169.18 165.996 161.67 181.073C149.515 205.482 136.049 213.134 126.875 215.246C126.875 215.246 121.674 217.022 112.404 216.844C103.132 216.67 92.7981 213.066 92.7981 213.066C92.7981 213.066 55.5549 202.291 42.9311 175.077C42.6967 177.336 41.8828 180.472 39.9735 181.815C38.8856 182.583 37.573 182.668 36.0731 182.072C35.4486 181.824 34.784 181.452 34.0961 180.97C31.2159 178.941 28.4525 175.26 26.1354 170.981C28.7303 178.799 33.2942 187.01 38.1861 190.456C38.8728 190.942 39.5387 191.311 40.1631 191.559C41.6599 192.154 42.9724 192.068 44.0636 191.301C45.9729 189.958 46.7855 186.826 47.0212 184.564C59.6437 211.781 95.4027 219.725 95.4027 219.725L95.5315 219.777C100.221 221.641 105.742 223.328 115.012 223.505C124.283 223.679 129.483 221.907 129.483 221.907C138.658 219.792 152.123 212.143 164.281 187.735C171.791 172.658 176.97 154.302 177.48 140.971L177.477 140.969Z" fill="#EA911B"/>
<path d="M177.617 155.544C177.594 150.417 177.036 145.256 175.67 140.375C135.937 133.333 105.421 130.335 105.421 130.335C94.438 125.549 80.9993 119.458 80.9993 119.458C80.7895 119.986 78.7101 122.666 75.9447 126.107C75.651 126.527 75.3471 126.954 75.038 127.394C70.3827 133.949 65.5541 140.151 63.957 142.182C63.6275 142.11 63.2813 142.043 62.9216 141.982C61.4301 143.775 60.4826 144.912 60.4826 144.912C60.3326 150.812 65.0933 157.505 89.7241 171.56C118.576 186.565 146.808 194.328 162.413 195.7C163.646 193.581 164.876 191.312 166.087 188.875C171.29 178.43 175.385 166.42 177.613 155.546L177.617 155.544Z" fill="#EA911B"/>
<path d="M167.642 105.953C167.642 105.953 173.042 125.655 145.513 124.828L178.771 129.076C178.771 129.076 179.619 118.317 167.638 105.951L167.642 105.953Z" fill="#EA911B"/>
<path d="M84.9443 218.177C82.379 217.157 79.5211 215.898 76.5262 214.365C67.5398 209.761 55.7861 201.794 48.7458 189.368C48.2145 190.826 47.3808 192.295 46.0727 193.214C45.0432 193.938 43.3054 194.597 40.8656 193.627C40.1414 193.339 39.3776 192.916 38.6033 192.37C29.8631 186.208 22.4054 166.449 23.9475 157.702C24.6292 153.821 26.6249 150.779 29.5659 149.138C32.1613 147.691 35.2817 147.511 38.1367 148.646C39.6302 149.239 41.0177 150.175 42.2424 151.407C42.3861 150.633 42.4585 150.498 42.5194 150.391C47.6195 141.311 58.702 141.139 64.6023 142.434C66.1994 140.403 71.0267 134.204 75.6833 127.646C86.3426 112.635 86.1505 109.771 86.072 109.453C86.0662 109.439 86.0591 109.429 86.0533 109.415C85.9997 109.335 85.863 109.153 85.7494 109.008C84.102 106.851 79.0927 100.286 89.5465 91.3624C97.8907 84.2389 109.361 82.3314 117.515 81.987C127.721 81.5558 138.683 83.3374 147.583 86.875C148.265 87.1462 148.956 87.4322 149.633 87.7273C157.946 91.3259 164.766 96.7764 169.903 103.929C169.908 103.934 169.915 103.945 169.921 103.95C170.322 104.516 170.732 105.134 171.215 105.889C171.478 106.295 171.758 106.746 172.088 107.294C172.564 107.99 177.773 115.89 179.637 130.18C180.098 133.718 180.243 137.518 180.08 141.799C179.563 155.31 174.325 173.888 166.736 189.128C154.362 213.976 140.524 221.819 131.073 224.019C130.376 224.245 125.13 225.835 116.201 225.67C106.656 225.491 100.965 223.725 96.2371 221.846L96.2082 221.834C95.4198 221.651 90.9923 220.581 84.9507 218.18L84.9443 218.177ZM48.7471 184.057C49.069 184.185 49.3403 184.431 49.4916 184.763C55.8368 198.441 68.3482 207.052 77.7275 211.868C87.9766 217.131 96.8294 219.137 96.9182 219.157C96.9897 219.174 97.0688 219.21 97.1306 219.223L97.2594 219.274C101.743 221.056 107.149 222.732 116.251 222.902C125.122 223.07 130.202 221.391 130.25 221.373C130.294 221.357 130.34 221.345 130.385 221.334C139.256 219.291 152.333 211.831 164.253 187.891C171.68 172.975 176.805 154.84 177.308 141.692C177.467 137.57 177.33 133.922 176.888 130.541C175.061 116.542 170.001 109.148 169.785 108.839C169.771 108.818 169.757 108.798 169.746 108.779C169.409 108.22 169.138 107.784 168.879 107.387C168.416 106.658 168.027 106.079 167.654 105.547C167.647 105.544 167.646 105.536 167.641 105.53C162.799 98.7977 156.372 93.6635 148.534 90.2684C147.881 89.9868 147.219 89.7123 146.559 89.45C129.619 82.7165 104.334 82.3758 91.345 93.4675C82.8878 100.688 86.4368 105.337 87.9545 107.324C88.2558 107.719 88.4641 107.992 88.5915 108.3C89.1045 109.391 89.1595 111.306 85.9988 116.904C84.2291 120.044 81.6014 124.076 78.1919 128.893C72.4119 137.058 66.281 144.774 66.2207 144.851C65.8769 145.285 65.3112 145.47 64.7752 145.328C59.1439 143.816 49.2808 144.249 45.0221 151.588C44.9362 152.038 44.7326 153.347 44.6294 154.104L44.6129 154.202C44.5761 154.463 44.5477 154.694 44.5192 154.925C44.4491 155.505 44.0218 155.979 43.4483 156.109C42.8781 156.241 42.2865 155.994 41.9741 155.505C40.6633 153.448 38.9788 151.966 37.1087 151.223C35.0326 150.397 32.7765 150.522 30.9141 151.56C28.7164 152.784 27.2107 155.138 26.6738 158.186C25.3192 165.87 32.4653 184.66 40.1993 190.108C40.7965 190.528 41.3664 190.848 41.8878 191.055C43.288 191.612 44.034 191.263 44.4784 190.952C45.8964 189.954 46.6343 187.328 46.8567 185.203C46.9203 184.583 47.392 184.081 48.0066 183.979C48.2625 183.935 48.5186 183.966 48.7471 184.057ZM86.0798 109.471C86.0798 109.471 86.0798 109.471 86.083 109.472C86.083 109.472 86.083 109.472 86.0798 109.471ZM86.017 109.319C86.017 109.319 86.0313 109.358 86.041 109.381C86.0345 109.36 86.0235 109.34 86.017 109.319Z" fill="#3A1919"/>
<path d="M178.846 134.261C139.113 127.219 108.596 124.221 108.596 124.221C97.6137 119.434 84.1751 113.343 84.1751 113.343C83.5034 115.033 63.2758 139.76 63.2758 139.76C63.1259 145.66 68.2704 151.388 92.9012 165.442C126.727 183.032 159.7 190.671 172.475 189.729C172.475 189.729 185.64 158.568 178.846 134.261Z" fill="#A31E36"/>
<path d="M116.636 177.821C108.802 174.707 100.6 171.007 92.2601 166.671C92.2441 166.664 92.2292 166.655 92.2112 166.644C79.9071 159.621 72.3986 154.665 67.8661 150.567C63.5818 146.699 61.7963 143.454 61.8892 139.723C61.8956 139.416 62.0068 139.118 62.2012 138.882C69.7792 129.616 82.0787 114.37 82.8986 112.795C83.0426 112.461 83.3135 112.192 83.6547 112.056C84.0049 111.915 84.4037 111.925 84.745 112.079C84.8776 112.139 98.1366 118.148 108.95 122.863C111.784 123.151 141.502 126.234 179.087 132.895C179.613 132.989 180.037 133.374 180.181 133.885C183.771 146.722 181.825 161.379 179.562 171.412C177.119 182.238 173.888 189.944 173.753 190.266C173.551 190.745 173.097 191.072 172.579 191.108C163.325 191.791 141.937 187.874 116.641 177.819L116.636 177.821ZM93.5637 164.226C127.533 181.888 159.082 188.889 171.517 188.398C173.446 183.48 183.242 156.773 177.734 135.474C138.932 128.631 108.759 125.631 108.458 125.601C108.314 125.588 108.172 125.551 108.04 125.491C98.9608 121.532 88.0834 116.63 84.6743 115.089C81.4124 119.704 69.1747 134.728 64.658 140.25C64.8199 145.197 69.8332 150.682 93.5605 164.224L93.5637 164.226ZM82.8967 112.809C82.8967 112.809 82.8903 112.825 82.8878 112.832C82.8903 112.825 82.8942 112.816 82.8967 112.809Z" fill="#3A1919"/>
<path fill-rule="evenodd" clip-rule="evenodd" d="M152.144 165.504C142.904 166.976 116.176 160.075 116.176 160.075L112.824 167.934C112.824 167.934 136.158 174.514 151.441 173.142C164.734 171.948 172.833 163.668 171.779 160.592C170.96 158.19 160.405 164.189 152.141 165.503L152.144 165.504Z" fill="#791628"/>
<path d="M83.345 109.186L81.8135 115.42C81.7332 115.735 81.8837 116.059 82.1716 116.207L102.832 126.306C102.832 126.306 102.866 126.248 102.924 126.141C104.754 122.757 103.409 118.525 99.9848 116.769L84.3345 108.74C83.9379 108.538 83.4559 108.756 83.3482 109.187L83.345 109.186Z" fill="#2E3499"/>
<path d="M102.318 127.592C102.286 127.579 102.253 127.566 102.222 127.55L81.5617 117.452C80.6724 116.998 80.2304 116.028 80.4695 115.08L82.0003 108.856C82.0003 108.856 82.0029 108.85 82.0042 108.846C82.1598 108.23 82.5845 107.724 83.1622 107.462C83.7398 107.199 84.4036 107.217 84.9664 107.508L100.617 115.536C102.62 116.564 104.09 118.315 104.757 120.462C105.416 122.592 105.2 124.843 104.143 126.797C104.068 126.939 104.019 127.016 104.019 127.016C103.665 127.598 102.943 127.837 102.319 127.589L102.318 127.592ZM83.2902 115.213L102.137 124.427C102.436 123.412 102.429 122.325 102.107 121.287C101.662 119.854 100.683 118.69 99.3479 118.006L84.478 110.378L83.289 115.216L83.2902 115.213Z" fill="#3A1919"/>
<path d="M180.995 129.107L180.673 135.14C180.567 135.444 180.267 135.638 179.945 135.603L102.833 126.306C102.833 126.306 105.178 119.112 110.904 119.391L180.415 128.194C180.859 128.24 181.143 128.688 180.999 129.108L180.995 129.107Z" fill="#2E3499"/>
<path d="M155.703 125.062C155.703 125.062 156.952 127.735 154.056 131.72L180.671 135.135L180.993 129.102L155.705 125.059L155.703 125.062Z" fill="#1E2672"/>
<path d="M102.318 127.592C102.051 127.486 101.82 127.297 101.66 127.051C101.438 126.702 101.382 126.27 101.512 125.878C101.622 125.545 104.261 117.686 110.966 118.006C111.002 118.009 111.038 118.012 111.074 118.016L180.585 126.819C181.191 126.88 181.749 127.229 182.092 127.764C182.39 128.233 182.489 128.791 182.371 129.321L182.057 135.212C182.051 135.34 182.026 135.469 181.982 135.589C181.664 136.51 180.765 137.084 179.797 136.979L102.663 127.681C102.542 127.666 102.427 127.635 102.318 127.592ZM110.784 120.77C107.733 120.654 105.799 123.344 104.85 125.151L179.34 134.133L179.59 129.483L110.784 120.77ZM180.267 129.57L180.239 129.566C180.239 129.566 180.256 129.569 180.267 129.57Z" fill="#3A1919"/>
<path d="M87.6086 162.31L87.5828 162.299C86.9764 162.043 86.6925 161.342 86.9485 160.735L101.729 125.837C101.983 125.237 102.669 124.955 103.268 125.193L103.293 125.203C103.9 125.459 104.184 126.161 103.928 126.767L89.147 161.665C88.8936 162.265 88.2073 162.548 87.6086 162.31Z" fill="#3A1919"/>
<path d="M94.8331 140.898C92.4673 139.958 90.3167 138.88 88.4179 137.674C87.8853 137.335 87.7268 136.628 88.0633 136.09C88.4017 135.558 89.1096 135.399 89.6467 135.736C93.1743 137.973 99.5445 140.926 109.875 142.3C110.502 142.382 110.943 142.96 110.858 143.586C110.777 144.213 110.199 144.654 109.573 144.569C104.096 143.842 99.1133 142.592 94.8356 140.892L94.8331 140.898Z" fill="#FFEC64"/>
<path d="M85.9069 138.524C87.4695 139.145 89.2397 138.382 89.8608 136.82C90.4819 135.257 89.7187 133.487 88.1561 132.866C86.5936 132.245 84.8233 133.008 84.2022 134.57C83.5811 136.133 84.3444 137.903 85.9069 138.524Z" fill="#FFEC64"/>
<path d="M85.587 139.329C83.6783 138.57 82.669 136.44 83.3227 134.467C83.6531 133.476 84.346 132.671 85.2808 132.204C86.2157 131.737 87.2755 131.659 88.2661 131.989C89.2535 132.318 90.0622 133.012 90.5292 133.947C90.9976 134.879 91.0745 135.942 90.7441 136.932C90.4137 137.923 89.7208 138.728 88.786 139.195C87.8544 139.664 86.7913 139.741 85.8007 139.41C85.7287 139.385 85.6566 139.36 85.5858 139.332L85.587 139.329ZM87.8414 133.676C87.8028 133.661 87.7609 133.644 87.721 133.632C87.1675 133.449 86.5803 133.492 86.0586 133.754C85.5382 134.013 85.1507 134.463 84.9692 135.013C84.5909 136.153 85.2149 137.396 86.3503 137.765C86.9039 137.948 87.491 137.905 88.0127 137.643C88.5332 137.384 88.9207 136.934 89.1021 136.384C89.2849 135.83 89.2425 135.243 88.9802 134.722C88.7386 134.242 88.3371 133.873 87.8414 133.676Z" fill="#C6B44B"/>
<path d="M110.719 146.892C112.281 147.513 114.051 146.75 114.673 145.187C115.294 143.625 114.53 141.855 112.968 141.233C111.405 140.612 109.635 141.376 109.014 142.938C108.393 144.501 109.156 146.271 110.719 146.892Z" fill="#FFEC64"/>
<path d="M110.392 147.694C109.501 147.34 108.779 146.68 108.347 145.815C107.879 144.884 107.802 143.821 108.132 142.83C108.463 141.84 109.156 141.034 110.09 140.567C111.022 140.099 112.085 140.022 113.076 140.352C114.071 140.681 114.872 141.375 115.339 142.31C115.807 143.242 115.884 144.305 115.554 145.295C115.223 146.286 114.53 147.092 113.596 147.559C112.664 148.027 111.601 148.104 110.61 147.773C110.538 147.749 110.463 147.722 110.392 147.694ZM112.648 142.038C112.609 142.023 112.567 142.006 112.527 141.994C111.974 141.811 111.387 141.854 110.866 142.113C110.346 142.372 109.958 142.822 109.776 143.375C109.593 143.929 109.635 144.516 109.898 145.038C110.157 145.558 110.603 145.944 111.157 146.127C111.71 146.31 112.297 146.267 112.819 146.005C113.34 145.746 113.727 145.296 113.908 144.746C114.091 144.192 114.049 143.605 113.787 143.083C113.545 142.604 113.143 142.235 112.648 142.038Z" fill="#C6B44B"/>
<path d="M97.2987 129.407C95.4576 128.675 93.7565 127.853 92.2095 126.944C91.6628 126.622 91.4831 125.921 91.8048 125.374C92.1252 124.83 92.8278 124.648 93.3746 124.969C96.9663 127.083 103.43 129.82 113.814 130.842C114.442 130.902 114.904 131.466 114.84 132.096C114.776 132.727 114.217 133.187 113.586 133.122C107.467 132.52 101.94 131.251 97.2987 129.407Z" fill="#FFEC64"/>
<path d="M89.6365 127.856C91.1991 128.477 92.9693 127.714 93.5904 126.151C94.2115 124.589 93.4483 122.818 91.8857 122.197C90.3232 121.576 88.553 122.339 87.9319 123.902C87.3108 125.465 88.074 127.235 89.6365 127.856Z" fill="#FFEC64"/>
<path d="M89.3109 128.658C88.4611 128.32 87.7613 127.699 87.3202 126.887C86.8249 125.967 86.7158 124.909 87.0127 123.909C87.3096 122.909 87.9806 122.084 88.9006 121.588C89.8206 121.093 90.8778 120.984 91.8779 121.281C92.8813 121.579 93.7035 122.249 94.1988 123.169C94.6942 124.089 94.8032 125.146 94.5063 126.146C93.8901 128.212 91.7071 129.391 89.6411 128.774C89.5278 128.741 89.4171 128.7 89.3109 128.658ZM91.5697 123.003C91.5086 122.979 91.4474 122.955 91.3856 122.941C90.8289 122.776 90.2386 122.836 89.7259 123.113C89.2133 123.39 88.8406 123.849 88.6752 124.406C88.5098 124.963 88.5696 125.553 88.8467 126.066C89.1237 126.578 89.5831 126.951 90.1398 127.117C91.29 127.458 92.5042 126.804 92.8503 125.652C93.0157 125.095 92.9559 124.505 92.6788 123.992C92.4347 123.537 92.0461 123.193 91.5697 123.003Z" fill="#C6B44B"/>
<path d="M114.723 135.345C116.285 135.966 118.056 135.203 118.677 133.64C119.298 132.078 118.535 130.307 116.972 129.686C115.409 129.065 113.639 129.828 113.018 131.391C112.397 132.954 113.16 134.724 114.723 135.345Z" fill="#FFEC64"/>
<path d="M114.4 136.148C112.539 135.409 111.516 133.351 112.102 131.399C112.399 130.399 113.07 129.574 113.99 129.079C114.91 128.583 115.967 128.474 116.967 128.771C117.97 129.069 118.791 129.742 119.288 130.659C119.783 131.579 119.892 132.636 119.595 133.636C119.298 134.636 118.627 135.462 117.707 135.957C116.787 136.452 115.73 136.562 114.73 136.265C114.617 136.231 114.509 136.192 114.403 136.15L114.4 136.148ZM116.655 130.492C116.594 130.468 116.533 130.444 116.471 130.43C115.915 130.265 115.324 130.325 114.812 130.602C114.299 130.879 113.926 131.338 113.761 131.895C113.419 133.045 114.077 134.261 115.226 134.605C115.782 134.771 116.373 134.711 116.885 134.434C117.398 134.157 117.771 133.697 117.936 133.141C118.101 132.584 118.042 131.994 117.765 131.481C117.52 131.026 117.132 130.682 116.655 130.492Z" fill="#C6B44B"/>
<path d="M90.7672 151.924C88.4014 150.984 86.2508 149.906 84.3521 148.7C83.8194 148.361 83.6609 147.654 83.9974 147.116C84.3359 146.584 85.0437 146.425 85.5809 146.762C89.1085 148.999 95.4787 151.952 105.809 153.326C106.436 153.408 106.877 153.986 106.792 154.612C106.711 155.239 106.133 155.68 105.507 155.595C100.03 154.868 95.0475 153.618 90.7665 151.917L90.7672 151.924Z" fill="#FFEC64"/>
<path d="M81.8405 149.551C83.403 150.172 85.1732 149.409 85.7943 147.846C86.4154 146.283 85.6522 144.513 84.0897 143.892C82.5271 143.271 80.7569 144.034 80.1358 145.597C79.5147 147.159 80.2779 148.93 81.8405 149.551Z" fill="#FFEC64"/>
<path d="M81.5176 150.354C80.6261 150 79.9042 149.34 79.4727 148.475C79.0044 147.544 78.9275 146.481 79.2578 145.49C79.5882 144.499 80.2811 143.694 81.216 143.227C82.1508 142.76 83.2106 142.682 84.2012 143.012C85.1905 143.346 85.9973 144.035 86.4644 144.97C86.9327 145.902 87.0096 146.965 86.6792 147.955C86.3488 148.946 85.6559 149.751 84.7211 150.219C83.7895 150.687 82.7265 150.764 81.7359 150.433C81.6638 150.408 81.5885 150.382 81.5176 150.354ZM83.7733 144.698C83.7347 144.683 83.6928 144.666 83.6529 144.654C83.0994 144.471 82.5122 144.514 81.9905 144.776C81.4701 145.035 81.0826 145.485 80.9011 146.035C80.7183 146.589 80.7608 147.176 81.0231 147.698C81.2821 148.218 81.7319 148.605 82.2822 148.787C82.8358 148.97 83.4229 148.927 83.9446 148.665C84.465 148.406 84.8526 147.956 85.034 147.406C85.2168 146.852 85.1743 146.265 84.9153 145.745C84.6737 145.265 84.2722 144.896 83.7765 144.699L83.7733 144.698Z" fill="#C6B44B"/>
<path d="M106.652 157.918C108.215 158.54 109.985 157.776 110.606 156.214C111.227 154.651 110.464 152.881 108.901 152.26C107.339 151.639 105.569 152.402 104.947 153.965C104.326 155.527 105.09 157.297 106.652 157.918Z" fill="#FFEC64"/>
<path d="M106.326 158.72C105.434 158.366 104.712 157.706 104.281 156.841C103.813 155.91 103.736 154.847 104.066 153.856C104.396 152.866 105.089 152.06 106.024 151.593C106.959 151.126 108.019 151.048 109.009 151.378C109.999 151.712 110.805 152.402 111.273 153.336C111.741 154.268 111.818 155.331 111.487 156.322C110.809 158.366 108.592 159.48 106.544 158.8C106.472 158.775 106.397 158.748 106.326 158.72ZM108.585 153.066C108.546 153.05 108.504 153.034 108.464 153.021C107.911 152.839 107.324 152.881 106.802 153.143C106.281 153.402 105.894 153.852 105.712 154.403C105.53 154.956 105.572 155.543 105.834 156.065C106.093 156.585 106.54 156.972 107.094 157.154C108.233 157.533 109.467 156.913 109.845 155.773C110.028 155.22 109.986 154.633 109.723 154.111C109.482 153.631 109.08 153.263 108.585 153.066Z" fill="#C6B44B"/>
<path d="M110.86 96.6294C107.897 97.4347 107.746 99.8232 110.168 101.155C112.594 102.488 112.724 102.734 115.777 101.908C119.086 101.01 120.672 97.9466 117.678 97.1253C114.683 96.304 112.515 96.1801 110.86 96.6294Z" fill="#3A1919"/>
<path d="M99.6467 96.9727C101.231 97.6023 103.025 96.8286 103.655 95.2447C104.284 93.6608 103.511 91.8665 101.927 91.2369C100.343 90.6073 98.5483 91.3809 97.9188 92.9648C97.2892 94.5487 98.0628 96.3431 99.6467 96.9727Z" fill="#3A1919"/>
<path d="M135.974 102.183C137.557 102.813 139.352 102.039 139.981 100.455C140.611 98.8715 139.837 97.0771 138.253 96.4476C136.67 95.818 134.875 96.5916 134.246 98.1755C133.616 99.7594 134.39 101.554 135.974 102.183Z" fill="#3A1919"/>
<path d="M88.345 110.476C87.6337 110.194 87.2866 109.388 87.5693 108.677C87.8521 107.966 88.6572 107.619 89.3686 107.901C92.5165 109.153 103.849 109.3 109.231 104.864C109.524 104.623 109.9 104.512 110.277 104.557C110.654 104.603 110.993 104.801 111.223 105.104C113.614 108.306 116.732 110.637 120.752 112.235C124.772 113.833 129.238 114.487 133.558 114.854C133.572 114.856 133.587 114.855 133.605 114.858C134.261 114.914 134.916 114.962 135.565 115.007C135.575 115.011 135.584 115.007 135.594 115.011C136.359 115.066 136.934 115.727 136.881 116.488C136.828 117.25 136.166 117.829 135.404 117.776C130.242 117.42 124.768 116.817 119.733 114.816C115.684 113.207 112.441 110.919 109.861 107.847C103.257 112.214 91.9327 111.906 88.3502 110.482L88.345 110.476Z" fill="#3A1919"/>
<path d="M182.73 139.465L67.371 173.558L64.9522 161.854L181.132 127.036L182.73 139.465Z" fill="#F4DA6E"/>
<path d="M181.543 136.73L66.8418 170.642L65.1436 164.655L181.402 130.222L181.543 136.73Z" fill="#8C3333"/>
<path d="M66.8592 174.845C66.7916 174.819 66.7233 174.784 66.6596 174.748C66.3285 174.549 66.0937 174.221 66.0144 173.839L63.597 162.132C63.4514 161.429 63.8673 160.73 64.557 160.523L180.737 125.705C181.127 125.588 181.55 125.648 181.891 125.869C182.231 126.091 182.457 126.452 182.51 126.853L184.106 139.285C184.192 139.96 183.778 140.597 183.125 140.788L67.7655 174.881C67.4653 174.971 67.1482 174.953 66.8617 174.839L66.8592 174.845ZM66.5642 162.816L68.4226 171.803L181.205 138.471L179.968 128.832L66.5674 162.817L66.5642 162.816Z" fill="#3A1919"/>
<path d="M143.69 163.069L145.075 159.743C144.269 160.795 142.391 161.349 139.653 161.446L52.5105 126.409C50.6062 124.448 49.6352 122.746 49.7854 121.431L48.4741 124.786L48.4355 124.771L34.7281 158.731L34.6541 158.701L33.3406 161.959L33.4179 161.99L30.9706 168.259C30.9212 173.916 49.9352 186.029 75.0179 196.114C100.101 206.2 122.216 210.622 126.113 206.509L128.702 200.296L128.78 200.327L130.093 197.069L130.019 197.04L143.728 163.077L143.689 163.061L143.69 163.069Z" fill="#CECECE"/>
<path d="M130.02 197.048L143.728 163.084L48.4421 124.773L34.7334 158.737L34.6593 158.707L33.3459 161.965L33.494 162.024C33.4445 167.681 52.4573 179.796 77.5413 189.879C102.624 199.964 124.74 204.386 128.637 200.274L128.785 200.333L130.098 197.075L130.024 197.046L130.02 197.048Z" fill="#2E3499"/>
<path d="M126.535 205.551L126.683 205.61L128.18 201.892L128.106 201.863L143.723 163.097L107.27 149.614L87.2087 200.084C87.2087 200.084 109.899 210.843 126.535 205.551Z" fill="#2D329B"/>
<path d="M128.814 200.035C125.419 204.47 103.019 200.069 77.5575 189.829C52.0949 179.592 32.8933 167.267 33.5276 161.724L30.9729 168.263C30.9234 173.92 49.9375 186.033 75.0202 196.119C100.103 206.204 122.218 210.626 126.116 206.514L128.819 200.033L128.814 200.035Z" fill="#CECECE"/>
<path d="M145.078 159.744C141.683 164.179 119.283 159.778 93.8219 149.538C68.3594 139.302 49.1577 126.977 49.7921 121.433L47.2374 127.973C47.1879 133.63 66.202 145.742 91.2847 155.828C116.367 165.913 138.483 170.336 142.38 166.223L145.083 159.742L145.078 159.744Z" fill="#CECECE"/>
<path d="M126.535 205.551L126.683 205.61L128.18 201.892L128.106 201.863L143.723 163.097L107.27 149.614L87.2087 200.084C87.2087 200.084 109.899 210.843 126.535 205.551Z" fill="#1E2672"/>
<path d="M139.317 161.401C132.279 161.544 119.912 158.824 105.577 153.872L103.072 160.174C123.006 167.057 139.125 169.622 142.397 166.17L143.706 163.027L145.097 159.688C144.258 160.786 142.247 161.343 139.314 161.4L139.317 161.401Z" fill="#A3A3A3"/>
<path d="M123.253 201.816C116.214 201.959 103.848 199.239 89.5128 194.286L87.0078 200.589C106.941 207.472 123.06 210.036 126.333 206.585L127.642 203.441L129.032 200.103C128.194 201.201 126.183 201.758 123.249 201.815L123.253 201.816Z" fill="#A3A3A3"/>
<path d="M145.078 159.744C141.683 164.179 119.283 159.778 93.8219 149.538C68.3594 139.302 49.1577 126.977 49.7921 121.433L47.2374 127.973C47.1879 133.63 66.202 145.742 91.2847 155.828C116.367 165.913 138.483 170.336 142.38 166.223L145.083 159.742L145.078 159.744Z" fill="#CECECE"/>
<path d="M61.6634 133.923C60.1415 133.289 58.798 132.43 57.6747 131.421L39.6977 176.648C40.81 177.638 42.1401 178.483 43.6394 179.109C43.8197 179.181 43.9999 179.252 44.1769 179.323L62.1462 134.115C61.9853 134.051 61.8231 133.99 61.6634 133.923Z" fill="#8D93FF"/>
<path d="M43.6408 179.106C43.821 179.178 44.0013 179.249 44.1783 179.32L46.1793 174.285C44.5884 173.28 43.1269 172.297 41.8063 171.343L39.6978 176.648C40.8101 177.638 42.1401 178.483 43.6395 179.109L43.6408 179.106Z" fill="white"/>
<path d="M61.6775 133.888C60.1543 133.256 58.8069 132.408 57.6747 131.421L55.3666 137.228C56.686 138.184 58.1462 139.171 59.7345 140.183L62.159 134.083C61.9981 134.019 61.8359 133.958 61.6762 133.891L61.6775 133.888Z" fill="white"/>
<path d="M93.8207 149.542C119.283 159.778 141.683 164.179 145.077 159.747L145.505 158.691C146.139 153.147 126.934 140.821 101.475 130.586C76.0123 120.349 53.6125 115.948 50.2183 120.38L49.7909 121.436C49.1565 126.98 68.3614 139.306 93.8207 149.542Z" fill="#EADFB0"/>
<path d="M94.271 151.212C93.9491 151.084 93.6272 150.956 93.3021 150.827C80.942 145.858 69.5677 140.2 61.2725 134.898C52.357 129.196 48.0306 124.617 48.4105 121.279L48.432 121.094L48.9988 119.687L49.1136 119.539C51.1538 116.872 57.4533 116.562 67.8344 118.623C77.4974 120.541 89.6158 124.337 101.985 129.302C114.345 134.27 125.719 139.928 134.015 145.231C142.93 150.933 147.256 155.511 146.873 158.848L146.852 159.033L146.285 160.44L146.17 160.588C144.13 163.255 137.831 163.565 127.448 161.507C118.037 159.641 106.287 155.996 94.2652 151.217L94.271 151.212ZM51.1586 121.746C51.1694 125.544 66.2772 136.973 94.3398 148.254C94.6746 148.387 95.0125 148.521 95.3441 148.653C122.852 159.587 141.261 161.716 143.876 159.017L144.132 158.373C144.125 154.576 129.017 143.147 100.954 131.866C72.8942 120.597 54.063 118.368 51.4145 121.102L51.1573 121.749L51.1586 121.746Z" fill="#3A1919"/>
<path d="M72.8789 130.453L73.1719 129.716C75.1275 127.168 86.1124 128.818 99.8631 133.486C97.4719 132.394 94.954 131.311 92.3442 130.262C74.6338 123.141 59.0477 120.08 56.6855 123.163L56.3925 123.9C55.948 127.756 69.3052 136.331 87.0201 143.45C90.0921 144.686 93.1041 145.801 95.9909 146.781C82.1594 140.46 72.504 133.741 72.8789 130.453Z" fill="#FFF3E6"/>
<path d="M75.4661 197.79C75.1442 197.662 74.8223 197.534 74.5004 197.406C62.3366 192.516 51.0873 186.937 42.8276 181.705C34.012 176.117 29.5564 171.592 29.5852 168.256C29.5861 168.085 29.6211 167.912 29.6851 167.751L47.1532 124.264C47.1942 124.161 47.2467 124.067 47.3076 123.979L48.4948 120.936L48.9285 119.864C48.9746 119.748 49.0368 119.638 49.1137 119.538C51.1539 116.872 57.4534 116.562 67.8345 118.623C77.4975 120.541 89.6159 124.336 101.985 129.301C114.345 134.27 125.719 139.928 134.015 145.231C142.93 150.933 147.257 155.511 146.873 158.848C146.858 158.972 146.828 159.094 146.782 159.21L146.354 160.266L145.09 163.297C145.074 163.403 145.044 163.506 145.003 163.609L127.39 207.039C127.326 207.2 127.231 207.345 127.11 207.472C124.813 209.894 118.461 210.072 108.229 208.003C98.8932 206.115 87.2892 202.497 75.4571 197.794L75.4661 197.79ZM32.3734 168.499C32.887 172.543 47.8379 183.7 75.5368 194.837C103.228 205.974 121.762 208.276 124.945 205.716L142.319 162.878C142.336 162.762 142.365 162.65 142.412 162.542L144.136 158.382C144.125 154.583 129.018 143.155 100.955 131.874C72.895 120.605 54.0638 118.375 51.4153 121.109L51.0762 121.962L49.7669 125.303C49.7234 125.413 49.667 125.517 49.6003 125.61L32.3708 168.506L32.3734 168.499Z" fill="#3A1919"/>
<path d="M34.161 173.127L34.1545 173.125C33.4444 172.839 33.1018 172.032 33.3878 171.322L51.4846 126.497C51.7693 125.79 52.5732 125.446 53.2813 125.727L53.2877 125.73C53.9978 126.016 54.3405 126.823 54.0545 127.533L35.9577 172.358C35.673 173.065 34.8691 173.409 34.161 173.127Z" fill="#3A1919"/>
<path d="M53.7699 186.162L53.7635 186.159C53.0534 185.873 52.7108 185.066 52.9968 184.356L71.0827 139.549C71.3674 138.842 72.1713 138.499 72.8794 138.78L72.8858 138.783C73.5959 139.069 73.9385 139.876 73.6526 140.586L55.5666 185.393C55.282 186.1 54.4781 186.443 53.7699 186.162Z" fill="#3A1919"/>
<path d="M74.8966 196.364L74.8901 196.361C74.1801 196.075 73.8374 195.268 74.1234 194.558L92.1972 149.772C92.4818 149.065 93.2857 148.721 93.9939 149.003L94.0003 149.005C94.7104 149.291 95.053 150.099 94.767 150.809L76.6933 195.594C76.4086 196.301 75.6047 196.645 74.8966 196.364Z" fill="#3A1919"/>
<path d="M97.224 203.61L97.2176 203.607C96.5075 203.321 96.1649 202.514 96.4508 201.804L114.516 157.041C114.8 156.334 115.604 155.99 116.312 156.272L116.319 156.274C117.029 156.56 117.371 157.367 117.086 158.077L99.0207 202.841C98.736 203.547 97.9321 203.891 97.224 203.61Z" fill="#3A1919"/>
<path d="M120.451 207.769L120.444 207.766C119.734 207.48 119.391 206.673 119.677 205.963L137.736 161.224C138.021 160.517 138.825 160.173 139.533 160.454L139.54 160.457C140.25 160.743 140.592 161.55 140.306 162.26L122.247 206.999C121.963 207.706 121.159 208.05 120.451 207.769Z" fill="#3A1919"/>
<path d="M40.4421 160.092C39.9183 159.694 39.3991 159.294 38.8811 158.89C38.2213 158.375 37.9348 157.333 38.2386 156.577C40.5801 150.78 42.9172 144.985 45.2587 139.188C45.5626 138.433 46.3501 138.243 47.0079 138.754C47.5259 139.158 48.0452 139.558 48.569 139.956C49.2325 140.462 49.5332 141.487 49.2293 142.243C46.8878 148.04 44.5508 153.835 42.2093 159.632C41.9054 160.387 41.107 160.595 40.4421 160.092Z" fill="#E9E9E9"/>
<path d="M40.2636 161.572C40.0351 161.481 39.8129 161.355 39.6035 161.198C39.0765 160.798 38.5521 160.392 38.0309 159.987C36.8782 159.089 36.4153 157.403 36.9553 156.064L43.9766 138.671C44.2818 137.913 44.8845 137.362 45.6231 137.164C46.3785 136.961 47.1931 137.143 47.8625 137.663C48.3773 138.065 48.8947 138.461 49.412 138.856C50.5794 139.745 51.0558 141.425 50.5171 142.762L43.4971 160.151C43.1919 160.91 42.5892 161.46 41.848 161.665C41.3286 161.809 40.7767 161.772 40.2681 161.57L40.2636 161.572ZM46.4077 140.048L39.5207 157.102C39.4541 157.269 39.5482 157.661 39.7299 157.804C40.1661 158.141 40.6055 158.48 41.0462 158.815L47.9415 141.731C48.0054 141.57 47.912 141.205 47.7291 141.065C47.2852 140.728 46.8458 140.389 46.4044 140.046L46.4077 140.048Z" fill="#3A1919"/>
<path d="M60.1172 173.015C59.5472 172.696 58.9831 172.371 58.4157 172.045C57.6977 171.629 57.3605 170.667 57.6644 169.912C60.0046 164.118 62.3416 158.323 64.6819 152.529C64.9857 151.774 65.8207 151.502 66.542 151.919C67.1061 152.244 67.6735 152.57 68.2434 152.89C68.9685 153.298 69.3121 154.243 69.0082 154.998C66.6712 160.793 64.3322 166.584 61.992 172.378C61.6881 173.133 60.8423 173.423 60.1172 173.015Z" fill="#E9E9E9"/>
<path d="M59.7807 174.388C59.6616 174.34 59.5496 174.285 59.4369 174.221C58.8637 173.9 58.2932 173.573 57.7226 173.245C56.4043 172.483 55.8134 170.791 56.3809 169.391L63.3971 152.012C63.6882 151.289 64.2684 150.729 64.9857 150.481C65.7152 150.231 66.5341 150.318 67.2322 150.718C67.7932 151.042 68.3573 151.367 68.9208 151.684C70.2551 152.434 70.8576 154.116 70.2901 155.516L63.2739 172.895C62.9815 173.621 62.3968 174.183 61.6782 174.434C61.067 174.649 60.3936 174.628 59.782 174.385L59.7807 174.388ZM65.9177 153.163L58.9463 170.429C58.9028 170.539 58.9785 170.77 59.1047 170.847C59.6444 171.158 60.1886 171.467 60.7328 171.777L67.7125 154.48C67.7522 154.38 67.6797 154.169 67.5541 154.1C67.0054 153.792 66.4593 153.478 65.9132 153.164L65.9177 153.163Z" fill="#3A1919"/>
<path d="M81.2929 183.103C80.6878 182.862 80.0827 182.622 79.4801 182.375C78.7134 182.063 78.3333 181.181 78.6404 180.427C80.9761 174.635 83.3151 168.845 85.6508 163.053C85.9547 162.297 86.8293 161.944 87.5993 162.258C88.2018 162.505 88.8057 162.749 89.4153 162.987C90.1878 163.294 90.5692 164.154 90.2666 164.906C87.9308 170.698 85.5919 176.488 83.2574 182.277C82.9535 183.032 82.0712 183.405 81.2974 183.101L81.2929 183.103Z" fill="#E9E9E9"/>
<path d="M80.4306 184.251C79.9381 184.055 79.4456 183.859 78.9557 183.657C77.4802 183.056 76.7626 181.373 77.3557 179.909L84.3661 162.534C84.6495 161.831 85.1964 161.28 85.8987 160.985C86.6024 160.687 87.3839 160.681 88.0952 160.964L88.1242 160.975C88.7203 161.22 89.3209 161.462 89.9241 161.698L89.9273 161.7C90.6515 161.987 91.2194 162.537 91.5245 163.251C91.8238 163.952 91.8339 164.724 91.5505 165.427L84.54 182.802C83.9515 184.264 82.2653 184.98 80.7866 184.396C80.6675 184.349 80.5484 184.301 80.4293 184.254L80.4306 184.251ZM87.0717 163.539C87.0298 163.522 86.9945 163.527 86.972 163.537C86.945 163.548 86.9386 163.564 86.936 163.571L79.9269 180.942C79.9115 180.981 79.9355 181.061 80.0063 181.089C80.6056 181.335 81.2063 181.577 81.8062 181.812C81.8771 181.84 81.9529 181.799 81.9727 181.759L88.9819 164.388C88.9819 164.388 88.9895 164.368 88.9779 164.341C88.9682 164.319 88.9489 164.293 88.9038 164.275C88.2955 164.033 87.6839 163.79 87.0749 163.54L87.0717 163.539Z" fill="#3A1919"/>
<path d="M103.665 190.228C103.03 190.073 102.396 189.914 101.763 189.752C100.959 189.544 100.551 188.752 100.854 187.997C103.189 182.208 105.527 176.421 107.861 170.632C108.165 169.877 109.071 169.436 109.879 169.645C110.511 169.807 111.145 169.966 111.779 170.124C112.587 170.323 113 171.094 112.696 171.849C110.358 177.637 108.024 183.425 105.686 189.213C105.382 189.968 104.47 190.425 103.66 190.23L103.665 190.228Z" fill="#E9E9E9"/>
<path d="M101.077 190.981C100.456 190.734 99.9441 190.277 99.6482 189.69C99.3039 189.009 99.2771 188.205 99.5695 187.478L106.576 170.114C107.139 168.716 108.741 167.922 110.222 168.302C110.852 168.462 111.478 168.622 112.11 168.776C112.891 168.967 113.544 169.473 113.896 170.161C114.243 170.835 114.273 171.641 113.982 172.364L106.972 189.728C106.407 191.121 104.81 191.932 103.335 191.573C102.697 191.416 102.057 191.255 101.417 191.091C101.3 191.059 101.186 191.025 101.074 190.98L101.077 190.981ZM111.364 171.45C110.739 171.295 110.134 171.14 109.532 170.987C109.39 170.949 109.186 171.05 109.146 171.15L102.175 188.425C102.79 188.584 103.394 188.734 103.994 188.883C104.141 188.919 104.362 188.802 104.406 188.693L111.364 171.45Z" fill="#3A1919"/>
<path d="M126.917 194.268C126.261 194.201 125.608 194.128 124.952 194.053C124.118 193.956 123.689 193.256 123.992 192.501C126.329 186.717 128.662 180.932 131 175.144C131.304 174.389 132.233 173.86 133.064 173.956C133.715 174.032 134.373 174.103 135.027 174.173C135.862 174.259 136.295 174.942 135.992 175.694C133.656 181.478 131.322 187.263 128.986 193.047C128.683 193.799 127.751 194.353 126.914 194.266L126.917 194.268Z" fill="#E9E9E9"/>
<path d="M124.075 195.247C123.56 195.043 123.132 194.686 122.852 194.217C122.46 193.554 122.407 192.739 122.712 191.981L129.719 174.624C130.258 173.287 131.767 172.407 133.227 172.578C133.876 172.653 134.526 172.725 135.174 172.792C136.019 172.879 136.736 173.316 137.137 173.986C137.532 174.643 137.582 175.453 137.277 176.212L130.271 193.565C129.728 194.904 128.225 195.797 126.772 195.645C126.113 195.577 125.453 195.504 124.793 195.428C124.54 195.399 124.299 195.34 124.074 195.251L124.075 195.247ZM134.572 175.516C134.007 175.456 133.457 175.394 132.908 175.332C132.677 175.304 132.352 175.503 132.288 175.663L125.408 192.71C125.967 192.775 126.515 192.833 127.062 192.89C127.291 192.914 127.633 192.7 127.705 192.53L134.57 175.52L134.572 175.516Z" fill="#3A1919"/>
<path d="M108.176 127.739C107.794 125.878 105.977 124.678 104.116 125.059C102.255 125.44 101.055 127.258 101.436 129.119L109.436 168.186C109.818 170.047 111.635 171.246 113.496 170.865C115.357 170.484 116.557 168.667 116.176 166.806L108.176 127.739Z" fill="#D8A577"/>
<mask id="mask1_1421_432" style="mask-type:luminance" maskUnits="userSpaceOnUse" x="99" y="117" width="18" height="54">
<path d="M108.503 122.816C107.789 119.331 105.13 116.935 102.566 117.459C100.001 117.986 98.4968 121.235 99.2112 124.717C99.5564 126.409 100.366 127.841 101.397 128.81C101.409 128.912 101.422 129.01 101.445 129.113L109.447 168.18C109.825 170.033 111.653 171.237 113.507 170.859C115.36 170.482 116.564 168.653 116.186 166.8L108.185 127.732C108.165 127.632 108.137 127.534 108.108 127.437C108.675 126.142 108.856 124.507 108.507 122.814L108.503 122.816Z" fill="white"/>
</mask>
<g mask="url(#mask1_1421_432)">
<path d="M108.536 122.967C109.245 126.432 107.685 129.401 105.12 129.928C102.555 130.456 99.9529 128.337 99.243 124.871C98.5331 121.406 100.038 118.173 102.605 117.65C105.171 117.123 107.828 119.506 108.534 122.97L108.536 122.967Z" fill="#9E673E"/>
</g>
<path d="M108.503 122.816C109.216 126.301 107.262 127.344 104.697 127.871C102.132 128.398 99.9232 128.206 99.21 124.721C98.4969 121.236 99.9975 117.986 102.565 117.463C105.13 116.936 107.788 119.334 108.501 122.819L108.503 122.816Z" fill="#D8A577"/>
<path d="M111.046 171.976C110.737 171.853 110.441 171.698 110.158 171.511C109.08 170.799 108.345 169.713 108.085 168.455L100.102 129.473C98.9998 128.297 98.2078 126.726 97.8529 124.994C96.9876 120.766 98.9754 116.777 102.286 116.099C105.597 115.421 108.994 118.307 109.859 122.535C110.215 124.264 110.103 126.02 109.553 127.534L117.54 166.517C118.074 169.122 116.386 171.68 113.781 172.213C112.852 172.403 111.909 172.319 111.046 171.976ZM104.204 118.956C103.756 118.778 103.294 118.721 102.844 118.814C101.062 119.18 100.02 121.755 100.567 124.44C100.842 125.79 101.475 126.985 102.343 127.8C102.582 128.025 102.734 128.328 102.772 128.652C102.779 128.711 102.785 128.769 102.798 128.83L110.8 167.897C110.908 168.432 111.224 168.893 111.682 169.195C112.143 169.497 112.689 169.606 113.224 169.498C114.332 169.271 115.052 168.182 114.825 167.074L106.823 128.007C106.81 127.946 106.792 127.887 106.775 127.828C106.683 127.516 106.702 127.177 106.832 126.878C107.311 125.786 107.421 124.44 107.145 123.089C106.735 121.084 105.531 119.48 104.202 118.952L104.204 118.956Z" fill="#3A1919"/>
<path d="M135.039 164.717C130.463 164.754 114.628 162.262 108.868 157.755C104.405 154.263 103.583 149.896 103.987 148.055C104.569 145.401 107.309 143.232 110.971 142.534C111.302 142.471 111.66 142.424 112.041 142.393C114.478 142.198 117.698 142.677 121.104 143.185C125.263 143.805 129.781 144.349 134.078 144.8C138.543 145.271 153.015 145.029 155.154 155.045C158.163 169.145 143.084 164.65 135.041 164.714L135.039 164.717Z" fill="#FFE14D"/>
<path d="M136.522 160.987C131.945 161.024 116.111 158.532 110.351 154.025C106.925 151.344 105.523 148.475 105.294 146.304C104.363 147.183 104.236 146.931 103.986 148.058C103.582 149.899 104.4 154.265 108.867 157.758C114.63 162.267 130.461 164.758 135.038 164.721C142.304 164.661 155.314 168.322 155.536 158.63C151.638 162.173 142.16 160.943 136.521 160.99L136.522 160.987Z" fill="#EA911B"/>
<path d="M113.265 161.668C111.186 160.842 109.361 159.9 108.013 158.847C103.119 155.019 102.116 150.118 102.632 147.759C103.332 144.563 106.502 141.98 110.71 141.174C111.097 141.101 111.506 141.047 111.929 141.014C114.525 140.804 117.818 141.297 121.304 141.818C125.052 142.376 129.395 142.917 134.217 143.428C134.697 143.477 135.313 143.521 136.023 143.572C141.985 143.989 154.385 144.855 156.5 154.761C157.368 158.822 156.912 161.79 155.113 163.83C151.963 167.404 145.631 166.867 140.046 166.394C138.221 166.24 136.497 166.095 135.046 166.107C131.509 166.136 120.746 164.65 113.262 161.675L113.265 161.668ZM147.206 148.36C143.444 146.865 138.922 146.547 135.835 146.334C135.095 146.282 134.457 146.237 133.931 146.181C129.069 145.669 124.687 145.123 120.901 144.558C117.575 144.063 114.434 143.593 112.154 143.776C111.827 143.802 111.517 143.843 111.23 143.897C108.165 144.482 105.797 146.277 105.343 148.355C105.045 149.716 105.721 153.537 109.725 156.668C114.956 160.76 130.24 163.373 135.033 163.336C136.615 163.324 138.4 163.474 140.289 163.636C145.221 164.054 150.814 164.528 153.045 162.001C154.207 160.681 154.46 158.441 153.798 155.342C153.031 151.738 150.392 149.63 147.208 148.365L147.206 148.36Z" fill="#3A1919"/>
<path d="M163.475 140.853C163.475 140.853 156.531 142.662 147.953 143.256C141.392 143.708 134.592 142.597 134.592 142.597L132.052 164.327C132.052 164.327 153.69 170.617 169.738 164.696C172.966 163.504 176.56 161.496 176.89 156.681C177.514 147.562 163.479 140.851 163.479 140.851L163.475 140.853Z" fill="#A31E36"/>
<path d="M118.171 164.293C117.582 164.059 117.215 163.443 117.317 162.794L120.578 141.574C120.691 140.829 121.377 140.315 122.125 140.411C122.373 140.442 146.914 143.536 160.842 139.356C161.574 139.136 162.348 139.552 162.568 140.284C162.788 141.016 162.372 141.79 161.64 142.01C148.9 145.835 128.562 143.927 123.115 143.32L120.26 161.907C124.871 162.796 140.955 165.712 154.108 165.834C154.874 165.84 155.489 166.468 155.479 167.232C155.473 167.998 154.845 168.613 154.081 168.603C138.354 168.457 118.603 164.405 118.404 164.363C118.325 164.347 118.245 164.322 118.171 164.293Z" fill="#3A1919"/>
<path d="M138.449 142.188L117.278 139.893L114.508 165.444L135.679 167.739L138.449 142.188Z" fill="#A31E36"/>
<path d="M131.568 141.443L124.158 140.639L121.388 166.19L128.798 166.994L131.568 141.443Z" fill="#FFEC64"/>
<path d="M113.983 166.736C113.42 166.512 113.05 165.933 113.119 165.3L115.891 139.748C115.932 139.384 116.114 139.047 116.399 138.817C116.684 138.588 117.051 138.48 117.416 138.52L138.588 140.816C138.956 140.854 139.289 141.039 139.519 141.324C139.748 141.609 139.856 141.976 139.815 142.34L137.043 167.892C136.96 168.653 136.276 169.201 135.515 169.118L114.343 166.823C114.215 166.809 114.092 166.779 113.98 166.735L113.983 166.736ZM118.494 141.424L116.022 164.222L134.439 166.219L136.911 143.422L118.494 141.424Z" fill="#3A1919"/>
<path d="M143.059 199.502C137.231 186.566 116.438 180.918 103.489 194.732C96.0461 202.672 93.7284 208.475 93.7284 208.475C93.7284 208.475 114.226 219.574 129.064 212.553C143.492 205.727 143.062 199.503 143.062 199.503L143.059 199.502Z" fill="#FFE14D"/>
<path d="M103.705 195.764C103.531 195.695 103.368 195.589 103.23 195.448C102.693 194.903 102.699 194.026 103.244 193.49C109.921 186.922 118.822 184.109 127.668 185.765C135.578 187.247 142.075 192.073 145.048 198.678C145.363 199.378 145.052 200.197 144.353 200.512C143.654 200.826 142.835 200.516 142.52 199.817C139.919 194.038 134.175 189.801 127.156 188.488C119.212 187 111.205 189.543 105.184 195.465C104.78 195.863 104.192 195.961 103.7 195.766L103.705 195.764Z" fill="#3A1919"/>
<path d="M51.8959 182.305C51.795 179.38 50.2853 158.563 46.5598 152.304C46.0621 151.465 45.5053 150.68 44.9043 149.961C43.1383 144.145 39.4767 139.76 35.5228 138.755C33.7144 138.297 31.0059 138.312 28.3489 140.984C27.741 141.547 20.6498 148.378 19.584 161.984C19.1759 167.174 20.8981 168.843 22.5643 170.456C24.4509 172.283 26.5914 174.353 26.6884 183.504C26.6892 183.549 26.6919 183.599 26.6958 183.645C27.0257 186.576 28.9307 191.854 33.7589 193.773C34.6118 194.112 35.5553 194.345 36.5942 194.442C40.8698 194.844 45.1557 194.986 47.5531 193.315C51.1958 190.771 51.9866 185.002 51.8959 182.305Z" fill="#3A1919"/>
<path d="M44.9696 172.667C44.7263 171.113 43.062 166.795 44.0906 162.135C47.0612 148.66 36.6906 134.523 29.3094 141.98C29.3094 141.98 22.0247 148.567 20.9625 162.089C20.1601 172.322 27.8821 165.995 28.0751 183.485C28.0751 183.485 29.0551 192.582 36.7262 193.059C46.9435 193.695 46.9379 185.213 44.9696 172.667Z" fill="#938282"/>
<path d="M33.6071 193.78C28.8819 191.902 27.0181 186.613 26.6997 183.635C26.6944 183.592 26.6905 183.546 26.6929 183.502C26.5927 174.349 24.4554 172.281 22.5688 170.454C20.9026 168.841 19.1804 167.172 19.5885 161.982C20.6543 148.376 27.7468 141.542 28.3547 140.978C30.9905 138.332 34.3205 137.803 37.4907 139.533C43.0983 142.586 47.6318 152.513 45.4485 162.432C44.7052 165.812 45.5304 169.081 46.0222 171.032C46.1682 171.612 46.285 172.068 46.3443 172.453C47.8072 181.779 48.0612 188.276 44.8138 191.842C43.0088 193.823 40.3375 194.673 36.6457 194.443C35.5219 194.373 34.5148 194.141 33.6103 193.781L33.6071 193.78ZM29.4604 183.395C29.5579 184.171 30.6366 191.294 36.8133 191.677C39.6142 191.851 41.5612 191.295 42.7605 189.975C45.2534 187.238 44.8987 181.163 43.6027 172.881C43.5635 172.623 43.4558 172.2 43.3332 171.711C42.7804 169.52 41.8547 165.857 42.7406 161.837C44.6304 153.266 40.792 144.487 36.1646 141.969C34.0543 140.817 32.0804 141.151 30.2976 142.955C30.2789 142.973 30.2603 142.992 30.243 143.007C30.1782 143.067 23.3497 149.444 22.3495 162.2C22.0447 166.09 23.0193 167.032 24.496 168.465C26.6552 170.554 29.3372 173.155 29.4623 183.399L29.4604 183.395Z" fill="#3A1919"/>
<path d="M43.4315 169.514C43.3008 168.877 44.9435 163.506 43.9792 163.157C35.3794 166.6 22.6551 166.608 22.0634 166.052C21.2481 165.881 20.6626 166.96 21.2646 167.546C21.2646 167.546 24.2472 170.245 24.9908 171.487C25.2626 171.938 36.0034 173.151 43.4315 169.514Z" fill="#3A1919"/>
<path d="M46.7389 185.667L46.0233 180.772C45.9757 180.451 45.7512 180.172 45.4371 180.062L41.8408 178.767C41.7075 178.717 41.5647 178.702 41.4232 178.72L30.0783 180.096C29.5935 180.153 29.2561 180.589 29.3279 181.065L30.2916 187.661C30.6657 190.218 32.4074 192.278 34.6637 193.175C35.7002 193.587 36.8416 193.754 38.0093 193.61L40.9897 193.248C44.7026 192.797 47.2815 189.394 46.7369 185.663L46.7389 185.667Z" fill="#3A1919"/>
<path d="M141.125 29.1557C129.188 26.6287 113.21 25.276 112.701 27.6717C109.063 44.862 111.509 60.0689 107.87 77.2591C120.951 84.7953 135.298 85.5335 151.943 85.5449C155.582 68.3547 164.072 56.5034 167.711 39.3132C168.219 36.9175 153.059 31.6781 141.125 29.1557Z" fill="#A31E36"/>
<path fill-rule="evenodd" clip-rule="evenodd" d="M167.709 39.3161C168.038 37.766 161.791 35.0183 154.108 32.594C155.547 33.4271 156.343 34.1721 156.221 34.7499C152.583 51.9402 146.908 64.6684 143.273 81.8599C131.883 81.8499 118.368 81.5769 108.796 78.9426C121.524 85.7985 135.473 86.4899 151.562 86.5038C155.2 69.3136 164.069 56.5096 167.708 39.3194L167.709 39.3161Z" fill="#791628"/>
<path d="M123.945 29.185C120.638 28.933 118.314 28.9187 116.749 29.0122L119.135 69.3508L128.157 71.2595L147.701 33.257C145.444 32.6541 143.185 32.1103 141.057 31.6596C135.656 30.5155 129.256 29.589 123.941 29.1837L123.945 29.185Z" fill="#FFEC64"/>
<path d="M150.268 86.0085C150.273 85.9661 150.279 85.9236 150.288 85.8824C151.299 81.1926 152.675 76.8757 154.195 72.7611C139.063 71.9346 124.458 69.3125 110.712 65.0265C110.383 69.2195 109.872 73.4966 108.98 77.8793C108.925 78.1483 108.791 78.393 108.599 78.5851C108.286 78.8932 107.877 79.3231 107.448 79.8386C120.186 84.1301 133.659 86.9656 147.589 88.2385C149.162 87.3842 150.02 86.6407 150.17 86.2641L150.27 86.013L150.268 86.0085Z" fill="#2E3499"/>
<path d="M108.562 75.5176L107.504 78.1795C118.225 83.7006 138.163 86.4932 151.562 86.504C152.561 81.7872 154.083 77.077 155.651 72.8401C152.3 72.6821 148.975 72.4378 145.679 72.1041C144.861 75.1263 144.093 78.25 143.398 81.537C131.285 82.9506 108.562 75.5176 108.562 75.5176Z" fill="#1E2672"/>
<path d="M151.691 86.1786C117.715 82.8717 107.65 77.5698 107.65 77.5698C103.921 81.2576 99.6629 88.2385 111.7 91.8155C131.739 97.7679 150.081 90.2201 151.451 86.7728C151.574 86.4638 151.69 86.1709 151.687 86.1806L151.691 86.1786Z" fill="#3A1919"/>
<path d="M109.103 92.3858C105.401 90.9145 103.207 88.8867 102.567 86.3436C101.62 82.583 104.391 78.932 106.342 76.9197C107.958 68.7952 108.249 60.9347 108.531 53.3348C108.827 45.3122 109.135 37.0182 110.976 28.3053C111.325 26.6586 113.403 26.2508 115.175 26.0791C116.954 25.9067 119.366 25.915 122.347 26.1047C128.036 26.4686 135.024 27.4459 141.044 28.7205C147.063 29.9952 153.849 31.9319 159.196 33.9045C161.999 34.9366 164.207 35.9075 165.762 36.7866C167.311 37.6631 169.046 38.8782 168.698 40.5217C166.853 49.2442 163.744 56.6895 160.739 63.8851C157.859 70.7838 154.879 77.9149 153.072 86.1087C153.077 86.2263 153.068 86.3421 153.043 86.4625C153.024 86.5558 152.998 86.642 152.961 86.7244L152.873 86.9465C152.873 86.9465 152.865 86.9658 152.861 86.9755L152.74 87.2813C150.867 91.9935 131.142 99.0362 111.304 93.1413C110.517 92.9069 109.782 92.6557 109.1 92.3845L109.103 92.3858ZM113.626 29.1794C111.887 37.5493 111.588 45.6233 111.302 53.4336C111.011 61.2722 110.713 69.3836 108.978 77.8743C108.923 78.1433 108.789 78.388 108.597 78.5801C107.366 79.8016 104.572 82.94 105.259 85.6657C105.884 88.1541 109.325 89.6601 112.098 90.4864C123.365 93.8355 133.342 92.5345 138.285 91.4651C145.932 89.8084 149.831 87.1056 150.168 86.259L150.268 86.008C150.273 85.9655 150.279 85.923 150.288 85.8819C152.142 77.2892 155.211 69.9328 158.185 62.8177C161.106 55.8237 164.127 48.5896 165.925 40.2505C165.37 39.6497 163.017 38.1889 157.123 36.0998C152.099 34.3187 145.875 32.5718 140.47 31.4296C135.069 30.2855 128.669 29.3591 123.354 28.9538C117.118 28.4766 114.376 28.8588 113.628 29.1839L113.626 29.1794Z" fill="#3A1919"/>
<path d="M170.618 105.581C170.419 105.501 170.239 105.437 170.092 105.394C169.58 105.239 169.026 105.358 168.624 105.712C168.222 106.067 168.035 106.604 168.125 107.128C168.318 108.245 168.977 109.916 169.891 111.602L170.13 112.051C176.936 124.925 184.063 129.893 188.843 131.793C190.604 132.493 192.41 132.928 194.212 133.085C202.538 133.808 208.994 130.965 212.257 128.065C213.677 126.8 214.211 125.801 214.405 125.315C214.696 124.581 214.385 123.742 213.684 123.377C212.711 122.871 210.268 121.844 206.215 120.233C204.11 119.397 201.707 118.456 199.156 117.457C196.256 116.323 193.161 115.108 190.077 113.882C184.39 111.621 176.269 108.337 171.405 105.935C171.138 105.802 170.874 105.686 170.62 105.585L170.618 105.581Z" fill="#FF9739"/>
<path d="M214.403 125.311C214.303 125.26 188.824 135.61 169.871 108.37C165.993 102.796 167.6 108.299 170.042 112.263C181.042 133.773 197.491 138.768 212.169 128.277C214.108 126.315 216.174 126.809 214.403 125.311Z" fill="#E26917"/>
<path d="M160.343 24.2674C168.455 31.0066 159.953 43.386 150.168 39.4856C155.975 50.7019 138.064 54.1382 131.925 46.4389C131.052 47.706 125.943 62.023 125.914 69.2687C125.914 69.2687 125.43 69.6351 125.081 69.5824C124.776 69.5355 124.111 69.0513 124.111 69.0513C122.791 62.6377 120.603 39.2996 132.675 20.3962C155.638 -15.5542 188.724 16.7068 160.343 24.2674Z" fill="#CECECE"/>
<path d="M158.753 22.1441C166.865 28.8833 158.362 41.2627 148.578 37.3623C154.385 48.5786 136.473 52.0149 130.335 44.3156C129.462 45.5827 124.353 59.8997 124.324 67.1454C124.324 67.1454 123.839 67.5118 123.491 67.4591C123.185 67.4122 122.521 66.928 122.521 66.928C121.201 60.5144 119.012 37.1763 131.085 18.2729C154.048 -17.6775 187.134 14.5835 158.753 22.1441Z" fill="white"/>
<path d="M130.515 72.6698C129.516 77.3866 125.091 80.1156 120.982 78.8735C117.215 77.7343 115.075 73.6109 115.927 69.5813C116.78 65.5518 120.408 62.6515 124.312 63.1338C128.575 63.6616 131.515 67.9498 130.516 72.6666L130.515 72.6698Z" fill="#C6B44B"/>
<path d="M124.089 64.1818C124.959 64.3002 125.779 64.6001 126.525 65.079C126.887 65.3123 127.232 65.5875 127.541 65.8968C127.854 66.2075 128.138 66.5516 128.385 66.9254C128.635 67.3005 128.85 67.7065 129.023 68.1332C129.198 68.5644 129.335 69.0176 129.423 69.4811C129.608 70.4494 129.599 71.4483 129.389 72.4348C129.178 73.4245 128.786 74.338 128.224 75.1509C127.954 75.5394 127.647 75.8983 127.314 76.2206C126.982 76.5397 126.624 76.8222 126.241 77.0649C125.862 77.3056 125.461 77.5078 125.053 77.6624C124.64 77.819 124.216 77.9299 123.791 77.9958C122.916 78.1327 122.042 78.0722 121.2 77.8271C120.371 77.587 119.62 77.1802 118.964 76.6253C118.653 76.3597 118.364 76.0625 118.105 75.7395C117.851 75.4224 117.624 75.0749 117.429 74.7106C117.238 74.3476 117.073 73.9653 116.947 73.5719C116.818 73.1741 116.723 72.7639 116.665 72.3492C116.543 71.4921 116.576 70.6217 116.759 69.7588C116.942 68.8959 117.266 68.0893 117.722 67.3538C117.942 66.9976 118.195 66.6619 118.475 66.352C118.75 66.0439 119.053 65.7583 119.377 65.5068C119.702 65.252 120.051 65.0293 120.41 64.8401C120.776 64.6502 121.162 64.4944 121.555 64.3784C122.382 64.1367 123.232 64.0686 124.085 64.1838M124.177 63.7469C120.567 63.2736 117.196 65.9482 116.404 69.685C115.612 73.4217 117.612 77.2322 121.105 78.2627C124.888 79.3788 128.938 76.8513 129.854 72.5302C130.767 68.2079 128.093 64.2561 124.181 63.7449L124.177 63.7469Z" fill="white"/>
<path d="M117.388 69.8933C116.911 72.1526 117.641 74.4035 119.151 75.8088L118.312 67.6517C117.882 68.3119 117.563 69.0684 117.388 69.8933ZM126.634 71.5186C126.799 70.738 126.642 70.1466 126.502 69.6845C126.308 69.1118 126.114 68.6247 126.223 68.1086C126.343 67.534 126.874 67.0704 127.473 67.1668C127.501 67.1706 127.524 67.1796 127.552 67.1834C126.691 65.9915 125.419 65.169 123.924 64.9549C121.991 64.6786 120.135 65.4841 118.881 66.905C119.001 66.9305 119.112 66.9521 119.21 66.9686C119.75 67.0639 120.612 67.1348 120.612 67.1348C120.903 67.1644 120.837 67.6379 120.544 67.6257C120.544 67.6257 120.251 67.6134 119.932 67.5723L120.507 74.3761L122.536 70.717L122.22 67.9861C121.927 67.9147 121.66 67.8271 121.66 67.8271C121.371 67.757 121.511 67.2756 121.798 67.3412C121.798 67.3412 122.685 67.5747 123.233 67.6694C123.821 67.7729 124.766 67.8538 124.766 67.8538C125.083 67.8905 125.018 68.3826 124.696 68.3666C124.696 68.3666 124.375 68.3506 124.027 68.3057L124.715 75.389L125.76 73.4932C126.226 72.6573 126.521 72.0552 126.635 71.5154L126.634 71.5186ZM122.631 71.5562L119.889 76.3816C120.335 76.6746 120.826 76.9031 121.363 77.0531C122.006 77.2344 122.66 77.2857 123.299 77.2265C123.289 77.1962 123.283 77.1641 123.277 77.132L122.631 71.5562ZM128.46 69.0351C128.443 69.2448 128.412 69.4636 128.363 69.701C128.224 70.3503 127.951 71.0545 127.407 71.8893L124.395 77.0099C126.401 76.3906 128.074 74.6369 128.579 72.2617C128.815 71.1408 128.758 70.0372 128.46 69.0351Z" fill="white"/>
<path d="M106.927 198.61C108.687 190.618 106.543 168.96 93.7649 170.378C83.1219 172.707 80.088 184.316 78.047 193.136C75.514 202.293 59.6729 213.321 84.3641 219.956C88.9373 221.185 93.4914 220.427 96.8651 217.228C102.004 211.634 105.345 207.203 106.928 198.607L106.927 198.61Z" fill="#3A1919"/>
<mask id="mask2_1421_432" style="mask-type:luminance" maskUnits="userSpaceOnUse" x="63" y="113" width="117" height="77">
<path d="M177.558 133.749C137.825 126.707 108.596 124.221 108.596 124.221C97.6135 119.434 84.1749 113.343 84.1749 113.343C83.5032 115.033 63.6595 138.794 63.6595 138.794C63.5095 144.695 68.2702 151.388 92.901 165.442C126.727 183.032 158.413 190.159 171.188 189.217C171.188 189.217 184.353 158.057 177.558 133.749Z" fill="white"/>
</mask>
<g mask="url(#mask2_1421_432)">
<path fill-rule="evenodd" clip-rule="evenodd" d="M183.243 146.229C183.209 145.347 182.732 144.587 182.035 144.157C182.698 143.671 183.113 142.879 183.08 141.997C183.025 140.589 181.836 139.49 180.428 139.545C180.428 139.545 179.118 139.323 177.922 140.786L171.05 139.377L169.853 139.423L163.109 141.361C161.798 139.997 160.512 140.317 160.512 140.317C159.103 140.372 158.005 141.561 158.06 142.969C158.093 143.851 158.57 144.611 159.268 145.041C158.605 145.527 158.189 146.319 158.223 147.201C158.256 148.083 158.733 148.843 159.431 149.273C158.768 149.759 158.352 150.551 158.386 151.433C158.419 152.315 158.896 153.075 159.594 153.505C158.931 153.99 158.515 154.783 158.549 155.665C158.601 157.042 159.741 158.122 161.107 158.117C161.084 158.279 161.069 158.448 161.076 158.619C161.131 160.027 162.319 161.126 163.728 161.071C164.182 161.053 164.601 160.918 164.961 160.696C164.962 160.722 164.959 160.748 164.96 160.774C165.015 162.182 166.204 163.281 167.612 163.226C168.15 163.205 168.639 163.015 169.038 162.715C169.404 163.368 170.047 163.832 170.801 163.971C170.888 163.987 170.976 164 171.062 164.008C171.159 164.017 171.258 164.023 171.36 164.018C171.36 164.018 171.387 164.015 171.398 164.015C171.414 164.014 171.423 164.018 171.439 164.016C171.541 164.012 171.64 163.999 171.735 163.985C171.822 163.971 171.909 163.95 171.993 163.927C172.734 163.73 173.338 163.213 173.652 162.537C174.075 162.805 174.579 162.953 175.112 162.934C176.52 162.879 177.619 161.691 177.564 160.282C177.563 160.256 177.558 160.231 177.557 160.205C177.936 160.397 178.364 160.5 178.815 160.481C180.224 160.426 181.322 159.238 181.267 157.829C181.26 157.659 181.237 157.493 181.196 157.332C182.56 157.229 183.611 156.066 183.559 154.689C183.526 153.807 183.049 153.047 182.351 152.617C183.014 152.131 183.43 151.339 183.396 150.457C183.363 149.575 182.886 148.815 182.188 148.385C182.851 147.9 183.267 147.107 183.233 146.225L183.243 146.229Z" fill="#791628"/>
<path d="M166.448 163.378C165.544 163.018 164.86 162.217 164.67 161.232C164.375 161.346 164.063 161.409 163.748 161.421C162.151 161.483 160.799 160.234 160.737 158.637C160.736 158.573 160.735 158.509 160.734 158.446C159.342 158.272 158.26 157.123 158.205 155.685C158.173 154.874 158.481 154.099 159.042 153.531C158.441 153.009 158.072 152.259 158.044 151.45C158.012 150.639 158.32 149.863 158.881 149.296C158.278 148.777 157.911 148.024 157.882 147.214C157.85 146.404 158.158 145.628 158.719 145.061C158.118 144.539 157.749 143.788 157.72 142.979C157.658 141.393 158.892 140.05 160.474 139.97C160.717 139.922 161.949 139.759 163.217 140.967L169.764 139.086C169.79 139.077 169.817 139.073 169.847 139.074L171.043 139.028C171.07 139.027 171.099 139.027 171.126 139.034L177.799 140.401C178.967 139.095 180.21 139.164 180.452 139.193C182.036 139.148 183.372 140.391 183.433 141.981C183.465 142.791 183.157 143.567 182.596 144.134C183.197 144.656 183.566 145.407 183.595 146.216C183.627 147.026 183.318 147.802 182.757 148.369C183.359 148.891 183.728 149.642 183.756 150.451C183.788 151.261 183.48 152.037 182.919 152.604C183.52 153.126 183.889 153.877 183.918 154.686C183.973 156.124 182.985 157.353 181.613 157.635C181.621 157.698 181.625 157.763 181.626 157.826C181.688 159.424 180.439 160.776 178.841 160.838C178.523 160.85 178.207 160.81 177.908 160.721C177.747 162.118 176.588 163.234 175.138 163.291C174.676 163.309 174.22 163.217 173.801 163.017C173.415 163.631 172.808 164.079 172.09 164.271C171.995 164.297 171.896 164.321 171.796 164.337C171.692 164.355 171.578 164.37 171.46 164.375C171.454 164.372 171.434 164.376 171.42 164.374C171.404 164.375 171.392 164.378 171.381 164.377C171.264 164.383 171.15 164.378 171.035 164.366C170.938 164.357 170.839 164.344 170.742 164.324C170.739 164.323 170.736 164.322 170.73 164.319C170.008 164.185 169.37 163.783 168.94 163.205C168.539 163.434 168.089 163.564 167.627 163.582C167.21 163.599 166.811 163.526 166.447 163.381L166.448 163.378ZM165.094 160.38C165.094 160.38 165.123 160.391 165.136 160.396C165.246 160.459 165.313 160.571 165.314 160.698C165.313 160.702 165.313 160.739 165.312 160.742C165.36 161.98 166.387 162.932 167.603 162.883C168.046 162.865 168.475 162.715 168.837 162.441C168.917 162.38 169.018 162.361 169.115 162.38C169.211 162.4 169.298 162.464 169.345 162.55C169.666 163.121 170.221 163.517 170.87 163.637C170.87 163.637 170.877 163.64 170.88 163.641C170.953 163.655 171.023 163.665 171.095 163.671C171.185 163.68 171.269 163.684 171.353 163.68C171.353 163.68 171.373 163.677 171.391 163.677C171.402 163.677 171.435 163.679 171.447 163.677C171.519 163.675 171.602 163.663 171.683 163.647C171.766 163.635 171.84 163.617 171.911 163.596C172.548 163.428 173.07 162.987 173.346 162.396C173.39 162.306 173.468 162.24 173.562 162.21C173.656 162.18 173.758 162.195 173.844 162.251C174.225 162.492 174.663 162.61 175.105 162.596C176.32 162.549 177.273 161.519 177.224 160.303C177.225 160.3 177.218 160.242 177.216 160.237C177.207 160.11 177.269 159.993 177.37 159.925C177.476 159.856 177.606 159.848 177.717 159.907C178.051 160.077 178.429 160.16 178.804 160.145C180.018 160.098 180.972 159.069 180.922 157.852C180.916 157.708 180.896 157.562 180.862 157.422C180.838 157.323 180.861 157.22 180.919 157.139C180.977 157.058 181.072 157.006 181.173 156.998C182.364 156.908 183.262 155.905 183.213 154.715C183.184 153.981 182.795 153.311 182.169 152.925C182.071 152.863 182.012 152.758 182.005 152.643C181.998 152.529 182.053 152.42 182.148 152.35C182.742 151.915 183.079 151.218 183.05 150.483C183.022 149.749 182.632 149.079 182.006 148.693C181.908 148.631 181.849 148.526 181.842 148.412C181.836 148.297 181.89 148.188 181.985 148.118C182.579 147.683 182.916 146.986 182.887 146.251C182.859 145.517 182.469 144.848 181.843 144.461C181.745 144.399 181.686 144.294 181.679 144.18C181.673 144.065 181.728 143.953 181.822 143.886C182.416 143.451 182.753 142.754 182.724 142.019C182.678 140.805 181.648 139.851 180.432 139.901C180.409 139.903 180.384 139.9 180.36 139.894C180.317 139.889 179.221 139.74 178.178 141.014C178.098 141.112 177.967 141.161 177.84 141.133L171.009 139.733L169.896 139.776L163.192 141.703C163.07 141.74 162.936 141.702 162.845 141.61C161.704 140.422 160.626 140.657 160.582 140.665C160.561 140.672 160.538 140.674 160.514 140.676C159.3 140.722 158.346 141.752 158.396 142.968C158.424 143.703 158.814 144.372 159.44 144.759C159.538 144.82 159.597 144.925 159.604 145.04C159.61 145.154 159.556 145.263 159.461 145.334C158.867 145.768 158.53 146.466 158.559 147.2C158.587 147.935 158.977 148.604 159.602 148.99C159.701 149.052 159.76 149.157 159.766 149.272C159.773 149.386 159.719 149.495 159.624 149.565C159.03 150 158.693 150.698 158.721 151.432C158.75 152.166 159.14 152.836 159.765 153.222C159.864 153.284 159.923 153.389 159.929 153.504C159.936 153.618 159.882 153.727 159.787 153.797C159.193 154.232 158.856 154.929 158.884 155.664C158.932 156.857 159.901 157.786 161.098 157.785C161.199 157.784 161.296 157.83 161.363 157.905C161.429 157.983 161.459 158.085 161.443 158.183C161.418 158.33 161.412 158.476 161.416 158.616C161.462 159.831 162.492 160.784 163.708 160.735C164.083 160.72 164.452 160.609 164.772 160.412C164.865 160.356 164.981 160.346 165.081 160.386L165.094 160.38Z" fill="#791628"/>
</g>
<path d="M188.329 133.076C183.333 131.091 175.908 125.944 168.903 112.697L168.666 112.252C167.674 110.427 166.975 108.639 166.756 107.363C166.582 106.355 166.938 105.348 167.702 104.672C168.47 103.997 169.511 103.769 170.489 104.065C170.932 104.2 171.477 104.421 172.013 104.686C176.826 107.065 184.915 110.336 190.583 112.589C193.673 113.817 196.715 115.008 199.656 116.161C202.21 117.162 204.613 118.102 206.721 118.94C210.877 120.592 213.29 121.611 214.316 122.142C215.654 122.837 216.244 124.418 215.686 125.821C215.396 126.552 214.722 127.711 213.171 129.093C209.69 132.185 202.848 135.221 194.083 134.458C192.145 134.288 190.209 133.824 188.323 133.074L188.329 133.076ZM170.106 106.868C169.913 106.792 169.77 106.746 169.687 106.721C169.635 106.703 169.581 106.716 169.541 106.752C169.5 106.788 169.483 106.841 169.491 106.896C169.657 107.857 170.278 109.408 171.11 110.943L171.353 111.401C177.967 123.907 184.79 128.692 189.354 130.506C190.99 131.156 192.663 131.56 194.331 131.705C202.217 132.391 208.287 129.742 211.337 127.029C212.588 125.916 212.998 125.103 213.117 124.803C213.146 124.729 213.116 124.646 213.045 124.607C212.131 124.132 209.659 123.093 205.703 121.521C203.598 120.684 201.201 119.746 198.65 118.747C195.705 117.595 192.661 116.4 189.565 115.17C183.855 112.9 175.695 109.601 170.791 107.178C170.558 107.063 170.327 106.96 170.108 106.873L170.106 106.868Z" fill="#3A1919"/>
<path d="M111.958 80.5802C110.166 79.9872 109.066 79.531 108.518 79.2871C108.252 79.1668 107.945 79.2273 107.742 79.4374C104.146 83.0734 101.11 87.666 116.983 92.1603C117.439 92.2893 106.867 85.4744 112.065 81.1852C112.276 81.0085 112.221 80.6697 111.957 80.5834L111.958 80.5802Z" fill="#605555"/>
<path d="M29.9441 192.83C26.7253 191.551 24.8806 188.287 24.5367 185.701L23.7959 180.148C23.6952 179.388 24.2282 178.694 24.9857 178.589L39.7543 176.617C39.9633 176.589 40.1749 176.609 40.3719 176.676C40.554 176.697 40.7361 176.735 40.9092 176.797L44.5069 178.089C45.2986 178.366 45.8784 179.074 45.9934 179.928L46.6629 184.939C47.2618 189.434 44.6512 192.739 40.0106 193.358C39.9399 193.367 39.8717 193.37 39.8003 193.371C37.7214 193.331 34.3491 193.292 33.5864 193.354C32.2243 193.461 31.0082 193.257 29.9428 192.834L29.9441 192.83ZM26.7285 181.153L27.2882 185.334C27.583 187.527 29.4909 190.895 33.3733 190.589C34.462 190.504 38.8558 190.58 39.7512 190.597C42.7932 190.155 44.3108 188.231 43.9192 185.306L43.2909 180.595L40.0911 179.446C39.9509 179.461 39.8087 179.453 39.6742 179.426L26.7285 181.153ZM43.5876 180.702L43.578 180.698C43.578 180.698 43.5844 180.7 43.5876 180.702Z" fill="#3A1919"/>
<path d="M27.083 186.733C27.6399 190.555 30.7134 193.334 33.9491 192.939L36.9295 192.577C40.1639 192.186 42.3344 188.769 41.7774 184.948L40.9417 179.211L26.2485 180.993L27.0843 186.73L27.083 186.733Z" fill="#938282"/>
<path d="M30.8926 193.886C28.2789 192.847 26.1912 190.213 25.7133 186.934L24.8775 181.197C24.8227 180.828 24.9197 180.453 25.1461 180.155C25.3725 179.858 25.7091 179.667 26.0814 179.622L40.7745 177.84C41.5224 177.749 42.2027 178.269 42.313 179.014L43.1488 184.751C43.4994 187.16 42.9257 189.56 41.5679 191.335C40.4398 192.813 38.8512 193.743 37.097 193.956L34.1166 194.318C33.0041 194.453 31.9097 194.29 30.8926 193.886ZM27.8243 182.204L28.4544 186.536C28.901 189.613 31.2921 191.868 33.7819 191.568L36.7623 191.206C38.0548 191.049 38.8919 190.275 39.3659 189.654C40.2721 188.471 40.6493 186.828 40.4064 185.152L39.7659 180.752L27.8255 182.201L27.8243 182.204Z" fill="#3A1919"/>
<path d="M90.7572 166.785C90.7572 166.785 81.9201 170.545 77.7545 182.281C74.8317 190.516 81.7188 186.552 74.4903 201.268C71.1719 208.022 73.7868 213.802 83.2639 217.763C86.2304 219.002 91.1462 212.42 97.7347 200.346C98.4349 199.063 100.028 196.565 101.637 190.529C104.897 178.313 101.504 163.483 90.7572 166.785Z" fill="#938282"/>
<path d="M82.7895 219.069C82.7702 219.062 82.7476 219.053 82.7283 219.045C77.2111 216.74 73.7269 213.738 72.3702 210.127C71.2853 207.24 71.5788 204.054 73.2476 200.662C77.2966 192.416 76.7028 190.563 76.1252 188.771C75.6486 187.288 75.1066 185.604 76.4497 181.822C80.7694 169.651 89.8324 165.68 90.2147 165.515C90.2597 165.495 90.3034 165.479 90.3504 165.464C93.9846 164.348 97.2013 165.004 99.6544 167.366C104.668 172.195 105.12 182.853 102.978 190.887C101.477 196.511 99.9782 199.184 99.1728 200.62C99.0934 200.763 99.019 200.894 98.953 201.013C91.0654 215.475 86.5232 220.553 82.7959 219.072L82.7895 219.069ZM91.243 168.085C90.497 168.434 82.7818 172.259 79.058 182.743C78.0281 185.644 78.3531 186.645 78.7604 187.918C79.6463 190.678 79.9479 193.295 75.7304 201.88C74.4157 204.559 74.1554 207.005 74.9621 209.148C76.0393 212.018 79.013 214.486 83.7937 216.487L83.8001 216.489C84.3537 216.709 85.7974 215.975 88.0567 213.179C90.3198 210.374 93.0875 205.961 96.5105 199.684C96.5803 199.556 96.6585 199.415 96.745 199.263C97.4895 197.934 98.8792 195.46 100.291 190.173C102.509 181.856 101.406 172.908 97.7247 169.361C96.0341 167.735 93.8533 167.304 91.2385 168.087L91.243 168.085Z" fill="#3A1919"/>
<path d="M99.0797 194.731C98.9287 194.492 98.673 194.338 98.3913 194.315C88.3648 193.584 77.551 184.772 77.4408 184.683C77.165 184.458 76.779 184.416 76.4636 184.582C76.1481 184.747 75.961 185.087 75.9901 185.445L76.3962 190.303C76.414 190.511 76.5039 190.707 76.6502 190.854C76.8951 191.101 81.0488 195.223 87.467 197.774C90.219 198.868 93.3879 199.673 96.842 199.76C97.2145 199.77 97.5529 199.547 97.6911 199.199L99.1496 195.53C99.2546 195.266 99.2275 194.968 99.0765 194.729L99.0797 194.731Z" fill="#3A1919"/>
<path d="M95.0251 206.948C95.1075 206.656 95.0386 206.342 94.8406 206.118C94.6427 205.894 94.3421 205.778 94.0412 205.822L90.0173 206.418L77.6394 200.66C77.4257 200.56 77.1806 200.548 76.9608 200.632C76.739 200.712 76.5574 200.878 76.4607 201.093L74.4998 205.323C72.6227 209.37 74.2039 213.916 78.2318 215.786L81.4613 217.282C81.4839 217.291 81.5032 217.298 81.5257 217.307C83.6519 218.1 85.7176 218.004 87.6599 217.028C93.0298 214.321 94.9262 207.318 95.0303 206.953L95.0251 206.948Z" fill="#3A1919"/>
<path d="M95.8911 207.131C95.9481 206.744 95.7415 206.364 95.3835 206.195L77.6913 197.996C77.5342 197.923 77.3579 197.897 77.1875 197.923L72.4558 198.621C72.0674 198.679 71.7626 198.987 71.7055 199.374C71.6485 199.761 71.8551 200.142 72.2131 200.31L89.9052 208.509C90.0623 208.583 90.2386 208.608 90.409 208.583L95.1408 207.884C95.5292 207.826 95.834 207.519 95.8911 207.131Z" fill="#3A1919"/>
<path d="M74.6291 214.816L78.2134 216.479C86.2428 220.2 90.6943 208.025 90.6943 208.025L73.0118 199.83C73.0118 199.83 67.5778 211.551 74.6278 214.819L74.6291 214.816Z" fill="#938282"/>
<path d="M78.1567 217.962C77.9829 217.893 77.8084 217.816 77.6352 217.736L74.051 216.073C65.842 212.27 71.5161 199.776 71.7613 199.244C71.9163 198.91 72.1974 198.653 72.5425 198.525C72.8877 198.398 73.2717 198.416 73.602 198.57L91.2845 206.765C91.9386 207.07 92.2516 207.821 92.0048 208.498C91.8967 208.798 89.264 215.862 84.1725 217.972C82.2312 218.777 80.2083 218.774 78.1612 217.96L78.1567 217.962ZM73.7561 201.699C72.6908 204.585 70.7195 211.476 75.2135 213.561L78.7978 215.224C80.316 215.924 81.7209 215.991 83.1051 215.415C85.8195 214.288 87.8973 210.861 88.9018 208.718L73.7561 201.699Z" fill="#3A1919"/>
<path d="M77.0104 76.288C78.3116 74.9041 78.2447 72.7274 76.8608 71.4262C75.4769 70.1249 73.3002 70.1919 71.9989 71.5758L44.682 100.628C43.3808 102.012 43.4477 104.188 44.8316 105.49C46.2155 106.791 48.3922 106.724 49.6935 105.34L77.0104 76.288Z" fill="#D8A577"/>
<mask id="mask3_1421_432" style="mask-type:luminance" maskUnits="userSpaceOnUse" x="43" y="64" width="41" height="43">
<path d="M81.2121 73.715C83.6474 71.1235 84.0758 67.5702 82.1687 65.7759C80.2616 63.9817 76.7396 64.628 74.301 67.2183C73.1184 68.4777 72.4134 69.9605 72.2145 71.3612C72.1394 71.4282 72.063 71.4985 71.993 71.5713L44.6759 100.621C43.379 101.999 43.448 104.189 44.8273 105.482C46.2065 106.776 48.3945 106.71 49.6882 105.331L77.0054 76.2809C77.0766 76.2048 77.1414 76.1262 77.203 76.0463C78.5904 75.7629 80.0288 74.9667 81.2102 73.7105L81.2121 73.715Z" fill="white"/>
</mask>
<g mask="url(#mask3_1421_432)">
<path d="M81.1035 73.8284C78.6824 76.4032 75.3554 76.8401 73.447 75.0491C71.5399 73.2548 71.7713 69.9065 74.1925 67.3317C76.6137 64.7568 80.1228 64.124 82.0332 65.9196C83.9403 67.7138 83.5235 71.2568 81.1023 73.8316L81.1035 73.8284Z" fill="#9E673E"/>
</g>
<path d="M81.2122 73.7148C78.7769 76.3063 76.7982 75.3111 74.8878 73.5156C72.9807 71.7213 71.8638 69.8051 74.3011 67.218C76.7364 64.6265 80.2584 63.9801 82.1687 65.7756C84.0758 67.5699 83.6507 71.1245 81.2122 73.7148Z" fill="#D8A577"/>
<path d="M45.3944 107.459C44.8472 107.242 44.33 106.921 43.8769 106.495C42.9404 105.616 42.4027 104.418 42.3639 103.128C42.3251 101.838 42.7874 100.609 43.6698 99.6735L70.9286 70.686C71.2538 69.1081 72.0834 67.5556 73.2917 66.2692C74.6727 64.8016 76.4104 63.815 78.183 63.4909C80.1131 63.1362 81.8636 63.5897 83.1165 64.7698C85.5779 67.0825 85.1759 71.526 82.2201 74.6673C81.0118 75.9537 79.5126 76.8748 77.957 77.3001L50.6982 106.288C49.3031 107.772 47.1827 108.174 45.3963 107.464L45.3944 107.459ZM80.5143 66.3371C79.8448 66.071 79.1239 66.1311 78.6848 66.2137C77.5063 66.4311 76.2768 67.1426 75.3148 68.1654C74.3715 69.1696 73.7592 70.3724 73.5913 71.5543C73.5444 71.8786 73.3849 72.1767 73.141 72.3966C73.0948 72.4378 73.0486 72.4791 73.0088 72.5229L45.6916 101.573C45.3181 101.969 45.1218 102.491 45.1378 103.041C45.1538 103.592 45.3839 104.101 45.7796 104.474C46.6046 105.249 47.9057 105.211 48.6821 104.383L75.9993 75.333C76.0436 75.2872 76.0814 75.2389 76.118 75.1938C76.3213 74.9354 76.6078 74.7586 76.9286 74.6923C78.0974 74.4524 79.2608 73.7668 80.2073 72.7639C82.0843 70.7705 82.5479 68.0288 81.2241 66.7832C81.0075 66.5779 80.7654 66.4369 80.5175 66.3384L80.5143 66.3371Z" fill="#3A1919"/>
<path d="M65.8562 93.9968C65.8562 93.9968 64.9397 90.7886 62.4416 89.9186C60.9978 89.4155 57.309 90.2565 58.2514 94.7497C58.5269 96.0632 60.8018 98.395 60.8018 98.395C60.8018 98.395 61.9327 99.3663 64.2431 98.2049C67.0007 96.8186 65.8529 93.9955 65.8529 93.9955L65.8562 93.9968Z" fill="#FFE14D"/>
<path d="M60.2929 100.246C60.1448 100.187 60.0038 100.101 59.8775 99.9879C58.1123 98.3992 55.6059 94.887 57.3969 91.797C58.6394 89.6557 60.1929 89.1513 61.2804 89.1065C64.7598 88.9613 67.8862 93.3051 68.2301 93.7996C68.6662 94.4277 68.5131 95.2912 67.885 95.7274C67.2569 96.1635 66.3934 96.0104 65.9572 95.3823C65.134 94.209 62.9419 91.8095 61.3958 91.8733C61.1836 91.8821 60.5391 91.9092 59.7977 93.1837C58.7058 95.0681 61.7041 97.8961 61.7344 97.9231C62.3021 98.4358 62.3491 99.3117 61.8364 99.8795C61.4373 100.321 60.8169 100.447 60.2954 100.24L60.2929 100.246Z" fill="#3A1919"/>
<path d="M182.93 144.241C182.897 143.359 182.42 142.599 181.722 142.169C182.385 141.683 182.801 140.891 182.767 140.009C182.712 138.6 181.524 137.502 180.115 137.557C180.115 137.557 178.806 137.335 177.61 138.797L170.737 137.389L169.541 137.435L162.796 139.372C161.486 138.009 160.199 138.329 160.199 138.329C158.791 138.384 157.692 139.572 157.747 140.981C157.781 141.863 158.258 142.623 158.955 143.053C158.293 143.538 157.877 144.331 157.91 145.213C157.944 146.095 158.421 146.854 159.118 147.284C158.455 147.77 158.04 148.563 158.073 149.445C158.107 150.326 158.584 151.086 159.281 151.516C158.618 152.002 158.203 152.795 158.236 153.677C158.289 155.054 159.429 156.134 160.795 156.129C160.771 156.291 160.756 156.46 160.763 156.63C160.818 158.039 162.007 159.137 163.415 159.082C163.869 159.065 164.288 158.93 164.649 158.708C164.649 158.734 164.647 158.759 164.648 158.786C164.703 160.194 165.891 161.293 167.3 161.238C167.837 161.216 168.326 161.027 168.725 160.727C169.092 161.38 169.735 161.844 170.488 161.983C170.575 161.999 170.663 162.012 170.75 162.02C170.847 162.029 170.945 162.034 171.047 162.03C171.047 162.03 171.075 162.026 171.086 162.027C171.101 162.026 171.111 162.029 171.126 162.028C171.229 162.024 171.327 162.011 171.422 161.997C171.51 161.983 171.597 161.961 171.68 161.939C172.422 161.742 173.026 161.225 173.34 160.548C173.762 160.817 174.266 160.965 174.799 160.946C176.208 160.891 177.306 159.702 177.251 158.294C177.251 158.268 177.245 158.243 177.245 158.217C177.623 158.408 178.052 158.512 178.503 158.493C179.911 158.438 181.01 157.25 180.955 155.841C180.948 155.671 180.924 155.505 180.884 155.343C182.248 155.241 183.299 154.078 183.247 152.701C183.213 151.819 182.736 151.059 182.039 150.629C182.701 150.143 183.117 149.35 183.084 148.469C183.05 147.587 182.573 146.827 181.876 146.397C182.538 145.911 182.954 145.119 182.921 144.237L182.93 144.241Z" fill="#FFE14D"/>
<mask id="mask4_1421_432" style="mask-type:luminance" maskUnits="userSpaceOnUse" x="157" y="137" width="27" height="26">
<path d="M182.93 144.241C182.897 143.359 182.42 142.599 181.722 142.169C182.385 141.683 182.801 140.891 182.767 140.009C182.712 138.6 181.524 137.502 180.115 137.557C180.115 137.557 178.806 137.335 177.61 138.797L170.737 137.389L169.541 137.435L162.796 139.372C161.486 138.009 160.199 138.329 160.199 138.329C158.791 138.384 157.692 139.572 157.747 140.981C157.781 141.863 158.258 142.623 158.955 143.053C158.293 143.538 157.877 144.331 157.91 145.213C157.944 146.095 158.421 146.854 159.118 147.284C158.455 147.77 158.04 148.563 158.073 149.445C158.107 150.326 158.584 151.086 159.281 151.516C158.618 152.002 158.203 152.795 158.236 153.677C158.289 155.054 159.429 156.134 160.795 156.129C160.771 156.291 160.756 156.46 160.763 156.63C160.818 158.039 162.007 159.137 163.415 159.082C163.869 159.065 164.288 158.93 164.649 158.708C164.649 158.734 164.647 158.759 164.648 158.786C164.703 160.194 165.891 161.293 167.3 161.238C167.837 161.216 168.326 161.027 168.725 160.727C169.092 161.38 169.735 161.844 170.488 161.983C170.575 161.999 170.663 162.012 170.75 162.02C170.847 162.029 170.945 162.034 171.047 162.03C171.047 162.03 171.075 162.026 171.086 162.027C171.101 162.026 171.111 162.029 171.126 162.028C171.229 162.024 171.327 162.011 171.422 161.997C171.51 161.983 171.597 161.961 171.68 161.939C172.422 161.742 173.026 161.225 173.34 160.548C173.762 160.817 174.266 160.965 174.799 160.946C176.208 160.891 177.306 159.702 177.251 158.294C177.251 158.268 177.245 158.243 177.245 158.217C177.623 158.408 178.052 158.512 178.503 158.493C179.911 158.438 181.01 157.25 180.955 155.841C180.948 155.671 180.924 155.505 180.884 155.343C182.248 155.241 183.299 154.078 183.247 152.701C183.213 151.819 182.736 151.059 182.039 150.629C182.701 150.143 183.117 149.35 183.084 148.469C183.05 147.587 182.573 146.827 181.876 146.397C182.538 145.911 182.954 145.119 182.921 144.237L182.93 144.241Z" fill="white"/>
</mask>
<g mask="url(#mask4_1421_432)">
<path d="M157.785 142.9C157.499 142.787 157.333 142.669 157.295 142.642C157.066 142.469 157.02 142.145 157.19 141.914C157.363 141.685 157.687 141.639 157.918 141.809C157.934 141.823 158.515 142.218 159.579 142.063C160.711 141.898 161.61 141.051 161.619 141.04C161.827 140.843 162.156 140.851 162.354 141.056C162.552 141.261 162.547 141.591 162.342 141.789C162.295 141.834 161.201 142.879 159.73 143.092C158.851 143.22 158.197 143.064 157.785 142.9Z" fill="#C6B44B"/>
<path d="M158.069 147.221C157.821 147.123 157.675 147.024 157.64 146.999C157.408 146.832 157.351 146.507 157.517 146.275C157.684 146.043 158.009 145.986 158.241 146.153C158.259 146.164 158.845 146.546 159.907 146.368C161.027 146.176 161.842 145.344 161.849 145.336C162.046 145.131 162.377 145.124 162.582 145.321C162.79 145.52 162.798 145.847 162.599 146.055C162.556 146.098 161.548 147.143 160.082 147.391C159.159 147.546 158.478 147.384 158.069 147.221Z" fill="#C6B44B"/>
<path d="M158.215 151.271C158.009 151.189 157.884 151.11 157.851 151.089C157.612 150.931 157.547 150.607 157.706 150.368C157.864 150.129 158.188 150.064 158.427 150.222C158.445 150.233 159.042 150.597 160.111 150.411C161.389 150.188 162.083 149.491 162.09 149.483C162.291 149.279 162.617 149.275 162.825 149.473C163.03 149.67 163.038 149.997 162.839 150.205C162.802 150.243 161.919 151.152 160.289 151.436C159.32 151.606 158.611 151.428 158.215 151.271Z" fill="#C6B44B"/>
<path d="M179.377 141.975C178.801 141.746 178.502 141.466 178.454 141.418C178.25 141.217 178.247 140.888 178.449 140.681C178.649 140.477 178.974 140.476 179.179 140.673C179.209 140.7 179.723 141.161 180.809 141.232C181.943 141.306 182.78 140.804 182.785 140.798C183.031 140.65 183.348 140.724 183.501 140.967C183.651 141.21 183.58 141.528 183.337 141.681C183.292 141.708 182.221 142.367 180.741 142.267C180.181 142.231 179.726 142.11 179.375 141.97L179.377 141.975Z" fill="#C6B44B"/>
<path d="M179.501 146.097C178.873 145.848 178.554 145.535 178.503 145.485C178.305 145.279 178.31 144.949 178.515 144.751C178.72 144.554 179.044 144.555 179.246 144.759C179.275 144.789 179.777 145.261 180.861 145.356C182.066 145.466 183.087 145.167 183.095 145.167C183.369 145.086 183.658 145.241 183.742 145.517C183.823 145.792 183.667 146.08 183.396 146.162C183.346 146.176 182.184 146.519 180.77 146.393C180.256 146.345 179.835 146.231 179.501 146.097Z" fill="#C6B44B"/>
<path d="M179.85 150.161C179.055 149.845 178.701 149.499 178.653 149.45C178.455 149.245 178.459 148.915 178.665 148.717C178.87 148.519 179.192 148.524 179.396 148.724C179.415 148.743 179.862 149.156 180.944 149.425C182.107 149.716 183.328 149.504 183.34 149.502C183.625 149.451 183.893 149.64 183.945 149.921C183.997 150.203 183.807 150.474 183.527 150.523C183.467 150.533 182.079 150.779 180.693 150.432C180.367 150.351 180.09 150.26 179.849 150.164L179.85 150.161Z" fill="#C6B44B"/>
<path d="M158.75 156.106C158.489 156.002 158.356 155.707 158.454 155.444C158.553 155.174 158.851 155.035 159.12 155.135C159.143 155.144 159.848 155.376 160.829 154.953C161.855 154.511 162.424 153.574 162.431 153.566C162.578 153.319 162.89 153.238 163.144 153.387C163.391 153.534 163.47 153.852 163.324 154.096C163.293 154.147 162.585 155.327 161.24 155.907C159.862 156.503 158.806 156.124 158.762 156.111L158.75 156.106Z" fill="#C6B44B"/>
<path d="M162.295 159.594C162.121 159.525 161.994 159.366 161.971 159.171C161.939 158.886 162.145 158.629 162.43 158.597C162.442 158.594 163.7 158.442 164.352 157.728C164.982 157.043 164.991 156.421 164.994 156.395C164.994 156.112 165.223 155.875 165.507 155.873C165.791 155.87 166.025 156.09 166.034 156.376C166.037 156.482 166.033 157.438 165.12 158.432C164.201 159.431 162.616 159.621 162.55 159.628C162.463 159.639 162.375 159.626 162.298 159.595L162.295 159.594Z" fill="#C6B44B"/>
<path d="M176.771 161.002C176.526 160.905 176.39 160.638 176.463 160.38C176.465 160.374 176.715 159.389 176.187 158.28C175.776 157.428 175.351 157.184 175.348 157.183C175.1 157.047 175 156.735 175.13 156.485C175.259 156.234 175.565 156.132 175.811 156.252C175.886 156.29 176.553 156.637 177.126 157.83C177.83 159.303 177.481 160.603 177.467 160.657C177.391 160.932 177.104 161.094 176.828 161.018C176.812 161.011 176.793 161.004 176.777 160.997L176.771 161.002Z" fill="#C6B44B"/>
<path d="M180.913 157.062C180.716 156.984 180.58 156.792 180.583 156.569C180.584 156.547 180.57 155.852 179.827 155.087C179.071 154.306 178.385 154.223 178.356 154.219C178.074 154.189 177.866 153.935 177.893 153.651C177.92 153.367 178.166 153.159 178.448 153.182C178.556 153.191 179.545 153.301 180.57 154.361C181.615 155.436 181.623 156.475 181.619 156.589C181.612 156.877 181.377 157.104 181.088 157.098C181.026 157.095 180.964 157.082 180.906 157.059L180.913 157.062Z" fill="#C6B44B"/>
<path d="M180.173 155.079C179.622 154.86 179.237 154.592 179.207 154.572C178.971 154.408 178.914 154.083 179.077 153.85C179.241 153.617 179.562 153.558 179.8 153.719C179.8 153.719 180.723 154.351 181.566 154.321C182.51 154.282 183.105 153.777 183.111 153.772C183.325 153.581 183.656 153.601 183.844 153.814C184.035 154.027 184.016 154.355 183.802 154.546C183.768 154.577 182.934 155.305 181.61 155.356C181.095 155.375 180.586 155.24 180.174 155.076L180.173 155.079Z" fill="#C6B44B"/>
<path d="M166.972 162.099C166.869 162.058 166.782 161.986 166.719 161.882C166.571 161.637 166.649 161.318 166.894 161.169C166.905 161.162 167.918 160.536 168.303 159.623C168.666 158.757 168.479 158.176 168.469 158.154C168.379 157.883 168.522 157.59 168.788 157.494C169.056 157.399 169.349 157.534 169.445 157.8C169.481 157.896 169.778 158.782 169.258 160.025C168.739 161.254 167.482 162.025 167.429 162.056C167.286 162.145 167.115 162.152 166.967 162.093L166.972 162.099Z" fill="#C6B44B"/>
<path d="M172.424 162.532C172.163 162.429 172.031 162.134 172.128 161.87C172.132 161.861 172.494 160.846 172.283 159.859C172.068 158.861 171.643 158.319 171.637 158.313C171.458 158.089 171.494 157.764 171.715 157.584C171.936 157.403 172.259 157.435 172.442 157.657C172.465 157.684 173.025 158.377 173.298 159.64C173.576 160.929 173.12 162.179 173.103 162.232C173.003 162.501 172.702 162.639 172.436 162.541L172.423 162.535L172.424 162.532Z" fill="#C6B44B"/>
</g>
<path d="M169.802 157.446C166.254 157.586 163.254 154.809 163.113 151.261L162.664 139.696C162.664 139.696 164.707 138.23 170.197 138.016C175.687 137.801 177.838 139.104 177.838 139.104L178.288 150.669C178.428 154.217 175.651 157.218 172.103 157.358L169.801 157.449L169.802 157.446Z" fill="#A31E36"/>
<path d="M166.793 157.964C165.946 157.628 165.162 157.134 164.472 156.498C163.003 155.139 162.152 153.295 162.077 151.3L161.626 139.738C161.612 139.389 161.774 139.055 162.059 138.855C162.293 138.687 164.517 137.201 170.158 136.979C175.8 136.758 178.13 138.068 178.38 138.22C178.677 138.401 178.867 138.719 178.881 139.067L179.331 150.633C179.492 154.756 176.27 158.239 172.148 158.397L169.846 158.488C168.789 158.531 167.754 158.35 166.798 157.97L166.793 157.964ZM163.728 140.301L164.151 151.219C164.209 152.659 164.824 153.991 165.884 154.972C166.944 155.952 168.322 156.462 169.761 156.405L172.063 156.313C175.039 156.199 177.365 153.684 177.252 150.705L176.825 139.786C175.963 139.469 173.891 138.907 170.237 139.05C166.588 139.191 164.565 139.911 163.726 140.297L163.728 140.301Z" fill="#C6B44B"/>
</g>
</svg>
