<svg width="510" height="563" fill="none" xmlns="http://www.w3.org/2000/svg"><g clip-path="url(#a)"><path d="m362.233 34.724-1.425-1.035C336.891 16.312 309.354 7.024 278.75 6.101h-.002C211.701 4.05 152.873 33 121.161 82.121l-.389.601-.519.494c-6.027 5.728-14.478 11.584-22 16.117-3.794 2.285-7.448 4.293-10.566 5.828-2.946 1.451-5.892 2.723-8.083 3.209-6.693 1.487-10.662 7.137-9.986 13.283v.001c.474 4.31 3.59 9.982 12.156 12.802l9.356 3.079-7.027 6.901a45.074 45.074 0 0 0-3.097 3.358c-6.365 7.664-8.612 15.833-7.265 23.023a27.56 27.56 0 0 0 1.2 4.388l.977 2.662-1.438 2.446c-15.152 25.773-23.125 55.029-23.125 85.121 0 7.599.513 15.158 1.53 22.645l1.102 8.117-8.07-1.398a37.632 37.632 0 0 0-6.413-.557c-10.189 0-19.527 4.403-25.703 11.981-6.818 8.37-9.429 19.794-6.791 32.529 2.663 12.861 14.236 31.34 30.09 47.955 15.815 16.576 34.596 29.933 50.474 33.742 3.071.734 5.896 1.081 8.402 1.081 7.579 0 13.331-3.109 16.799-8.408l.002-.003c1.147-1.756 1.994-3.645 2.591-5.623l2.376-7.875 6.773 4.668c23.095 15.917 49.793 25.776 78.09 28.64l3.964.401 1.168 3.809c2.71 8.834 7.516 13.612 12.524 16.319 5.194 2.806 11.017 3.591 15.771 3.591 14.279 0 26.418-5.741 35.132-16.334l1.832-2.227 2.883.039c.88.012 1.745.021 2.604.021 6.507 0 14.623-.445 23.927-1.88l16.512-2.545-11.119 12.469c-31.796 35.654-77.915 56.508-112.711 56.514H195.084c-14.454 0-35.896-3.647-47.553-23.24-12.427-20.888-31.87-33.066-50.101-33.066-9.496 0-17.2 3.319-22.62 8.822-5.44 5.525-8.956 13.641-9.286 23.859v.001c-.33 10.202 5.04 22.26 17.208 34.815v.001C103.206 535.425 143.342 557 186.179 557c9.417 0 18.618-1.054 27.343-3.12l1.382 5.839-1.381-5.839c77.282-18.29 146.279-80.189 166.205-147.465l.556-1.878 1.556-1.188c35.683-27.24 52.832-79.076 57.603-134.231 4.75-54.916-2.94-111.315-15.124-145.722v-.001a231.958 231.958 0 0 0-5.481-14.031l-4.083-9.515 10.286 1.189c2.822.326 5.602.488 8.327.488 6.354 0 12.51-.892 18.306-2.629 18.537-5.556 31.799-15.146 40.338-25.02 8.692-10.051 12.124-19.927 11.985-25.936-.14-6.056-3.565-10.141-8.159-11.29l-133.604-1.927Zm0 0 1.759.1m-1.759-.1 1.759.1m0 0c15.759.903 37.794 1.014 53.388 1.014 9.731 0 19.478-.049 28.592-.094l1.515-.008c7.514-.036 14.563-.07 20.808-.07 20.997 0 25.269.42 27.541.984l-131.844-1.826Z" fill="#E67823" stroke="#F3EEE8" stroke-width="12"/></g><defs><clipPath id="a"><path fill="#fff" d="M0 0h510v563H0z"/></clipPath></defs></svg>