<svg width="372" height="404" viewBox="0 0 372 404" fill="none" xmlns="http://www.w3.org/2000/svg">
<mask id="mask0_1448_1524" style="mask-type:alpha" maskUnits="userSpaceOnUse" x="0" y="0" width="372" height="404">
<rect width="372" height="404" fill="#D9D9D9"/>
</mask>
<g mask="url(#mask0_1448_1524)">
<path d="M368.267 201.225C366.589 200.351 362.639 198.689 355.838 195.986C352.388 194.615 348.455 193.076 344.275 191.439C339.461 189.556 334.485 187.602 329.428 185.592C320.157 181.907 306.918 176.559 299.038 172.659C298.156 172.223 297.268 171.864 296.545 171.643C296.234 171.55 295.926 171.495 295.614 171.468C295.614 171.468 295.608 171.466 295.605 171.459C295.599 171.444 295.585 171.433 295.577 171.423C287.883 160.716 277.887 152.351 265.827 146.49C266.635 145.701 267.199 144.925 267.495 144.182L267.693 143.682C267.693 143.682 267.706 143.65 267.712 143.634L267.857 143.271C267.911 143.134 267.962 142.989 267.991 142.842C268.032 142.645 268.047 142.456 268.038 142.263C270.995 128.854 275.869 117.189 280.585 105.894C285.505 94.1133 290.59 81.9343 293.611 67.6599C294.182 64.965 291.343 62.9765 288.806 61.5474C287.325 60.7148 285.476 59.8273 283.3 58.9015C286.195 53.7512 286.157 47.1726 281.108 42.1343C280.896 41.7327 280.658 41.3332 280.393 40.9412C299.852 35.5676 301.211 22.9872 293.454 14.8654C285.832 1.39932 255.673 -5.71498 232.054 31.2548C229.265 35.6175 226.941 40.1287 225.013 44.6875C222.5 44.4266 220.065 44.2151 217.757 44.0664C212.879 43.7559 208.932 43.7424 206.02 44.0245C203.12 44.3055 199.72 44.9729 199.149 47.6677C196.129 61.9242 195.631 75.4995 195.146 88.6285C194.684 101.071 194.214 113.932 191.565 127.225C188.897 129.977 185.3 134.592 185.087 139.625C179.042 141.529 173.038 144.248 167.63 148.094C156.024 150.636 143.435 151.97 138.299 151.142C137.027 150.935 135.81 151.019 134.704 151.378C134.535 151.433 134.37 151.496 134.208 151.566C133.857 151.145 133.495 150.721 133.127 150.282C131.494 148.358 129.871 146.871 128.292 145.719L145.109 127.84C147.653 127.149 150.108 125.636 152.086 123.531C156.923 118.39 157.581 111.119 153.553 107.334C151.502 105.402 148.636 104.666 145.479 105.241C142.578 105.771 139.734 107.386 137.474 109.787C135.497 111.893 134.139 114.433 133.607 117.016L88.9896 164.444C87.5509 165.977 86.7911 167.98 86.8525 170.097C86.916 172.208 87.796 174.169 89.3286 175.607C90.0701 176.305 90.9164 176.83 91.8119 177.186C94.5773 178.285 97.8266 177.753 100.099 175.643C100.643 176.591 101.238 177.426 101.872 178.196L101.121 178.733C100.1 179.462 99.867 180.876 100.595 181.897L108.723 193.277C103.258 193.46 99.638 194.68 97.9009 196.948L97.713 197.19L97.5999 197.475L97.4073 197.959L96.7875 199.488L96.7833 199.499L94.9493 204.204C94.8497 204.348 94.7637 204.503 94.6967 204.671L83.2903 233.076C83.0678 232.853 82.8431 232.636 82.6163 232.424C82.6058 232.42 82.5994 232.405 82.5889 232.401C81.4002 231.294 80.1562 230.372 78.8779 229.675C78.6165 229.535 78.351 229.405 78.0886 229.282C78.0781 229.278 78.0623 229.272 78.0517 229.268C77.6619 229.082 77.2689 228.92 76.8749 228.775C76.8539 228.767 76.8328 228.759 76.8065 228.748C76.4704 228.627 76.1334 228.523 75.7953 228.438C75.7511 228.426 75.7058 228.402 75.6594 228.396C72.7 227.647 68.2676 227.672 63.9194 232.043C63.37 232.551 59.5948 236.186 56.0268 243.076C55.9544 243.212 55.8842 243.342 55.815 243.486C55.7605 243.592 55.7113 243.701 55.6568 243.807C55.509 244.102 55.3592 244.402 55.2125 244.71C55.092 244.967 54.9673 245.235 54.8479 245.505C54.7704 245.669 54.6949 245.828 54.6205 246C54.542 246.182 54.4593 246.375 54.3786 246.562C54.0728 247.27 53.7691 248.004 53.4782 248.766C53.3034 249.222 53.1317 249.684 52.9686 250.156C52.956 250.187 52.9455 250.214 52.933 250.245C52.798 250.631 52.6663 251.024 52.5397 251.419C52.4969 251.542 52.4561 251.66 52.4163 251.791C51.0676 255.982 50.014 260.858 49.5766 266.424C49.4639 267.843 49.454 269.095 49.5196 270.219C49.8486 275.822 52.1871 278.087 54.4539 280.287C56.8588 282.616 59.5191 285.192 60.6482 293.308L58.4142 293.603C57.1714 293.768 56.3024 294.911 56.4672 296.154L57.6795 305.242C58.0893 308.309 59.7929 311.957 62.7047 314.529C64.1634 316.384 66.018 317.81 68.0776 318.629C69.7421 319.29 71.5332 319.557 73.3537 319.335L74.7943 319.164C75.6062 319.346 76.4591 319.472 77.355 319.535C77.3729 319.536 77.396 319.539 77.4139 319.54C84.4109 320.199 91.4248 320.431 95.3482 317.696C96.7839 316.693 97.9515 315.382 98.8914 313.907C107.663 328.087 120.149 338.521 131.788 345.886C132.498 349.609 134.474 352.987 138.704 354.943L144.57 357.665C144.853 357.796 145.139 357.921 145.423 358.034C146.029 358.275 146.64 358.457 147.243 358.611C149.646 359.548 152.407 360.444 155.587 361.299C159.186 362.266 162.775 362.473 166.144 361.854C170.915 363.403 174.139 364.178 174.959 364.37L175.006 364.389C179.489 366.171 184.505 367.884 190.962 369.072C168.955 379.429 142.48 382.013 122.694 374.582C110.211 369.876 102.442 361.494 100.763 350.939C98.1883 334.782 87.6668 325.159 78.612 323.999C71.6388 323.113 65.5475 327.005 62.3236 334.409C59.591 340.685 61.3465 350.264 67.1384 360.691C73.9489 372.945 88.1733 388.797 107.689 396.555C112.362 398.412 117.131 399.703 121.861 400.401C159.346 405.906 200.994 393.231 226.661 369.232C229.706 368.662 231.531 368.106 232.014 367.95C247.089 364.445 268.989 352.149 288.842 313.865C293.23 314.243 296.969 314.32 299.942 314.099C300.791 314.034 301.532 313.505 301.862 312.721C302.084 312.193 307.371 299.582 311.369 281.866C312.849 275.305 314.24 267.538 315.014 259.239C317.113 258.67 318.594 256.739 318.502 254.483C318.496 254.346 318.482 254.212 318.466 254.084C318.663 253.772 318.645 253.356 318.387 253.07C318.319 252.995 318.238 252.938 318.155 252.887C317.972 252.442 317.728 252.028 317.424 251.657C317.433 251.526 317.431 251.392 317.425 251.255C317.414 251.006 317.375 250.765 317.324 250.526C317.944 249.674 318.272 248.633 318.231 247.555C318.232 247.537 318.225 247.523 318.226 247.505C318.472 247.316 318.601 247.007 318.545 246.686C318.48 246.343 318.224 246.083 317.9 246.009C317.72 245.541 317.459 245.108 317.141 244.725C317.15 244.595 317.154 244.462 317.153 244.327C317.142 244.079 317.104 243.838 317.052 243.598C317.672 242.746 318 241.705 317.959 240.628C317.954 240.547 317.943 240.469 317.938 240.388C318.192 240.178 318.315 239.824 318.212 239.484C318.119 239.166 317.856 238.952 317.556 238.894C317.379 238.494 317.152 238.13 316.877 237.794C316.886 237.664 316.89 237.531 316.889 237.396C316.877 237.148 316.839 236.907 316.788 236.667C317.407 235.815 317.735 234.775 317.694 233.697C317.688 233.512 317.665 233.325 317.639 233.144C317.965 232.877 318.052 232.412 317.825 232.047C317.713 231.869 317.548 231.748 317.362 231.692C318.333 231.322 318.944 230.339 318.803 229.295L316.863 214.195C320.117 216.538 323.12 218.097 325.717 219.13C328.804 220.357 331.973 221.116 335.144 221.394C349.488 222.643 360.685 217.676 366.381 212.614C368.92 210.354 370.023 208.456 370.498 207.26C371.409 204.969 370.444 202.377 368.255 201.239L368.267 201.225Z" fill="#E67823"/>
<path d="M166.631 220.198C166.631 220.198 145.395 222.077 137.171 219.443C123.804 215.167 106.642 180.171 106.642 180.171L133.129 161.353C133.129 161.353 148.676 181.611 153.576 186.547C156.308 189.298 184.42 183.07 186.44 204.874C187.742 218.909 166.631 220.198 166.631 220.198Z" fill="#791628"/>
<path d="M135.656 221.305C121.702 215.758 105.309 182.605 104.606 181.166C104.118 180.167 104.42 178.964 105.329 178.318L131.815 159.501C132.811 158.792 134.185 159.003 134.929 159.97C135.081 160.17 150.148 179.78 155.045 184.801C155.774 185.054 158.099 185.161 159.984 185.251C169.433 185.695 187.02 186.519 188.702 204.663C189.057 208.495 188.019 211.858 185.62 214.655C179.772 221.48 167.684 222.397 166.801 222.455C165.581 222.562 144.968 224.317 136.477 221.601C136.206 221.517 135.93 221.414 135.656 221.305ZM109.541 180.889C114.913 191.406 128.225 214.203 137.864 217.284C145.559 219.745 166.228 217.957 166.436 217.942C166.456 217.938 166.473 217.939 166.493 217.935C166.6 217.928 177.499 217.179 182.188 211.705C183.774 209.847 184.432 207.687 184.191 205.084C182.975 191.968 171.463 190.332 159.774 189.785C155.6 189.59 153.301 189.481 151.973 188.142C147.825 183.968 136.572 169.51 132.667 164.463L109.541 180.889Z" fill="#3A1919"/>
<path d="M90.8546 163.202C92.6161 174.131 97.2338 174.607 103.24 181.855C110.098 190.138 115.263 191.844 121.272 188.053C126.104 184.996 131.448 180.527 136.842 170.136C138.422 167.94 129.387 156.156 122.741 148.324C118.121 142.882 113.256 140.759 108.891 140.922C99.2884 141.57 90.3424 151.769 90.8598 163.204L90.8546 163.202Z" fill="#FFE14D"/>
<path d="M92.7491 169.054C94.6781 176.616 99.0354 176.457 103.24 181.855C108.041 188.022 112.02 191.439 115.351 189.335C119.797 188.876 122.81 187.036 128.453 181.495C129.234 180.129 115.484 167.301 110.848 161.456C107.625 157.394 104.518 155.574 101.893 155.335C96.1385 155.018 91.5364 161.241 92.7491 169.054Z" fill="#EA911B"/>
<path d="M111.215 191.424C107.512 189.952 104.322 186.714 101.494 183.302C99.8198 181.283 98.2789 179.834 96.7875 178.43C93.1359 175.003 89.9823 172.041 88.6134 163.561C88.5985 163.476 88.5909 163.388 88.5886 163.301C88.0324 150.936 97.446 139.422 108.735 138.658C108.761 138.655 108.786 138.653 108.804 138.654C112.654 138.513 118.495 139.823 124.465 146.856C141.181 166.553 139.781 169.876 138.775 171.319C133.052 182.293 127.328 186.904 122.481 189.967C118.254 192.636 114.528 192.741 111.215 191.424ZM93.1172 162.973C94.2447 169.819 96.4965 171.934 99.8991 175.129C101.418 176.556 103.136 178.172 104.991 180.41C111.895 188.748 115.877 188.781 120.064 186.133C124.397 183.397 129.521 179.254 134.735 169.267C134.379 167.217 129.573 159.878 121.012 149.789C117.232 145.335 113.083 143.051 109.011 143.183C100.288 143.797 92.7497 153.201 93.1172 162.973Z" fill="#3A1919"/>
<path d="M148.032 173.793L131.3 150.372L93.7977 177.164L110.53 200.585L148.032 173.793Z" fill="#A31E36"/>
<path d="M131.291 150.369L119.928 158.485C119.181 160.749 119.015 163.27 119.897 165.975C122.081 172.68 127.494 180.395 131.546 185.562L148.028 173.789L131.297 150.371L131.291 150.369Z" fill="#791628"/>
<path d="M142.595 166.183L136.74 157.987L99.2376 184.779L105.093 192.975L142.595 166.183Z" fill="#FFEC64"/>
<path d="M136.731 157.984L121.126 169.129L99.2252 184.774L105.081 192.969L126.07 177.975L142.586 166.179L136.731 157.984Z" fill="#FFEC64"/>
<path d="M136.731 157.984L121.124 169.134C122.435 172.095 124.199 175.132 126.068 177.98L142.586 166.179L136.731 157.984Z" fill="#DDC84B"/>
<path d="M109.677 202.689C109.277 202.53 108.928 202.257 108.668 201.898L91.9369 178.479C91.2084 177.457 91.4464 176.045 92.4627 175.315L129.968 148.525C130.46 148.178 131.066 148.034 131.66 148.136C132.254 148.238 132.783 148.564 133.13 149.056L149.862 172.475C150.209 172.966 150.352 173.572 150.251 174.166C150.149 174.76 149.823 175.289 149.331 175.637L111.825 202.427C111.333 202.774 110.727 202.917 110.133 202.815C109.973 202.788 109.819 202.746 109.667 202.685L109.677 202.689ZM96.9477 177.689L111.04 197.418L144.858 173.261L130.766 153.533L96.9477 177.689Z" fill="#3A1919"/>
<path d="M170.488 142.098L161.407 146.437C148.855 149.365 135.042 150.877 129.279 149.953C128.363 149.802 127.511 149.86 126.746 150.111C125.184 150.618 124.043 151.97 123.819 153.577C123.714 154.316 123.812 155.069 124.092 155.759C124.41 156.618 124.778 157.319 125.266 158.038C129.021 163.538 139.364 167.765 154.356 169.533L158.347 170.004C159.345 160.695 159.868 150.509 170.493 142.1L170.488 142.098Z" fill="#FF9739"/>
<path d="M168.303 142.255L159.222 146.593C153.138 148.011 146.563 149.192 140.942 149.831C137.798 160.439 130.774 163.027 130.774 163.027C135.371 164.628 145.647 168.914 152.162 169.68L156.153 170.15C157.151 160.842 157.674 150.656 168.3 142.247L168.303 142.255Z" fill="#E26917"/>
<path d="M134.804 167.313C129.441 165.181 125.544 162.479 123.38 159.313C122.784 158.436 122.336 157.568 121.963 156.572C121.543 155.527 121.407 154.381 121.563 153.266C121.907 150.804 123.663 148.721 126.037 147.95C127.145 147.586 128.355 147.505 129.632 147.714C135.016 148.579 148.6 147.074 160.645 144.286L169.506 140.055C170.547 139.554 171.798 139.923 172.408 140.904C173.019 141.884 172.795 143.168 171.889 143.881C162.567 151.253 161.639 160.156 160.745 168.773L160.591 170.249C160.528 170.852 160.224 171.403 159.75 171.781C159.276 172.16 158.673 172.329 158.071 172.261L154.08 171.791C146.459 170.89 139.956 169.373 134.805 167.325L134.804 167.313ZM161.512 148.735C148.618 151.711 134.957 153.161 128.91 152.185C128.36 152.095 127.861 152.122 127.441 152.26C126.698 152.501 126.16 153.135 126.051 153.885C126.006 154.227 126.049 154.579 126.176 154.904C126.186 154.926 126.19 154.946 126.199 154.969C126.445 155.64 126.725 156.178 127.121 156.762C130.501 161.717 140.772 165.647 154.6 167.276L156.314 167.475C156.947 161.432 157.76 154.905 161.507 148.733L161.512 148.735Z" fill="#3A1919"/>
<path d="M227.099 352.259C218.552 354.211 210.673 354.928 203.505 354.854L202.814 355.427C178.448 375.631 139.941 383.302 113.246 373.271C99.9464 368.259 91.684 359.229 89.8752 347.866C87.47 332.801 77.8952 323.866 69.6796 322.82C63.6687 322.06 58.5982 325.363 55.7566 331.883C53.3068 337.509 55.0302 346.355 60.4733 356.156C67.901 369.527 82.2287 383.999 99.88 391.015C104.247 392.751 108.824 394.034 113.544 394.727C153.623 400.611 198.519 385.384 222.72 357.691L227.184 352.231C227.184 352.231 227.124 352.244 227.096 352.251L227.099 352.259Z" fill="#FF9739"/>
<path d="M221.867 353.314C196.88 377.968 154.894 391.137 117.173 385.598C112.453 384.905 107.875 383.622 103.509 381.887C85.8573 374.871 71.5296 360.398 64.1019 347.027C60.024 339.685 58.0378 332.881 58.321 327.565C57.3342 328.789 56.4732 330.234 55.7547 331.888C53.3049 337.514 55.0282 346.361 60.4714 356.161C67.899 369.532 82.2267 384.004 99.8781 391.021C104.245 392.756 108.822 394.039 113.542 394.732C153.621 400.616 198.512 385.387 222.718 357.696L227.182 352.236C227.182 352.236 227.122 352.249 227.094 352.257C225.323 352.663 223.579 353.013 221.867 353.314Z" fill="#E26917"/>
<path d="M99.0403 393.128C79.5242 385.37 65.2946 369.516 58.4893 357.264C52.6974 346.837 50.942 337.258 53.6746 330.982C56.8984 323.578 62.9823 319.689 69.9629 320.573C79.0177 321.732 89.5392 331.355 92.1142 347.512C93.7928 358.067 101.562 366.45 114.045 371.155C140.034 380.918 177.575 373.405 201.364 353.686L202.058 353.108C202.469 352.765 202.992 352.583 203.527 352.588C211.123 352.661 218.879 351.809 226.58 350.052C226.607 350.044 226.674 350.028 226.694 350.024C227.638 349.814 228.609 350.224 229.118 351.048C229.626 351.872 229.555 352.924 228.94 353.674L224.476 359.134C224.476 359.134 224.444 359.17 224.43 359.189C199.744 387.426 154.01 402.967 113.218 396.976C108.487 396.279 103.718 394.987 99.0455 393.13L99.0403 393.128ZM72.6292 325.927C71.5388 325.493 70.4508 325.207 69.3885 325.072C64.3831 324.436 60.2797 327.179 57.8341 332.794C55.7038 337.693 57.4281 346.016 62.4507 355.063C68.8818 366.629 82.3054 381.596 100.715 388.914C105.061 390.641 109.487 391.845 113.872 392.49C153.211 398.27 197.256 383.357 220.987 356.234L221.427 355.695C215.701 356.658 209.966 357.136 204.313 357.133L204.256 357.184C179.316 377.867 139.843 385.697 112.447 375.406C112.128 375.285 111.805 375.163 111.494 375.039C97.9936 369.673 89.5397 360.189 87.6317 348.231C85.7248 336.286 79.1219 328.513 72.6271 325.932L72.6292 325.927Z" fill="#3A1919"/>
<path d="M223.59 360.227C238.605 356.765 260.641 344.248 280.533 304.303C292.823 279.628 301.299 249.589 302.138 227.774C302.38 221.411 302.219 215.156 301.432 209.14C298.312 185.239 289.428 172.632 289.42 172.622C288.954 171.845 288.478 171.077 287.983 170.313C287.322 169.275 286.641 168.242 285.917 167.222C285.917 167.222 285.918 167.222 285.912 167.22C285.912 167.22 285.912 167.22 285.907 167.218C277.743 155.854 266.901 147.19 253.678 141.464C252.589 140.995 251.486 140.532 250.391 140.096C218.517 127.427 180.205 127.857 157.722 147.052C139.848 162.309 151.621 173.265 152.232 174.996C155.868 182.285 116.305 231.454 116.305 231.454C106.859 228.914 89.0187 229.234 81.2616 243.04C81.1598 243.22 80.6793 246.347 80.4949 247.701C80.4855 247.77 80.4688 247.843 80.4648 247.915C80.4141 248.303 80.3633 248.692 80.3126 249.08C77.9172 245.316 74.8113 242.587 71.2716 241.18C67.242 239.578 62.8364 239.828 59.1914 241.862C54.9883 244.211 52.1243 248.623 51.1229 254.289C48.7553 267.718 60.7128 299.28 74.1823 308.775C75.3061 309.57 76.3958 310.174 77.4177 310.58C79.8671 311.553 82.0151 311.413 83.8008 310.159C86.9253 307.96 88.2552 302.834 88.6409 299.133C109.298 343.674 167.817 356.675 167.817 356.675L168.028 356.758C175.703 359.809 184.737 362.57 199.907 362.86C215.08 363.145 223.589 360.245 223.589 360.245L223.59 360.227Z" fill="#FFE14D"/>
<path d="M299.311 228.609C299.553 222.246 299.392 215.99 298.606 209.974C296.155 191.201 290.149 179.396 287.678 175.193C289.357 180.454 290.924 186.884 291.912 194.45C292.699 200.465 292.862 206.715 292.618 213.084C291.784 234.901 285.734 269.564 273.444 294.238C253.553 334.184 231.514 346.706 216.501 350.163C216.501 350.163 207.99 353.069 192.82 352.778C177.647 352.493 160.735 346.595 160.735 346.595C160.735 346.595 99.7862 328.962 79.1272 284.427C78.7437 288.123 77.4117 293.254 74.2871 295.452C72.5068 296.709 70.3587 296.849 67.9041 295.874C66.8822 295.467 65.7946 294.858 64.6687 294.069C59.9554 290.75 55.433 284.725 51.6411 277.722C55.8877 290.518 63.3565 303.954 71.3621 309.594C72.4859 310.388 73.5756 310.992 74.5975 311.399C77.0469 312.372 79.1949 312.232 80.9806 310.977C84.1051 308.779 85.435 303.653 85.8207 299.952C106.478 344.492 164.997 357.493 164.997 357.493L165.208 357.577C172.883 360.628 181.917 363.389 197.087 363.679C212.26 363.964 220.769 361.064 220.769 361.064C235.784 357.602 257.82 345.085 277.717 305.141C290.007 280.467 298.483 250.428 299.316 228.611L299.311 228.609Z" fill="#EA911B"/>
<path d="M299.542 252.46C299.504 244.069 298.591 235.624 296.356 227.636C231.332 216.112 181.392 211.206 181.392 211.206C163.419 203.373 141.427 193.405 141.427 193.405C141.083 194.269 137.68 198.656 133.155 204.287C132.674 204.974 132.177 205.673 131.671 206.393C124.052 217.12 116.151 227.27 113.537 230.592C112.998 230.476 112.431 230.366 111.842 230.267C109.402 233.2 107.851 235.06 107.851 235.06C107.606 244.716 115.396 255.669 155.705 278.67C202.921 303.226 249.122 315.93 274.659 318.175C276.678 314.708 278.691 310.994 280.673 307.006C289.187 289.913 295.889 270.258 299.535 252.463L299.542 252.46Z" fill="#EA911B"/>
<path d="M283.216 171.304C283.216 171.304 292.054 203.546 247.002 202.194L301.43 209.146C301.43 209.146 302.817 191.538 283.211 171.301L283.216 171.304Z" fill="#EA911B"/>
<path d="M147.882 354.96C143.684 353.291 139.007 351.231 134.106 348.722C119.4 341.187 100.165 328.149 88.6431 307.813C87.7736 310.201 86.4094 312.604 84.2685 314.108C82.5838 315.293 79.7399 316.37 75.7472 314.783C74.562 314.312 73.3121 313.62 72.045 312.726C57.7415 302.643 45.5371 270.306 48.0607 255.993C49.1764 249.641 52.4423 244.663 57.2552 241.977C61.5025 239.609 66.6091 239.314 71.2813 241.172C73.7254 242.143 75.996 243.674 78.0003 245.691C78.2355 244.424 78.3539 244.202 78.4536 244.029C86.7999 229.169 104.937 228.888 114.592 231.005C117.206 227.683 125.106 217.538 132.726 206.806C150.17 182.241 149.856 177.553 149.728 177.032C149.718 177.01 149.706 176.993 149.697 176.971C149.609 176.839 149.385 176.543 149.2 176.304C146.504 172.774 138.306 162.031 155.414 147.427C169.069 135.77 187.84 132.648 201.185 132.085C217.886 131.379 235.825 134.295 250.39 140.084C251.506 140.528 252.638 140.996 253.745 141.479C267.349 147.368 278.51 156.287 286.917 167.992C286.926 168.001 286.937 168.018 286.946 168.028C287.603 168.954 288.274 169.965 289.064 171.2C289.495 171.865 289.952 172.602 290.492 173.5C291.272 174.639 299.796 187.567 302.847 210.953C303.601 216.742 303.838 222.96 303.572 229.967C302.725 252.078 294.154 282.481 281.734 307.421C261.484 348.084 238.839 360.92 223.372 364.52C222.231 364.89 213.646 367.492 199.034 367.222C183.413 366.93 174.101 364.04 166.363 360.964L166.315 360.945C165.025 360.646 157.78 358.894 147.893 354.964L147.882 354.96ZM88.6453 299.122C89.1721 299.332 89.6161 299.734 89.8636 300.277C100.248 322.661 120.723 336.753 136.072 344.635C152.844 353.248 167.332 356.53 167.477 356.564C167.594 356.592 167.724 356.65 167.825 356.671L168.036 356.755C175.373 359.672 184.22 362.413 199.115 362.692C213.633 362.966 221.946 360.22 222.025 360.191C222.097 360.164 222.171 360.145 222.246 360.126C236.763 356.783 258.164 344.575 277.671 305.397C289.826 280.986 298.212 251.308 299.036 229.793C299.296 223.046 299.071 217.076 298.348 211.543C295.359 188.634 287.078 176.534 286.724 176.028C286.701 175.994 286.678 175.961 286.66 175.929C286.108 175.014 285.666 174.302 285.241 173.651C284.483 172.459 283.847 171.511 283.236 170.64C283.225 170.636 283.224 170.623 283.216 170.614C275.292 159.595 264.773 151.193 251.946 145.637C250.879 145.176 249.795 144.727 248.715 144.298C220.992 133.278 179.613 132.721 158.357 150.873C144.517 162.688 150.324 170.298 152.808 173.548C153.301 174.195 153.642 174.642 153.851 175.146C154.69 176.931 154.78 180.065 149.608 189.227C146.712 194.365 142.411 200.963 136.832 208.846C127.373 222.209 117.339 234.836 117.241 234.962C116.678 235.671 115.753 235.974 114.875 235.741C105.66 233.268 89.5187 233.977 82.5492 245.986C82.4087 246.723 82.0755 248.866 81.9066 250.104L81.8796 250.264C81.8195 250.692 81.7729 251.07 81.7264 251.448C81.6116 252.396 80.9122 253.173 79.9738 253.386C79.0406 253.601 78.0724 253.197 77.5612 252.397C75.4161 249.031 72.6594 246.605 69.599 245.389C66.2014 244.038 62.5094 244.242 59.4616 245.94C55.865 247.945 53.4009 251.796 52.5222 256.784C50.3054 269.359 62.0001 300.108 74.6568 309.025C75.6341 309.712 76.5667 310.235 77.4201 310.575C79.7114 311.485 80.9323 310.915 81.6595 310.405C83.9801 308.772 85.1876 304.476 85.5516 300.997C85.6557 299.983 86.4276 299.162 87.4335 298.994C87.8523 298.923 88.2713 298.974 88.6453 299.122ZM149.74 177.062C149.74 177.062 149.74 177.062 149.746 177.064C149.746 177.064 149.746 177.064 149.74 177.062ZM149.638 176.814C149.638 176.814 149.661 176.878 149.677 176.915C149.666 176.88 149.648 176.848 149.638 176.814Z" fill="#3A1919"/>
<path d="M301.553 217.63C236.529 206.106 186.589 201.2 186.589 201.2C168.616 193.367 146.623 183.399 146.623 183.399C145.524 186.164 112.422 226.629 112.422 226.629C112.176 236.285 120.595 245.658 160.904 268.658C216.26 297.445 270.22 309.945 291.127 308.404C291.127 308.404 312.671 257.41 301.553 217.63Z" fill="#A31E36"/>
<path d="M199.746 288.917C186.925 283.82 173.503 277.765 159.854 270.669C159.828 270.659 159.804 270.643 159.774 270.625C139.639 259.132 127.351 251.021 119.933 244.316C112.922 237.985 110 232.676 110.152 226.569C110.163 226.067 110.345 225.578 110.663 225.192C123.064 210.029 143.192 185.079 144.534 182.502C144.77 181.955 145.213 181.515 145.771 181.291C146.345 181.062 146.997 181.077 147.556 181.33C147.773 181.428 169.471 191.261 187.167 198.978C191.805 199.449 240.439 204.495 301.947 215.396C302.807 215.548 303.502 216.178 303.737 217.016C309.611 238.022 306.427 262.009 302.725 278.428C298.726 296.145 293.439 308.756 293.217 309.283C292.887 310.067 292.144 310.602 291.297 310.661C276.153 311.778 241.151 305.368 199.753 288.913L199.746 288.917ZM161.988 266.668C217.578 295.571 269.208 307.029 289.559 306.225C292.715 298.178 308.746 254.471 299.733 219.615C236.233 208.416 186.855 203.508 186.362 203.458C186.126 203.438 185.895 203.376 185.678 203.278C170.82 196.799 153.019 188.778 147.44 186.255C142.102 193.807 122.075 218.395 114.683 227.431C114.948 235.527 123.153 244.503 161.982 266.666L161.988 266.668ZM144.531 182.525C144.531 182.525 144.521 182.551 144.516 182.562C144.521 182.551 144.527 182.535 144.531 182.525Z" fill="#3A1919"/>
<path fill-rule="evenodd" clip-rule="evenodd" d="M257.855 268.761C242.735 271.168 198.993 259.875 198.993 259.875L193.508 272.737C193.508 272.737 231.694 283.505 256.705 281.259C278.459 279.305 291.714 265.756 289.988 260.721C288.647 256.79 271.374 266.607 257.85 268.758L257.855 268.761Z" fill="#791628"/>
<path d="M145.266 176.595L142.759 186.798C142.628 187.313 142.874 187.844 143.345 188.086L177.157 204.612C177.157 204.612 177.212 204.518 177.307 204.342C180.301 198.804 178.101 191.879 172.497 189.005L146.885 175.866C146.236 175.535 145.447 175.892 145.271 176.597L145.266 176.595Z" fill="#2E3499"/>
<path d="M176.314 206.717C176.261 206.696 176.209 206.675 176.158 206.649L142.347 190.123C140.891 189.38 140.168 187.793 140.559 186.24L143.065 176.055C143.065 176.055 143.069 176.045 143.071 176.04C143.326 175.031 144.021 174.203 144.966 173.773C145.911 173.344 146.998 173.373 147.919 173.849L173.53 186.988C176.809 188.669 179.214 191.534 180.305 195.049C181.384 198.533 181.03 202.217 179.302 205.416C179.179 205.647 179.098 205.774 179.098 205.774C178.518 206.727 177.338 207.118 176.316 206.711L176.314 206.717ZM145.175 186.459L176.019 201.537C176.508 199.877 176.495 198.097 175.968 196.399C175.241 194.054 173.638 192.148 171.454 191.03L147.119 178.545L145.173 186.464L145.175 186.459Z" fill="#3A1919"/>
<path d="M305.07 209.196L304.543 219.069C304.369 219.567 303.878 219.884 303.351 219.827L177.157 204.612C177.157 204.612 180.994 192.84 190.365 193.296L304.121 207.702C304.847 207.777 305.312 208.511 305.075 209.198L305.07 209.196Z" fill="#2E3499"/>
<path d="M263.679 202.576C263.679 202.576 265.723 206.95 260.983 213.472L304.54 219.062L305.067 209.188L263.682 202.571L263.679 202.576Z" fill="#1E2672"/>
<path d="M176.314 206.717C175.876 206.543 175.499 206.234 175.238 205.832C174.874 205.26 174.783 204.553 174.995 203.911C175.175 203.367 179.494 190.505 190.466 191.03C190.525 191.035 190.584 191.04 190.643 191.045L304.399 205.452C305.389 205.553 306.303 206.123 306.864 206.999C307.352 207.766 307.514 208.678 307.321 209.547L306.807 219.188C306.797 219.397 306.757 219.607 306.684 219.804C306.164 221.311 304.693 222.251 303.108 222.079L176.878 206.862C176.68 206.838 176.493 206.788 176.314 206.717ZM190.169 195.553C185.176 195.362 182.011 199.765 180.457 202.722L302.361 217.421L302.769 209.812L190.169 195.553ZM303.878 209.954L303.832 209.947C303.832 209.947 303.86 209.953 303.878 209.954Z" fill="#3A1919"/>
<path d="M152.242 263.532L152.2 263.516C151.207 263.097 150.743 261.948 151.162 260.956L175.351 203.846C175.765 202.864 176.888 202.401 177.868 202.791L177.91 202.807C178.903 203.226 179.367 204.375 178.948 205.367L154.76 262.477C154.345 263.459 153.222 263.922 152.242 263.532Z" fill="#3A1919"/>
<path d="M164.065 228.493C160.194 226.954 156.674 225.189 153.567 223.216C152.695 222.662 152.436 221.503 152.987 220.624C153.541 219.753 154.699 219.493 155.578 220.044C161.351 223.705 171.776 228.538 188.681 230.786C189.708 230.92 190.43 231.866 190.291 232.89C190.157 233.917 189.212 234.639 188.187 234.5C179.224 233.31 171.07 231.265 164.07 228.482L164.065 228.493Z" fill="#FFEC64"/>
<path d="M149.458 224.607C152.015 225.624 154.912 224.375 155.929 221.818C156.945 219.261 155.696 216.364 153.139 215.347C150.582 214.331 147.685 215.58 146.668 218.137C145.652 220.694 146.901 223.591 149.458 224.607Z" fill="#FFEC64"/>
<path d="M148.934 225.924C145.811 224.683 144.159 221.196 145.229 217.968C145.77 216.346 146.904 215.028 148.433 214.264C149.963 213.5 151.698 213.372 153.319 213.912C154.935 214.451 156.258 215.587 157.022 217.117C157.789 218.641 157.915 220.381 157.374 222.002C156.833 223.623 155.699 224.941 154.17 225.706C152.645 226.472 150.905 226.598 149.284 226.057C149.166 226.017 149.048 225.976 148.932 225.93L148.934 225.924ZM152.624 216.674C152.56 216.649 152.492 216.621 152.427 216.601C151.521 216.302 150.56 216.372 149.706 216.801C148.855 217.225 148.22 217.961 147.923 218.862C147.304 220.726 148.325 222.761 150.184 223.365C151.089 223.664 152.05 223.595 152.904 223.165C153.756 222.742 154.39 222.005 154.687 221.105C154.986 220.199 154.917 219.238 154.487 218.384C154.092 217.599 153.435 216.996 152.624 216.674Z" fill="#C6B44B"/>
<path d="M190.062 238.301C192.619 239.317 195.516 238.068 196.533 235.511C197.549 232.954 196.3 230.057 193.743 229.041C191.186 228.024 188.289 229.273 187.272 231.83C186.256 234.387 187.505 237.284 190.062 238.301Z" fill="#FFEC64"/>
<path d="M189.528 239.614C188.069 239.034 186.887 237.955 186.181 236.539C185.415 235.015 185.289 233.275 185.83 231.654C186.37 230.033 187.504 228.715 189.034 227.95C190.559 227.184 192.298 227.058 193.919 227.599C195.548 228.136 196.859 229.273 197.623 230.803C198.389 232.328 198.515 234.067 197.975 235.689C197.434 237.31 196.3 238.628 194.77 239.392C193.246 240.159 191.506 240.285 189.885 239.744C189.767 239.703 189.644 239.66 189.528 239.614ZM193.219 230.358C193.156 230.333 193.087 230.306 193.022 230.286C192.116 229.987 191.155 230.056 190.304 230.48C189.452 230.904 188.818 231.64 188.519 232.546C188.22 233.452 188.289 234.413 188.718 235.267C189.142 236.118 189.873 236.75 190.779 237.049C191.685 237.348 192.646 237.279 193.499 236.85C194.351 236.426 194.985 235.69 195.282 234.789C195.581 233.883 195.512 232.922 195.083 232.069C194.687 231.283 194.03 230.68 193.219 230.358Z" fill="#C6B44B"/>
<path d="M168.101 209.686C165.088 208.489 162.304 207.144 159.772 205.656C158.877 205.129 158.583 203.982 159.11 203.087C159.634 202.197 160.784 201.898 161.679 202.425C167.557 205.883 178.134 210.362 195.128 212.036C196.156 212.134 196.912 213.056 196.807 214.088C196.702 215.12 195.787 215.872 194.755 215.767C184.741 214.781 175.696 212.705 168.101 209.686Z" fill="#FFEC64"/>
<path d="M155.561 207.149C158.118 208.165 161.015 206.916 162.032 204.359C163.048 201.802 161.799 198.905 159.242 197.888C156.685 196.872 153.788 198.121 152.771 200.678C151.755 203.235 153.004 206.132 155.561 207.149Z" fill="#FFEC64"/>
<path d="M155.028 208.461C153.637 207.908 152.492 206.892 151.77 205.562C150.959 204.057 150.781 202.326 151.267 200.69C151.753 199.053 152.851 197.702 154.356 196.892C155.862 196.081 157.592 195.902 159.229 196.388C160.871 196.876 162.216 197.972 163.027 199.478C163.838 200.983 164.016 202.714 163.53 204.35C162.522 207.731 158.949 209.66 155.568 208.652C155.383 208.596 155.202 208.53 155.028 208.461ZM158.724 199.207C158.624 199.167 158.524 199.128 158.423 199.106C157.512 198.835 156.546 198.933 155.707 199.386C154.868 199.84 154.258 200.592 153.987 201.503C153.717 202.414 153.815 203.38 154.268 204.219C154.721 205.058 155.473 205.668 156.384 205.938C158.267 206.497 160.254 205.427 160.82 203.541C161.091 202.63 160.993 201.664 160.539 200.825C160.14 200.081 159.504 199.517 158.724 199.207Z" fill="#C6B44B"/>
<path d="M196.615 219.404C199.172 220.421 202.069 219.172 203.085 216.614C204.102 214.057 202.853 211.16 200.296 210.144C197.739 209.127 194.842 210.376 193.825 212.934C192.809 215.491 194.058 218.388 196.615 219.404Z" fill="#FFEC64"/>
<path d="M196.086 220.719C193.042 219.509 191.367 216.141 192.326 212.948C192.811 211.311 193.909 209.96 195.415 209.149C196.921 208.339 198.651 208.16 200.287 208.646C201.929 209.134 203.273 210.235 204.086 211.736C204.896 213.241 205.075 214.971 204.589 216.608C204.103 218.245 203.005 219.596 201.499 220.406C199.994 221.217 198.264 221.395 196.627 220.909C196.441 220.854 196.266 220.79 196.092 220.721L196.086 220.719ZM199.778 211.463C199.678 211.423 199.578 211.383 199.477 211.362C198.565 211.091 197.599 211.189 196.76 211.642C195.921 212.096 195.311 212.847 195.041 213.758C194.482 215.641 195.558 217.63 197.438 218.194C198.349 218.465 199.315 218.367 200.154 217.914C200.993 217.46 201.603 216.708 201.873 215.797C202.144 214.886 202.046 213.92 201.593 213.081C201.193 212.337 200.557 211.773 199.778 211.463Z" fill="#C6B44B"/>
<path d="M157.411 246.538C153.54 244.999 150.02 243.234 146.913 241.261C146.041 240.707 145.782 239.548 146.332 238.669C146.886 237.798 148.045 237.538 148.924 238.089C154.697 241.75 165.121 246.583 182.027 248.831C183.053 248.965 183.775 249.911 183.637 250.935C183.503 251.962 182.557 252.684 181.533 252.545C172.569 251.355 164.416 249.31 157.41 246.525L157.411 246.538Z" fill="#FFEC64"/>
<path d="M142.803 242.653C145.36 243.669 148.257 242.42 149.274 239.863C150.29 237.306 149.041 234.409 146.484 233.392C143.927 232.376 141.03 233.625 140.014 236.182C138.997 238.739 140.246 241.636 142.803 242.653Z" fill="#FFEC64"/>
<path d="M142.275 243.967C140.816 243.387 139.634 242.308 138.928 240.893C138.162 239.368 138.036 237.628 138.576 236.007C139.117 234.386 140.251 233.068 141.781 232.304C143.311 231.539 145.045 231.411 146.666 231.952C148.285 232.498 149.606 233.627 150.37 235.157C151.136 236.681 151.262 238.421 150.722 240.042C150.181 241.663 149.047 242.981 147.517 243.746C145.993 244.512 144.253 244.638 142.632 244.097C142.514 244.056 142.391 244.014 142.275 243.967ZM145.966 234.711C145.903 234.686 145.834 234.659 145.769 234.639C144.863 234.34 143.902 234.41 143.048 234.839C142.197 235.263 141.563 235.999 141.266 236.899C140.967 237.805 141.036 238.766 141.465 239.62C141.889 240.472 142.625 241.106 143.526 241.403C144.432 241.702 145.393 241.632 146.246 241.203C147.098 240.779 147.732 240.043 148.029 239.143C148.328 238.237 148.259 237.276 147.835 236.424C147.44 235.639 146.782 235.036 145.971 234.713L145.966 234.711Z" fill="#C6B44B"/>
<path d="M183.407 256.347C185.964 257.363 188.861 256.114 189.878 253.557C190.894 251 189.645 248.103 187.088 247.086C184.531 246.07 181.634 247.319 180.618 249.876C179.601 252.433 180.85 255.33 183.407 256.347Z" fill="#FFEC64"/>
<path d="M182.873 257.659C181.414 257.079 180.233 256 179.527 254.584C178.76 253.06 178.634 251.32 179.175 249.699C179.716 248.078 180.85 246.76 182.38 245.995C183.909 245.231 185.644 245.103 187.265 245.644C188.884 246.19 190.204 247.318 190.969 248.848C191.735 250.373 191.861 252.112 191.32 253.733C190.21 257.08 186.582 258.901 183.23 257.789C183.112 257.748 182.989 257.705 182.873 257.659ZM186.57 248.405C186.507 248.38 186.438 248.353 186.373 248.333C185.467 248.034 184.506 248.103 183.652 248.532C182.801 248.956 182.167 249.692 181.87 250.593C181.57 251.499 181.64 252.46 182.069 253.314C182.493 254.165 183.224 254.797 184.13 255.096C185.994 255.715 188.014 254.701 188.633 252.836C188.932 251.93 188.863 250.969 188.434 250.116C188.038 249.33 187.381 248.727 186.57 248.405Z" fill="#C6B44B"/>
<path d="M190.294 156.046C185.446 157.364 185.197 161.273 189.162 163.453C193.132 165.634 193.344 166.036 198.34 164.685C203.755 163.215 206.352 158.202 201.451 156.858C196.551 155.514 193.002 155.311 190.294 156.046Z" fill="#3A1919"/>
<path d="M171.942 156.608C174.534 157.638 177.471 156.372 178.501 153.78C179.531 151.188 178.265 148.252 175.673 147.221C173.081 146.191 170.145 147.457 169.114 150.049C168.084 152.641 169.35 155.578 171.942 156.608Z" fill="#3A1919"/>
<path d="M231.392 165.136C233.984 166.166 236.921 164.9 237.951 162.308C238.981 159.716 237.715 156.779 235.123 155.749C232.531 154.719 229.594 155.985 228.564 158.577C227.534 161.169 228.8 164.105 231.392 165.136Z" fill="#3A1919"/>
<path d="M153.447 178.707C152.283 178.244 151.715 176.926 152.178 175.762C152.641 174.598 153.958 174.03 155.122 174.493C160.274 176.54 178.819 176.781 187.627 169.522C188.107 169.128 188.723 168.945 189.34 169.02C189.957 169.094 190.511 169.418 190.887 169.915C194.8 175.155 199.902 178.97 206.481 181.585C213.06 184.2 220.37 185.27 227.438 185.871C227.461 185.874 227.486 185.872 227.515 185.877C228.589 185.969 229.661 186.047 230.724 186.122C230.74 186.128 230.754 186.122 230.77 186.128C232.022 186.217 232.964 187.299 232.877 188.545C232.791 189.792 231.706 190.74 230.46 190.653C222.012 190.07 213.053 189.083 204.815 185.809C198.188 183.175 192.881 179.43 188.658 174.403C177.851 181.55 159.319 181.046 153.456 178.716L153.447 178.707Z" fill="#3A1919"/>
<path d="M307.909 226.147L119.123 281.94L115.165 262.788L305.294 205.808L307.909 226.147Z" fill="#F4DA6E"/>
<path d="M305.967 221.672L118.257 277.167L115.478 267.371L305.735 211.021L305.967 221.672Z" fill="#8C3333"/>
<path d="M118.286 284.047C118.175 284.003 118.064 283.947 117.959 283.887C117.418 283.562 117.033 283.025 116.904 282.4L112.947 263.242C112.709 262.092 113.39 260.947 114.518 260.609L304.647 203.629C305.285 203.437 305.978 203.536 306.535 203.898C307.093 204.26 307.462 204.851 307.548 205.508L310.161 225.852C310.301 226.957 309.624 227.999 308.555 228.312L119.769 284.106C119.278 284.252 118.759 284.223 118.29 284.037L118.286 284.047ZM117.803 264.361L120.845 279.068L305.414 224.52L303.388 208.746L117.809 264.363L117.803 264.361Z" fill="#3A1919"/>
<path d="M244.02 264.775L246.287 259.332C244.968 261.053 241.894 261.959 237.414 262.118L94.8048 204.781C91.6885 201.572 90.0993 198.787 90.3452 196.634L88.1993 202.125L88.1361 202.099L65.7038 257.675L65.5827 257.627L63.4333 262.958L63.5597 263.008L59.5547 273.268C59.4738 282.526 90.5903 302.348 131.638 318.853C172.686 335.358 208.878 342.595 215.256 335.865L219.493 325.697L219.619 325.747L221.769 320.416L221.647 320.368L244.082 264.787L244.019 264.762L244.02 264.775Z" fill="#CECECE"/>
<path d="M221.649 320.381L244.083 264.799L88.1466 202.103L65.7122 257.685L65.5911 257.636L63.4417 262.967L63.684 263.064C63.603 272.321 94.7175 292.149 135.767 308.649C176.815 325.154 213.008 332.391 219.385 325.66L219.628 325.756L221.777 320.426L221.656 320.378L221.649 320.381Z" fill="#2E3499"/>
<path d="M215.946 334.297L216.188 334.393L218.637 328.309L218.516 328.261L244.074 264.82L184.418 242.755L151.588 325.349C151.588 325.349 188.721 342.958 215.946 334.297Z" fill="#2D329B"/>
<path d="M219.675 325.269C214.118 332.527 177.461 325.325 135.794 308.568C94.1242 291.816 62.7006 271.646 63.7388 262.573L59.5579 273.275C59.477 282.533 90.5935 302.355 131.641 318.86C172.689 335.366 208.881 342.602 215.259 335.872L219.682 325.266L219.675 325.269Z" fill="#CECECE"/>
<path d="M246.292 259.334C240.735 266.592 204.078 259.39 162.41 242.632C120.741 225.88 89.3173 205.71 90.3555 196.638L86.1746 207.34C86.0937 216.598 117.21 236.42 158.258 252.925C199.306 269.43 235.498 276.667 241.876 269.937L246.299 259.331L246.292 259.334Z" fill="#CECECE"/>
<path d="M215.946 334.297L216.188 334.393L218.637 328.309L218.516 328.261L244.074 264.82L184.418 242.755L151.588 325.349C151.588 325.349 188.721 342.958 215.946 334.297Z" fill="#1E2672"/>
<path d="M236.863 262.046C225.345 262.28 205.107 257.828 181.648 249.724L177.549 260.038C210.17 271.302 236.548 275.498 241.904 269.85L244.047 264.706L246.322 259.242C244.949 261.039 241.659 261.951 236.858 262.044L236.863 262.046Z" fill="#A3A3A3"/>
<path d="M210.574 328.184C199.056 328.419 178.817 323.967 155.359 315.862L151.259 326.176C183.88 337.441 210.259 341.637 215.615 335.989L217.757 330.844L220.033 325.381C218.66 327.177 215.369 328.09 210.569 328.182L210.574 328.184Z" fill="#A3A3A3"/>
<path d="M246.292 259.334C240.735 266.592 204.078 259.39 162.41 242.632C120.741 225.88 89.3173 205.71 90.3555 196.638L86.1746 207.34C86.0937 216.598 117.21 236.42 158.258 252.925C199.306 269.43 235.498 276.667 241.876 269.937L246.299 259.331L246.292 259.334Z" fill="#CECECE"/>
<path d="M109.783 217.078C107.293 216.039 105.094 214.634 103.256 212.983L73.8365 286.996C75.6568 288.616 77.8334 290 80.2871 291.024C80.5821 291.141 80.8771 291.259 81.1668 291.374L110.574 217.392C110.31 217.287 110.045 217.188 109.783 217.078Z" fill="#8D93FF"/>
<path d="M80.2893 291.019C80.5843 291.136 80.8792 291.254 81.169 291.369L84.4436 283.13C81.8401 281.486 79.4483 279.876 77.2871 278.316L73.8366 286.996C75.6569 288.617 77.8335 290 80.2872 291.024L80.2893 291.019Z" fill="white"/>
<path d="M109.806 217.02C107.314 215.986 105.109 214.598 103.256 212.983L99.4787 222.485C101.638 224.051 104.028 225.666 106.627 227.321L110.594 217.339C110.331 217.235 110.066 217.135 109.804 217.025L109.806 217.02Z" fill="white"/>
<path d="M162.408 242.638C204.078 259.39 240.735 266.592 246.29 259.339L246.989 257.61C248.027 248.538 216.599 228.366 174.934 211.616C133.265 194.864 96.6075 187.662 91.0529 194.914L90.3535 196.643C89.3154 205.716 120.744 225.888 162.408 242.638Z" fill="#EADFB0"/>
<path d="M163.146 245.371C162.619 245.161 162.092 244.952 161.56 244.74C141.333 236.609 122.719 227.35 109.144 218.672C94.5534 209.341 87.4732 201.848 88.095 196.386L88.1301 196.083L89.0577 193.78L89.2456 193.537C92.5844 189.173 102.893 188.666 119.882 192.039C135.696 195.177 155.527 201.389 175.77 209.514C195.997 217.646 214.611 226.905 228.186 235.583C242.776 244.914 249.857 252.406 249.229 257.867L249.194 258.17L248.267 260.473L248.079 260.715C244.74 265.079 234.431 265.587 217.44 262.218C202.038 259.165 182.81 253.199 163.136 245.379L163.146 245.371ZM92.5923 197.149C92.61 203.365 117.334 222.068 163.258 240.53C163.806 240.747 164.359 240.967 164.902 241.183C209.918 259.076 240.044 262.56 244.325 258.143L244.744 257.09C244.731 250.875 220.007 232.173 174.083 213.711C128.163 195.27 97.3453 191.621 93.011 196.095L92.5902 197.154L92.5923 197.149Z" fill="#3A1919"/>
<path d="M128.138 211.399L128.617 210.193C131.817 206.024 149.794 208.723 172.297 216.362C168.384 214.575 164.263 212.803 159.993 211.087C131.009 199.432 105.503 194.423 101.637 199.468L101.158 200.675C100.43 206.986 122.289 221.018 151.28 232.669C156.307 234.692 161.236 236.517 165.96 238.12C143.325 227.775 127.524 216.779 128.138 211.399Z" fill="#FFF3E6"/>
<path d="M132.372 321.596C131.845 321.387 131.318 321.178 130.791 320.968C110.885 312.964 92.4756 303.835 78.9586 295.272C64.5319 286.128 57.2404 278.722 57.2875 273.263C57.289 272.983 57.3462 272.701 57.4509 272.438L86.0375 201.271C86.1045 201.102 86.1905 200.948 86.2902 200.804L88.233 195.824L88.9428 194.069C89.0182 193.88 89.1199 193.7 89.2459 193.537C92.5847 189.173 102.894 188.665 119.882 192.039C135.696 195.177 155.528 201.389 175.77 209.514C195.997 217.645 214.611 226.905 228.186 235.582C242.777 244.913 249.857 252.406 249.23 257.866C249.204 258.07 249.155 258.27 249.079 258.459L248.38 260.188L246.311 265.148C246.285 265.321 246.236 265.49 246.169 265.659L217.345 336.731C217.241 336.995 217.085 337.232 216.887 337.44C213.127 341.405 202.733 341.696 185.988 338.309C170.71 335.219 151.72 329.299 132.357 321.603L132.372 321.596ZM61.8502 273.662C62.6909 280.279 87.158 298.537 132.487 316.763C177.804 334.989 208.135 338.755 213.344 334.567L241.777 264.462C241.804 264.272 241.852 264.089 241.928 263.912L244.75 257.104C244.733 250.888 220.009 232.185 174.084 213.724C128.164 195.282 97.3467 191.633 93.0124 196.108L92.4575 197.504L90.3147 202.971C90.2435 203.15 90.1513 203.321 90.0421 203.473L61.8461 273.672L61.8502 273.662Z" fill="#3A1919"/>
<path d="M64.7751 281.235L64.7645 281.231C63.6025 280.763 63.0418 279.442 63.5098 278.28L93.1253 204.924C93.5911 203.767 94.9067 203.205 96.0656 203.665L96.0761 203.669C97.2381 204.137 97.7989 205.458 97.3309 206.62L67.7154 279.976C67.2495 281.133 65.9339 281.696 64.7751 281.235Z" fill="#3A1919"/>
<path d="M96.8658 302.567L96.8552 302.563C95.6932 302.095 95.1325 300.774 95.6004 299.612L125.198 226.285C125.664 225.128 126.98 224.566 128.138 225.026L128.149 225.03C129.311 225.498 129.872 226.819 129.404 227.981L99.8061 301.308C99.3402 302.465 98.0246 303.027 96.8658 302.567Z" fill="#3A1919"/>
<path d="M131.439 319.262L131.428 319.258C130.266 318.79 129.706 317.469 130.174 316.307L159.751 243.015C160.217 241.858 161.533 241.295 162.692 241.756L162.702 241.76C163.864 242.228 164.425 243.549 163.957 244.711L134.379 318.003C133.913 319.16 132.598 319.722 131.439 319.262Z" fill="#3A1919"/>
<path d="M167.979 331.12L167.968 331.116C166.806 330.648 166.245 329.327 166.713 328.165L196.276 254.91C196.742 253.753 198.058 253.19 199.217 253.651L199.227 253.655C200.389 254.123 200.95 255.444 200.482 256.606L170.919 329.861C170.453 331.018 169.137 331.581 167.979 331.12Z" fill="#3A1919"/>
<path d="M205.988 337.927L205.978 337.922C204.816 337.454 204.255 336.133 204.723 334.971L234.277 261.755C234.743 260.599 236.058 260.036 237.217 260.496L237.228 260.501C238.39 260.969 238.95 262.289 238.482 263.452L208.929 336.668C208.463 337.824 207.147 338.387 205.988 337.927Z" fill="#3A1919"/>
<path d="M75.0537 259.903C74.1966 259.252 73.3468 258.597 72.499 257.936C71.4194 257.092 70.9504 255.387 71.4477 254.151C75.2796 244.665 79.1041 235.181 82.936 225.694C83.4333 224.458 84.7221 224.147 85.7986 224.984C86.6463 225.644 87.4961 226.299 88.3533 226.951C89.4393 227.779 89.9313 229.457 89.434 230.692C85.6021 240.179 81.7776 249.663 77.9457 259.15C77.4484 260.386 76.1418 260.726 75.0537 259.903Z" fill="#E9E9E9"/>
<path d="M74.7621 262.325C74.3881 262.176 74.0245 261.971 73.6818 261.713C72.8194 261.059 71.9611 260.394 71.1082 259.732C69.2219 258.262 68.4644 255.503 69.348 253.311L80.8384 224.848C81.3378 223.607 82.3242 222.706 83.533 222.381C84.769 222.049 86.1023 222.347 87.1977 223.197C88.0402 223.855 88.8868 224.503 89.7335 225.151C91.6439 226.605 92.4235 229.355 91.542 231.542L80.0537 260C79.5543 261.241 78.5678 262.142 77.3549 262.477C76.5049 262.713 75.6017 262.653 74.7694 262.322L74.7621 262.325ZM84.8168 227.1L73.5462 255.01C73.4374 255.284 73.5914 255.925 73.8887 256.159C74.6025 256.711 75.3216 257.265 76.0428 257.814L87.3269 229.855C87.4316 229.591 87.2787 228.994 86.9793 228.765C86.2529 228.214 85.5338 227.66 84.8116 227.098L84.8168 227.1Z" fill="#3A1919"/>
<path d="M107.253 281.052C106.32 280.529 105.397 279.997 104.469 279.464C103.294 278.783 102.742 277.21 103.239 275.974C107.069 266.492 110.893 257.008 114.723 247.527C115.221 246.291 116.587 245.846 117.767 246.529C118.691 247.06 119.619 247.594 120.552 248.117C121.738 248.784 122.301 250.331 121.803 251.567C117.979 261.051 114.151 270.527 110.321 280.009C109.824 281.245 108.44 281.719 107.253 281.052Z" fill="#E9E9E9"/>
<path d="M106.702 283.298C106.507 283.22 106.324 283.129 106.14 283.025C105.202 282.5 104.268 281.964 103.334 281.428C101.177 280.18 100.21 277.411 101.138 275.121L112.621 246.679C113.097 245.496 114.046 244.58 115.22 244.175C116.414 243.765 117.754 243.907 118.897 244.562C119.815 245.092 120.738 245.624 121.66 246.143C123.844 247.37 124.83 250.123 123.901 252.413L112.419 280.855C111.94 282.043 110.984 282.962 109.808 283.373C108.807 283.726 107.705 283.69 106.704 283.293L106.702 283.298ZM116.746 248.563L105.337 276.82C105.266 276.999 105.39 277.378 105.596 277.503C106.479 278.012 107.37 278.519 108.26 279.025L119.683 250.718C119.748 250.555 119.629 250.209 119.423 250.097C118.526 249.594 117.632 249.08 116.738 248.566L116.746 248.563Z" fill="#3A1919"/>
<path d="M141.907 297.56C140.917 297.166 139.927 296.773 138.941 296.368C137.686 295.858 137.064 294.415 137.566 293.181C141.389 283.703 145.217 274.226 149.039 264.748C149.536 263.512 150.968 262.934 152.228 263.447C153.214 263.851 154.202 264.25 155.2 264.641C156.464 265.143 157.088 266.55 156.593 267.781C152.77 277.259 148.943 286.736 145.122 296.209C144.625 297.445 143.181 298.054 141.915 297.557L141.907 297.56Z" fill="#E9E9E9"/>
<path d="M140.496 299.439C139.69 299.118 138.884 298.798 138.082 298.467C135.667 297.483 134.493 294.729 135.464 292.333L146.936 263.9C147.4 262.748 148.295 261.848 149.444 261.365C150.596 260.877 151.875 260.867 153.039 261.33L153.086 261.349C154.062 261.749 155.045 262.145 156.032 262.532L156.037 262.534C157.222 263.005 158.152 263.905 158.651 265.073C159.141 266.22 159.157 267.483 158.693 268.634L147.221 297.067C146.258 299.46 143.498 300.632 141.078 299.676C140.883 299.599 140.688 299.521 140.494 299.444L140.496 299.439ZM151.364 265.544C151.295 265.517 151.237 265.524 151.201 265.54C151.157 265.559 151.146 265.585 151.142 265.596L139.671 294.024C139.646 294.087 139.685 294.219 139.801 294.265C140.782 294.667 141.765 295.064 142.747 295.448C142.863 295.494 142.987 295.427 143.019 295.361L154.49 266.933C154.49 266.933 154.502 266.901 154.483 266.857C154.468 266.82 154.436 266.777 154.362 266.748C153.367 266.352 152.366 265.954 151.369 265.546L151.364 265.544Z" fill="#3A1919"/>
<path d="M178.519 309.221C177.479 308.967 176.442 308.707 175.407 308.442C174.09 308.101 173.422 306.805 173.92 305.569C177.74 296.096 181.566 286.625 185.386 277.152C185.883 275.916 187.366 275.194 188.688 275.536C189.723 275.801 190.76 276.061 191.798 276.321C193.12 276.646 193.796 277.908 193.298 279.144C189.473 288.615 185.652 298.088 181.827 307.559C181.329 308.795 179.836 309.544 178.512 309.224L178.519 309.221Z" fill="#E9E9E9"/>
<path d="M174.284 310.453C173.267 310.049 172.43 309.302 171.946 308.341C171.382 307.226 171.338 305.909 171.817 304.721L183.283 276.304C184.204 274.016 186.826 272.716 189.25 273.338C190.28 273.601 191.305 273.862 192.339 274.114C193.618 274.427 194.686 275.255 195.263 276.381C195.83 277.485 195.88 278.803 195.403 279.987L183.932 308.402C183.007 310.682 180.393 312.009 177.98 311.422C176.935 311.165 175.887 310.901 174.841 310.632C174.648 310.58 174.463 310.525 174.279 310.451L174.284 310.453ZM191.118 278.491C190.097 278.237 189.106 277.983 188.12 277.732C187.888 277.67 187.554 277.836 187.489 278L176.081 306.27C177.088 306.529 178.076 306.776 179.058 307.02C179.297 307.078 179.66 306.887 179.731 306.708L191.118 278.491Z" fill="#3A1919"/>
<path d="M216.571 315.831C215.498 315.722 214.43 315.602 213.356 315.48C211.991 315.322 211.288 314.177 211.785 312.941C215.609 303.475 219.427 294.007 223.252 284.536C223.75 283.3 225.271 282.435 226.63 282.591C227.697 282.716 228.773 282.832 229.844 282.947C231.209 283.087 231.918 284.205 231.423 285.435C227.599 294.901 223.781 304.369 219.957 313.835C219.462 315.065 217.937 315.972 216.566 315.829L216.571 315.831Z" fill="#E9E9E9"/>
<path d="M211.92 317.435C211.077 317.1 210.376 316.516 209.918 315.749C209.276 314.664 209.19 313.33 209.689 312.089L221.157 283.684C222.038 281.497 224.508 280.057 226.897 280.336C227.959 280.459 229.022 280.577 230.082 280.687C231.466 280.829 232.639 281.545 233.295 282.641C233.941 283.716 234.024 285.042 233.525 286.283L222.06 314.682C221.171 316.873 218.711 318.335 216.333 318.085C215.255 317.974 214.174 317.855 213.095 317.731C212.681 317.683 212.286 317.587 211.918 317.44L211.92 317.435ZM229.097 285.145C228.173 285.046 227.274 284.945 226.375 284.844C225.997 284.797 225.465 285.122 225.36 285.386L214.101 313.282C215.016 313.389 215.912 313.483 216.808 313.577C217.183 313.616 217.743 313.265 217.859 312.988L229.095 285.15L229.097 285.145Z" fill="#3A1919"/>
<path d="M185.9 206.957C185.276 203.911 182.302 201.948 179.256 202.572C176.211 203.195 174.248 206.17 174.871 209.215L187.963 273.148C188.587 276.194 191.561 278.157 194.607 277.533C197.652 276.91 199.616 273.935 198.992 270.89L185.9 206.957Z" fill="#D8A577"/>
<mask id="mask1_1448_1524" style="mask-type:luminance" maskUnits="userSpaceOnUse" x="170" y="190" width="30" height="88">
<path d="M186.436 198.9C185.269 193.197 180.916 189.277 176.72 190.134C172.522 190.997 170.061 196.314 171.23 202.012C171.795 204.78 173.12 207.125 174.808 208.711C174.827 208.877 174.849 209.038 174.886 209.205L187.981 273.138C188.599 276.172 191.592 278.142 194.625 277.524C197.658 276.906 199.628 273.913 199.01 270.88L185.915 206.947C185.883 206.781 185.837 206.622 185.79 206.464C186.718 204.344 187.013 201.667 186.443 198.897L186.436 198.9Z" fill="white"/>
</mask>
<g mask="url(#mask1_1448_1524)">
<path d="M186.49 199.147C187.651 204.818 185.098 209.677 180.9 210.54C176.702 211.403 172.444 207.935 171.282 202.264C170.12 196.593 172.584 191.302 176.785 190.446C180.983 189.584 185.331 193.484 186.487 199.152L186.49 199.147Z" fill="#9E673E"/>
</g>
<path d="M186.436 198.901C187.603 204.604 184.406 206.31 180.208 207.173C176.01 208.036 172.395 207.721 171.228 202.018C170.061 196.314 172.517 190.995 176.718 190.14C180.916 189.277 185.267 193.202 186.434 198.906L186.436 198.901Z" fill="#D8A577"/>
<path d="M190.598 279.351C190.093 279.15 189.608 278.897 189.144 278.59C187.381 277.426 186.178 275.648 185.752 273.588L172.687 209.795C170.884 207.87 169.588 205.3 169.007 202.464C167.591 195.545 170.844 189.019 176.263 187.909C181.681 186.799 187.24 191.522 188.656 198.441C189.239 201.271 189.054 204.144 188.154 206.623L201.225 270.418C202.098 274.681 199.337 278.866 195.074 279.739C193.553 280.05 192.01 279.912 190.598 279.351ZM179.4 192.584C178.668 192.293 177.912 192.2 177.174 192.352C174.259 192.95 172.553 197.164 173.448 201.558C173.899 203.768 174.934 205.723 176.356 207.057C176.746 207.425 176.994 207.92 177.058 208.452C177.068 208.548 177.079 208.643 177.1 208.743L190.196 272.677C190.372 273.552 190.89 274.307 191.639 274.8C192.394 275.295 193.287 275.473 194.162 275.296C195.975 274.925 197.153 273.143 196.782 271.33L183.687 207.396C183.666 207.296 183.637 207.2 183.608 207.103C183.458 206.592 183.489 206.037 183.702 205.548C184.485 203.761 184.666 201.558 184.215 199.347C183.542 196.067 181.572 193.442 179.397 192.577L179.4 192.584Z" fill="#3A1919"/>
<path d="M229.863 267.473C222.372 267.534 196.459 263.455 187.033 256.079C179.728 250.364 178.385 243.217 179.045 240.204C179.997 235.861 184.482 232.313 190.475 231.169C191.016 231.067 191.602 230.989 192.226 230.938C196.213 230.62 201.483 231.403 207.058 232.234C213.864 233.25 221.257 234.139 228.289 234.879C235.595 235.648 259.279 235.254 262.78 251.644C267.704 274.719 243.027 267.362 229.865 267.468L229.863 267.473Z" fill="#FFE14D"/>
<path d="M232.289 261.368C224.799 261.428 198.886 257.35 189.46 249.974C183.854 245.586 181.559 240.893 181.184 237.34C179.661 238.778 179.453 238.366 179.043 240.21C178.382 243.222 179.721 250.367 187.031 256.084C196.463 263.462 222.37 267.539 229.86 267.478C241.751 267.38 263.042 273.372 263.406 257.511C257.027 263.308 241.516 261.296 232.287 261.373L232.289 261.368Z" fill="#EA911B"/>
<path d="M194.229 262.483C190.826 261.131 187.84 259.59 185.634 257.865C177.626 251.602 175.983 243.58 176.829 239.72C177.974 234.49 183.162 230.263 190.048 228.944C190.681 228.824 191.351 228.736 192.043 228.682C196.291 228.339 201.68 229.145 207.385 229.998C213.519 230.911 220.627 231.797 228.517 232.633C229.302 232.713 230.311 232.785 231.473 232.869C241.23 233.551 261.521 234.968 264.984 251.178C266.404 257.825 265.657 262.682 262.714 266.02C257.558 271.87 247.197 270.99 238.056 270.217C235.07 269.964 232.248 269.727 229.874 269.747C224.085 269.794 206.472 267.362 194.225 262.494L194.229 262.483ZM249.774 240.705C243.617 238.257 236.217 237.737 231.165 237.388C229.954 237.303 228.91 237.23 228.05 237.138C220.093 236.3 212.921 235.407 206.726 234.481C201.283 233.672 196.142 232.903 192.412 233.202C191.876 233.245 191.368 233.312 190.9 233.4C185.883 234.358 182.007 237.295 181.265 240.696C180.777 242.924 181.884 249.177 188.436 254.3C196.997 260.997 222.009 265.272 229.852 265.212C232.441 265.192 235.362 265.438 238.453 265.703C246.526 266.386 255.678 267.163 259.329 263.027C261.23 260.867 261.644 257.201 260.562 252.129C259.307 246.232 254.987 242.783 249.777 240.712L249.774 240.705Z" fill="#3A1919"/>
<path d="M276.397 228.418C276.397 228.418 265.033 231.38 250.996 232.351C240.259 233.091 229.13 231.272 229.13 231.272L224.974 266.835C224.974 266.835 260.384 277.128 286.647 267.438C291.929 265.488 297.811 262.201 298.35 254.321C299.372 239.399 276.404 228.415 276.404 228.415L276.397 228.418Z" fill="#A31E36"/>
<path d="M202.257 266.778C201.293 266.395 200.693 265.388 200.859 264.325L206.196 229.598C206.382 228.379 207.503 227.538 208.728 227.695C209.134 227.747 249.295 232.81 272.089 225.968C273.287 225.609 274.554 226.289 274.913 227.487C275.272 228.685 274.592 229.952 273.394 230.311C252.545 236.572 219.262 233.45 210.348 232.457L205.676 262.873C213.222 264.329 239.543 269.1 261.068 269.3C262.321 269.31 263.327 270.338 263.312 271.589C263.302 272.841 262.274 273.848 261.024 273.832C235.286 273.594 202.965 266.962 202.638 266.893C202.509 266.866 202.378 266.826 202.257 266.778Z" fill="#3A1919"/>
<path d="M235.442 230.604L200.796 226.849L196.263 268.663L230.909 272.419L235.442 230.604Z" fill="#A31E36"/>
<path d="M224.182 229.384L212.055 228.069L207.522 269.883L219.649 271.198L224.182 229.384Z" fill="#FFEC64"/>
<path d="M195.403 270.776C194.482 270.41 193.876 269.462 193.989 268.427L198.526 226.611C198.593 226.015 198.891 225.463 199.358 225.087C199.824 224.711 200.425 224.535 201.021 224.602L235.669 228.358C236.272 228.421 236.817 228.723 237.193 229.189C237.568 229.656 237.744 230.256 237.678 230.852L233.141 272.668C233.006 273.913 231.887 274.811 230.641 274.675L195.993 270.919C195.783 270.896 195.583 270.847 195.398 270.774L195.403 270.776ZM202.786 229.353L198.741 266.662L228.879 269.931L232.925 232.623L202.786 229.353Z" fill="#3A1919"/>
<path d="M242.987 324.397C233.45 303.228 199.421 293.985 178.23 316.591C166.05 329.585 162.258 339.081 162.258 339.081C162.258 339.081 195.802 357.246 220.083 345.756C243.695 334.585 242.992 324.399 242.992 324.399L242.987 324.397Z" fill="#FFE14D"/>
<path d="M178.583 318.28C178.299 318.167 178.032 317.994 177.806 317.764C176.929 316.872 176.938 315.437 177.83 314.559C188.757 303.811 203.323 299.207 217.8 301.918C230.744 304.342 241.377 312.241 246.242 323.05C246.758 324.194 246.249 325.535 245.105 326.05C243.961 326.566 242.62 326.057 242.105 324.913C237.848 315.456 228.447 308.523 216.962 306.373C203.962 303.938 190.859 308.099 181.004 317.791C180.342 318.443 179.382 318.604 178.576 318.283L178.583 318.28Z" fill="#3A1919"/>
<path d="M93.7987 296.254C93.6335 291.468 91.1629 257.401 85.0662 247.157C84.2516 245.784 83.3405 244.501 82.3569 243.323C79.4669 233.806 73.4747 226.63 67.004 224.985C64.0446 224.235 59.6122 224.261 55.264 228.632C54.2692 229.554 42.6644 240.734 40.9201 263C40.2523 271.494 43.0707 274.224 45.7974 276.863C48.8848 279.853 52.3878 283.24 52.5466 298.217C52.5478 298.291 52.5522 298.372 52.5587 298.448C53.0986 303.243 56.2161 311.882 64.1174 315.022C65.5133 315.577 67.0572 315.959 68.7575 316.116C75.7544 316.775 82.7683 317.007 86.6917 314.272C92.653 310.109 93.9472 300.669 93.7987 296.254Z" fill="#3A1919"/>
<path d="M82.4642 280.483C82.0661 277.939 79.3424 270.873 81.0258 263.246C85.8873 241.195 68.9156 218.059 56.8363 230.263C56.8363 230.263 44.9149 241.043 43.1766 263.171C41.8635 279.917 54.5006 269.563 54.8163 298.186C54.8163 298.186 56.4202 313.073 68.974 313.854C85.6946 314.894 85.6855 301.014 82.4642 280.483Z" fill="#938282"/>
<path d="M63.8692 315.033C56.1365 311.959 53.0863 303.305 52.5652 298.432C52.5566 298.361 52.5501 298.286 52.5542 298.214C52.3901 283.235 48.8924 279.85 45.805 276.86C43.0783 274.221 40.2598 271.49 40.9277 262.996C42.672 240.73 54.2788 229.546 55.2736 228.623C59.5872 224.293 65.0367 223.428 70.2248 226.259C79.4016 231.254 86.8207 247.501 83.2477 263.733C82.0313 269.264 83.3818 274.613 84.1866 277.806C84.4255 278.755 84.6166 279.502 84.7137 280.132C87.1078 295.394 87.5235 306.026 82.209 311.862C79.2551 315.104 74.8835 316.495 68.8419 316.119C67.0027 316.004 65.3546 315.624 63.8745 315.035L63.8692 315.033ZM57.0831 298.038C57.2427 299.309 59.0079 310.966 69.1163 311.592C73.6999 311.877 76.8862 310.966 78.8488 308.806C82.9284 304.328 82.3479 294.386 80.227 280.832C80.1629 280.41 79.9867 279.717 79.786 278.918C78.8814 275.332 77.3664 269.337 78.8163 262.758C81.9089 248.732 75.6274 234.365 68.0545 230.245C64.6011 228.36 61.3708 228.906 58.4532 231.858C58.4227 231.888 58.3922 231.919 58.3639 231.944C58.2578 232.042 47.083 242.478 45.4462 263.353C44.9474 269.718 46.5423 271.261 48.9588 273.606C52.4924 277.023 56.8815 281.281 57.0863 298.045L57.0831 298.038Z" fill="#3A1919"/>
<path d="M79.9464 275.322C79.7326 274.279 82.4208 265.491 80.8428 264.918C66.7692 270.554 45.9458 270.567 44.9776 269.657C43.6434 269.377 42.6851 271.143 43.6703 272.102C43.6703 272.102 48.5513 276.519 49.7683 278.552C50.213 279.29 67.7903 281.275 79.9464 275.322Z" fill="#3A1919"/>
<path d="M85.3593 301.757L84.1883 293.746C84.1103 293.221 83.743 292.764 83.229 292.584L77.3436 290.464C77.1255 290.384 76.8918 290.358 76.6603 290.388L58.0943 292.64C57.3008 292.733 56.7487 293.447 56.8662 294.225L58.4432 305.02C59.0555 309.204 61.9058 312.576 65.5983 314.044C67.2945 314.718 69.1623 314.991 71.0733 314.756L75.9508 314.163C82.0269 313.425 86.2473 307.856 85.3561 301.75L85.3593 301.757Z" fill="#3A1919"/>
<path d="M239.821 45.6256C220.286 41.4903 194.138 39.2766 193.306 43.1972C187.351 71.329 191.355 96.2151 185.4 124.347C206.806 136.68 230.286 137.888 257.526 137.907C263.48 109.775 277.374 90.3803 283.329 62.2485C284.161 58.3279 259.352 49.7536 239.821 45.6256Z" fill="#A31E36"/>
<path fill-rule="evenodd" clip-rule="evenodd" d="M283.327 62.2535C283.866 59.7166 273.643 55.22 261.068 51.2527C263.424 52.616 264.726 53.8352 264.527 54.7809C258.573 82.9127 249.287 103.743 243.337 131.876C224.697 131.86 202.58 131.413 186.916 127.102C207.745 138.322 230.572 139.453 256.902 139.476C262.856 111.344 277.37 90.3906 283.325 62.2587L283.327 62.2535Z" fill="#791628"/>
<path d="M211.706 45.6731C206.295 45.2607 202.492 45.2374 199.93 45.3903L203.836 111.404L218.6 114.528L250.584 52.337C246.89 51.3503 243.193 50.4604 239.711 49.7227C230.872 47.8504 220.398 46.3343 211.701 45.671L211.706 45.6731Z" fill="#FFEC64"/>
<path d="M254.784 138.665C254.794 138.596 254.803 138.526 254.818 138.459C256.471 130.784 258.724 123.719 261.212 116.986C236.448 115.633 212.547 111.342 190.051 104.328C189.514 111.19 188.677 118.189 187.217 125.362C187.128 125.802 186.907 126.202 186.593 126.517C186.082 127.021 185.412 127.724 184.71 128.568C205.555 135.591 227.604 140.231 250.4 142.314C252.975 140.916 254.379 139.7 254.624 139.083L254.788 138.672L254.784 138.665Z" fill="#2E3499"/>
<path d="M186.533 121.497L184.802 125.853C202.346 134.889 234.974 139.459 256.902 139.476C258.537 131.757 261.027 124.049 263.594 117.115C258.11 116.857 252.669 116.457 247.274 115.911C245.937 120.857 244.68 125.969 243.542 131.348C223.719 133.661 186.533 121.497 186.533 121.497Z" fill="#1E2672"/>
<path d="M257.113 138.944C201.512 133.532 185.039 124.856 185.039 124.856C178.938 130.891 171.969 142.315 191.668 148.169C224.462 157.91 254.478 145.558 256.721 139.917C256.922 139.411 257.112 138.931 257.106 138.947L257.113 138.944Z" fill="#3A1919"/>
<path d="M187.418 149.102C181.36 146.694 177.769 143.376 176.721 139.214C175.172 133.06 179.706 127.085 182.9 123.792C185.544 110.496 186.021 97.6325 186.481 85.1952C186.967 72.0662 187.47 58.493 190.484 44.2344C191.055 41.5396 194.455 40.8722 197.355 40.5912C200.267 40.3091 204.214 40.3227 209.092 40.6331C218.402 41.2287 229.837 42.828 239.689 44.9139C249.54 46.9999 260.645 50.1693 269.396 53.3976C273.982 55.0865 277.596 56.6755 280.141 58.1141C282.676 59.5485 285.515 61.537 284.946 64.2266C281.925 78.501 276.838 90.6852 271.92 102.461C267.207 113.751 262.33 125.421 259.373 138.83C259.382 139.022 259.367 139.212 259.326 139.409C259.295 139.561 259.252 139.703 259.192 139.837L259.047 140.201C259.047 140.201 259.035 140.232 259.029 140.248L258.83 140.749C255.764 148.46 223.484 159.986 191.019 150.339C189.732 149.955 188.529 149.544 187.413 149.1L187.418 149.102ZM194.82 45.6649C191.974 59.3622 191.485 72.5753 191.016 85.3569C190.541 98.1848 190.053 111.459 187.214 125.354C187.124 125.794 186.904 126.195 186.59 126.509C184.575 128.508 180.003 133.644 181.127 138.105C182.149 142.177 187.782 144.642 192.319 145.994C210.758 151.475 227.085 149.346 235.174 147.596C247.689 144.884 254.07 140.461 254.621 139.076L254.784 138.665C254.794 138.595 254.803 138.526 254.817 138.459C257.851 124.397 262.874 112.358 267.74 100.714C272.522 89.2684 277.465 77.4297 280.407 63.7828C279.499 62.7995 275.648 60.409 266.003 56.9901C257.781 54.0754 247.596 51.2165 238.75 49.3474C229.912 47.475 219.437 45.9589 210.74 45.2957C200.535 44.5147 196.047 45.1402 194.823 45.6723L194.82 45.6649Z" fill="#3A1919"/>
<path d="M288.088 170.695C287.761 170.565 287.467 170.461 287.227 170.39C286.389 170.136 285.482 170.33 284.824 170.911C284.166 171.491 283.86 172.37 284.007 173.227C284.324 175.055 285.402 177.789 286.897 180.549L287.289 181.284C298.427 202.352 310.091 210.483 317.913 213.592C320.795 214.737 323.751 215.449 326.698 215.706C340.325 216.889 350.89 212.237 356.229 207.491C358.553 205.42 359.428 203.785 359.744 202.99C360.222 201.789 359.712 200.416 358.565 199.819C356.973 198.991 352.974 197.31 346.343 194.674C342.898 193.305 338.965 191.766 334.79 190.131C330.044 188.275 324.979 186.286 319.933 184.28C310.625 180.581 297.335 175.207 289.376 171.275C288.938 171.058 288.507 170.868 288.091 170.703L288.088 170.695Z" fill="#FF9739"/>
<path d="M359.741 202.983C359.579 202.9 317.882 219.839 286.865 175.26C280.518 166.138 283.148 175.143 287.145 181.63C305.146 216.832 332.066 225.007 356.085 207.837C359.258 204.627 362.64 205.435 359.741 202.983Z" fill="#E26917"/>
<path d="M271.273 37.6259C284.548 48.6546 270.633 68.9134 254.621 62.5305C264.124 80.886 234.812 86.5094 224.766 73.9096C223.338 75.9831 214.976 99.413 214.929 111.271C214.929 111.271 214.136 111.87 213.566 111.784C213.066 111.707 211.978 110.915 211.978 110.915C209.819 100.419 206.237 62.226 225.993 31.2907C263.573 -27.5422 317.718 25.253 271.273 37.6259Z" fill="#CECECE"/>
<path d="M268.671 34.1518C281.946 45.1804 268.031 65.4393 252.019 59.0564C261.522 77.4119 232.21 83.0353 222.164 70.4355C220.736 72.509 212.374 95.9389 212.327 107.796C212.327 107.796 211.534 108.396 210.964 108.31C210.464 108.233 209.376 107.441 209.376 107.441C207.217 96.9447 203.635 58.7519 223.391 27.8166C260.971 -31.0163 315.116 21.7789 268.671 34.1518Z" fill="white"/>
<path d="M222.458 116.837C220.824 124.556 213.583 129.022 206.858 126.989C200.694 125.125 197.191 118.377 198.586 111.782C199.981 105.188 205.918 100.442 212.308 101.231C219.284 102.095 224.095 109.112 222.461 116.832L222.458 116.837Z" fill="#C6B44B"/>
<path d="M211.943 102.946C213.367 103.14 214.709 103.631 215.929 104.414C216.521 104.796 217.086 105.247 217.592 105.753C218.104 106.261 218.569 106.824 218.973 107.436C219.382 108.05 219.734 108.714 220.017 109.413C220.304 110.118 220.528 110.86 220.671 111.619C220.975 113.203 220.959 114.838 220.617 116.452C220.272 118.072 219.629 119.567 218.71 120.897C218.268 121.533 217.766 122.12 217.221 122.648C216.678 123.17 216.091 123.632 215.464 124.029C214.844 124.423 214.188 124.754 213.52 125.007C212.844 125.263 212.15 125.445 211.455 125.553C210.024 125.777 208.593 125.678 207.215 125.277C205.859 124.884 204.629 124.218 203.556 123.31C203.046 122.875 202.574 122.389 202.15 121.86C201.734 121.341 201.363 120.773 201.044 120.177C200.732 119.583 200.462 118.957 200.254 118.313C200.043 117.662 199.889 116.991 199.793 116.312C199.594 114.909 199.648 113.485 199.947 112.073C200.246 110.661 200.777 109.341 201.524 108.137C201.883 107.554 202.297 107.005 202.755 106.498C203.205 105.994 203.702 105.526 204.232 105.114C204.763 104.698 205.335 104.333 205.922 104.023C206.521 103.713 207.153 103.458 207.796 103.268C209.149 102.872 210.541 102.761 211.936 102.949M212.086 102.234C206.178 101.46 200.663 105.837 199.367 111.952C198.07 118.067 201.344 124.303 207.06 125.99C213.251 127.816 219.879 123.68 221.378 116.608C222.872 109.535 218.495 103.068 212.093 102.231L212.086 102.234Z" fill="white"/>
<path d="M200.976 112.293C200.195 115.99 201.391 119.674 203.862 121.974L202.489 108.624C201.785 109.705 201.262 110.943 200.976 112.293ZM216.107 114.953C216.377 113.675 216.121 112.707 215.891 111.951C215.575 111.014 215.257 110.217 215.434 109.372C215.631 108.432 216.5 107.673 217.48 107.831C217.527 107.837 217.563 107.852 217.61 107.858C216.201 105.907 214.12 104.561 211.673 104.211C208.51 103.759 205.473 105.077 203.42 107.402C203.617 107.444 203.798 107.48 203.958 107.507C204.841 107.663 206.253 107.778 206.253 107.778C206.728 107.827 206.621 108.602 206.141 108.582C206.141 108.582 205.661 108.562 205.139 108.494L206.081 119.629L209.4 113.641L208.883 109.172C208.405 109.055 207.968 108.911 207.968 108.911C207.495 108.797 207.723 108.009 208.193 108.116C208.193 108.116 209.645 108.498 210.541 108.653C211.505 108.823 213.05 108.955 213.05 108.955C213.569 109.015 213.463 109.821 212.936 109.794C212.936 109.794 212.41 109.768 211.841 109.695L212.967 121.286L214.676 118.184C215.44 116.816 215.923 115.831 216.109 114.947L216.107 114.953ZM209.556 115.014L205.069 122.911C205.8 123.39 206.603 123.764 207.481 124.01C208.534 124.306 209.605 124.39 210.65 124.293C210.633 124.244 210.623 124.191 210.614 124.139L209.556 115.014ZM219.095 110.888C219.069 111.231 219.018 111.589 218.936 111.978C218.709 113.041 218.263 114.193 217.373 115.559L212.444 123.939C215.726 122.926 218.465 120.056 219.29 116.169C219.677 114.334 219.584 112.528 219.095 110.888Z" fill="white"/>
<path d="M183.857 322.938C186.738 309.859 183.228 274.415 162.317 276.735C144.9 280.548 139.935 299.545 136.595 313.979C132.45 328.965 106.526 347.012 146.933 357.871C154.417 359.882 161.87 358.641 167.391 353.406C175.8 344.251 181.268 337 183.859 322.933L183.857 322.938Z" fill="#3A1919"/>
<mask id="mask2_1448_1524" style="mask-type:luminance" maskUnits="userSpaceOnUse" x="113" y="183" width="190" height="125">
<path d="M299.446 216.793C234.422 205.269 186.589 201.2 186.589 201.2C168.616 193.367 146.623 183.399 146.623 183.399C145.524 186.165 113.05 225.049 113.05 225.049C112.804 234.705 120.595 245.659 160.904 268.659C216.26 297.445 268.113 309.108 289.02 307.567C289.02 307.567 310.564 256.572 299.446 216.793Z" fill="white"/>
</mask>
<g mask="url(#mask2_1448_1524)">
<path fill-rule="evenodd" clip-rule="evenodd" d="M308.749 237.216C308.694 235.773 307.913 234.529 306.772 233.826C307.856 233.031 308.537 231.733 308.482 230.29C308.392 227.985 306.447 226.188 304.142 226.278C304.142 226.278 301.999 225.914 300.041 228.308L288.795 226.003L286.837 226.079L275.799 229.249C273.654 227.018 271.549 227.541 271.549 227.541C269.244 227.631 267.446 229.576 267.536 231.881C267.591 233.324 268.372 234.568 269.513 235.272C268.429 236.067 267.748 237.364 267.803 238.807C267.858 240.25 268.638 241.493 269.78 242.197C268.695 242.992 268.015 244.289 268.07 245.732C268.124 247.175 268.905 248.419 270.046 249.123C268.962 249.917 268.282 251.215 268.336 252.658C268.422 254.912 270.288 256.679 272.524 256.671C272.485 256.936 272.461 257.213 272.472 257.492C272.562 259.797 274.507 261.594 276.812 261.504C277.555 261.476 278.241 261.255 278.831 260.891C278.832 260.935 278.828 260.976 278.829 261.019C278.919 263.324 280.864 265.122 283.169 265.031C284.049 264.997 284.849 264.687 285.502 264.196C286.102 265.264 287.154 266.024 288.387 266.252C288.529 266.278 288.674 266.298 288.815 266.312C288.974 266.326 289.135 266.335 289.302 266.328C289.302 266.328 289.347 266.322 289.365 266.323C289.39 266.321 289.406 266.327 289.431 266.325C289.599 266.318 289.76 266.297 289.916 266.273C290.059 266.251 290.201 266.216 290.337 266.179C291.551 265.856 292.54 265.011 293.053 263.904C293.745 264.343 294.57 264.586 295.442 264.554C297.747 264.464 299.545 262.519 299.455 260.214C299.453 260.171 299.445 260.131 299.444 260.088C300.063 260.401 300.765 260.57 301.503 260.54C303.808 260.45 305.605 258.505 305.515 256.2C305.504 255.921 305.466 255.65 305.4 255.386C307.632 255.218 309.352 253.315 309.266 251.061C309.211 249.618 308.431 248.374 307.289 247.67C308.374 246.875 309.054 245.578 308.999 244.135C308.945 242.692 308.164 241.449 307.023 240.745C308.107 239.95 308.787 238.653 308.733 237.21L308.749 237.216Z" fill="#791628"/>
<path d="M281.264 265.28C279.784 264.692 278.665 263.381 278.354 261.769C277.871 261.955 277.361 262.057 276.846 262.079C274.232 262.18 272.019 260.135 271.917 257.521C271.916 257.417 271.915 257.313 271.914 257.208C269.635 256.925 267.864 255.044 267.775 252.69C267.722 251.364 268.227 250.095 269.145 249.166C268.161 248.312 267.557 247.083 267.51 245.759C267.458 244.433 267.962 243.164 268.88 242.236C267.894 241.386 267.293 240.153 267.246 238.829C267.193 237.503 267.698 236.233 268.616 235.305C267.632 234.45 267.028 233.222 266.981 231.898C266.879 229.301 268.899 227.103 271.488 226.974C271.886 226.894 273.901 226.627 275.976 228.605L286.691 225.526C286.733 225.512 286.778 225.506 286.826 225.507L288.784 225.431C288.827 225.43 288.876 225.431 288.92 225.442L299.84 227.678C301.751 225.541 303.786 225.654 304.182 225.702C306.773 225.628 308.96 227.662 309.06 230.264C309.112 231.59 308.608 232.859 307.69 233.787C308.674 234.642 309.277 235.87 309.325 237.194C309.377 238.52 308.872 239.79 307.954 240.718C308.938 241.573 309.542 242.801 309.589 244.125C309.641 245.451 309.137 246.721 308.219 247.649C309.203 248.504 309.806 249.732 309.854 251.056C309.943 253.409 308.326 255.42 306.081 255.882C306.095 255.985 306.101 256.091 306.103 256.195C306.204 258.81 304.16 261.022 301.545 261.124C301.025 261.143 300.508 261.078 300.017 260.931C299.755 263.218 297.858 265.044 295.485 265.138C294.729 265.167 293.983 265.017 293.296 264.689C292.665 265.695 291.672 266.428 290.498 266.742C290.341 266.784 290.179 266.823 290.016 266.85C289.845 266.88 289.659 266.903 289.467 266.912C289.456 266.908 289.423 266.913 289.4 266.91C289.375 266.912 289.355 266.916 289.337 266.915C289.145 266.924 288.958 266.917 288.771 266.898C288.612 266.883 288.45 266.862 288.292 266.829C288.286 266.827 288.281 266.825 288.271 266.821C287.089 266.601 286.046 265.943 285.342 264.998C284.687 265.372 283.949 265.585 283.194 265.614C282.512 265.642 281.858 265.522 281.262 265.286L281.264 265.28ZM279.049 260.374C279.049 260.374 279.096 260.393 279.117 260.401C279.296 260.503 279.406 260.687 279.409 260.895C279.407 260.9 279.407 260.961 279.405 260.967C279.484 262.993 281.164 264.551 283.154 264.47C283.879 264.441 284.581 264.195 285.174 263.748C285.305 263.647 285.47 263.616 285.628 263.648C285.786 263.68 285.927 263.785 286.006 263.926C286.531 264.861 287.438 265.508 288.501 265.705C288.501 265.705 288.511 265.709 288.517 265.711C288.636 265.734 288.752 265.749 288.869 265.76C289.016 265.775 289.154 265.781 289.29 265.775C289.29 265.775 289.323 265.769 289.354 265.769C289.372 265.77 289.425 265.773 289.445 265.769C289.562 265.767 289.698 265.747 289.83 265.721C289.966 265.702 290.088 265.671 290.205 265.638C291.247 265.363 292.102 264.641 292.553 263.674C292.624 263.525 292.753 263.418 292.906 263.369C293.06 263.32 293.227 263.344 293.367 263.436C293.991 263.831 294.708 264.024 295.431 264C297.419 263.924 298.979 262.239 298.898 260.249C298.9 260.243 298.889 260.148 298.886 260.14C298.871 259.933 298.972 259.741 299.138 259.63C299.311 259.516 299.524 259.503 299.705 259.6C300.253 259.878 300.87 260.014 301.484 259.989C303.472 259.913 305.032 258.228 304.951 256.238C304.941 256.002 304.908 255.763 304.853 255.534C304.814 255.372 304.85 255.203 304.946 255.07C305.041 254.938 305.197 254.853 305.361 254.839C307.31 254.693 308.78 253.051 308.7 251.104C308.653 249.902 308.015 248.806 306.992 248.174C306.83 248.073 306.734 247.901 306.723 247.713C306.712 247.526 306.801 247.348 306.957 247.233C307.929 246.521 308.48 245.38 308.433 244.178C308.387 242.976 307.748 241.881 306.725 241.248C306.564 241.148 306.468 240.975 306.457 240.788C306.446 240.6 306.535 240.422 306.69 240.307C307.662 239.596 308.214 238.455 308.167 237.253C308.12 236.051 307.482 234.955 306.458 234.323C306.297 234.222 306.201 234.05 306.19 233.862C306.179 233.675 306.27 233.492 306.424 233.382C307.396 232.67 307.947 231.529 307.9 230.327C307.824 228.339 306.139 226.778 304.149 226.86C304.111 226.863 304.07 226.859 304.031 226.849C303.961 226.84 302.167 226.597 300.46 228.681C300.329 228.843 300.114 228.922 299.907 228.876L288.728 226.586L286.907 226.655L275.936 229.809C275.735 229.87 275.516 229.807 275.368 229.657C273.5 227.712 271.737 228.097 271.664 228.111C271.629 228.122 271.592 228.125 271.554 228.128C269.566 228.204 268.005 229.889 268.086 231.88C268.133 233.082 268.771 234.177 269.795 234.81C269.956 234.91 270.052 235.083 270.063 235.27C270.074 235.457 269.985 235.636 269.829 235.751C268.857 236.462 268.306 237.603 268.353 238.805C268.4 240.007 269.038 241.103 270.061 241.735C270.222 241.836 270.319 242.008 270.33 242.196C270.34 242.383 270.251 242.561 270.096 242.676C269.124 243.388 268.573 244.529 268.619 245.731C268.666 246.933 269.304 248.028 270.328 248.661C270.489 248.761 270.585 248.934 270.596 249.121C270.607 249.308 270.518 249.486 270.362 249.602C269.39 250.313 268.839 251.454 268.886 252.656C268.964 254.609 270.549 256.129 272.508 256.127C272.673 256.126 272.832 256.201 272.942 256.324C273.05 256.452 273.1 256.618 273.073 256.779C273.032 257.019 273.022 257.259 273.029 257.487C273.105 259.475 274.79 261.036 276.781 260.955C277.394 260.93 277.997 260.749 278.521 260.427C278.674 260.335 278.863 260.318 279.027 260.383L279.049 260.374Z" fill="#791628"/>
</g>
<path d="M317.072 215.692C308.897 212.443 296.745 204.02 285.282 182.341L284.894 181.614C283.27 178.626 282.127 175.701 281.767 173.613C281.484 171.963 282.065 170.315 283.317 169.208C284.573 168.103 286.277 167.731 287.878 168.215C288.601 168.436 289.495 168.797 290.371 169.231C298.248 173.124 311.485 178.477 320.761 182.164C325.818 184.174 330.796 186.123 335.608 188.011C339.788 189.648 343.721 191.187 347.171 192.558C353.972 195.261 357.92 196.928 359.6 197.797C361.789 198.936 362.755 201.522 361.842 203.819C361.367 205.014 360.265 206.912 357.726 209.173C352.03 214.234 340.832 219.202 326.488 217.953C323.317 217.674 320.148 216.915 317.062 215.688L317.072 215.692ZM287.25 172.803C286.934 172.677 286.701 172.603 286.565 172.561C286.479 172.533 286.391 172.553 286.325 172.612C286.259 172.671 286.231 172.758 286.243 172.848C286.515 174.42 287.531 176.959 288.894 179.471L289.291 180.22C300.114 200.686 311.281 208.517 318.75 211.486C321.426 212.549 324.164 213.211 326.894 213.448C339.8 214.57 349.734 210.235 354.725 205.796C356.772 203.975 357.442 202.643 357.637 202.153C357.685 202.032 357.635 201.896 357.52 201.832C356.024 201.055 351.978 199.355 345.505 196.782C342.06 195.412 338.138 193.878 333.963 192.243C329.143 190.358 324.162 188.402 319.095 186.388C309.75 182.674 296.397 177.274 288.372 173.31C287.989 173.121 287.611 172.952 287.253 172.81L287.25 172.803Z" fill="#3A1919"/>
<path d="M192.09 129.782C189.158 128.811 187.356 128.065 186.46 127.666C186.026 127.469 185.523 127.568 185.191 127.912C179.306 133.862 174.336 141.378 200.313 148.733C201.059 148.944 183.759 137.791 192.264 130.772C192.611 130.483 192.52 129.928 192.088 129.787L192.09 129.782Z" fill="#605555"/>
<path d="M57.8742 313.48C52.6067 311.386 49.5879 306.045 49.025 301.813L47.8127 292.725C47.6479 291.482 48.5202 290.347 49.7598 290.174L73.9286 286.947C74.2706 286.9 74.617 286.934 74.9393 287.044C75.2373 287.077 75.5353 287.141 75.8187 287.241L81.7062 289.356C83.0019 289.81 83.9507 290.968 84.139 292.366L85.2346 300.567C86.2147 307.922 81.9424 313.33 74.3481 314.343C74.2323 314.358 74.1208 314.363 74.0039 314.365C70.6018 314.3 65.0829 314.235 63.8348 314.337C61.6058 314.512 59.6157 314.178 57.8721 313.485L57.8742 313.48ZM52.6119 294.37L53.5278 301.212C54.0103 304.802 57.1326 310.312 63.486 309.812C65.2678 309.673 72.4583 309.798 73.9235 309.825C78.9018 309.102 81.3854 305.954 80.7445 301.167L79.7162 293.457L74.4797 291.577C74.2503 291.601 74.0177 291.588 73.7976 291.543L52.6119 294.37ZM80.2019 293.631L80.1861 293.625C80.1861 293.625 80.1966 293.629 80.2019 293.631Z" fill="#3A1919"/>
<path d="M53.1918 303.5C54.1032 309.755 59.1329 314.304 64.4281 313.658L69.3056 313.065C74.5987 312.424 78.1507 306.833 77.2392 300.579L75.8716 291.19L51.8262 294.107L53.1939 303.495L53.1918 303.5Z" fill="#938282"/>
<path d="M59.4265 315.207C55.1493 313.507 51.7327 309.197 50.9505 303.829L49.5828 294.441C49.4931 293.838 49.6518 293.224 50.0223 292.737C50.3928 292.25 50.9437 291.938 51.553 291.863L75.5983 288.947C76.8222 288.799 77.9356 289.65 78.1161 290.869L79.4838 300.257C80.0576 304.2 79.1188 308.127 76.8967 311.032C75.0505 313.452 72.4507 314.974 69.58 315.321L64.7025 315.914C62.882 316.136 61.091 315.869 59.4265 315.207ZM54.4052 296.09L55.4363 303.179C56.1672 308.215 60.0803 311.905 64.1549 311.414L69.0324 310.822C71.1475 310.564 72.5173 309.297 73.293 308.282C74.7761 306.346 75.3934 303.658 74.9959 300.913L73.9477 293.714L54.4073 296.084L54.4052 296.09Z" fill="#3A1919"/>
<path d="M157.395 270.856C157.395 270.856 142.933 277.009 136.116 296.215C131.333 309.692 142.603 303.204 130.774 327.287C125.343 338.34 129.623 347.8 145.132 354.282C149.987 356.309 158.031 345.539 168.813 325.779C169.959 323.679 172.566 319.591 175.199 309.713C180.535 289.722 174.981 265.452 157.395 270.856Z" fill="#938282"/>
<path d="M144.356 356.42C144.324 356.407 144.287 356.392 144.256 356.38C135.227 352.608 129.525 347.694 127.305 341.786C125.529 337.06 126.009 331.847 128.74 326.296C135.367 312.802 134.395 309.768 133.45 306.837C132.67 304.41 131.783 301.654 133.981 295.465C141.05 275.547 155.882 269.048 156.507 268.778C156.581 268.746 156.652 268.72 156.729 268.695C162.677 266.869 167.941 267.942 171.955 271.807C180.16 279.71 180.9 297.151 177.394 310.299C174.938 319.503 172.485 323.878 171.167 326.227C171.037 326.462 170.915 326.676 170.807 326.871C157.899 350.537 150.466 358.848 144.366 356.424L144.356 356.42ZM158.19 272.985C156.969 273.554 144.343 279.814 138.249 296.972C136.564 301.719 137.096 303.357 137.762 305.44C139.212 309.957 139.705 314.24 132.804 328.289C130.652 332.673 130.226 336.676 131.546 340.184C133.309 344.88 138.176 348.919 145.999 352.193L146.01 352.197C146.916 352.557 149.278 351.356 152.976 346.78C156.679 342.189 161.209 334.968 166.81 324.696C166.925 324.486 167.052 324.256 167.194 324.007C168.412 321.832 170.687 317.783 172.997 309.131C176.627 295.519 174.822 280.877 168.797 275.072C166.031 272.411 162.462 271.706 158.183 272.988L158.19 272.985Z" fill="#3A1919"/>
<path d="M171.015 316.589C170.767 316.198 170.349 315.947 169.888 315.91C153.48 314.713 135.783 300.292 135.602 300.147C135.151 299.778 134.519 299.71 134.003 299.981C133.487 300.251 133.181 300.807 133.228 301.393L133.893 309.343C133.922 309.684 134.069 310.005 134.309 310.246C134.709 310.649 141.507 317.395 152.01 321.57C156.514 323.361 161.7 324.678 167.353 324.82C167.962 324.837 168.516 324.471 168.742 323.902L171.129 317.898C171.301 317.466 171.256 316.978 171.009 316.587L171.015 316.589Z" fill="#3A1919"/>
<path d="M164.379 336.582C164.514 336.105 164.401 335.591 164.077 335.224C163.753 334.858 163.261 334.668 162.769 334.741L156.184 335.716L135.927 326.292C135.578 326.129 135.177 326.109 134.817 326.247C134.454 326.377 134.157 326.649 133.999 327.001L130.79 333.924C127.718 340.547 130.305 347.986 136.897 351.046L142.182 353.494C142.219 353.509 142.251 353.521 142.287 353.536C145.767 354.834 149.148 354.677 152.326 353.08C161.114 348.649 164.217 337.189 164.388 336.592L164.379 336.582Z" fill="#3A1919"/>
<path d="M165.797 336.883C165.89 336.249 165.552 335.627 164.966 335.351L136.013 321.933C135.756 321.813 135.467 321.771 135.188 321.813L127.445 322.956C126.809 323.051 126.31 323.554 126.217 324.188C126.124 324.822 126.462 325.445 127.048 325.72L156.001 339.138C156.258 339.258 156.546 339.3 156.825 339.258L164.569 338.115C165.204 338.02 165.703 337.517 165.797 336.883Z" fill="#3A1919"/>
<path d="M131.001 349.458L136.867 352.18C150.007 358.269 157.292 338.346 157.292 338.346L128.355 324.935C128.355 324.935 119.462 344.115 130.999 349.464L131.001 349.458Z" fill="#938282"/>
<path d="M136.774 354.607C136.49 354.494 136.204 354.369 135.921 354.238L130.055 351.516C116.621 345.292 125.907 324.846 126.308 323.975C126.562 323.429 127.022 323.008 127.587 322.799C128.151 322.591 128.78 322.621 129.32 322.872L158.258 336.284C159.328 336.782 159.84 338.011 159.437 339.119C159.26 339.61 154.951 351.17 146.619 354.623C143.442 355.94 140.132 355.936 136.782 354.604L136.774 354.607ZM129.573 327.993C127.829 332.716 124.603 343.993 131.958 347.404L137.823 350.126C140.308 351.273 142.607 351.381 144.872 350.44C149.314 348.594 152.715 342.986 154.359 339.479L129.573 327.993Z" fill="#3A1919"/>
<path d="M134.898 122.758C137.028 120.493 136.918 116.931 134.653 114.802C132.389 112.672 128.826 112.782 126.697 115.046L81.9927 162.59C79.8633 164.855 79.9729 168.417 82.2376 170.546C84.5023 172.676 88.0645 172.566 90.194 170.301L134.898 122.758Z" fill="#D8A577"/>
<mask id="mask3_1448_1524" style="mask-type:luminance" maskUnits="userSpaceOnUse" x="80" y="103" width="66" height="70">
<path d="M141.774 118.547C145.76 114.306 146.461 108.491 143.34 105.554C140.219 102.618 134.455 103.676 130.464 107.915C128.529 109.976 127.375 112.402 127.05 114.695C126.927 114.804 126.802 114.919 126.687 115.039L81.9829 162.579C79.8605 164.834 79.9735 168.417 82.2306 170.534C84.4878 172.651 88.0685 172.543 90.1856 170.286L134.89 122.746C135.007 122.621 135.113 122.493 135.214 122.362C137.484 121.898 139.838 120.595 141.771 118.539L141.774 118.547Z" fill="white"/>
</mask>
<g mask="url(#mask3_1448_1524)">
<path d="M141.597 118.733C137.634 122.946 132.19 123.661 129.067 120.73C125.946 117.794 126.324 112.314 130.287 108.101C134.249 103.887 139.992 102.851 143.118 105.79C146.239 108.726 145.557 114.524 141.595 118.738L141.597 118.733Z" fill="#9E673E"/>
</g>
<path d="M141.774 118.547C137.789 122.788 134.551 121.159 131.425 118.221C128.304 115.284 126.476 112.148 130.465 107.915C134.45 103.674 140.214 102.616 143.34 105.554C146.461 108.49 145.765 114.308 141.774 118.547Z" fill="#D8A577"/>
<path d="M83.1585 173.77C82.263 173.414 81.4167 172.888 80.6752 172.191C79.1427 170.752 78.2626 168.792 78.1991 166.681C78.1356 164.569 78.8923 162.558 80.3362 161.028L124.945 113.59C125.478 111.008 126.835 108.467 128.813 106.362C131.073 103.96 133.916 102.346 136.817 101.815C139.976 101.235 142.84 101.977 144.891 103.908C148.919 107.693 148.261 114.965 143.424 120.105C141.446 122.211 138.993 123.718 136.447 124.414L91.8382 171.852C89.5552 174.281 86.0852 174.939 83.1617 173.777L83.1585 173.77ZM140.632 106.473C139.537 106.038 138.357 106.136 137.638 106.271C135.71 106.627 133.698 107.791 132.123 109.465C130.58 111.108 129.578 113.077 129.303 115.011C129.226 115.542 128.965 116.03 128.566 116.389C128.49 116.457 128.415 116.524 128.35 116.596L83.645 164.136C83.0338 164.784 82.7125 165.638 82.7386 166.539C82.7648 167.44 83.1413 168.273 83.7889 168.884C85.139 170.153 87.2683 170.091 88.539 168.735L133.244 121.195C133.316 121.12 133.378 121.041 133.438 120.967C133.771 120.544 134.239 120.255 134.764 120.146C136.677 119.754 138.581 118.632 140.13 116.991C143.202 113.728 143.96 109.241 141.794 107.203C141.44 106.867 141.043 106.636 140.638 106.475L140.632 106.473Z" fill="#3A1919"/>
<path d="M116.644 151.738C116.644 151.738 115.145 146.488 111.056 145.064C108.694 144.241 102.657 145.617 104.199 152.97C104.65 155.12 108.373 158.936 108.373 158.936C108.373 158.936 110.224 160.525 114.005 158.625C118.517 156.356 116.639 151.736 116.639 151.736L116.644 151.738Z" fill="#FFE14D"/>
<path d="M107.54 161.966C107.298 161.869 107.067 161.729 106.861 161.543C103.972 158.943 99.8701 153.195 102.801 148.139C104.834 144.634 107.377 143.809 109.157 143.735C114.851 143.498 119.967 150.606 120.53 151.416C121.243 152.444 120.993 153.857 119.965 154.571C118.937 155.284 117.524 155.034 116.81 154.006C115.463 152.086 111.876 148.159 109.345 148.263C108.998 148.278 107.943 148.322 106.73 150.408C104.943 153.492 109.85 158.12 109.899 158.164C110.829 159.003 110.905 160.436 110.066 161.365C109.413 162.088 108.398 162.294 107.545 161.955L107.54 161.966Z" fill="#3A1919"/>
<path d="M308.236 233.962C308.182 232.519 307.401 231.276 306.26 230.572C307.344 229.777 308.024 228.48 307.97 227.037C307.88 224.732 305.935 222.934 303.63 223.024C303.63 223.024 301.487 222.66 299.529 225.054L288.282 222.749L286.325 222.825L275.287 225.995C273.142 223.764 271.037 224.287 271.037 224.287C268.732 224.378 266.934 226.323 267.024 228.628C267.079 230.071 267.86 231.314 269.001 232.018C267.917 232.813 267.236 234.11 267.291 235.553C267.346 236.996 268.126 238.24 269.268 238.943C268.183 239.738 267.503 241.036 267.557 242.479C267.612 243.922 268.393 245.165 269.534 245.869C268.45 246.664 267.769 247.961 267.824 249.404C267.91 251.658 269.776 253.425 272.012 253.417C271.973 253.682 271.949 253.959 271.96 254.238C272.05 256.543 273.995 258.341 276.3 258.251C277.043 258.223 277.729 258.001 278.318 257.638C278.32 257.681 278.315 257.722 278.317 257.765C278.407 260.07 280.352 261.868 282.657 261.778C283.537 261.743 284.337 261.433 284.989 260.942C285.59 262.01 286.642 262.77 287.875 262.998C288.017 263.024 288.161 263.045 288.302 263.058C288.461 263.072 288.622 263.082 288.79 263.075C288.79 263.075 288.835 263.068 288.853 263.069C288.878 263.067 288.894 263.074 288.919 263.071C289.087 263.065 289.248 263.043 289.403 263.02C289.546 262.997 289.688 262.962 289.825 262.925C291.039 262.603 292.028 261.757 292.541 260.65C293.233 261.089 294.057 261.332 294.93 261.301C297.235 261.21 299.033 259.265 298.942 256.96C298.941 256.917 298.933 256.877 298.932 256.834C299.551 257.148 300.253 257.317 300.99 257.286C303.295 257.196 305.093 255.251 305.003 252.946C304.992 252.667 304.953 252.396 304.887 252.132C307.12 251.964 308.84 250.061 308.754 247.807C308.699 246.364 307.918 245.12 306.777 244.417C307.862 243.622 308.542 242.324 308.487 240.881C308.432 239.438 307.652 238.195 306.51 237.491C307.595 236.696 308.275 235.399 308.221 233.956L308.236 233.962Z" fill="#FFE14D"/>
<mask id="mask4_1448_1524" style="mask-type:luminance" maskUnits="userSpaceOnUse" x="267" y="222" width="42" height="42">
<path d="M308.236 233.962C308.182 232.519 307.401 231.276 306.26 230.572C307.344 229.777 308.024 228.48 307.97 227.037C307.88 224.732 305.935 222.934 303.63 223.024C303.63 223.024 301.487 222.66 299.529 225.054L288.282 222.749L286.325 222.825L275.287 225.995C273.142 223.764 271.037 224.287 271.037 224.287C268.732 224.378 266.934 226.323 267.024 228.628C267.079 230.071 267.86 231.314 269.001 232.018C267.917 232.813 267.236 234.11 267.291 235.553C267.346 236.996 268.126 238.24 269.268 238.943C268.183 239.738 267.503 241.036 267.557 242.479C267.612 243.922 268.393 245.165 269.534 245.869C268.45 246.664 267.769 247.961 267.824 249.404C267.91 251.658 269.776 253.425 272.012 253.417C271.973 253.682 271.949 253.959 271.96 254.238C272.05 256.543 273.995 258.341 276.3 258.251C277.043 258.223 277.729 258.001 278.318 257.638C278.32 257.681 278.315 257.722 278.317 257.765C278.407 260.07 280.352 261.868 282.657 261.778C283.537 261.743 284.337 261.433 284.989 260.942C285.59 262.01 286.642 262.77 287.875 262.998C288.017 263.024 288.161 263.045 288.302 263.058C288.461 263.072 288.622 263.082 288.79 263.075C288.79 263.075 288.835 263.068 288.853 263.069C288.878 263.067 288.894 263.074 288.919 263.071C289.087 263.065 289.248 263.043 289.403 263.02C289.546 262.997 289.688 262.962 289.825 262.925C291.039 262.603 292.028 261.757 292.541 260.65C293.233 261.089 294.057 261.332 294.93 261.301C297.235 261.21 299.033 259.265 298.942 256.96C298.941 256.917 298.933 256.877 298.932 256.834C299.551 257.148 300.253 257.317 300.99 257.286C303.295 257.196 305.093 255.251 305.003 252.946C304.992 252.667 304.953 252.396 304.887 252.132C307.12 251.964 308.84 250.061 308.754 247.807C308.699 246.364 307.918 245.12 306.777 244.417C307.862 243.622 308.542 242.324 308.487 240.881C308.432 239.438 307.652 238.195 306.51 237.491C307.595 236.696 308.275 235.399 308.221 233.956L308.236 233.962Z" fill="white"/>
</mask>
<g mask="url(#mask4_1448_1524)">
<path d="M267.087 231.769C266.618 231.583 266.347 231.389 266.285 231.346C265.91 231.063 265.834 230.533 266.112 230.155C266.396 229.78 266.926 229.704 267.303 229.982C267.331 230.005 268.282 230.652 270.023 230.398C271.875 230.128 273.347 228.743 273.36 228.724C273.702 228.402 274.24 228.415 274.563 228.751C274.887 229.087 274.88 229.627 274.544 229.951C274.466 230.024 272.676 231.734 270.269 232.082C268.831 232.291 267.761 232.037 267.087 231.769Z" fill="#C6B44B"/>
<path d="M267.552 238.841C267.146 238.679 266.906 238.517 266.849 238.476C266.47 238.203 266.376 237.672 266.649 237.292C266.921 236.913 267.453 236.819 267.832 237.092C267.862 237.109 268.821 237.735 270.559 237.444C272.392 237.129 273.726 235.768 273.738 235.755C274.06 235.419 274.601 235.409 274.936 235.731C275.277 236.055 275.29 236.591 274.965 236.932C274.895 237.002 273.245 238.712 270.845 239.119C269.335 239.372 268.221 239.106 267.552 238.841Z" fill="#C6B44B"/>
<path d="M267.79 245.468C267.453 245.334 267.248 245.204 267.195 245.17C266.804 244.911 266.697 244.381 266.956 243.989C267.216 243.598 267.746 243.492 268.137 243.751C268.166 243.769 269.143 244.365 270.893 244.06C272.984 243.695 274.12 242.555 274.132 242.541C274.46 242.208 274.993 242.201 275.334 242.525C275.669 242.847 275.682 243.383 275.358 243.724C275.297 243.785 273.852 245.272 271.184 245.737C269.598 246.015 268.438 245.725 267.79 245.468Z" fill="#C6B44B"/>
<path d="M302.421 230.254C301.479 229.879 300.989 229.422 300.911 229.342C300.578 229.015 300.572 228.476 300.902 228.137C301.23 227.804 301.761 227.801 302.097 228.124C302.146 228.168 302.987 228.923 304.765 229.038C306.62 229.159 307.99 228.337 307.999 228.329C308.401 228.086 308.92 228.207 309.17 228.605C309.415 229.002 309.3 229.523 308.901 229.773C308.829 229.818 307.076 230.896 304.653 230.732C303.737 230.673 302.992 230.474 302.418 230.246L302.421 230.254Z" fill="#C6B44B"/>
<path d="M302.624 237.001C301.597 236.593 301.075 236.08 300.991 235.998C300.668 235.662 300.675 235.122 301.011 234.798C301.347 234.475 301.877 234.478 302.208 234.811C302.255 234.86 303.077 235.632 304.851 235.788C306.823 235.968 308.493 235.479 308.506 235.478C308.955 235.345 309.427 235.6 309.565 236.051C309.697 236.501 309.443 236.973 308.999 237.107C308.917 237.13 307.016 237.692 304.701 237.485C303.86 237.407 303.172 237.219 302.624 237.001Z" fill="#C6B44B"/>
<path d="M303.196 243.651C301.895 243.134 301.314 242.568 301.236 242.488C300.913 242.152 300.92 241.612 301.256 241.288C301.592 240.965 302.119 240.973 302.453 241.301C302.483 241.331 303.215 242.006 304.986 242.448C306.889 242.923 308.887 242.577 308.907 242.573C309.373 242.49 309.812 242.798 309.897 243.259C309.982 243.72 309.671 244.164 309.213 244.244C309.115 244.26 306.844 244.662 304.575 244.096C304.042 243.963 303.589 243.814 303.194 243.657L303.196 243.651Z" fill="#C6B44B"/>
<path d="M268.665 253.379C268.239 253.21 268.022 252.727 268.181 252.296C268.344 251.855 268.831 251.628 269.272 251.791C269.309 251.805 270.464 252.185 272.068 251.493C273.747 250.77 274.679 249.237 274.691 249.223C274.931 248.819 275.441 248.686 275.856 248.93C276.261 249.17 276.39 249.691 276.152 250.091C276.1 250.174 274.942 252.105 272.741 253.054C270.487 254.03 268.757 253.41 268.686 253.388L268.665 253.379Z" fill="#C6B44B"/>
<path d="M274.466 259.089C274.182 258.976 273.974 258.716 273.936 258.396C273.884 257.93 274.222 257.509 274.688 257.457C274.708 257.452 276.765 257.203 277.833 256.035C278.864 254.914 278.879 253.895 278.883 253.854C278.884 253.391 279.258 253.003 279.723 252.998C280.189 252.994 280.57 253.353 280.585 253.823C280.59 253.996 280.584 255.561 279.089 257.187C277.586 258.822 274.992 259.133 274.883 259.145C274.742 259.162 274.598 259.141 274.471 259.091L274.466 259.089Z" fill="#C6B44B"/>
<path d="M298.156 261.393C297.756 261.234 297.533 260.797 297.652 260.375C297.656 260.364 298.065 258.752 297.2 256.938C296.529 255.543 295.833 255.144 295.828 255.142C295.422 254.92 295.259 254.41 295.471 254C295.682 253.59 296.182 253.423 296.586 253.62C296.708 253.68 297.8 254.249 298.737 256.201C299.89 258.611 299.319 260.739 299.296 260.827C299.172 261.278 298.701 261.542 298.25 261.418C298.224 261.407 298.192 261.395 298.166 261.384L298.156 261.393Z" fill="#C6B44B"/>
<path d="M304.935 254.944C304.613 254.816 304.391 254.502 304.395 254.138C304.397 254.102 304.374 252.964 303.157 251.712C301.921 250.434 300.797 250.299 300.751 250.292C300.289 250.243 299.948 249.827 299.992 249.362C300.037 248.898 300.44 248.558 300.901 248.595C301.078 248.611 302.696 248.79 304.374 250.524C306.084 252.284 306.097 253.985 306.09 254.171C306.079 254.643 305.694 255.014 305.222 255.003C305.12 254.999 305.019 254.978 304.924 254.94L304.935 254.944Z" fill="#C6B44B"/>
<path d="M303.724 251.699C302.823 251.341 302.193 250.902 302.144 250.87C301.758 250.601 301.664 250.069 301.931 249.688C302.199 249.306 302.725 249.21 303.114 249.474C303.114 249.474 304.625 250.508 306.004 250.459C307.548 250.395 308.523 249.569 308.533 249.561C308.883 249.248 309.425 249.281 309.732 249.629C310.044 249.978 310.014 250.515 309.664 250.828C309.607 250.878 308.244 252.068 306.075 252.152C305.233 252.183 304.4 251.962 303.726 251.694L303.724 251.699Z" fill="#C6B44B"/>
<path d="M282.121 263.187C281.952 263.12 281.81 263.002 281.707 262.833C281.464 262.431 281.592 261.909 281.994 261.666C282.01 261.654 283.668 260.63 284.298 259.136C284.892 257.719 284.587 256.768 284.571 256.731C284.424 256.288 284.658 255.808 285.092 255.651C285.532 255.496 286.011 255.717 286.168 256.152C286.227 256.31 286.712 257.759 285.861 259.793C285.013 261.805 282.956 263.067 282.868 263.118C282.634 263.262 282.355 263.273 282.113 263.177L282.121 263.187Z" fill="#C6B44B"/>
<path d="M291.043 263.897C290.617 263.727 290.4 263.244 290.559 262.814C290.565 262.798 291.159 261.137 290.812 259.523C290.461 257.889 289.764 257.002 289.756 256.992C289.463 256.626 289.521 256.094 289.883 255.799C290.244 255.503 290.773 255.554 291.074 255.918C291.11 255.963 292.027 257.096 292.473 259.164C292.928 261.273 292.182 263.318 292.154 263.405C291.991 263.846 291.499 264.072 291.062 263.91L291.041 263.902L291.043 263.897Z" fill="#C6B44B"/>
</g>
<path d="M286.751 255.573C280.945 255.802 276.035 251.258 275.806 245.452L275.07 226.525C275.07 226.525 278.414 224.127 287.398 223.776C296.382 223.425 299.903 225.556 299.903 225.556L300.638 244.483C300.868 250.29 296.324 255.199 290.517 255.429L286.749 255.578L286.751 255.573Z" fill="#A31E36"/>
<path d="M281.827 256.421C280.442 255.871 279.159 255.062 278.029 254.021C275.626 251.797 274.233 248.779 274.109 245.515L273.371 226.594C273.348 226.023 273.614 225.476 274.08 225.149C274.463 224.874 278.102 222.441 287.335 222.079C296.567 221.717 300.381 223.861 300.789 224.109C301.275 224.406 301.586 224.926 301.61 225.497L302.346 244.424C302.61 251.171 297.337 256.871 290.591 257.13L286.824 257.279C285.094 257.348 283.4 257.053 281.836 256.431L281.827 256.421ZM276.811 227.516L277.504 245.383C277.599 247.738 278.605 249.919 280.34 251.524C282.075 253.128 284.329 253.963 286.685 253.869L290.453 253.72C295.321 253.532 299.129 249.416 298.944 244.542L298.245 226.672C296.835 226.154 293.443 225.233 287.464 225.467C281.492 225.698 278.181 226.877 276.808 227.508L276.811 227.516Z" fill="#C6B44B"/>
</g>
</svg>
