<svg width="199" height="248" viewBox="0 0 199 248" fill="none" xmlns="http://www.w3.org/2000/svg">
<mask id="mask0_1421_432" style="mask-type:alpha" maskUnits="userSpaceOnUse" x="0" y="0" width="199" height="248">
<rect width="199" height="248" fill="#D9D9D9"/>
</mask>
<g mask="url(#mask0_1421_432)">
<path d="M197.417 124.236C196.391 123.702 193.977 122.687 189.822 121.035C187.714 120.197 185.31 119.257 182.756 118.256C179.814 117.106 176.774 115.912 173.684 114.684C168.019 112.432 159.929 109.164 155.114 106.781C154.575 106.514 154.032 106.295 153.59 106.16C153.4 106.103 153.212 106.069 153.021 106.053C153.021 106.053 153.018 106.052 153.016 106.047C153.012 106.038 153.004 106.031 152.998 106.026C148.297 99.4828 142.189 94.3711 134.82 90.7897C135.313 90.3075 135.658 89.8334 135.839 89.3795L135.96 89.0738C135.96 89.0738 135.968 89.0544 135.972 89.0448L136.06 88.8227C136.093 88.739 136.125 88.6508 136.142 88.5607C136.167 88.4404 136.176 88.3246 136.17 88.2069C137.977 80.0132 140.956 72.8853 143.837 65.9833C146.844 58.7846 149.951 51.3425 151.797 42.62C152.146 40.9733 150.411 39.7582 148.861 38.8849C147.956 38.3761 146.826 37.8338 145.497 37.2681C147.266 34.121 147.242 30.101 144.157 27.0223C144.028 26.7769 143.882 26.5328 143.72 26.2932C155.611 23.0097 156.442 15.3223 151.701 10.3594C147.044 2.13083 128.615 -2.21643 114.182 20.3743C112.478 23.0402 111.058 25.7968 109.88 28.5825C108.344 28.4231 106.856 28.2938 105.446 28.203C102.465 28.0133 100.053 28.005 98.2738 28.1774C96.5021 28.3491 94.4242 28.7569 94.0753 30.4036C92.2302 39.1151 91.926 47.4105 91.6295 55.433C91.3469 63.0362 91.0597 70.8948 89.4411 79.018C87.811 80.6996 85.6129 83.5196 85.4826 86.595C81.7886 87.7582 78.1202 89.4199 74.8155 91.7702C67.7237 93.3234 60.031 94.1383 56.8923 93.6325C56.1151 93.5062 55.3717 93.5574 54.6955 93.7769C54.5927 93.8105 54.4918 93.8487 54.3928 93.8914C54.1781 93.6346 53.9569 93.3752 53.7318 93.1068C52.7343 91.9313 51.7424 91.0227 50.7774 90.3185L61.0538 79.3934C62.6081 78.9713 64.1086 78.047 65.317 76.7606C68.2727 73.6192 68.6747 69.1758 66.2133 66.8631C64.9604 65.683 63.2087 65.2327 61.2798 65.5842C59.5072 65.9083 57.7695 66.8949 56.3886 68.3625C55.1802 69.6489 54.3507 71.2014 54.0254 72.7793L26.7615 101.761C25.8823 102.697 25.418 103.922 25.4556 105.215C25.4944 106.505 26.0321 107.703 26.9686 108.582C27.4217 109.008 27.9389 109.329 28.486 109.547C30.1759 110.219 32.1614 109.893 33.5498 108.604C33.8823 109.183 34.2462 109.693 34.6331 110.164L34.1746 110.492C33.5504 110.938 33.4082 111.802 33.8533 112.426L38.8197 119.38C35.4805 119.491 33.2682 120.237 32.2068 121.623L32.092 121.771L32.0229 121.945L31.9052 122.241L31.5264 123.175L31.5239 123.181L30.4032 126.057C30.3423 126.144 30.2898 126.239 30.2488 126.342L23.2789 143.699C23.1428 143.563 23.0056 143.43 22.867 143.301C22.8606 143.298 22.8567 143.289 22.8502 143.286C22.1239 142.61 21.3637 142.047 20.5826 141.621C20.4229 141.535 20.2606 141.456 20.1003 141.381C20.0939 141.378 20.0842 141.374 20.0778 141.372C19.8395 141.259 19.5994 141.159 19.3587 141.071C19.3458 141.066 19.3329 141.061 19.3168 141.055C19.1115 140.98 18.9055 140.917 18.6989 140.865C18.6719 140.858 18.6442 140.843 18.6159 140.839C16.8075 140.381 14.0991 140.397 11.442 143.068C11.1063 143.378 8.79951 145.6 6.6192 149.81C6.575 149.893 6.53208 149.972 6.48982 150.06C6.45652 150.125 6.42643 150.191 6.39312 150.256C6.30283 150.437 6.21124 150.62 6.1216 150.808C6.04798 150.965 5.9718 151.129 5.89883 151.294C5.85145 151.394 5.80535 151.491 5.75991 151.596C5.71191 151.708 5.66135 151.826 5.61207 151.94C5.4252 152.373 5.23964 152.821 5.06185 153.287C4.95504 153.565 4.85017 153.848 4.75045 154.136C4.74278 154.155 4.73638 154.171 4.72871 154.191C4.64624 154.426 4.56572 154.666 4.48842 154.908C4.46221 154.983 4.43728 155.055 4.41302 155.135C3.58885 157.696 2.94504 160.675 2.67777 164.077C2.6089 164.944 2.60284 165.709 2.64293 166.396C2.84395 169.819 4.27293 171.204 5.65807 172.548C7.12764 173.971 8.7532 175.545 9.44317 180.504L8.07806 180.685C7.31866 180.786 6.78761 181.484 6.88831 182.243L7.6291 187.797C7.87951 189.671 8.92053 191.9 10.6998 193.472C11.5912 194.605 12.7244 195.477 13.983 195.977C15.0001 196.381 16.0945 196.544 17.207 196.409L18.0873 196.304C18.5834 196.415 19.1046 196.492 19.652 196.531C19.6629 196.531 19.6771 196.533 19.688 196.534C23.9636 196.936 28.2495 197.078 30.6469 195.407C31.5242 194.794 32.2377 193.993 32.8121 193.092C38.1719 201.756 45.8018 208.133 52.9138 212.633C53.3477 214.908 54.555 216.972 57.14 218.167L60.7243 219.83C60.8975 219.91 61.0719 219.987 61.2458 220.056C61.6159 220.203 61.9892 220.314 62.358 220.409C63.8263 220.981 65.5133 221.529 67.4563 222.051C69.6554 222.642 71.8489 222.769 73.9076 222.39C76.8227 223.337 78.7926 223.81 79.2939 223.928L79.3228 223.939C82.062 225.028 85.1272 226.075 89.0728 226.801C75.6251 233.129 59.447 234.709 47.3567 230.168C39.7292 227.292 34.9816 222.17 33.9559 215.72C32.3824 205.847 25.9531 199.967 20.4201 199.259C16.1591 198.717 12.4369 201.095 10.467 205.62C8.79718 209.455 9.86986 215.308 13.409 221.68C17.5707 229.167 26.2626 238.854 38.1881 243.594C41.0431 244.729 43.9572 245.518 46.848 245.944C69.7531 249.309 95.203 241.563 110.887 226.899C112.748 226.55 113.863 226.21 114.158 226.115C123.37 223.973 136.752 216.459 148.883 193.066C151.564 193.297 153.849 193.344 155.666 193.209C156.185 193.169 156.638 192.846 156.839 192.367C156.975 192.044 160.206 184.338 162.649 173.512C163.553 169.503 164.403 164.757 164.876 159.686C166.158 159.338 167.063 158.159 167.007 156.78C167.003 156.696 166.995 156.615 166.985 156.536C167.106 156.346 167.095 156.092 166.937 155.917C166.895 155.871 166.846 155.836 166.795 155.805C166.683 155.533 166.534 155.28 166.348 155.053C166.354 154.973 166.353 154.891 166.349 154.807C166.342 154.656 166.319 154.508 166.288 154.362C166.666 153.841 166.867 153.205 166.841 152.547C166.842 152.536 166.838 152.527 166.839 152.516C166.989 152.4 167.068 152.212 167.034 152.016C166.994 151.806 166.837 151.647 166.639 151.602C166.529 151.316 166.37 151.051 166.176 150.817C166.181 150.738 166.184 150.657 166.183 150.574C166.176 150.422 166.153 150.275 166.121 150.129C166.5 149.608 166.7 148.972 166.675 148.314C166.672 148.264 166.665 148.217 166.663 148.167C166.818 148.039 166.893 147.822 166.83 147.615C166.773 147.421 166.612 147.29 166.429 147.254C166.321 147.01 166.182 146.787 166.014 146.582C166.02 146.503 166.022 146.421 166.021 146.339C166.015 146.187 165.991 146.04 165.96 145.894C166.338 145.373 166.539 144.737 166.514 144.079C166.51 143.965 166.496 143.852 166.48 143.741C166.679 143.578 166.732 143.293 166.594 143.07C166.525 142.961 166.424 142.888 166.311 142.854C166.904 142.627 167.277 142.026 167.191 141.388L166.006 132.162C167.994 133.593 169.829 134.546 171.416 135.177C173.302 135.927 175.239 136.391 177.176 136.561C185.941 137.324 192.784 134.289 196.264 131.196C197.816 129.815 198.489 128.655 198.78 127.924C199.336 126.524 198.747 124.94 197.41 124.245L197.417 124.236Z" fill="#E67823"/>
<path d="M78.4007 135.83C78.4007 135.83 65.4242 136.979 60.3986 135.369C52.2308 132.756 41.7441 111.371 41.7441 111.371L57.9289 99.8721C57.9289 99.8721 67.4294 112.251 70.4236 115.268C72.0925 116.948 89.271 113.143 90.5053 126.466C91.3009 135.042 78.4007 135.83 78.4007 135.83Z" fill="#791628"/>
<path d="M59.4731 136.506C50.9466 133.117 40.9293 112.858 40.4996 111.979C40.2018 111.369 40.3861 110.633 40.9416 110.239L57.1265 98.7403C57.7346 98.3074 58.5743 98.4362 59.029 99.0269C59.1219 99.1496 68.3289 111.132 71.3212 114.2C71.7667 114.355 73.187 114.42 74.3391 114.475C80.113 114.747 90.8599 115.25 91.8874 126.337C92.1047 128.679 91.4705 130.734 90.0045 132.443C86.4309 136.614 79.0444 137.174 78.5048 137.209C77.7595 137.274 65.1636 138.347 59.9752 136.687C59.8091 136.636 59.6405 136.573 59.4731 136.506ZM43.5152 111.81C46.7979 118.236 54.9324 132.167 60.8223 134.05C65.5248 135.553 78.1548 134.461 78.2815 134.452C78.2937 134.449 78.3046 134.45 78.3168 134.447C78.3818 134.443 85.0417 133.985 87.907 130.64C88.8764 129.505 89.2781 128.185 89.1312 126.595C88.3883 118.58 81.3534 117.58 74.2107 117.246C71.6601 117.127 70.2552 117.06 69.4437 116.242C66.9091 113.691 60.0328 104.857 57.647 101.773L43.5152 111.81Z" fill="#3A1919"/>
<path d="M32.0969 101.002C33.1733 107.68 35.995 107.971 39.665 112.4C43.8555 117.461 47.012 118.504 50.6834 116.187C53.6362 114.319 56.9022 111.588 60.1976 105.239C61.1634 103.897 55.6426 96.6967 51.5814 91.9105C48.7583 88.5855 45.7852 87.2882 43.1181 87.3873C37.2504 87.7833 31.7839 94.0155 32.1001 101.003L32.0969 101.002Z" fill="#FFE14D"/>
<path d="M33.2546 104.578C34.4333 109.199 37.0959 109.102 39.6649 112.4C42.599 116.168 45.0303 118.257 47.0658 116.971C49.7827 116.69 51.6236 115.566 55.0715 112.18C55.5489 111.345 47.1472 103.507 44.3139 99.9354C42.3448 97.453 40.4463 96.3406 38.8418 96.1948C35.3257 96.0011 32.5135 99.8034 33.2546 104.578Z" fill="#EA911B"/>
<path d="M44.5385 118.247C42.2757 117.348 40.3264 115.369 38.5981 113.284C37.5753 112.05 36.6337 111.165 35.7223 110.307C33.491 108.213 31.564 106.403 30.7275 101.221C30.7184 101.169 30.7138 101.115 30.7124 101.063C30.3724 93.5064 36.1247 86.4709 43.0233 86.0038C43.0387 86.0025 43.0541 86.0011 43.0651 86.0018C45.4177 85.9156 48.9872 86.7157 52.6351 91.0134C62.8494 103.05 61.9939 105.08 61.379 105.962C57.8823 112.667 54.3843 115.485 51.4226 117.357C48.8398 118.988 46.5631 119.052 44.5385 118.247ZM33.4796 100.862C34.1685 105.045 35.5446 106.338 37.6237 108.29C38.5518 109.162 39.6017 110.15 40.7354 111.517C44.9536 116.612 47.3869 116.632 49.9459 115.014C52.5935 113.342 55.7242 110.811 58.9102 104.708C58.6927 103.455 55.7564 98.9706 50.5248 92.806C48.215 90.0839 45.6797 88.6885 43.1913 88.7691C37.8614 89.1441 33.255 94.8908 33.4796 100.862Z" fill="#3A1919"/>
<path d="M67.0359 107.474L56.8114 93.1621L33.8954 109.534L44.1199 123.845L67.0359 107.474Z" fill="#A31E36"/>
<path d="M56.8065 93.1601L49.863 98.1194C49.4062 99.5033 49.3047 101.043 49.844 102.696C51.1785 106.794 54.4858 111.508 56.9619 114.665L67.0335 107.472L56.8097 93.1614L56.8065 93.1601Z" fill="#791628"/>
<path d="M63.7135 102.823L60.1355 97.8152L37.2195 114.187L40.7975 119.195L63.7135 102.823Z" fill="#FFEC64"/>
<path d="M60.13 97.8139L50.5946 104.624L37.2118 114.184L40.7898 119.192L53.6158 110.029L63.708 102.822L60.13 97.8139Z" fill="#FFEC64"/>
<path d="M60.1302 97.8129L50.5935 104.626C51.395 106.436 52.4725 108.292 53.6148 110.032L63.7082 102.821L60.1302 97.8129Z" fill="#DDC84B"/>
<path d="M43.5988 125.131C43.3542 125.034 43.1409 124.867 42.9822 124.647L32.7585 110.337C32.3133 109.713 32.4587 108.85 33.0797 108.404L55.9979 92.0333C56.2985 91.8211 56.6688 91.7334 57.0317 91.7957C57.3946 91.8579 57.7179 92.0573 57.9302 92.3578L68.1539 106.668C68.3662 106.969 68.4538 107.339 68.3916 107.702C68.3293 108.065 68.13 108.388 67.8294 108.6L44.9112 124.97C44.6107 125.183 44.2404 125.27 43.8775 125.208C43.7797 125.191 43.6857 125.165 43.5924 125.128L43.5988 125.131ZM35.8203 109.854L44.4318 121.91L65.0966 107.149L56.485 95.0933L35.8203 109.854Z" fill="#3A1919"/>
<path d="M80.7576 88.1059L75.2087 90.7569C67.5387 92.5462 59.0981 93.4702 55.5766 92.9054C55.0169 92.8133 54.496 92.8485 54.0287 93.002C53.0742 93.3121 52.3769 94.1382 52.2401 95.12C52.1761 95.5717 52.2356 96.0315 52.407 96.4537C52.6011 96.9781 52.8258 97.4066 53.1246 97.8459C55.4191 101.207 61.7389 103.79 70.8997 104.87L73.3387 105.158C73.9483 99.4698 74.268 93.2456 80.7608 88.1072L80.7576 88.1059Z" fill="#FF9739"/>
<path d="M79.4225 88.2019L73.8736 90.853C70.1558 91.7197 66.1381 92.4411 62.703 92.8313C60.7823 99.3137 56.4898 100.895 56.4898 100.895C59.2989 101.874 65.5783 104.493 69.5594 104.961L71.9984 105.248C72.608 99.5601 72.9277 93.3359 79.4205 88.1974L79.4225 88.2019Z" fill="#E26917"/>
<path d="M58.9524 103.514C55.6757 102.211 53.2942 100.56 51.9721 98.6257C51.6075 98.0895 51.3337 97.5594 51.1059 96.9508C50.8492 96.312 50.766 95.6118 50.8616 94.9304C51.0719 93.4262 52.1446 92.1529 53.5952 91.6821C54.2727 91.4594 55.0116 91.4102 55.7921 91.5378C59.0819 92.0665 67.3829 91.1467 74.7432 89.443L80.1578 86.8578C80.7939 86.5515 81.5578 86.7769 81.9309 87.3762C82.304 87.9755 82.1674 88.7599 81.6139 89.1959C75.9172 93.7003 75.3501 99.1404 74.8039 104.406L74.71 105.308C74.6716 105.677 74.4858 106.013 74.1962 106.244C73.9067 106.476 73.5377 106.579 73.1703 106.537L70.7313 106.25C66.0747 105.7 62.101 104.773 58.953 103.521L58.9524 103.514ZM75.2726 92.1619C67.3936 93.9799 59.0462 94.8664 55.351 94.2698C55.0151 94.2145 54.7103 94.2313 54.4532 94.3155C53.9994 94.4631 53.6703 94.8504 53.6038 95.3085C53.5766 95.5176 53.6027 95.733 53.6804 95.9315C53.6862 95.945 53.6888 95.9573 53.6946 95.9708C53.8447 96.3808 54.0159 96.7097 54.2578 97.0668C56.3233 100.094 62.5996 102.496 71.0489 103.491L72.0963 103.613C72.4832 99.9204 72.9801 95.9321 75.2694 92.1606L75.2726 92.1619Z" fill="#3A1919"/>
<path d="M115.351 216.527C110.128 217.72 105.313 218.158 100.933 218.113L100.511 218.463C85.6217 230.809 62.0916 235.496 45.7797 229.367C37.6527 226.304 32.6039 220.786 31.4986 213.843C30.0289 204.637 24.1781 199.177 19.1579 198.538C15.4848 198.073 12.3865 200.092 10.6501 204.076C9.15313 207.514 10.2062 212.92 13.5323 218.908C18.071 227.079 26.8261 235.922 37.6121 240.209C40.2805 241.27 43.0775 242.054 45.9619 242.477C70.4523 246.073 97.8862 236.768 112.675 219.846L115.402 216.51C115.402 216.51 115.366 216.518 115.349 216.522L115.351 216.527Z" fill="#FF9739"/>
<path d="M112.154 217.172C96.8846 232.237 71.2289 240.284 48.1791 236.899C45.2947 236.476 42.4977 235.692 39.8294 234.632C29.0433 230.344 20.2882 221.501 15.7495 213.33C13.2577 208.844 12.0439 204.686 12.217 201.438C11.614 202.186 11.0879 203.069 10.6488 204.079C9.15185 207.517 10.2049 212.923 13.531 218.912C18.0697 227.082 26.8248 235.926 37.6109 240.213C40.2792 241.274 43.0762 242.057 45.9606 242.481C70.451 246.076 97.8818 236.77 112.673 219.85L115.401 216.513C115.401 216.513 115.364 216.521 115.348 216.526C114.265 216.774 113.2 216.988 112.154 217.172Z" fill="#E26917"/>
<path d="M37.099 241.5C25.1735 236.76 16.4783 227.072 12.3199 219.586C8.78072 213.214 7.70803 207.361 9.37781 203.526C11.3478 199.001 15.0654 196.625 19.331 197.165C24.864 197.873 31.2933 203.753 32.8667 213.626C33.8925 220.076 38.6401 225.198 46.2675 228.073C62.1487 234.039 85.0886 229.449 99.6251 217.399L100.049 217.046C100.3 216.836 100.62 216.725 100.947 216.728C105.588 216.772 110.327 216.252 115.033 215.178C115.05 215.174 115.091 215.164 115.103 215.161C115.68 215.033 116.273 215.283 116.584 215.787C116.894 216.291 116.851 216.933 116.476 217.391L113.748 220.728C113.748 220.728 113.728 220.75 113.72 220.761C98.6349 238.016 70.6887 247.513 45.7621 243.852C42.8713 243.426 39.9572 242.636 37.1022 241.501L37.099 241.5ZM20.9602 200.436C20.2939 200.171 19.6291 199.997 18.98 199.914C15.9214 199.526 13.414 201.201 11.9195 204.633C10.6178 207.626 11.6714 212.712 14.7405 218.241C18.6704 225.308 26.8729 234.454 38.1225 238.925C40.778 239.981 43.4823 240.716 46.162 241.111C70.2008 244.642 97.1148 235.53 111.616 218.956L111.884 218.627C108.386 219.215 104.881 219.507 101.427 219.505L101.392 219.536C86.152 232.175 62.0316 236.96 45.291 230.671C45.0966 230.597 44.899 230.523 44.7091 230.447C36.4594 227.168 31.2935 221.372 30.1277 214.066C28.9624 206.767 24.9277 202.017 20.9589 200.439L20.9602 200.436Z" fill="#3A1919"/>
<path d="M113.207 221.396C122.382 219.28 135.847 211.632 148.002 187.223C155.512 172.145 160.691 153.789 161.204 140.459C161.352 136.571 161.253 132.749 160.773 129.072C158.866 114.468 153.437 106.764 153.432 106.758C153.148 106.283 152.857 105.814 152.554 105.347C152.15 104.713 151.734 104.081 151.292 103.458C151.292 103.458 151.292 103.458 151.289 103.457C151.289 103.457 151.289 103.457 151.286 103.456C146.297 96.5119 139.672 91.2173 131.592 87.7185C130.927 87.4318 130.253 87.1489 129.583 86.8828C110.106 79.1411 86.6954 79.4035 72.9571 91.1331C62.0353 100.456 69.2291 107.151 69.6025 108.209C71.8242 112.663 47.6486 142.708 47.6486 142.708C41.877 141.156 30.9753 141.351 26.2352 149.788C26.1731 149.897 25.8794 151.808 25.7667 152.636C25.761 152.678 25.7508 152.722 25.7484 152.766C25.7174 153.004 25.6864 153.241 25.6554 153.478C24.1916 151.178 22.2938 149.511 20.1308 148.651C17.6684 147.672 14.9763 147.825 12.7491 149.068C10.1807 150.503 8.43063 153.199 7.81874 156.661C6.37199 164.867 13.6787 184.153 21.9094 189.956C22.5961 190.441 23.262 190.81 23.8864 191.058C25.3831 191.653 26.6957 191.567 27.7868 190.801C29.6961 189.458 30.5088 186.325 30.7444 184.063C43.367 211.281 79.126 219.225 79.126 219.225L79.2547 219.276C83.9444 221.14 89.4648 222.828 98.7349 223.005C108.006 223.179 113.206 221.407 113.206 221.407L113.207 221.396Z" fill="#FFE14D"/>
<path d="M159.477 140.969C159.625 137.081 159.526 133.259 159.045 129.583C157.548 118.111 153.878 110.897 152.368 108.329C153.394 111.544 154.352 115.473 154.955 120.096C155.436 123.772 155.536 127.591 155.387 131.483C154.877 144.814 151.18 165.996 143.67 181.073C131.515 205.482 118.049 213.134 108.875 215.246C108.875 215.246 103.674 217.022 94.4038 216.844C85.1324 216.67 74.7981 213.066 74.7981 213.066C74.7981 213.066 37.5549 202.291 24.9311 175.077C24.6967 177.336 23.8828 180.472 21.9735 181.815C20.8856 182.583 19.573 182.668 18.0731 182.072C17.4486 181.824 16.784 181.452 16.0961 180.97C13.2159 178.941 10.4525 175.26 8.13542 170.981C10.7303 178.799 15.2942 187.01 20.1861 190.456C20.8728 190.942 21.5387 191.311 22.1631 191.559C23.6599 192.154 24.9724 192.068 26.0636 191.301C27.9729 189.958 28.7855 186.826 29.0212 184.564C41.6437 211.781 77.4027 219.725 77.4027 219.725L77.5315 219.777C82.2212 221.641 87.7415 223.328 97.0117 223.505C106.283 223.679 111.483 221.907 111.483 221.907C120.658 219.792 134.123 212.143 146.281 187.735C153.791 172.658 158.97 154.302 159.48 140.971L159.477 140.969Z" fill="#EA911B"/>
<path d="M159.617 155.544C159.594 150.417 159.036 145.256 157.67 140.375C117.937 133.333 87.4206 130.335 87.4206 130.335C76.438 125.549 62.9993 119.458 62.9993 119.458C62.7895 119.986 60.7101 122.666 57.9447 126.107C57.651 126.527 57.3471 126.954 57.038 127.394C52.3827 133.949 47.5541 140.151 45.957 142.182C45.6275 142.11 45.2813 142.043 44.9216 141.982C43.4301 143.775 42.4826 144.912 42.4826 144.912C42.3326 150.812 47.0933 157.505 71.7241 171.56C100.576 186.565 128.808 194.328 144.413 195.7C145.646 193.581 146.876 191.312 148.087 188.875C153.29 178.43 157.385 166.42 159.613 155.546L159.617 155.544Z" fill="#EA911B"/>
<path d="M149.642 105.953C149.642 105.953 155.042 125.655 127.513 124.828L160.771 129.076C160.771 129.076 161.619 118.317 149.638 105.951L149.642 105.953Z" fill="#EA911B"/>
<path d="M66.9443 218.177C64.379 217.157 61.5211 215.898 58.5262 214.365C49.5398 209.761 37.7861 201.794 30.7458 189.368C30.2145 190.826 29.3808 192.295 28.0727 193.214C27.0432 193.938 25.3054 194.597 22.8656 193.627C22.1414 193.339 21.3776 192.916 20.6033 192.37C11.8631 186.208 4.40545 166.449 5.94751 157.702C6.62924 153.821 8.6249 150.779 11.5659 149.138C14.1613 147.691 17.2817 147.511 20.1367 148.646C21.6302 149.239 23.0177 150.175 24.2424 151.407C24.3861 150.633 24.4585 150.498 24.5194 150.391C29.6195 141.311 40.702 141.139 46.6023 142.434C48.1994 140.403 53.0267 134.204 57.6833 127.646C68.3426 112.635 68.1505 109.771 68.072 109.453C68.0662 109.439 68.0591 109.429 68.0533 109.415C67.9997 109.335 67.863 109.153 67.7494 109.008C66.102 106.851 61.0927 100.286 71.5465 91.3624C79.8907 84.2389 91.3612 82.3314 99.5155 81.987C109.721 81.5558 120.683 83.3374 129.583 86.875C130.265 87.1462 130.956 87.4322 131.633 87.7273C139.946 91.3259 146.766 96.7764 151.903 103.929C151.908 103.934 151.915 103.945 151.921 103.95C152.322 104.516 152.732 105.134 153.215 105.889C153.478 106.295 153.758 106.746 154.088 107.294C154.564 107.99 159.773 115.89 161.637 130.18C162.098 133.718 162.243 137.518 162.08 141.799C161.563 155.31 156.325 173.888 148.736 189.128C136.362 213.976 122.524 221.819 113.073 224.019C112.376 224.245 107.13 225.835 98.2012 225.67C88.6558 225.491 82.9655 223.725 78.2371 221.846L78.2082 221.834C77.4198 221.651 72.9923 220.581 66.9507 218.18L66.9443 218.177ZM30.7471 184.057C31.069 184.185 31.3403 184.431 31.4916 184.763C37.8368 198.441 50.3482 207.052 59.7275 211.868C69.9766 217.131 78.8294 219.137 78.9182 219.157C78.9897 219.174 79.0688 219.21 79.1306 219.223L79.2594 219.274C83.7431 221.056 89.1489 222.732 98.2505 222.902C107.122 223.07 112.202 221.391 112.25 221.373C112.294 221.357 112.34 221.345 112.385 221.334C121.256 219.291 134.333 211.831 146.253 187.891C153.68 172.975 158.805 154.84 159.308 141.692C159.467 137.57 159.33 133.922 158.888 130.541C157.061 116.542 152.001 109.148 151.785 108.839C151.771 108.818 151.757 108.798 151.746 108.779C151.409 108.22 151.138 107.784 150.879 107.387C150.416 106.658 150.027 106.079 149.654 105.547C149.647 105.544 149.646 105.536 149.641 105.53C144.799 98.7977 138.372 93.6635 130.534 90.2684C129.881 89.9868 129.219 89.7123 128.559 89.45C111.619 82.7165 86.3341 82.3758 73.345 93.4675C64.8878 100.688 68.4368 105.337 69.9545 107.324C70.2558 107.719 70.4641 107.992 70.5915 108.3C71.1045 109.391 71.1595 111.306 67.9988 116.904C66.2291 120.044 63.6014 124.076 60.1919 128.893C54.4119 137.058 48.281 144.774 48.2207 144.851C47.8769 145.285 47.3112 145.47 46.7752 145.328C41.1439 143.816 31.2808 144.249 27.0221 151.588C26.9362 152.038 26.7326 153.347 26.6294 154.104L26.6129 154.202C26.5761 154.463 26.5477 154.694 26.5192 154.925C26.4491 155.505 26.0218 155.979 25.4483 156.109C24.8781 156.241 24.2865 155.994 23.9741 155.505C22.6633 153.448 20.9788 151.966 19.1087 151.223C17.0326 150.397 14.7765 150.522 12.9141 151.56C10.7164 152.784 9.21067 155.138 8.67378 158.186C7.31915 165.87 14.4653 184.66 22.1993 190.108C22.7965 190.528 23.3664 190.848 23.8878 191.055C25.288 191.612 26.034 191.263 26.4784 190.952C27.8964 189.954 28.6343 187.328 28.8567 185.203C28.9203 184.583 29.392 184.081 30.0066 183.979C30.2625 183.935 30.5186 183.966 30.7471 184.057ZM68.0798 109.471C68.0798 109.471 68.0798 109.471 68.083 109.472C68.083 109.472 68.083 109.472 68.0798 109.471ZM68.017 109.319C68.017 109.319 68.0313 109.358 68.041 109.381C68.0345 109.36 68.0235 109.34 68.017 109.319Z" fill="#3A1919"/>
<path d="M160.846 134.261C121.113 127.219 90.5964 124.221 90.5964 124.221C79.6137 119.434 66.1751 113.343 66.1751 113.343C65.5034 115.033 45.2758 139.76 45.2758 139.76C45.1259 145.66 50.2704 151.388 74.9012 165.442C108.727 183.032 141.7 190.671 154.475 189.729C154.475 189.729 167.64 158.568 160.846 134.261Z" fill="#A31E36"/>
<path d="M98.6364 177.821C90.8019 174.707 82.6002 171.007 74.2601 166.671C74.2441 166.664 74.2292 166.655 74.2112 166.644C61.9071 159.621 54.3986 154.665 49.8661 150.567C45.5818 146.699 43.7963 143.454 43.8892 139.723C43.8956 139.416 44.0068 139.118 44.2012 138.882C51.7792 129.616 64.0787 114.37 64.8986 112.795C65.0426 112.461 65.3135 112.192 65.6547 112.056C66.0049 111.915 66.4037 111.925 66.745 112.079C66.8776 112.139 80.1366 118.148 90.9499 122.863C93.7838 123.151 123.502 126.234 161.087 132.895C161.613 132.989 162.037 133.374 162.181 133.885C165.771 146.722 163.825 161.379 161.562 171.412C159.119 182.238 155.888 189.944 155.753 190.266C155.551 190.745 155.097 191.072 154.579 191.108C145.325 191.791 123.937 187.874 98.6409 177.819L98.6364 177.821ZM75.5637 164.226C109.533 181.888 141.082 188.889 153.517 188.398C155.446 183.48 165.242 156.773 159.734 135.474C120.932 128.631 90.7591 125.631 90.458 125.601C90.3139 125.588 90.1724 125.551 90.0397 125.491C80.9608 121.532 70.0834 116.63 66.6743 115.089C63.4124 119.704 51.1747 134.728 46.658 140.25C46.8199 145.197 51.8332 150.682 75.5605 164.224L75.5637 164.226ZM64.8967 112.809C64.8967 112.809 64.8903 112.825 64.8878 112.832C64.8903 112.825 64.8942 112.816 64.8967 112.809Z" fill="#3A1919"/>
<path fill-rule="evenodd" clip-rule="evenodd" d="M134.144 165.504C124.904 166.976 98.1756 160.075 98.1756 160.075L94.8242 167.934C94.8242 167.934 118.158 174.514 133.441 173.142C146.734 171.948 154.833 163.668 153.779 160.592C152.96 158.19 142.405 164.189 134.141 165.503L134.144 165.504Z" fill="#791628"/>
<path d="M65.345 109.186L63.8135 115.42C63.7332 115.735 63.8837 116.059 64.1716 116.207L84.8323 126.306C84.8323 126.306 84.8663 126.248 84.924 126.141C86.7536 122.757 85.4091 118.525 81.9848 116.769L66.3345 108.74C65.9379 108.538 65.4559 108.756 65.3482 109.187L65.345 109.186Z" fill="#2E3499"/>
<path d="M84.3177 127.592C84.2855 127.579 84.2534 127.566 84.2225 127.55L63.5617 117.452C62.6724 116.998 62.2304 116.028 62.4695 115.08L64.0003 108.856C64.0003 108.856 64.0029 108.85 64.0042 108.846C64.1598 108.23 64.5845 107.724 65.1622 107.462C65.7398 107.199 66.4036 107.217 66.9664 107.508L82.6167 115.536C84.6199 116.564 86.0896 118.315 86.7567 120.462C87.4161 122.592 87.1997 124.843 86.1433 126.797C86.0684 126.939 86.019 127.016 86.019 127.016C85.6646 127.598 84.9435 127.837 84.319 127.589L84.3177 127.592ZM65.2902 115.213L84.1372 124.427C84.436 123.412 84.4285 122.325 84.1066 121.287C83.6623 119.854 82.6827 118.69 81.3479 118.006L66.478 110.378L65.289 115.216L65.2902 115.213Z" fill="#3A1919"/>
<path d="M162.995 129.107L162.673 135.14C162.567 135.444 162.267 135.638 161.945 135.603L84.8327 126.306C84.8327 126.306 87.1776 119.112 92.904 119.391L162.415 128.194C162.859 128.24 163.143 128.688 162.999 129.108L162.995 129.107Z" fill="#2E3499"/>
<path d="M137.703 125.062C137.703 125.062 138.952 127.735 136.056 131.72L162.671 135.135L162.993 129.102L137.705 125.059L137.703 125.062Z" fill="#1E2672"/>
<path d="M84.3177 127.592C84.0505 127.486 83.8199 127.297 83.6605 127.051C83.4378 126.702 83.3822 126.27 83.5119 125.878C83.6218 125.545 86.2612 117.686 92.9659 118.006C93.0019 118.009 93.0379 118.012 93.074 118.016L162.585 126.819C163.191 126.88 163.749 127.229 164.092 127.764C164.39 128.233 164.489 128.791 164.371 129.321L164.057 135.212C164.051 135.34 164.026 135.469 163.982 135.589C163.664 136.51 162.765 137.084 161.797 136.979L84.6626 127.681C84.5417 127.666 84.4271 127.635 84.3177 127.592ZM92.7841 120.77C89.7331 120.654 87.7991 123.344 86.8498 125.151L161.34 134.133L161.59 129.483L92.7841 120.77ZM162.267 129.57L162.239 129.566C162.239 129.566 162.256 129.569 162.267 129.57Z" fill="#3A1919"/>
<path d="M69.6086 162.31L69.5828 162.299C68.9764 162.043 68.6925 161.342 68.9485 160.735L83.7293 125.837C83.9827 125.237 84.669 124.955 85.2677 125.193L85.2934 125.203C85.8999 125.459 86.1838 126.161 85.9278 126.767L71.147 161.665C70.8936 162.265 70.2073 162.548 69.6086 162.31Z" fill="#3A1919"/>
<path d="M76.8331 140.898C74.4673 139.958 72.3167 138.88 70.4179 137.674C69.8853 137.335 69.7268 136.628 70.0633 136.09C70.4017 135.558 71.1096 135.399 71.6467 135.736C75.1743 137.973 81.5445 140.926 91.8747 142.3C92.502 142.382 92.9432 142.96 92.8583 143.586C92.7767 144.213 92.1988 144.654 91.5728 144.569C86.0957 143.842 81.1133 142.592 76.8356 140.892L76.8331 140.898Z" fill="#FFEC64"/>
<path d="M67.9069 138.524C69.4695 139.145 71.2397 138.382 71.8608 136.82C72.4819 135.257 71.7187 133.487 70.1561 132.866C68.5936 132.245 66.8233 133.008 66.2022 134.57C65.5811 136.133 66.3444 137.903 67.9069 138.524Z" fill="#FFEC64"/>
<path d="M67.587 139.329C65.6783 138.57 64.669 136.44 65.3227 134.467C65.6531 133.476 66.346 132.671 67.2808 132.204C68.2157 131.737 69.2755 131.659 70.2661 131.989C71.2535 132.318 72.0622 133.012 72.5292 133.947C72.9976 134.879 73.0745 135.942 72.7441 136.932C72.4137 137.923 71.7208 138.728 70.786 139.195C69.8544 139.664 68.7913 139.741 67.8007 139.41C67.7287 139.385 67.6566 139.36 67.5858 139.332L67.587 139.329ZM69.8414 133.676C69.8028 133.661 69.7609 133.644 69.721 133.632C69.1675 133.449 68.5803 133.492 68.0586 133.754C67.5382 134.013 67.1507 134.463 66.9692 135.013C66.5909 136.153 67.2149 137.396 68.3503 137.765C68.9039 137.948 69.491 137.905 70.0127 137.643C70.5332 137.384 70.9207 136.934 71.1021 136.384C71.2849 135.83 71.2425 135.243 70.9802 134.722C70.7386 134.242 70.3371 133.873 69.8414 133.676Z" fill="#C6B44B"/>
<path d="M92.7186 146.892C94.2812 147.513 96.0514 146.75 96.6725 145.187C97.2936 143.625 96.5304 141.855 94.9678 141.233C93.4053 140.612 91.635 141.376 91.0139 142.938C90.3928 144.501 91.1561 146.271 92.7186 146.892Z" fill="#FFEC64"/>
<path d="M92.3921 147.694C91.5005 147.34 90.7787 146.68 90.3472 145.815C89.8788 144.884 89.8019 143.821 90.1323 142.83C90.4627 141.84 91.1556 141.034 92.0904 140.567C93.022 140.099 94.0851 140.022 95.0757 140.352C96.0708 140.681 96.8718 141.375 97.3388 142.31C97.8072 143.242 97.8841 144.305 97.5537 145.295C97.2233 146.286 96.5304 147.092 95.5956 147.559C94.664 148.027 93.6009 148.104 92.6103 147.773C92.5382 147.749 92.4629 147.722 92.3921 147.694ZM94.6477 142.038C94.6091 142.023 94.5673 142.006 94.5274 141.994C93.9738 141.811 93.3867 141.854 92.8663 142.113C92.3458 142.372 91.9583 142.822 91.7756 143.375C91.5928 143.929 91.6352 144.516 91.8975 145.038C92.1566 145.558 92.6031 145.944 93.1567 146.127C93.7102 146.31 94.2974 146.267 94.8191 146.005C95.3395 145.746 95.727 145.296 95.9085 144.746C96.0912 144.192 96.0488 143.605 95.7865 143.083C95.5449 142.604 95.1434 142.235 94.6477 142.038Z" fill="#C6B44B"/>
<path d="M79.2987 129.407C77.4576 128.675 75.7565 127.853 74.2095 126.944C73.6628 126.622 73.4831 125.921 73.8048 125.374C74.1252 124.83 74.8278 124.648 75.3746 124.969C78.9663 127.083 85.4299 129.82 95.8139 130.842C96.4425 130.902 96.9042 131.466 96.84 132.096C96.7757 132.727 96.2165 133.187 95.586 133.122C89.4667 132.52 83.9401 131.251 79.2987 129.407Z" fill="#FFEC64"/>
<path d="M71.6365 127.856C73.1991 128.477 74.9693 127.714 75.5904 126.151C76.2115 124.589 75.4483 122.818 73.8857 122.197C72.3232 121.576 70.553 122.339 69.9319 123.902C69.3108 125.465 70.074 127.235 71.6365 127.856Z" fill="#FFEC64"/>
<path d="M71.3109 128.658C70.4611 128.32 69.7613 127.699 69.3202 126.887C68.8249 125.967 68.7158 124.909 69.0127 123.909C69.3096 122.909 69.9806 122.084 70.9006 121.588C71.8206 121.093 72.8778 120.984 73.8779 121.281C74.8813 121.579 75.7035 122.249 76.1988 123.169C76.6942 124.089 76.8032 125.146 76.5063 126.146C75.8901 128.212 73.7071 129.391 71.6411 128.774C71.5278 128.741 71.4171 128.7 71.3109 128.658ZM73.5697 123.003C73.5086 122.979 73.4474 122.955 73.3856 122.941C72.8289 122.776 72.2386 122.836 71.7259 123.113C71.2133 123.39 70.8406 123.849 70.6752 124.406C70.5098 124.963 70.5696 125.553 70.8467 126.066C71.1237 126.578 71.5831 126.951 72.1398 127.117C73.29 127.458 74.5042 126.804 74.8503 125.652C75.0157 125.095 74.9559 124.505 74.6788 123.992C74.4347 123.537 74.0461 123.193 73.5697 123.003Z" fill="#C6B44B"/>
<path d="M96.7228 135.345C98.2854 135.966 100.056 135.203 100.677 133.64C101.298 132.078 100.535 130.307 98.972 129.686C97.4095 129.065 95.6393 129.828 95.0182 131.391C94.3971 132.954 95.1603 134.724 96.7228 135.345Z" fill="#FFEC64"/>
<path d="M96.3998 136.148C94.5393 135.409 93.5161 133.351 94.1016 131.399C94.3986 130.399 95.0695 129.574 95.9895 129.079C96.9095 128.583 97.9667 128.474 98.9669 128.771C99.9702 129.069 100.791 129.742 101.288 130.659C101.783 131.579 101.892 132.636 101.595 133.636C101.298 134.636 100.627 135.462 99.7073 135.957C98.7873 136.452 97.7302 136.562 96.73 136.265C96.6167 136.231 96.5092 136.192 96.403 136.15L96.3998 136.148ZM98.6554 130.492C98.5943 130.468 98.5331 130.444 98.4713 130.43C97.9146 130.265 97.3243 130.325 96.8116 130.602C96.299 130.879 95.9263 131.338 95.7609 131.895C95.4193 133.045 96.0767 134.261 97.2255 134.605C97.7822 134.771 98.3726 134.711 98.8852 134.434C99.3979 134.157 99.7706 133.697 99.936 133.141C100.101 132.584 100.042 131.994 99.7645 131.481C99.5204 131.026 99.1318 130.682 98.6554 130.492Z" fill="#C6B44B"/>
<path d="M72.7672 151.924C70.4014 150.984 68.2508 149.906 66.3521 148.7C65.8194 148.361 65.6609 147.654 65.9974 147.116C66.3359 146.584 67.0437 146.425 67.5809 146.762C71.1085 148.999 77.4787 151.952 87.8088 153.326C88.4361 153.408 88.8773 153.986 88.7925 154.612C88.7109 155.239 88.1329 155.68 87.5069 155.595C82.0298 154.868 77.0475 153.618 72.7665 151.917L72.7672 151.924Z" fill="#FFEC64"/>
<path d="M63.8405 149.551C65.403 150.172 67.1732 149.409 67.7943 147.846C68.4154 146.283 67.6522 144.513 66.0897 143.892C64.5271 143.271 62.7569 144.034 62.1358 145.597C61.5147 147.159 62.2779 148.93 63.8405 149.551Z" fill="#FFEC64"/>
<path d="M63.5176 150.354C62.6261 150 61.9042 149.34 61.4727 148.475C61.0044 147.544 60.9275 146.481 61.2578 145.49C61.5882 144.499 62.2811 143.694 63.216 143.227C64.1508 142.76 65.2106 142.682 66.2012 143.012C67.1905 143.346 67.9973 144.035 68.4644 144.97C68.9327 145.902 69.0096 146.965 68.6792 147.955C68.3488 148.946 67.6559 149.751 66.7211 150.219C65.7895 150.687 64.7265 150.764 63.7359 150.433C63.6638 150.408 63.5885 150.382 63.5176 150.354ZM65.7733 144.698C65.7347 144.683 65.6928 144.666 65.6529 144.654C65.0994 144.471 64.5122 144.514 63.9905 144.776C63.4701 145.035 63.0826 145.485 62.9011 146.035C62.7183 146.589 62.7608 147.176 63.0231 147.698C63.2821 148.218 63.7319 148.605 64.2822 148.787C64.8358 148.97 65.4229 148.927 65.9446 148.665C66.465 148.406 66.8526 147.956 67.034 147.406C67.2168 146.852 67.1743 146.265 66.9153 145.745C66.6737 145.265 66.2722 144.896 65.7765 144.699L65.7733 144.698Z" fill="#C6B44B"/>
<path d="M88.6522 157.918C90.2147 158.54 91.985 157.776 92.6061 156.214C93.2272 154.651 92.4639 152.881 90.9014 152.26C89.3388 151.639 87.5686 152.402 86.9475 153.965C86.3264 155.527 87.0896 157.297 88.6522 157.918Z" fill="#FFEC64"/>
<path d="M88.3258 158.72C87.4342 158.366 86.7124 157.706 86.2809 156.841C85.8125 155.91 85.7356 154.847 86.066 153.856C86.3964 152.866 87.0893 152.06 88.0241 151.593C88.959 151.126 90.0188 151.048 91.0094 151.378C91.9987 151.712 92.8055 152.402 93.2725 153.336C93.7409 154.268 93.8178 155.331 93.4874 156.322C92.8088 158.366 90.5922 159.48 88.544 158.8C88.4719 158.775 88.3966 158.748 88.3258 158.72ZM90.5847 153.066C90.546 153.05 90.5042 153.034 90.4643 153.021C89.9108 152.839 89.3236 152.881 88.8019 153.143C88.2815 153.402 87.894 153.852 87.7125 154.403C87.5297 154.956 87.5722 155.543 87.8344 156.065C88.0935 156.585 88.5401 156.972 89.0936 157.154C90.2329 157.533 91.4671 156.913 91.8454 155.773C92.0282 155.22 91.9857 154.633 91.7235 154.111C91.4819 153.631 91.0804 153.263 90.5847 153.066Z" fill="#C6B44B"/>
<path d="M92.8602 96.6294C89.8975 97.4347 89.7457 99.8232 92.1683 101.155C94.5941 102.488 94.7239 102.734 97.7767 101.908C101.086 101.01 102.672 97.9466 99.6779 97.1253C96.6833 96.304 94.5148 96.1801 92.8602 96.6294Z" fill="#3A1919"/>
<path d="M81.6467 96.9727C83.2306 97.6023 85.025 96.8286 85.6546 95.2447C86.2842 93.6608 85.5105 91.8665 83.9266 91.2369C82.3427 90.6073 80.5483 91.3809 79.9188 92.9648C79.2892 94.5487 80.0628 96.3431 81.6467 96.9727Z" fill="#3A1919"/>
<path d="M117.974 102.183C119.557 102.813 121.352 102.039 121.981 100.455C122.611 98.8715 121.837 97.0771 120.253 96.4476C118.67 95.818 116.875 96.5916 116.246 98.1755C115.616 99.7594 116.39 101.554 117.974 102.183Z" fill="#3A1919"/>
<path d="M70.345 110.476C69.6337 110.194 69.2866 109.388 69.5693 108.677C69.8521 107.966 70.6572 107.619 71.3686 107.901C74.5165 109.153 85.8486 109.3 91.2309 104.864C91.5244 104.623 91.9004 104.512 92.2774 104.557C92.6544 104.603 92.9932 104.801 93.2228 105.104C95.6141 108.306 98.7315 110.637 102.752 112.235C106.772 113.833 111.238 114.487 115.558 114.854C115.572 114.856 115.587 114.855 115.605 114.858C116.261 114.914 116.916 114.962 117.565 115.007C117.575 115.011 117.584 115.007 117.594 115.011C118.359 115.066 118.934 115.727 118.881 116.488C118.828 117.25 118.166 117.829 117.404 117.776C112.242 117.42 106.768 116.817 101.733 114.816C97.6842 113.207 94.4414 110.919 91.8607 107.847C85.2568 112.214 73.9327 111.906 70.3502 110.482L70.345 110.476Z" fill="#3A1919"/>
<path d="M164.73 139.465L49.371 173.558L46.9522 161.854L163.132 127.036L164.73 139.465Z" fill="#F4DA6E"/>
<path d="M163.543 136.73L48.8418 170.642L47.1436 164.655L163.402 130.222L163.543 136.73Z" fill="#8C3333"/>
<path d="M48.8592 174.845C48.7916 174.819 48.7233 174.784 48.6596 174.748C48.3285 174.549 48.0937 174.221 48.0144 173.839L45.597 162.132C45.4514 161.429 45.8673 160.73 46.557 160.523L162.737 125.705C163.127 125.588 163.55 125.648 163.891 125.869C164.231 126.091 164.457 126.452 164.51 126.853L166.106 139.285C166.192 139.96 165.778 140.597 165.125 140.788L49.7655 174.881C49.4653 174.971 49.1482 174.953 48.8617 174.839L48.8592 174.845ZM48.5642 162.816L50.4226 171.803L163.205 138.471L161.968 128.832L48.5674 162.817L48.5642 162.816Z" fill="#3A1919"/>
<path d="M125.69 163.069L127.075 159.743C126.269 160.795 124.391 161.349 121.653 161.446L34.5105 126.409C32.6062 124.448 31.6352 122.746 31.7854 121.431L30.4741 124.786L30.4355 124.771L16.7281 158.731L16.6541 158.701L15.3406 161.959L15.4179 161.99L12.9706 168.259C12.9212 173.916 31.9352 186.029 57.0179 196.114C82.1006 206.2 104.216 210.622 108.113 206.509L110.702 200.296L110.78 200.327L112.093 197.069L112.019 197.04L125.728 163.077L125.689 163.061L125.69 163.069Z" fill="#CECECE"/>
<path d="M112.02 197.048L125.728 163.084L30.4421 124.773L16.7334 158.737L16.6593 158.707L15.3459 161.965L15.494 162.024C15.4445 167.681 34.4573 179.796 59.5413 189.879C84.624 199.964 106.74 204.386 110.637 200.274L110.785 200.333L112.098 197.075L112.024 197.046L112.02 197.048Z" fill="#2E3499"/>
<path d="M108.535 205.551L108.683 205.61L110.18 201.892L110.106 201.863L125.723 163.097L89.2698 149.614L69.2087 200.084C69.2087 200.084 91.8989 210.843 108.535 205.551Z" fill="#2D329B"/>
<path d="M110.814 200.035C107.419 204.47 85.0187 200.069 59.5575 189.829C34.0949 179.592 14.8933 167.267 15.5276 161.724L12.9729 168.263C12.9234 173.92 31.9375 186.033 57.0202 196.119C82.1029 206.204 104.218 210.626 108.116 206.514L110.819 200.033L110.814 200.035Z" fill="#CECECE"/>
<path d="M127.078 159.744C123.683 164.179 101.283 159.778 75.8219 149.538C50.3594 139.302 31.1577 126.977 31.7921 121.433L29.2374 127.973C29.1879 133.63 48.202 145.742 73.2847 155.828C98.3674 165.913 120.483 170.336 124.38 166.223L127.083 159.742L127.078 159.744Z" fill="#CECECE"/>
<path d="M108.535 205.551L108.683 205.61L110.18 201.892L110.106 201.863L125.723 163.097L89.2698 149.614L69.2087 200.084C69.2087 200.084 91.8989 210.843 108.535 205.551Z" fill="#1E2672"/>
<path d="M121.317 161.401C114.279 161.544 101.912 158.824 87.5773 153.872L85.0722 160.174C105.006 167.057 121.125 169.622 124.397 166.17L125.706 163.027L127.097 159.688C126.258 160.786 124.247 161.343 121.314 161.4L121.317 161.401Z" fill="#A3A3A3"/>
<path d="M105.253 201.816C98.2144 201.959 85.8476 199.239 71.5128 194.286L69.0078 200.589C88.9412 207.472 105.06 210.036 108.333 206.585L109.642 203.441L111.032 200.103C110.194 201.201 108.183 201.758 105.249 201.815L105.253 201.816Z" fill="#A3A3A3"/>
<path d="M127.078 159.744C123.683 164.179 101.283 159.778 75.8219 149.538C50.3594 139.302 31.1577 126.977 31.7921 121.433L29.2374 127.973C29.1879 133.63 48.202 145.742 73.2847 155.828C98.3674 165.913 120.483 170.336 124.38 166.223L127.083 159.742L127.078 159.744Z" fill="#CECECE"/>
<path d="M43.6634 133.923C42.1415 133.289 40.798 132.43 39.6747 131.421L21.6977 176.648C22.81 177.638 24.1401 178.483 25.6394 179.109C25.8197 179.181 25.9999 179.252 26.1769 179.323L44.1462 134.115C43.9853 134.051 43.8231 133.99 43.6634 133.923Z" fill="#8D93FF"/>
<path d="M25.6408 179.106C25.821 179.178 26.0013 179.249 26.1783 179.32L28.1793 174.285C26.5884 173.28 25.1269 172.297 23.8063 171.343L21.6978 176.648C22.8101 177.638 24.1401 178.483 25.6395 179.109L25.6408 179.106Z" fill="white"/>
<path d="M43.6775 133.888C42.1543 133.256 40.8069 132.408 39.6747 131.421L37.3666 137.228C38.686 138.184 40.1462 139.171 41.7345 140.183L44.159 134.083C43.9981 134.019 43.8359 133.958 43.6762 133.891L43.6775 133.888Z" fill="white"/>
<path d="M75.8207 149.542C101.283 159.778 123.683 164.179 127.077 159.747L127.505 158.691C128.139 153.147 108.934 140.821 83.4748 130.586C58.0123 120.349 35.6125 115.948 32.2183 120.38L31.7909 121.436C31.1565 126.98 50.3614 139.306 75.8207 149.542Z" fill="#EADFB0"/>
<path d="M76.271 151.212C75.9491 151.084 75.6272 150.956 75.3021 150.827C62.942 145.858 51.5677 140.2 43.2725 134.898C34.357 129.196 30.0306 124.617 30.4105 121.279L30.432 121.094L30.9988 119.687L31.1136 119.539C33.1538 116.872 39.4533 116.562 49.8344 118.623C59.4974 120.541 71.6158 124.337 83.9849 129.302C96.345 134.27 107.719 139.928 116.015 145.231C124.93 150.933 129.256 155.511 128.873 158.848L128.852 159.033L128.285 160.44L128.17 160.588C126.13 163.255 119.831 163.565 109.448 161.507C100.037 159.641 88.2872 155.996 76.2652 151.217L76.271 151.212ZM33.1586 121.746C33.1694 125.544 48.2772 136.973 76.3398 148.254C76.6746 148.387 77.0125 148.521 77.3441 148.653C104.852 159.587 123.261 161.716 125.876 159.017L126.132 158.373C126.125 154.576 111.017 143.147 82.9543 131.866C54.8942 120.597 36.063 118.368 33.4145 121.102L33.1573 121.749L33.1586 121.746Z" fill="#3A1919"/>
<path d="M54.8789 130.453L55.1719 129.716C57.1275 127.168 68.1124 128.818 81.8631 133.486C79.4719 132.394 76.954 131.311 74.3442 130.262C56.6338 123.141 41.0477 120.08 38.6855 123.163L38.3925 123.9C37.948 127.756 51.3052 136.331 69.0201 143.45C72.0921 144.686 75.1041 145.801 77.9909 146.781C64.1594 140.46 54.504 133.741 54.8789 130.453Z" fill="#FFF3E6"/>
<path d="M57.4661 197.79C57.1442 197.662 56.8223 197.534 56.5004 197.406C44.3366 192.516 33.0873 186.937 24.8276 181.705C16.012 176.117 11.5564 171.592 11.5852 168.256C11.5861 168.085 11.6211 167.912 11.6851 167.751L29.1532 124.264C29.1942 124.161 29.2467 124.067 29.3076 123.979L30.4948 120.936L30.9285 119.864C30.9746 119.748 31.0368 119.638 31.1137 119.538C33.1539 116.872 39.4534 116.562 49.8345 118.623C59.4975 120.541 71.6159 124.336 83.985 129.301C96.3451 134.27 107.719 139.928 116.015 145.231C124.93 150.933 129.257 155.511 128.873 158.848C128.858 158.972 128.828 159.094 128.782 159.21L128.354 160.266L127.09 163.297C127.074 163.403 127.044 163.506 127.003 163.609L109.39 207.039C109.326 207.2 109.231 207.345 109.11 207.472C106.813 209.894 100.461 210.072 90.2288 208.003C80.8932 206.115 69.2892 202.497 57.4571 197.794L57.4661 197.79ZM14.3734 168.499C14.887 172.543 29.8379 183.7 57.5368 194.837C85.228 205.974 103.762 208.276 106.945 205.716L124.319 162.878C124.336 162.762 124.365 162.65 124.412 162.542L126.136 158.382C126.125 154.583 111.018 143.155 82.955 131.874C54.895 120.605 36.0638 118.375 33.4153 121.109L33.0762 121.962L31.7669 125.303C31.7234 125.413 31.667 125.517 31.6003 125.61L14.3708 168.506L14.3734 168.499Z" fill="#3A1919"/>
<path d="M16.161 173.127L16.1545 173.125C15.4444 172.839 15.1018 172.032 15.3878 171.322L33.4846 126.497C33.7693 125.79 34.5732 125.446 35.2813 125.727L35.2877 125.73C35.9978 126.016 36.3405 126.823 36.0545 127.533L17.9577 172.358C17.673 173.065 16.8691 173.409 16.161 173.127Z" fill="#3A1919"/>
<path d="M35.7699 186.162L35.7635 186.159C35.0534 185.873 34.7108 185.066 34.9968 184.356L53.0827 139.549C53.3674 138.842 54.1713 138.499 54.8794 138.78L54.8858 138.783C55.5959 139.069 55.9385 139.876 55.6526 140.586L37.5666 185.393C37.282 186.1 36.4781 186.443 35.7699 186.162Z" fill="#3A1919"/>
<path d="M56.8966 196.364L56.8901 196.361C56.1801 196.075 55.8374 195.268 56.1234 194.558L74.1972 149.772C74.4818 149.065 75.2857 148.721 75.9939 149.003L76.0003 149.005C76.7104 149.291 77.053 150.099 76.767 150.809L58.6933 195.594C58.4086 196.301 57.6047 196.645 56.8966 196.364Z" fill="#3A1919"/>
<path d="M79.224 203.61L79.2176 203.607C78.5075 203.321 78.1649 202.514 78.4508 201.804L96.5156 157.041C96.8003 156.334 97.6042 155.99 98.3123 156.272L98.3188 156.274C99.0288 156.56 99.3715 157.367 99.0855 158.077L81.0207 202.841C80.736 203.547 79.9321 203.891 79.224 203.61Z" fill="#3A1919"/>
<path d="M102.451 207.769L102.444 207.766C101.734 207.48 101.391 206.673 101.677 205.963L119.736 161.224C120.021 160.517 120.825 160.173 121.533 160.454L121.54 160.457C122.25 160.743 122.592 161.55 122.306 162.26L104.247 206.999C103.963 207.706 103.159 208.05 102.451 207.769Z" fill="#3A1919"/>
<path d="M22.4421 160.092C21.9183 159.694 21.3991 159.294 20.8811 158.89C20.2213 158.375 19.9348 157.333 20.2386 156.577C22.5801 150.78 24.9172 144.985 27.2587 139.188C27.5626 138.433 28.3501 138.243 29.0079 138.754C29.5259 139.158 30.0452 139.558 30.569 139.956C31.2325 140.462 31.5332 141.487 31.2293 142.243C28.8878 148.04 26.5508 153.835 24.2093 159.632C23.9054 160.387 23.107 160.595 22.4421 160.092Z" fill="#E9E9E9"/>
<path d="M22.2636 161.572C22.0351 161.481 21.8129 161.355 21.6035 161.198C21.0765 160.798 20.5521 160.392 20.0309 159.987C18.8782 159.089 18.4153 157.403 18.9553 156.064L25.9766 138.671C26.2818 137.913 26.8845 137.362 27.6231 137.164C28.3785 136.961 29.1931 137.143 29.8625 137.663C30.3773 138.065 30.8947 138.461 31.412 138.856C32.5794 139.745 33.0558 141.425 32.5171 142.762L25.4971 160.151C25.1919 160.91 24.5892 161.46 23.848 161.665C23.3286 161.809 22.7767 161.772 22.2681 161.57L22.2636 161.572ZM28.4077 140.048L21.5207 157.102C21.4541 157.269 21.5482 157.661 21.7299 157.804C22.1661 158.141 22.6055 158.48 23.0462 158.815L29.9415 141.731C30.0054 141.57 29.912 141.205 29.7291 141.065C29.2852 140.728 28.8458 140.389 28.4044 140.046L28.4077 140.048Z" fill="#3A1919"/>
<path d="M42.1172 173.015C41.5472 172.696 40.9831 172.371 40.4157 172.045C39.6977 171.629 39.3605 170.667 39.6644 169.912C42.0046 164.118 44.3416 158.323 46.6819 152.529C46.9857 151.774 47.8207 151.502 48.542 151.919C49.1061 152.244 49.6735 152.57 50.2434 152.89C50.9685 153.298 51.3121 154.243 51.0082 154.998C48.6712 160.793 46.3322 166.584 43.992 172.378C43.6881 173.133 42.8423 173.423 42.1172 173.015Z" fill="#E9E9E9"/>
<path d="M41.7807 174.388C41.6616 174.34 41.5496 174.285 41.4369 174.221C40.8637 173.9 40.2932 173.573 39.7226 173.245C38.4043 172.483 37.8134 170.791 38.3809 169.391L45.3971 152.012C45.6882 151.289 46.2684 150.729 46.9857 150.481C47.7152 150.231 48.5341 150.318 49.2322 150.718C49.7932 151.042 50.3573 151.367 50.9208 151.684C52.2551 152.434 52.8576 154.116 52.2901 155.516L45.2739 172.895C44.9815 173.621 44.3968 174.183 43.6782 174.434C43.067 174.649 42.3936 174.628 41.782 174.385L41.7807 174.388ZM47.9177 153.163L40.9463 170.429C40.9028 170.539 40.9785 170.77 41.1047 170.847C41.6444 171.158 42.1886 171.467 42.7328 171.777L49.7125 154.48C49.7522 154.38 49.6797 154.169 49.5541 154.1C49.0054 153.792 48.4593 153.478 47.9132 153.164L47.9177 153.163Z" fill="#3A1919"/>
<path d="M63.2929 183.103C62.6878 182.862 62.0827 182.622 61.4801 182.375C60.7134 182.063 60.3333 181.181 60.6404 180.427C62.9761 174.635 65.3151 168.845 67.6508 163.053C67.9547 162.297 68.8293 161.944 69.5993 162.258C70.2018 162.505 70.8057 162.749 71.4153 162.987C72.1878 163.294 72.5692 164.154 72.2666 164.906C69.9308 170.698 67.5919 176.488 65.2574 182.277C64.9535 183.032 64.0712 183.405 63.2974 183.101L63.2929 183.103Z" fill="#E9E9E9"/>
<path d="M62.4306 184.251C61.9381 184.055 61.4456 183.859 60.9557 183.657C59.4802 183.056 58.7626 181.373 59.3557 179.909L66.3661 162.534C66.6495 161.831 67.1964 161.28 67.8987 160.985C68.6024 160.687 69.3839 160.681 70.0952 160.964L70.1242 160.975C70.7203 161.22 71.3209 161.462 71.9241 161.698L71.9273 161.7C72.6515 161.987 73.2194 162.537 73.5245 163.251C73.8238 163.952 73.8339 164.724 73.5505 165.427L66.54 182.802C65.9515 184.264 64.2653 184.98 62.7866 184.396C62.6675 184.349 62.5484 184.301 62.4293 184.254L62.4306 184.251ZM69.0717 163.539C69.0298 163.522 68.9945 163.527 68.972 163.537C68.945 163.548 68.9386 163.564 68.936 163.571L61.9269 180.942C61.9115 180.981 61.9355 181.061 62.0063 181.089C62.6056 181.335 63.2063 181.577 63.8062 181.812C63.8771 181.84 63.9529 181.799 63.9727 181.759L70.9819 164.388C70.9819 164.388 70.9895 164.368 70.9779 164.341C70.9682 164.319 70.9489 164.293 70.9038 164.275C70.2955 164.033 69.6839 163.79 69.0749 163.54L69.0717 163.539Z" fill="#3A1919"/>
<path d="M85.6649 190.228C85.0297 190.073 84.3958 189.914 83.7632 189.752C82.9588 189.544 82.5505 188.752 82.8544 187.997C85.1889 182.208 87.5266 176.421 89.861 170.632C90.1649 169.877 91.0708 169.436 91.8785 169.645C92.5111 169.807 93.145 169.966 93.7789 170.124C94.5872 170.323 94.9999 171.094 94.696 171.849C92.3583 177.637 90.0239 183.425 87.6862 189.213C87.3823 189.968 86.4699 190.425 85.6604 190.23L85.6649 190.228Z" fill="#E9E9E9"/>
<path d="M83.077 190.981C82.4558 190.734 81.9441 190.277 81.6482 189.69C81.3039 189.009 81.2771 188.205 81.5695 187.478L88.5761 170.114C89.1391 168.716 90.7408 167.922 92.2223 168.302C92.8517 168.462 93.4779 168.622 94.1098 168.776C94.8911 168.967 95.5437 169.473 95.8964 170.161C96.2432 170.835 96.2733 171.641 95.9822 172.364L88.9724 189.728C88.4075 191.121 86.8102 191.932 85.3353 191.573C84.6969 191.416 84.0565 191.255 83.4175 191.091C83.2997 191.059 83.1864 191.025 83.0738 190.98L83.077 190.981ZM93.3637 171.45C92.7395 171.295 92.1339 171.14 91.5315 170.987C91.3899 170.949 91.1856 171.05 91.146 171.15L84.1752 188.425C84.7904 188.584 85.3941 188.734 85.9945 188.883C86.1406 188.919 86.3622 188.802 86.4057 188.693L93.3637 171.45Z" fill="#3A1919"/>
<path d="M108.917 194.268C108.261 194.201 107.608 194.128 106.952 194.053C106.118 193.956 105.689 193.256 105.992 192.501C108.329 186.717 110.662 180.932 113 175.144C113.304 174.389 114.233 173.86 115.064 173.956C115.715 174.032 116.373 174.103 117.027 174.173C117.862 174.259 118.295 174.942 117.992 175.694C115.656 181.478 113.322 187.263 110.986 193.047C110.683 193.799 109.751 194.353 108.914 194.266L108.917 194.268Z" fill="#E9E9E9"/>
<path d="M106.075 195.247C105.56 195.043 105.132 194.686 104.852 194.217C104.46 193.554 104.407 192.739 104.712 191.981L111.719 174.624C112.258 173.287 113.767 172.407 115.227 172.578C115.876 172.653 116.526 172.725 117.174 172.792C118.019 172.879 118.736 173.316 119.137 173.986C119.532 174.643 119.582 175.453 119.277 176.212L112.271 193.565C111.728 194.904 110.225 195.797 108.772 195.645C108.113 195.577 107.453 195.504 106.793 195.428C106.54 195.399 106.299 195.34 106.074 195.251L106.075 195.247ZM116.572 175.516C116.007 175.456 115.457 175.394 114.908 175.332C114.677 175.304 114.352 175.503 114.288 175.663L107.408 192.71C107.967 192.775 108.515 192.833 109.062 192.89C109.291 192.914 109.633 192.7 109.705 192.53L116.57 175.52L116.572 175.516Z" fill="#3A1919"/>
<path d="M90.1755 127.739C89.7945 125.878 87.9769 124.678 86.116 125.059C84.2551 125.44 83.0554 127.258 83.4365 129.119L91.4365 168.186C91.8176 170.047 93.6351 171.246 95.496 170.865C97.357 170.484 98.5567 168.667 98.1756 166.806L90.1755 127.739Z" fill="#D8A577"/>
<mask id="mask1_1421_432" style="mask-type:luminance" maskUnits="userSpaceOnUse" x="81" y="117" width="18" height="54">
<path d="M90.5026 122.816C89.7894 119.331 87.1298 116.935 84.5658 117.459C82.0006 117.986 80.4968 121.235 81.2112 124.717C81.5564 126.409 82.3661 127.841 83.3973 128.81C83.4091 128.912 83.4222 129.01 83.4449 129.113L91.4468 168.18C91.8245 170.033 93.6532 171.237 95.5067 170.859C97.3602 170.482 98.5641 168.653 98.1864 166.8L90.1846 127.732C90.1651 127.632 90.1365 127.534 90.108 127.437C90.6751 126.142 90.8555 124.507 90.5071 122.814L90.5026 122.816Z" fill="white"/>
</mask>
<g mask="url(#mask1_1421_432)">
<path d="M90.5356 122.967C91.2455 126.432 89.6851 129.401 87.1199 129.928C84.5547 130.456 81.9529 128.337 81.243 124.871C80.5331 121.406 82.0382 118.173 84.6054 117.65C87.1706 117.123 89.8276 119.506 90.5343 122.97L90.5356 122.967Z" fill="#9E673E"/>
</g>
<path d="M90.5026 122.816C91.2158 126.301 89.2621 127.344 86.6969 127.871C84.1317 128.398 81.9232 128.206 81.21 124.721C80.4969 121.236 81.9975 117.986 84.5646 117.463C87.1298 116.936 89.7882 119.334 90.5014 122.819L90.5026 122.816Z" fill="#D8A577"/>
<path d="M93.0464 171.976C92.7374 171.853 92.4412 171.698 92.1578 171.511C91.0802 170.799 90.3452 169.713 90.0852 168.455L82.1015 129.473C80.9998 128.297 80.2078 126.726 79.8529 124.994C78.9876 120.766 80.9754 116.777 84.2864 116.099C87.5974 115.421 90.9939 118.307 91.8592 122.535C92.2154 124.264 92.1028 126.02 91.553 127.534L99.5398 166.517C100.074 169.122 98.3862 171.68 95.7811 172.213C94.8521 172.403 93.909 172.319 93.0464 171.976ZM86.2035 118.956C85.7561 118.778 85.2942 118.721 84.8435 118.814C83.062 119.18 82.0198 121.755 82.5666 124.44C82.8422 125.79 83.4745 126.985 84.3433 127.8C84.5818 128.025 84.7336 128.328 84.7722 128.652C84.7788 128.711 84.7854 128.769 84.7984 128.83L92.8002 167.897C92.9081 168.432 93.2243 168.893 93.6823 169.195C94.1435 169.497 94.6891 169.606 95.224 169.498C96.3318 169.271 97.0517 168.182 96.8248 167.074L88.823 128.007C88.81 127.946 88.7925 127.887 88.775 127.828C88.683 127.516 88.7022 127.177 88.8321 126.878C89.3108 125.786 89.4211 124.44 89.1455 123.089C88.7346 121.084 87.5309 119.48 86.2016 118.952L86.2035 118.956Z" fill="#3A1919"/>
<path d="M117.039 164.717C112.463 164.754 96.6281 162.262 90.8681 157.755C86.4045 154.263 85.5833 149.896 85.9871 148.055C86.5686 145.401 89.3091 143.232 92.9712 142.534C93.3016 142.471 93.6598 142.424 94.0412 142.393C96.4778 142.198 99.698 142.677 103.104 143.185C107.263 143.805 111.781 144.349 116.078 144.8C120.543 145.271 135.015 145.029 137.154 155.045C140.163 169.145 125.084 164.65 117.041 164.714L117.039 164.717Z" fill="#FFE14D"/>
<path d="M118.522 160.987C113.945 161.024 98.1106 158.532 92.3507 154.025C88.925 151.344 87.523 148.475 87.2939 146.304C86.3631 147.183 86.2359 146.931 85.9855 148.058C85.5817 149.899 86.3997 154.265 90.8666 157.758C96.6297 162.267 112.461 164.758 117.038 164.721C124.304 164.661 137.314 168.322 137.536 158.63C133.638 162.173 124.16 160.943 118.521 160.99L118.522 160.987Z" fill="#EA911B"/>
<path d="M95.2649 161.668C93.1856 160.842 91.3607 159.9 90.0129 158.847C85.1195 155.019 84.1158 150.118 84.6323 147.759C85.3322 144.563 88.5021 141.98 92.71 141.174C93.0971 141.101 93.506 141.047 93.9292 141.014C96.5247 140.804 99.8176 141.297 103.304 141.818C107.052 142.376 111.395 142.917 116.217 143.428C116.697 143.477 117.313 143.521 118.023 143.572C123.985 143.989 136.385 144.855 138.5 154.761C139.368 158.822 138.912 161.79 137.113 163.83C133.963 167.404 127.631 166.867 122.046 166.394C120.221 166.24 118.497 166.095 117.046 166.107C113.509 166.136 102.746 164.65 95.2623 161.675L95.2649 161.668ZM129.206 148.36C125.444 146.865 120.922 146.547 117.835 146.334C117.095 146.282 116.457 146.237 115.931 146.181C111.069 145.669 106.687 145.123 102.901 144.558C99.5753 144.063 96.4336 143.593 94.1545 143.776C93.8272 143.802 93.5166 143.843 93.2305 143.897C90.165 144.482 87.7968 146.277 87.3433 148.355C87.0446 149.716 87.7212 153.537 91.7248 156.668C96.9564 160.76 112.24 163.373 117.033 163.336C118.615 163.324 120.4 163.474 122.289 163.636C127.221 164.054 132.814 164.528 135.045 162.001C136.207 160.681 136.46 158.441 135.798 155.342C135.031 151.738 132.392 149.63 129.208 148.365L129.206 148.36Z" fill="#3A1919"/>
<path d="M145.475 140.853C145.475 140.853 138.531 142.662 129.953 143.256C123.392 143.708 116.592 142.597 116.592 142.597L114.052 164.327C114.052 164.327 135.69 170.617 151.738 164.696C154.966 163.504 158.56 161.496 158.89 156.681C159.514 147.562 145.479 140.851 145.479 140.851L145.475 140.853Z" fill="#A31E36"/>
<path d="M100.171 164.293C99.5818 164.059 99.2151 163.443 99.3166 162.794L102.578 141.574C102.691 140.829 103.377 140.315 104.125 140.411C104.373 140.442 128.914 143.536 142.842 139.356C143.574 139.136 144.348 139.552 144.568 140.284C144.788 141.016 144.372 141.79 143.64 142.01C130.9 145.835 110.562 143.927 105.115 143.32L102.26 161.907C106.871 162.796 122.955 165.712 136.108 165.834C136.874 165.84 137.489 166.468 137.479 167.232C137.473 167.998 136.845 168.613 136.081 168.603C120.354 168.457 100.603 164.405 100.404 164.363C100.325 164.347 100.245 164.322 100.171 164.293Z" fill="#3A1919"/>
<path d="M120.449 142.188L99.278 139.893L96.5081 165.444L117.679 167.739L120.449 142.188Z" fill="#A31E36"/>
<path d="M113.568 141.443L106.158 140.639L103.388 166.19L110.798 166.994L113.568 141.443Z" fill="#FFEC64"/>
<path d="M95.983 166.736C95.4197 166.512 95.0499 165.933 95.1186 165.3L97.8913 139.748C97.9317 139.384 98.1143 139.047 98.3994 138.817C98.6844 138.588 99.0515 138.48 99.4156 138.52L120.588 140.816C120.956 140.854 121.289 141.039 121.519 141.324C121.748 141.609 121.856 141.976 121.815 142.34L119.043 167.892C118.96 168.653 118.276 169.201 117.515 169.118L96.3434 166.823C96.2147 166.809 96.0924 166.779 95.9798 166.735L95.983 166.736ZM100.494 141.424L98.0222 164.222L116.439 166.219L118.911 143.422L100.494 141.424Z" fill="#3A1919"/>
<path d="M125.059 199.502C119.231 186.566 98.4378 180.918 85.4887 194.732C78.0461 202.672 75.7284 208.475 75.7284 208.475C75.7284 208.475 96.2261 219.574 111.064 212.553C125.492 205.727 125.062 199.503 125.062 199.503L125.059 199.502Z" fill="#FFE14D"/>
<path d="M85.7045 195.764C85.5307 195.695 85.3677 195.589 85.2298 195.448C84.6935 194.903 84.6993 194.026 85.2442 193.49C91.9211 186.922 100.822 184.109 109.668 185.765C117.578 187.247 124.075 192.073 127.048 198.678C127.363 199.378 127.052 200.197 126.353 200.512C125.654 200.826 124.835 200.516 124.52 199.817C121.919 194.038 116.175 189.801 109.156 188.488C101.212 187 93.2055 189.543 87.1839 195.465C86.7795 195.863 86.1925 195.961 85.7 195.766L85.7045 195.764Z" fill="#3A1919"/>
<path d="M33.8959 182.305C33.795 179.38 32.2853 158.563 28.5598 152.304C28.0621 151.465 27.5053 150.68 26.9043 149.961C25.1383 144.145 21.4767 139.76 17.5228 138.755C15.7144 138.297 13.0059 138.312 10.3489 140.984C9.74101 141.547 2.64981 148.378 1.58396 161.984C1.17586 167.174 2.8981 168.843 4.56426 170.456C6.45086 172.283 8.59141 174.353 8.68845 183.504C8.68919 183.549 8.69187 183.599 8.69583 183.645C9.02571 186.576 10.9307 191.854 15.7589 193.773C16.6118 194.112 17.5553 194.345 18.5942 194.442C22.8698 194.844 27.1557 194.986 29.5531 193.315C33.1958 190.771 33.9866 185.002 33.8959 182.305Z" fill="#3A1919"/>
<path d="M26.9696 172.667C26.7263 171.113 25.062 166.795 26.0906 162.135C29.0612 148.66 18.6906 134.523 11.3094 141.98C11.3094 141.98 4.02466 148.567 2.96249 162.089C2.16012 172.322 9.8821 165.995 10.0751 183.485C10.0751 183.485 11.0551 192.582 18.7262 193.059C28.9435 193.695 28.9379 185.213 26.9696 172.667Z" fill="#938282"/>
<path d="M15.6071 193.78C10.8819 191.902 9.01807 186.613 8.69966 183.635C8.69442 183.592 8.69045 183.546 8.69293 183.502C8.59268 174.349 6.45536 172.281 4.56876 170.454C2.9026 168.841 1.18036 167.172 1.58847 161.982C2.65431 148.376 9.7468 141.542 10.3547 140.978C12.9905 138.332 16.3205 137.803 19.4907 139.533C25.0983 142.586 29.6318 152.513 27.4485 162.432C26.7052 165.812 27.5304 169.081 28.0222 171.032C28.1682 171.612 28.285 172.068 28.3443 172.453C29.8072 181.779 30.0612 188.276 26.8138 191.842C25.0088 193.823 22.3375 194.673 18.6457 194.443C17.5219 194.373 16.5148 194.141 15.6103 193.781L15.6071 193.78ZM11.4604 183.395C11.5579 184.171 12.6366 191.294 18.8133 191.677C21.6142 191.851 23.5612 191.295 24.7605 189.975C27.2534 187.238 26.8987 181.163 25.6027 172.881C25.5635 172.623 25.4558 172.2 25.3332 171.711C24.7804 169.52 23.8547 165.857 24.7406 161.837C26.6304 153.266 22.792 144.487 18.1646 141.969C16.0543 140.817 14.0804 141.151 12.2976 142.955C12.2789 142.973 12.2603 142.992 12.243 143.007C12.1782 143.067 5.34969 149.444 4.34953 162.2C4.04473 166.09 5.01929 167.032 6.49596 168.465C8.65519 170.554 11.3372 173.155 11.4623 183.399L11.4604 183.395Z" fill="#3A1919"/>
<path d="M25.4315 169.514C25.3008 168.877 26.9435 163.506 25.9792 163.157C17.3794 166.6 4.6551 166.608 4.06344 166.052C3.24814 165.881 2.6626 166.96 3.26462 167.546C3.26462 167.546 6.24719 170.245 6.99084 171.487C7.26261 171.938 18.0034 173.151 25.4315 169.514Z" fill="#3A1919"/>
<path d="M28.7389 185.667L28.0233 180.772C27.9757 180.451 27.7512 180.172 27.4371 180.062L23.8408 178.767C23.7075 178.717 23.5647 178.702 23.4232 178.72L12.0783 180.096C11.5935 180.153 11.2561 180.589 11.3279 181.065L12.2916 187.661C12.6657 190.218 14.4074 192.278 16.6637 193.175C17.7002 193.587 18.8416 193.754 20.0093 193.61L22.9897 193.248C26.7026 192.797 29.2815 189.394 28.7369 185.663L28.7389 185.667Z" fill="#3A1919"/>
<path d="M123.125 29.1557C111.188 26.6287 95.2099 25.276 94.7011 27.6717C91.0626 44.862 93.5088 60.0689 89.8703 77.2591C102.951 84.7953 117.298 85.5335 133.943 85.5449C137.582 68.3547 146.072 56.5034 149.711 39.3132C150.219 36.9175 135.059 31.6781 123.125 29.1557Z" fill="#A31E36"/>
<path fill-rule="evenodd" clip-rule="evenodd" d="M149.709 39.3161C150.038 37.766 143.791 35.0183 136.108 32.594C137.547 33.4271 138.343 34.1721 138.221 34.7499C134.583 51.9402 128.908 64.6684 125.273 81.8599C113.883 81.8499 100.368 81.5769 90.796 78.9426C103.524 85.7985 117.473 86.4899 133.562 86.5038C137.2 69.3136 146.069 56.5096 149.708 39.3194L149.709 39.3161Z" fill="#791628"/>
<path d="M105.945 29.185C102.638 28.933 100.314 28.9187 98.7488 29.0122L101.135 69.3508L110.157 71.2595L129.701 33.257C127.444 32.6541 125.185 32.1103 123.057 31.6596C117.656 30.5155 111.256 29.589 105.941 29.1837L105.945 29.185Z" fill="#FFEC64"/>
<path d="M132.268 86.0085C132.273 85.9661 132.279 85.9236 132.288 85.8824C133.299 81.1926 134.675 76.8757 136.195 72.7611C121.063 71.9346 106.458 69.3125 92.712 65.0265C92.3834 69.2195 91.8724 73.4966 90.9801 77.8793C90.9254 78.1483 90.7908 78.393 90.599 78.5851C90.2864 78.8932 89.877 79.3231 89.4484 79.8386C102.186 84.1301 115.659 86.9656 129.589 88.2385C131.162 87.3842 132.02 86.6407 132.17 86.2641L132.27 86.013L132.268 86.0085Z" fill="#2E3499"/>
<path d="M90.5623 75.5176L89.5042 78.1795C100.225 83.7006 120.163 86.4932 133.562 86.504C134.561 81.7872 136.083 77.077 137.651 72.8401C134.3 72.6821 130.975 72.4378 127.679 72.1041C126.861 75.1263 126.093 78.25 125.398 81.537C113.285 82.9506 90.5623 75.5176 90.5623 75.5176Z" fill="#1E2672"/>
<path d="M133.691 86.1786C99.7154 82.8717 89.6495 77.5698 89.6495 77.5698C85.9212 81.2576 81.6629 88.2385 93.7004 91.8155C113.739 97.7679 132.081 90.2201 133.451 86.7728C133.574 86.4638 133.69 86.1709 133.687 86.1806L133.691 86.1786Z" fill="#3A1919"/>
<path d="M91.1029 92.3858C87.4014 90.9145 85.2069 88.8867 84.5665 86.3436C83.62 82.583 86.3906 78.932 88.3422 76.9197C89.9577 68.7952 90.2494 60.9347 90.5307 53.3348C90.8272 45.3122 91.1346 37.0182 92.9765 28.3053C93.3254 26.6586 95.4033 26.2508 97.1749 26.0791C98.9543 25.9067 101.366 25.915 104.347 26.1047C110.036 26.4686 117.024 27.4459 123.044 28.7205C129.063 29.9952 135.849 31.9319 141.196 33.9045C143.999 34.9366 146.207 35.9075 147.762 36.7866C149.311 37.6631 151.046 38.8782 150.698 40.5217C148.853 49.2442 145.744 56.6895 142.739 63.8851C139.859 70.7838 136.879 77.9149 135.072 86.1087C135.077 86.2263 135.068 86.3421 135.043 86.4625C135.024 86.5558 134.998 86.642 134.961 86.7244L134.873 86.9465C134.873 86.9465 134.865 86.9658 134.861 86.9755L134.74 87.2813C132.867 91.9935 113.142 99.0362 93.3037 93.1413C92.5172 92.9069 91.7821 92.6557 91.0997 92.3845L91.1029 92.3858ZM95.6258 29.1794C93.8867 37.5493 93.5884 45.6233 93.3018 53.4336C93.0113 61.2722 92.7131 69.3836 90.9782 77.8743C90.9235 78.1433 90.7889 78.388 90.597 78.5801C89.366 79.8016 86.5717 82.94 87.2588 85.6657C87.8836 88.1541 91.3254 89.6601 94.098 90.4864C105.365 93.8355 115.342 92.5345 120.285 91.4651C127.932 89.8084 131.831 87.1056 132.168 86.259L132.268 86.008C132.273 85.9655 132.279 85.923 132.288 85.8819C134.142 77.2892 137.211 69.9328 140.185 62.8177C143.106 55.8237 146.127 48.5896 147.925 40.2505C147.37 39.6497 145.017 38.1889 139.123 36.0998C134.099 34.3187 127.875 32.5718 122.47 31.4296C117.069 30.2855 110.669 29.3591 105.354 28.9538C99.1181 28.4766 96.3757 28.8588 95.6277 29.1839L95.6258 29.1794Z" fill="#3A1919"/>
<path d="M152.618 105.581C152.419 105.501 152.239 105.437 152.092 105.394C151.58 105.239 151.026 105.358 150.624 105.712C150.222 106.067 150.035 106.604 150.125 107.128C150.318 108.245 150.977 109.916 151.891 111.602L152.13 112.051C158.936 124.925 166.063 129.893 170.843 131.793C172.604 132.493 174.41 132.928 176.212 133.085C184.538 133.808 190.994 130.965 194.257 128.065C195.677 126.8 196.211 125.801 196.405 125.315C196.696 124.581 196.385 123.742 195.684 123.377C194.711 122.871 192.268 121.844 188.215 120.233C186.11 119.397 183.707 118.456 181.156 117.457C178.256 116.323 175.161 115.108 172.077 113.882C166.39 111.621 158.269 108.337 153.405 105.935C153.138 105.802 152.874 105.686 152.62 105.585L152.618 105.581Z" fill="#FF9739"/>
<path d="M196.403 125.311C196.303 125.26 170.824 135.61 151.871 108.37C147.993 102.796 149.6 108.299 152.042 112.263C163.042 133.773 179.491 138.768 194.169 128.277C196.108 126.315 198.174 126.809 196.403 125.311Z" fill="#E26917"/>
<path d="M142.343 24.2674C150.455 31.0066 141.953 43.386 132.168 39.4856C137.975 50.7019 120.064 54.1382 113.925 46.4389C113.052 47.706 107.943 62.023 107.914 69.2687C107.914 69.2687 107.43 69.6351 107.081 69.5824C106.776 69.5355 106.111 69.0513 106.111 69.0513C104.791 62.6377 102.603 39.2996 114.675 20.3962C137.638 -15.5542 170.724 16.7068 142.343 24.2674Z" fill="#CECECE"/>
<path d="M140.753 22.1441C148.865 28.8833 140.362 41.2627 130.578 37.3623C136.385 48.5786 118.473 52.0149 112.335 44.3156C111.462 45.5827 106.353 59.8997 106.324 67.1454C106.324 67.1454 105.839 67.5118 105.491 67.4591C105.185 67.4122 104.521 66.928 104.521 66.928C103.201 60.5144 101.012 37.1763 113.085 18.2729C136.048 -17.6775 169.134 14.5835 140.753 22.1441Z" fill="white"/>
<path d="M112.515 72.6698C111.516 77.3866 107.091 80.1156 102.982 78.8735C99.2154 77.7343 97.0749 73.6109 97.9274 69.5813C98.7799 65.5518 102.408 62.6515 106.312 63.1338C110.575 63.6616 113.515 67.9498 112.516 72.6666L112.515 72.6698Z" fill="#C6B44B"/>
<path d="M106.089 64.1818C106.959 64.3002 107.779 64.6001 108.525 65.079C108.887 65.3123 109.232 65.5875 109.541 65.8968C109.854 66.2075 110.138 66.5516 110.385 66.9254C110.635 67.3005 110.85 67.7065 111.023 68.1332C111.198 68.5644 111.335 69.0176 111.423 69.4811C111.608 70.4494 111.599 71.4483 111.389 72.4348C111.178 73.4245 110.786 74.338 110.224 75.1509C109.954 75.5394 109.647 75.8983 109.314 76.2206C108.982 76.5397 108.624 76.8222 108.241 77.0649C107.862 77.3056 107.461 77.5078 107.053 77.6624C106.64 77.819 106.216 77.9299 105.791 77.9958C104.916 78.1327 104.042 78.0722 103.2 77.8271C102.371 77.587 101.62 77.1802 100.964 76.6253C100.653 76.3597 100.364 76.0625 100.105 75.7395C99.851 75.4224 99.6238 75.0749 99.4294 74.7106C99.2383 74.3476 99.0734 73.9653 98.9465 73.5719C98.8176 73.1741 98.7235 72.7639 98.6647 72.3492C98.5432 71.4921 98.5761 70.6217 98.7588 69.7588C98.9415 68.8959 99.2659 68.0893 99.7222 67.3538C99.9421 66.9976 100.195 66.6619 100.475 66.352C100.75 66.0439 101.053 65.7583 101.377 65.5068C101.702 65.252 102.051 65.0293 102.41 64.8401C102.776 64.6502 103.162 64.4944 103.555 64.3784C104.382 64.1367 105.232 64.0686 106.085 64.1838M106.177 63.7469C102.567 63.2736 99.1962 65.9482 98.4042 69.685C97.6122 73.4217 99.6124 77.2322 103.105 78.2627C106.888 79.3788 110.938 76.8513 111.854 72.5302C112.767 68.2079 110.093 64.2561 106.181 63.7449L106.177 63.7469Z" fill="white"/>
<path d="M99.3876 69.8933C98.9108 72.1526 99.6412 74.4035 101.151 75.8088L100.312 67.6517C99.882 68.3119 99.5627 69.0684 99.3876 69.8933ZM108.634 71.5186C108.799 70.738 108.642 70.1466 108.502 69.6845C108.308 69.1118 108.114 68.6247 108.223 68.1086C108.343 67.534 108.874 67.0704 109.473 67.1668C109.501 67.1706 109.524 67.1796 109.552 67.1834C108.691 65.9915 107.419 65.169 105.924 64.9549C103.991 64.6786 102.135 65.4841 100.881 66.905C101.001 66.9305 101.112 66.9521 101.21 66.9686C101.75 67.0639 102.612 67.1348 102.612 67.1348C102.903 67.1644 102.837 67.6379 102.544 67.6257C102.544 67.6257 102.251 67.6134 101.932 67.5723L102.507 74.3761L104.536 70.717L104.22 67.9861C103.927 67.9147 103.66 67.8271 103.66 67.8271C103.371 67.757 103.511 67.2756 103.798 67.3412C103.798 67.3412 104.685 67.5747 105.233 67.6694C105.821 67.7729 106.766 67.8538 106.766 67.8538C107.083 67.8905 107.018 68.3826 106.696 68.3666C106.696 68.3666 106.375 68.3506 106.027 68.3057L106.715 75.389L107.76 73.4932C108.226 72.6573 108.521 72.0552 108.635 71.5154L108.634 71.5186ZM104.631 71.5562L101.889 76.3816C102.335 76.6746 102.826 76.9031 103.363 77.0531C104.006 77.2344 104.66 77.2857 105.299 77.2265C105.289 77.1962 105.283 77.1641 105.277 77.132L104.631 71.5562ZM110.46 69.0351C110.443 69.2448 110.412 69.4636 110.363 69.701C110.224 70.3503 109.951 71.0545 109.407 71.8893L106.395 77.0099C108.401 76.3906 110.074 74.6369 110.579 72.2617C110.815 71.1408 110.758 70.0372 110.46 69.0351Z" fill="white"/>
<path d="M88.9268 198.61C90.6872 190.618 88.5428 168.96 75.7649 170.378C65.1219 172.707 62.088 184.316 60.047 193.136C57.514 202.293 41.6729 213.321 66.3641 219.956C70.9373 221.185 75.4914 220.427 78.8651 217.228C84.0037 211.634 87.3452 207.203 88.9281 198.607L88.9268 198.61Z" fill="#3A1919"/>
<mask id="mask2_1421_432" style="mask-type:luminance" maskUnits="userSpaceOnUse" x="45" y="113" width="117" height="77">
<path d="M159.558 133.749C119.825 126.707 90.5962 124.221 90.5962 124.221C79.6135 119.434 66.1749 113.343 66.1749 113.343C65.5032 115.033 45.6595 138.794 45.6595 138.794C45.5095 144.695 50.2702 151.388 74.901 165.442C108.727 183.032 140.413 190.159 153.188 189.217C153.188 189.217 166.353 158.057 159.558 133.749Z" fill="white"/>
</mask>
<g mask="url(#mask2_1421_432)">
<path fill-rule="evenodd" clip-rule="evenodd" d="M165.243 146.229C165.209 145.347 164.732 144.587 164.035 144.157C164.698 143.671 165.113 142.879 165.08 141.997C165.025 140.589 163.836 139.49 162.428 139.545C162.428 139.545 161.118 139.323 159.922 140.786L153.05 139.377L151.853 139.423L145.109 141.361C143.798 139.997 142.512 140.317 142.512 140.317C141.103 140.372 140.005 141.561 140.06 142.969C140.093 143.851 140.57 144.611 141.268 145.041C140.605 145.527 140.189 146.319 140.223 147.201C140.256 148.083 140.733 148.843 141.431 149.273C140.768 149.759 140.352 150.551 140.386 151.433C140.419 152.315 140.896 153.075 141.594 153.505C140.931 153.99 140.515 154.783 140.549 155.665C140.601 157.042 141.741 158.122 143.107 158.117C143.084 158.279 143.069 158.448 143.076 158.619C143.131 160.027 144.319 161.126 145.728 161.071C146.182 161.053 146.601 160.918 146.961 160.696C146.962 160.722 146.959 160.748 146.96 160.774C147.015 162.182 148.204 163.281 149.612 163.226C150.15 163.205 150.639 163.015 151.038 162.715C151.404 163.368 152.047 163.832 152.801 163.971C152.888 163.987 152.976 164 153.062 164.008C153.159 164.017 153.258 164.023 153.36 164.018C153.36 164.018 153.387 164.015 153.398 164.015C153.414 164.014 153.423 164.018 153.439 164.016C153.541 164.012 153.64 163.999 153.735 163.985C153.822 163.971 153.909 163.95 153.993 163.927C154.734 163.73 155.338 163.213 155.652 162.537C156.075 162.805 156.579 162.953 157.112 162.934C158.52 162.879 159.619 161.691 159.564 160.282C159.563 160.256 159.558 160.231 159.557 160.205C159.936 160.397 160.364 160.5 160.815 160.481C162.224 160.426 163.322 159.238 163.267 157.829C163.26 157.659 163.237 157.493 163.196 157.332C164.56 157.229 165.611 156.066 165.559 154.689C165.526 153.807 165.049 153.047 164.351 152.617C165.014 152.131 165.43 151.339 165.396 150.457C165.363 149.575 164.886 148.815 164.188 148.385C164.851 147.9 165.267 147.107 165.233 146.225L165.243 146.229Z" fill="#791628"/>
<path d="M148.448 163.378C147.544 163.018 146.86 162.217 146.67 161.232C146.375 161.346 146.063 161.409 145.748 161.421C144.151 161.483 142.799 160.234 142.737 158.637C142.736 158.573 142.735 158.509 142.734 158.446C141.342 158.272 140.26 157.123 140.205 155.685C140.173 154.874 140.481 154.099 141.042 153.531C140.441 153.009 140.072 152.259 140.044 151.45C140.012 150.639 140.32 149.863 140.881 149.296C140.278 148.777 139.911 148.024 139.882 147.214C139.85 146.404 140.158 145.628 140.719 145.061C140.118 144.539 139.749 143.788 139.72 142.979C139.658 141.393 140.892 140.05 142.474 139.97C142.717 139.922 143.949 139.759 145.217 140.967L151.764 139.086C151.79 139.077 151.817 139.073 151.847 139.074L153.043 139.028C153.07 139.027 153.099 139.027 153.126 139.034L159.799 140.401C160.967 139.095 162.21 139.164 162.452 139.193C164.036 139.148 165.372 140.391 165.433 141.981C165.465 142.791 165.157 143.567 164.596 144.134C165.197 144.656 165.566 145.407 165.595 146.216C165.627 147.026 165.318 147.802 164.757 148.369C165.359 148.891 165.728 149.642 165.756 150.451C165.788 151.261 165.48 152.037 164.919 152.604C165.52 153.126 165.889 153.877 165.918 154.686C165.973 156.124 164.985 157.353 163.613 157.635C163.621 157.698 163.625 157.763 163.626 157.826C163.688 159.424 162.439 160.776 160.841 160.838C160.523 160.85 160.207 160.81 159.908 160.721C159.747 162.118 158.588 163.234 157.138 163.291C156.676 163.309 156.22 163.217 155.801 163.017C155.415 163.631 154.808 164.079 154.09 164.271C153.995 164.297 153.896 164.321 153.796 164.337C153.692 164.355 153.578 164.37 153.46 164.375C153.454 164.372 153.434 164.376 153.42 164.374C153.404 164.375 153.392 164.378 153.381 164.377C153.264 164.383 153.15 164.378 153.035 164.366C152.938 164.357 152.839 164.344 152.742 164.324C152.739 164.323 152.736 164.322 152.73 164.319C152.008 164.185 151.37 163.783 150.94 163.205C150.539 163.434 150.089 163.564 149.627 163.582C149.21 163.599 148.811 163.526 148.447 163.381L148.448 163.378ZM147.094 160.38C147.094 160.38 147.123 160.391 147.136 160.396C147.246 160.459 147.313 160.571 147.314 160.698C147.313 160.702 147.313 160.739 147.312 160.742C147.36 161.98 148.387 162.932 149.603 162.883C150.046 162.865 150.475 162.715 150.837 162.441C150.917 162.38 151.018 162.361 151.115 162.38C151.211 162.4 151.298 162.464 151.345 162.55C151.666 163.121 152.221 163.517 152.87 163.637C152.87 163.637 152.877 163.64 152.88 163.641C152.953 163.655 153.023 163.665 153.095 163.671C153.185 163.68 153.269 163.684 153.353 163.68C153.353 163.68 153.373 163.677 153.391 163.677C153.402 163.677 153.435 163.679 153.447 163.677C153.519 163.675 153.602 163.663 153.683 163.647C153.766 163.635 153.84 163.617 153.911 163.596C154.548 163.428 155.07 162.987 155.346 162.396C155.39 162.306 155.468 162.24 155.562 162.21C155.656 162.18 155.758 162.195 155.844 162.251C156.225 162.492 156.663 162.61 157.105 162.596C158.32 162.549 159.273 161.519 159.224 160.303C159.225 160.3 159.218 160.242 159.216 160.237C159.207 160.11 159.269 159.993 159.37 159.925C159.476 159.856 159.606 159.848 159.717 159.907C160.051 160.077 160.429 160.16 160.804 160.145C162.018 160.098 162.972 159.069 162.922 157.852C162.916 157.708 162.896 157.562 162.862 157.422C162.838 157.323 162.861 157.22 162.919 157.139C162.977 157.058 163.072 157.006 163.173 156.998C164.364 156.908 165.262 155.905 165.213 154.715C165.184 153.981 164.795 153.311 164.169 152.925C164.071 152.863 164.012 152.758 164.005 152.643C163.998 152.529 164.053 152.42 164.148 152.35C164.742 151.915 165.079 151.218 165.05 150.483C165.022 149.749 164.632 149.079 164.006 148.693C163.908 148.631 163.849 148.526 163.842 148.412C163.836 148.297 163.89 148.188 163.985 148.118C164.579 147.683 164.916 146.986 164.887 146.251C164.859 145.517 164.469 144.848 163.843 144.461C163.745 144.399 163.686 144.294 163.679 144.18C163.673 144.065 163.728 143.953 163.822 143.886C164.416 143.451 164.753 142.754 164.724 142.019C164.678 140.805 163.648 139.851 162.432 139.901C162.409 139.903 162.384 139.9 162.36 139.894C162.317 139.889 161.221 139.74 160.178 141.014C160.098 141.112 159.967 141.161 159.84 141.133L153.009 139.733L151.896 139.776L145.192 141.703C145.07 141.74 144.936 141.702 144.845 141.61C143.704 140.422 142.626 140.657 142.582 140.665C142.561 140.672 142.538 140.674 142.514 140.676C141.3 140.722 140.346 141.752 140.396 142.968C140.424 143.703 140.814 144.372 141.44 144.759C141.538 144.82 141.597 144.925 141.604 145.04C141.61 145.154 141.556 145.263 141.461 145.334C140.867 145.768 140.53 146.466 140.559 147.2C140.587 147.935 140.977 148.604 141.602 148.99C141.701 149.052 141.76 149.157 141.766 149.272C141.773 149.386 141.719 149.495 141.624 149.565C141.03 150 140.693 150.698 140.721 151.432C140.75 152.166 141.14 152.836 141.765 153.222C141.864 153.284 141.923 153.389 141.929 153.504C141.936 153.618 141.882 153.727 141.787 153.797C141.193 154.232 140.856 154.929 140.884 155.664C140.932 156.857 141.901 157.786 143.098 157.785C143.199 157.784 143.296 157.83 143.363 157.905C143.429 157.983 143.459 158.085 143.443 158.183C143.418 158.33 143.412 158.476 143.416 158.616C143.462 159.831 144.492 160.784 145.708 160.735C146.083 160.72 146.452 160.609 146.772 160.412C146.865 160.356 146.981 160.346 147.081 160.386L147.094 160.38Z" fill="#791628"/>
</g>
<path d="M170.329 133.076C165.333 131.091 157.908 125.944 150.903 112.697L150.666 112.252C149.674 110.427 148.975 108.639 148.756 107.363C148.582 106.355 148.938 105.348 149.702 104.672C150.47 103.997 151.511 103.769 152.489 104.065C152.932 104.2 153.477 104.421 154.013 104.686C158.826 107.065 166.915 110.336 172.583 112.589C175.673 113.817 178.715 115.008 181.656 116.161C184.21 117.162 186.613 118.102 188.721 118.94C192.877 120.592 195.29 121.611 196.316 122.142C197.654 122.837 198.244 124.418 197.686 125.821C197.396 126.552 196.722 127.711 195.171 129.093C191.69 132.185 184.848 135.221 176.083 134.458C174.145 134.288 172.209 133.824 170.323 133.074L170.329 133.076ZM152.106 106.868C151.913 106.792 151.77 106.746 151.687 106.721C151.635 106.703 151.581 106.716 151.541 106.752C151.5 106.788 151.483 106.841 151.491 106.896C151.657 107.857 152.278 109.408 153.11 110.943L153.353 111.401C159.967 123.907 166.79 128.692 171.354 130.506C172.99 131.156 174.663 131.56 176.331 131.705C184.217 132.391 190.287 129.742 193.337 127.029C194.588 125.916 194.998 125.103 195.117 124.803C195.146 124.729 195.116 124.646 195.045 124.607C194.131 124.132 191.659 123.093 187.703 121.521C185.598 120.684 183.201 119.746 180.65 118.747C177.705 117.595 174.661 116.4 171.565 115.17C165.855 112.9 157.695 109.601 152.791 107.178C152.558 107.063 152.327 106.96 152.108 106.873L152.106 106.868Z" fill="#3A1919"/>
<path d="M93.9584 80.5802C92.1664 79.9872 91.0656 79.531 90.5177 79.2871C90.2524 79.1668 89.9451 79.2273 89.7423 79.4374C86.1464 83.0734 83.1095 87.666 98.983 92.1603C99.4387 92.2893 88.8672 85.4744 94.0645 81.1852C94.2764 81.0085 94.221 80.6697 93.9571 80.5834L93.9584 80.5802Z" fill="#605555"/>
<path d="M11.9441 192.83C8.72533 191.551 6.88065 188.287 6.53672 185.701L5.79593 180.148C5.69523 179.388 6.22822 178.694 6.98568 178.589L21.7543 176.617C21.9633 176.589 22.1749 176.609 22.3719 176.676C22.554 176.697 22.7361 176.735 22.9092 176.797L26.5069 178.089C27.2986 178.366 27.8784 179.074 27.9934 179.928L28.6629 184.939C29.2618 189.434 26.6512 192.739 22.0106 193.358C21.9399 193.367 21.8717 193.37 21.8003 193.371C19.7214 193.331 16.3491 193.292 15.5864 193.354C14.2243 193.461 13.0082 193.257 11.9428 192.834L11.9441 192.83ZM8.72851 181.153L9.28815 185.334C9.58299 187.527 11.4909 190.895 15.3733 190.589C16.462 190.504 20.8558 190.58 21.7512 190.597C24.7932 190.155 26.3108 188.231 25.9192 185.306L25.2909 180.595L22.0911 179.446C21.9509 179.461 21.8087 179.453 21.6742 179.426L8.72851 181.153ZM25.5876 180.702L25.578 180.698C25.578 180.698 25.5844 180.7 25.5876 180.702Z" fill="#3A1919"/>
<path d="M9.08299 186.733C9.63993 190.555 12.7134 193.334 15.9491 192.939L18.9295 192.577C22.1639 192.186 24.3344 188.769 23.7774 184.948L22.9417 179.211L8.24854 180.993L9.08427 186.73L9.08299 186.733Z" fill="#938282"/>
<path d="M12.8926 193.886C10.2789 192.847 8.1912 190.213 7.71327 186.934L6.87753 181.197C6.8227 180.828 6.91966 180.453 7.14606 180.155C7.37246 179.858 7.70908 179.667 8.08139 179.622L22.7745 177.84C23.5224 177.749 24.2027 178.269 24.313 179.014L25.1488 184.751C25.4994 187.16 24.9257 189.56 23.5679 191.335C22.4398 192.813 20.8512 193.743 19.097 193.956L16.1166 194.318C15.0041 194.453 13.9097 194.29 12.8926 193.886ZM9.82427 182.204L10.4544 186.536C10.901 189.613 13.2921 191.868 15.7819 191.568L18.7623 191.206C20.0548 191.049 20.8919 190.275 21.3659 189.654C22.2721 188.471 22.6493 186.828 22.4064 185.152L21.7659 180.752L9.82555 182.201L9.82427 182.204Z" fill="#3A1919"/>
<path d="M72.7572 166.785C72.7572 166.785 63.9201 170.545 59.7545 182.281C56.8317 190.516 63.7188 186.552 56.4903 201.268C53.1719 208.022 55.7868 213.802 65.2639 217.763C68.2304 219.002 73.1462 212.42 79.7347 200.346C80.4349 199.063 82.0278 196.565 83.6369 190.529C86.8971 178.313 83.5036 163.483 72.7572 166.785Z" fill="#938282"/>
<path d="M64.7895 219.069C64.7702 219.062 64.7476 219.053 64.7283 219.045C59.2111 216.74 55.7269 213.738 54.3702 210.127C53.2853 207.24 53.5788 204.054 55.2476 200.662C59.2966 192.416 58.7028 190.563 58.1252 188.771C57.6486 187.288 57.1066 185.604 58.4497 181.822C62.7694 169.651 71.8324 165.68 72.2147 165.515C72.2597 165.495 72.3034 165.479 72.3504 165.464C75.9846 164.348 79.2013 165.004 81.6544 167.366C86.6677 172.195 87.1205 182.853 84.9781 190.887C83.4768 196.511 81.9782 199.184 81.1728 200.62C81.0934 200.763 81.019 200.894 80.953 201.013C73.0654 215.475 68.5232 220.553 64.7959 219.072L64.7895 219.069ZM73.243 168.085C72.497 168.434 64.7818 172.259 61.058 182.743C60.0281 185.644 60.3531 186.645 60.7604 187.918C61.6463 190.678 61.9479 193.295 57.7304 201.88C56.4157 204.559 56.1554 207.005 56.9621 209.148C58.0393 212.018 61.013 214.486 65.7937 216.487L65.8001 216.489C66.3537 216.709 67.7974 215.975 70.0567 213.179C72.3198 210.374 75.0875 205.961 78.5105 199.684C78.5803 199.556 78.6585 199.415 78.745 199.263C79.4895 197.934 80.8792 195.46 82.2912 190.173C84.5089 181.856 83.4063 172.908 79.7247 169.361C78.0341 167.735 75.8533 167.304 73.2385 168.087L73.243 168.085Z" fill="#3A1919"/>
<path d="M81.0797 194.731C80.9287 194.492 80.673 194.338 80.3913 194.315C70.3648 193.584 59.551 184.772 59.4408 184.683C59.165 184.458 58.779 184.416 58.4636 184.582C58.1481 184.747 57.961 185.087 57.9901 185.445L58.3962 190.303C58.414 190.511 58.5039 190.707 58.6502 190.854C58.8951 191.101 63.0488 195.223 69.467 197.774C72.219 198.868 75.3879 199.673 78.842 199.76C79.2145 199.77 79.5529 199.547 79.6911 199.199L81.1496 195.53C81.2546 195.266 81.2275 194.968 81.0765 194.729L81.0797 194.731Z" fill="#3A1919"/>
<path d="M77.0251 206.948C77.1075 206.656 77.0386 206.342 76.8406 206.118C76.6427 205.894 76.3421 205.778 76.0412 205.822L72.0173 206.418L59.6394 200.66C59.4257 200.56 59.1806 200.548 58.9608 200.632C58.739 200.712 58.5574 200.878 58.4607 201.093L56.4998 205.323C54.6227 209.37 56.2039 213.916 60.2318 215.786L63.4613 217.282C63.4839 217.291 63.5032 217.298 63.5257 217.307C65.6519 218.1 67.7176 218.004 69.6599 217.028C75.0298 214.321 76.9262 207.318 77.0303 206.953L77.0251 206.948Z" fill="#3A1919"/>
<path d="M77.8911 207.131C77.9481 206.744 77.7415 206.364 77.3835 206.195L59.6913 197.996C59.5342 197.923 59.3579 197.897 59.1875 197.923L54.4558 198.621C54.0674 198.679 53.7626 198.987 53.7055 199.374C53.6485 199.761 53.8551 200.142 54.2131 200.31L71.9052 208.509C72.0623 208.583 72.2386 208.608 72.409 208.583L77.1408 207.884C77.5292 207.826 77.834 207.519 77.8911 207.131Z" fill="#3A1919"/>
<path d="M56.6291 214.816L60.2134 216.479C68.2428 220.2 72.6943 208.025 72.6943 208.025L55.0118 199.83C55.0118 199.83 49.5778 211.551 56.6278 214.819L56.6291 214.816Z" fill="#938282"/>
<path d="M60.1567 217.962C59.9829 217.893 59.8084 217.816 59.6352 217.736L56.051 216.073C47.842 212.27 53.5161 199.776 53.7613 199.244C53.9163 198.91 54.1974 198.653 54.5425 198.525C54.8877 198.398 55.2717 198.416 55.602 198.57L73.2845 206.765C73.9386 207.07 74.2516 207.821 74.0048 208.498C73.8967 208.798 71.264 215.862 66.1725 217.972C64.2312 218.777 62.2083 218.774 60.1612 217.96L60.1567 217.962ZM55.7561 201.699C54.6908 204.585 52.7195 211.476 57.2135 213.561L60.7978 215.224C62.316 215.924 63.7209 215.991 65.1051 215.415C67.8195 214.288 69.8973 210.861 70.9018 208.718L55.7561 201.699Z" fill="#3A1919"/>
<path d="M59.0104 76.288C60.3116 74.9041 60.2447 72.7274 58.8608 71.4262C57.4769 70.1249 55.3002 70.1919 53.9989 71.5758L26.682 100.628C25.3808 102.012 25.4477 104.188 26.8316 105.49C28.2155 106.791 30.3922 106.724 31.6935 105.34L59.0104 76.288Z" fill="#D8A577"/>
<mask id="mask3_1421_432" style="mask-type:luminance" maskUnits="userSpaceOnUse" x="25" y="64" width="41" height="43">
<path d="M63.2121 73.715C65.6474 71.1235 66.0758 67.5702 64.1687 65.7759C62.2616 63.9817 58.7396 64.628 56.301 67.2183C55.1184 68.4777 54.4134 69.9605 54.2145 71.3612C54.1394 71.4282 54.063 71.4985 53.993 71.5713L26.6759 100.621C25.379 101.999 25.448 104.189 26.8273 105.482C28.2065 106.776 30.3945 106.71 31.6882 105.331L59.0054 76.2809C59.0766 76.2048 59.1414 76.1262 59.203 76.0463C60.5904 75.7629 62.0288 74.9667 63.2102 73.7105L63.2121 73.715Z" fill="white"/>
</mask>
<g mask="url(#mask3_1421_432)">
<path d="M63.1035 73.8284C60.6824 76.4032 57.3554 76.8401 55.447 75.0491C53.5399 73.2548 53.7713 69.9065 56.1925 67.3317C58.6137 64.7568 62.1228 64.124 64.0332 65.9196C65.9403 67.7138 65.5235 71.2568 63.1023 73.8316L63.1035 73.8284Z" fill="#9E673E"/>
</g>
<path d="M63.2122 73.7148C60.7769 76.3063 58.7982 75.3111 56.8878 73.5156C54.9807 71.7213 53.8638 69.8051 56.3011 67.218C58.7364 64.6265 62.2584 63.9801 64.1687 65.7756C66.0758 67.5699 65.6507 71.1245 63.2122 73.7148Z" fill="#D8A577"/>
<path d="M27.3944 107.459C26.8472 107.242 26.33 106.921 25.8769 106.495C24.9404 105.616 24.4027 104.418 24.3639 103.128C24.3251 101.838 24.7874 100.609 25.6698 99.6735L52.9286 70.686C53.2538 69.1081 54.0834 67.5556 55.2917 66.2692C56.6727 64.8016 58.4104 63.815 60.183 63.4909C62.1131 63.1362 63.8636 63.5897 65.1165 64.7698C67.5779 67.0825 67.1759 71.526 64.2201 74.6673C63.0118 75.9537 61.5126 76.8748 59.957 77.3001L32.6982 106.288C31.3031 107.772 29.1827 108.174 27.3963 107.464L27.3944 107.459ZM62.5143 66.3371C61.8448 66.071 61.1239 66.1311 60.6848 66.2137C59.5063 66.4311 58.2768 67.1426 57.3148 68.1654C56.3715 69.1696 55.7592 70.3724 55.5913 71.5543C55.5444 71.8786 55.3849 72.1767 55.141 72.3966C55.0948 72.4378 55.0486 72.4791 55.0088 72.5229L27.6916 101.573C27.3181 101.969 27.1218 102.491 27.1378 103.041C27.1538 103.592 27.3839 104.101 27.7796 104.474C28.6046 105.249 29.9057 105.211 30.6821 104.383L57.9993 75.333C58.0436 75.2872 58.0814 75.2389 58.118 75.1938C58.3213 74.9354 58.6078 74.7586 58.9286 74.6923C60.0974 74.4524 61.2608 73.7668 62.2073 72.7639C64.0843 70.7705 64.5479 68.0288 63.2241 66.7832C63.0075 66.5779 62.7654 66.4369 62.5175 66.3384L62.5143 66.3371Z" fill="#3A1919"/>
<path d="M47.8562 93.9968C47.8562 93.9968 46.9397 90.7886 44.4416 89.9186C42.9978 89.4155 39.309 90.2565 40.2514 94.7497C40.5269 96.0632 42.8018 98.395 42.8018 98.395C42.8018 98.395 43.9327 99.3663 46.2431 98.2049C49.0007 96.8186 47.8529 93.9955 47.8529 93.9955L47.8562 93.9968Z" fill="#FFE14D"/>
<path d="M42.2929 100.246C42.1448 100.187 42.0038 100.101 41.8775 99.9879C40.1123 98.3992 37.6059 94.887 39.3969 91.797C40.6394 89.6557 42.1929 89.1513 43.2804 89.1065C46.7598 88.9613 49.8862 93.3051 50.2301 93.7996C50.6662 94.4277 50.5131 95.2912 49.885 95.7274C49.2569 96.1635 48.3934 96.0104 47.9572 95.3823C47.134 94.209 44.9419 91.8095 43.3958 91.8733C43.1836 91.8821 42.5391 91.9092 41.7977 93.1837C40.7058 95.0681 43.7041 97.8961 43.7344 97.9231C44.3021 98.4358 44.3491 99.3117 43.8364 99.8795C43.4373 100.321 42.8169 100.447 42.2954 100.24L42.2929 100.246Z" fill="#3A1919"/>
<path d="M164.93 144.241C164.897 143.359 164.42 142.599 163.722 142.169C164.385 141.683 164.801 140.891 164.767 140.009C164.712 138.6 163.524 137.502 162.115 137.557C162.115 137.557 160.806 137.335 159.61 138.797L152.737 137.389L151.541 137.435L144.796 139.372C143.486 138.009 142.199 138.329 142.199 138.329C140.791 138.384 139.692 139.572 139.747 140.981C139.781 141.863 140.258 142.623 140.955 143.053C140.293 143.538 139.877 144.331 139.91 145.213C139.944 146.095 140.421 146.854 141.118 147.284C140.455 147.77 140.04 148.563 140.073 149.445C140.107 150.326 140.584 151.086 141.281 151.516C140.618 152.002 140.203 152.795 140.236 153.677C140.289 155.054 141.429 156.134 142.795 156.129C142.771 156.291 142.756 156.46 142.763 156.63C142.818 158.039 144.007 159.137 145.415 159.082C145.869 159.065 146.288 158.93 146.649 158.708C146.649 158.734 146.647 158.759 146.648 158.786C146.703 160.194 147.891 161.293 149.3 161.238C149.837 161.216 150.326 161.027 150.725 160.727C151.092 161.38 151.735 161.844 152.488 161.983C152.575 161.999 152.663 162.012 152.75 162.02C152.847 162.029 152.945 162.034 153.047 162.03C153.047 162.03 153.075 162.026 153.086 162.027C153.101 162.026 153.111 162.029 153.126 162.028C153.229 162.024 153.327 162.011 153.422 161.997C153.51 161.983 153.597 161.961 153.68 161.939C154.422 161.742 155.026 161.225 155.34 160.548C155.762 160.817 156.266 160.965 156.799 160.946C158.208 160.891 159.306 159.702 159.251 158.294C159.251 158.268 159.245 158.243 159.245 158.217C159.623 158.408 160.052 158.512 160.503 158.493C161.911 158.438 163.01 157.25 162.955 155.841C162.948 155.671 162.924 155.505 162.884 155.343C164.248 155.241 165.299 154.078 165.247 152.701C165.213 151.819 164.736 151.059 164.039 150.629C164.701 150.143 165.117 149.35 165.084 148.469C165.05 147.587 164.573 146.827 163.876 146.397C164.538 145.911 164.954 145.119 164.921 144.237L164.93 144.241Z" fill="#FFE14D"/>
<mask id="mask4_1421_432" style="mask-type:luminance" maskUnits="userSpaceOnUse" x="139" y="137" width="27" height="26">
<path d="M164.93 144.241C164.897 143.359 164.42 142.599 163.722 142.169C164.385 141.683 164.801 140.891 164.767 140.009C164.712 138.6 163.524 137.502 162.115 137.557C162.115 137.557 160.806 137.335 159.61 138.797L152.737 137.389L151.541 137.435L144.796 139.372C143.486 138.009 142.199 138.329 142.199 138.329C140.791 138.384 139.692 139.572 139.747 140.981C139.781 141.863 140.258 142.623 140.955 143.053C140.293 143.538 139.877 144.331 139.91 145.213C139.944 146.095 140.421 146.854 141.118 147.284C140.455 147.77 140.04 148.563 140.073 149.445C140.107 150.326 140.584 151.086 141.281 151.516C140.618 152.002 140.203 152.795 140.236 153.677C140.289 155.054 141.429 156.134 142.795 156.129C142.771 156.291 142.756 156.46 142.763 156.63C142.818 158.039 144.007 159.137 145.415 159.082C145.869 159.065 146.288 158.93 146.649 158.708C146.649 158.734 146.647 158.759 146.648 158.786C146.703 160.194 147.891 161.293 149.3 161.238C149.837 161.216 150.326 161.027 150.725 160.727C151.092 161.38 151.735 161.844 152.488 161.983C152.575 161.999 152.663 162.012 152.75 162.02C152.847 162.029 152.945 162.034 153.047 162.03C153.047 162.03 153.075 162.026 153.086 162.027C153.101 162.026 153.111 162.029 153.126 162.028C153.229 162.024 153.327 162.011 153.422 161.997C153.51 161.983 153.597 161.961 153.68 161.939C154.422 161.742 155.026 161.225 155.34 160.548C155.762 160.817 156.266 160.965 156.799 160.946C158.208 160.891 159.306 159.702 159.251 158.294C159.251 158.268 159.245 158.243 159.245 158.217C159.623 158.408 160.052 158.512 160.503 158.493C161.911 158.438 163.01 157.25 162.955 155.841C162.948 155.671 162.924 155.505 162.884 155.343C164.248 155.241 165.299 154.078 165.247 152.701C165.213 151.819 164.736 151.059 164.039 150.629C164.701 150.143 165.117 149.35 165.084 148.469C165.05 147.587 164.573 146.827 163.876 146.397C164.538 145.911 164.954 145.119 164.921 144.237L164.93 144.241Z" fill="white"/>
</mask>
<g mask="url(#mask4_1421_432)">
<path d="M139.785 142.9C139.499 142.787 139.333 142.669 139.295 142.642C139.066 142.469 139.02 142.145 139.19 141.914C139.363 141.685 139.687 141.639 139.918 141.809C139.934 141.823 140.515 142.218 141.579 142.063C142.711 141.898 143.61 141.051 143.619 141.04C143.827 140.843 144.156 140.851 144.354 141.056C144.552 141.261 144.547 141.591 144.342 141.789C144.295 141.834 143.201 142.879 141.73 143.092C140.851 143.22 140.197 143.064 139.785 142.9Z" fill="#C6B44B"/>
<path d="M140.069 147.221C139.821 147.123 139.675 147.024 139.64 146.999C139.408 146.832 139.351 146.507 139.517 146.275C139.684 146.043 140.009 145.986 140.241 146.153C140.259 146.164 140.845 146.546 141.907 146.368C143.027 146.176 143.842 145.344 143.849 145.336C144.046 145.131 144.377 145.124 144.582 145.321C144.79 145.52 144.798 145.847 144.599 146.055C144.556 146.098 143.548 147.143 142.082 147.391C141.159 147.546 140.478 147.384 140.069 147.221Z" fill="#C6B44B"/>
<path d="M140.215 151.271C140.009 151.189 139.884 151.11 139.851 151.089C139.612 150.931 139.547 150.607 139.706 150.368C139.864 150.129 140.188 150.064 140.427 150.222C140.445 150.233 141.042 150.597 142.111 150.411C143.389 150.188 144.083 149.491 144.09 149.483C144.291 149.279 144.617 149.275 144.825 149.473C145.03 149.67 145.038 149.997 144.839 150.205C144.802 150.243 143.919 151.152 142.289 151.436C141.32 151.606 140.611 151.428 140.215 151.271Z" fill="#C6B44B"/>
<path d="M161.377 141.975C160.801 141.746 160.502 141.466 160.454 141.418C160.25 141.217 160.247 140.888 160.449 140.681C160.649 140.477 160.974 140.476 161.179 140.673C161.209 140.7 161.723 141.161 162.809 141.232C163.943 141.306 164.78 140.804 164.785 140.798C165.031 140.65 165.348 140.724 165.501 140.967C165.651 141.21 165.58 141.528 165.337 141.681C165.292 141.708 164.221 142.367 162.741 142.267C162.181 142.231 161.726 142.11 161.375 141.97L161.377 141.975Z" fill="#C6B44B"/>
<path d="M161.501 146.097C160.873 145.848 160.554 145.535 160.503 145.485C160.305 145.279 160.31 144.949 160.515 144.751C160.72 144.554 161.044 144.555 161.246 144.759C161.275 144.789 161.777 145.261 162.861 145.356C164.066 145.466 165.087 145.167 165.095 145.167C165.369 145.086 165.658 145.241 165.742 145.517C165.823 145.792 165.667 146.08 165.396 146.162C165.346 146.176 164.184 146.519 162.77 146.393C162.256 146.345 161.835 146.231 161.501 146.097Z" fill="#C6B44B"/>
<path d="M161.85 150.161C161.055 149.845 160.701 149.499 160.653 149.45C160.455 149.245 160.459 148.915 160.665 148.717C160.87 148.519 161.192 148.524 161.396 148.724C161.415 148.743 161.862 149.156 162.944 149.425C164.107 149.716 165.328 149.504 165.34 149.502C165.625 149.451 165.893 149.64 165.945 149.921C165.997 150.203 165.807 150.474 165.527 150.523C165.467 150.533 164.079 150.779 162.693 150.432C162.367 150.351 162.09 150.26 161.849 150.164L161.85 150.161Z" fill="#C6B44B"/>
<path d="M140.75 156.106C140.489 156.002 140.356 155.707 140.454 155.444C140.553 155.174 140.851 155.035 141.12 155.135C141.143 155.144 141.848 155.376 142.829 154.953C143.855 154.511 144.424 153.574 144.431 153.566C144.578 153.319 144.89 153.238 145.144 153.387C145.391 153.534 145.47 153.852 145.324 154.096C145.293 154.147 144.585 155.327 143.24 155.907C141.862 156.503 140.806 156.124 140.762 156.111L140.75 156.106Z" fill="#C6B44B"/>
<path d="M144.295 159.594C144.121 159.525 143.994 159.366 143.971 159.171C143.939 158.886 144.145 158.629 144.43 158.597C144.442 158.594 145.7 158.442 146.352 157.728C146.982 157.043 146.991 156.421 146.994 156.395C146.994 156.112 147.223 155.875 147.507 155.873C147.791 155.87 148.025 156.09 148.034 156.376C148.037 156.482 148.033 157.438 147.12 158.432C146.201 159.431 144.616 159.621 144.55 159.628C144.463 159.639 144.375 159.626 144.298 159.595L144.295 159.594Z" fill="#C6B44B"/>
<path d="M158.771 161.002C158.526 160.905 158.39 160.638 158.463 160.38C158.465 160.374 158.715 159.389 158.187 158.28C157.776 157.428 157.351 157.184 157.348 157.183C157.1 157.047 157 156.735 157.13 156.485C157.259 156.234 157.565 156.132 157.811 156.252C157.886 156.29 158.553 156.637 159.126 157.83C159.83 159.303 159.481 160.603 159.467 160.657C159.391 160.932 159.104 161.094 158.828 161.018C158.812 161.011 158.793 161.004 158.777 160.997L158.771 161.002Z" fill="#C6B44B"/>
<path d="M162.913 157.062C162.716 156.984 162.58 156.792 162.583 156.569C162.584 156.547 162.57 155.852 161.827 155.087C161.071 154.306 160.385 154.223 160.356 154.219C160.074 154.189 159.866 153.935 159.893 153.651C159.92 153.367 160.166 153.159 160.448 153.182C160.556 153.191 161.545 153.301 162.57 154.361C163.615 155.436 163.623 156.475 163.619 156.589C163.612 156.877 163.377 157.104 163.088 157.098C163.026 157.095 162.964 157.082 162.906 157.059L162.913 157.062Z" fill="#C6B44B"/>
<path d="M162.173 155.079C161.622 154.86 161.237 154.592 161.207 154.572C160.971 154.408 160.914 154.083 161.077 153.85C161.241 153.617 161.562 153.558 161.8 153.719C161.8 153.719 162.723 154.351 163.566 154.321C164.51 154.282 165.105 153.777 165.111 153.772C165.325 153.581 165.656 153.601 165.844 153.814C166.035 154.027 166.016 154.355 165.802 154.546C165.768 154.577 164.934 155.305 163.61 155.356C163.095 155.375 162.586 155.24 162.174 155.076L162.173 155.079Z" fill="#C6B44B"/>
<path d="M148.972 162.099C148.869 162.058 148.782 161.986 148.719 161.882C148.571 161.637 148.649 161.318 148.894 161.169C148.905 161.162 149.918 160.536 150.303 159.623C150.666 158.757 150.479 158.176 150.469 158.154C150.379 157.883 150.522 157.59 150.788 157.494C151.056 157.399 151.349 157.534 151.445 157.8C151.481 157.896 151.778 158.782 151.258 160.025C150.739 161.254 149.482 162.025 149.429 162.056C149.286 162.145 149.115 162.152 148.967 162.093L148.972 162.099Z" fill="#C6B44B"/>
<path d="M154.424 162.532C154.163 162.429 154.031 162.134 154.128 161.87C154.132 161.861 154.494 160.846 154.283 159.859C154.068 158.861 153.643 158.319 153.637 158.313C153.458 158.089 153.494 157.764 153.715 157.584C153.936 157.403 154.259 157.435 154.442 157.657C154.465 157.684 155.025 158.377 155.298 159.64C155.576 160.929 155.12 162.179 155.103 162.232C155.003 162.501 154.702 162.639 154.436 162.541L154.423 162.535L154.424 162.532Z" fill="#C6B44B"/>
</g>
<path d="M151.802 157.446C148.254 157.586 145.254 154.809 145.113 151.261L144.664 139.696C144.664 139.696 146.707 138.23 152.197 138.016C157.687 137.801 159.838 139.104 159.838 139.104L160.288 150.669C160.428 154.217 157.651 157.218 154.103 157.358L151.801 157.449L151.802 157.446Z" fill="#A31E36"/>
<path d="M148.793 157.964C147.946 157.628 147.162 157.134 146.472 156.498C145.003 155.139 144.152 153.295 144.077 151.3L143.626 139.738C143.612 139.389 143.774 139.055 144.059 138.855C144.293 138.687 146.517 137.201 152.158 136.979C157.8 136.758 160.13 138.068 160.38 138.22C160.677 138.401 160.867 138.719 160.881 139.067L161.331 150.633C161.492 154.756 158.27 158.239 154.148 158.397L151.846 158.488C150.789 158.531 149.754 158.35 148.798 157.97L148.793 157.964ZM145.728 140.301L146.151 151.219C146.209 152.659 146.824 153.991 147.884 154.972C148.944 155.952 150.322 156.462 151.761 156.405L154.063 156.313C157.039 156.199 159.365 153.684 159.252 150.705L158.825 139.786C157.963 139.469 155.891 138.907 152.237 139.05C148.588 139.191 146.565 139.911 145.726 140.297L145.728 140.301Z" fill="#C6B44B"/>
</g>
</svg>
