<svg width="335" height="532" viewBox="0 0 335 532" fill="none" xmlns="http://www.w3.org/2000/svg">
<rect x="161.846" y="223.596" width="30.1092" height="167.66" rx="15.0546" transform="rotate(45 161.846 223.596)" fill="#1E756D"/>
<rect width="14.6015" height="309.504" rx="7.30077" transform="matrix(-0.707107 -0.707107 -0.707107 0.707107 197.91 165.325)" fill="#E67823"/>
<rect width="40.8491" height="309.504" rx="20.4245" transform="matrix(-0.707107 -0.707107 -0.707107 0.707107 106.737 1.88477)" fill="#E67823"/>
<g clip-path="url(#clip0_1394_2643)">
<path d="M157.766 294.776L167.085 304.095C169.658 301.522 169.658 297.349 167.085 294.776C164.511 292.203 160.339 292.203 157.766 294.776Z" fill="#F5B444"/>
<path d="M157.766 304.095L165.382 311.711C164.299 312 163.275 312.566 162.425 313.416C159.852 315.989 159.852 320.161 162.425 322.734C164.998 325.308 169.171 325.308 171.744 322.734C174.317 320.161 174.317 315.989 171.744 313.416L156.059 297.731C155.473 299.93 156.039 302.372 157.764 304.097L157.766 304.095Z" fill="#4041E4"/>
</g>
<g clip-path="url(#clip1_1394_2643)">
<path d="M10.9139 344.489L27.4781 361.053C32.0518 356.48 32.0518 349.063 27.4781 344.489C22.9044 339.916 15.4876 339.916 10.9139 344.489Z" fill="#F5B444"/>
<path d="M10.914 361.053L24.4512 374.591C22.5269 375.105 20.7061 376.111 19.196 377.621C14.6223 382.194 14.6223 389.611 19.196 394.185C23.7697 398.759 31.1865 398.759 35.7602 394.185C40.3338 389.611 40.3338 382.194 35.7602 377.621L7.88042 349.741C6.83806 353.65 7.84367 357.99 10.9106 361.057L10.914 361.053Z" fill="#4041E4"/>
</g>
<rect width="40.4152" height="245.169" rx="20.2076" transform="matrix(-0.707107 -0.707107 -0.707107 0.707107 326.694 -64.4219)" fill="#F5B444"/>
<rect width="40.4152" height="245.169" rx="20.2076" transform="matrix(-0.707107 -0.707107 -0.707107 0.707107 111.938 400.578)" fill="#F5B444"/>
<path d="M167.585 130.81L155.439 143.753L150.302 126.763L167.585 130.81Z" fill="#4041E4"/>
<path d="M40.1078 138.598L14.9642 147.723L19.6336 121.385L40.1078 138.598Z" fill="#E67823"/>
<path d="M187.491 200.812L200.793 214.113L182.622 218.982L187.491 200.812Z" fill="#1E756D"/>
<path d="M218 452C218 458.627 212.627 464 206 464C199.373 464 194 458.627 194 452C194 445.373 199.373 440 206 440C212.627 440 218 445.373 218 452Z" fill="#F5B444"/>
<circle cx="252" cy="13.0002" r="14" fill="#4041E4"/>
<circle cx="143.576" cy="358.577" r="14.5766" fill="#4041E4"/>
<path d="M-27.2319 221.046L157.768 36.0459" stroke="#573531" stroke-width="5" stroke-linecap="round"/>
<path d="M182 88.7683L333.768 -62.9998" stroke="#573531" stroke-width="2" stroke-linecap="round"/>
<g clip-path="url(#clip2_1394_2643)">
<path d="M198.244 95.1584L206.357 103.272C208.598 101.032 208.598 97.3987 206.357 95.1584C204.117 92.9182 200.484 92.9182 198.244 95.1584Z" fill="#E67823"/>
<path d="M198.244 103.272L204.875 109.903C203.932 110.155 203.04 110.647 202.301 111.387C200.06 113.627 200.06 117.26 202.301 119.5C204.541 121.74 208.174 121.74 210.414 119.5C212.654 117.26 212.654 113.627 210.414 111.387L196.758 97.7309C196.247 99.6455 196.74 101.771 198.242 103.273L198.244 103.272Z" fill="#1E756D"/>
</g>
<circle cx="165" cy="458.001" r="20" fill="#4041E4"/>
<circle cx="56.0001" cy="222" r="28" fill="#F5B444"/>
<path d="M41.1701 262.467L18.061 246.429L43.505 234.435L41.1701 262.467Z" fill="#4041E4"/>
<path d="M62.4608 115.753L73.1405 125.765C71.6223 126.146 70.1859 126.89 68.9946 128.006C65.3864 131.389 65.3864 136.874 68.9972 140.26C72.6081 143.645 78.4566 143.642 82.0648 140.26C85.673 136.877 85.673 131.392 82.0648 128.009L60.0676 107.387C59.2453 110.278 60.0386 113.487 62.4581 115.756L62.4608 115.753Z" fill="#4041E4"/>
<path d="M80.0987 99.2178L90.7784 109.23C89.2603 109.61 87.8238 110.354 86.6325 111.471C83.0243 114.854 83.0243 120.339 86.6325 123.722C90.2407 127.104 96.0919 127.104 99.7001 123.722C103.308 120.339 103.308 114.854 99.7001 111.471L77.7055 90.8513C76.8832 93.7423 77.6766 96.952 80.0961 99.2203L80.0987 99.2178Z" fill="#E67823"/>
<path d="M73.9181 94.4021L63.3359 104.323L66.6042 107.387L74.6719 99.8232C73.8338 98.0195 73.3804 96.2849 73.9181 94.4021Z" fill="#1E756D"/>
<defs>
<clipPath id="clip0_1394_2643">
<rect x="146" y="306.426" width="23.2287" height="29.8207" transform="rotate(-45 146 306.426)" fill="white"/>
</clipPath>
<clipPath id="clip1_1394_2643">
<rect x="-10" y="365.196" width="41.2894" height="53.0068" transform="rotate(-45 -10 365.196)" fill="white"/>
</clipPath>
<clipPath id="clip2_1394_2643">
<rect width="20.2242" height="25.9636" fill="white" transform="translate(188 105.301) rotate(-45)"/>
</clipPath>
</defs>
</svg>
