<svg width="864" height="708" viewBox="0 0 864 708" fill="none" xmlns="http://www.w3.org/2000/svg">
<rect x="361.529" y="393" width="70.2298" height="350.059" rx="35.1149" transform="rotate(45 361.529 393)" fill="#1E756D"/>
<rect width="34.0582" height="529.716" rx="17.0291" transform="matrix(-0.707107 -0.707107 -0.707107 0.707107 445.648 257.083)" fill="#E67823"/>
<rect width="75.0001" height="529.716" rx="37.5001" transform="matrix(-0.707107 -0.707107 -0.707107 0.707107 238.648 -22.9172)" fill="#E67823"/>
<rect width="94.2686" height="571.857" rx="47.1343" transform="matrix(-0.707107 -0.707107 -0.707107 0.707107 719.022 -165.342)" fill="#F5B444"/>
<path d="M574.061 437.087L586.081 485.922L537.779 471.914L574.061 437.087Z" fill="#E67823"/>
<path d="M43.0449 215.538L102.13 267.515L27.5737 292.695L43.0449 215.538Z" fill="#E67823"/>
<path d="M320.678 268.881L292.348 299.072L280.367 259.441L320.678 268.881Z" fill="#4041E4"/>
<path d="M809.913 71.9133L852.297 83.2699L821.27 114.297L809.913 71.9133Z" fill="#E67823"/>
<path d="M446.47 330.557L477.497 361.584L435.113 372.94L446.47 330.557Z" fill="#1E756D"/>
<path d="M620.999 656.5C620.999 684.943 597.942 708 569.499 708C541.057 708 517.999 684.943 517.999 656.5C517.999 628.057 541.057 605 569.499 605C597.942 605 620.999 628.057 620.999 656.5Z" fill="#F5B444"/>
<path d="M202 398.5C202 426.943 178.943 450 150.5 450C122.057 450 99 426.943 99 398.5C99 370.057 122.057 347 150.5 347C178.943 347 202 370.057 202 398.5Z" fill="#F5B444"/>
<circle cx="715.5" cy="42.5" r="55.5" fill="#4041E4"/>
<circle cx="464" cy="668" r="34" fill="#4041E4"/>
<path d="M-29 423L325 69" stroke="#573531" stroke-width="5" stroke-linecap="round"/>
<path d="M386 229.5L740 -124.5" stroke="#573531" stroke-width="2" stroke-linecap="round"/>
<g clip-path="url(#clip0_1391_1729)">
<path d="M573.558 224.434L601.721 252.597C609.498 244.82 609.498 232.21 601.721 224.434C593.945 216.657 581.335 216.657 573.558 224.434Z" fill="#E67823"/>
<path d="M573.558 252.596L596.575 275.613C593.303 276.488 590.207 278.198 587.64 280.765C579.864 288.541 579.864 301.152 587.64 308.928C595.416 316.704 608.026 316.704 615.803 308.928C623.579 301.152 623.579 288.541 615.803 280.765L568.401 233.363C566.628 240.009 568.338 247.388 573.553 252.602L573.558 252.596Z" fill="#1E756D"/>
</g>
<g clip-path="url(#clip1_1391_1729)">
<path d="M24.1816 485.687L52.8381 514.343C60.7507 506.43 60.7507 493.599 52.8381 485.687C44.9255 477.774 32.0942 477.774 24.1816 485.687Z" fill="#F5B444"/>
<path d="M24.1819 514.343L47.6018 537.763C44.2726 538.653 41.1226 540.393 38.5101 543.005C30.5975 550.918 30.5975 563.749 38.5101 571.662C46.4227 579.574 59.254 579.574 67.1666 571.662C75.0792 563.749 75.0792 550.918 67.1666 543.005L18.9338 494.772C17.1305 501.535 18.8702 509.043 24.1761 514.349L24.1819 514.343Z" fill="#4041E4"/>
</g>
<g clip-path="url(#clip2_1391_1729)">
<path d="M391.444 502.14L413.18 523.876C419.181 517.874 419.181 508.141 413.18 502.14C407.178 496.138 397.445 496.138 391.444 502.14Z" fill="#F5B444"/>
<path d="M391.444 523.876L409.208 541.64C406.682 542.315 404.293 543.634 402.312 545.616C396.31 551.618 396.31 561.35 402.312 567.352C408.313 573.354 418.046 573.354 424.048 567.352C430.049 561.35 430.049 551.618 424.048 545.616L387.463 509.031C386.095 514.161 387.415 519.856 391.439 523.88L391.444 523.876Z" fill="#4041E4"/>
</g>
<path d="M163.922 197.506L185.281 217.531C182.245 218.292 179.372 219.779 176.989 222.013C169.773 228.778 169.773 239.749 176.994 246.519C184.216 253.289 195.913 253.285 203.13 246.519C210.346 239.754 210.346 228.783 203.13 222.018L159.135 180.773C157.491 186.555 159.077 192.975 163.916 197.511L163.922 197.506Z" fill="#4041E4"/>
<path d="M199.197 164.436L220.557 184.46C217.521 185.221 214.648 186.709 212.265 188.942C205.049 195.708 205.049 206.678 212.265 213.444C219.481 220.209 231.184 220.209 238.4 213.444C245.617 206.678 245.617 195.708 238.4 188.942L194.411 147.703C192.766 153.485 194.353 159.904 199.192 164.441L199.197 164.436Z" fill="#E67823"/>
<path d="M186.836 154.804L165.672 174.646L172.208 180.773L188.344 165.646C186.668 162.039 185.761 158.57 186.836 154.804Z" fill="#1E756D"/>
<path d="M136.604 472.354L100.749 451.653L136.604 430.952L136.604 472.354Z" fill="#4041E4"/>
<defs>
<clipPath id="clip0_1391_1729">
<rect width="70.2018" height="90.124" fill="white" transform="translate(538 259.64) rotate(-45)"/>
</clipPath>
<clipPath id="clip1_1391_1729">
<rect x="-12" y="521.51" width="71.432" height="91.7033" transform="rotate(-45 -12 521.51)" fill="white"/>
</clipPath>
<clipPath id="clip2_1391_1729">
<rect x="364" y="529.312" width="54.1811" height="69.557" transform="rotate(-45 364 529.312)" fill="white"/>
</clipPath>
</defs>
</svg>
