<svg width="827" height="878" viewBox="0 0 827 878" fill="none" xmlns="http://www.w3.org/2000/svg">
<mask id="mask0_1415_206" style="mask-type:alpha" maskUnits="userSpaceOnUse" x="0" y="0" width="827" height="878">
<rect width="827" height="878" fill="#D9D9D9"/>
</mask>
<g mask="url(#mask0_1415_206)">
<rect width="55.4116" height="237.182" rx="27.7058" transform="matrix(-0.707107 -0.707107 -0.707107 0.707107 523.891 35.1819)" fill="#4041E4"/>
<rect width="85.8963" height="237.182" rx="42.9481" transform="matrix(-0.707107 -0.707107 -0.707107 0.707107 915.451 44.7378)" fill="#4041E4"/>
<path d="M700.582 -110.057C716.567 -126.042 742.483 -126.042 758.468 -110.057C774.453 -94.0726 774.453 -68.1563 758.468 -52.1717L527.824 178.472C511.839 194.457 485.923 194.457 469.938 178.472C453.954 162.488 453.954 136.571 469.938 120.587L700.582 -110.057Z" fill="#1E756D"/>
<rect x="827.764" y="167.02" width="44.5711" height="582.327" rx="22.2855" transform="rotate(45 827.764 167.02)" fill="#E67823"/>
<rect width="77.6001" height="470.742" rx="38.8" transform="matrix(-0.707107 -0.707107 -0.707107 0.707107 805.732 437.871)" fill="#F5B444"/>
<g clip-path="url(#clip0_1415_206)">
<path d="M798.559 344.434L826.722 372.597C834.498 364.82 834.498 352.21 826.722 344.434C818.945 336.657 806.335 336.657 798.559 344.434Z" fill="#E67823"/>
<path d="M798.559 372.596L821.575 395.613C818.303 396.488 815.208 398.198 812.64 400.765C804.864 408.541 804.864 421.152 812.64 428.928C820.416 436.704 833.027 436.704 840.803 428.928C848.579 421.152 848.579 408.541 840.803 400.765L793.401 353.363C791.629 360.009 793.338 367.388 798.553 372.602L798.559 372.596Z" fill="#1E756D"/>
</g>
<path d="M327.057 375.087L339.077 423.922L290.775 409.914L327.057 375.087Z" fill="#E67823"/>
<path d="M794.795 653.185L842.448 669.263L804.698 702.493L794.795 653.185Z" fill="#E67823"/>
<path d="M435.805 297.62L481.354 318.94L440.115 347.727L435.805 297.62Z" fill="#4041E4"/>
<path d="M654.914 117.382L690.476 152.944L641.897 165.96L654.914 117.382Z" fill="#1E756D"/>
<path d="M648.204 677.971L684.176 693.689L652.578 716.983L648.204 677.971Z" fill="#1E756D"/>
<path d="M637.997 799.5C637.997 827.942 614.94 851 586.497 851C558.054 851 534.997 827.942 534.997 799.5C534.997 771.057 558.054 748 586.497 748C614.94 748 637.997 771.057 637.997 799.5Z" fill="#F5B444"/>
<circle cx="86.5" cy="-30.5002" r="86.5" fill="#F5B444"/>
<circle cx="618.496" cy="258.5" r="71.5" fill="#F5B444"/>
<circle cx="827.5" cy="806.5" r="71.5" fill="#F5B444"/>
<circle cx="352.996" cy="664" r="40" fill="#4041E4"/>
<circle cx="836.5" cy="573.5" r="58.5" fill="#4041E4"/>
<path d="M558.996 169L912.996 -185" stroke="#573531" stroke-width="5" stroke-linecap="round"/>
<path d="M496.997 791L850.997 437" stroke="#573531" stroke-width="5" stroke-linecap="round"/>
<path d="M277.348 93.2386L213.712 139.728L205.269 61.373L277.348 93.2386Z" fill="#F5B444"/>
<path d="M214.917 239.506L236.277 259.531C233.24 260.292 230.367 261.779 227.985 264.013C220.768 270.778 220.768 281.749 227.99 288.519C235.212 295.289 246.909 295.285 254.125 288.519C261.342 281.754 261.342 270.783 254.125 264.018L210.131 222.773C208.486 228.555 210.073 234.975 214.912 239.511L214.917 239.506Z" fill="#4041E4"/>
<path d="M250.193 206.436L271.552 226.46C268.516 227.221 265.643 228.709 263.261 230.942C256.044 237.708 256.044 248.678 263.261 255.444C270.477 262.209 282.179 262.209 289.396 255.444C296.612 248.678 296.612 237.708 289.396 230.942L245.407 189.703C243.762 195.485 245.349 201.904 250.188 206.441L250.193 206.436Z" fill="#E67823"/>
<path d="M237.832 196.804L216.667 216.646L223.204 222.773L239.339 207.646C237.663 204.039 236.756 200.57 237.832 196.804Z" fill="#1E756D"/>
<path d="M314.405 533.857L324.798 543.601C323.321 543.971 321.923 544.695 320.763 545.782C317.252 549.074 317.252 554.413 320.766 557.707C324.28 561.002 329.972 560.999 333.484 557.707C336.995 554.415 336.995 549.077 333.484 545.785L312.076 525.715C311.275 528.528 312.047 531.652 314.402 533.86L314.405 533.857Z" fill="#E67823"/>
<path d="M331.57 517.765L341.964 527.509C340.486 527.879 339.088 528.603 337.929 529.69C334.417 532.982 334.417 538.32 337.929 541.612C341.44 544.904 347.135 544.904 350.646 541.612C354.158 538.32 354.158 532.982 350.646 529.69L329.241 509.623C328.441 512.436 329.213 515.56 331.567 517.767L331.57 517.765Z" fill="#4041E4"/>
<path d="M325.555 513.078L315.256 522.733L318.437 525.715L326.289 518.354C325.473 516.599 325.032 514.911 325.555 513.078Z" fill="#1E756D"/>
<g clip-path="url(#clip1_1415_206)">
<path d="M565.974 360.386L592.093 386.506C599.306 379.294 599.306 367.598 592.093 360.386C584.881 353.174 573.186 353.174 565.974 360.386Z" fill="#F5B444"/>
<path d="M565.974 386.506L587.32 407.852C584.286 408.663 581.415 410.249 579.034 412.63C571.822 419.842 571.822 431.538 579.034 438.75C586.246 445.962 597.941 445.962 605.153 438.75C612.365 431.538 612.365 419.842 605.153 412.63L561.191 368.668C559.547 374.831 561.133 381.675 565.969 386.511L565.974 386.506Z" fill="#4041E4"/>
</g>
</g>
<defs>
<clipPath id="clip0_1415_206">
<rect width="70.2018" height="90.124" fill="white" transform="translate(763 379.64) rotate(-45)"/>
</clipPath>
<clipPath id="clip1_1415_206">
<rect x="532.996" y="393.038" width="65.1077" height="83.5843" transform="rotate(-45 532.996 393.038)" fill="white"/>
</clipPath>
</defs>
</svg>
