<svg width="303" height="566" viewBox="0 0 303 566" fill="none" xmlns="http://www.w3.org/2000/svg">
<mask id="mask0_1415_211" style="mask-type:alpha" maskUnits="userSpaceOnUse" x="0" y="0" width="303" height="566">
<rect width="303" height="566" fill="#D9D9D9"/>
</mask>
<g mask="url(#mask0_1415_211)">
<path d="M99.2859 215.722L88.8985 231.406L80.5096 214.568L99.2859 215.722Z" fill="#E67823"/>
<path d="M297.5 442.243L269.503 461.694L266.656 427.723L297.5 442.243Z" fill="#E67823"/>
<circle cx="22" cy="1.00024" r="22" fill="#F5B444"/>
<rect width="27.7058" height="118.591" rx="13.8529" transform="matrix(-0.707107 -0.707107 -0.707107 0.707107 154.448 -1.40894)" fill="#4041E4"/>
<rect width="55.8175" height="170.881" rx="27.9087" transform="matrix(-0.707107 -0.707107 -0.707107 0.707107 356.3 113.653)" fill="#4041E4"/>
<path d="M214.853 -49.9711C222.049 -57.1666 233.715 -57.1666 240.911 -49.9711C248.106 -42.7756 248.106 -31.1093 240.911 -23.9138L137.086 79.911C129.89 87.1065 118.224 87.1065 111.029 79.911C103.833 72.7154 103.833 61.0492 111.029 53.8537L214.853 -49.9711Z" fill="#1E756D"/>
<rect x="326.547" y="158.846" width="22.2856" height="348.671" rx="11.1428" transform="rotate(45 326.547 158.846)" fill="#E67823"/>
<g clip-path="url(#clip0_1415_211)">
<path d="M116.489 299.693L129.549 312.753C133.155 309.147 133.155 303.299 129.549 299.693C125.943 296.087 120.095 296.087 116.489 299.693Z" fill="#F5B444"/>
<path d="M116.489 312.753L127.162 323.426C125.645 323.832 124.21 324.625 123.019 325.815C119.413 329.421 119.413 335.269 123.019 338.875C126.625 342.481 132.473 342.481 136.079 338.875C139.685 335.269 139.685 329.421 136.079 325.815L114.098 303.834C113.276 306.916 114.069 310.338 116.487 312.756L116.489 312.753Z" fill="#4041E4"/>
</g>
<path d="M103.523 249.018L108.72 253.89C107.981 254.075 107.282 254.437 106.703 254.981C104.947 256.627 104.947 259.296 106.704 260.943C108.461 262.591 111.307 262.589 113.063 260.943C114.818 259.297 114.818 256.628 113.063 254.982L102.359 244.947C101.959 246.354 102.345 247.916 103.522 249.02L103.523 249.018Z" fill="#E67823"/>
<path d="M112.106 240.972L117.303 245.844C116.564 246.029 115.865 246.391 115.285 246.935C113.53 248.581 113.53 251.25 115.285 252.896C117.041 254.542 119.888 254.542 121.644 252.896C123.4 251.25 123.4 248.581 121.644 246.935L110.941 236.901C110.541 238.308 110.927 239.87 112.105 240.973L112.106 240.972Z" fill="#4041E4"/>
<path d="M109.098 238.629L103.949 243.456L105.539 244.947L109.465 241.267C109.057 240.389 108.837 239.545 109.098 238.629Z" fill="#1E756D"/>
<rect width="38.8001" height="223.802" rx="19.4" transform="matrix(-0.707107 -0.707107 -0.707107 0.707107 260.688 317.616)" fill="#F5B444"/>
<g clip-path="url(#clip1_1415_211)">
<path d="M271.677 255.799L288.846 272.968C293.587 268.227 293.587 260.54 288.846 255.799C284.106 251.058 276.418 251.058 271.677 255.799Z" fill="#E67823"/>
<path d="M271.677 272.968L285.709 286.999C283.714 287.533 281.827 288.575 280.262 290.14C275.521 294.881 275.521 302.568 280.262 307.309C285.002 312.049 292.69 312.049 297.431 307.309C302.171 302.568 302.171 294.881 297.431 290.14L268.533 261.243C267.453 265.294 268.495 269.792 271.674 272.971L271.677 272.968Z" fill="#1E756D"/>
</g>
<circle cx="245.5" cy="393.5" r="23.5" fill="#4041E4"/>
<rect width="38.8001" height="223.802" rx="19.4" transform="matrix(-0.707107 -0.707107 -0.707107 0.707107 420.688 -81.5642)" fill="#F5B444"/>
<path d="M102.905 184.31L125.679 194.97L105.06 209.364L102.905 184.31Z" fill="#4041E4"/>
<path d="M200.358 230.757L199.677 266.839L168.769 248.208L200.358 230.757Z" fill="#4041E4"/>
<path d="M135 522.001C135 533.599 125.598 543.001 114 543.001C102.402 543.001 93 533.599 93 522.001C93 510.403 102.402 501.001 114 501.001C125.598 501.001 135 510.403 135 522.001Z" fill="#F5B444"/>
<circle cx="138.75" cy="143.751" r="35.75" fill="#F5B444"/>
<path d="M219.162 84.8664L242.191 107.895L210.733 116.324L219.162 84.8664Z" fill="#1E756D"/>
<path d="M180.76 436.887L200.858 443.379L185.186 457.539L180.76 436.887Z" fill="#1E756D"/>
<circle cx="284.75" cy="529.75" r="35.75" fill="#F5B444"/>
<circle cx="49.5" cy="456.501" r="10.5" fill="#4041E4"/>
<path d="M119 105L296 -72.0001" stroke="#573531" stroke-width="5" stroke-linecap="round"/>
<path d="M102 489.001L279 312.001" stroke="#573531" stroke-width="5" stroke-linecap="round"/>
<path d="M57.4608 114.753L68.1405 124.766C66.6223 125.146 65.1859 125.89 63.9946 127.007C60.3864 130.389 60.3864 135.875 63.9972 139.26C67.6081 142.645 73.4566 142.643 77.0648 139.26C80.673 135.877 80.673 130.392 77.0648 127.009L55.0676 106.387C54.2453 109.278 55.0386 112.488 57.4581 114.756L57.4608 114.753Z" fill="#4041E4"/>
<path d="M75.0987 98.218L85.7784 108.23C84.2603 108.611 82.8238 109.354 81.6325 110.471C78.0243 113.854 78.0243 119.339 81.6325 122.722C85.2407 126.105 91.0919 126.105 94.7001 122.722C98.3083 119.339 98.3083 113.854 94.7001 110.471L72.7055 89.8516C71.8832 92.7425 72.6766 95.9522 75.0961 98.2205L75.0987 98.218Z" fill="#E67823"/>
<path d="M68.9181 93.4023L58.3359 103.323L61.6042 106.387L69.6719 98.8235C68.8338 97.0197 68.3804 95.2852 68.9181 93.4023Z" fill="#1E756D"/>
</g>
<defs>
<clipPath id="clip0_1415_211">
<rect x="100" y="316.019" width="32.5539" height="41.7922" transform="rotate(-45 100 316.019)" fill="white"/>
</clipPath>
<clipPath id="clip1_1415_211">
<rect width="42.7966" height="54.9416" fill="white" transform="translate(250 277.262) rotate(-45)"/>
</clipPath>
</defs>
</svg>
