<svg width="295" height="426" viewBox="0 0 295 426" fill="none" xmlns="http://www.w3.org/2000/svg">
<mask id="mask0_1448_977" style="mask-type:alpha" maskUnits="userSpaceOnUse" x="0" y="0" width="295" height="426">
<rect width="295" height="426" fill="#D9D9D9"/>
</mask>
<g mask="url(#mask0_1448_977)">
<path d="M281.594 107.783C279.729 108.084 275.585 109.107 268.552 110.991C264.98 111.948 260.924 113.058 256.612 114.237C251.647 115.597 246.511 116.996 241.277 118.399C231.681 120.97 217.924 124.568 209.312 126.145C208.36 126.319 207.415 126.566 206.717 126.817C206.413 126.928 206.136 127.072 205.869 127.232C205.869 127.232 205.864 127.233 205.857 127.229C205.843 127.221 205.825 127.22 205.811 127.212C193.303 123.232 180.336 122.492 167.22 124.989C167.395 123.878 167.384 122.922 167.178 122.153L167.04 121.635C167.04 121.635 167.029 121.596 167.025 121.58L166.927 121.215C166.885 121.056 166.837 120.9 166.762 120.75C166.681 120.579 166.581 120.424 166.468 120.285C160.852 107.811 157.804 95.5849 154.851 83.7596C151.773 71.4187 148.588 58.6617 142.508 45.4586C141.361 42.9656 137.911 43.0658 135.035 43.433C133.356 43.6433 131.352 44.0398 129.064 44.5944C128.312 38.7567 124.368 33.5229 117.338 32.5008C116.93 32.3063 116.502 32.1285 116.057 31.9729C128.401 16.1017 122.002 5.2408 110.975 3.36638C96.8774 -2.85918 68.559 9.39992 71.6903 52.993C72.0581 58.1386 72.886 63.1259 74.0584 67.9156C71.8962 69.2023 69.8256 70.4821 67.8942 71.7362C63.8136 74.3906 60.6532 76.7283 58.4955 78.6861C56.3473 80.6357 54.0285 83.1921 55.1757 85.6851C61.2457 98.8733 68.9242 110.017 76.3473 120.796C83.3802 131.014 90.6557 141.569 96.4488 153.768C95.9556 157.554 95.8337 163.38 98.6521 167.53C94.9568 172.648 91.7801 178.392 89.7492 184.684C81.9984 193.618 72.7323 202.175 68.1378 204.57C66.999 205.161 66.0772 205.952 65.4087 206.903C65.3205 207.032 65.2323 207.161 65.151 207.294C55.2748 211.109 53.1795 220.475 52.4676 223.642C51.3922 228.461 51.5707 233.751 53.6924 237.351C54.4533 239.514 55.5196 241.596 56.9115 243.498C56.9647 243.565 57.0178 243.633 57.0765 243.699C59.0614 245.851 60.8654 247.349 62.5732 248.423L61.7604 250.559C56.1325 253.458 48.1352 256.238 37.4303 257.049C27.5547 252.492 22.462 255.295 20.2718 257.437C12.8272 264.723 20.2057 280.068 31.3472 291.465C36.8943 297.14 43.0893 301.613 48.7885 304.062C54.0919 306.341 57.9522 306.441 60.6802 305.739C58.9355 307.341 57.4129 309.772 56.876 313.482C56.6301 314.811 54.0131 330.648 65.8664 349.478C68.2684 353.295 70.4864 355.226 72.6004 356.267C72.9719 356.454 73.3455 356.606 73.7093 356.742C75.1794 357.278 76.6024 357.463 78.0077 357.648C81.3135 358.078 84.9706 358.553 90.7008 364.367L89.0924 365.932C88.6613 366.352 88.4163 366.92 88.4141 367.523C88.4051 368.122 88.6368 368.703 89.0548 369.128L95.4298 375.669C97.5813 377.876 101.112 379.777 104.968 380.1C107.242 380.713 109.571 380.749 111.698 380.179C113.421 379.718 115.01 378.865 116.332 377.605L117.375 376.612C118.137 376.273 118.898 375.865 119.655 375.375C119.672 375.371 119.681 375.363 119.696 375.353C125.676 371.716 131.415 367.728 132.922 363.209C133.471 361.553 133.624 359.811 133.497 358.074C148.938 364.185 165.117 365.094 178.794 364.054C181.577 366.612 185.163 368.13 189.705 367.176L196.007 365.855C196.312 365.791 196.614 365.722 196.909 365.643C197.536 365.475 198.132 365.257 198.706 365.021C201.182 364.34 203.925 363.412 206.968 362.205C210.417 360.837 213.407 358.866 215.73 356.367C220.466 354.765 223.507 353.465 224.266 353.133L224.315 353.12C228.955 351.876 233.98 350.261 239.843 347.369C228.429 368.738 208.823 386.555 188.601 392.389C175.862 396.053 164.641 393.98 157.021 386.544C145.353 375.166 131.224 373.731 123.304 378.198C117.208 381.638 114.658 388.372 116.489 396.207C118.04 402.847 125.141 409.457 135.97 414.343C148.698 420.082 169.489 424.286 189.69 418.873C194.526 417.577 199.103 415.772 203.296 413.514C236.507 395.612 262.233 360.703 268.449 326.257C270.541 323.99 271.668 322.46 271.959 322.043C281.913 310.273 292.089 287.423 285.167 245.015C288.896 242.707 291.927 240.538 294.171 238.598C294.811 238.041 295.088 237.177 294.885 236.355C294.748 235.801 291.468 222.578 284.122 206.043C277.821 191.864 267.303 172.783 252.155 159.478C252.582 158.691 252.696 157.743 252.405 156.833C252.34 156.634 252.249 156.447 252.138 156.273L247.107 148.705C251.608 148.733 255.312 148.161 258.256 147.372C261.451 146.516 264.433 145.238 267.131 143.573C279.33 136.037 285.319 125.411 286.855 117.972C287.538 114.656 287.284 112.485 286.952 111.247C286.316 108.874 284.004 107.377 281.579 107.769L281.594 107.783ZM79.5803 304.697C79.0673 304.484 78.5572 304.282 78.0461 304.097C78.0407 304.098 78.0338 304.095 78.0268 304.091C77.5612 303.923 77.0999 303.772 76.6361 303.633C76.5467 303.604 76.4586 303.581 76.3691 303.553C75.9261 303.426 75.49 303.303 75.0528 303.198C75.0226 303.194 74.9964 303.184 74.9647 303.175C73.9721 302.938 72.9985 302.772 72.0464 302.665C72.0286 302.663 72.0108 302.662 71.993 302.661C70.5416 302.501 69.1435 302.495 67.8234 302.65C67.6867 302.663 67.5445 302.678 67.4093 302.697C67.117 302.74 66.8276 302.794 66.5452 302.852C66.5343 302.855 66.5233 302.858 66.507 302.863C66.0853 302.946 65.6695 303.052 65.2689 303.171C65.2689 303.171 65.258 303.174 65.2526 303.175C65.2417 303.178 65.2253 303.183 65.2144 303.186C67.4248 300.945 70.1958 295.823 65.7127 285.788C66.2166 280.929 67.4055 274.723 70.1393 269.027C70.9099 270.224 71.7983 271.336 72.7959 272.355C79.8784 279.595 90.9112 280.685 99.1767 275.547C99.1403 276.305 99.1063 277.051 99.0789 277.777C99.0559 278.28 99.1998 278.774 99.4902 279.181C100.227 280.229 101.06 281.157 101.99 281.99C94.2778 286.488 85.0597 295.05 84.3814 307.153C82.8042 306.195 81.2047 305.373 79.6065 304.708C79.601 304.709 79.5926 304.7 79.5857 304.696L79.5803 304.697Z" fill="#E67823"/>
<path d="M129.459 253.486C129.459 253.486 113.424 267.423 105.253 270.099C91.9711 274.444 57.6757 256.109 57.6757 256.109L68.0502 225.365C68.0502 225.365 92.4316 232.697 99.2641 233.835C103.075 234.469 122.113 212.985 136.484 229.477C145.734 240.095 129.459 253.486 129.459 253.486Z" fill="#791628"/>
<path d="M105.303 272.445C90.9037 276.303 58.028 258.861 56.6162 258.107C55.64 257.582 55.1785 256.427 55.5337 255.375L65.9082 224.631C66.2999 223.476 67.5267 222.842 68.6902 223.193C68.9312 223.263 92.5413 230.356 99.427 231.562C100.168 231.34 102.101 230.071 103.672 229.04C111.551 223.878 126.219 214.262 138.177 227.985C140.702 230.888 141.834 234.217 141.532 237.889C140.8 246.845 131.584 254.654 130.909 255.21C129.985 256.015 114.38 269.485 105.946 272.249C105.731 272.319 105.514 272.382 105.291 272.442L105.303 272.445ZM60.4341 254.995C70.9126 260.384 94.9631 271.061 104.547 267.942C112.196 265.435 127.821 251.907 127.978 251.771C127.991 251.756 128.006 251.746 128.025 251.729C128.164 251.616 136.467 244.656 137.04 237.502C137.235 235.068 136.498 232.93 134.786 230.965C126.137 221.043 115.898 226.45 106.15 232.835C102.67 235.117 100.751 236.371 98.899 236.069C93.1133 235.108 75.5901 229.969 69.4893 228.16L60.4301 255.002L60.4341 254.995Z" fill="#3A1919"/>
<path d="M43.631 245.456C51.1165 253.59 55.2158 251.441 64.1926 254.17C74.4486 257.289 75.6736 254.162 78.5605 247.685C80.8866 242.474 82.8497 235.799 81.5896 224.161C81.6895 221.458 71.7029 218.319 61.8665 215.457C55.0339 213.468 49.8281 214.388 46.2959 216.93C38.6918 222.77 36.8927 236.208 43.6296 245.451L43.631 245.456Z" fill="#FFE14D"/>
<path d="M48.4322 249.286C54.2023 254.529 57.7289 251.988 64.1924 254.17C71.5749 256.663 72.3325 255.216 73.9355 251.624C77.3706 248.784 78.8533 245.594 80.4798 237.859C80.3738 236.286 66.3246 235.28 59.2535 232.968C54.3396 231.356 50.7575 231.553 48.4515 232.805C43.5043 235.715 43.1213 243.445 48.4322 249.286Z" fill="#EA911B"/>
<path d="M73.3245 257.326C71.0455 257.937 67.9745 257.686 63.5406 256.34C61.0344 255.579 58.9573 255.221 56.9543 254.877C52.0363 254.036 47.7844 253.303 41.9735 246.992C41.9148 246.926 41.8615 246.858 41.8083 246.79C34.5293 236.788 35.9824 221.994 44.9256 215.132C44.9445 215.116 44.9648 215.104 44.9852 215.093C48.1008 212.85 53.6659 210.719 62.4946 213.288C77.4262 217.631 83.7855 220.122 83.8513 224.053C85.166 236.375 82.9596 243.385 80.6216 248.618L80.4963 248.892C78.563 253.235 76.9285 256.361 73.3245 257.326ZM45.3788 244.02C50.0902 249.106 53.1275 249.624 57.7035 250.411C59.749 250.76 62.0652 251.161 64.8385 252.002C68.9475 253.248 71.508 253.448 72.8999 252.623C74.2268 251.839 75.1251 249.826 76.3697 247.034L76.4934 246.755C78.5849 242.064 80.5572 235.75 79.343 224.458C77.6109 222.399 65.3226 218.826 61.2337 217.634C55.6375 216.006 50.9371 216.391 47.6359 218.748C40.7416 224.075 39.673 236.073 45.3704 244.011L45.3788 244.02Z" fill="#3A1919"/>
<path d="M90.9496 224.43L64.1543 214.139L47.8203 257.162L74.6156 267.453L90.9496 224.43Z" fill="#A31E36"/>
<path d="M64.171 214.136L59.2257 227.173C59.8542 229.474 61.1065 231.662 63.3294 233.437C68.8404 237.822 77.5874 241.263 83.7928 243.332L90.9702 224.429L64.1779 214.14L64.171 214.136Z" fill="#791628"/>
<path d="M82.2371 221.085L72.8604 217.483L56.5263 260.506L65.9031 264.107L82.2371 221.085Z" fill="#FFEC64"/>
<path d="M72.8753 217.483L66.084 235.386L56.5464 260.508L65.9262 264.109L75.0661 240.032L82.2551 221.084L72.8753 217.483Z" fill="#FFEC64"/>
<path d="M72.8755 217.483L66.0788 235.387C68.7955 237.13 71.9363 238.688 75.0609 240.033L82.2554 221.084L72.8755 217.483Z" fill="#DDC84B"/>
<path d="M75.216 269.64C74.7743 269.759 74.2906 269.742 73.8286 269.566L47.0363 259.277C46.4765 259.064 46.0223 258.634 45.7811 258.082C45.5398 257.531 45.5192 256.909 45.7311 256.347L62.0654 213.321C62.5117 212.151 63.8161 211.567 64.9827 212.017L91.775 222.306C92.3349 222.52 92.789 222.95 93.0303 223.501C93.2715 224.052 93.2922 224.675 93.0803 225.236L76.7459 268.262C76.4791 268.967 75.8975 269.458 75.2214 269.639L75.216 269.64ZM50.7473 255.854L73.3185 264.522L88.0408 225.73L65.4696 217.062L50.7418 255.855L50.7473 255.854Z" fill="#3A1919"/>
<path d="M82.2671 178.882L77.6029 187.777C69.3274 197.61 59.2017 207.059 54.0507 209.754C53.2296 210.179 52.5835 210.734 52.1227 211.391C51.1782 212.73 51.0726 214.495 51.8511 215.917C52.2079 216.573 52.7339 217.118 53.3695 217.505C54.1343 218.004 54.8458 218.348 55.6644 218.633C61.9387 220.807 72.7131 218.031 85.7342 210.511L89.2006 208.509C84.4514 200.446 78.8004 191.962 82.2725 178.88L82.2671 178.882Z" fill="#FF9739"/>
<path d="M80.6159 180.31L75.9517 189.205C71.9401 193.97 67.3947 198.838 63.2875 202.702C67.0988 213.087 63.0329 219.352 63.0329 219.352C67.6567 217.896 78.4135 215.207 84.0706 211.937L87.537 209.934C82.7878 201.872 77.1368 193.388 80.609 180.306L80.6159 180.31Z" fill="#E26917"/>
<path d="M68.8033 220.387C63.2528 221.874 58.5319 222.03 54.9172 220.775C53.9181 220.427 53.0435 219.998 52.1527 219.421C51.1945 218.833 50.403 217.995 49.8636 217.007C48.6717 214.827 48.8316 212.108 50.2677 210.075C50.9356 209.121 51.8529 208.336 52.9954 207.736C57.8086 205.22 67.7561 195.913 75.7102 186.494L80.2632 177.816C80.7956 176.794 82.0134 176.344 83.085 176.767C84.1567 177.19 84.743 178.353 84.4451 179.465C81.3949 190.938 85.965 198.638 90.3786 206.081L91.1354 207.356C91.4446 207.878 91.5296 208.501 91.3771 209.087C91.2245 209.674 90.843 210.169 90.3225 210.473L86.8561 212.475C80.2364 216.297 74.1411 218.957 68.8087 220.386L68.8033 220.387ZM79.0558 189.558C70.5353 199.633 60.5002 208.941 55.0858 211.764C54.5932 212.02 54.2113 212.339 53.9575 212.7C53.5086 213.337 53.4562 214.167 53.8159 214.833C53.9843 215.134 54.2285 215.391 54.5221 215.571C54.5428 215.583 54.5636 215.595 54.5789 215.609C55.1748 216 55.7191 216.265 56.3819 216.493C62.032 218.452 72.5783 215.48 84.5826 208.549L86.0712 207.692C82.9762 202.466 79.7368 196.745 79.0503 189.56L79.0558 189.558Z" fill="#3A1919"/>
<path d="M252.668 313.737C247.008 320.399 241.146 325.672 235.38 329.887L235.169 330.759C227.755 361.496 201.587 390.611 174.301 398.48C160.698 402.389 148.722 400.07 140.509 392.033C129.613 381.38 116.646 379.92 109.465 383.98C104.214 386.954 102.134 392.628 103.75 399.553C105.146 405.527 111.793 411.597 121.977 416.214C135.872 422.513 155.932 425.581 174.203 420.685C178.723 419.474 183.141 417.774 187.322 415.516C222.821 396.34 249.588 357.354 252.409 320.707L252.719 313.664C252.719 313.664 252.679 313.71 252.661 313.733L252.668 313.737Z" fill="#FF9739"/>
<path d="M249.12 317.703C243.861 352.381 218.191 387.981 184.779 406.028C180.598 408.287 176.18 409.987 171.66 411.198C153.389 416.094 133.329 413.026 119.434 406.727C111.804 403.268 106.165 398.993 103.224 394.559C103.166 396.13 103.339 397.803 103.751 399.558C105.147 405.533 111.794 411.603 121.978 416.22C135.873 422.518 155.933 425.587 174.204 420.691C178.724 419.48 183.142 417.78 187.323 415.521C222.822 396.345 249.584 357.361 252.41 320.712L252.72 313.67C252.72 313.67 252.68 313.716 252.662 313.738C251.49 315.12 250.307 316.441 249.12 317.703Z" fill="#E26917"/>
<path d="M174.79 422.881C154.589 428.294 133.784 424.058 121.053 418.286C110.217 413.374 103.109 406.736 101.551 400.071C99.7128 392.208 102.253 385.461 108.352 382.008C116.269 377.533 130.397 378.987 142.084 390.413C149.711 397.875 160.938 399.972 173.677 396.306C200.24 388.642 225.733 360.231 232.974 330.226L233.185 329.354C233.309 328.834 233.618 328.376 234.048 328.061C240.16 323.589 245.848 318.275 250.947 312.267C251.565 311.521 252.609 311.229 253.515 311.579C254.421 311.929 255.023 312.801 254.98 313.774L254.67 320.816C254.67 320.816 254.665 320.865 254.665 320.888C251.783 358.262 224.539 397.998 188.4 417.515C184.208 419.776 179.632 421.583 174.796 422.879L174.79 422.881ZM113.67 384.714C112.541 385.016 111.502 385.435 110.573 385.96C106.199 388.434 104.557 393.081 105.951 399.045C107.169 404.246 113.504 409.894 122.904 414.159C134.929 419.608 154.561 423.607 173.617 418.501C178.115 417.296 182.365 415.623 186.25 413.526C221.096 394.701 247.372 356.481 250.157 320.571L250.187 319.876C246.189 324.063 241.896 327.865 237.38 331.229L237.365 331.303C229.778 362.767 202.933 392.586 174.932 400.663C160.565 404.795 147.778 402.307 138.938 393.656C130.3 385.21 120.398 382.911 113.675 384.712L113.67 384.714Z" fill="#3A1919"/>
<path d="M254.614 322.222C264.538 310.492 274.672 287.31 266.752 243.402C261.862 216.278 250.731 187.124 238.404 169.122C234.806 163.873 230.951 158.95 226.739 154.593C210.008 137.278 195.405 132.46 195.393 132.457C194.558 132.112 193.721 131.779 192.87 131.461C191.724 131.023 190.565 130.6 189.38 130.213C189.38 130.213 189.38 130.213 189.375 130.215C189.375 130.215 189.375 130.215 189.369 130.216C176.082 125.967 162.265 125.48 148.298 128.771C147.149 129.043 145.993 129.329 144.859 129.633C111.867 138.474 81.539 161.662 75.0279 190.467C69.8498 213.365 85.7751 215.136 87.2944 216.16C94.5391 219.84 92.2507 282.878 92.2507 282.878C83.1973 286.471 69.146 297.365 71.1795 313.068C71.2051 313.272 72.6846 316.067 73.3441 317.264C73.378 317.325 73.408 317.393 73.4474 317.453C73.6384 317.795 73.8294 318.137 74.0203 318.479C69.8655 316.887 65.7604 316.55 62.0964 317.532C57.9254 318.649 54.5572 321.476 52.8595 325.281C50.9037 329.672 51.2462 334.92 53.822 340.062C59.9333 352.248 88.2822 370.44 104.692 370.027C106.062 369.994 107.292 369.829 108.35 369.546C110.885 368.866 112.516 367.473 113.194 365.402C114.379 361.775 112.387 356.87 110.489 353.67C153.515 377.088 207.976 352.626 207.976 352.626L208.194 352.568C216.138 350.439 224.995 347.268 237.278 338.455C249.56 329.637 254.624 322.237 254.624 322.237L254.614 322.222Z" fill="#FFE14D"/>
<path d="M236.645 171.477C233.047 166.228 229.192 161.305 224.979 156.948C211.839 143.347 200.011 137.457 195.534 135.559C200.008 138.778 205.091 143.002 210.387 148.483C214.599 152.841 218.453 157.758 222.052 163.013C234.385 181.013 250.207 212.431 255.096 239.554C263.016 283.463 252.884 306.65 242.959 318.374C242.959 318.374 237.896 325.78 225.613 334.593C213.331 343.411 196.316 348.762 196.316 348.762C196.316 348.762 137.158 370.957 94.1326 347.544C96.0287 350.738 98.0225 355.649 96.8379 359.276C96.1652 361.346 94.5342 362.739 91.9934 363.42C90.9356 363.703 89.7045 363.863 88.3356 363.901C82.5956 364.049 75.3961 361.911 68.1969 358.554C79.2101 366.288 93.1771 372.614 102.928 372.366C104.299 372.333 105.528 372.168 106.586 371.884C109.121 371.205 110.752 369.811 111.43 367.74C112.615 364.114 110.623 359.208 108.725 356.009C151.752 379.427 206.212 354.965 206.212 354.965L206.43 354.906C214.374 352.778 223.231 349.607 235.514 340.794C247.796 331.976 252.861 324.575 252.861 324.575C262.784 312.845 272.918 289.664 265.003 245.754C260.114 218.63 248.983 189.476 236.65 171.476L236.645 171.477Z" fill="#EA911B"/>
<path d="M251.333 190.395C246.304 183.687 240.543 177.456 234 172.379C175.227 201.904 132.438 227.745 132.438 227.745C113.424 232.177 89.9294 237.293 89.9294 237.293C90.17 238.191 90.0673 243.739 89.8094 250.955C89.8352 251.793 89.8546 252.651 89.8798 253.53C90.1888 266.678 92.6545 278.803 92.5474 283.027C92.0475 283.255 91.5301 283.505 91.0008 283.776C91.0652 283.776 82.1726 292.026 82.1726 292.026C89.3852 297.135 106.203 301.166 152.084 295.59C204.406 287.139 248.898 271.38 270.622 257.955C270.167 253.969 269.562 249.79 268.767 245.408C265.381 226.618 259.021 206.853 251.329 190.402L251.333 190.395Z" fill="#EA911B"/>
<path d="M189.655 135.098C189.655 135.098 215.92 155.696 179.15 181.473L226.74 154.598C226.74 154.598 217.357 139.644 189.649 135.099L189.655 135.098Z" fill="#EA911B"/>
<path d="M191.04 363.137C186.695 364.302 181.734 365.437 176.325 366.341C160.096 369.064 136.973 370.073 115.661 360.628C116.389 363.062 116.732 365.804 115.919 368.286C115.28 370.241 113.652 372.802 109.519 373.909C108.286 374.239 106.882 374.428 105.338 374.466C87.9122 374.905 58.9042 356.238 52.3912 343.25C49.4961 337.484 49.1386 331.548 51.3803 326.523C53.36 322.09 57.2611 318.81 62.0973 317.514C64.6272 316.836 67.3518 316.71 70.1532 317.133C69.5862 315.977 69.5489 315.728 69.5248 315.529C67.3345 298.631 81.6448 287.591 90.6146 283.533C90.7216 279.309 90.9835 266.46 90.673 253.306C89.9665 223.189 86.9189 219.623 86.506 219.282C86.4853 219.27 86.466 219.263 86.4452 219.251C86.2964 219.197 85.9411 219.093 85.6507 219.012C81.3956 217.788 68.4512 214.057 73.4071 192.14C77.3623 174.645 90.4873 160.948 100.804 152.539C113.716 142.015 129.773 133.658 144.849 129.619C146.005 129.309 147.176 129.013 148.348 128.74C148.348 128.74 148.353 128.738 148.359 128.737C162.727 125.35 176.951 125.852 190.635 130.229C190.647 130.232 190.667 130.238 190.681 130.246C191.769 130.6 192.907 131.011 194.261 131.528C195.009 131.809 195.813 132.128 196.772 132.522C198.055 132.97 212.598 138.286 228.948 155.204C232.998 159.393 236.892 164.241 240.855 170.026C253.352 188.27 264.624 217.774 269.568 245.188C277.63 289.892 267.201 313.692 256.998 325.796C256.303 326.78 251.005 333.985 239.179 342.476C226.54 351.554 217.379 354.789 209.37 356.935L209.321 356.948C208.123 357.474 201.29 360.391 191.045 363.136L191.04 363.137ZM110.486 353.659C111.031 353.513 111.625 353.571 112.147 353.86C133.772 365.627 158.512 364.724 175.461 361.896C193.976 358.807 207.502 352.8 207.638 352.74C207.748 352.693 207.86 352.652 207.974 352.621L208.192 352.562C215.793 350.526 224.488 347.451 236.544 338.793C248.297 330.357 253.298 323.197 253.343 323.126C253.384 323.062 253.432 323.002 253.481 322.942C263.077 311.605 272.888 289.05 265.118 245.987C260.278 219.155 249.298 190.348 237.13 172.591C233.312 167.019 229.575 162.364 225.709 158.36C209.707 141.8 195.854 136.993 195.27 136.797C195.212 136.777 195.147 136.754 195.088 136.729C194.182 136.355 193.404 136.047 192.67 135.775C191.368 135.278 190.295 134.891 189.277 134.56C189.264 134.557 189.257 134.553 189.245 134.551C176.361 130.434 162.953 129.966 149.397 133.158C148.271 133.425 147.138 133.711 146.02 134.01C117.324 141.699 83.9607 165.924 77.8065 193.161C73.7994 210.899 82.9676 213.535 86.8868 214.662C87.666 214.887 88.2043 215.042 88.6708 215.322C90.4048 216.254 92.3386 218.717 93.6731 229.149C94.4221 234.998 94.9206 242.856 95.1634 252.508C95.5733 268.868 95.0873 284.981 95.0833 285.141C95.0569 286.045 94.4986 286.84 93.6595 287.177C84.8293 290.687 72.3665 300.88 73.9579 314.67C74.2849 315.345 75.2955 317.263 75.8984 318.357L75.9722 318.502C76.1789 318.881 76.3669 319.212 76.555 319.543C77.0285 320.372 76.9333 321.413 76.3163 322.141C75.6992 322.87 74.6862 323.124 73.7954 322.787C70.0778 321.366 66.4321 321.064 63.2643 321.913C59.7476 322.855 56.9217 325.22 55.5005 328.4C53.8237 332.152 54.1513 336.712 56.4216 341.237C62.1438 352.648 89.7977 370.339 105.215 369.952C106.405 369.92 107.461 369.784 108.344 369.547C110.716 368.912 111.349 367.721 111.628 366.884C112.507 364.19 110.911 360.023 109.129 357.015C108.608 356.14 108.735 355.02 109.438 354.286C109.73 353.979 110.095 353.77 110.482 353.666L110.486 353.659ZM86.5352 219.303C86.5352 219.303 86.5352 219.303 86.5406 219.302C86.5406 219.302 86.5406 219.302 86.5352 219.303ZM86.3054 219.165C86.3054 219.165 86.3622 219.203 86.3968 219.223C86.3677 219.202 86.3345 219.187 86.3054 219.165Z" fill="#3A1919"/>
<path d="M231.893 161.332C173.121 190.857 130.332 216.698 130.332 216.698C111.317 221.13 87.8229 226.246 87.8229 226.246C88.593 229.12 86.2764 281.322 86.2764 281.322C91.8333 289.215 104.138 291.715 150.018 286.134C211.358 276.223 261.881 254.077 277.652 240.376C277.652 240.376 264.469 186.618 231.893 161.332Z" fill="#A31E36"/>
<path fill-rule="evenodd" clip-rule="evenodd" d="M207.229 225.308C194.737 234.059 130.123 239.754 130.123 239.754L131.358 247.526L142.428 249.823C142.928 249.924 143.327 250.298 143.469 250.788C143.903 252.233 145.082 255.214 147.51 255.878C154.603 257.815 193.582 250.187 212.306 238.892C230.936 227.657 236.892 209.691 233.155 205.91C230.238 202.96 218.409 217.483 207.23 225.313L207.229 225.308Z" fill="#791628"/>
<path d="M193.096 279.233C179.83 282.787 165.498 285.935 150.38 288.378C150.353 288.386 150.324 288.388 150.295 288.389C127.374 291.175 112.733 291.994 102.817 291.037C93.4479 290.138 87.9523 287.621 84.4355 282.631C84.1448 282.222 83.9989 281.721 84.0229 281.222C84.8887 261.662 86.0918 229.644 85.6272 226.776C85.4895 226.196 85.5813 225.579 85.894 225.067C86.2148 224.541 86.7449 224.164 87.3411 224.034C87.573 223.984 110.752 218.934 129.476 214.574C133.459 212.187 175.294 187.236 230.883 159.309C231.661 158.919 232.591 159.01 233.277 159.542C250.482 172.892 262.231 194.036 269.058 209.416C276.427 226.012 279.714 239.284 279.851 239.839C280.055 240.665 279.78 241.537 279.139 242.09C267.715 252.016 235.955 267.743 193.1 279.226L193.096 279.233ZM149.699 283.896C211.294 273.934 259.342 252.346 275.102 239.563C272.827 231.225 259.584 186.601 231.623 164.01C174.251 192.896 131.919 218.391 131.496 218.645C131.296 218.769 131.073 218.853 130.842 218.908C115.122 222.569 96.1327 226.748 90.1763 228.05C90.4091 237.294 89.0764 268.96 88.5591 280.617C93.594 286.954 105.486 289.265 149.692 283.892L149.699 283.896ZM85.6331 226.798C85.6331 226.798 85.6404 226.825 85.6433 226.836C85.6404 226.825 85.636 226.808 85.6331 226.798Z" fill="#3A1919"/>
<path d="M82.6851 221.597L86.7632 231.277C86.965 231.768 87.4781 232.048 87.9983 231.961L124.835 225.06C124.835 225.06 124.823 224.951 124.794 224.754C123.885 218.525 118.002 214.281 111.817 215.317L83.5436 220.047C82.8281 220.168 82.4115 220.925 82.6905 221.595L82.6851 221.597Z" fill="#2E3499"/>
<path d="M125.416 227.251C125.362 227.265 125.307 227.28 125.251 227.289L88.4145 234.19C86.8046 234.463 85.2857 233.615 84.6747 232.141L80.6065 222.476C80.6065 222.476 80.6035 222.465 80.6021 222.46C80.2043 221.498 80.2659 220.42 80.7647 219.512C81.269 218.602 82.1427 217.981 83.1669 217.812L111.44 213.082C115.058 212.476 118.685 213.341 121.651 215.509C124.588 217.662 126.5 220.828 127.026 224.425C127.066 224.684 127.077 224.834 127.077 224.834C127.182 225.944 126.474 226.967 125.416 227.251ZM88.4897 229.564L122.094 223.271C121.495 221.647 120.425 220.227 118.992 219.173C117.014 217.726 114.599 217.152 112.189 217.558L85.3253 222.051L88.4912 229.57L88.4897 229.564ZM88.8331 230.387L88.8375 230.404C88.8375 230.404 88.8345 230.393 88.8331 230.387Z" fill="#3A1919"/>
<path d="M229.675 152.468L235.137 160.704C235.295 161.207 235.091 161.755 234.637 162.023L124.835 225.059C124.835 225.059 120.884 213.327 128.637 208.104L228.027 151.836C228.652 151.463 229.46 151.775 229.681 152.467L229.675 152.468Z" fill="#2E3499"/>
<path d="M192.691 171.836C192.691 171.836 196.928 174.128 197.03 182.186L235.13 160.699L229.668 152.464L192.689 171.831L192.691 171.836Z" fill="#1E2672"/>
<path d="M125.416 227.251C124.963 227.372 124.478 227.349 124.03 227.182C123.398 226.94 122.904 226.427 122.692 225.786C122.511 225.242 118.295 212.342 127.373 206.225C127.423 206.194 127.473 206.163 127.523 206.132L226.914 149.863C227.765 149.354 228.835 149.267 229.804 149.635C230.651 149.959 231.318 150.596 231.687 151.407L237.021 159.448C237.138 159.622 237.229 159.809 237.288 160.01C237.778 161.533 237.157 163.161 235.791 163.973L125.964 227.028C125.792 227.126 125.612 227.198 125.427 227.248L125.416 227.251ZM129.825 210.033C125.726 212.857 125.822 218.276 126.343 221.575L232.414 160.682L228.206 154.335L129.825 210.033ZM229.175 153.787L229.135 153.81C229.135 153.81 229.161 153.797 229.175 153.787Z" fill="#3A1919"/>
<path d="M140.049 287.186L140.006 287.198C138.964 287.453 137.909 286.809 137.652 285.763L122.936 225.521C122.682 224.486 123.303 223.446 124.317 223.174L124.361 223.162C125.403 222.906 126.458 223.551 126.715 224.597L141.431 284.838C141.685 285.873 141.064 286.914 140.049 287.186Z" fill="#3A1919"/>
<path d="M133.804 250.375C127.686 252.014 121.878 252.866 116.56 252.889C115.528 252.896 114.69 252.058 114.681 251.022C114.672 249.986 115.503 249.141 116.537 249.14C123.344 249.112 134.686 247.563 150.061 240.345C150.996 239.907 152.11 240.312 152.548 241.251C152.987 242.19 152.585 243.307 151.65 243.745C145.53 246.617 139.528 248.841 133.804 250.375Z" fill="#FFEC64"/>
<path d="M114.203 256.196C116.85 255.486 118.418 252.757 117.706 250.099C116.994 247.442 114.271 245.862 111.624 246.572C108.978 247.281 107.409 250.01 108.121 252.668C108.833 255.325 111.556 256.905 114.203 256.196Z" fill="#FFEC64"/>
<path d="M114.57 257.564C114.57 257.564 114.521 257.578 114.493 257.585C112.846 258.003 111.133 257.758 109.666 256.884C108.198 256.009 107.16 254.621 106.739 252.962C106.319 251.308 106.56 249.589 107.428 248.119C108.296 246.648 109.68 245.62 111.33 245.19C112.977 244.772 114.691 245.017 116.158 245.891C117.625 246.765 118.663 248.153 119.084 249.812C119.953 253.206 117.928 256.664 114.564 257.566L114.57 257.564ZM111.991 247.94C111.091 248.181 110.333 248.754 109.86 249.562C109.377 250.377 109.242 251.335 109.478 252.257C109.713 253.18 110.296 253.957 111.11 254.443C111.924 254.929 112.879 255.072 113.797 254.832C115.684 254.373 116.839 252.403 116.353 250.503C116.118 249.58 115.536 248.804 114.722 248.318C113.908 247.832 112.952 247.689 112.035 247.929C112.018 247.933 112.007 247.936 111.991 247.94Z" fill="#C6B44B"/>
<path d="M155.597 245.843C158.244 245.134 159.812 242.405 159.1 239.747C158.388 237.09 155.665 235.51 153.018 236.219C150.371 236.928 148.803 239.658 149.515 242.315C150.227 244.973 152.95 246.553 155.597 245.843Z" fill="#FFEC64"/>
<path d="M155.964 247.212C155.964 247.212 155.915 247.225 155.888 247.232C154.241 247.65 152.527 247.405 151.06 246.531C149.592 245.657 148.554 244.269 148.133 242.61C147.712 240.95 147.952 239.231 148.822 237.766C149.69 236.295 151.08 235.266 152.724 234.837C156.126 233.967 159.61 236.043 160.478 239.46C160.9 241.119 160.659 242.838 159.789 244.303C158.937 245.746 157.578 246.78 155.964 247.212ZM153.385 237.588C152.485 237.829 151.727 238.402 151.254 239.209C150.771 240.025 150.638 240.988 150.872 241.905C151.359 243.81 153.298 244.963 155.191 244.479C156.099 244.271 156.883 243.662 157.365 242.846C157.848 242.031 157.983 241.073 157.748 240.151C157.26 238.245 155.321 237.093 153.429 237.576C153.412 237.581 153.401 237.583 153.385 237.588Z" fill="#C6B44B"/>
<path d="M126.638 232.463C121.6 233.813 116.782 234.588 112.298 234.756C111.268 234.792 110.397 233.987 110.36 232.952C110.317 231.919 111.123 231.046 112.154 231.011C118.946 230.757 130.215 228.823 145.356 221.081C146.271 220.613 147.398 220.98 147.872 221.898C148.341 222.822 147.977 223.947 147.063 224.42C140.038 228.016 133.154 230.717 126.643 232.462L126.638 232.463Z" fill="#FFEC64"/>
<path d="M109.909 238.207C112.556 237.498 114.125 234.768 113.413 232.111C112.701 229.453 109.978 227.873 107.331 228.583C104.684 229.292 103.115 232.021 103.827 234.679C104.54 237.336 107.263 238.916 109.909 238.207Z" fill="#FFEC64"/>
<path d="M110.276 239.576C108.673 240.005 106.998 239.797 105.543 238.99C104.054 238.162 102.969 236.798 102.5 235.158C102.026 233.519 102.223 231.788 103.044 230.295C103.865 228.801 105.217 227.718 106.856 227.249C108.504 226.79 110.214 226.977 111.703 227.804C113.193 228.631 114.277 229.996 114.746 231.636C115.215 233.277 115.024 235.006 114.203 236.499C113.381 237.992 112.03 239.076 110.391 239.545C110.352 239.555 110.314 239.565 110.276 239.576ZM107.703 229.95C107.703 229.95 107.659 229.962 107.637 229.968C106.726 230.229 105.969 230.831 105.514 231.663C105.054 232.496 104.949 233.457 105.212 234.373C105.475 235.288 106.076 236.048 106.906 236.506C107.737 236.97 108.676 237.071 109.607 236.815C110.518 236.553 111.274 235.952 111.729 235.12C112.19 234.287 112.295 233.326 112.032 232.41C111.769 231.495 111.168 230.735 110.338 230.277C109.527 229.825 108.597 229.71 107.703 229.95Z" fill="#C6B44B"/>
<path d="M150.909 226.406C153.556 225.697 155.124 222.968 154.412 220.31C153.7 217.653 150.977 216.073 148.33 216.782C145.683 217.491 144.115 220.221 144.827 222.878C145.539 225.536 148.262 227.116 150.909 226.406Z" fill="#FFEC64"/>
<path d="M151.275 227.775C147.933 228.67 144.462 226.708 143.5 223.357C143.025 221.718 143.222 219.987 144.043 218.494C144.864 217.001 146.216 215.917 147.855 215.448C147.894 215.438 147.932 215.428 147.97 215.417C151.312 214.522 154.783 216.484 155.745 219.835C156.718 223.224 154.77 226.774 151.39 227.744C151.352 227.754 151.313 227.764 151.275 227.775ZM148.696 218.151C148.696 218.151 148.653 218.162 148.631 218.168C147.719 218.43 146.963 219.032 146.508 219.864C146.048 220.697 145.943 221.658 146.206 222.573C146.747 224.464 148.728 225.553 150.6 225.016C152.483 224.476 153.566 222.496 153.026 220.611C152.49 218.742 150.556 217.652 148.691 218.152L148.696 218.151Z" fill="#C6B44B"/>
<path d="M137.947 269.155C131.83 270.795 126.022 271.647 120.704 271.669C119.671 271.676 118.833 270.839 118.825 269.803C118.816 268.766 119.647 267.922 120.681 267.92C127.487 267.892 138.83 266.343 154.205 259.125C155.138 258.682 156.254 259.093 156.692 260.031C157.131 260.97 156.729 262.087 155.794 262.525C149.674 265.397 143.672 267.622 137.947 269.155Z" fill="#FFEC64"/>
<path d="M118.347 274.976C120.994 274.267 122.562 271.538 121.85 268.88C121.138 266.223 118.415 264.643 115.768 265.352C113.121 266.062 111.553 268.791 112.265 271.449C112.977 274.106 115.7 275.686 118.347 274.976Z" fill="#FFEC64"/>
<path d="M118.712 276.34C118.712 276.34 118.663 276.353 118.636 276.36C116.989 276.778 115.275 276.533 113.808 275.659C112.34 274.785 111.302 273.397 110.881 271.737C110.461 270.084 110.702 268.365 111.57 266.894C112.438 265.423 113.809 264.387 115.472 263.965C118.875 263.1 122.358 265.171 123.227 268.588C124.095 271.981 122.071 275.44 118.707 276.341L118.712 276.34ZM116.133 266.716C115.234 266.957 114.475 267.53 114.002 268.337C113.52 269.153 113.385 270.11 113.62 271.033C113.856 271.956 114.438 272.732 115.252 273.218C116.066 273.705 117.021 273.847 117.939 273.607C119.843 273.144 120.981 271.179 120.496 269.279C120.008 267.373 118.069 266.221 116.177 266.704C116.16 266.709 116.15 266.711 116.133 266.716Z" fill="#C6B44B"/>
<path d="M159.74 264.624C162.387 263.915 163.955 261.186 163.243 258.528C162.531 255.871 159.808 254.291 157.161 255C154.514 255.709 152.946 258.439 153.658 261.096C154.37 263.754 157.093 265.334 159.74 264.624Z" fill="#FFEC64"/>
<path d="M160.107 265.993C160.107 265.993 160.058 266.006 160.03 266.013C158.383 266.431 156.67 266.186 155.202 265.312C153.735 264.438 152.697 263.05 152.276 261.39C151.856 259.737 152.097 258.018 152.965 256.547C153.817 255.104 155.177 254.071 156.79 253.639C156.818 253.631 156.84 253.625 156.867 253.618C158.514 253.2 160.227 253.445 161.695 254.319C163.162 255.194 164.2 256.582 164.621 258.241C165.49 261.634 163.465 265.093 160.101 265.994L160.107 265.993ZM157.528 256.369C156.628 256.61 155.87 257.183 155.397 257.99C154.914 258.806 154.779 259.763 155.015 260.686C155.25 261.609 155.832 262.386 156.646 262.872C157.46 263.358 158.416 263.5 159.334 263.26C161.235 262.768 162.376 260.832 161.89 258.932C161.655 258.009 161.073 257.232 160.259 256.746C159.445 256.26 158.489 256.117 157.571 256.357C157.555 256.362 157.544 256.364 157.528 256.369Z" fill="#C6B44B"/>
<path d="M106.387 178.262C103.302 182.21 105.433 185.495 109.896 184.879C114.365 184.263 114.774 184.458 117.957 180.396C121.404 175.987 120.49 170.417 115.777 172.261C111.065 174.105 108.111 176.058 106.387 178.262Z" fill="#3A1919"/>
<path d="M92.0726 189.656C94.7556 188.937 96.3455 186.17 95.6236 183.476C94.9018 180.782 92.1416 179.181 89.4586 179.9C86.7756 180.619 85.1857 183.386 85.9076 186.08C86.6294 188.773 89.3896 190.374 92.0726 189.656Z" fill="#3A1919"/>
<path d="M144.61 161.05C147.293 160.331 148.883 157.565 148.161 154.871C147.44 152.177 144.679 150.576 141.996 151.295C139.313 152.014 137.724 154.78 138.445 157.474C139.167 160.168 141.927 161.769 144.61 161.05Z" fill="#3A1919"/>
<path d="M90.4749 218.412C89.27 218.735 88.0314 218.016 87.7072 216.806C87.3831 215.597 88.0964 214.355 89.3014 214.032C94.6338 212.604 109.581 201.739 112.288 190.664C112.436 190.061 112.819 189.547 113.356 189.239C113.892 188.931 114.528 188.861 115.124 189.035C121.37 190.906 127.715 190.925 134.525 189.1C141.335 187.275 147.798 183.783 153.792 180.047C153.816 180.029 153.842 180.016 153.866 179.998C154.793 179.421 155.707 178.842 156.609 178.26C157.655 177.586 159.052 177.893 159.731 178.943C160.405 179.995 160.104 181.401 159.057 182.075C159.057 182.075 159.041 182.079 159.037 182.086C151.951 186.655 144.215 191.198 135.693 193.481C128.834 195.319 122.367 195.479 116.001 193.964C111.632 206.142 96.5434 216.786 90.4695 218.413L90.4749 218.412Z" fill="#3A1919"/>
<path d="M248.751 281.911C228.526 270.613 195.855 283.487 192.407 314.258C190.426 331.946 193.056 341.826 193.056 341.826C193.056 341.826 230.655 336.399 243.193 312.702C255.386 289.662 248.757 281.909 248.757 281.909L248.751 281.911Z" fill="#FFE14D"/>
<path d="M193.701 315.402C193.406 315.481 193.09 315.501 192.773 315.451C191.541 315.259 190.693 314.101 190.882 312.865C193.203 297.733 202.086 285.349 215.258 278.892C227.035 273.119 240.229 273.116 250.553 278.887C251.646 279.498 252.039 280.877 251.432 281.972C250.826 283.068 249.452 283.459 248.36 282.848C239.322 277.801 227.687 277.844 217.244 282.966C205.415 288.764 197.434 299.915 195.342 313.566C195.202 314.483 194.531 315.185 193.697 315.409L193.701 315.402Z" fill="#3A1919"/>
<path d="M112.891 348.286C109.907 344.544 87.6384 318.685 76.6688 314.102C75.2007 313.486 73.7088 313 72.2219 312.642C64.2445 306.729 55.1857 304.544 49.0403 307.083C46.2314 308.246 42.7083 310.909 41.8416 317.009C41.5968 318.342 38.9936 334.231 50.8669 353.135C55.3941 360.347 59.2709 360.857 63.0199 361.349C67.2659 361.907 72.0802 362.536 81.1299 374.457C81.1748 374.515 81.2266 374.578 81.2769 374.635C84.5649 378.16 92.2 383.232 100.379 381.04C101.823 380.653 103.283 380.039 104.734 379.151C110.712 375.508 116.45 371.512 117.952 366.979C120.231 360.084 115.639 351.738 112.891 348.286Z" fill="#3A1919"/>
<path d="M94.4523 342.389C92.6192 340.586 86.235 336.541 83.0351 329.418C73.7778 308.828 46.4458 300.385 44.0745 317.379C44.0745 317.379 40.9799 333.135 52.7759 351.925C61.7048 366.144 65.6237 350.302 82.9291 373.078C82.9291 373.078 93.0784 384.065 103.565 377.206C117.533 368.071 109.256 356.94 94.4523 342.389Z" fill="#938282"/>
<path d="M100.187 381.197C92.1832 383.342 84.5923 378.218 81.2729 374.618C81.224 374.567 81.1792 374.509 81.1343 374.45C72.0791 362.53 67.2703 361.9 63.0243 361.342C59.2752 360.851 55.3985 360.34 50.8712 353.128C38.9979 334.224 41.6012 318.335 41.8459 317.002C42.7095 310.956 46.5441 307.013 52.3706 306.185C62.6725 304.721 78.2744 313.332 85.093 328.485C87.4172 333.648 91.6824 337.135 94.227 339.216C94.9831 339.835 95.5806 340.32 96.0322 340.763C107.036 351.58 113.702 359.862 112.937 367.712C112.51 372.075 109.849 375.798 104.802 379.098C103.266 380.103 101.723 380.78 100.191 381.19L100.187 381.197ZM84.6447 371.608C85.5294 372.533 93.8834 380.833 102.326 375.308C106.155 372.804 108.155 370.173 108.435 367.27C109.024 361.245 102.637 353.615 92.8686 344.004C92.5661 343.704 92.013 343.254 91.3765 342.732C88.5177 340.394 83.7369 336.488 80.968 330.342C75.0802 317.245 61.5064 309.464 53.0064 310.673C49.1265 311.22 46.8746 313.589 46.3025 317.692C46.2964 317.734 46.2903 317.777 46.2827 317.814C46.2565 317.956 43.5531 332.991 54.6837 350.716C58.0777 356.12 60.27 356.406 63.5963 356.847C68.4531 357.482 74.4934 358.281 84.6447 371.608Z" fill="#3A1919"/>
<path d="M89.362 339.751C88.5701 339.042 85.4799 330.388 83.8792 330.87C76.0022 343.783 59.3869 356.209 58.0722 356.056C56.8401 356.627 57.1275 358.615 58.4852 358.797C58.4852 358.797 65.0129 359.43 67.1956 360.336C67.9903 360.663 83.2044 351.775 89.362 339.751Z" fill="#3A1919"/>
<path d="M109.433 357.732L103.725 352.003C103.35 351.628 102.784 351.481 102.267 351.643L96.3058 353.451C96.0837 353.517 95.8818 353.635 95.7148 353.797L82.2357 366.674C81.6578 367.222 81.6424 368.124 82.2001 368.678L89.8905 376.399C92.8718 379.39 97.1559 380.396 100.978 379.372C102.734 378.901 104.387 378.006 105.773 376.679L109.313 373.295C113.724 369.08 113.775 362.095 109.426 357.728L109.433 357.732Z" fill="#3A1919"/>
<path d="M80.137 60.1423C62.0793 68.472 39.8872 82.2867 41.5584 85.9286C53.5655 112.049 71.5879 129.628 83.5949 155.748C108.03 152.88 127.493 139.849 149.25 123.622C137.243 97.5019 136.779 73.6573 124.772 47.537C123.101 43.8951 98.1878 51.8086 80.137 60.1423Z" fill="#A31E36"/>
<path fill-rule="evenodd" clip-rule="evenodd" d="M124.774 47.5427C123.692 45.1862 112.853 47.6741 100.451 51.9887C103.144 51.6779 104.91 51.8794 105.314 52.7568C117.321 78.8771 122.319 101.125 134.331 127.244C119.441 138.345 101.52 151.174 86.4466 157.056C109.759 153.637 128.655 140.934 149.687 125.254C137.68 99.1335 136.782 73.6684 124.775 47.5481L124.774 47.5427Z" fill="#791628"/>
<path d="M57.7228 76.944C53.1574 79.8396 50.1076 82.0884 48.1538 83.7385L90.6012 134.373L104.248 128.076L92.7284 59.1092C89.1913 60.5205 85.7103 62.0107 82.4908 63.4953C74.3198 67.2631 65.055 72.2921 57.7173 76.9455L57.7228 76.944Z" fill="#FFEC64"/>
<path d="M147.515 125.871C147.481 125.81 147.445 125.743 147.417 125.68C144.164 118.537 141.754 111.526 139.728 104.64C119.153 118.321 97.5173 129.129 75.3809 136.914C79.0399 142.74 82.5424 148.855 85.6499 155.479C85.8407 155.886 85.9035 156.339 85.8401 156.778C85.7322 157.488 85.6165 158.452 85.5592 159.547C106.383 152.752 126.748 143.329 146.187 131.408C147.41 128.751 147.806 126.937 147.634 126.297L147.521 125.875L147.515 125.871Z" fill="#2E3499"/>
<path d="M82.8017 152.786L84.0148 157.314C103.403 154.102 132.172 138.314 149.687 125.253C146.393 118.086 143.789 110.416 141.707 103.323C137.175 106.386 132.594 109.309 127.962 112.087C129.841 116.853 131.883 121.704 134.179 126.698C119.733 140.373 82.8017 152.786 82.8017 152.786Z" fill="#1E2672"/>
<path d="M149.539 124.7C101.929 153.511 83.6101 156.372 83.6101 156.372C82.3351 164.851 83.5785 178.172 102.792 171.123C134.773 159.385 151.376 131.578 149.805 125.715C149.664 125.189 149.53 124.691 149.535 124.707L149.539 124.7Z" fill="#3A1919"/>
<path d="M99.9547 174.406C93.6845 176.086 88.8406 175.565 85.5246 172.851C80.6214 168.837 80.6813 161.34 81.2688 156.793C75.4578 144.55 68.175 133.945 61.1325 123.692C53.6979 112.87 46.0129 101.68 39.924 88.4432C38.7743 85.9408 41.0913 83.3778 43.2383 81.4236C45.3947 79.4611 48.5538 77.1184 52.633 74.4587C60.4193 69.3859 70.5009 63.8505 79.6079 59.65C88.7148 55.4496 99.4674 51.3714 108.376 48.7437C113.044 47.364 116.875 46.484 119.764 46.1207C122.642 45.7603 126.093 45.6629 127.241 48.1599C133.335 61.4131 136.531 74.2161 139.622 86.6016C142.586 98.4695 145.646 110.74 151.274 123.261C151.388 123.401 151.488 123.556 151.569 123.728C151.639 123.879 151.698 124.034 151.735 124.194L151.833 124.561C151.833 124.561 151.843 124.599 151.848 124.616L151.987 125.136C154.134 133.15 135.233 161.644 103.569 173.261C102.313 173.721 101.108 174.109 99.9521 174.418L99.9547 174.406ZM44.2373 87.0059C50.126 99.6919 57.6084 110.584 64.849 121.118C72.1122 131.693 79.6311 142.634 85.6431 155.475C85.8338 155.881 85.8966 156.334 85.8332 156.773C85.4161 159.578 84.8256 166.425 88.3806 169.334C91.6231 171.991 97.5877 170.61 102.015 168.99C120 162.393 131.765 150.949 137.179 144.723C145.554 135.085 148.015 127.737 147.628 126.292L147.515 125.87C147.481 125.809 147.445 125.742 147.417 125.68C141.461 112.589 138.296 99.9299 135.244 87.6867C132.241 75.6531 129.136 63.2129 123.352 50.5045C122.041 50.2573 117.544 50.6352 107.807 53.643C99.5068 56.2075 89.6748 59.992 81.4984 63.7612C73.3219 67.5304 64.0626 72.558 56.7249 77.2114C48.1128 82.6699 44.9029 85.8476 44.2428 87.0044L44.2373 87.0059Z" fill="#3A1919"/>
<path d="M193.181 131.706C192.843 131.797 192.546 131.888 192.312 131.974C191.492 132.27 190.884 132.967 190.704 133.825C190.525 134.683 190.804 135.57 191.432 136.171C192.774 137.448 195.264 138.999 198.102 140.322L198.852 140.678C220.296 150.939 234.451 150.508 242.547 148.338C245.53 147.539 248.314 146.348 250.82 144.796C262.402 137.62 268.065 127.589 269.499 120.598C270.12 117.551 269.845 115.717 269.624 114.891C269.289 113.643 268.064 112.844 266.793 113.05C265.029 113.335 260.836 114.371 253.971 116.21C250.405 117.165 246.349 118.276 242.042 119.453C237.148 120.794 231.92 122.218 226.696 123.618C217.062 126.199 203.251 129.812 194.555 131.403C194.076 131.49 193.619 131.595 193.188 131.71L193.181 131.706Z" fill="#FF9739"/>
<path d="M269.616 114.887C269.438 114.917 246.244 153.368 194.924 136.098C184.423 132.563 191.887 138.22 198.943 141.041C234.285 158.55 260.645 149.058 269.59 120.961C270.211 116.494 273.391 115.125 269.616 114.887Z" fill="#E26917"/>
<path d="M100.479 34.971C117.646 35.9039 118.609 60.454 102.024 64.8803C120.545 73.9408 100.497 95.9296 84.9705 91.8108C85.0659 94.3258 92.3502 118.109 99.3772 127.65C99.3772 127.65 99.1011 128.604 98.595 128.875C98.15 129.111 96.8095 129.124 96.8095 129.124C88.8323 121.991 63.2186 93.485 60.5589 56.8861C55.506 -12.7217 130.183 -2.64857 100.479 34.971Z" fill="#CECECE"/>
<path d="M96.3314 33.7352C113.499 34.6682 114.461 59.2182 97.8765 63.6445C116.398 72.7051 96.3494 94.6939 80.8233 90.575C80.9187 93.0901 88.203 116.873 95.23 126.414C95.23 126.414 94.9539 127.368 94.4478 127.639C94.0028 127.876 92.6622 127.889 92.6622 127.889C84.6851 120.755 59.0714 92.2493 56.4117 55.6504C51.3588 -13.9574 126.036 -3.88429 96.3314 33.7352Z" fill="white"/>
<path d="M108.704 127.627C111.998 134.795 108.878 142.695 102.299 145.074C96.2676 147.254 89.451 143.928 86.6359 137.806C83.8208 131.684 85.7322 124.336 91.3033 121.159C97.387 117.692 105.408 120.454 108.702 127.622L108.704 127.627Z" fill="#C6B44B"/>
<path d="M92.0343 122.753C93.2861 122.059 94.6498 121.653 96.0903 121.555C96.7906 121.508 97.5101 121.532 98.2159 121.636C98.9272 121.739 99.6342 121.913 100.321 122.164C101.013 122.412 101.69 122.736 102.332 123.127C102.981 123.522 103.602 123.984 104.168 124.506C105.355 125.597 106.316 126.918 107.004 128.417C107.694 129.922 108.071 131.505 108.13 133.12C108.156 133.894 108.106 134.664 107.985 135.413C107.862 136.155 107.67 136.876 107.405 137.569C107.145 138.254 106.818 138.911 106.436 139.512C106.05 140.12 105.604 140.68 105.113 141.181C104.104 142.214 102.903 142.988 101.564 143.488C100.247 143.981 98.8686 144.18 97.4714 144.091C96.805 144.047 96.1389 143.938 95.4853 143.767C94.8441 143.598 94.2085 143.364 93.5994 143.075C92.9957 142.785 92.4076 142.444 91.8583 142.051C91.302 141.655 90.7791 141.208 90.298 140.721C89.3036 139.714 88.4979 138.539 87.8953 137.228C87.2927 135.917 86.9299 134.541 86.809 133.13C86.7489 132.448 86.7518 131.761 86.815 131.081C86.8743 130.408 86.9924 129.737 87.17 129.091C87.346 128.439 87.5854 127.806 87.8692 127.207C88.1625 126.601 88.5151 126.019 88.9151 125.484C89.7593 124.36 90.8044 123.44 92.0304 122.76M91.7241 122.097C86.5466 124.998 84.7515 131.798 87.3601 137.477C89.9687 143.156 96.297 146.207 101.865 144.152C107.895 141.926 110.721 134.656 107.705 128.088C104.684 121.523 97.3367 118.944 91.7281 122.09L91.7241 122.097Z" fill="white"/>
<path d="M88.853 136.79C90.4328 140.221 93.5816 142.464 96.9245 142.835L87.8752 132.944C87.957 134.231 88.2774 135.536 88.853 136.79ZM102.517 129.901C101.971 128.716 101.19 128.092 100.556 127.622C99.7448 127.059 99.0164 126.609 98.6546 125.825C98.2515 124.954 98.4931 123.827 99.3697 123.369C99.4103 123.346 99.4485 123.336 99.4892 123.314C97.2028 122.588 94.7391 122.75 92.5769 123.928C89.7827 125.451 88.1436 128.319 87.8904 131.409C88.0724 131.325 88.2381 131.245 88.3819 131.171C89.1801 130.77 90.3761 130.021 90.3761 130.021C90.784 129.777 91.1605 130.462 90.7654 130.732C90.7654 130.732 90.3703 131.002 89.9133 131.26L97.2989 139.631L96.3813 132.848L93.3059 129.57C92.8546 129.762 92.4203 129.908 92.4203 129.908C91.9744 130.097 91.6868 129.33 92.1258 129.136C92.1258 129.136 93.5128 128.576 94.3204 128.166C95.1905 127.728 96.5031 126.912 96.5031 126.912C96.9532 126.651 97.3479 127.361 96.9121 127.654C96.9121 127.654 96.4763 127.946 95.9787 128.226L103.784 136.855L103.3 133.347C103.094 131.794 102.893 130.716 102.515 129.896L102.517 129.901ZM97.3237 133.857L98.4466 142.868C99.3154 142.817 100.179 142.638 101.027 142.311C102.044 141.921 102.949 141.35 103.725 140.649C103.682 140.62 103.643 140.583 103.604 140.547L97.3237 133.857ZM102.48 124.859C102.664 125.15 102.836 125.468 103.003 125.828C103.455 126.816 103.785 128.006 103.888 129.633L104.946 139.295C106.962 136.526 107.439 132.59 105.782 128.979C104.998 127.277 103.848 125.883 102.48 124.859Z" fill="white"/>
<path d="M200.679 315.997C195.186 303.786 171.268 277.442 155.958 291.772C144.325 305.215 151.68 323.417 157.613 336.989C163.233 351.484 153.291 381.42 192.016 366.039C199.188 363.19 204.399 357.751 205.687 350.259C206.945 337.9 206.991 328.822 200.678 315.992L200.679 315.997Z" fill="#3A1919"/>
<path d="M243.127 150.524C234.665 152.792 219.945 153.274 197.88 142.722L197.137 142.37C194.06 140.941 191.412 139.28 189.874 137.815C188.682 136.679 188.153 134.967 188.487 133.357C188.832 131.722 189.97 130.408 191.536 129.841C192.234 129.59 193.18 129.348 194.132 129.169C202.744 127.595 216.501 123.997 226.097 121.426C231.331 120.023 236.465 118.618 241.432 117.264C245.744 116.085 249.801 114.974 253.372 114.018C260.405 112.133 264.551 111.116 266.415 110.81C268.84 110.419 271.153 111.917 271.792 114.304C272.125 115.547 272.382 117.725 271.701 121.052C270.17 128.51 264.191 139.171 251.996 146.722C249.299 148.389 246.317 149.67 243.122 150.526L243.127 150.524ZM193.768 133.896C193.435 133.985 193.209 134.058 193.077 134.111C192.992 134.139 192.934 134.208 192.911 134.296C192.893 134.383 192.922 134.469 192.986 134.534C194.14 135.633 196.463 137.064 199.047 138.267L199.811 138.631C220.637 148.594 234.222 148.216 241.955 146.15C244.725 145.408 247.305 144.306 249.625 142.869C260.597 136.074 265.943 126.673 267.283 120.136C267.833 117.454 267.574 115.986 267.437 115.477C267.403 115.351 267.283 115.272 267.153 115.289C265.49 115.558 261.248 116.607 254.552 118.401C250.986 119.357 246.941 120.464 242.634 121.642C237.664 123.003 232.522 124.404 227.277 125.809C217.605 128.401 203.734 132.03 194.96 133.635C194.548 133.711 194.146 133.801 193.769 133.902L193.768 133.896Z" fill="#3A1919"/>
<path d="M92.1737 156.119C89.2545 157.089 87.3716 157.564 86.4181 157.779C85.9542 157.879 85.6117 158.259 85.5517 158.732C84.3992 167.015 84.9096 176.008 110.028 166.42C110.749 166.145 90.2944 167.513 92.9022 156.81C93.0067 156.371 92.604 155.98 92.1751 156.124L92.1737 156.119Z" fill="#605555"/>
<path d="M94.4763 383.525C89.024 384.986 83.4371 382.499 80.4669 379.44L74.0843 372.871C73.6659 372.443 73.4336 371.86 73.4421 371.259C73.4506 370.659 73.6938 370.083 74.1191 369.664L91.4899 352.664C91.7443 352.414 92.0371 352.242 92.3544 352.139C92.6119 351.988 92.8877 351.861 93.1737 351.773L99.1333 349.959C100.454 349.546 101.885 349.914 102.869 350.924L108.629 356.849C113.794 362.166 113.605 369.052 108.147 374.393C108.063 374.475 107.977 374.545 107.885 374.616C105.13 376.592 100.686 379.831 99.7502 380.657C98.0753 382.126 96.2879 383.045 94.4832 383.529L94.4763 383.525ZM78.8902 371.331L83.6976 376.274C86.2212 378.866 91.997 381.426 96.7708 377.236C98.11 376.062 103.925 371.875 105.111 371.023C108.654 367.475 108.761 363.468 105.397 360.01L99.9826 354.437L94.6823 356.051C94.5085 356.209 94.3203 356.336 94.118 356.431L78.8902 371.331ZM100.474 354.288L100.458 354.292C100.458 354.292 100.469 354.289 100.474 354.288Z" fill="#3A1919"/>
<path d="M84.7923 378.311C89.2463 382.785 95.9715 383.436 99.8135 379.76L103.354 376.376C107.198 372.706 106.702 366.103 102.248 361.628L95.5631 354.912L78.1057 371.589L84.7908 378.305L84.7923 378.311Z" fill="#938282"/>
<path d="M96.7442 383.985C92.3169 385.172 87.0215 383.751 83.1993 379.911L76.5141 373.194C76.0833 372.764 75.8441 372.177 75.8497 371.565C75.8553 370.953 76.1093 370.375 76.551 369.951L94.0084 353.274C94.8972 352.426 96.2931 352.445 97.1632 353.315L103.848 360.032C106.655 362.853 108.246 366.563 108.202 370.219C108.17 373.261 107.002 376.032 104.917 378.023L101.377 381.406C100.056 382.67 98.4671 383.524 96.7442 383.985ZM86.3924 376.714C89.9818 380.317 95.3056 380.95 98.2588 378.123L101.799 374.739C103.334 373.272 103.673 371.438 103.687 370.161C103.718 367.724 102.609 365.199 100.657 363.234L95.5305 358.083L81.3443 371.636L86.391 376.708L86.3924 376.714Z" fill="#3A1919"/>
<path d="M148.527 289.99C148.527 289.99 140.648 303.549 146.649 323.023C150.859 336.687 155.991 324.762 160.896 351.136C163.146 363.242 172.199 368.28 188.441 364.233C193.524 362.965 193.529 349.527 190.364 327.246C190.027 324.877 189.673 320.043 185.89 310.548C178.239 291.329 159.346 275.168 148.527 289.99Z" fill="#938282"/>
<path d="M189.095 366.411C189.062 366.419 189.024 366.43 188.991 366.438C179.537 368.796 172.057 368.253 166.765 364.837C162.532 362.104 159.809 357.635 158.682 351.553C155.933 336.776 153.35 334.922 150.848 333.133C148.78 331.652 146.43 329.97 144.497 323.693C138.274 303.498 146.241 289.44 146.58 288.851C146.62 288.782 146.661 288.718 146.708 288.652C150.367 283.641 155.209 281.364 160.717 282.071C171.974 283.519 182.957 297.07 187.991 309.709C191.514 318.558 192.162 323.53 192.509 326.201C192.546 326.467 192.576 326.711 192.606 326.932C196.402 353.615 195.42 364.716 189.106 366.408L189.095 366.411ZM150.429 291.223C149.794 292.408 143.445 304.958 148.802 322.357C150.285 327.17 151.686 328.168 153.459 329.442C157.307 332.201 160.253 335.343 163.113 350.73C164.008 355.53 166.053 358.995 169.196 361.022C173.401 363.739 179.692 364.078 187.889 362.04L187.9 362.037C188.837 361.786 190.007 359.413 190.233 353.537C190.46 347.644 189.768 339.152 188.12 327.571C188.085 327.334 188.051 327.073 188.015 326.789C187.692 324.317 187.095 319.713 183.785 311.394C178.573 298.309 168.408 287.637 160.141 286.573C156.346 286.087 153.078 287.65 150.425 291.23L150.429 291.223Z" fill="#3A1919"/>
<path d="M186.646 318.56C186.215 318.394 185.731 318.441 185.341 318.687C171.53 327.51 148.811 326.492 148.581 326.483C148.001 326.457 147.456 326.779 147.205 327.303C146.954 327.828 147.041 328.456 147.428 328.898L152.695 334.88C152.921 335.136 153.23 335.306 153.565 335.357C154.125 335.442 163.571 336.801 174.442 333.888C179.104 332.639 184.029 330.603 188.626 327.347C189.122 326.997 189.347 326.374 189.188 325.782L187.516 319.542C187.396 319.093 187.07 318.728 186.64 318.562L186.646 318.56Z" fill="#3A1919"/>
<path d="M193.26 338.556C193.084 338.092 192.687 337.747 192.21 337.646C191.733 337.545 191.227 337.686 190.878 338.038L186.202 342.747L164.417 347.264C164.04 347.341 163.709 347.565 163.504 347.89C163.292 348.211 163.217 348.607 163.3 348.983L164.863 356.45C166.356 363.596 172.854 368.021 179.939 366.546L185.616 365.359C185.655 365.349 185.687 365.34 185.726 365.33C189.276 364.296 191.881 362.155 193.467 358.978C197.843 350.183 193.492 339.139 193.273 338.558L193.26 338.556Z" fill="#3A1919"/>
<path d="M194.571 337.952C194.268 337.388 193.627 337.09 192.995 337.219L161.888 343.717C161.611 343.774 161.356 343.913 161.158 344.112L155.658 349.646C155.207 350.102 155.109 350.803 155.412 351.367C155.715 351.931 156.356 352.229 156.988 352.101L188.094 345.602C188.371 345.546 188.626 345.407 188.824 345.207L194.325 339.673C194.775 339.218 194.874 338.517 194.571 337.952Z" fill="#3A1919"/>
<path d="M174.286 368.788L180.59 367.474C194.707 364.524 188.652 344.196 188.652 344.196L157.562 350.691C157.562 350.691 161.891 371.381 174.287 368.793L174.286 368.788Z" fill="#938282"/>
<path d="M181.962 369.477C181.668 369.556 181.365 369.626 181.061 369.689L174.758 371.009C160.321 374.026 155.557 352.085 155.359 351.147C155.1 349.919 155.885 348.729 157.107 348.466L188.197 341.972C189.349 341.734 190.489 342.414 190.827 343.544C190.978 344.043 194.426 355.887 189.832 363.625C188.081 366.576 185.436 368.547 181.968 369.476L181.962 369.477ZM173.826 366.57L180.129 365.251C182.791 364.696 184.69 363.407 185.94 361.312C188.558 356.908 187.66 350.196 186.976 346.858L160.357 352.418C161.779 357.248 165.923 368.218 173.826 366.57Z" fill="#3A1919"/>
<path d="M114.318 192.022C113.509 191.47 112.274 191.613 111.589 192.283C110.898 192.956 111.026 193.913 111.834 194.465C112.228 194.735 112.619 195.017 113.001 195.308C111.729 196.558 110.457 197.809 109.185 199.059C108.906 199.327 108.962 199.711 109.288 199.923C109.636 200.153 109.957 200.413 110.293 200.663L91.3047 219.305L87.8211 222.726L82.1224 216.878C81.7681 216.515 81.1872 216.506 80.8265 216.861L79.9892 217.684L78.3864 216.042L79.7419 214.711C80.2507 214.211 80.258 213.387 79.7586 212.876C79.2592 212.364 78.4387 212.355 77.9299 212.855L73.5389 217.165C73.0301 217.665 73.0228 218.489 73.5222 219C74.0216 219.512 74.8422 219.521 75.351 219.021L76.7065 217.689L78.3093 219.331L77.4114 220.211C77.0507 220.566 77.0432 221.149 77.3976 221.512L83.0962 227.36L78.6178 231.758L72.9192 225.91C72.5648 225.547 71.984 225.538 71.6232 225.893L70.786 226.716L69.1832 225.074L70.5387 223.743C71.0475 223.243 71.0548 222.419 70.5554 221.908C70.056 221.396 69.2354 221.387 68.7266 221.887L64.3357 226.197C63.8269 226.697 63.8196 227.52 64.319 228.032C64.8184 228.544 65.6389 228.553 66.1477 228.053L67.5032 226.721L69.106 228.363L68.2082 229.243C67.8475 229.598 67.84 230.181 68.1943 230.544L73.893 236.392L69.4146 240.79L63.7159 234.941C63.3616 234.579 62.7808 234.57 62.42 234.925L61.5828 235.748L59.9799 234.106L61.3354 232.775C61.8442 232.274 61.8515 231.451 61.3521 230.939C60.8527 230.428 60.0322 230.419 59.5234 230.919L55.1324 235.229C54.6236 235.729 54.6164 236.552 55.1158 237.064C55.6152 237.575 56.4357 237.584 56.9445 237.084L58.3 235.753L59.9028 237.395L59.0104 238.273C58.6497 238.628 58.6422 239.211 58.9965 239.574L64.6952 245.422L61.2116 248.844C61.1281 248.925 61.053 249.015 60.9695 249.096C60.9695 249.096 60.9666 249.085 60.9611 249.087C60.768 249.086 58.6024 251.69 54.0066 254.799C47.8667 258.95 37.386 264 21.4791 264.958C15.7717 262.087 10.8517 261.522 8.3534 263.975C3.875 268.373 8.87965 280.791 19.5264 291.715C30.1786 302.638 42.4427 307.93 46.9171 303.539C49.4612 301.039 48.9378 295.945 46.0617 290.009C46.6429 283.106 48.4537 273.485 53.7667 265.572C54.5218 264.442 55.3654 263.36 56.2727 262.319C56.4554 264.353 56.9938 266.362 57.9104 268.234C58.6736 269.796 59.6927 271.266 60.9678 272.578C67.4225 279.198 78.0295 279.331 84.6186 272.866L88.1023 269.444L90.1418 271.538C90.4961 271.901 91.0769 271.91 91.4377 271.555L94.8567 268.198C95.2175 267.843 95.2249 267.26 94.8706 266.897L92.8311 264.804L97.3095 260.406L99.349 262.5C99.7033 262.862 100.284 262.871 100.645 262.516L104.064 259.159C104.425 258.804 104.432 258.221 104.078 257.859L102.038 255.765L106.517 251.367L108.556 253.461C108.911 253.824 109.491 253.832 109.852 253.477L113.271 250.12C113.632 249.766 113.639 249.183 113.285 248.82L111.246 246.726L114.729 243.305C121.313 236.841 121.424 226.197 114.967 219.571C113.687 218.26 112.248 217.208 110.707 216.406C109.178 215.607 107.549 215.07 105.881 214.777L115.163 205.666C115.364 205.958 115.585 206.239 115.778 206.545C115.984 206.878 116.362 206.935 116.64 206.666C117.922 205.408 119.199 204.156 120.481 202.897C120.791 203.336 121.098 203.782 121.393 204.231C121.923 205.052 122.873 205.196 123.558 204.525C124.242 203.849 124.413 202.612 123.878 201.793C121.381 197.927 118.141 194.6 114.338 192.01L114.318 192.022ZM105.217 221.785C106.964 222.197 108.618 223.092 109.962 224.468C113.726 228.33 113.667 234.542 109.826 238.311L106.343 241.732L92.7232 227.761L87.9944 232.402L101.614 246.373L97.1355 250.771L83.516 236.8L78.7872 241.441L92.4067 255.412L87.9283 259.81L74.3088 245.839L69.58 250.48L83.1994 264.451L79.7158 267.872C75.8754 271.641 69.685 271.569 65.9213 267.707C64.5751 266.325 63.7221 264.647 63.3498 262.887C62.6827 259.721 63.5858 256.287 66.0573 253.865L69.541 250.443L70.0403 249.952L70.5397 249.46L96.1679 224.304C98.6394 221.881 102.075 221.049 105.217 221.785Z" fill="#3A1919"/>
<path d="M45.7319 309.214C43.0003 309.946 39.1092 309.862 33.7431 307.544C28.0403 305.082 21.8398 300.589 16.2862 294.889C5.13318 283.449 -2.26795 268.041 5.17731 260.736C7.36607 258.589 12.4575 255.781 22.3396 260.362C36.5588 259.298 46.0018 254.738 51.4583 251.046C54.4761 249.005 56.3125 247.222 57.1999 246.368C57.4369 246.141 57.7007 245.882 58.0032 245.637C58.0181 245.627 58.026 245.613 58.0409 245.603L58.2953 245.353L55.7578 242.753C55.5067 242.492 55.2798 242.212 55.0828 241.913C53.9029 241.719 52.7767 241.158 51.8756 240.238C50.7875 239.121 50.2012 237.653 50.216 236.094C50.2307 234.535 50.8513 233.078 51.9563 231.99L56.3527 227.679C57.2263 226.817 58.3245 226.27 59.5142 226.086C59.7197 224.934 60.2712 223.83 61.1636 222.951L65.5545 218.641C66.4524 217.761 67.562 217.235 68.712 217.056C68.9196 215.868 69.4918 214.776 70.3668 213.919L74.7632 209.608C77.0474 207.359 80.7351 207.404 82.9824 209.706C83.9086 210.655 84.4434 211.843 84.5952 213.064C84.8629 213.256 85.1132 213.471 85.3462 213.708L87.8851 216.313L104.523 199.98C104.523 199.98 104.518 199.94 104.517 199.916C104.368 198.378 104.929 196.872 106.052 195.785L106.889 194.962C106.774 194.577 106.692 194.182 106.659 193.774C106.504 192.02 107.158 190.296 108.445 189.036C110.683 186.852 114.299 186.523 116.867 188.276C121.187 191.225 124.819 194.946 127.664 199.347C129.357 201.956 128.95 205.586 126.716 207.781C125.425 209.048 123.684 209.661 121.948 209.463C121.484 209.411 121.027 209.299 120.593 209.139L119.792 209.923C118.712 210.975 117.283 211.487 115.831 211.366L114.045 213.118C115.554 214.04 116.943 215.146 118.183 216.415C122.149 220.487 124.303 225.865 124.246 231.56C124.19 237.261 121.929 242.584 117.885 246.555L117.46 246.974C117.862 247.758 118.072 248.628 118.062 249.529C118.05 250.987 117.469 252.352 116.427 253.37L113.012 256.72C111.975 257.737 110.603 258.287 109.155 258.27C109.055 258.267 108.95 258.266 108.848 258.258C108.851 258.357 108.856 258.462 108.854 258.562C108.84 260.015 108.259 261.379 107.222 262.396L103.803 265.754C102.655 266.877 101.133 267.39 99.6381 267.286C99.6427 267.391 99.6459 267.489 99.645 267.595C99.6326 269.054 99.05 270.413 98.0135 271.43L94.5945 274.787C92.8554 276.497 90.2446 276.785 88.2047 275.672L87.7739 276.092C79.4079 284.301 65.9353 284.138 57.7396 275.732C56.7408 274.708 55.8498 273.586 55.0794 272.39C52.35 278.103 51.1664 284.329 50.6669 289.203C55.2398 299.443 52.2989 304.585 50.0739 306.771C49.1895 307.636 47.794 308.644 45.7439 309.193L45.7319 309.214ZM11.8445 267.059C11.6754 267.104 11.5574 267.165 11.4913 267.224C10.2382 268.457 12.1487 277.703 22.7298 288.557C27.4115 293.358 32.7177 297.24 37.2916 299.218C41.6005 301.079 43.4946 300.537 43.7356 300.302C44.1475 299.898 44.495 297.182 41.9828 291.994C41.6272 291.256 41.4731 290.441 41.5422 289.63C42.1535 282.337 44.1179 271.807 50.0033 263.042C50.2462 262.683 50.4946 262.323 50.7607 261.965C44.017 265.432 34.4501 268.723 21.7364 269.495C20.9429 269.544 20.1511 269.38 19.4422 269.025C15.2826 266.935 12.7728 266.816 11.8459 267.064L11.8445 267.059ZM87.6988 264.929C87.8984 264.91 88.097 264.91 88.2985 264.921C88.2947 264.863 88.2979 264.809 88.2941 264.752C88.2956 264.605 88.304 264.461 88.3193 264.322C88.1772 264.337 88.0321 264.341 87.8909 264.337C87.832 264.336 87.78 264.338 87.7265 264.335C87.7303 264.392 87.7271 264.446 87.7309 264.504C87.7294 264.651 87.721 264.794 87.7057 264.933L87.6988 264.929ZM69.4849 256.842L69.225 257.093C67.9435 258.352 67.4005 260.164 67.7787 261.946C67.9824 262.924 68.4611 263.817 69.1545 264.529C70.1296 265.529 71.4434 266.092 72.8448 266.11C74.2462 266.128 75.5653 265.598 76.5655 264.62L76.8254 264.369L69.4918 256.846L69.4849 256.842ZM96.9005 255.892C97.1002 255.873 97.2987 255.873 97.5002 255.883C97.4965 255.826 97.4996 255.772 97.4959 255.714C97.4974 255.567 97.5058 255.424 97.5211 255.285C97.379 255.3 97.2338 255.303 97.0927 255.3C97.0338 255.298 96.9818 255.301 96.9283 255.297C96.9346 255.495 96.9245 255.697 96.9074 255.896L96.9005 255.892ZM110.084 246.885C110.084 246.885 110.084 246.885 110.079 246.886L110.084 246.885ZM106.104 246.86C106.303 246.841 106.502 246.841 106.703 246.852C106.697 246.654 106.707 246.452 106.724 246.253C106.525 246.272 106.326 246.272 106.125 246.262C106.131 246.459 106.121 246.662 106.104 246.86ZM57.4044 257.949C57.4855 257.968 57.5627 257.995 57.6453 258.019C58.0613 258.154 58.4454 258.345 58.7908 258.587C58.9005 257.906 59.0529 257.231 59.2577 256.578C58.6916 257.017 58.0725 257.477 57.4044 257.949ZM99.0692 227.804L106.403 235.326L106.663 235.075C108.726 233.049 108.756 229.714 106.735 227.645C106.041 226.933 105.16 226.436 104.193 226.208C102.429 225.794 100.612 226.299 99.3305 227.557L99.0707 227.809L99.0692 227.804ZM99.7354 217.357C100.45 217.189 101.186 217.08 101.926 217.028C101.769 216.747 101.638 216.454 101.542 216.139C101.497 215.993 101.463 215.844 101.425 215.701L99.7314 217.364L99.7354 217.357ZM114.764 201.167C115.026 201.143 115.291 201.149 115.554 201.172C115.614 201.179 115.675 201.187 115.735 201.194L116.832 200.12C116.471 199.729 116.099 199.348 115.715 198.981L114.734 199.943C114.758 200.077 114.773 200.22 114.781 200.358C114.801 200.629 114.792 200.901 114.765 201.172L114.764 201.167Z" fill="#3A1919"/>
<path d="M31.2297 288.92C34.4709 291.965 37.2663 294.132 39.5287 295.661C41.3611 289.414 46.0383 273.938 48.1922 270.985L31.2297 288.92Z" fill="#D39A23"/>
<path d="M53.9859 254.811C46.9257 259.584 34.1317 265.552 13.9296 265.116C13.3938 265.101 13.0383 265.671 13.3001 266.147C14.8463 268.995 19.6605 277.169 28.3013 286.037C29.3154 287.074 30.2911 288.033 31.2354 288.918L48.1979 270.984C46.0426 273.932 41.3667 289.413 39.5343 295.66C41.9963 297.324 43.8106 298.228 44.8624 298.686C45.3316 298.889 45.8498 298.533 45.8338 298.015C45.6691 293.758 45.65 277.657 53.7583 265.586C52.6591 262.072 52.7395 258.272 53.9913 254.809L53.9859 254.811Z" fill="#FFC52E"/>
<path d="M60.9402 249.098C60.747 249.097 58.5815 251.701 53.9857 254.81C52.7392 258.272 52.6589 262.072 53.7526 265.587C55.4913 263.003 57.5962 260.608 60.159 258.549C60.4757 257.026 61.1552 255.571 62.193 254.319C61.8134 252.073 61.2511 249.103 60.9416 249.103L60.9402 249.098Z" fill="#D39A23"/>
<path d="M91.297 219.301L65.6688 244.457L64.6741 245.433L69.5496 250.435L70.5444 249.458L96.1726 224.302C98.644 221.879 102.079 221.047 105.222 221.783L110.685 216.417C104.446 213.172 96.5804 214.112 91.2955 219.295L91.297 219.301Z" fill="#D39A23"/>
<path d="M58.0368 235.522L59.8945 237.427C60.0713 237.609 60.3608 237.612 60.5412 237.435L61.5734 236.422C61.7538 236.245 61.7567 235.954 61.5799 235.773L59.7222 233.867C59.5454 233.686 59.2559 233.682 59.0755 233.86L58.0433 234.873C57.8629 235.05 57.86 235.34 58.0368 235.522Z" fill="#BC801E"/>
<path d="M55.0902 237.073L55.0942 237.077C55.594 237.59 56.4127 237.6 56.9226 237.099L61.3176 232.785C61.8276 232.285 61.8358 231.463 61.3359 230.95L61.3319 230.946C60.8321 230.433 60.0134 230.424 59.5035 230.924L55.1085 235.239C54.5985 235.739 54.5903 236.561 55.0902 237.073Z" fill="#BC801E"/>
<path d="M67.2426 226.481L69.1003 228.387C69.2771 228.568 69.5666 228.572 69.747 228.395L70.7792 227.381C70.9596 227.204 70.9625 226.914 70.7857 226.732L68.928 224.827C68.7512 224.646 68.4617 224.642 68.2813 224.819L67.2491 225.832C67.0687 226.009 67.0658 226.3 67.2426 226.481Z" fill="#BC801E"/>
<path d="M64.2975 228.035L64.3014 228.039C64.8013 228.552 65.6199 228.562 66.1299 228.061L70.5249 223.747C71.0349 223.246 71.043 222.425 70.5432 221.912L70.5392 221.908C70.0393 221.395 69.2207 221.385 68.7107 221.886L64.3157 226.2C63.8058 226.701 63.7976 227.522 64.2975 228.035Z" fill="#BC801E"/>
<path d="M76.4445 217.445L78.3022 219.35C78.479 219.531 78.7685 219.535 78.9489 219.358L79.9811 218.345C80.1615 218.168 80.1644 217.877 79.9876 217.696L78.13 215.79C77.9531 215.609 77.6636 215.605 77.4832 215.782L76.451 216.796C76.2706 216.973 76.2677 217.263 76.4445 217.445Z" fill="#BC801E"/>
<path d="M73.5031 218.994L73.507 218.998C74.0069 219.51 74.8255 219.52 75.3355 219.02L79.7305 214.705C80.2404 214.205 80.2486 213.383 79.7487 212.87L79.7448 212.866C79.2449 212.354 78.4263 212.344 77.9163 212.844L73.5213 217.159C73.0114 217.659 73.0032 218.481 73.5031 218.994Z" fill="#BC801E"/>
<path d="M63.701 234.951C63.3467 234.588 62.7658 234.58 62.4051 234.935L58.986 238.292C58.6253 238.647 58.6179 239.229 58.9722 239.592L69.3036 250.19L74.0324 245.549L63.701 234.951Z" fill="#D89B27"/>
<path d="M72.9078 225.913C72.5535 225.55 71.9726 225.541 71.6119 225.896L68.1928 229.253C67.8321 229.608 67.8246 230.191 68.179 230.553L78.5104 241.151L83.2392 236.51L72.9078 225.913Z" fill="#D89B27"/>
<path d="M82.1097 216.875C81.7554 216.512 81.1745 216.504 80.8138 216.859L77.3947 220.216C77.034 220.57 77.0265 221.153 77.3809 221.516L87.7123 232.114L92.4411 227.473L82.1097 216.875Z" fill="#D89B27"/>
<path d="M111.734 199.238L65.1698 244.949L64.6704 245.441L61.1868 248.862C55.902 254.045 54.7984 261.921 57.8911 268.251C58.6543 269.813 59.6734 271.282 60.9485 272.595C67.4032 279.215 78.0101 279.348 84.5993 272.882L114.706 243.329C121.29 236.865 121.4 226.221 114.944 219.595C113.664 218.284 112.225 217.232 110.683 216.43L105.22 221.796C106.966 222.208 108.62 223.103 109.965 224.479C113.729 228.341 113.669 234.553 109.829 238.322L79.7223 267.876C75.8819 271.645 69.6915 271.573 65.9277 267.711C64.5815 266.329 63.7286 264.651 63.3563 262.891C62.6892 259.725 63.5923 256.291 66.0638 253.868L69.5474 250.447L70.0468 249.955L116.611 204.245C117.706 203.165 117.505 201.171 116.159 199.789C114.813 198.408 112.831 198.164 111.734 199.238Z" fill="#FFC52E"/>
<path d="M120.6 202.777C119.271 204.078 117.944 205.384 116.621 206.683C116.342 206.951 115.965 206.894 115.759 206.562C114.11 203.9 111.897 201.635 109.286 199.918C108.96 199.706 108.91 199.32 109.183 199.053C110.511 197.753 111.839 196.447 113.162 195.147C113.434 194.875 113.934 194.823 114.26 195.035C116.876 196.751 119.084 199.017 120.733 201.679C120.938 202.012 120.873 202.51 120.6 202.777Z" fill="#D3D3D3"/>
<path d="M123.54 204.542C122.849 205.214 121.906 205.074 121.375 204.248C118.878 200.381 115.637 197.054 111.834 194.465C111.026 193.913 110.905 192.959 111.589 192.283C112.274 191.613 113.515 191.468 114.318 192.022C118.115 194.613 121.361 197.938 123.858 201.805C124.387 202.625 124.223 203.866 123.538 204.537L123.54 204.542Z" fill="#D3D3D3"/>
<path d="M90.1269 271.548C90.4812 271.911 91.062 271.919 91.4228 271.565L94.8418 268.208C95.2026 267.853 95.21 267.27 94.8557 266.907L74.3142 245.837L69.5854 250.478L90.1269 271.548Z" fill="#D89B27"/>
<path d="M99.3337 262.509C99.688 262.872 100.269 262.881 100.63 262.526L104.049 259.169C104.409 258.814 104.417 258.231 104.062 257.868L83.521 236.798L78.7922 241.439L99.3337 262.509Z" fill="#D89B27"/>
<path d="M108.541 253.471C108.895 253.834 109.476 253.842 109.837 253.487L113.256 250.13C113.616 249.776 113.624 249.193 113.269 248.83L92.728 227.76L87.9992 232.401L108.541 253.471Z" fill="#D89B27"/>
<path d="M46.9024 303.546C51.3806 299.15 46.3773 286.73 35.7271 275.806C25.0769 264.881 12.8129 259.588 8.33466 263.984C3.85641 268.38 8.85976 280.8 19.5099 291.725C30.1601 302.65 42.4241 307.942 46.9024 303.546Z" fill="#FFC52E"/>
<path d="M8.29355 264.32C12.1442 260.436 19.2893 263.439 23.3718 265.59C33.8855 271.415 45.2329 283.384 47.7915 295.419C48.2457 298.008 48.201 301.2 46.0717 303.068C45.9679 303.16 45.8129 303.149 45.7207 303.044C45.6368 302.949 45.6398 302.808 45.7257 302.714C48.74 298.85 45.5397 292.555 43.4954 288.808C38.9974 281.159 32.7362 274.563 25.6063 269.327C21.558 266.563 17.0344 263.638 12.0133 263.546C10.8014 263.56 9.59541 263.901 8.64787 264.682C8.42975 264.893 8.08528 264.546 8.30046 264.324L8.29355 264.32Z" fill="#FFEA94"/>
<path d="M14.3613 273.466C19.3768 268.848 28.3415 275.676 32.0402 279.426C35.6933 283.223 42.2953 292.356 37.5868 297.29C36.5734 298.067 35.3616 296.772 36.1137 295.784C38.4831 289.927 21.7578 272.74 15.8304 274.979C14.8205 275.725 13.5611 274.449 14.3573 273.473L14.3613 273.466Z" fill="#D39A23"/>
<path d="M44.4189 234.309C41.0738 233.122 39.7933 229.499 39.5939 225.68C39.5211 225.975 39.4577 226.262 39.3928 226.543C38.2405 231.751 38.428 239.605 43.6723 241.468C48.9167 243.331 65.7827 224.055 66.7909 215.124C66.9511 213.737 66.8152 212.641 66.4428 211.797C62.4356 221.443 48.992 235.935 44.4189 234.309Z" fill="#FFE14D"/>
<path d="M46.2361 244.448C45.0638 244.762 44.02 244.748 43.0842 244.418C36.9233 242.232 35.7654 234.028 37.3513 226.861C38.0827 223.55 40.3155 213.475 51.3091 210.013C59.5911 207.401 64.3 207.266 67.0648 209.559C68.8149 211.008 69.5297 213.24 69.1947 216.199C68.3082 224.035 57.2019 238.112 49.5627 242.905C48.3518 243.664 47.2447 244.178 46.2306 244.449L46.2361 244.448ZM44.5805 240.145C44.5805 240.145 45.6696 240.24 48.4434 238.183C54.9804 233.333 64.0416 221.546 64.7084 215.682C64.8126 214.762 64.8063 213.561 64.192 213.057C63.4261 212.423 60.9063 211.743 52.6665 214.338C45.1227 216.717 42.8754 222.811 41.7558 227.858C40.8267 232.068 40.8041 238.81 44.575 240.146L44.5805 240.145Z" fill="#FFE14D"/>
<path d="M39.5538 227.362C40.7061 222.154 43.2431 214.938 51.988 212.178C60.733 209.418 67.7745 208.676 66.9518 215.943C65.9422 224.868 49.0707 244.146 43.8333 242.287C38.5904 240.429 38.4014 232.57 39.5538 227.362Z" fill="#FFE14D"/>
<path d="M44.4189 234.309C41.0738 233.122 39.7933 229.499 39.5939 225.68C39.5211 225.975 39.4577 226.262 39.3928 226.543C38.2405 231.751 38.428 239.605 43.6723 241.468C48.9167 243.331 65.7827 224.055 66.7909 215.124C66.9511 213.737 66.8152 212.641 66.4428 211.797C62.4356 221.443 48.992 235.935 44.4189 234.309Z" fill="#EA911B"/>
<path d="M46.2361 244.448C45.0638 244.762 44.02 244.748 43.0842 244.418C36.9233 242.232 35.7654 234.028 37.3513 226.861C38.0827 223.55 40.3155 213.475 51.3091 210.013C59.5911 207.401 64.3 207.266 67.0648 209.559C68.8149 211.008 69.5297 213.24 69.1947 216.199C68.3082 224.035 57.2019 238.112 49.5627 242.905C48.3518 243.664 47.2447 244.178 46.2306 244.449L46.2361 244.448ZM44.5805 240.145C44.5805 240.145 45.6696 240.24 48.4434 238.183C54.9804 233.333 64.0416 221.546 64.7084 215.682C64.8126 214.762 64.8063 213.561 64.192 213.057C63.4261 212.423 60.9063 211.743 52.6665 214.338C45.1227 216.717 42.8754 222.811 41.7558 227.858C40.8267 232.068 40.8041 238.81 44.575 240.146L44.5805 240.145Z" fill="#3A1919"/>
<path d="M177.037 233.626C170.187 236.588 144.838 242.875 133.324 239.729C124.404 237.297 120.399 231.229 119.839 228.199C119.024 223.829 121.767 218.822 126.817 215.445C127.273 215.14 127.783 214.84 128.338 214.556C131.872 212.717 137.012 211.399 142.446 210.001C149.084 208.299 156.209 206.255 162.948 204.208C169.947 202.087 191.525 192.544 201.092 206.286C214.563 225.636 189.072 228.424 177.042 233.624L177.037 233.626Z" fill="#FFE14D"/>
<path d="M176.895 227.058C170.045 230.02 144.697 236.307 133.183 233.161C126.336 231.293 122.406 227.857 120.685 224.728C119.843 226.643 119.493 226.344 119.839 228.199C120.401 231.235 124.404 237.297 133.324 239.73C144.837 242.871 170.185 236.583 177.037 233.626C187.91 228.929 209.763 226.195 203.939 211.438C200.335 219.251 185.327 223.413 176.89 227.059L176.895 227.058Z" fill="#EA911B"/>
<path d="M169.028 238.588C158.249 241.477 141.824 244.405 132.732 241.924C122.954 239.258 118.333 232.504 117.614 228.619C116.637 223.359 119.752 217.449 125.554 213.565C126.079 213.213 126.659 212.87 127.286 212.55C131.051 210.59 136.307 209.247 141.872 207.814C147.86 206.28 154.726 204.34 162.281 202.046C163.033 201.821 163.985 201.49 165.089 201.118C174.301 197.963 193.47 191.407 202.933 205.001C206.811 210.574 208.017 215.338 206.612 219.558C204.151 226.948 194.304 230.155 185.618 232.981C182.78 233.906 180.098 234.777 177.924 235.718C176.122 236.494 172.944 237.545 169.019 238.597L169.028 238.588ZM138.974 213.249C135.218 214.256 131.826 215.294 129.375 216.572C128.899 216.823 128.458 217.076 128.067 217.34C123.835 220.169 121.42 224.372 122.057 227.798C122.471 230.04 125.916 235.372 133.91 237.554C144.357 240.405 168.973 234.654 176.137 231.555C178.499 230.535 181.279 229.632 184.218 228.674C191.894 226.177 200.59 223.343 202.328 218.118C203.235 215.394 202.192 211.853 199.235 207.599C191.72 196.804 175.351 202.405 166.557 205.419C165.41 205.808 164.426 206.148 163.599 206.399C155.979 208.711 149.052 210.666 143.004 212.216C141.637 212.565 140.282 212.917 138.979 213.266L138.974 213.249Z" fill="#3A1919"/>
<path d="M204.573 179.607C204.573 179.607 195.299 186.739 182.797 193.076C173.237 197.92 162.315 200.559 162.315 200.559L172.303 234.936C172.303 234.936 208.783 230.694 229.113 211.587C233.207 207.739 237.32 202.435 234.758 194.966C229.904 180.823 204.572 179.602 204.572 179.602L204.573 179.607Z" fill="#A31E36"/>
<path d="M175.746 237.968C162.437 241.534 152.018 243.61 151.835 243.647C150.659 243.88 149.504 243.146 149.208 241.975L140.623 207.909C140.321 206.716 141.024 205.501 142.204 205.173C142.597 205.068 181.404 194.159 199.66 179.023C200.621 178.225 202.042 178.361 202.839 179.327C203.635 180.293 203.503 181.719 202.542 182.516C185.847 196.366 154.101 206.392 145.536 208.927L153.056 238.761C160.545 237.177 186.541 231.367 206.369 223.209C207.526 222.729 208.843 223.285 209.319 224.448C209.793 225.606 209.248 226.932 208.09 227.407C197.816 231.638 185.931 235.239 175.746 237.968Z" fill="#3A1919"/>
<path d="M167.819 197.524L134.577 207.489L146.643 247.774L179.885 237.81L167.819 197.524Z" fill="#A31E36"/>
<path d="M157.022 200.761L145.386 204.249L157.451 244.534L169.087 241.046L157.022 200.761Z" fill="#FFEC64"/>
<path d="M147.248 249.952C146.692 250.101 146.101 250.031 145.595 249.756C145.068 249.468 144.676 248.987 144.504 248.411L132.435 208.125C132.078 206.924 132.752 205.664 133.946 205.303L167.191 195.333C167.768 195.155 168.383 195.225 168.91 195.512C169.437 195.799 169.829 196.281 170.001 196.857L182.069 237.142C182.426 238.343 181.753 239.603 180.558 239.965L147.314 249.934C147.314 249.934 147.27 249.946 147.248 249.952ZM137.409 208.999L148.178 244.938L177.096 236.269L166.327 200.329L137.409 208.999Z" fill="#3A1919"/>
<path fill-rule="evenodd" clip-rule="evenodd" d="M236.747 170.176C235.956 168.968 234.646 168.31 233.309 168.293C233.818 167.053 233.73 165.592 232.939 164.384C231.67 162.46 229.089 161.925 227.173 163.189C227.173 163.189 225.16 163.987 224.724 167.049L213.955 170.891L212.326 171.967L204.565 180.383C201.586 179.58 200.064 181.12 200.064 181.12C198.149 182.39 197.621 184.978 198.885 186.905C199.676 188.113 200.986 188.771 202.323 188.788C201.814 190.028 201.902 191.489 202.693 192.697C203.484 193.904 204.794 194.563 206.131 194.58C205.622 195.819 205.709 197.28 206.5 198.488C207.292 199.696 208.602 200.355 209.939 200.372C209.429 201.611 209.517 203.072 210.308 204.28C211.55 206.166 214.045 206.712 215.949 205.55C216.05 205.799 216.175 206.047 216.33 206.275C217.6 208.2 220.18 208.735 222.097 207.47C222.713 207.065 223.185 206.516 223.5 205.903C223.521 205.939 223.544 205.979 223.565 206.015C224.834 207.94 227.415 208.474 229.332 207.21C230.061 206.727 230.586 206.046 230.892 205.29C231.953 205.891 233.245 206.003 234.412 205.561C234.544 205.508 234.676 205.455 234.81 205.39C234.956 205.321 235.098 205.242 235.238 205.152C235.238 205.152 235.271 205.125 235.292 205.114C235.312 205.103 235.327 205.093 235.347 205.082C235.487 204.991 235.611 204.888 235.735 204.784C235.844 204.69 235.947 204.592 236.047 204.489C236.911 203.589 237.322 202.352 237.189 201.138C238.006 201.154 238.83 200.939 239.56 200.456C241.475 199.186 242.003 196.597 240.739 194.671C240.718 194.636 240.686 194.603 240.665 194.568C241.353 194.519 242.036 194.3 242.652 193.895C244.568 192.624 245.095 190.036 243.831 188.11C243.675 187.876 243.502 187.665 243.316 187.474C245.131 186.178 245.613 183.66 244.372 181.775C243.581 180.567 242.271 179.909 240.934 179.892C241.443 178.652 241.356 177.191 240.564 175.983C239.773 174.775 238.463 174.117 237.126 174.1C237.636 172.86 237.548 171.399 236.757 170.191L236.747 170.176Z" fill="#791628"/>
<path d="M228.267 208.299C227.569 208.486 226.827 208.509 226.097 208.358C225.095 208.152 224.209 207.638 223.536 206.891C223.219 207.299 222.84 207.653 222.408 207.939C220.233 209.372 217.295 208.769 215.857 206.584C215.799 206.5 215.745 206.409 215.692 206.318C213.603 207.247 211.127 206.555 209.835 204.589C209.106 203.482 208.879 202.135 209.183 200.868C207.902 200.648 206.756 199.905 206.029 198.803C205.3 197.696 205.073 196.348 205.376 195.082C204.096 194.861 202.95 194.118 202.223 193.016C201.493 191.909 201.267 190.562 201.57 189.295C200.29 189.075 199.144 188.332 198.415 187.225C197.717 186.168 197.477 184.9 197.728 183.659C197.979 182.436 198.684 181.379 199.712 180.681C200.009 180.414 201.59 179.139 204.374 179.76L211.909 171.592C211.942 171.56 211.974 171.528 212.015 171.505L213.643 170.429C213.682 170.401 213.725 170.384 213.767 170.367L224.222 166.638C224.747 163.822 226.536 162.867 226.902 162.705C227.947 162.026 229.189 161.799 230.413 162.046C231.65 162.301 232.714 163.025 233.413 164.082C234.142 165.189 234.368 166.536 234.065 167.803C235.345 168.023 236.491 168.766 237.219 169.868C237.948 170.975 238.174 172.323 237.871 173.589C239.151 173.81 240.297 174.553 241.025 175.655C241.753 176.756 241.981 178.109 241.677 179.376C242.958 179.596 244.103 180.339 244.831 181.441C246.125 183.412 245.787 185.967 244.112 187.525C244.175 187.608 244.233 187.692 244.292 187.782C244.99 188.839 245.23 190.106 244.978 191.347C244.726 192.588 244.007 193.655 242.956 194.353C242.524 194.639 242.055 194.853 241.552 194.982C242.511 197.078 241.836 199.617 239.865 200.92C239.234 201.336 238.519 201.592 237.769 201.669C237.749 202.86 237.283 204 236.447 204.869C236.437 204.878 236.428 204.886 236.414 204.902C236.3 205.02 236.198 205.118 236.088 205.212C235.956 205.329 235.806 205.446 235.646 205.547C235.636 205.55 235.617 205.567 235.596 205.578C235.577 205.595 235.557 205.607 235.533 205.625C235.389 205.722 235.232 205.811 235.05 205.895C234.916 205.96 234.774 206.022 234.626 206.079C234.604 206.085 234.577 206.092 234.55 206.099C233.463 206.514 232.246 206.488 231.149 206.037C230.783 206.698 230.266 207.253 229.636 207.674C229.204 207.96 228.74 208.167 228.254 208.297L228.267 208.299ZM223.357 205.349C223.395 205.339 223.438 205.327 223.481 205.334C223.683 205.326 223.874 205.428 223.986 205.603C223.987 205.609 224.02 205.665 224.021 205.67C224.567 206.509 225.381 207.06 226.321 207.254C227.261 207.448 228.224 207.266 229.028 206.734C229.634 206.337 230.099 205.76 230.372 205.077C230.431 204.926 230.558 204.81 230.706 204.753C230.854 204.696 231.029 204.714 231.167 204.794C232.091 205.321 233.194 205.401 234.194 205.033C234.199 205.032 234.205 205.03 234.21 205.029C234.327 204.986 234.437 204.938 234.551 204.884C234.68 204.821 234.802 204.753 234.918 204.681L234.951 204.654C234.951 204.654 235.022 204.612 235.048 204.599C235.141 204.533 235.248 204.451 235.351 204.359C235.451 204.274 235.539 204.186 235.626 204.098C235.626 204.098 235.636 204.089 235.64 204.082C236.374 203.311 236.729 202.259 236.614 201.198C236.593 201.034 236.649 200.872 236.758 200.755C236.866 200.632 237.023 200.567 237.188 200.569C237.922 200.584 238.633 200.382 239.24 199.984C240.893 198.89 241.35 196.649 240.26 194.982C240.26 194.982 240.197 194.899 240.196 194.893C240.075 194.726 240.057 194.508 240.143 194.327C240.229 194.145 240.412 194.02 240.611 194.002C241.226 193.96 241.819 193.754 242.331 193.418C243.135 192.885 243.678 192.077 243.875 191.132C244.066 190.189 243.883 189.223 243.351 188.415C243.223 188.221 243.073 188.032 242.904 187.86C242.791 187.744 242.73 187.578 242.745 187.416C242.759 187.254 242.847 187.101 242.98 187.007C244.565 185.878 244.966 183.711 243.892 182.08C243.232 181.078 242.121 180.466 240.92 180.453C240.732 180.451 240.561 180.356 240.454 180.197C240.354 180.042 240.33 179.843 240.406 179.67C240.868 178.56 240.746 177.296 240.084 176.288C239.424 175.286 238.313 174.674 237.112 174.661C236.924 174.659 236.753 174.564 236.646 174.405C236.546 174.25 236.522 174.051 236.598 173.878C237.059 172.763 236.938 171.504 236.277 170.496C235.616 169.494 234.506 168.882 233.304 168.869C233.117 168.867 232.945 168.772 232.838 168.613C232.737 168.452 232.714 168.259 232.791 168.086C233.252 166.971 233.131 165.712 232.47 164.71C231.938 163.902 231.13 163.35 230.19 163.156C229.25 162.962 228.287 163.143 227.483 163.676C227.448 163.697 227.418 163.716 227.38 163.727C227.318 163.755 225.664 164.474 225.285 167.14C225.253 167.348 225.112 167.52 224.915 167.591L214.21 171.41L212.697 172.414L204.98 180.777C204.84 180.932 204.623 180.996 204.421 180.939C201.826 180.238 200.522 181.479 200.465 181.529C200.442 181.553 200.409 181.58 200.379 181.599C199.575 182.132 199.032 182.94 198.835 183.885C198.643 184.828 198.826 185.794 199.358 186.602C200.019 187.605 201.129 188.216 202.331 188.229C202.518 188.231 202.69 188.326 202.797 188.485C202.897 188.641 202.921 188.839 202.844 189.012C202.383 190.128 202.504 191.386 203.166 192.394C203.826 193.396 204.937 194.008 206.138 194.021C206.326 194.023 206.497 194.118 206.604 194.277C206.706 194.438 206.728 194.631 206.652 194.804C206.191 195.92 206.312 197.178 206.972 198.18C207.632 199.183 208.743 199.795 209.944 199.807C210.132 199.81 210.304 199.905 210.41 200.064C210.51 200.219 210.535 200.418 210.458 200.591C209.996 201.701 210.118 202.964 210.78 203.972C211.854 205.603 213.994 206.086 215.654 205.066C215.795 204.981 215.965 204.959 216.125 205.01C216.284 205.062 216.41 205.181 216.469 205.335C216.558 205.558 216.672 205.767 216.802 205.967C217.895 207.628 220.129 208.092 221.787 206.996C222.299 206.659 222.717 206.19 222.997 205.645C223.07 205.502 223.2 205.397 223.353 205.356L223.357 205.349Z" fill="#791628"/>
<path d="M238.067 166.819C237.276 165.611 235.971 164.951 234.633 164.928C235.149 163.693 235.06 162.226 234.269 161.018C233.003 159.087 230.422 158.546 228.505 159.811C228.505 159.811 226.49 160.603 226.048 163.661L215.266 167.477L213.636 168.548L205.853 176.947C202.877 176.136 201.349 177.673 201.349 177.673C199.426 178.939 198.893 181.528 200.157 183.454C200.948 184.662 202.253 185.322 203.591 185.345C203.075 186.58 203.164 188.047 203.955 189.255C204.746 190.463 206.051 191.122 207.39 191.145C206.873 192.381 206.962 193.847 207.753 195.055C208.545 196.263 209.849 196.923 211.188 196.945C210.671 198.181 210.761 199.648 211.552 200.855C212.788 202.742 215.281 203.3 217.19 202.138C217.291 202.386 217.416 202.634 217.573 202.868C218.838 204.8 221.42 205.34 223.337 204.076C223.953 203.67 224.426 203.127 224.741 202.514C224.763 202.549 224.785 202.59 224.806 202.626C226.072 204.557 228.654 205.098 230.57 203.833C231.3 203.35 231.826 202.675 232.132 201.918C233.195 202.526 234.481 202.638 235.654 202.195C235.787 202.148 235.918 202.089 236.052 202.024C236.198 201.956 236.34 201.876 236.479 201.786C236.479 201.786 236.513 201.76 236.534 201.748C236.554 201.737 236.569 201.727 236.589 201.716C236.729 201.626 236.854 201.527 236.977 201.418C237.086 201.324 237.188 201.227 237.289 201.123C238.158 200.222 238.57 198.99 238.438 197.776C239.25 197.799 240.081 197.582 240.81 197.099C242.733 195.833 243.266 193.244 242.002 191.318C241.981 191.282 241.948 191.25 241.927 191.214C242.615 191.165 243.3 190.952 243.916 190.546C245.839 189.28 246.372 186.691 245.108 184.764C244.957 184.529 244.784 184.317 244.591 184.122C246.413 182.83 246.895 180.313 245.659 178.426C244.868 177.218 243.564 176.559 242.225 176.536C242.741 175.3 242.652 173.834 241.861 172.626C241.07 171.418 239.765 170.758 238.427 170.736C238.943 169.5 238.854 168.034 238.063 166.826L238.067 166.819Z" fill="#FFE14D"/>
<path d="M207.261 180.718C207.379 180.264 207.114 179.801 206.661 179.682C206.207 179.557 205.748 179.827 205.623 180.277C205.616 180.296 205.076 182.248 203.638 183.426C202.278 184.541 201.137 184.471 201.101 184.469C201.823 185.027 202.701 185.337 203.593 185.351C203.568 185.41 203.554 185.467 203.535 185.525C203.909 185.33 204.303 185.078 204.711 184.746C206.585 183.211 207.23 180.82 207.261 180.718Z" fill="#C6B44B"/>
<path d="M211.218 186.482C211.318 186.027 211.032 185.569 210.578 185.468C210.119 185.368 209.669 185.653 209.569 186.108C209.563 186.127 209.144 187.965 207.725 189.19C206.396 190.338 205.25 190.293 205.216 190.296C205.127 190.291 205.042 190.302 204.959 190.318C205.668 190.85 206.522 191.137 207.391 191.151C207.345 191.263 207.306 191.379 207.268 191.501C207.752 191.277 208.279 190.954 208.825 190.485C210.663 188.901 211.194 186.588 211.214 186.489L211.218 186.482Z" fill="#C6B44B"/>
<path d="M215.044 192.099C215.144 191.644 214.859 191.192 214.409 191.083C213.956 190.982 213.499 191.263 213.393 191.719C213.392 191.737 213.005 193.302 211.414 194.691C210.083 195.851 208.942 195.846 208.906 195.844C208.77 195.839 208.638 195.869 208.519 195.924C209.25 196.561 210.169 196.914 211.111 196.943C211.552 196.713 212.03 196.403 212.524 195.977C214.557 194.207 215.027 192.191 215.045 192.104L215.044 192.099Z" fill="#C6B44B"/>
<path d="M229.83 164.978C229.381 164.869 228.924 165.15 228.819 165.607C228.708 166.065 228.988 166.523 229.443 166.63C229.574 166.66 230.486 166.856 231.827 166.496C232.29 166.372 232.801 166.183 233.35 165.9C233.904 165.611 234.376 165.279 234.777 164.943C234.729 164.938 234.681 164.934 234.627 164.93C234.965 164.118 235.038 163.213 234.828 162.342C234.546 162.775 233.824 163.743 232.566 164.391C230.99 165.207 229.887 164.992 229.82 164.98L229.83 164.978Z" fill="#C6B44B"/>
<path d="M233.36 170.645C232.914 170.53 232.454 170.799 232.335 171.248C232.217 171.702 232.483 172.171 232.935 172.29C233.068 172.325 234.043 172.562 235.488 172.175C235.907 172.063 236.372 171.897 236.863 171.66C237.452 171.373 237.979 171.05 238.438 170.733C238.438 170.733 238.433 170.735 238.427 170.736C238.737 169.996 238.821 169.176 238.678 168.381C238.196 168.827 237.296 169.567 236.123 170.139C234.524 170.914 233.426 170.674 233.364 170.661L233.36 170.645Z" fill="#C6B44B"/>
<path d="M236.902 176.08C236.451 175.966 235.997 176.234 235.877 176.683C235.759 177.137 236.024 177.6 236.478 177.725C236.61 177.76 237.753 178.034 239.743 177.501C239.874 177.466 240.01 177.429 240.15 177.386C240.923 177.15 241.633 176.813 242.242 176.468C242.515 175.784 242.6 175.034 242.489 174.295C241.877 174.735 240.833 175.396 239.656 175.758C237.907 176.297 236.946 176.091 236.902 176.08Z" fill="#C6B44B"/>
<path d="M218.998 197.153C218.995 196.684 218.613 196.306 218.146 196.308C217.679 196.309 217.302 196.692 217.305 197.161C217.31 197.177 217.294 198.971 216.237 200.457C215.226 201.878 214.045 202.136 214.008 202.151C213.809 202.193 213.634 202.304 213.517 202.453C214.587 202.871 215.807 202.843 216.884 202.308C217.133 202.059 217.38 201.782 217.618 201.448C219.003 199.505 219.001 197.252 218.999 197.159L218.998 197.153Z" fill="#C6B44B"/>
<path d="M224.69 198.069C224.438 197.673 223.915 197.555 223.521 197.807C223.127 198.059 223.01 198.583 223.263 198.979C223.266 198.99 223.787 199.889 223.485 201.378C223.17 202.93 221.548 204.203 221.533 204.213C221.359 204.348 221.252 204.541 221.219 204.743C221.949 204.718 222.679 204.499 223.335 204.071C223.951 203.665 224.425 203.121 224.74 202.509C224.761 202.544 224.784 202.585 224.805 202.621C224.816 202.641 224.832 202.654 224.843 202.675C224.973 202.376 225.081 202.06 225.144 201.726C225.586 199.56 224.782 198.214 224.69 198.069Z" fill="#C6B44B"/>
<path d="M238.237 189.657C237.781 189.697 237.449 190.097 237.485 190.557C237.515 191.018 237.918 191.368 238.376 191.351C238.381 191.349 239.182 191.328 240.475 192.185C241.766 193.036 242.341 194.178 242.542 194.664C242.83 193.56 242.673 192.341 241.999 191.307C241.977 191.272 241.945 191.239 241.924 191.204C241.946 191.198 241.962 191.193 241.986 191.193C241.806 191.047 241.615 190.899 241.403 190.763C239.598 189.568 238.374 189.644 238.243 189.655L238.237 189.657Z" fill="#C6B44B"/>
<path d="M240.782 183.536C240.815 183.069 241.217 182.715 241.681 182.749C241.681 182.749 241.717 182.751 241.776 182.753C240.341 182.674 239.46 183.074 239.342 183.135C238.93 183.34 238.76 183.843 238.96 184.259C239.16 184.68 239.669 184.855 240.084 184.662C240.116 184.647 240.7 184.385 241.71 184.449C241.639 184.445 241.58 184.443 241.569 184.446C241.104 184.412 240.751 184.008 240.782 183.536Z" fill="#C6B44B"/>
<path d="M241.71 184.449C242.048 184.47 242.432 184.525 242.86 184.64C244.54 185.087 245.143 186.052 245.163 186.082C245.293 186.305 245.503 186.437 245.737 186.48C245.658 185.879 245.447 185.29 245.091 184.746C244.94 184.51 244.767 184.299 244.574 184.104C244.658 184.046 244.73 183.986 244.805 183.919C244.552 184.022 244.295 184.108 244.044 184.175C243.014 184.452 242.055 184.45 241.701 184.439L241.71 184.449Z" fill="#C6B44B"/>
<path d="M244.651 182.1C243.652 182.755 242.163 182.761 241.774 182.748C242.225 182.774 242.736 182.848 243.295 182.992C244.006 183.183 244.579 183.446 245.039 183.721C246.016 182.791 246.471 181.454 246.295 180.146C246.16 180.47 245.703 181.402 244.65 182.095L244.651 182.1Z" fill="#C6B44B"/>
<path d="M243.296 182.997C242.736 182.848 242.232 182.778 241.776 182.753C241.717 182.752 241.681 182.749 241.681 182.749C241.216 182.716 240.814 183.07 240.781 183.536C240.749 184.003 241.104 184.412 241.569 184.446C241.58 184.443 241.635 184.452 241.71 184.449C242.058 184.461 243.022 184.461 244.053 184.185C244.303 184.118 244.561 184.031 244.814 183.928C244.891 183.867 244.966 183.8 245.035 183.728C244.574 183.447 244.001 183.184 243.291 182.999L243.296 182.997Z" fill="#C6B44B"/>
<path d="M230.666 197.19C230.302 196.9 229.785 196.956 229.489 197.311C229.193 197.666 229.249 198.203 229.598 198.503C229.629 198.53 230.384 199.19 230.603 200.704C230.834 202.308 229.948 204.041 229.94 204.055C229.92 204.09 229.92 204.131 229.907 204.17C230.132 204.074 230.359 203.961 230.572 203.816C231.301 203.333 231.827 202.658 232.133 201.901C232.187 201.928 232.241 201.954 232.295 201.981C232.35 201.491 232.359 200.978 232.279 200.46C231.963 198.279 230.798 197.289 230.67 197.183L230.666 197.19Z" fill="#C6B44B"/>
<path d="M234.721 194.46C234.281 194.302 233.801 194.536 233.643 194.972C233.486 195.413 233.71 195.898 234.151 196.062C234.163 196.064 235.211 196.464 236.351 197.685C237.268 198.665 237.671 199.995 237.79 200.461C238.3 199.662 238.53 198.708 238.43 197.767C238.453 197.767 238.476 197.766 238.505 197.764C238.258 197.344 237.956 196.914 237.589 196.525C236.146 194.982 234.78 194.485 234.722 194.465L234.721 194.46Z" fill="#C6B44B"/>
<path d="M230.856 196.393C226.016 199.573 219.498 198.21 216.313 193.348L205.945 177.509C205.945 177.509 207.562 173.731 215.044 168.81C222.532 163.887 226.626 163.899 226.626 163.899L236.994 179.739C240.173 184.602 238.828 191.141 233.99 194.326L230.851 196.394L230.856 196.393Z" fill="#A31E36"/>
<path d="M228.266 199.398C223.321 200.723 217.863 198.806 214.902 194.278L204.534 178.438C204.219 177.959 204.168 177.357 204.39 176.834C204.577 176.396 206.428 172.444 214.119 167.385C221.804 162.328 226.164 162.198 226.638 162.2C227.205 162.201 227.739 162.492 228.049 162.972L238.417 178.812C242.11 184.458 240.545 192.054 234.927 195.753L231.788 197.821C230.675 198.553 229.483 199.078 228.267 199.404L228.266 199.398ZM207.943 177.466L217.73 192.423C220.401 196.501 225.872 197.64 229.927 194.975L233.066 192.908C237.124 190.236 238.256 184.752 235.585 180.674L225.798 165.717C224.336 165.997 220.965 166.959 215.98 170.231C211.006 173.5 208.788 176.213 207.942 177.46L207.943 177.466Z" fill="#C6B44B"/>
</g>
</svg>
