<svg width="666" height="404" fill="none" xmlns="http://www.w3.org/2000/svg"><path d="M557.001 119.5c0 16.292-13.208 29.5-29.5 29.5s-29.5-13.208-29.5-29.5c0-16.293 13.208-29.5 29.5-29.5s29.5 13.207 29.5 29.5ZM324 274c0 6.627-5.372 12-12 12-6.627 0-12-5.373-12-12s5.373-12 12-12c6.628 0 12 5.373 12 12ZM295 349.5c0 30.1-24.4 54.5-54.5 54.5-30.099 0-54.5-24.4-54.5-54.5s24.401-54.5 54.5-54.5c30.1 0 54.5 24.4 54.5 54.5ZM666.001 200.5c0 35.07-28.43 63.5-63.5 63.5-35.071 0-63.5-28.43-63.5-63.5s28.429-63.5 63.5-63.5c35.07 0 63.5 28.43 63.5 63.5Z" fill="#E67823"/><path d="M198.001 338c0 14.359-11.641 26-26 26-14.36 0-26-11.641-26-26s11.64-26 26-26c14.359 0 26 11.641 26 26ZM598 90.5c0 9.665-7.835 17.5-17.5 17.5S563 100.165 563 90.5 570.835 73 580.5 73 598 80.835 598 90.5Z" fill="#1E756D"/><path d="M594 25c0 5.523-4.477 10-10 10s-10-4.477-10-10 4.477-10 10-10 10 4.477 10 10Z" fill="#F5B444"/><path d="M461.283 19.543h39.086l-19.543 33.85-19.543-33.85Z" fill="#1E756D"/><path d="m34.362 354.303-22.933 16.753-3.042-28.237 25.975 11.484ZM369.362 206.303l-22.933 16.753-3.042-28.237 25.975 11.484Z" fill="#F5B444"/><path d="m97.59 298.834 14.372-15.478 6.218 20.186-20.59-4.708Z" fill="#E67823"/><circle cx="452" cy="246" r="76" fill="#F5B444"/><circle cx="389.5" cy="329.5" r="42.5" fill="#F5B444"/></svg>