<svg width="2880" height="286" fill="none" xmlns="http://www.w3.org/2000/svg"><path fill-rule="evenodd" clip-rule="evenodd" d="M1098.6 75.142c-39.4 12.107-80.71 24.797-124.1 37.358-115.818 33.526-236.838 27.108-350.829 21.063-73.012-3.872-143.14-7.591-207.171-.563C252.5 151 0 286 0 286h2880s-252.5-135-416.5-153c-64.03-7.028-134.16-3.309-207.17.563-113.99 6.045-235.01 12.463-350.83-21.063-43.39-12.56-84.7-25.251-124.1-37.358C1648.27 34.236 1536.84 0 1440 0c-96.84 0-208.27 34.236-341.4 75.142Z" fill="#4041E4"/></svg>